<svg xmlns="http://www.w3.org/2000/svg" xmlns:xlink="http://www.w3.org/1999/xlink" width="628" zoomAndPan="magnify" viewBox="0 0 470.87997 470.999988" height="628" preserveAspectRatio="xMidYMid meet" version="1.0"><defs><clipPath id="f8a7df7cd2"><path d="M 263 77 L 420 77 L 420 141 L 263 141 Z M 263 77 " clip-rule="nonzero"/></clipPath><clipPath id="32fcea2442"><path d="M 272.050781 0.0625 L 487.71875 82.652344 L 410.757812 283.617188 L 195.089844 201.023438 Z M 272.050781 0.0625 " clip-rule="nonzero"/></clipPath><clipPath id="4cd9ece91f"><path d="M 272.050781 0.0625 L 487.71875 82.652344 L 410.757812 283.617188 L 195.089844 201.023438 Z M 272.050781 0.0625 " clip-rule="nonzero"/></clipPath><clipPath id="bdd8775451"><path d="M 302 116 L 381 116 L 381 150 L 302 150 Z M 302 116 " clip-rule="nonzero"/></clipPath><clipPath id="48e142e9c8"><path d="M 272.050781 0.0625 L 487.71875 82.652344 L 410.757812 283.617188 L 195.089844 201.023438 Z M 272.050781 0.0625 " clip-rule="nonzero"/></clipPath><clipPath id="978acb8512"><path d="M 272.050781 0.0625 L 487.71875 82.652344 L 410.757812 283.617188 L 195.089844 201.023438 Z M 272.050781 0.0625 " clip-rule="nonzero"/></clipPath><clipPath id="ff03da1a58"><path d="M 295 135 L 346 135 L 346 158 L 295 158 Z M 295 135 " clip-rule="nonzero"/></clipPath><clipPath id="a8e3457811"><path d="M 272.050781 0.0625 L 487.71875 82.652344 L 410.757812 283.617188 L 195.089844 201.023438 Z M 272.050781 0.0625 " clip-rule="nonzero"/></clipPath><clipPath id="2ca0fc73e1"><path d="M 272.050781 0.0625 L 487.71875 82.652344 L 410.757812 283.617188 L 195.089844 201.023438 Z M 272.050781 0.0625 " clip-rule="nonzero"/></clipPath><clipPath id="9e72d0ca50"><path d="M 241 136 L 328 136 L 328 174 L 241 174 Z M 241 136 " clip-rule="nonzero"/></clipPath><clipPath id="b33c725d43"><path d="M 272.050781 0.0625 L 487.71875 82.652344 L 410.757812 283.617188 L 195.089844 201.023438 Z M 272.050781 0.0625 " clip-rule="nonzero"/></clipPath><clipPath id="bf8c275af9"><path d="M 272.050781 0.0625 L 487.71875 82.652344 L 410.757812 283.617188 L 195.089844 201.023438 Z M 272.050781 0.0625 " clip-rule="nonzero"/></clipPath><clipPath id="e78ef090ee"><path d="M 276 35 L 316 35 L 316 75 L 276 75 Z M 276 35 " clip-rule="nonzero"/></clipPath><clipPath id="4e9e7f2855"><path d="M 272.050781 0.0625 L 487.71875 82.652344 L 410.757812 283.617188 L 195.089844 201.023438 Z M 272.050781 0.0625 " clip-rule="nonzero"/></clipPath><clipPath id="eef375e9ce"><path d="M 272.050781 0.0625 L 487.71875 82.652344 L 410.757812 283.617188 L 195.089844 201.023438 Z M 272.050781 0.0625 " clip-rule="nonzero"/></clipPath><clipPath id="d968dd0648"><path d="M 355 62 L 404 62 L 404 106 L 355 106 Z M 355 62 " clip-rule="nonzero"/></clipPath><clipPath id="d11174ae0b"><path d="M 272.050781 0.0625 L 487.71875 82.652344 L 410.757812 283.617188 L 195.089844 201.023438 Z M 272.050781 0.0625 " clip-rule="nonzero"/></clipPath><clipPath id="20b74608e0"><path d="M 272.050781 0.0625 L 487.71875 82.652344 L 410.757812 283.617188 L 195.089844 201.023438 Z M 272.050781 0.0625 " clip-rule="nonzero"/></clipPath><clipPath id="89db63668e"><path d="M 402 84 L 432 84 L 432 118 L 402 118 Z M 402 84 " clip-rule="nonzero"/></clipPath><clipPath id="e5d90cb968"><path d="M 272.050781 0.0625 L 487.71875 82.652344 L 410.757812 283.617188 L 195.089844 201.023438 Z M 272.050781 0.0625 " clip-rule="nonzero"/></clipPath><clipPath id="db427b5bb8"><path d="M 272.050781 0.0625 L 487.71875 82.652344 L 410.757812 283.617188 L 195.089844 201.023438 Z M 272.050781 0.0625 " clip-rule="nonzero"/></clipPath><clipPath id="41216d91fa"><path d="M 313 48 L 350 48 L 350 88 L 313 88 Z M 313 48 " clip-rule="nonzero"/></clipPath><clipPath id="4123fc798f"><path d="M 272.050781 0.0625 L 487.71875 82.652344 L 410.757812 283.617188 L 195.089844 201.023438 Z M 272.050781 0.0625 " clip-rule="nonzero"/></clipPath><clipPath id="141bfaa290"><path d="M 272.050781 0.0625 L 487.71875 82.652344 L 410.757812 283.617188 L 195.089844 201.023438 Z M 272.050781 0.0625 " clip-rule="nonzero"/></clipPath><clipPath id="19d884210a"><path d="M 318 61 L 343 61 L 343 74 L 318 74 Z M 318 61 " clip-rule="nonzero"/></clipPath><clipPath id="c68d753d96"><path d="M 272.050781 0.0625 L 487.71875 82.652344 L 410.757812 283.617188 L 195.089844 201.023438 Z M 272.050781 0.0625 " clip-rule="nonzero"/></clipPath><clipPath id="2af8479b19"><path d="M 272.050781 0.0625 L 487.71875 82.652344 L 410.757812 283.617188 L 195.089844 201.023438 Z M 272.050781 0.0625 " clip-rule="nonzero"/></clipPath><clipPath id="542af2f009"><path d="M 215 2 L 464 2 L 464 195 L 215 195 Z M 215 2 " clip-rule="nonzero"/></clipPath><clipPath id="f7dc44d466"><path d="M 272.050781 0.0625 L 487.71875 82.652344 L 410.757812 283.617188 L 195.089844 201.023438 Z M 272.050781 0.0625 " clip-rule="nonzero"/></clipPath><clipPath id="2aa2d3d296"><path d="M 272.050781 0.0625 L 487.71875 82.652344 L 410.757812 283.617188 L 195.089844 201.023438 Z M 272.050781 0.0625 " clip-rule="nonzero"/></clipPath><clipPath id="ee7e9705a9"><path d="M 250 98 L 291 98 L 291 135 L 250 135 Z M 250 98 " clip-rule="nonzero"/></clipPath><clipPath id="13f3bfb1bf"><path d="M 272.050781 0.0625 L 487.71875 82.652344 L 410.757812 283.617188 L 195.089844 201.023438 Z M 272.050781 0.0625 " clip-rule="nonzero"/></clipPath><clipPath id="22bfd147df"><path d="M 272.050781 0.0625 L 487.71875 82.652344 L 410.757812 283.617188 L 195.089844 201.023438 Z M 272.050781 0.0625 " clip-rule="nonzero"/></clipPath><clipPath id="aa7c717b6d"><path d="M 314 143 L 437 143 L 437 266 L 314 266 Z M 314 143 " clip-rule="nonzero"/></clipPath><clipPath id="f41138b518"><path d="M 272.050781 0.0625 L 487.71875 82.652344 L 410.757812 283.617188 L 195.089844 201.023438 Z M 272.050781 0.0625 " clip-rule="nonzero"/></clipPath><clipPath id="995ee8c7cb"><path d="M 272.050781 0.0625 L 487.71875 82.652344 L 410.757812 283.617188 L 195.089844 201.023438 Z M 272.050781 0.0625 " clip-rule="nonzero"/></clipPath><clipPath id="aa43e45515"><path d="M 348 160 L 432 160 L 432 243 L 348 243 Z M 348 160 " clip-rule="nonzero"/></clipPath><clipPath id="a47712d626"><path d="M 272.050781 0.0625 L 487.71875 82.652344 L 410.757812 283.617188 L 195.089844 201.023438 Z M 272.050781 0.0625 " clip-rule="nonzero"/></clipPath><clipPath id="1b6773a69a"><path d="M 272.050781 0.0625 L 487.71875 82.652344 L 410.757812 283.617188 L 195.089844 201.023438 Z M 272.050781 0.0625 " clip-rule="nonzero"/></clipPath></defs><g clip-path="url(#f8a7df7cd2)"><g clip-path="url(#32fcea2442)"><g clip-path="url(#4cd9ece91f)"><path fill="#f96f5f" d="M 415.925781 140.3125 L 265.578125 82.734375 C 264.25 82.226562 263.585938 80.738281 264.09375 79.414062 C 264.601562 78.085938 266.089844 77.421875 267.417969 77.929688 L 417.765625 135.507812 C 419.09375 136.015625 419.753906 137.503906 419.246094 138.832031 C 418.738281 140.15625 417.253906 140.820312 415.925781 140.3125 " fill-opacity="1" fill-rule="nonzero"/></g></g></g><g clip-path="url(#bdd8775451)"><g clip-path="url(#48e142e9c8)"><g clip-path="url(#978acb8512)"><path fill="#f96f5f" d="M 376.960938 148.839844 L 304.558594 121.113281 C 303.234375 120.605469 302.570312 119.117188 303.078125 117.789062 C 303.585938 116.464844 305.074219 115.800781 306.398438 116.308594 L 378.800781 144.035156 C 380.128906 144.542969 380.792969 146.03125 380.285156 147.355469 C 379.777344 148.683594 378.289062 149.347656 376.960938 148.839844 " fill-opacity="1" fill-rule="nonzero"/></g></g></g><g clip-path="url(#ff03da1a58)"><g clip-path="url(#a8e3457811)"><g clip-path="url(#2ca0fc73e1)"><path fill="#f96f5f" d="M 342.296875 157.691406 L 297.167969 140.410156 C 295.84375 139.902344 295.179688 138.414062 295.6875 137.089844 C 296.195312 135.761719 297.683594 135.097656 299.007812 135.605469 L 344.136719 152.886719 C 345.464844 153.394531 346.128906 154.882812 345.617188 156.210938 C 345.109375 157.535156 343.625 158.199219 342.296875 157.691406 " fill-opacity="1" fill-rule="nonzero"/></g></g></g><g clip-path="url(#9e72d0ca50)"><g clip-path="url(#b33c725d43)"><g clip-path="url(#bf8c275af9)"><path fill="#f96f5f" d="M 324.476562 172.996094 L 242.964844 141.777344 C 241.640625 141.269531 240.976562 139.78125 241.484375 138.457031 C 241.992188 137.128906 243.480469 136.464844 244.804688 136.972656 L 326.316406 168.191406 C 327.644531 168.699219 328.308594 170.183594 327.800781 171.511719 C 327.292969 172.839844 325.804688 173.503906 324.476562 172.996094 " fill-opacity="1" fill-rule="nonzero"/></g></g></g><g clip-path="url(#e78ef090ee)"><g clip-path="url(#4e9e7f2855)"><g clip-path="url(#eef375e9ce)"><path fill="#f96f5f" d="M 302.25 74.65625 C 301.605469 74.410156 301.070312 73.90625 300.796875 73.246094 L 288.957031 44.886719 L 281.632812 64.007812 C 281.125 65.332031 279.636719 65.996094 278.3125 65.488281 C 276.984375 64.980469 276.320312 63.492188 276.828125 62.167969 L 286.449219 37.042969 C 286.828125 36.0625 287.761719 35.40625 288.816406 35.390625 C 289.867188 35.375 290.820312 36.003906 291.226562 36.972656 L 303.066406 65.328125 L 310.386719 46.210938 C 310.894531 44.882812 312.382812 44.21875 313.710938 44.730469 C 315.035156 45.238281 315.699219 46.722656 315.191406 48.050781 L 305.570312 73.171875 C 305.195312 74.15625 304.257812 74.808594 303.207031 74.824219 C 302.871094 74.832031 302.550781 74.769531 302.25 74.65625 " fill-opacity="1" fill-rule="nonzero"/></g></g></g><g clip-path="url(#d968dd0648)"><g clip-path="url(#d11174ae0b)"><g clip-path="url(#20b74608e0)"><path fill="#f96f5f" d="M 381.121094 104.859375 C 380.222656 104.515625 379.585938 103.695312 379.480469 102.734375 L 376.832031 78.0625 L 359.929688 95.101562 C 359.1875 95.851562 358.066406 96.066406 357.097656 95.660156 C 356.128906 95.25 355.507812 94.289062 355.53125 93.234375 L 356.164062 64.667969 C 356.195312 63.25 357.371094 62.121094 358.792969 62.152344 C 360.210938 62.1875 361.339844 63.363281 361.308594 64.78125 L 360.816406 86.902344 L 376.984375 70.601562 C 377.683594 69.898438 378.726562 69.65625 379.660156 69.984375 C 380.59375 70.320312 381.261719 71.152344 381.367188 72.140625 L 383.960938 96.269531 L 398.695312 79.101562 C 399.621094 78.023438 401.246094 77.902344 402.324219 78.824219 C 403.402344 79.75 403.527344 81.375 402.601562 82.453125 L 383.992188 104.132812 C 383.324219 104.910156 382.257812 105.21875 381.277344 104.914062 C 381.222656 104.898438 381.171875 104.878906 381.121094 104.859375 " fill-opacity="1" fill-rule="nonzero"/></g></g></g><g clip-path="url(#89db63668e)"><g clip-path="url(#e5d90cb968)"><g clip-path="url(#db427b5bb8)"><path fill="#f96f5f" d="M 411.011719 116.285156 C 407.988281 115.128906 404.945312 112.921875 402.738281 109.238281 C 402.007812 108.019531 402.402344 106.4375 403.621094 105.707031 C 404.839844 104.976562 406.421875 105.375 407.148438 106.59375 C 409.863281 111.117188 414.277344 112.421875 417.230469 112.164062 C 418.882812 112.019531 419.988281 111.382812 420.191406 110.855469 C 420.78125 109.316406 421.667969 106.996094 416.949219 103.410156 C 410.390625 98.421875 407.921875 93.648438 409.613281 89.226562 C 410.601562 86.648438 413.433594 84.914062 417.1875 84.589844 C 421.484375 84.214844 427.734375 85.828125 431.207031 91.621094 C 431.933594 92.835938 431.539062 94.417969 430.320312 95.148438 C 429.101562 95.878906 427.523438 95.480469 426.789062 94.261719 C 424.542969 90.511719 420.453125 89.46875 417.636719 89.714844 C 415.710938 89.882812 414.597656 90.605469 414.417969 91.066406 C 413.398438 93.730469 417.519531 97.375 420.066406 99.3125 C 425.378906 103.351562 426.945312 107.605469 424.996094 112.695312 C 424.015625 115.257812 421.277344 116.972656 417.679688 117.289062 C 415.734375 117.457031 413.378906 117.191406 411.011719 116.285156 " fill-opacity="1" fill-rule="nonzero"/></g></g></g><g clip-path="url(#41216d91fa)"><g clip-path="url(#4123fc798f)"><g clip-path="url(#141bfaa290)"><path fill="#f96f5f" d="M 335.519531 87.398438 L 315.457031 79.714844 C 314.132812 79.207031 313.46875 77.71875 313.976562 76.390625 L 324.0625 50.058594 C 324.570312 48.730469 326.054688 48.070312 327.382812 48.578125 L 347.445312 56.261719 C 348.769531 56.769531 349.433594 58.253906 348.925781 59.582031 C 348.417969 60.910156 346.929688 61.574219 345.605469 61.066406 L 327.945312 54.300781 L 319.699219 75.832031 L 337.359375 82.59375 C 338.6875 83.101562 339.351562 84.589844 338.84375 85.914062 C 338.335938 87.242188 336.847656 87.90625 335.519531 87.398438 " fill-opacity="1" fill-rule="nonzero"/></g></g></g><g clip-path="url(#19d884210a)"><g clip-path="url(#c68d753d96)"><g clip-path="url(#2af8479b19)"><path fill="#f96f5f" d="M 338.886719 73.589844 L 320.5 66.550781 C 319.175781 66.042969 318.511719 64.554688 319.019531 63.226562 C 319.527344 61.898438 321.015625 61.238281 322.339844 61.746094 L 340.726562 68.785156 C 342.050781 69.292969 342.714844 70.78125 342.207031 72.109375 C 341.699219 73.433594 340.210938 74.097656 338.886719 73.589844 " fill-opacity="1" fill-rule="nonzero"/></g></g></g><g clip-path="url(#542af2f009)"><g clip-path="url(#f7dc44d466)"><g clip-path="url(#2aa2d3d296)"><path fill="#f96f5f" d="M 316.484375 194.402344 L 220.625 157.6875 C 216.320312 156.042969 214.160156 151.199219 215.808594 146.898438 L 269.039062 7.898438 C 270.6875 3.597656 275.527344 1.433594 279.832031 3.082031 L 458.296875 71.429688 C 462.597656 73.074219 464.761719 77.917969 463.113281 82.222656 L 428.742188 171.972656 C 428.234375 173.296875 426.746094 173.960938 425.417969 173.453125 C 424.089844 172.945312 423.429688 171.457031 423.9375 170.132812 L 458.308594 80.382812 C 458.941406 78.726562 458.109375 76.867188 456.457031 76.234375 L 277.992188 7.886719 C 276.335938 7.253906 274.476562 8.085938 273.84375 9.738281 L 220.613281 148.738281 C 219.980469 150.390625 220.808594 152.25 222.464844 152.886719 L 318.324219 189.597656 C 319.652344 190.105469 320.316406 191.59375 319.808594 192.917969 C 319.300781 194.246094 317.8125 194.910156 316.484375 194.402344 " fill-opacity="1" fill-rule="nonzero"/></g></g></g><g clip-path="url(#ee7e9705a9)"><g clip-path="url(#13f3bfb1bf)"><g clip-path="url(#22bfd147df)"><path fill="#f96f5f" d="M 263.113281 103.957031 C 262.308594 103.652344 261.40625 104.054688 261.101562 104.855469 L 255.523438 119.421875 C 255.214844 120.222656 255.617188 121.125 256.421875 121.429688 L 277.988281 129.691406 C 278.789062 130 279.691406 129.59375 280 128.792969 L 285.578125 114.226562 C 285.882812 113.425781 285.480469 112.523438 284.679688 112.21875 Z M 276.148438 134.496094 L 254.582031 126.234375 C 251.128906 124.914062 249.398438 121.03125 250.71875 117.578125 L 256.296875 103.015625 C 257.617188 99.566406 261.5 97.832031 264.953125 99.152344 L 286.519531 107.414062 C 289.972656 108.734375 291.703125 112.617188 290.382812 116.066406 L 284.804688 130.632812 C 283.484375 134.082031 279.597656 135.816406 276.148438 134.496094 " fill-opacity="1" fill-rule="nonzero"/></g></g></g><g clip-path="url(#aa7c717b6d)"><g clip-path="url(#f41138b518)"><g clip-path="url(#995ee8c7cb)"><path fill="#f96f5f" d="M 395.449219 152.644531 C 366.699219 141.632812 334.351562 156.066406 323.34375 184.8125 C 312.332031 213.5625 326.765625 245.910156 355.515625 256.921875 C 384.265625 267.929688 416.609375 253.496094 427.617188 224.746094 C 438.628906 196 424.199219 163.652344 395.449219 152.644531 Z M 353.675781 261.722656 C 322.277344 249.699219 306.515625 214.371094 318.539062 182.972656 C 330.5625 151.574219 365.890625 135.816406 397.289062 147.839844 C 428.6875 159.863281 444.449219 195.1875 432.421875 226.585938 C 420.398438 257.988281 385.074219 273.75 353.675781 261.722656 " fill-opacity="1" fill-rule="nonzero"/></g></g></g><g clip-path="url(#aa43e45515)"><g clip-path="url(#a47712d626)"><g clip-path="url(#1b6773a69a)"><path fill="#f96f5f" d="M 364.261719 241.625 C 359.335938 239.738281 359.144531 233.851562 358.988281 229.121094 C 358.976562 228.746094 358.964844 228.375 358.949219 228.007812 C 358.796875 224.136719 361.476562 221.554688 363.253906 219.847656 C 363.660156 219.453125 364.246094 218.886719 364.503906 218.554688 C 364.414062 218.214844 364.128906 217.722656 363.847656 217.242188 C 363.1875 216.097656 362.277344 214.527344 362.390625 212.460938 C 362.5 210.449219 362.347656 209.109375 361.296875 205.773438 C 360.785156 205.554688 359.492188 205.40625 358.605469 205.304688 C 355.265625 204.914062 349.675781 204.265625 348.507812 198.160156 C 346.84375 189.433594 354.707031 179.679688 359.390625 176.894531 C 364.339844 173.953125 375.8125 174.078125 379.285156 179.40625 L 379.445312 179.648438 C 381.777344 183.226562 383.1875 185.390625 388.058594 186.730469 C 389.785156 187.207031 391.585938 186.726562 392.992188 185.410156 C 394.671875 183.84375 395.433594 181.464844 394.976562 179.207031 C 394.699219 177.851562 393.925781 177.429688 391.945312 176.65625 C 389.835938 175.828125 385.441406 174.113281 387.800781 167.949219 C 389.320312 163.984375 394.621094 161.753906 404.003906 161.136719 C 410.269531 160.722656 416.101562 161.175781 416.34375 161.199219 C 417.761719 161.308594 418.816406 162.550781 418.707031 163.964844 C 418.589844 165.382812 417.351562 166.4375 415.9375 166.324219 C 415.878906 166.320312 410.1875 165.878906 404.292969 166.273438 C 396.460938 166.796875 393.101562 168.496094 392.605469 169.789062 C 392.296875 170.601562 392.269531 171.007812 392.269531 171.15625 C 392.535156 171.359375 393.300781 171.660156 393.820312 171.863281 C 395.816406 172.644531 399.160156 173.953125 400.019531 178.1875 C 400.824219 182.1875 399.480469 186.394531 396.5 189.171875 C 393.796875 191.695312 390.132812 192.636719 386.695312 191.691406 C 379.941406 189.832031 377.605469 186.25 375.136719 182.457031 L 374.976562 182.21875 C 373.464844 179.898438 365.351562 179.335938 362.019531 181.316406 C 358.394531 183.472656 352.472656 191.46875 353.5625 197.191406 C 353.953125 199.242188 355.3125 199.742188 359.203125 200.195312 C 361.847656 200.5 365.136719 200.882812 366.121094 203.96875 C 367.355469 207.828125 367.683594 209.878906 367.527344 212.738281 C 367.5 213.25 367.804688 213.804688 368.300781 214.664062 C 368.941406 215.773438 369.742188 217.148438 369.671875 218.953125 C 369.601562 220.875 368.1875 222.238281 366.820312 223.554688 C 365.1875 225.128906 364.035156 226.355469 364.089844 227.808594 C 364.105469 228.1875 364.117188 228.566406 364.128906 228.953125 C 364.234375 232.160156 364.367188 236.15625 366.101562 236.820312 C 369.078125 237.960938 372.851562 237.503906 373.988281 236.363281 C 375.007812 235.339844 375.394531 234.714844 375.980469 233.773438 C 376.410156 233.082031 376.9375 232.226562 377.796875 231.113281 C 379.457031 228.957031 382.195312 228.847656 384.390625 228.761719 C 385.109375 228.734375 386.269531 228.683594 386.730469 228.523438 C 386.105469 227.367188 385.640625 225.960938 386.332031 223.574219 C 387.132812 220.824219 390.441406 219.378906 394.277344 217.699219 C 396.53125 216.710938 400.722656 214.875 401.035156 213.605469 C 401.101562 213.328125 401.109375 213.164062 401.105469 213.089844 C 400.824219 212.855469 399.898438 212.542969 399.332031 212.355469 C 397.941406 211.894531 396.214844 211.316406 395.109375 209.855469 C 393.375 207.558594 393.605469 206.105469 394.054688 204.574219 C 394.191406 204.109375 394.320312 203.671875 394.351562 202.984375 C 394.355469 202.875 394.277344 202.757812 393.789062 202.246094 C 392.972656 201.386719 390.804688 199.113281 393.207031 195.835938 C 395.351562 192.90625 399.847656 193.996094 405.058594 195.257812 C 407.609375 195.875 410.785156 196.648438 412.039062 196.363281 C 415.890625 195.492188 422.089844 192.195312 423.382812 190.621094 C 424.492188 189.269531 425.972656 185.9375 426.640625 184.152344 C 427.144531 182.824219 428.628906 182.152344 429.957031 182.652344 C 429.960938 182.65625 429.964844 182.65625 429.972656 182.660156 C 431.292969 183.164062 431.957031 184.640625 431.457031 185.964844 C 431.25 186.519531 429.371094 191.4375 427.359375 193.882812 C 425.03125 196.722656 417.613281 200.378906 413.171875 201.378906 C 410.746094 201.929688 407.394531 201.117188 403.84375 200.257812 C 402.097656 199.832031 399.410156 199.183594 397.898438 199.109375 C 398.632812 199.929688 399.574219 201.246094 399.492188 203.210938 C 399.433594 204.523438 399.167969 205.429688 398.992188 206.027344 C 398.964844 206.113281 398.933594 206.21875 398.910156 206.304688 C 398.960938 206.398438 399.054688 206.542969 399.214844 206.757812 C 399.421875 206.964844 400.382812 207.285156 400.957031 207.476562 C 402.859375 208.109375 407.3125 209.59375 406.03125 214.832031 C 405.113281 218.570312 400.652344 220.523438 396.339844 222.410156 C 394.640625 223.152344 391.816406 224.390625 391.246094 225.113281 C 391.101562 225.648438 391.136719 225.839844 391.136719 225.839844 C 391.148438 225.878906 391.222656 226.011719 391.273438 226.105469 C 391.921875 227.289062 392.375 228.6875 391.304688 230.910156 C 389.964844 233.6875 386.863281 233.8125 384.597656 233.902344 C 383.757812 233.933594 382.195312 233.996094 381.851562 234.277344 C 381.171875 235.160156 380.757812 235.832031 380.351562 236.484375 C 379.695312 237.546875 379.070312 238.550781 377.632812 239.996094 C 374.585938 243.054688 368.441406 243.222656 364.261719 241.625 " fill-opacity="1" fill-rule="nonzero"/></g></g></g><path fill="#e7f0ff" d="M 334.511719 449.226562 C 314.996094 457.980469 277.640625 470.941406 231.175781 465.730469 C 171.558594 459.050781 124.5625 425.972656 98.152344 393.796875 C 10.515625 287.027344 67.128906 91.574219 149.683594 65.691406 C 164.660156 60.996094 179.105469 62.316406 196.878906 63.941406 C 253.410156 69.105469 270.214844 96.324219 330.238281 114.625 C 384.863281 131.28125 391.011719 114.859375 415.292969 130.4375 C 467.972656 164.226562 470.628906 261.757812 445.371094 328.871094 C 435.671875 354.648438 405.914062 417.199219 334.511719 449.226562 " fill-opacity="1" fill-rule="nonzero"/><path fill="#ffffff" d="M 91.125 390.070312 L 452.238281 390.070312 C 456.191406 390.070312 459.394531 386.863281 459.394531 382.910156 L 459.394531 119.503906 C 459.394531 115.554688 456.191406 112.351562 452.238281 112.351562 L 91.125 112.351562 C 87.167969 112.351562 83.964844 115.554688 83.964844 119.503906 L 83.964844 382.910156 C 83.964844 386.863281 87.167969 390.070312 91.125 390.070312 " fill-opacity="1" fill-rule="nonzero"/><path fill="#6ce5e8" d="M 110.402344 355.753906 L 434.441406 355.753906 C 437.230469 355.753906 439.496094 353.492188 439.496094 350.699219 L 439.496094 134.617188 C 439.496094 131.828125 437.230469 129.5625 434.441406 129.5625 L 110.402344 129.5625 C 107.609375 129.5625 105.347656 131.828125 105.347656 134.617188 L 105.347656 350.699219 C 105.347656 353.492188 107.609375 355.753906 110.402344 355.753906 " fill-opacity="1" fill-rule="nonzero"/><path fill="#000000" d="M 273.371094 390.804688 L 443.96875 390.804688 C 453.058594 390.804688 460.453125 383.410156 460.453125 374.320312 L 460.453125 128.097656 C 460.453125 119.007812 453.058594 111.613281 443.96875 111.613281 L 342.863281 111.613281 C 342.457031 111.613281 342.128906 111.941406 342.128906 112.347656 C 342.128906 112.753906 342.457031 113.082031 342.863281 113.082031 L 443.96875 113.082031 C 452.246094 113.082031 458.984375 119.820312 458.984375 128.097656 L 458.984375 374.320312 C 458.984375 382.597656 452.246094 389.332031 443.96875 389.332031 L 273.371094 389.332031 C 272.964844 389.332031 272.636719 389.664062 272.636719 390.070312 C 272.636719 390.472656 272.964844 390.804688 273.371094 390.804688 " fill-opacity="1" fill-rule="nonzero"/><path fill="#000000" d="M 84.289062 340.578125 C 84.695312 340.578125 85.019531 340.25 85.019531 339.84375 L 85.019531 254.058594 C 85.019531 253.65625 84.695312 253.324219 84.289062 253.324219 C 83.882812 253.324219 83.554688 253.65625 83.554688 254.058594 L 83.554688 339.84375 C 83.554688 340.25 83.882812 340.578125 84.289062 340.578125 " fill-opacity="1" fill-rule="nonzero"/><path fill="#000000" d="M 84.289062 190.339844 C 84.695312 190.339844 85.019531 190.011719 85.019531 189.605469 L 85.019531 128.097656 C 85.019531 119.820312 91.757812 113.085938 100.035156 113.085938 L 249.746094 113.085938 C 250.148438 113.085938 250.480469 112.753906 250.480469 112.347656 C 250.480469 111.941406 250.148438 111.613281 249.746094 111.613281 L 100.035156 111.613281 C 90.945312 111.613281 83.554688 119.007812 83.554688 128.097656 L 83.554688 189.605469 C 83.554688 190.011719 83.882812 190.339844 84.289062 190.339844 " fill-opacity="1" fill-rule="nonzero"/><path fill="#000000" d="M 183.683594 130.027344 L 289.164062 130.027344 C 289.570312 130.027344 289.898438 129.695312 289.898438 129.289062 C 289.898438 128.882812 289.570312 128.554688 289.164062 128.554688 L 183.683594 128.554688 C 183.28125 128.554688 182.949219 128.882812 182.949219 129.289062 C 182.949219 129.695312 183.28125 130.027344 183.683594 130.027344 " fill-opacity="1" fill-rule="nonzero"/><path fill="#000000" d="M 439.496094 190.519531 C 439.902344 190.519531 440.230469 190.191406 440.230469 189.785156 L 440.230469 140.410156 C 440.230469 133.871094 434.910156 128.554688 428.375 128.554688 L 337.027344 128.554688 C 336.621094 128.554688 336.292969 128.882812 336.292969 129.289062 C 336.292969 129.695312 336.621094 130.027344 337.027344 130.027344 L 428.375 130.027344 C 434.101562 130.027344 438.761719 134.683594 438.761719 140.410156 L 438.761719 189.785156 C 438.761719 190.191406 439.089844 190.519531 439.496094 190.519531 " fill-opacity="1" fill-rule="nonzero"/><path fill="#000000" d="M 229.511719 356.214844 L 428.375 356.214844 C 434.910156 356.214844 440.230469 350.898438 440.230469 344.359375 L 440.230469 265.53125 C 440.230469 265.125 439.902344 264.796875 439.496094 264.796875 C 439.089844 264.796875 438.761719 265.125 438.761719 265.53125 L 438.761719 344.359375 C 438.761719 350.085938 434.101562 354.746094 428.375 354.746094 L 229.511719 354.746094 C 229.101562 354.746094 228.773438 355.074219 228.773438 355.480469 C 228.773438 355.886719 229.101562 356.214844 229.511719 356.214844 " fill-opacity="1" fill-rule="nonzero"/><path fill="#000000" d="M 105.347656 181.46875 C 105.753906 181.46875 106.082031 181.136719 106.082031 180.734375 L 106.082031 140.414062 C 106.082031 134.683594 110.742188 130.027344 116.472656 130.027344 L 123.15625 130.027344 C 123.5625 130.027344 123.894531 129.695312 123.894531 129.292969 C 123.894531 128.886719 123.5625 128.554688 123.15625 128.554688 L 116.472656 128.554688 C 109.933594 128.554688 104.613281 133.875 104.613281 140.414062 L 104.613281 180.734375 C 104.613281 181.136719 104.945312 181.46875 105.347656 181.46875 " fill-opacity="1" fill-rule="nonzero"/><path fill="#6ce5e8" d="M 107.835938 378.027344 L 438.140625 378.027344 C 438.863281 378.027344 439.449219 377.441406 439.449219 376.71875 L 439.449219 370.921875 C 439.449219 370.203125 438.863281 369.617188 438.140625 369.617188 L 107.835938 369.617188 C 107.109375 369.617188 106.523438 370.203125 106.523438 370.925781 L 106.523438 376.71875 C 106.523438 377.441406 107.109375 378.027344 107.835938 378.027344 " fill-opacity="1" fill-rule="nonzero"/><path fill="#e7f0ff" d="M 110.730469 378.027344 L 287.535156 378.027344 L 287.535156 369.617188 L 110.730469 369.617188 C 108.40625 369.617188 106.523438 371.496094 106.523438 373.820312 C 106.523438 376.144531 108.40625 378.027344 110.730469 378.027344 " fill-opacity="1" fill-rule="nonzero"/><path fill="#f96f5f" d="M 435.246094 370.351562 C 437.160156 370.351562 438.714844 371.90625 438.714844 373.820312 C 438.714844 375.734375 437.160156 377.292969 435.246094 377.292969 L 110.730469 377.292969 C 108.816406 377.292969 107.261719 375.734375 107.261719 373.820312 C 107.261719 371.90625 108.816406 370.351562 110.730469 370.351562 Z M 110.730469 378.761719 L 435.246094 378.761719 C 437.96875 378.761719 440.183594 376.546875 440.183594 373.820312 C 440.183594 371.097656 437.96875 368.882812 435.246094 368.882812 L 110.730469 368.882812 C 108.007812 368.882812 105.789062 371.097656 105.789062 373.820312 C 105.789062 376.546875 108.007812 378.761719 110.730469 378.761719 " fill-opacity="1" fill-rule="nonzero"/><path fill="#ffffff" d="M 280.714844 373.671875 C 280.714844 377.316406 283.667969 380.269531 287.3125 380.269531 C 290.953125 380.269531 293.910156 377.316406 293.910156 373.671875 C 293.910156 370.03125 290.953125 367.074219 287.3125 367.074219 C 283.667969 367.074219 280.714844 370.03125 280.714844 373.671875 " fill-opacity="1" fill-rule="nonzero"/><path fill="#000000" d="M 287.3125 367.8125 C 290.542969 367.8125 293.171875 370.441406 293.171875 373.671875 C 293.171875 376.90625 290.542969 379.535156 287.3125 379.535156 C 284.078125 379.535156 281.449219 376.90625 281.449219 373.671875 C 281.449219 370.441406 284.078125 367.8125 287.3125 367.8125 Z M 287.3125 381.003906 C 291.355469 381.003906 294.644531 377.714844 294.644531 373.671875 C 294.644531 369.628906 291.355469 366.339844 287.3125 366.339844 C 283.265625 366.339844 279.980469 369.628906 279.980469 373.671875 C 279.980469 377.714844 283.265625 381.003906 287.3125 381.003906 " fill-opacity="1" fill-rule="nonzero"/><path fill="#000000" d="M 330.355469 355.824219 L 273.019531 355.824219 C 278.097656 310.730469 283.175781 281.957031 283.175781 281.957031 L 369.519531 266.886719 L 378.140625 291.519531 C 380.71875 298.972656 384.253906 309.941406 387.546875 323.5 C 389.3125 330.785156 391.800781 338.179688 393.804688 355.824219 L 330.355469 355.824219 " fill-opacity="1" fill-rule="nonzero"/><path fill="#6ce5e8" d="M 330.347656 356.5625 C 330.421875 356.5625 330.496094 356.550781 330.574219 356.527344 C 330.960938 356.402344 331.171875 355.988281 331.046875 355.601562 C 326.828125 342.386719 318.546875 341.585938 318.195312 341.558594 C 317.789062 341.53125 317.4375 341.828125 317.40625 342.230469 C 317.375 342.636719 317.675781 342.988281 318.078125 343.023438 C 318.402344 343.050781 325.75 343.847656 329.648438 356.050781 C 329.746094 356.359375 330.039062 356.5625 330.347656 356.5625 " fill-opacity="1" fill-rule="nonzero"/><path fill="#000000" d="M 271.367188 306.316406 C 271.480469 313.503906 271.078125 319.867188 285.566406 320.765625 C 302.738281 321.832031 315.84375 303.792969 315.84375 303.792969 C 315.84375 303.792969 271.332031 303.921875 271.367188 306.316406 " fill-opacity="1" fill-rule="nonzero"/><path fill="#ffffff" d="M 186.730469 168.035156 L 178.429688 156.90625 C 178.429688 156.90625 183.769531 147.917969 178.980469 142.957031 C 171.140625 134.824219 172.746094 119.847656 168.613281 116.746094 C 166.984375 115.519531 164.648438 116.855469 164.710938 118.894531 L 165.027344 129.445312 C 164.949219 132.277344 160.511719 134.8125 158.132812 133.292969 C 153.53125 130.355469 149.066406 128.933594 143.90625 127.695312 C 141.191406 127.042969 137.566406 126.558594 135.621094 126.953125 C 132.65625 127.550781 132.039062 129.917969 134.210938 132.027344 C 140.800781 138.4375 157.9375 141.519531 162.039062 155.085938 C 163.613281 160.289062 168.808594 167.011719 172.84375 173.464844 L 186.730469 168.035156 " fill-opacity="1" fill-rule="nonzero"/><path fill="#000000" d="M 185.5625 167.699219 L 173.140625 172.558594 C 172.121094 170.945312 171.03125 169.3125 169.976562 167.726562 C 166.828125 163.003906 163.855469 158.546875 162.746094 154.875 C 159.9375 145.59375 151.433594 141.167969 143.929688 137.265625 C 140.300781 135.375 136.867188 133.589844 134.722656 131.503906 C 133.871094 130.671875 133.496094 129.792969 133.707031 129.085938 C 133.902344 128.410156 134.65625 127.898438 135.765625 127.671875 C 137.589844 127.304688 141.175781 127.796875 143.734375 128.410156 C 148.914062 129.652344 153.277344 131.066406 157.738281 133.910156 C 159.035156 134.738281 160.867188 134.667969 162.644531 133.730469 C 164.519531 132.734375 165.714844 131.101562 165.757812 129.464844 L 165.445312 118.871094 C 165.421875 118.039062 165.941406 117.464844 166.4375 117.210938 C 167.019531 116.90625 167.667969 116.957031 168.171875 117.332031 C 169.722656 118.496094 170.425781 121.957031 171.242188 125.964844 C 172.390625 131.625 173.824219 138.667969 178.453125 143.46875 C 182.800781 147.972656 177.84375 156.445312 177.796875 156.53125 C 177.644531 156.785156 177.660156 157.105469 177.839844 157.347656 Z M 172.84375 174.199219 C 172.929688 174.199219 173.023438 174.183594 173.109375 174.152344 L 186.996094 168.71875 C 187.210938 168.632812 187.375 168.453125 187.4375 168.234375 C 187.5 168.015625 187.453125 167.777344 187.320312 167.59375 L 179.300781 156.851562 C 180.34375 154.917969 184.0625 147.164062 179.511719 142.445312 C 175.179688 137.957031 173.792969 131.148438 172.683594 125.671875 C 171.773438 121.195312 171.054688 117.65625 169.058594 116.160156 C 168.105469 115.441406 166.839844 115.34375 165.761719 115.902344 C 164.625 116.492188 163.9375 117.648438 163.976562 118.914062 L 164.289062 129.46875 C 164.257812 130.496094 163.320312 131.707031 161.953125 132.429688 C 160.671875 133.109375 159.359375 133.203125 158.527344 132.671875 C 153.898438 129.71875 149.402344 128.257812 144.078125 126.980469 C 141.480469 126.359375 137.667969 125.785156 135.472656 126.230469 C 133.8125 126.566406 132.652344 127.453125 132.296875 128.671875 C 131.925781 129.917969 132.441406 131.332031 133.699219 132.554688 C 136 134.796875 139.523438 136.628906 143.253906 138.570312 C 150.5 142.339844 158.707031 146.613281 161.335938 155.300781 C 162.511719 159.179688 165.539062 163.726562 168.75 168.539062 C 169.914062 170.285156 171.117188 172.09375 172.21875 173.855469 C 172.359375 174.074219 172.59375 174.199219 172.84375 174.199219 " fill-opacity="1" fill-rule="nonzero"/><path fill="#f96f5f" d="M 356.617188 150.976562 C 363.746094 152.871094 370.097656 154.875 375.738281 157.046875 C 397.738281 165.527344 393.917969 200.851562 383.40625 241.214844 C 379 258.128906 379.867188 276.019531 385.289062 292.632812 C 388.996094 303.984375 391.453125 315.492188 387.226562 317.828125 C 378.402344 322.707031 366.320312 325.460938 352.863281 320.519531 C 325.945312 310.640625 283.945312 299.457031 271.402344 308.128906 L 270.085938 244.921875 L 222.988281 236.769531 C 222.988281 236.769531 232.175781 184.5 268.613281 160.40625 C 291.566406 145.238281 333.875 144.941406 356.617188 150.976562 " fill-opacity="1" fill-rule="nonzero"/><path fill="#f96f5f" d="M 164.242188 171.164062 L 186.214844 157.351562 C 186.214844 157.351562 224.285156 208.398438 236.78125 212.011719 C 249.277344 215.628906 270.429688 217.21875 270.429688 217.21875 C 270.429688 217.21875 283.699219 249.933594 255.238281 264.285156 C 209.875 287.15625 164.242188 171.164062 164.242188 171.164062 " fill-opacity="1" fill-rule="nonzero"/><path fill="#ffffff" d="M 401.324219 266.039062 L 387.113281 291.609375 C 385.816406 293.945312 382.878906 294.789062 380.539062 293.5 L 371.59375 288.835938 C 370.578125 288.277344 369.230469 287.804688 367.832031 287.523438 C 365.476562 287.046875 363.027344 287.667969 361.160156 289.183594 L 347.335938 300.398438 C 340.390625 307.816406 355.632812 309.425781 358.683594 309.105469 C 363.925781 308.542969 363.925781 308.542969 363.925781 308.542969 C 363.925781 308.542969 369.707031 308.785156 374.335938 310.421875 C 378.964844 312.0625 385.5 313.097656 392.195312 310.742188 L 392.722656 310.554688 C 396.726562 309.144531 400.160156 306.464844 402.5 302.921875 L 419.550781 277.117188 L 401.324219 266.039062 " fill-opacity="1" fill-rule="nonzero"/><path fill="#000000" d="M 418.515625 277.351562 L 401.886719 302.519531 C 399.648438 305.90625 396.308594 308.511719 392.476562 309.863281 L 391.953125 310.046875 C 384.765625 312.578125 377.984375 310.933594 374.582031 309.730469 C 369.902344 308.074219 364.199219 307.820312 363.957031 307.808594 C 363.921875 307.808594 363.886719 307.808594 363.847656 307.8125 L 358.605469 308.371094 C 356.085938 308.636719 347.890625 307.589844 346.484375 304.769531 C 345.972656 303.746094 346.429688 302.457031 347.839844 300.9375 L 361.621094 289.753906 C 363.339844 288.363281 365.550781 287.8125 367.6875 288.242188 C 368.992188 288.507812 370.289062 288.960938 371.238281 289.480469 L 380.199219 294.152344 C 382.871094 295.625 386.269531 294.648438 387.757812 291.964844 L 401.59375 267.0625 Z M 384.003906 312.847656 C 386.628906 312.847656 389.5 312.46875 392.441406 311.433594 L 392.964844 311.25 C 397.097656 309.792969 400.699219 306.984375 403.113281 303.328125 L 420.164062 277.523438 C 420.273438 277.355469 420.308594 277.152344 420.265625 276.957031 C 420.222656 276.761719 420.101562 276.59375 419.929688 276.488281 L 401.707031 265.410156 C 401.535156 265.304688 401.328125 265.277344 401.136719 265.328125 C 400.941406 265.378906 400.777344 265.507812 400.679688 265.683594 L 386.472656 291.253906 C 385.375 293.226562 382.871094 293.945312 380.890625 292.855469 L 371.929688 288.183594 C 370.855469 287.589844 369.449219 287.097656 367.980469 286.800781 C 365.410156 286.285156 362.753906 286.941406 360.695312 288.613281 L 346.875 299.824219 C 346.847656 299.847656 346.824219 299.871094 346.800781 299.894531 C 344.902344 301.925781 344.351562 303.785156 345.167969 305.425781 C 347.1875 309.472656 356.925781 310.027344 358.761719 309.835938 L 363.949219 309.28125 C 364.53125 309.3125 369.851562 309.617188 374.089844 311.113281 C 376.289062 311.894531 379.832031 312.847656 384.003906 312.847656 " fill-opacity="1" fill-rule="nonzero"/><path fill="#f96f5f" d="M 372.175781 221.21875 C 396.859375 225.035156 392.671875 247.523438 392.671875 247.523438 L 387.515625 281.542969 L 412.28125 297.507812 C 412.28125 297.507812 461.914062 244.613281 441.078125 202.105469 C 423.824219 166.902344 363.675781 153.027344 363.675781 153.027344 L 372.175781 221.21875 " fill-opacity="1" fill-rule="nonzero"/><path fill="#000000" d="M 298.082031 120.808594 C 295.695312 119.726562 294.457031 121.53125 290.902344 121.042969 C 287.121094 120.523438 282.960938 117.714844 281.402344 113.617188 C 279.515625 108.667969 282.230469 103.945312 283.945312 100.972656 C 285.648438 98.011719 287.816406 94.714844 291.574219 93.289062 C 296.480469 91.4375 298.53125 94.285156 304.144531 92.535156 C 308.707031 91.113281 308.375 88.910156 312.4375 87.757812 C 315.824219 86.792969 325.585938 87.339844 327.769531 92.535156 C 329.15625 95.832031 326.167969 97.839844 327.65625 102.726562 C 328.550781 105.65625 329.957031 106.015625 330.984375 108.28125 C 333.53125 113.898438 330.339844 123.769531 324.265625 127.074219 C 316.023438 131.558594 302.199219 122.683594 298.082031 120.808594 " fill-opacity="1" fill-rule="nonzero"/><path fill="#ffffff" d="M 305.664062 130.234375 L 303.746094 145.992188 C 303.382812 148.996094 301.21875 151.46875 298.296875 152.230469 L 292.773438 154 C 291.699219 154.339844 291.484375 155.792969 292.425781 156.414062 C 306.382812 165.570312 325.640625 165.40625 339.003906 155.257812 L 340.566406 154.066406 C 341.605469 153.28125 341.246094 151.632812 339.976562 151.351562 L 333.140625 149.820312 C 330.25 149.175781 328.03125 146.859375 327.503906 143.941406 L 323.324219 120.722656 L 305.664062 130.234375 " fill-opacity="1" fill-rule="nonzero"/><path fill="#000000" d="M 322.78125 121.847656 L 326.78125 144.070312 C 327.359375 147.285156 329.792969 149.824219 332.980469 150.539062 L 339.816406 152.066406 C 340.125 152.136719 340.351562 152.363281 340.417969 152.671875 C 340.488281 152.988281 340.375 153.289062 340.121094 153.484375 L 338.558594 154.667969 C 325.613281 164.5 306.808594 164.964844 292.828125 155.796875 C 292.546875 155.609375 292.550781 155.324219 292.570312 155.210938 C 292.582031 155.117188 292.648438 154.808594 292.996094 154.695312 L 298.523438 152.929688 C 301.71875 152.097656 304.070312 149.40625 304.472656 146.082031 L 306.34375 130.699219 Z M 315.066406 163.835938 C 323.796875 163.835938 332.445312 161.15625 339.449219 155.839844 L 341.011719 154.652344 C 341.722656 154.113281 342.046875 153.234375 341.855469 152.359375 C 341.664062 151.488281 341.007812 150.824219 340.136719 150.628906 L 333.300781 149.101562 C 330.695312 148.519531 328.703125 146.441406 328.226562 143.808594 L 324.046875 120.59375 C 324.007812 120.359375 323.855469 120.160156 323.644531 120.058594 C 323.433594 119.957031 323.183594 119.960938 322.976562 120.074219 L 305.3125 129.585938 C 305.105469 129.699219 304.960938 129.90625 304.933594 130.144531 L 303.015625 145.902344 C 302.683594 148.625 300.757812 150.828125 298.113281 151.519531 L 292.550781 153.292969 C 291.773438 153.542969 291.222656 154.199219 291.109375 155.011719 C 291.003906 155.8125 291.351562 156.582031 292.023438 157.027344 C 298.960938 161.578125 307.046875 163.835938 315.066406 163.835938 " fill-opacity="1" fill-rule="nonzero"/><path fill="#ffffff" d="M 321.3125 123.921875 C 321.3125 123.921875 327.539062 120.890625 325.351562 115.117188 C 323.347656 109.839844 319.0625 115.089844 319.0625 115.089844 C 319.0625 115.089844 315.53125 102.425781 308.113281 107.421875 C 300.699219 112.414062 293.667969 114.230469 293.667969 114.230469 C 293.667969 114.230469 296.28125 126.972656 300.972656 135.457031 C 303.804688 140.570312 307.390625 144.132812 311.613281 142.414062 C 323.183594 137.710938 321.3125 123.921875 321.3125 123.921875 " fill-opacity="1" fill-rule="nonzero"/><path fill="#000000" d="M 322.820312 113.5 C 322.898438 113.5 322.972656 113.503906 323.042969 113.519531 C 323.691406 113.625 324.234375 114.25 324.664062 115.378906 C 326.589844 120.46875 321.222656 123.148438 320.992188 123.261719 C 320.707031 123.398438 320.546875 123.707031 320.585938 124.019531 C 320.660156 124.5625 322.230469 137.308594 311.339844 141.734375 C 308.058594 143.070312 304.792969 140.835938 301.617188 135.101562 C 297.640625 127.914062 295.144531 117.46875 294.539062 114.75 C 296.492188 114.164062 302.339844 112.195312 308.527344 108.03125 C 310.054688 107 311.441406 106.738281 312.761719 107.222656 C 316.4375 108.578125 318.335938 115.21875 318.355469 115.289062 C 318.429688 115.550781 318.644531 115.753906 318.914062 115.808594 C 319.179688 115.867188 319.457031 115.765625 319.632812 115.558594 C 320.09375 114.996094 321.601562 113.5 322.820312 113.5 Z M 309.445312 143.601562 C 310.253906 143.601562 311.070312 143.433594 311.894531 143.097656 C 322.550781 138.765625 322.289062 126.960938 322.09375 124.34375 C 324.464844 122.992188 327.835938 119.609375 326.039062 114.859375 C 325.410156 113.199219 324.480469 112.261719 323.277344 112.066406 C 321.765625 111.816406 320.289062 112.863281 319.378906 113.699219 C 318.597656 111.53125 316.621094 107.078125 313.273438 105.84375 C 311.5 105.191406 309.625 105.515625 307.703125 106.8125 C 300.476562 111.679688 293.558594 113.503906 293.488281 113.519531 C 293.109375 113.617188 292.875 113.996094 292.953125 114.378906 C 293.058594 114.90625 295.640625 127.332031 300.332031 135.816406 C 303.199219 140.992188 306.253906 143.601562 309.445312 143.601562 " fill-opacity="1" fill-rule="nonzero"/><path fill="#ffffff" d="M 189.238281 63.082031 L 268.363281 63.082031 C 272.84375 63.082031 276.269531 66.726562 276.269531 71.207031 L 276.269531 94.105469 C 276.269531 98.585938 272.84375 102.203125 268.363281 102.203125 C 268.320312 102.203125 267.117188 102.203125 265.5 102.203125 L 265.5 117.496094 L 255.089844 102.203125 C 239.957031 102.203125 189.238281 102.203125 189.238281 102.203125 C 184.757812 102.203125 180.917969 98.585938 180.917969 94.105469 L 180.917969 71.207031 C 180.917969 66.726562 184.757812 63.082031 189.238281 63.082031 " fill-opacity="1" fill-rule="nonzero"/><path fill="#000000" d="M 268.363281 63.816406 C 272.382812 63.816406 275.53125 67.0625 275.53125 71.207031 L 275.53125 94.105469 C 275.53125 98.234375 272.382812 101.46875 268.363281 101.46875 L 265.5 101.46875 C 265.09375 101.46875 264.765625 101.796875 264.765625 102.203125 L 264.765625 115.109375 L 255.699219 101.789062 C 255.558594 101.589844 255.332031 101.46875 255.089844 101.46875 L 189.238281 101.46875 C 185.125 101.46875 181.652344 98.09375 181.652344 94.105469 L 181.652344 71.207031 C 181.652344 67.203125 185.125 63.816406 189.238281 63.816406 Z M 265.5 118.230469 C 265.574219 118.230469 265.644531 118.222656 265.714844 118.199219 C 266.027344 118.101562 266.234375 117.816406 266.234375 117.492188 L 266.234375 102.9375 L 268.363281 102.9375 C 273.207031 102.9375 277.003906 99.058594 277.003906 94.105469 L 277.003906 71.207031 C 277.003906 66.238281 273.207031 62.34375 268.363281 62.34375 L 189.238281 62.34375 C 184.328125 62.34375 180.183594 66.402344 180.183594 71.207031 L 180.183594 94.105469 C 180.183594 98.894531 184.328125 102.9375 189.238281 102.9375 L 254.699219 102.9375 L 264.894531 117.90625 C 265.03125 118.113281 265.261719 118.230469 265.5 118.230469 " fill-opacity="1" fill-rule="nonzero"/><path fill="#6ce5e8" d="M 223.566406 79.414062 L 195.238281 79.414062 C 194.75 79.414062 194.351562 79.015625 194.351562 78.523438 L 194.351562 74.59375 C 194.351562 74.105469 194.75 73.707031 195.238281 73.707031 L 223.566406 73.707031 C 224.054688 73.707031 224.457031 74.105469 224.457031 74.59375 L 224.457031 78.523438 C 224.457031 79.015625 224.054688 79.414062 223.566406 79.414062 " fill-opacity="1" fill-rule="nonzero"/><path fill="#6ce5e8" d="M 250.335938 79.414062 L 233.359375 79.414062 C 232.867188 79.414062 232.472656 79.015625 232.472656 78.523438 L 232.472656 74.59375 C 232.472656 74.105469 232.867188 73.707031 233.359375 73.707031 L 250.335938 73.707031 C 250.824219 73.707031 251.222656 74.105469 251.222656 74.59375 L 251.222656 78.523438 C 251.222656 79.015625 250.824219 79.414062 250.335938 79.414062 " fill-opacity="1" fill-rule="nonzero"/><path fill="#6ce5e8" d="M 261.949219 91.742188 L 195.238281 91.742188 C 194.75 91.742188 194.351562 91.347656 194.351562 90.855469 L 194.351562 86.921875 C 194.351562 86.433594 194.75 86.035156 195.238281 86.035156 L 261.949219 86.035156 C 262.441406 86.035156 262.835938 86.433594 262.835938 86.921875 L 262.835938 90.855469 C 262.835938 91.347656 262.441406 91.742188 261.949219 91.742188 " fill-opacity="1" fill-rule="nonzero"/><path fill="#ffffff" d="M 289.328125 262.941406 C 300.46875 253.136719 301.59375 236.109375 291.84375 224.90625 C 282.097656 213.707031 265.167969 212.574219 254.03125 222.378906 C 242.894531 232.183594 241.765625 249.210938 251.515625 260.410156 C 261.265625 271.613281 278.195312 272.742188 289.328125 262.941406 " fill-opacity="1" fill-rule="nonzero"/><path fill="#f96f5f" d="M 279.523438 251.253906 L 279.523438 234.394531 C 279.523438 233.535156 278.621094 232.976562 277.851562 233.355469 L 260.992188 241.679688 C 260.136719 242.101562 260.128906 243.324219 260.984375 243.753906 L 277.839844 252.289062 C 278.609375 252.679688 279.523438 252.117188 279.523438 251.253906 " fill-opacity="1" fill-rule="nonzero"/><path fill="#ffffff" d="M 59.71875 416.835938 C 63.769531 408.5 64.15625 400.101562 59.71875 391.617188 L 62.902344 387.800781 L 173.472656 390.664062 L 170.46875 418.324219 L 62.691406 419.292969 L 59.71875 416.835938 " fill-opacity="1" fill-rule="nonzero"/><path fill="#000000" d="M 169.808594 417.59375 L 62.953125 418.558594 L 60.628906 416.636719 C 64.628906 408.078125 64.617188 399.699219 60.59375 391.714844 L 63.238281 388.546875 L 172.652344 391.378906 Z M 62.691406 420.027344 C 62.691406 420.027344 62.691406 420.027344 62.695312 420.027344 L 170.476562 419.058594 C 170.851562 419.054688 171.160156 418.773438 171.199219 418.402344 L 174.203125 390.742188 C 174.226562 390.539062 174.160156 390.332031 174.023438 390.179688 C 173.890625 390.027344 173.695312 389.933594 173.488281 389.925781 L 62.925781 387.066406 C 62.683594 387.046875 62.480469 387.15625 62.339844 387.328125 L 59.15625 391.148438 C 58.964844 391.375 58.929688 391.695312 59.070312 391.960938 C 63.226562 399.910156 63.226562 407.941406 59.058594 416.515625 C 58.910156 416.820312 58.988281 417.183594 59.253906 417.402344 L 62.222656 419.859375 C 62.355469 419.96875 62.519531 420.027344 62.691406 420.027344 " fill-opacity="1" fill-rule="nonzero"/><path fill="#f96f5f" d="M 249.691406 384.753906 L 58.222656 384.753906 C 56.269531 384.753906 54.683594 386.300781 54.683594 388.210938 C 54.683594 390.121094 56.269531 391.667969 58.222656 391.667969 L 161.101562 391.667969 C 166.730469 391.667969 171.292969 396.121094 171.292969 401.621094 L 171.292969 407.21875 C 171.292969 412.714844 166.730469 417.171875 161.101562 417.171875 L 58.222656 417.171875 C 56.269531 417.171875 54.683594 418.71875 54.683594 420.625 C 54.683594 422.535156 56.269531 424.082031 58.222656 424.082031 L 249.691406 424.082031 C 260.066406 424.082031 268.480469 415.867188 268.480469 405.730469 L 268.480469 403.109375 C 268.480469 392.972656 260.066406 384.753906 249.691406 384.753906 " fill-opacity="1" fill-rule="nonzero"/><path fill="#e7f0ff" d="M 127.488281 399.664062 L 150.449219 399.664062 C 150.851562 399.664062 151.183594 399.335938 151.183594 398.929688 C 151.183594 398.523438 150.851562 398.195312 150.449219 398.195312 L 127.488281 398.195312 C 127.085938 398.195312 126.753906 398.523438 126.753906 398.929688 C 126.753906 399.335938 127.085938 399.664062 127.488281 399.664062 " fill-opacity="1" fill-rule="nonzero"/><path fill="#e7f0ff" d="M 71.34375 399.664062 L 118.113281 399.664062 C 118.519531 399.664062 118.847656 399.335938 118.847656 398.929688 C 118.847656 398.523438 118.519531 398.195312 118.113281 398.195312 L 71.34375 398.195312 C 70.9375 398.195312 70.605469 398.523438 70.605469 398.929688 C 70.605469 399.335938 70.9375 399.664062 71.34375 399.664062 " fill-opacity="1" fill-rule="nonzero"/><path fill="#e7f0ff" d="M 70.839844 404.765625 L 142.863281 404.765625 C 143.269531 404.765625 143.601562 404.4375 143.601562 404.03125 C 143.601562 403.625 143.269531 403.296875 142.863281 403.296875 L 70.839844 403.296875 C 70.433594 403.296875 70.105469 403.625 70.105469 404.03125 C 70.105469 404.4375 70.433594 404.765625 70.839844 404.765625 " fill-opacity="1" fill-rule="nonzero"/><path fill="#e7f0ff" d="M 141.9375 411.171875 L 149.179688 411.171875 C 149.589844 411.171875 149.917969 410.839844 149.917969 410.4375 C 149.917969 410.03125 149.589844 409.699219 149.179688 409.699219 L 141.9375 409.699219 C 141.53125 409.699219 141.203125 410.03125 141.203125 410.4375 C 141.203125 410.839844 141.53125 411.171875 141.9375 411.171875 " fill-opacity="1" fill-rule="nonzero"/><path fill="#e7f0ff" d="M 66.320312 411.171875 L 129.675781 411.171875 C 130.078125 411.171875 130.410156 410.839844 130.410156 410.433594 C 130.410156 410.03125 130.078125 409.699219 129.675781 409.699219 L 66.320312 409.699219 C 65.914062 409.699219 65.585938 410.03125 65.585938 410.433594 C 65.585938 410.839844 65.914062 411.171875 66.320312 411.171875 " fill-opacity="1" fill-rule="nonzero"/><path fill="#ffffff" d="M 274.007812 463.433594 L 96.953125 463.433594 L 96.953125 427.671875 L 274.007812 427.671875 C 269.503906 439.75 269.382812 451.675781 274.007812 463.433594 " fill-opacity="1" fill-rule="nonzero"/><path fill="#000000" d="M 272.941406 462.699219 L 97.691406 462.699219 L 97.691406 428.410156 L 272.960938 428.410156 C 268.839844 440.078125 268.835938 451.605469 272.941406 462.699219 Z M 96.957031 464.171875 L 274.007812 464.171875 C 274.253906 464.171875 274.480469 464.050781 274.617188 463.851562 C 274.753906 463.648438 274.78125 463.394531 274.695312 463.167969 C 270.21875 451.796875 270.222656 439.941406 274.699219 427.929688 C 274.78125 427.703125 274.75 427.453125 274.613281 427.253906 C 274.476562 427.054688 274.25 426.9375 274.007812 426.9375 L 96.957031 426.9375 C 96.546875 426.9375 96.21875 427.265625 96.21875 427.671875 L 96.21875 463.433594 C 96.21875 463.839844 96.546875 464.171875 96.957031 464.171875 " fill-opacity="1" fill-rule="nonzero"/><path fill="#6ce5e8" d="M 115.3125 429.4375 L 275.054688 429.4375 C 276.683594 429.4375 278 428.175781 278 426.617188 C 278 425.0625 276.683594 423.800781 275.054688 423.800781 L 75.070312 423.800781 C 67.925781 423.800781 62.132812 429.34375 62.132812 436.183594 L 62.132812 455.648438 C 62.132812 462.488281 67.925781 468.03125 75.070312 468.03125 L 275.054688 468.03125 C 276.683594 468.03125 278 466.773438 278 465.214844 C 278 463.65625 276.683594 462.398438 275.054688 462.398438 L 115.3125 462.398438 C 110.265625 462.398438 106.171875 458.480469 106.171875 453.648438 L 106.171875 438.183594 C 106.171875 433.355469 110.265625 429.4375 115.3125 429.4375 " fill-opacity="1" fill-rule="nonzero"/><path fill="#000000" d="M 187.742188 430.171875 L 216.339844 430.171875 C 216.746094 430.171875 217.074219 429.84375 217.074219 429.4375 C 217.074219 429.03125 216.746094 428.703125 216.339844 428.703125 L 187.742188 428.703125 C 187.335938 428.703125 187.007812 429.03125 187.007812 429.4375 C 187.007812 429.84375 187.335938 430.171875 187.742188 430.171875 " fill-opacity="1" fill-rule="nonzero"/><path fill="#000000" d="M 115.3125 463.132812 L 166.070312 463.132812 C 166.476562 463.132812 166.808594 462.800781 166.808594 462.398438 C 166.808594 461.992188 166.476562 461.664062 166.070312 461.664062 L 115.3125 461.664062 C 110.679688 461.664062 106.90625 458.066406 106.90625 453.648438 L 106.90625 438.183594 C 106.90625 433.765625 110.679688 430.171875 115.3125 430.171875 L 156.253906 430.171875 C 156.660156 430.171875 156.988281 429.84375 156.988281 429.4375 C 156.988281 429.03125 156.660156 428.703125 156.253906 428.703125 L 115.3125 428.703125 C 109.867188 428.703125 105.4375 432.953125 105.4375 438.183594 L 105.4375 453.648438 C 105.4375 458.878906 109.867188 463.132812 115.3125 463.132812 " fill-opacity="1" fill-rule="nonzero"/><path fill="#000000" d="M 75.074219 468.769531 L 275.054688 468.769531 C 277.085938 468.769531 278.738281 467.175781 278.738281 465.214844 C 278.738281 463.257812 277.085938 461.664062 275.054688 461.664062 L 183.179688 461.664062 C 182.773438 461.664062 182.445312 461.992188 182.445312 462.398438 C 182.445312 462.800781 182.773438 463.132812 183.179688 463.132812 L 275.054688 463.132812 C 276.273438 463.132812 277.265625 464.066406 277.265625 465.214844 C 277.265625 466.363281 276.273438 467.296875 275.054688 467.296875 L 75.074219 467.296875 C 68.34375 467.296875 62.867188 462.070312 62.867188 455.648438 L 62.867188 436.183594 C 62.867188 429.761719 68.34375 424.535156 75.074219 424.535156 L 157.652344 424.535156 C 158.058594 424.535156 158.386719 424.207031 158.386719 423.800781 C 158.386719 423.394531 158.058594 423.066406 157.652344 423.066406 L 75.074219 423.066406 C 67.53125 423.066406 61.398438 428.949219 61.398438 436.183594 L 61.398438 455.648438 C 61.398438 462.882812 67.53125 468.769531 75.074219 468.769531 " fill-opacity="1" fill-rule="nonzero"/><path fill="#000000" d="M 185.453125 424.535156 L 218.792969 424.535156 C 219.199219 424.535156 219.527344 424.207031 219.527344 423.800781 C 219.527344 423.394531 219.199219 423.066406 218.792969 423.066406 L 185.453125 423.066406 C 185.046875 423.066406 184.71875 423.394531 184.71875 423.800781 C 184.71875 424.207031 185.046875 424.535156 185.453125 424.535156 " fill-opacity="1" fill-rule="nonzero"/><path fill="#000000" d="M 249.253906 430.171875 L 275.058594 430.171875 C 277.085938 430.171875 278.738281 428.578125 278.738281 426.617188 C 278.738281 424.660156 277.085938 423.066406 275.058594 423.066406 L 245.402344 423.066406 C 244.996094 423.066406 244.667969 423.394531 244.667969 423.800781 C 244.667969 424.207031 244.996094 424.535156 245.402344 424.535156 L 275.058594 424.535156 C 276.273438 424.535156 277.265625 425.472656 277.265625 426.617188 C 277.265625 427.769531 276.273438 428.703125 275.058594 428.703125 L 249.253906 428.703125 C 248.847656 428.703125 248.519531 429.03125 248.519531 429.4375 C 248.519531 429.84375 248.847656 430.171875 249.253906 430.171875 " fill-opacity="1" fill-rule="nonzero"/><path fill="#e7f0ff" d="M 123.546875 436.898438 L 155.074219 436.898438 C 155.480469 436.898438 155.8125 436.570312 155.8125 436.164062 C 155.8125 435.757812 155.480469 435.429688 155.074219 435.429688 L 123.546875 435.429688 C 123.136719 435.429688 122.8125 435.757812 122.8125 436.164062 C 122.8125 436.570312 123.136719 436.898438 123.546875 436.898438 " fill-opacity="1" fill-rule="nonzero"/><path fill="#e7f0ff" d="M 193.511719 441.671875 L 225.90625 441.671875 C 226.3125 441.671875 226.640625 441.34375 226.640625 440.9375 C 226.640625 440.53125 226.3125 440.203125 225.90625 440.203125 L 193.511719 440.203125 C 193.109375 440.203125 192.777344 440.53125 192.777344 440.9375 C 192.777344 441.34375 193.109375 441.671875 193.511719 441.671875 " fill-opacity="1" fill-rule="nonzero"/><path fill="#e7f0ff" d="M 136.070312 441.671875 L 157.726562 441.671875 C 158.128906 441.671875 158.460938 441.34375 158.460938 440.9375 C 158.460938 440.53125 158.128906 440.203125 157.726562 440.203125 L 136.070312 440.203125 C 135.664062 440.203125 135.332031 440.53125 135.332031 440.9375 C 135.332031 441.34375 135.664062 441.671875 136.070312 441.671875 " fill-opacity="1" fill-rule="nonzero"/><path fill="#e7f0ff" d="M 114.320312 441.671875 L 125.773438 441.671875 C 126.179688 441.671875 126.507812 441.34375 126.507812 440.9375 C 126.507812 440.53125 126.179688 440.203125 125.773438 440.203125 L 114.320312 440.203125 C 113.914062 440.203125 113.585938 440.53125 113.585938 440.9375 C 113.585938 441.34375 113.914062 441.671875 114.320312 441.671875 " fill-opacity="1" fill-rule="nonzero"/><path fill="#e7f0ff" d="M 192.21875 451.636719 L 231.953125 451.636719 C 232.359375 451.636719 232.6875 451.308594 232.6875 450.898438 C 232.6875 450.496094 232.359375 450.164062 231.953125 450.164062 L 192.21875 450.164062 C 191.8125 450.164062 191.480469 450.496094 191.480469 450.898438 C 191.480469 451.308594 191.8125 451.636719 192.21875 451.636719 " fill-opacity="1" fill-rule="nonzero"/><path fill="#e7f0ff" d="M 115.339844 451.636719 L 163.28125 451.636719 C 163.6875 451.636719 164.015625 451.308594 164.015625 450.898438 C 164.015625 450.496094 163.6875 450.164062 163.28125 450.164062 L 115.339844 450.164062 C 114.933594 450.164062 114.601562 450.496094 114.601562 450.898438 C 114.601562 451.308594 114.933594 451.636719 115.339844 451.636719 " fill-opacity="1" fill-rule="nonzero"/><path fill="#6ce5e8" d="M 182.164062 451.636719 L 185.136719 451.636719 C 185.542969 451.636719 185.875 451.308594 185.875 450.898438 C 185.875 450.496094 185.542969 450.164062 185.136719 450.164062 L 182.164062 450.164062 C 181.757812 450.164062 181.429688 450.496094 181.429688 450.898438 C 181.429688 451.308594 181.757812 451.636719 182.164062 451.636719 " fill-opacity="1" fill-rule="nonzero"/><path fill="#ffffff" d="M 63.351562 380.820312 L 205.417969 380.820312 C 212.480469 380.820312 215.566406 375.097656 215.566406 368.035156 L 215.566406 361.910156 C 215.566406 354.851562 212.480469 349.125 205.417969 349.125 L 63.351562 349.125 C 67.34375 359.832031 67.457031 370.398438 63.351562 380.820312 " fill-opacity="1" fill-rule="nonzero"/><path fill="#000000" d="M 205.417969 349.859375 C 211.3125 349.859375 214.832031 354.367188 214.832031 361.910156 L 214.832031 368.035156 C 214.832031 375.582031 211.3125 380.085938 205.417969 380.085938 L 64.417969 380.085938 C 68.011719 370.300781 68.007812 360.144531 64.398438 349.859375 Z M 63.351562 381.554688 L 205.417969 381.554688 C 212.234375 381.554688 216.300781 376.5 216.300781 368.035156 L 216.300781 361.910156 C 216.300781 353.445312 212.234375 348.390625 205.417969 348.390625 L 63.351562 348.390625 C 63.113281 348.390625 62.882812 348.507812 62.746094 348.707031 C 62.609375 348.90625 62.578125 349.15625 62.660156 349.382812 C 66.625 360.007812 66.625 370.496094 62.667969 380.550781 C 62.578125 380.777344 62.605469 381.035156 62.742188 381.234375 C 62.878906 381.433594 63.109375 381.554688 63.351562 381.554688 " fill-opacity="1" fill-rule="nonzero"/><path fill="#6ce5e8" d="M 204.550781 350.691406 L 62.421875 350.691406 C 60.976562 350.691406 59.808594 349.570312 59.808594 348.191406 C 59.808594 346.8125 60.976562 345.695312 62.421875 345.695312 L 207.035156 345.695312 C 213.375 345.695312 218.515625 350.609375 218.515625 356.671875 L 218.515625 373.921875 C 218.515625 379.984375 213.375 384.898438 207.035156 384.898438 L 62.421875 384.898438 C 60.976562 384.898438 59.808594 383.777344 59.808594 382.398438 C 59.808594 381.019531 60.976562 379.902344 62.421875 379.902344 L 204.550781 379.902344 C 209.027344 379.902344 212.660156 376.429688 212.660156 372.148438 L 212.660156 358.445312 C 212.660156 354.160156 209.027344 350.691406 204.550781 350.691406 " fill-opacity="1" fill-rule="nonzero"/><path fill="#000000" d="M 62.417969 351.425781 L 98.800781 351.425781 C 99.210938 351.425781 99.535156 351.09375 99.535156 350.6875 C 99.535156 350.285156 99.210938 349.953125 98.800781 349.953125 L 62.417969 349.953125 C 61.382812 349.953125 60.542969 349.164062 60.542969 348.191406 C 60.542969 347.222656 61.382812 346.429688 62.417969 346.429688 L 94.355469 346.429688 C 94.757812 346.429688 95.089844 346.101562 95.089844 345.695312 C 95.089844 345.289062 94.757812 344.960938 94.355469 344.960938 L 62.417969 344.960938 C 60.570312 344.960938 59.070312 346.410156 59.070312 348.191406 C 59.070312 349.972656 60.570312 351.425781 62.417969 351.425781 " fill-opacity="1" fill-rule="nonzero"/><path fill="#000000" d="M 62.417969 385.632812 L 165.230469 385.632812 C 165.636719 385.632812 165.96875 385.300781 165.96875 384.894531 C 165.96875 384.492188 165.636719 384.160156 165.230469 384.160156 L 62.417969 384.160156 C 61.382812 384.160156 60.542969 383.371094 60.542969 382.398438 C 60.542969 381.425781 61.382812 380.636719 62.417969 380.636719 L 165.789062 380.636719 C 166.195312 380.636719 166.523438 380.308594 166.523438 379.898438 C 166.523438 379.496094 166.195312 379.164062 165.789062 379.164062 L 62.417969 379.164062 C 60.570312 379.164062 59.070312 380.613281 59.070312 382.398438 C 59.070312 384.179688 60.570312 385.632812 62.417969 385.632812 " fill-opacity="1" fill-rule="nonzero"/><path fill="#e7f0ff" d="M 71.691406 361.617188 L 135.464844 361.617188 C 135.875 361.617188 136.199219 361.289062 136.199219 360.882812 C 136.199219 360.476562 135.875 360.148438 135.464844 360.148438 L 71.691406 360.148438 C 71.289062 360.148438 70.957031 360.476562 70.957031 360.882812 C 70.957031 361.289062 71.289062 361.617188 71.691406 361.617188 " fill-opacity="1" fill-rule="nonzero"/><path fill="#e7f0ff" d="M 145.085938 361.617188 L 159.089844 361.617188 C 159.496094 361.617188 159.828125 361.289062 159.828125 360.882812 C 159.828125 360.476562 159.496094 360.148438 159.089844 360.148438 L 145.085938 360.148438 C 144.675781 360.148438 144.347656 360.476562 144.347656 360.882812 C 144.347656 361.289062 144.675781 361.617188 145.085938 361.617188 " fill-opacity="1" fill-rule="nonzero"/><path fill="#e7f0ff" d="M 71.691406 370.445312 L 138.484375 370.445312 C 138.890625 370.445312 139.222656 370.117188 139.222656 369.710938 C 139.222656 369.304688 138.890625 368.976562 138.484375 368.976562 L 71.691406 368.976562 C 71.289062 368.976562 70.957031 369.304688 70.957031 369.710938 C 70.957031 370.117188 71.289062 370.445312 71.691406 370.445312 " fill-opacity="1" fill-rule="nonzero"/><path fill="#e7f0ff" d="M 147.59375 370.449219 L 154.621094 370.449219 C 155.027344 370.449219 155.355469 370.117188 155.355469 369.710938 C 155.355469 369.308594 155.027344 368.976562 154.621094 368.976562 L 147.59375 368.976562 C 147.191406 368.976562 146.859375 369.308594 146.859375 369.710938 C 146.859375 370.117188 147.191406 370.449219 147.59375 370.449219 " fill-opacity="1" fill-rule="nonzero"/><path fill="#000000" d="M 58.078125 225.699219 C 56.449219 225.074219 55.011719 223.976562 54.117188 222.464844 C 52.789062 220.226562 52.097656 216.632812 55.144531 211.480469 C 62.039062 199.832031 73.378906 205.25 77.738281 203.875 C 87.511719 200.804688 85.238281 195.871094 89.234375 191.039062 C 92.222656 187.425781 102.507812 180.578125 117.972656 193.117188 C 117.972656 193.117188 124.894531 202.015625 132.835938 198.5625 C 142.585938 194.320312 162.0625 203.65625 155.792969 217.75 C 153.988281 221.8125 150.757812 224.949219 146.839844 226.664062 C 146.132812 226.976562 145.355469 227.277344 144.511719 227.554688 C 142.066406 228.359375 140.171875 230.40625 139.542969 233.042969 C 137.496094 241.613281 129.863281 258.183594 102.042969 241.730469 C 99.941406 240.492188 97.445312 240.347656 95.261719 241.308594 C 92.578125 242.492188 89.640625 247.03125 76.746094 245.203125 C 68.460938 244.03125 65.882812 234.992188 63.722656 230.890625 C 62.003906 227.621094 59.507812 226.246094 58.078125 225.699219 " fill-opacity="1" fill-rule="nonzero"/><path fill="#f96f5f" d="M 101.320312 292.789062 C 96.933594 284.90625 90.371094 267.84375 98.734375 251.320312 L 98.734375 251.328125 C 99.71875 249.796875 100.054688 248.359375 101.277344 246.984375 C 105.867188 241.8125 112.554688 240.699219 120.707031 239.363281 C 127.898438 238.179688 144.472656 235.453125 154.058594 243.882812 C 155.402344 245.0625 156.402344 246.300781 157.175781 247.621094 C 158.792969 249.621094 162.945312 255.648438 165.605469 267.507812 C 168.972656 282.488281 187.816406 292.046875 197.542969 287.371094 C 207.261719 282.695312 207.5625 280.289062 207.5625 280.289062 L 206.792969 287.832031 C 206.792969 287.832031 190.472656 318.242188 164.390625 302.03125 C 169.484375 318.324219 175.25 322.746094 172.214844 332.324219 C 167.015625 348.734375 144.242188 354.210938 140.183594 355.097656 C 128.601562 357.621094 106.625 358.257812 97.703125 345.589844 C 89.464844 333.882812 102.046875 324.386719 101.320312 292.789062 " fill-opacity="1" fill-rule="nonzero"/><path fill="#ffffff" d="M 153.46875 285.621094 C 153.46875 285.621094 169.984375 278.675781 176.515625 267.078125 C 177.164062 265.933594 178.042969 264.941406 179.058594 264.109375 L 190.152344 254.589844 C 190.875 253.96875 191.953125 254.695312 191.652344 255.597656 C 190.914062 257.808594 189.488281 260.863281 186.820312 263.339844 C 186.820312 263.339844 189.523438 268.914062 184.976562 273.199219 C 184.976562 273.199219 181.566406 275.910156 179.53125 275.960938 C 179.53125 275.960938 173.578125 295.515625 157.503906 301.339844 C 157.503906 301.339844 152.992188 294.476562 153.46875 285.621094 " fill-opacity="1" fill-rule="nonzero"/><path fill="#000000" d="M 184.496094 272.644531 C 183.574219 273.367188 180.964844 275.191406 179.515625 275.226562 C 179.199219 275.234375 178.921875 275.445312 178.828125 275.746094 C 178.773438 275.9375 172.933594 294.558594 157.820312 300.433594 C 156.859375 298.761719 153.945312 293.074219 154.183594 286.113281 C 156.894531 284.910156 171.089844 278.210938 177.160156 267.441406 C 177.730469 266.425781 178.527344 265.496094 179.523438 264.683594 L 190.632812 255.148438 C 190.710938 255.082031 190.792969 255.078125 190.875 255.132812 C 190.964844 255.1875 190.988281 255.269531 190.957031 255.367188 C 190.261719 257.441406 188.894531 260.414062 186.320312 262.800781 C 186.082031 263.019531 186.015625 263.367188 186.15625 263.660156 C 186.257812 263.867188 188.550781 268.800781 184.496094 272.644531 Z M 157.507812 302.074219 C 157.589844 302.074219 157.675781 302.0625 157.757812 302.03125 C 172.796875 296.582031 179.050781 279.734375 180.089844 276.640625 C 182.265625 276.257812 185.097656 274.046875 185.433594 273.777344 C 185.453125 273.765625 185.464844 273.75 185.480469 273.738281 C 189.539062 269.914062 188.253906 265.085938 187.6875 263.527344 C 190.253906 260.996094 191.636719 257.96875 192.351562 255.835938 C 192.59375 255.109375 192.332031 254.339844 191.699219 253.914062 C 191.0625 253.488281 190.25 253.535156 189.671875 254.03125 L 178.582031 263.554688 C 177.453125 264.476562 176.539062 265.542969 175.878906 266.722656 C 169.539062 277.964844 153.347656 284.875 153.1875 284.941406 C 152.925781 285.050781 152.75 285.300781 152.738281 285.582031 C 152.253906 294.578125 156.703125 301.453125 156.894531 301.742188 C 157.03125 301.953125 157.265625 302.074219 157.507812 302.074219 " fill-opacity="1" fill-rule="nonzero"/><path fill="#e7f0ff" d="M 204.050781 272.996094 L 170.449219 312.039062 L 189.160156 312.59375 L 225.230469 273.285156 L 204.050781 272.996094 " fill-opacity="1" fill-rule="nonzero"/><path fill="#000000" d="M 223.578125 274 L 188.847656 311.851562 L 172.011719 311.351562 L 204.386719 273.738281 Z M 189.160156 313.332031 C 189.371094 313.332031 189.5625 313.246094 189.703125 313.09375 L 225.769531 273.78125 C 225.964844 273.566406 226.015625 273.261719 225.902344 272.992188 C 225.789062 272.730469 225.527344 272.554688 225.238281 272.550781 L 204.0625 272.261719 C 204.058594 272.261719 204.054688 272.261719 204.050781 272.261719 C 203.835938 272.261719 203.632812 272.355469 203.492188 272.515625 L 169.890625 311.5625 C 169.707031 311.777344 169.660156 312.078125 169.777344 312.335938 C 169.890625 312.597656 170.144531 312.769531 170.429688 312.773438 L 189.140625 313.328125 C 189.144531 313.332031 189.152344 313.332031 189.160156 313.332031 " fill-opacity="1" fill-rule="nonzero"/><path fill="#ffffff" d="M 201.5625 299.117188 C 201.5625 299.117188 209.277344 295.195312 211.878906 292.152344 C 213.417969 290.355469 213.164062 285.9375 212.699219 282.625 C 212.515625 281.335938 211.027344 281.226562 210.222656 282.25 L 204.171875 289.746094 C 201.679688 294.214844 201.5625 299.117188 201.5625 299.117188 " fill-opacity="1" fill-rule="nonzero"/><path fill="#000000" d="M 211.539062 282.292969 C 211.585938 282.292969 211.632812 282.300781 211.671875 282.3125 C 211.734375 282.328125 211.921875 282.378906 211.96875 282.726562 C 212.605469 287.261719 212.375 290.441406 211.320312 291.675781 C 209.4375 293.875 204.644531 296.621094 202.410156 297.835938 C 202.617188 296.136719 203.191406 293.042969 204.785156 290.160156 L 210.796875 282.710938 C 211.027344 282.414062 211.320312 282.292969 211.539062 282.292969 Z M 201.5625 299.855469 C 201.675781 299.855469 201.789062 299.828125 201.894531 299.773438 C 202.214844 299.609375 209.769531 295.75 212.4375 292.628906 C 213.808594 291.027344 214.144531 287.625 213.425781 282.523438 C 213.308594 281.703125 212.796875 281.09375 212.058594 280.894531 C 211.207031 280.664062 210.257812 281.015625 209.648438 281.792969 L 203.601562 289.285156 C 203.574219 289.316406 203.550781 289.351562 203.53125 289.390625 C 200.980469 293.964844 200.832031 298.890625 200.824219 299.097656 C 200.820312 299.355469 200.949219 299.601562 201.167969 299.738281 C 201.289062 299.816406 201.425781 299.855469 201.5625 299.855469 " fill-opacity="1" fill-rule="nonzero"/><path fill="#6ce5e8" d="M 136.417969 307.746094 C 141.941406 307.746094 148.429688 306.796875 155.722656 304.089844 C 156.105469 303.945312 156.300781 303.523438 156.15625 303.144531 C 156.015625 302.761719 155.589844 302.570312 155.210938 302.710938 C 128.671875 312.558594 112.804688 298.867188 112.648438 298.726562 C 112.34375 298.460938 111.875 298.488281 111.609375 298.789062 C 111.339844 299.09375 111.367188 299.558594 111.671875 299.828125 C 111.839844 299.976562 115.890625 303.519531 123.371094 305.832031 C 126.738281 306.875 131.136719 307.746094 136.417969 307.746094 " fill-opacity="1" fill-rule="nonzero"/><path fill="#6ce5e8" d="M 146.140625 286.554688 C 147.394531 286.554688 148.695312 286.492188 150.046875 286.351562 C 150.453125 286.3125 150.746094 285.953125 150.707031 285.546875 C 150.664062 285.144531 150.304688 284.847656 149.898438 284.886719 C 137.566406 286.144531 127.957031 281.507812 121.339844 271.109375 C 116.359375 263.289062 115.027344 254.960938 115.011719 254.882812 C 114.949219 254.480469 114.574219 254.203125 114.175781 254.265625 C 113.773438 254.328125 113.5 254.703125 113.558594 255.105469 C 113.613281 255.457031 114.9375 263.78125 120.074219 271.863281 C 124.445312 278.746094 132.429688 286.554688 146.140625 286.554688 " fill-opacity="1" fill-rule="nonzero"/><path fill="#6ce5e8" d="M 156.71875 276.695312 C 157.078125 276.695312 157.394531 276.433594 157.445312 276.066406 C 159.984375 258.703125 152.195312 249.109375 151.863281 248.707031 C 151.605469 248.394531 151.140625 248.355469 150.828125 248.617188 C 150.515625 248.871094 150.472656 249.335938 150.734375 249.648438 C 150.847656 249.785156 158.425781 259.214844 155.992188 275.855469 C 155.933594 276.253906 156.210938 276.628906 156.609375 276.6875 C 156.648438 276.691406 156.683594 276.695312 156.71875 276.695312 " fill-opacity="1" fill-rule="nonzero"/><path fill="#ffffff" d="M 153.125 229.46875 C 153.8125 229.375 154.28125 228.71875 154.128906 228.042969 C 153.195312 223.851562 153.550781 216.667969 153.417969 216.871094 C 151.921875 219.066406 148.808594 216.3125 144.375 216.136719 C 141.730469 216.035156 140.714844 217.597656 140.324219 218.878906 C 140.199219 219.292969 139.636719 219.367188 139.40625 219.003906 C 138.753906 218.003906 137.65625 217.15625 136.015625 218.796875 C 134.195312 220.621094 135.722656 224.847656 137.367188 226.234375 C 136.96875 226.691406 130.667969 233.484375 125.832031 238.589844 C 124.878906 239.597656 125.011719 241.214844 126.121094 242.058594 L 130.417969 245.316406 C 133.101562 247.359375 136.773438 247.5 139.609375 245.675781 L 140.269531 245.25 C 140.957031 244.808594 141.078125 243.847656 140.515625 243.253906 L 139.214844 241.875 C 138.15625 240.625 138.351562 239.039062 139.023438 237.710938 L 141.683594 233.207031 C 142.292969 233.949219 143.0625 234.789062 143.773438 235.289062 C 145.1875 236.273438 146.945312 236.121094 148.195312 234.929688 C 149.90625 233.296875 151.105469 231.460938 151.644531 229.679688 L 153.125 229.46875 " fill-opacity="1" fill-rule="nonzero"/><path fill="#000000" d="M 141.683594 232.476562 C 141.664062 232.476562 141.640625 232.476562 141.625 232.476562 C 141.386719 232.496094 141.171875 232.628906 141.046875 232.835938 L 138.390625 237.339844 C 137.433594 239.214844 137.539062 241.027344 138.648438 242.347656 L 139.980469 243.761719 C 140.140625 243.929688 140.144531 244.121094 140.132812 244.222656 C 140.121094 244.320312 140.070312 244.503906 139.875 244.632812 L 139.210938 245.058594 C 136.644531 246.707031 133.292969 246.578125 130.859375 244.734375 L 126.5625 241.472656 C 126.195312 241.191406 125.972656 240.785156 125.933594 240.324219 C 125.898438 239.867188 126.050781 239.425781 126.367188 239.09375 C 131.324219 233.859375 137.527344 227.164062 137.921875 226.71875 C 138.050781 226.574219 138.117188 226.378906 138.101562 226.179688 C 138.089844 225.984375 137.996094 225.800781 137.84375 225.671875 C 136.980469 224.949219 136.007812 223.082031 135.929688 221.332031 C 135.902344 220.71875 135.988281 219.867188 136.535156 219.316406 C 136.882812 218.96875 137.386719 218.554688 137.832031 218.613281 C 138.222656 218.652344 138.566406 219.0625 138.785156 219.40625 C 139.054688 219.816406 139.519531 220.03125 140.007812 219.960938 C 140.492188 219.894531 140.886719 219.558594 141.027344 219.09375 C 141.5 217.550781 142.625 216.796875 144.34375 216.871094 C 146.03125 216.9375 147.523438 217.402344 148.84375 217.8125 C 150.257812 218.25 151.617188 218.671875 152.71875 218.308594 C 152.71875 220.597656 152.730469 225.148438 153.410156 228.203125 C 153.445312 228.363281 153.382812 228.488281 153.339844 228.546875 C 153.296875 228.609375 153.199219 228.71875 153.027344 228.742188 L 151.542969 228.949219 C 151.261719 228.992188 151.027344 229.191406 150.941406 229.464844 C 150.429688 231.148438 149.304688 232.855469 147.6875 234.398438 C 146.6875 235.351562 145.316406 235.464844 144.191406 234.683594 C 143.664062 234.3125 143.011719 233.660156 142.25 232.742188 C 142.109375 232.574219 141.902344 232.476562 141.683594 232.476562 Z M 135.269531 247.679688 C 136.917969 247.679688 138.5625 247.21875 140.003906 246.296875 L 140.667969 245.867188 C 141.179688 245.535156 141.519531 245.003906 141.59375 244.398438 C 141.664062 243.792969 141.464844 243.191406 141.050781 242.75 L 139.746094 241.371094 C 138.796875 240.242188 139.296875 238.800781 139.683594 238.046875 L 141.796875 234.464844 C 142.367188 235.089844 142.890625 235.566406 143.351562 235.886719 C 145.046875 237.070312 147.195312 236.898438 148.703125 235.460938 C 150.363281 233.875 151.5625 232.117188 152.199219 230.34375 L 153.230469 230.199219 C 153.761719 230.125 154.246094 229.828125 154.550781 229.382812 C 154.851562 228.949219 154.960938 228.398438 154.847656 227.882812 C 154.1875 224.933594 154.1875 220.375 154.1875 218.183594 C 154.1875 216.546875 154.1875 216.335938 153.636719 216.164062 C 153.332031 216.066406 152.988281 216.1875 152.804688 216.457031 C 152.269531 217.246094 151.414062 217.070312 149.277344 216.40625 C 147.945312 215.992188 146.28125 215.476562 144.402344 215.402344 C 141.488281 215.289062 140.265625 216.980469 139.765625 218.246094 C 139.25 217.585938 138.652344 217.21875 137.984375 217.148438 C 137.167969 217.0625 136.332031 217.441406 135.496094 218.273438 C 134.761719 219.011719 134.402344 220.089844 134.457031 221.394531 C 134.535156 223.09375 135.3125 225.046875 136.355469 226.253906 C 134.753906 227.996094 129.472656 233.675781 125.300781 238.082031 C 124.699219 238.714844 124.398438 239.578125 124.46875 240.441406 C 124.542969 241.316406 124.980469 242.117188 125.671875 242.644531 L 129.972656 245.90625 C 131.527344 247.085938 133.398438 247.679688 135.269531 247.679688 " fill-opacity="1" fill-rule="nonzero"/><path fill="#ffffff" d="M 140.835938 232.027344 L 141.683594 233.210938 L 140.835938 232.027344 " fill-opacity="1" fill-rule="nonzero"/><path fill="#000000" d="M 141.679688 233.945312 C 141.832031 233.945312 141.980469 233.898438 142.109375 233.808594 C 142.441406 233.570312 142.515625 233.113281 142.28125 232.78125 L 141.433594 231.597656 C 141.195312 231.269531 140.738281 231.191406 140.40625 231.429688 C 140.074219 231.664062 140 232.125 140.234375 232.453125 L 141.082031 233.636719 C 141.226562 233.839844 141.453125 233.945312 141.679688 233.945312 " fill-opacity="1" fill-rule="nonzero"/><path fill="#6ce5e8" d="M 235.175781 407.945312 C 235.066406 408.390625 240.265625 432.171875 240.265625 432.171875 L 228.320312 430.171875 L 224.71875 410.0625 L 235.175781 407.945312 " fill-opacity="1" fill-rule="nonzero"/><path fill="#000000" d="M 235.890625 408.113281 C 235.890625 408.113281 235.890625 408.113281 235.890625 408.117188 C 235.890625 408.113281 235.890625 408.113281 235.890625 408.113281 Z M 235.890625 408.117188 Z M 234.574219 408.816406 C 234.894531 410.644531 235.953125 415.859375 239.316406 431.269531 L 228.949219 429.535156 L 225.570312 410.640625 Z M 240.265625 432.90625 C 240.464844 432.90625 240.65625 432.828125 240.800781 432.679688 C 240.964844 432.503906 241.035156 432.253906 240.984375 432.015625 C 238.992188 422.90625 236.015625 409.058594 235.910156 407.96875 C 235.914062 407.773438 235.84375 407.582031 235.703125 407.433594 C 235.527344 407.253906 235.273438 407.171875 235.027344 407.226562 L 224.574219 409.34375 C 224.183594 409.421875 223.925781 409.796875 223.996094 410.195312 L 227.59375 430.300781 C 227.648438 430.609375 227.890625 430.847656 228.195312 430.898438 L 240.144531 432.898438 C 240.183594 432.90625 240.222656 432.90625 240.265625 432.90625 " fill-opacity="1" fill-rule="nonzero"/><path fill="#ffffff" d="M 233.921875 424.371094 C 234.652344 423.757812 235.695312 423.15625 237.027344 423.101562 C 239.027344 423.015625 240.855469 424.269531 241.683594 426.109375 C 243.753906 430.714844 249.21875 443.542969 250.761719 454.023438 C 251.308594 457.730469 248.511719 460.746094 244.15625 458.316406 C 237.015625 454.339844 227.113281 445.203125 221.929688 431.710938 C 221.332031 430.164062 221.546875 428.414062 222.523438 427.078125 C 223.320312 425.984375 224.402344 424.664062 225.660156 423.539062 C 226.863281 422.460938 228.667969 422.445312 229.917969 423.46875 L 231.039062 424.394531 C 231.878906 425.085938 233.085938 425.074219 233.921875 424.371094 " fill-opacity="1" fill-rule="nonzero"/><path fill="#000000" d="M 237.214844 423.832031 C 238.796875 423.832031 240.3125 424.851562 241.011719 426.410156 C 243.21875 431.320312 248.519531 443.839844 250.035156 454.132812 C 250.277344 455.78125 249.777344 457.253906 248.726562 457.976562 C 247.671875 458.707031 246.171875 458.597656 244.515625 457.671875 C 237.242188 453.621094 227.667969 444.605469 222.613281 431.449219 C 222.101562 430.113281 222.289062 428.644531 223.117188 427.511719 C 224.109375 426.148438 225.132812 424.996094 226.152344 424.085938 C 227.082031 423.253906 228.46875 423.234375 229.449219 424.035156 L 230.570312 424.960938 C 231.683594 425.875 233.289062 425.863281 234.394531 424.933594 C 235.210938 424.246094 236.109375 423.875 237.058594 423.835938 C 237.109375 423.832031 237.164062 423.832031 237.214844 423.832031 Z M 247.097656 459.929688 C 248.242188 459.929688 249.066406 459.53125 249.5625 459.1875 C 251.078125 458.144531 251.8125 456.121094 251.488281 453.917969 C 249.945312 443.441406 244.585938 430.769531 242.355469 425.808594 C 241.382812 423.652344 239.230469 422.277344 236.996094 422.367188 C 235.734375 422.417969 234.507812 422.917969 233.449219 423.808594 C 232.886719 424.28125 232.070312 424.289062 231.503906 423.824219 L 230.382812 422.902344 C 228.839844 421.632812 226.644531 421.667969 225.167969 422.988281 C 224.074219 423.96875 222.984375 425.199219 221.929688 426.644531 C 220.804688 428.179688 220.546875 430.171875 221.242188 431.976562 C 226.4375 445.5 236.300781 454.78125 243.796875 458.957031 C 245.09375 459.679688 246.195312 459.929688 247.097656 459.929688 " fill-opacity="1" fill-rule="nonzero"/><path fill="#f96f5f" d="M 236.382812 448.238281 C 236.558594 448.238281 236.738281 448.175781 236.878906 448.046875 C 237.179688 447.773438 237.203125 447.308594 236.929688 447.007812 C 232.933594 442.601562 229.753906 437.75 225.964844 430.257812 C 225.78125 429.898438 225.339844 429.753906 224.976562 429.933594 C 224.617188 430.117188 224.46875 430.5625 224.65625 430.921875 C 228.507812 438.539062 231.75 443.484375 235.839844 447.996094 C 235.984375 448.15625 236.183594 448.238281 236.382812 448.238281 " fill-opacity="1" fill-rule="nonzero"/><path fill="#f96f5f" d="M 238.902344 443.265625 C 238.988281 443.265625 239.082031 443.25 239.171875 443.210938 L 244.363281 441.160156 C 244.742188 441.011719 244.925781 440.582031 244.777344 440.207031 C 244.628906 439.828125 244.199219 439.640625 243.824219 439.792969 L 238.628906 441.84375 C 238.253906 441.996094 238.066406 442.421875 238.21875 442.800781 C 238.332031 443.089844 238.605469 443.265625 238.902344 443.265625 " fill-opacity="1" fill-rule="nonzero"/><path fill="#f96f5f" d="M 238.414062 438.121094 C 238.492188 438.121094 238.570312 438.113281 238.652344 438.082031 L 243.328125 436.484375 C 243.710938 436.351562 243.914062 435.933594 243.785156 435.546875 C 243.652344 435.164062 243.234375 434.957031 242.851562 435.089844 L 238.175781 436.691406 C 237.792969 436.824219 237.585938 437.242188 237.71875 437.625 C 237.824219 437.929688 238.109375 438.121094 238.414062 438.121094 " fill-opacity="1" fill-rule="nonzero"/><path fill="#6ce5e8" d="M 183.765625 410.109375 C 183.480469 410.464844 178.203125 434.230469 178.203125 434.230469 L 168.203125 427.394531 L 173.390625 407.632812 L 183.765625 410.109375 " fill-opacity="1" fill-rule="nonzero"/><path fill="#000000" d="M 184.34375 410.5625 Z M 184.34375 410.5625 Z M 182.855469 410.644531 C 182.375 412.4375 181.144531 417.613281 177.71875 433.007812 L 169.042969 427.078125 L 173.917969 408.515625 Z M 178.203125 434.964844 C 178.292969 434.964844 178.386719 434.949219 178.472656 434.914062 C 178.699219 434.824219 178.867188 434.628906 178.921875 434.390625 C 180.941406 425.285156 184.0625 411.46875 184.421875 410.433594 C 184.511719 410.261719 184.527344 410.054688 184.457031 409.867188 C 184.378906 409.628906 184.179688 409.449219 183.933594 409.390625 L 173.558594 406.917969 C 173.167969 406.824219 172.78125 407.0625 172.679688 407.449219 L 167.492188 427.207031 C 167.410156 427.507812 167.53125 427.824219 167.789062 428 L 177.785156 434.839844 C 177.910156 434.921875 178.054688 434.964844 178.203125 434.964844 " fill-opacity="1" fill-rule="nonzero"/><path fill="#ffffff" d="M 175.722656 424.484375 C 176.644531 424.234375 177.84375 424.128906 179.074219 424.636719 C 180.925781 425.398438 182.054688 427.304688 182.03125 429.324219 C 181.980469 434.371094 181.542969 448.304688 178.539062 458.46875 C 177.476562 462.058594 173.675781 463.621094 170.742188 459.585938 C 165.9375 452.976562 160.789062 440.523438 161.753906 426.101562 C 161.863281 424.449219 162.792969 422.949219 164.242188 422.148438 C 165.425781 421.492188 166.964844 420.75 168.574219 420.253906 C 170.117188 419.78125 171.765625 420.527344 172.464844 421.980469 L 173.097656 423.289062 C 173.570312 424.273438 174.671875 424.769531 175.722656 424.484375 " fill-opacity="1" fill-rule="nonzero"/><path fill="#000000" d="M 177.230469 425.007812 C 177.777344 425.007812 178.300781 425.113281 178.792969 425.316406 C 180.3125 425.941406 181.320312 427.550781 181.296875 429.316406 C 181.242188 434.695312 180.785156 448.28125 177.835938 458.261719 C 177.363281 459.855469 176.289062 460.980469 175.03125 461.199219 C 173.769531 461.417969 172.453125 460.691406 171.335938 459.152344 C 166.4375 452.421875 161.546875 440.214844 162.488281 426.152344 C 162.582031 424.726562 163.371094 423.46875 164.597656 422.789062 C 166.070312 421.972656 167.480469 421.355469 168.792969 420.957031 C 169.984375 420.59375 171.253906 421.15625 171.804688 422.300781 L 172.433594 423.609375 C 173.058594 424.90625 174.523438 425.570312 175.914062 425.191406 C 176.367188 425.070312 176.804688 425.007812 177.230469 425.007812 Z M 174.589844 462.707031 C 174.851562 462.707031 175.082031 462.679688 175.28125 462.648438 C 177.09375 462.335938 178.613281 460.816406 179.246094 458.675781 C 182.246094 448.523438 182.710938 434.773438 182.773438 429.332031 C 182.792969 426.96875 181.421875 424.808594 179.355469 423.957031 C 178.1875 423.472656 176.863281 423.410156 175.53125 423.773438 C 174.820312 423.96875 174.078125 423.628906 173.761719 422.972656 L 173.128906 421.660156 C 172.257812 419.859375 170.257812 418.972656 168.363281 419.550781 C 166.953125 419.980469 165.449219 420.636719 163.882812 421.503906 C 162.21875 422.425781 161.148438 424.128906 161.019531 426.054688 C 160.050781 440.507812 165.101562 453.074219 170.144531 460.019531 C 171.757812 462.230469 173.441406 462.707031 174.589844 462.707031 " fill-opacity="1" fill-rule="nonzero"/><path fill="#f96f5f" d="M 175.691406 458.976562 C 175.976562 458.976562 176.25 458.808594 176.367188 458.527344 C 176.523438 458.152344 176.351562 457.726562 175.980469 457.566406 C 175.851562 457.507812 166.953125 453.207031 166.027344 426.480469 C 166.015625 426.074219 165.664062 425.761719 165.269531 425.773438 C 164.863281 425.789062 164.546875 426.125 164.558594 426.53125 C 165.527344 454.449219 175 458.75 175.402344 458.921875 C 175.496094 458.960938 175.59375 458.976562 175.691406 458.976562 " fill-opacity="1" fill-rule="nonzero"/><path fill="#f96f5f" d="M 178.503906 444.148438 C 178.863281 444.148438 179.175781 443.882812 179.226562 443.515625 C 179.285156 443.113281 179.003906 442.742188 178.605469 442.683594 L 173.441406 441.957031 C 173.039062 441.898438 172.667969 442.179688 172.609375 442.578125 C 172.554688 442.984375 172.832031 443.355469 173.234375 443.410156 L 178.398438 444.140625 C 178.433594 444.144531 178.46875 444.148438 178.503906 444.148438 " fill-opacity="1" fill-rule="nonzero"/><path fill="#f96f5f" d="M 179.046875 439.40625 C 179.40625 439.40625 179.722656 439.140625 179.773438 438.773438 C 179.832031 438.375 179.554688 438 179.152344 437.941406 L 172.894531 437.027344 C 172.496094 436.96875 172.121094 437.25 172.0625 437.648438 C 172.003906 438.054688 172.28125 438.425781 172.683594 438.484375 L 178.9375 439.394531 C 178.976562 439.402344 179.011719 439.40625 179.046875 439.40625 " fill-opacity="1" fill-rule="nonzero"/><path fill="#000000" d="M 127.882812 316.425781 C 127.882812 316.425781 200.632812 313.269531 208.585938 320.65625 C 219.375 330.671875 237.910156 414.074219 237.910156 414.074219 L 220.011719 419.089844 C 220.011719 419.089844 191.082031 350.648438 184.402344 350.648438 C 177.722656 350.648438 116.699219 348.398438 116.699219 348.398438 L 127.882812 316.425781 " fill-opacity="1" fill-rule="nonzero"/><path fill="#000000" d="M 123.078125 314.609375 C 117.324219 314.3125 112.1875 318.152344 110.832031 323.75 C 108.734375 332.421875 106.917969 344.277344 111.613281 347.4375 C 119.246094 352.574219 174.273438 350.816406 172.375 351.492188 C 171.523438 351.796875 167.453125 397.613281 167.453125 415.597656 L 184.78125 416.265625 C 184.78125 416.265625 212.398438 343.945312 209.421875 335.871094 C 204.09375 321.425781 163.101562 318.117188 149.984375 316.183594 C 148.222656 315.925781 133.265625 315.128906 123.078125 314.609375 " fill-opacity="1" fill-rule="nonzero"/><path fill="#ffffff" d="M 200.125 376.632812 C 200.433594 376.632812 200.722656 376.433594 200.824219 376.128906 C 206.390625 359.578125 211.667969 339.84375 210.109375 335.617188 C 205.914062 324.234375 180.921875 319.589844 162.496094 317.085938 C 162.097656 317.023438 161.722656 317.3125 161.664062 317.714844 C 161.613281 318.117188 161.890625 318.488281 162.296875 318.542969 C 180.351562 320.992188 204.808594 325.484375 208.730469 336.125 C 209.921875 339.355469 205.925781 356.351562 199.429688 375.660156 C 199.300781 376.046875 199.507812 376.460938 199.894531 376.589844 C 199.972656 376.617188 200.050781 376.632812 200.125 376.632812 " fill-opacity="1" fill-rule="nonzero"/><path fill="#000000" d="M 414.046875 429.394531 C 414.054688 429.394531 414.0625 429.394531 414.070312 429.394531 L 417.871094 429.269531 C 418.277344 429.257812 418.59375 428.917969 418.582031 428.511719 C 418.566406 428.105469 418.214844 427.792969 417.820312 427.800781 L 414.023438 427.925781 C 413.617188 427.9375 413.296875 428.28125 413.3125 428.6875 C 413.324219 429.082031 413.652344 429.394531 414.046875 429.394531 " fill-opacity="1" fill-rule="nonzero"/><path fill="#000000" d="M 422.898438 429.105469 C 422.90625 429.105469 422.914062 429.105469 422.921875 429.105469 L 426.722656 428.980469 C 427.128906 428.964844 427.445312 428.625 427.433594 428.21875 C 427.421875 427.816406 427.070312 427.484375 426.675781 427.507812 L 422.875 427.632812 C 422.46875 427.648438 422.148438 427.988281 422.164062 428.394531 C 422.175781 428.789062 422.503906 429.105469 422.898438 429.105469 " fill-opacity="1" fill-rule="nonzero"/><path fill="#000000" d="M 420.289062 426.660156 C 420.296875 426.660156 420.304688 426.660156 420.3125 426.660156 C 420.71875 426.648438 421.039062 426.308594 421.023438 425.902344 L 420.898438 422.101562 C 420.886719 421.695312 420.539062 421.367188 420.140625 421.390625 C 419.734375 421.402344 419.414062 421.746094 419.429688 422.148438 L 419.554688 425.949219 C 419.566406 426.347656 419.894531 426.660156 420.289062 426.660156 " fill-opacity="1" fill-rule="nonzero"/><path fill="#000000" d="M 420.582031 435.515625 C 420.589844 435.515625 420.597656 435.515625 420.605469 435.511719 C 421.011719 435.5 421.328125 435.160156 421.316406 434.753906 L 421.191406 430.953125 C 421.175781 430.546875 420.832031 430.222656 420.433594 430.246094 C 420.027344 430.257812 419.707031 430.597656 419.722656 431.003906 L 419.847656 434.804688 C 419.859375 435.199219 420.1875 435.515625 420.582031 435.515625 " fill-opacity="1" fill-rule="nonzero"/><path fill="#000000" d="M 414.160156 405.929688 C 415.203125 405.929688 416.210938 406.550781 416.660156 407.578125 C 416.945312 408.238281 416.960938 408.964844 416.695312 409.621094 C 416.4375 410.261719 415.945312 410.761719 415.308594 411.027344 C 413.964844 411.589844 412.390625 410.945312 411.796875 409.585938 C 411.511719 408.921875 411.496094 408.199219 411.761719 407.539062 C 412.019531 406.898438 412.511719 406.398438 413.148438 406.132812 C 413.476562 405.996094 413.820312 405.929688 414.160156 405.929688 Z M 414.304688 412.703125 C 414.832031 412.703125 415.363281 412.597656 415.875 412.386719 C 416.878906 411.964844 417.65625 411.175781 418.058594 410.167969 C 418.472656 409.140625 418.453125 408.015625 418.007812 406.988281 C 417.09375 404.898438 414.664062 403.90625 412.582031 404.777344 C 411.578125 405.195312 410.800781 405.984375 410.394531 406.996094 C 409.984375 408.019531 410.003906 409.148438 410.449219 410.171875 C 411.136719 411.746094 412.691406 412.703125 414.304688 412.703125 " fill-opacity="1" fill-rule="nonzero"/><path fill="#e7f0ff" d="M 395.53125 443.554688 C 394.246094 442.519531 392.359375 442.734375 391.308594 444.03125 C 390.261719 445.324219 390.453125 447.214844 391.734375 448.25 C 393.019531 449.28125 394.910156 449.070312 395.957031 447.773438 C 397.003906 446.476562 396.8125 444.585938 395.53125 443.554688 " fill-opacity="1" fill-rule="nonzero"/></svg>