<svg xmlns="http://www.w3.org/2000/svg" xmlns:xlink="http://www.w3.org/1999/xlink" width="628" zoomAndPan="magnify" viewBox="0 0 470.87997 470.999988" height="628" preserveAspectRatio="xMidYMid meet" version="1.0"><defs><clipPath id="33809e0a10"><path d="M 0 0.0585938 L 470.761719 0.0585938 L 470.761719 470.9375 L 0 470.9375 Z M 0 0.0585938 " clip-rule="nonzero"/></clipPath></defs><g clip-path="url(#33809e0a10)"><path fill="#ffffff" d="M 0 0.0585938 L 470.878906 0.0585938 L 470.878906 470.941406 L 0 470.941406 Z M 0 0.0585938 " fill-opacity="1" fill-rule="nonzero"/><path fill="#ffffff" d="M 0 0.0585938 L 470.878906 0.0585938 L 470.878906 470.941406 L 0 470.941406 Z M 0 0.0585938 " fill-opacity="1" fill-rule="nonzero"/></g><path fill="#e7f0ff" d="M 441.28125 188.128906 C 421.753906 89.015625 331.558594 15.992188 248.808594 8.351562 C 180.253906 2.019531 56.558594 2.832031 24.914062 63.300781 C 5.015625 101.324219 55.027344 153.132812 38.753906 239.285156 C 24.664062 313.851562 0.00390625 340.546875 15.632812 378.554688 C 28.410156 409.625 58.277344 424.320312 77.367188 433.714844 C 152.605469 470.738281 266.910156 466.394531 349.199219 398.855469 C 368.457031 383.050781 463.367188 300.25 441.28125 188.128906 " fill-opacity="1" fill-rule="nonzero"/><path fill="#0a2550" d="M 363.878906 446.714844 L 164.789062 446.714844 C 156.207031 446.714844 150.128906 439.78125 151.210938 431.226562 L 200.234375 43.945312 C 201.320312 35.394531 209.152344 28.464844 217.730469 28.464844 L 406.832031 26.253906 C 428.535156 26.253906 431.480469 35.394531 430.398438 43.945312 L 381.375 431.226562 C 380.292969 439.78125 372.457031 446.714844 363.878906 446.714844 " fill-opacity="1" fill-rule="nonzero"/><path fill="#6ce5e8" d="M 351.902344 446.714844 L 152.804688 446.714844 C 144.226562 446.714844 138.148438 439.761719 139.230469 431.179688 L 188.253906 42.664062 C 189.335938 34.085938 197.167969 27.132812 205.75 27.132812 L 404.847656 27.132812 C 413.421875 27.132812 419.5 34.085938 418.421875 42.664062 L 369.394531 431.179688 C 368.3125 439.761719 360.480469 446.714844 351.902344 446.714844 " fill-opacity="1" fill-rule="nonzero"/><path fill="#e7f0ff" d="M 150.578125 431.714844 L 197.386719 60.75 C 197.636719 58.769531 199.445312 57.164062 201.425781 57.164062 L 401.585938 57.164062 C 403.570312 57.164062 404.972656 58.769531 404.722656 60.75 L 357.914062 431.714844 C 357.667969 433.695312 355.855469 435.300781 353.875 435.300781 L 153.710938 435.300781 C 151.730469 435.300781 150.328125 433.695312 150.578125 431.714844 " fill-opacity="1" fill-rule="nonzero"/><path fill="#e7f0ff" d="M 302.804688 46.890625 C 299.59375 46.890625 297.316406 44.28125 297.71875 41.070312 C 298.125 37.855469 301.058594 35.25 304.273438 35.25 C 307.488281 35.25 309.765625 37.855469 309.359375 41.070312 C 308.953125 44.28125 306.019531 46.890625 302.804688 46.890625 " fill-opacity="1" fill-rule="nonzero"/><path fill="#0a2550" d="M 351.902344 447.535156 L 152.804688 447.535156 C 148.441406 447.535156 144.539062 445.835938 141.820312 442.75 C 139.070312 439.632812 137.863281 435.488281 138.417969 431.078125 L 167.667969 199.277344 C 167.726562 198.828125 168.132812 198.507812 168.585938 198.5625 C 169.035156 198.621094 169.351562 199.03125 169.296875 199.476562 L 140.046875 431.28125 C 139.550781 435.21875 140.617188 438.90625 143.050781 441.667969 C 145.453125 444.390625 148.917969 445.894531 152.804688 445.894531 L 351.902344 445.894531 C 360.066406 445.894531 367.550781 439.246094 368.582031 431.078125 L 417.605469 42.5625 C 418.101562 38.625 417.035156 34.9375 414.601562 32.179688 C 412.195312 29.453125 408.734375 27.949219 404.84375 27.949219 L 205.75 27.949219 C 197.585938 27.949219 190.097656 34.597656 189.070312 42.765625 L 174.292969 159.871094 C 174.238281 160.320312 173.828125 160.640625 173.375 160.582031 C 172.929688 160.523438 172.609375 160.117188 172.667969 159.667969 L 187.441406 42.5625 C 188.574219 33.597656 196.785156 26.308594 205.75 26.308594 L 404.84375 26.308594 C 409.210938 26.308594 413.113281 28.007812 415.832031 31.09375 C 418.582031 34.214844 419.789062 38.355469 419.230469 42.765625 L 370.210938 431.28125 C 369.078125 440.246094 360.867188 447.535156 351.902344 447.535156 " fill-opacity="1" fill-rule="nonzero"/><path fill="#6ce5e8" d="M 336.566406 385.320312 L 184.523438 385.140625 C 183.710938 385.140625 183.089844 384.40625 183.230469 383.601562 L 185.328125 371.472656 C 185.433594 370.839844 185.984375 370.378906 186.625 370.378906 L 338.324219 370.582031 C 339.128906 370.582031 339.742188 371.292969 339.628906 372.085938 L 337.867188 384.195312 C 337.773438 384.84375 337.21875 385.320312 336.566406 385.320312 " fill-opacity="1" fill-rule="nonzero"/><path fill="#6ce5e8" d="M 329.941406 412.84375 L 184.5 412.84375 C 181.796875 412.84375 179.746094 410.402344 180.210938 407.738281 L 181.242188 401.859375 C 181.609375 399.78125 183.410156 398.261719 185.527344 398.257812 L 330.832031 398.085938 C 333.492188 398.082031 335.535156 400.445312 335.144531 403.078125 L 334.246094 409.128906 C 333.929688 411.261719 332.101562 412.84375 329.941406 412.84375 " fill-opacity="1" fill-rule="nonzero"/><path fill="#6ce5e8" d="M 425.859375 435.296875 C 425.859375 435.296875 437.054688 431.796875 455.398438 396.210938 C 470.878906 366.171875 457.074219 337.140625 454.292969 317.722656 C 454.003906 315.738281 451.292969 315.449219 450.621094 317.335938 C 445.984375 330.382812 438.515625 354.109375 439.722656 368.71875 C 441.460938 389.769531 425.859375 435.296875 425.859375 435.296875 " fill-opacity="1" fill-rule="nonzero"/><path fill="#6ce5e8" d="M 437.992188 415.839844 L 441.984375 384.308594 C 443.710938 370.621094 441.472656 356.714844 435.535156 344.285156 C 426.878906 326.175781 426.199219 305.222656 433.664062 286.582031 L 440.066406 270.578125 C 440.875 268.558594 438.300781 266.914062 436.839844 268.519531 L 427.84375 278.417969 C 407.433594 300.867188 400.546875 332.652344 409.796875 361.652344 L 426.375 413.605469 L 437.992188 415.839844 " fill-opacity="1" fill-rule="nonzero"/><path fill="#e7f0ff" d="M 439.917969 401.464844 C 439.882812 401.464844 439.847656 401.464844 439.8125 401.457031 C 439.363281 401.402344 439.046875 400.992188 439.105469 400.542969 L 441.167969 384.203125 C 442.214844 375.921875 441.808594 367.601562 439.953125 359.464844 C 439.855469 359.023438 440.128906 358.585938 440.570312 358.484375 C 441.015625 358.382812 441.453125 358.660156 441.554688 359.101562 C 443.449219 367.421875 443.871094 375.9375 442.796875 384.410156 L 440.730469 400.75 C 440.679688 401.164062 440.324219 401.464844 439.917969 401.464844 " fill-opacity="1" fill-rule="nonzero"/><path fill="#6ce5e8" d="M 432.855469 416.875 L 419.019531 381.535156 C 415.085938 371.484375 406.804688 363.804688 396.546875 360.699219 L 387.113281 357.84375 C 384.824219 357.148438 383.285156 360.175781 385.179688 361.648438 L 390.976562 366.15625 C 397.257812 371.042969 401.011719 378.539062 401.175781 386.542969 C 401.273438 391.246094 402.609375 395.835938 405.050781 399.84375 L 414.425781 415.21875 L 432.855469 416.875 " fill-opacity="1" fill-rule="nonzero"/><path fill="#e7f0ff" d="M 430.808594 401.089844 C 430.78125 401.089844 430.753906 401.089844 430.726562 401.085938 C 430.277344 401.042969 429.945312 400.644531 429.988281 400.191406 C 432.09375 377.691406 427.570312 363.191406 423.578125 350.402344 C 421.730469 344.46875 419.984375 338.863281 418.9375 332.824219 C 414.027344 304.308594 430.78125 279.558594 430.949219 279.3125 C 431.207031 278.941406 431.714844 278.847656 432.089844 279.105469 C 432.464844 279.359375 432.558594 279.871094 432.300781 280.242188 C 432.136719 280.484375 415.761719 304.703125 420.558594 332.546875 C 421.578125 338.476562 423.3125 344.03125 425.148438 349.914062 C 429.179688 362.851562 433.757812 377.515625 431.621094 400.347656 C 431.582031 400.769531 431.222656 401.089844 430.808594 401.089844 " fill-opacity="1" fill-rule="nonzero"/><path fill="#e7f0ff" d="M 424.933594 390.6875 C 424.589844 390.6875 424.269531 390.46875 424.15625 390.125 C 422.382812 384.757812 418.363281 379.164062 415.308594 375.417969 C 415.019531 375.070312 415.070312 374.554688 415.425781 374.265625 C 415.773438 373.980469 416.289062 374.03125 416.578125 374.382812 C 419.722656 378.234375 423.863281 384.003906 425.714844 389.609375 C 425.855469 390.039062 425.625 390.503906 425.195312 390.648438 C 425.105469 390.675781 425.019531 390.6875 424.933594 390.6875 " fill-opacity="1" fill-rule="nonzero"/><path fill="#e7f0ff" d="M 449.234375 386.003906 C 449.1875 386.003906 449.144531 386 449.097656 385.992188 C 448.648438 385.917969 448.347656 385.492188 448.421875 385.046875 C 452.1875 362.792969 450.882812 328.519531 450.871094 328.171875 C 450.851562 327.722656 451.207031 327.339844 451.660156 327.320312 C 451.667969 327.320312 451.679688 327.320312 451.691406 327.320312 C 452.128906 327.320312 452.488281 327.667969 452.507812 328.109375 C 452.523438 328.453125 453.832031 362.898438 450.039062 385.320312 C 449.976562 385.722656 449.628906 386.003906 449.234375 386.003906 " fill-opacity="1" fill-rule="nonzero"/><path fill="#e7f0ff" d="M 416.199219 404.464844 C 415.75 404.464844 415.382812 404.105469 415.382812 403.65625 C 415.113281 376.074219 393.101562 363.980469 392.882812 363.859375 C 392.484375 363.648438 392.332031 363.148438 392.546875 362.75 C 392.757812 362.347656 393.257812 362.199219 393.65625 362.414062 C 393.886719 362.539062 416.746094 375.097656 417.019531 403.636719 C 417.023438 404.089844 416.660156 404.460938 416.210938 404.464844 C 416.207031 404.464844 416.203125 404.464844 416.199219 404.464844 " fill-opacity="1" fill-rule="nonzero"/><path fill="#e7f0ff" d="M 419.203125 352.523438 C 418.957031 352.523438 418.71875 352.414062 418.554688 352.207031 C 412.515625 344.441406 409.914062 334.28125 409.808594 333.851562 C 409.695312 333.410156 409.964844 332.96875 410.402344 332.855469 C 410.839844 332.746094 411.285156 333.011719 411.398438 333.453125 C 411.421875 333.554688 414.023438 343.714844 419.851562 351.199219 C 420.128906 351.554688 420.0625 352.070312 419.703125 352.347656 C 419.558594 352.464844 419.378906 352.523438 419.203125 352.523438 " fill-opacity="1" fill-rule="nonzero"/><path fill="#f96f5f" d="M 447.625 457.933594 L 411.523438 457.933594 C 407.023438 457.933594 403.367188 454.28125 403.367188 449.773438 L 403.367188 408.332031 L 455.785156 408.332031 L 455.785156 449.773438 C 455.785156 454.28125 452.132812 457.933594 447.625 457.933594 " fill-opacity="1" fill-rule="nonzero"/><path fill="#ffffff" d="M 450.644531 417.90625 L 408.507812 417.90625 C 408.054688 417.90625 407.6875 417.542969 407.6875 417.085938 C 407.6875 416.632812 408.054688 416.265625 408.507812 416.265625 L 450.644531 416.265625 C 451.101562 416.265625 451.46875 416.632812 451.46875 417.085938 C 451.46875 417.542969 451.101562 417.90625 450.644531 417.90625 " fill-opacity="1" fill-rule="nonzero"/><path fill="#6ce5e8" d="M 456.503906 94.859375 C 460.675781 94.859375 463.597656 98.242188 463.035156 102.414062 L 455.992188 154.402344 C 455.425781 158.578125 451.585938 161.957031 447.414062 161.957031 L 327.511719 161.957031 C 323.335938 161.957031 320.414062 158.578125 320.976562 154.402344 L 328.023438 102.414062 C 328.582031 98.242188 332.429688 94.859375 336.601562 94.859375 L 456.503906 94.859375 " fill-opacity="1" fill-rule="nonzero"/><path fill="#0a2550" d="M 325.21875 123.960938 C 325.179688 123.960938 325.140625 123.957031 325.105469 123.949219 C 324.65625 123.890625 324.339844 123.476562 324.402344 123.027344 L 327.207031 102.304688 C 327.824219 97.746094 332.039062 94.039062 336.601562 94.039062 L 396.582031 94.703125 C 397.039062 94.707031 397.398438 95.078125 397.394531 95.53125 C 397.390625 95.980469 397.027344 96.339844 396.578125 96.339844 C 396.574219 96.339844 396.570312 96.339844 396.566406 96.339844 L 336.59375 95.679688 C 332.828125 95.679688 329.34375 98.75 328.832031 102.523438 L 326.027344 123.25 C 325.972656 123.660156 325.621094 123.960938 325.21875 123.960938 " fill-opacity="1" fill-rule="nonzero"/><path fill="#0a2550" d="M 367.730469 164.175781 C 367.285156 164.175781 366.917969 163.816406 366.914062 163.367188 C 366.902344 162.914062 367.265625 162.542969 367.714844 162.535156 L 447.402344 161.136719 C 451.1875 161.132812 454.667969 158.066406 455.183594 154.292969 L 462.226562 102.304688 C 462.46875 100.511719 462 98.835938 460.90625 97.589844 C 459.832031 96.355469 458.273438 95.679688 456.507812 95.679688 L 428.652344 95.613281 C 428.199219 95.609375 427.832031 95.242188 427.832031 94.792969 C 427.835938 94.335938 428.203125 93.972656 428.65625 93.972656 L 456.511719 94.039062 C 458.75 94.039062 460.753906 94.917969 462.144531 96.507812 C 463.550781 98.117188 464.15625 100.257812 463.847656 102.523438 L 456.804688 154.511719 C 456.1875 159.070312 451.976562 162.777344 447.417969 162.777344 L 367.742188 164.175781 C 367.742188 164.175781 367.734375 164.175781 367.730469 164.175781 " fill-opacity="1" fill-rule="nonzero"/><path fill="#6ce5e8" d="M 434.917969 117.386719 L 366.054688 117.386719 C 364.101562 117.386719 362.734375 115.804688 362.996094 113.847656 C 363.261719 111.898438 365.0625 110.316406 367.011719 110.316406 L 435.875 110.316406 C 437.832031 110.316406 439.199219 111.898438 438.933594 113.847656 C 438.667969 115.804688 436.871094 117.386719 434.917969 117.386719 " fill-opacity="1" fill-rule="nonzero"/><path fill="#e7f0ff" d="M 356.09375 113.851562 C 355.832031 115.804688 354.035156 117.386719 352.082031 117.386719 C 350.128906 117.386719 348.757812 115.804688 349.023438 113.851562 C 349.289062 111.898438 351.085938 110.316406 353.042969 110.316406 C 354.992188 110.316406 356.363281 111.898438 356.09375 113.851562 " fill-opacity="1" fill-rule="nonzero"/><path fill="#e7f0ff" d="M 432.855469 132.613281 L 363.992188 132.613281 C 362.039062 132.613281 360.667969 131.03125 360.933594 129.078125 C 361.199219 127.128906 362.996094 125.542969 364.949219 125.542969 L 433.8125 125.542969 C 435.769531 125.542969 437.132812 127.128906 436.867188 129.078125 C 436.605469 131.03125 434.808594 132.613281 432.855469 132.613281 " fill-opacity="1" fill-rule="nonzero"/><path fill="#e7f0ff" d="M 354.03125 129.082031 C 353.769531 131.035156 351.972656 132.617188 350.015625 132.617188 C 348.0625 132.617188 346.695312 131.035156 346.964844 129.082031 C 347.226562 127.128906 349.023438 125.546875 350.976562 125.546875 C 352.929688 125.546875 354.296875 127.128906 354.03125 129.082031 " fill-opacity="1" fill-rule="nonzero"/><path fill="#e7f0ff" d="M 430.792969 147.847656 L 361.925781 147.847656 C 359.972656 147.847656 358.605469 146.265625 358.871094 144.3125 C 359.132812 142.355469 360.929688 140.777344 362.886719 140.777344 L 431.753906 140.777344 C 433.699219 140.777344 435.070312 142.355469 434.808594 144.3125 C 434.542969 146.265625 432.742188 147.847656 430.792969 147.847656 " fill-opacity="1" fill-rule="nonzero"/><path fill="#e7f0ff" d="M 351.972656 144.308594 C 351.710938 146.261719 349.914062 147.84375 347.957031 147.84375 C 346.003906 147.84375 344.636719 146.261719 344.902344 144.308594 C 345.164062 142.355469 346.960938 140.773438 348.917969 140.773438 C 350.871094 140.773438 352.238281 142.355469 351.972656 144.308594 " fill-opacity="1" fill-rule="nonzero"/><path fill="#ffffff" d="M 212.480469 47.527344 C 216.644531 47.527344 219.558594 50.898438 218.996094 55.0625 L 211.96875 106.910156 C 211.40625 111.074219 207.578125 114.445312 203.414062 114.445312 L 51.9375 114.445312 L 48.820312 128.511719 L 40.214844 114.445312 L 17.085938 114.445312 C 12.925781 114.445312 10.007812 111.074219 10.574219 106.910156 L 17.597656 55.0625 C 18.160156 50.898438 21.992188 47.527344 26.152344 47.527344 L 212.480469 47.527344 " fill-opacity="1" fill-rule="nonzero"/><path fill="#0a2550" d="M 203.417969 115.265625 L 189.160156 115.265625 C 188.710938 115.265625 188.34375 114.894531 188.34375 114.441406 C 188.34375 113.992188 188.710938 113.625 189.160156 113.625 L 203.417969 113.625 C 207.175781 113.625 210.648438 110.5625 211.160156 106.796875 L 218.183594 54.949219 C 218.425781 53.164062 217.960938 51.492188 216.875 50.246094 C 215.800781 49.019531 214.242188 48.34375 212.484375 48.34375 L 197.875 47.675781 C 197.421875 47.65625 197.070312 47.273438 197.089844 46.820312 C 197.113281 46.363281 197.488281 46.015625 197.945312 46.035156 L 212.519531 46.707031 L 212.523438 46.707031 C 214.726562 46.707031 216.722656 47.578125 218.105469 49.167969 C 219.511719 50.773438 220.117188 52.90625 219.8125 55.167969 L 212.785156 107.019531 C 212.171875 111.566406 207.964844 115.265625 203.417969 115.265625 " fill-opacity="1" fill-rule="nonzero"/><path fill="#0a2550" d="M 49.644531 132.03125 L 39.75 115.265625 L 17.085938 115.265625 C 14.847656 115.265625 12.851562 114.390625 11.460938 112.804688 C 10.058594 111.199219 9.453125 109.066406 9.761719 106.800781 L 16.785156 54.953125 C 17.402344 50.40625 21.605469 46.707031 26.152344 46.707031 L 173.117188 46.039062 C 173.117188 46.039062 173.121094 46.039062 173.121094 46.039062 C 173.574219 46.039062 173.941406 46.402344 173.941406 46.855469 C 173.945312 47.308594 173.578125 47.675781 173.125 47.679688 L 26.15625 48.347656 C 22.394531 48.347656 18.921875 51.410156 18.410156 55.171875 L 11.386719 107.023438 C 11.144531 108.8125 11.609375 110.480469 12.695312 111.722656 C 13.769531 112.949219 15.328125 113.628906 17.085938 113.628906 L 40.683594 113.628906 L 48.804688 127.382812 L 51.25 113.628906 L 110.425781 113.628906 C 110.878906 113.628906 111.246094 113.996094 111.246094 114.445312 C 111.246094 114.898438 110.878906 115.265625 110.425781 115.265625 L 52.625 115.265625 L 49.644531 132.03125 " fill-opacity="1" fill-rule="nonzero"/><path fill="#6ce5e8" d="M 146.097656 69.992188 L 38.164062 69.992188 C 36.609375 69.992188 35.523438 68.414062 35.734375 66.464844 C 35.941406 64.519531 37.371094 62.941406 38.925781 62.941406 L 146.859375 62.941406 C 148.414062 62.941406 149.5 64.519531 149.289062 66.464844 C 149.078125 68.414062 147.652344 69.992188 146.097656 69.992188 " fill-opacity="1" fill-rule="nonzero"/><path fill="#e7f0ff" d="M 173.074219 85.183594 L 35.214844 85.183594 C 33.234375 85.183594 31.84375 83.601562 32.113281 81.65625 C 32.382812 79.707031 34.207031 78.128906 36.1875 78.128906 L 174.046875 78.128906 C 176.027344 78.128906 177.417969 79.707031 177.148438 81.65625 C 176.878906 83.601562 175.054688 85.183594 173.074219 85.183594 " fill-opacity="1" fill-rule="nonzero"/><path fill="#e7f0ff" d="M 193.136719 100.375 L 32.628906 100.375 C 30.320312 100.375 28.699219 98.792969 29.011719 96.847656 C 29.328125 94.898438 31.453125 93.320312 33.757812 93.320312 L 194.269531 93.320312 C 196.578125 93.320312 198.195312 94.898438 197.882812 96.847656 C 197.570312 98.792969 195.445312 100.375 193.136719 100.375 " fill-opacity="1" fill-rule="nonzero"/><path fill="#ffffff" d="M 437.714844 5.054688 C 442.4375 5.054688 445.75 8.882812 445.113281 13.609375 L 437.136719 72.476562 C 436.496094 77.203125 432.144531 81.03125 427.421875 81.03125 L 252.914062 81.03125 C 248.191406 81.03125 244.878906 77.203125 245.519531 72.476562 L 253.492188 13.609375 C 254.132812 8.882812 258.484375 5.054688 263.210938 5.054688 L 437.714844 5.054688 " fill-opacity="1" fill-rule="nonzero"/><path fill="#e7f0ff" d="M 413.269531 30.5625 L 296.5625 30.5625 C 294.351562 30.5625 292.800781 28.769531 293.101562 26.558594 C 293.402344 24.347656 295.433594 22.554688 297.648438 22.554688 L 414.355469 22.554688 C 416.566406 22.554688 418.117188 24.347656 417.816406 26.558594 C 417.515625 28.769531 415.484375 30.5625 413.269531 30.5625 " fill-opacity="1" fill-rule="nonzero"/><path fill="#e7f0ff" d="M 285.285156 26.558594 C 284.988281 28.769531 282.953125 30.5625 280.742188 30.5625 C 278.535156 30.5625 276.980469 28.769531 277.28125 26.558594 C 277.582031 24.347656 279.617188 22.554688 281.828125 22.554688 C 284.039062 22.554688 285.585938 24.347656 285.285156 26.558594 " fill-opacity="1" fill-rule="nonzero"/><path fill="#e7f0ff" d="M 410.933594 47.808594 L 294.226562 47.808594 C 292.015625 47.808594 290.464844 46.015625 290.765625 43.804688 C 291.066406 41.589844 293.101562 39.800781 295.3125 39.800781 L 412.019531 39.800781 C 414.234375 39.800781 415.78125 41.589844 415.480469 43.804688 C 415.183594 46.015625 413.148438 47.808594 410.933594 47.808594 " fill-opacity="1" fill-rule="nonzero"/><path fill="#e7f0ff" d="M 282.953125 43.804688 C 282.652344 46.015625 280.617188 47.808594 278.40625 47.808594 C 276.191406 47.808594 274.644531 46.015625 274.945312 43.804688 C 275.242188 41.589844 277.277344 39.800781 279.492188 39.800781 C 281.703125 39.800781 283.253906 41.589844 282.953125 43.804688 " fill-opacity="1" fill-rule="nonzero"/><path fill="#e7f0ff" d="M 408.597656 65.054688 L 291.890625 65.054688 C 289.675781 65.054688 288.128906 63.261719 288.429688 61.050781 C 288.726562 58.839844 290.765625 57.046875 292.972656 57.046875 L 409.683594 57.046875 C 411.894531 57.046875 413.445312 58.839844 413.144531 61.050781 C 412.84375 63.261719 410.8125 65.054688 408.597656 65.054688 " fill-opacity="1" fill-rule="nonzero"/><path fill="#e7f0ff" d="M 280.613281 61.050781 C 280.316406 63.261719 278.28125 65.054688 276.070312 65.054688 C 273.859375 65.054688 272.3125 63.261719 272.609375 61.050781 C 272.910156 58.839844 274.941406 57.046875 277.15625 57.046875 C 279.367188 57.046875 280.914062 58.839844 280.613281 61.050781 " fill-opacity="1" fill-rule="nonzero"/><path fill="#0a2550" d="M 427.421875 81.851562 L 252.917969 81.851562 C 250.40625 81.851562 248.167969 80.871094 246.613281 79.09375 C 245.042969 77.292969 244.363281 74.90625 244.710938 72.367188 L 249.378906 37.890625 C 249.441406 37.441406 249.855469 37.125 250.300781 37.1875 C 250.75 37.246094 251.066406 37.660156 251.003906 38.105469 L 246.332031 72.585938 C 246.054688 74.652344 246.59375 76.574219 247.847656 78.011719 C 249.085938 79.429688 250.886719 80.210938 252.917969 80.210938 L 427.421875 80.210938 C 431.742188 80.210938 435.738281 76.691406 436.320312 72.367188 L 444.300781 13.5 C 444.578125 11.4375 444.039062 9.507812 442.78125 8.074219 C 441.542969 6.652344 439.746094 5.875 437.714844 5.875 L 263.210938 5.875 C 258.890625 5.875 254.894531 9.390625 254.308594 13.71875 L 253.882812 16.863281 C 253.824219 17.3125 253.410156 17.625 252.960938 17.566406 C 252.511719 17.503906 252.195312 17.089844 252.257812 16.640625 L 252.683594 13.5 C 253.375 8.390625 258.097656 4.234375 263.210938 4.234375 L 437.714844 4.234375 C 440.226562 4.234375 442.464844 5.214844 444.019531 6.992188 C 445.589844 8.792969 446.265625 11.183594 445.921875 13.71875 L 437.949219 72.585938 C 437.253906 77.695312 432.535156 81.851562 427.421875 81.851562 " fill-opacity="1" fill-rule="nonzero"/><path fill="#0a2550" d="M 373.191406 264.878906 C 373.015625 274.257812 371.445312 286.921875 365.058594 294.941406 C 361.378906 299.5625 356.578125 302.21875 350.800781 302.824219 C 324.859375 305.542969 310.621094 274.035156 310.03125 272.691406 C 308.960938 270.273438 310.054688 267.445312 312.472656 266.375 C 314.890625 265.308594 317.71875 266.402344 318.785156 268.816406 C 318.902344 269.078125 330.808594 295.289062 349.804688 293.296875 C 352.976562 292.964844 355.519531 291.554688 357.566406 288.976562 C 364.589844 280.160156 363.988281 260.636719 363.164062 253.863281 C 362.84375 251.238281 364.714844 248.851562 367.339844 248.527344 C 369.964844 248.210938 372.351562 250.082031 372.667969 252.703125 C 372.730469 253.183594 373.3125 258.199219 373.191406 264.878906 " fill-opacity="1" fill-rule="nonzero"/><path fill="#0a2550" d="M 378.894531 231.914062 L 378.722656 241.109375 C 378.632812 246.132812 374.785156 250.226562 369.777344 250.632812 L 366.574219 250.894531 C 363.835938 251.117188 361.117188 250.167969 359.117188 248.289062 C 357.117188 246.40625 355.996094 243.753906 356.046875 241.011719 L 356.320312 226.34375 C 356.367188 223.703125 358.550781 221.597656 361.195312 221.644531 C 363.839844 221.691406 365.941406 223.878906 365.890625 226.519531 L 365.621094 241.1875 C 365.617188 241.210938 365.617188 241.257812 365.671875 241.308594 C 365.722656 241.355469 365.769531 241.351562 365.796875 241.351562 L 369 241.089844 C 369.085938 241.085938 369.148438 241.015625 369.148438 240.933594 L 369.320312 231.738281 C 369.367188 229.09375 371.550781 226.992188 374.199219 227.039062 C 376.839844 227.089844 378.945312 229.269531 378.894531 231.914062 " fill-opacity="1" fill-rule="nonzero"/><path fill="#0a2550" d="M 210.996094 316.84375 C 211.019531 316.839844 211.046875 316.832031 211.074219 316.828125 C 219.296875 315.144531 226.757812 308.480469 233.261719 297.027344 C 237.816406 289 240.234375 281.480469 240.332031 281.164062 C 241.132812 278.644531 239.742188 275.953125 237.222656 275.148438 C 234.703125 274.351562 232.007812 275.742188 231.207031 278.261719 C 228.859375 285.605469 220.320312 305.160156 209.152344 307.445312 C 209.132812 307.449219 209.117188 307.453125 209.101562 307.457031 C 205.554688 308.171875 202.59375 307.632812 200.050781 305.804688 C 193.957031 301.429688 191.417969 290.738281 190.953125 286.988281 C 190.628906 284.363281 188.238281 282.5 185.613281 282.824219 C 182.992188 283.148438 181.125 285.539062 181.449219 288.164062 C 181.535156 288.886719 183.757812 305.890625 194.460938 313.582031 C 199.222656 317 204.785156 318.097656 210.996094 316.84375 " fill-opacity="1" fill-rule="nonzero"/><path fill="#0a2550" d="M 196.996094 269.050781 L 196.824219 278.242188 C 196.734375 283.265625 192.886719 287.359375 187.878906 287.769531 L 184.675781 288.027344 C 181.9375 288.25 179.21875 287.300781 177.21875 285.417969 C 175.214844 283.542969 174.097656 280.886719 174.148438 278.144531 L 174.421875 263.476562 C 174.46875 260.832031 176.652344 258.730469 179.296875 258.78125 C 181.941406 258.828125 184.042969 261.011719 183.992188 263.65625 L 183.722656 278.320312 C 183.722656 278.347656 183.722656 278.390625 183.773438 278.441406 C 183.824219 278.492188 183.871094 278.484375 183.898438 278.484375 L 187.105469 278.222656 C 187.1875 278.21875 187.25 278.148438 187.25 278.066406 L 187.421875 268.871094 C 187.472656 266.226562 189.65625 264.125 192.296875 264.171875 C 194.941406 264.222656 197.046875 266.402344 196.996094 269.050781 " fill-opacity="1" fill-rule="nonzero"/><path fill="#ffffff" d="M 199.191406 206.863281 L 209.3125 206.863281 L 209.3125 178.550781 L 199.191406 178.550781 C 196.757812 178.550781 194.785156 180.523438 194.785156 182.957031 L 194.785156 202.460938 C 194.785156 204.894531 196.757812 206.863281 199.191406 206.863281 " fill-opacity="1" fill-rule="nonzero"/><path fill="#0a2550" d="M 208.492188 179.378906 C 201.34375 179.617188 195.605469 185.507812 195.605469 192.707031 C 195.605469 199.914062 201.34375 205.800781 208.492188 206.039062 Z M 209.3125 207.6875 L 208.941406 207.6875 C 200.683594 207.6875 193.964844 200.96875 193.964844 192.707031 C 193.964844 184.449219 200.683594 177.730469 208.941406 177.730469 L 209.3125 177.730469 C 209.765625 177.730469 210.132812 178.097656 210.132812 178.550781 L 210.132812 206.863281 C 210.132812 207.320312 209.765625 207.6875 209.3125 207.6875 " fill-opacity="1" fill-rule="nonzero"/><path fill="#ffffff" d="M 347.273438 206.867188 L 337.152344 206.867188 L 337.152344 178.550781 L 347.273438 178.550781 C 349.710938 178.550781 351.683594 180.523438 351.683594 182.957031 L 351.683594 202.460938 C 351.683594 204.894531 349.710938 206.867188 347.273438 206.867188 " fill-opacity="1" fill-rule="nonzero"/><path fill="#0a2550" d="M 337.976562 179.378906 L 337.976562 206.039062 C 345.125 205.796875 350.863281 199.910156 350.863281 192.707031 C 350.863281 185.503906 345.125 179.613281 337.976562 179.378906 Z M 337.527344 207.683594 L 337.15625 207.683594 C 336.707031 207.683594 336.335938 207.316406 336.335938 206.863281 L 336.335938 178.550781 C 336.335938 178.097656 336.707031 177.730469 337.15625 177.730469 L 337.527344 177.730469 C 345.785156 177.730469 352.503906 184.449219 352.503906 192.707031 C 352.503906 200.96875 345.785156 207.683594 337.527344 207.683594 " fill-opacity="1" fill-rule="nonzero"/><path fill="#ffffff" d="M 341.730469 191.539062 C 341.730469 161.113281 311.0625 129.640625 273.230469 129.640625 C 235.402344 129.640625 204.734375 161.113281 204.734375 191.539062 C 204.734375 221.964844 235.402344 239.820312 273.230469 239.820312 C 311.0625 239.820312 341.730469 221.964844 341.730469 191.539062 " fill-opacity="1" fill-rule="nonzero"/><path fill="#0a2550" d="M 273.234375 130.460938 C 234.496094 130.460938 205.554688 162.707031 205.554688 191.539062 C 205.554688 205.757812 212.367188 217.8125 225.253906 226.40625 C 237.429688 234.527344 254.472656 239 273.234375 239 C 291.996094 239 309.039062 234.527344 321.214844 226.40625 C 334.097656 217.8125 340.910156 205.757812 340.910156 191.539062 C 340.910156 162.707031 311.96875 130.460938 273.234375 130.460938 Z M 273.234375 240.640625 C 254.148438 240.640625 236.785156 236.070312 224.34375 227.773438 C 210.976562 218.859375 203.914062 206.332031 203.914062 191.539062 C 203.914062 176.398438 211.320312 160.746094 224.234375 148.585938 C 237.769531 135.839844 255.171875 128.820312 273.234375 128.820312 C 291.296875 128.820312 308.695312 135.839844 322.230469 148.585938 C 335.144531 160.746094 342.550781 176.398438 342.550781 191.539062 C 342.550781 206.332031 335.488281 218.859375 322.125 227.773438 C 309.679688 236.070312 292.316406 240.640625 273.234375 240.640625 " fill-opacity="1" fill-rule="nonzero"/><path fill="#ffffff" d="M 256.078125 248.960938 L 290.390625 248.960938 C 305.433594 248.960938 317.625 261.15625 317.625 276.195312 C 317.625 286.128906 316.65625 296.042969 314.730469 305.792969 L 309.796875 330.777344 C 306.347656 348.242188 291.035156 360.828125 273.234375 360.828125 C 255.433594 360.828125 240.117188 348.242188 236.671875 330.777344 L 231.738281 305.792969 C 229.8125 296.042969 228.84375 286.128906 228.84375 276.195312 C 228.84375 261.15625 241.035156 248.960938 256.078125 248.960938 " fill-opacity="1" fill-rule="nonzero"/><path fill="#0a2550" d="M 256.078125 249.78125 C 241.511719 249.78125 229.664062 261.632812 229.664062 276.195312 C 229.664062 286.054688 230.632812 295.960938 232.542969 305.632812 L 237.476562 330.621094 C 240.839844 347.648438 255.878906 360.007812 273.234375 360.007812 C 290.589844 360.007812 305.628906 347.648438 308.992188 330.621094 L 313.925781 305.632812 C 315.835938 295.960938 316.804688 286.054688 316.804688 276.195312 C 316.804688 261.632812 304.957031 249.78125 290.390625 249.78125 Z M 273.234375 361.648438 C 255.097656 361.648438 239.382812 348.730469 235.867188 330.9375 L 230.933594 305.949219 C 229.003906 296.175781 228.023438 286.160156 228.023438 276.195312 C 228.023438 260.726562 240.609375 248.140625 256.078125 248.140625 L 290.390625 248.140625 C 305.859375 248.140625 318.445312 260.726562 318.445312 276.195312 C 318.445312 286.160156 317.464844 296.175781 315.535156 305.949219 L 310.601562 330.9375 C 307.089844 348.730469 291.371094 361.648438 273.234375 361.648438 " fill-opacity="1" fill-rule="nonzero"/><path fill="#f96f5f" d="M 273.234375 309.300781 C 283.550781 309.300781 291.910156 300.9375 291.910156 290.621094 L 291.910156 248.960938 L 254.554688 248.960938 L 254.554688 290.621094 C 254.554688 300.9375 262.917969 309.300781 273.234375 309.300781 " fill-opacity="1" fill-rule="nonzero"/><path fill="#0a2550" d="M 291.910156 249.78125 L 254.554688 249.78125 C 254.105469 249.78125 253.734375 249.414062 253.734375 248.960938 C 253.734375 248.507812 254.105469 248.140625 254.554688 248.140625 L 291.910156 248.140625 C 292.367188 248.140625 292.734375 248.507812 292.734375 248.960938 C 292.734375 249.414062 292.367188 249.78125 291.910156 249.78125 " fill-opacity="1" fill-rule="nonzero"/><path fill="#0a2550" d="M 227.183594 182.410156 L 293.144531 182.410156 C 299.996094 182.410156 305.550781 188.394531 305.550781 195.777344 L 305.550781 204.5 C 305.550781 210.132812 302.546875 216.101562 297.363281 217.074219 C 279.082031 220.507812 241.246094 220.507812 222.964844 217.074219 C 217.78125 216.101562 214.773438 210.132812 214.773438 204.5 L 214.773438 195.777344 C 214.773438 188.394531 220.332031 182.410156 227.183594 182.410156 " fill-opacity="1" fill-rule="nonzero"/><path fill="#f96f5f" d="M 275.664062 199.964844 C 275.664062 202.4375 277.523438 204.441406 279.820312 204.441406 C 282.117188 204.441406 283.976562 202.4375 283.976562 199.964844 C 283.976562 197.488281 282.117188 195.484375 279.820312 195.484375 C 277.523438 195.484375 275.664062 197.488281 275.664062 199.964844 " fill-opacity="1" fill-rule="nonzero"/><path fill="#f96f5f" d="M 231.4375 199.964844 C 231.4375 202.4375 233.296875 204.441406 235.59375 204.441406 C 237.890625 204.441406 239.75 202.4375 239.75 199.964844 C 239.75 197.488281 237.890625 195.484375 235.59375 195.484375 C 233.296875 195.484375 231.4375 197.488281 231.4375 199.964844 " fill-opacity="1" fill-rule="nonzero"/><path fill="#ffffff" d="M 74.390625 421.039062 L 73.886719 439.839844 L 67.246094 440.558594 L 63.960938 420.328125 L 74.390625 421.039062 " fill-opacity="1" fill-rule="nonzero"/><path fill="#0a2550" d="M 64.9375 421.214844 L 67.929688 439.65625 L 73.085938 439.101562 L 73.550781 421.808594 Z M 67.246094 441.375 C 66.847656 441.375 66.5 441.089844 66.4375 440.6875 L 63.152344 420.460938 C 63.109375 420.210938 63.1875 419.960938 63.355469 419.773438 C 63.523438 419.589844 63.769531 419.492188 64.019531 419.507812 L 74.445312 420.222656 C 74.882812 420.253906 75.222656 420.625 75.210938 421.0625 L 74.703125 439.859375 C 74.695312 440.273438 74.382812 440.609375 73.972656 440.65625 L 67.335938 441.371094 C 67.304688 441.375 67.273438 441.375 67.246094 441.375 " fill-opacity="1" fill-rule="nonzero"/><path fill="#ffffff" d="M 112.0625 427.210938 L 113.121094 442.183594 L 104.347656 442.902344 L 101.21875 427.210938 L 112.0625 427.210938 " fill-opacity="1" fill-rule="nonzero"/><path fill="#0a2550" d="M 102.21875 428.035156 L 105.011719 442.027344 L 112.246094 441.433594 L 111.296875 428.035156 Z M 104.347656 443.722656 C 103.960938 443.722656 103.621094 443.449219 103.542969 443.0625 L 100.414062 427.375 C 100.363281 427.132812 100.425781 426.882812 100.582031 426.695312 C 100.738281 426.503906 100.972656 426.394531 101.21875 426.394531 L 112.0625 426.394531 C 112.492188 426.394531 112.851562 426.726562 112.882812 427.15625 L 113.941406 442.125 C 113.972656 442.574219 113.636719 442.964844 113.1875 443.003906 L 104.414062 443.71875 C 104.394531 443.722656 104.371094 443.722656 104.347656 443.722656 " fill-opacity="1" fill-rule="nonzero"/><path fill="#f96f5f" d="M 102.003906 449.351562 C 101.394531 448.945312 101.023438 448.265625 101.007812 447.535156 C 100.949219 445.335938 100.941406 440.65625 101.828125 438.898438 C 103.003906 436.566406 107.851562 439.816406 107.851562 439.816406 C 107.851562 439.816406 110.691406 435.882812 112.355469 435.054688 C 113.214844 434.628906 118.25 437.980469 123.324219 442.546875 C 128.886719 447.554688 131.398438 449.152344 132.597656 453.46875 C 133.160156 455.492188 131.671875 457.53125 129.574219 457.683594 C 124.464844 458.046875 114.15625 457.4375 102.003906 449.351562 " fill-opacity="1" fill-rule="nonzero"/><path fill="#0a2550" d="M 103.382812 438.875 C 103.242188 438.875 103.113281 438.890625 102.996094 438.917969 C 102.785156 438.972656 102.65625 439.078125 102.558594 439.269531 C 101.996094 440.386719 101.71875 443.472656 101.824219 447.511719 C 101.839844 447.980469 102.074219 448.410156 102.457031 448.667969 C 114.421875 456.628906 124.542969 457.21875 129.515625 456.863281 C 130.285156 456.808594 130.984375 456.410156 131.433594 455.777344 C 131.867188 455.160156 132.003906 454.398438 131.804688 453.6875 C 130.863281 450.289062 129.085938 448.726562 125.195312 445.304688 C 124.460938 444.65625 123.65625 443.949219 122.777344 443.160156 C 117.640625 438.53125 113.539062 436.007812 112.617188 435.847656 C 111.511719 436.484375 109.539062 438.886719 108.519531 440.296875 C 108.261719 440.65625 107.765625 440.746094 107.398438 440.5 C 106.386719 439.824219 104.527344 438.875 103.382812 438.875 Z M 127.328125 458.582031 C 121.660156 458.582031 112.296875 457.183594 101.550781 450.035156 C 100.722656 449.484375 100.214844 448.554688 100.1875 447.554688 C 100.105469 444.425781 100.195312 440.3125 101.09375 438.53125 C 101.402344 437.921875 101.917969 437.507812 102.582031 437.332031 C 104.210938 436.90625 106.503906 438.054688 107.644531 438.722656 C 108.558594 437.523438 110.5625 435.035156 111.988281 434.320312 C 114.171875 433.234375 123.476562 441.582031 123.875 441.941406 C 124.75 442.726562 125.546875 443.429688 126.277344 444.070312 C 130.167969 447.492188 132.3125 449.378906 133.386719 453.25 C 133.71875 454.4375 133.492188 455.703125 132.773438 456.722656 C 132.042969 457.761719 130.894531 458.410156 129.632812 458.5 C 128.953125 458.546875 128.183594 458.582031 127.328125 458.582031 " fill-opacity="1" fill-rule="nonzero"/><path fill="#0a2550" d="M 124.789062 454.570312 C 119.429688 454.570312 110.828125 453.269531 102.34375 446.496094 C 101.988281 446.214844 101.929688 445.699219 102.214844 445.34375 C 102.496094 444.988281 103.011719 444.929688 103.367188 445.214844 C 116.210938 455.464844 129.6875 452.5 129.824219 452.46875 C 130.261719 452.367188 130.703125 452.640625 130.808594 453.082031 C 130.910156 453.523438 130.636719 453.964844 130.195312 454.066406 C 129.980469 454.117188 127.949219 454.570312 124.789062 454.570312 " fill-opacity="1" fill-rule="nonzero"/><path fill="#f96f5f" d="M 77.011719 444.410156 L 76.914062 434.117188 C 76.914062 434.117188 74.851562 430.996094 72.023438 433.535156 C 72.023438 433.535156 69.40625 429.867188 64.550781 434.4375 C 64.550781 434.4375 57.71875 447.175781 54.695312 454.75 C 53.886719 456.777344 55.332031 459 57.515625 459.050781 C 60.652344 459.125 64.707031 458.953125 66.472656 457.757812 C 69.234375 455.890625 73.957031 450.007812 76.019531 447.355469 C 76.675781 446.515625 77.023438 445.480469 77.011719 444.410156 " fill-opacity="1" fill-rule="nonzero"/><path fill="#0a2550" d="M 65.210938 434.945312 C 64.511719 436.257812 58.273438 447.996094 55.457031 455.054688 C 55.167969 455.773438 55.25 456.554688 55.675781 457.199219 C 56.097656 457.835938 56.773438 458.214844 57.535156 458.230469 C 61.757812 458.328125 64.769531 457.921875 66.011719 457.082031 C 68.699219 455.265625 73.453125 449.328125 75.371094 446.855469 C 75.910156 446.160156 76.199219 445.296875 76.191406 444.417969 L 76.097656 434.398438 C 75.84375 434.089844 75.238281 433.46875 74.457031 433.371094 C 73.859375 433.296875 73.222656 433.558594 72.570312 434.144531 C 72.398438 434.300781 72.164062 434.375 71.933594 434.351562 C 71.699219 434.324219 71.492188 434.203125 71.355469 434.011719 C 71.332031 433.980469 70.65625 433.085938 69.394531 432.972656 C 68.167969 432.867188 66.726562 433.546875 65.210938 434.945312 Z M 58.765625 459.886719 C 58.355469 459.886719 57.929688 459.878906 57.496094 459.867188 C 56.210938 459.839844 55.015625 459.179688 54.304688 458.105469 C 53.589844 457.023438 53.453125 455.652344 53.933594 454.445312 C 56.941406 446.914062 63.761719 434.179688 63.828125 434.050781 C 63.871094 433.972656 63.925781 433.902344 63.988281 433.84375 C 65.933594 432.007812 67.816406 431.167969 69.582031 431.34375 C 70.742188 431.457031 71.582031 431.992188 72.097656 432.433594 C 72.933594 431.867188 73.796875 431.632812 74.675781 431.746094 C 76.464844 431.976562 77.554688 433.597656 77.601562 433.664062 C 77.6875 433.800781 77.734375 433.953125 77.734375 434.109375 L 77.832031 444.402344 C 77.84375 445.648438 77.429688 446.878906 76.667969 447.863281 C 74.222656 451.007812 69.707031 456.5625 66.933594 458.4375 C 65.511719 459.398438 62.765625 459.886719 58.765625 459.886719 " fill-opacity="1" fill-rule="nonzero"/><path fill="#0a2550" d="M 72.027344 439.902344 C 71.574219 439.902344 71.207031 439.535156 71.207031 439.082031 L 71.203125 433.535156 C 71.203125 433.082031 71.570312 432.714844 72.023438 432.714844 C 72.476562 432.714844 72.84375 433.078125 72.84375 433.535156 L 72.847656 439.082031 C 72.847656 439.535156 72.480469 439.902344 72.027344 439.902344 " fill-opacity="1" fill-rule="nonzero"/><path fill="#0a2550" d="M 114.726562 428.0625 C 114.726562 428.0625 117.230469 390.269531 113.121094 356.273438 C 109.015625 322.28125 93.734375 273.734375 93.734375 273.734375 C 93.734375 273.734375 77.296875 272.992188 65.332031 274.597656 C 53.363281 276.207031 48.628906 274.550781 48.628906 274.550781 C 48.628906 274.550781 39.695312 284.78125 40.425781 304.007812 C 41.15625 323.238281 62 404.351562 61.210938 423.386719 C 61.210938 423.386719 68.21875 426.910156 77.296875 425.160156 L 73.535156 315.84375 C 73.535156 315.84375 81.324219 338.347656 84.976562 353.765625 C 87.957031 366.332031 93.128906 374.464844 93.128906 374.464844 C 93.128906 374.464844 92.90625 403.679688 99.613281 427.925781 C 99.613281 427.925781 107.535156 430.40625 114.726562 428.0625 " fill-opacity="1" fill-rule="nonzero"/><path fill="#ffffff" d="M 101.582031 387.824219 C 101.320312 387.824219 101.066406 387.699219 100.90625 387.46875 L 95.167969 379.113281 C 94.910156 378.742188 95.003906 378.230469 95.378906 377.976562 C 95.753906 377.71875 96.261719 377.8125 96.519531 378.1875 L 102.257812 386.539062 C 102.515625 386.914062 102.421875 387.421875 102.046875 387.679688 C 101.90625 387.777344 101.742188 387.824219 101.582031 387.824219 " fill-opacity="1" fill-rule="nonzero"/><path fill="#ffffff" d="M 62.980469 367.511719 C 60.933594 367.511719 58.332031 367.113281 56.15625 365.5 C 55.792969 365.230469 55.714844 364.714844 55.984375 364.351562 C 56.253906 363.988281 56.769531 363.910156 57.132812 364.179688 C 60.71875 366.84375 66.007812 365.550781 66.058594 365.539062 C 66.5 365.425781 66.945312 365.691406 67.054688 366.132812 C 67.167969 366.570312 66.902344 367.015625 66.464844 367.125 C 66.34375 367.160156 64.910156 367.511719 62.980469 367.511719 " fill-opacity="1" fill-rule="nonzero"/><path fill="#ffffff" d="M 154.761719 177.222656 L 159.8125 172.363281 C 159.8125 172.363281 162.1875 174.234375 158.550781 178.625 C 159.542969 178.660156 160.578125 178.726562 162.234375 178.84375 C 163.570312 178.933594 164.894531 178.585938 165.910156 177.6875 C 167.089844 176.640625 168.558594 175.371094 169.101562 175.027344 C 170.070312 174.414062 171.332031 173.449219 172.632812 173.464844 C 172.941406 173.472656 173.246094 173.53125 173.535156 173.621094 C 174.46875 173.910156 174.816406 175.054688 174.222656 175.832031 L 170.65625 180.507812 C 168.777344 182.972656 166.183594 184.75 163.257812 185.582031 L 158.589844 186.910156 C 155.925781 187.671875 153.96875 190.019531 153.636719 192.855469 L 148.820312 231.378906 C 148.3125 235.449219 144.347656 238.148438 140.375 237.128906 L 100.710938 227.953125 L 102.246094 203.917969 L 129.296875 217.421875 C 132.679688 218.984375 136.675781 217.300781 137.925781 213.789062 C 140.601562 206.257812 145.070312 193.96875 148.34375 186.433594 C 149.847656 182.96875 152.039062 179.839844 154.761719 177.222656 " fill-opacity="1" fill-rule="nonzero"/><path fill="#0a2550" d="M 101.574219 227.308594 L 140.558594 236.328125 C 142.246094 236.761719 144.011719 236.449219 145.433594 235.484375 C 146.855469 234.515625 147.792969 232.984375 148.007812 231.277344 L 152.824219 192.753906 C 153.195312 189.582031 155.367188 186.976562 158.363281 186.125 L 163.03125 184.792969 C 165.808594 184.003906 168.21875 182.347656 170.007812 180.007812 L 173.570312 175.335938 C 173.746094 175.105469 173.695312 174.871094 173.667969 174.777344 C 173.632812 174.671875 173.539062 174.480469 173.292969 174.402344 C 173.050781 174.328125 172.824219 174.289062 172.621094 174.285156 C 171.753906 174.28125 170.808594 174.894531 169.972656 175.4375 C 169.824219 175.535156 169.679688 175.628906 169.542969 175.71875 C 169.316406 175.859375 168.613281 176.386719 166.453125 178.300781 C 165.335938 179.292969 163.816406 179.777344 162.175781 179.660156 C 160.515625 179.542969 159.492188 179.476562 158.523438 179.441406 C 158.210938 179.433594 157.933594 179.246094 157.804688 178.960938 C 157.675781 178.675781 157.722656 178.34375 157.921875 178.101562 C 159.828125 175.800781 159.890625 174.382812 159.664062 173.644531 L 155.332031 177.8125 C 152.65625 180.386719 150.554688 183.398438 149.09375 186.761719 C 145.769531 194.414062 141.152344 207.148438 138.695312 214.0625 C 138.023438 215.957031 136.578125 217.488281 134.730469 218.265625 C 132.878906 219.042969 130.773438 219.003906 128.953125 218.164062 L 102.988281 205.203125 Z M 142.0625 238.164062 C 141.429688 238.164062 140.792969 238.082031 140.167969 237.921875 L 100.527344 228.753906 C 100.136719 228.664062 99.867188 228.300781 99.894531 227.898438 L 101.429688 203.863281 C 101.445312 203.589844 101.597656 203.34375 101.835938 203.207031 C 102.078125 203.070312 102.367188 203.058594 102.613281 203.183594 L 129.660156 216.6875 C 131.0625 217.332031 132.644531 217.359375 134.09375 216.753906 C 135.539062 216.144531 136.625 214.992188 137.152344 213.511719 C 139.613281 206.582031 144.246094 193.804688 147.589844 186.105469 C 149.140625 182.542969 151.359375 179.351562 154.195312 176.628906 L 159.246094 171.773438 C 159.539062 171.488281 160 171.464844 160.320312 171.71875 C 160.414062 171.792969 161.226562 172.46875 161.371094 173.851562 C 161.5 175.066406 161.082031 176.417969 160.125 177.878906 C 160.730469 177.914062 161.425781 177.960938 162.292969 178.023438 C 163.484375 178.105469 164.578125 177.769531 165.363281 177.074219 C 167.945312 174.785156 168.488281 174.445312 168.667969 174.332031 C 168.796875 174.246094 168.933594 174.160156 169.074219 174.066406 C 170.054688 173.425781 171.257812 172.625 172.644531 172.644531 C 173.003906 172.648438 173.386719 172.714844 173.777344 172.835938 C 174.464844 173.050781 175.007812 173.589844 175.230469 174.28125 C 175.453125 174.980469 175.320312 175.746094 174.875 176.332031 L 171.308594 181.003906 C 169.308594 183.628906 166.601562 185.484375 163.480469 186.371094 L 158.8125 187.699219 C 156.457031 188.371094 154.746094 190.429688 154.453125 192.949219 L 149.632812 231.480469 C 149.363281 233.652344 148.167969 235.605469 146.359375 236.839844 C 145.078125 237.710938 143.582031 238.164062 142.0625 238.164062 " fill-opacity="1" fill-rule="nonzero"/><path fill="#f96f5f" d="M 42.164062 217.488281 C 43.816406 208.464844 47.214844 202.347656 58.804688 197.429688 C 65.148438 194.738281 72.886719 194.164062 84.582031 195.292969 C 93.140625 196.117188 114.988281 203.730469 123.683594 211.875 C 124.242188 212.398438 112.664062 233.660156 112.664062 233.660156 L 105.644531 232.746094 L 107.175781 277.15625 C 107.265625 279.730469 105.753906 282.097656 103.375 283.085938 C 97.808594 285.394531 84.984375 287.433594 57.007812 280.484375 C 57.007812 280.484375 44.527344 275.496094 40.226562 294.839844 C 40.226562 294.839844 31.304688 293.746094 31.402344 284.046875 C 31.476562 276.855469 38.519531 237.4375 42.164062 217.488281 " fill-opacity="1" fill-rule="nonzero"/><path fill="#e7f0ff" d="M 54.0625 236.539062 L 51.03125 236.539062 C 50.578125 236.539062 50.210938 236.171875 50.210938 235.71875 C 50.210938 235.265625 50.578125 234.898438 51.03125 234.898438 L 53.492188 234.898438 L 57.980469 222.832031 C 58.140625 222.410156 58.613281 222.191406 59.035156 222.347656 C 59.460938 222.507812 59.675781 222.980469 59.519531 223.402344 L 54.832031 236.003906 C 54.710938 236.328125 54.40625 236.539062 54.0625 236.539062 " fill-opacity="1" fill-rule="nonzero"/><path fill="#f96f5f" d="M 47.875 235.226562 C 47.875 235.226562 27.195312 235.140625 27.191406 234.917969 C 27.167969 234.179688 34.882812 203.628906 63.554688 195.9375 L 47.875 235.226562 " fill-opacity="1" fill-rule="nonzero"/><path fill="#ffffff" d="M 49.59375 235.117188 C 49.59375 235.117188 36.5 267.71875 35.4375 269.972656 C 35.4375 269.972656 30.054688 281.714844 31.316406 287.132812 C 32.109375 290.558594 31.824219 297.167969 27.308594 301.597656 C 26.367188 302.523438 24.78125 301.605469 25.117188 300.328125 C 25.121094 300.308594 25.125 300.285156 25.132812 300.265625 C 25.648438 298.453125 26.710938 296.089844 26.710938 296.089844 C 26.710938 296.089844 23.921875 296.582031 21.386719 299.371094 C 18.847656 302.15625 13.332031 307.316406 11.816406 306.144531 C 9.21875 304.128906 8.859375 293.851562 19.074219 285.5625 C 21.601562 283.515625 22.5 282.058594 23.097656 279.261719 C 23.097656 279.261719 26.148438 259.992188 28.742188 247.804688 C 29.425781 244.589844 30.160156 241.25 30.898438 234.8125 L 49.59375 235.117188 " fill-opacity="1" fill-rule="nonzero"/><path fill="#0a2550" d="M 31.625 235.644531 C 30.941406 241.414062 30.269531 244.570312 29.617188 247.625 L 29.542969 247.976562 C 26.984375 260.003906 23.9375 279.199219 23.90625 279.390625 C 23.25 282.46875 22.246094 284.050781 19.59375 286.203125 C 11.617188 292.671875 11.066406 299.578125 11.089844 301.542969 C 11.117188 303.777344 11.769531 305.066406 12.320312 305.492188 C 13.117188 305.792969 17.078125 302.886719 20.78125 298.816406 C 23.472656 295.855469 26.445312 295.304688 26.570312 295.28125 C 26.871094 295.230469 27.171875 295.347656 27.359375 295.585938 C 27.546875 295.828125 27.585938 296.148438 27.460938 296.425781 C 27.449219 296.449219 26.414062 298.757812 25.921875 300.492188 C 25.824219 300.855469 26.042969 301.023438 26.140625 301.078125 C 26.242188 301.136719 26.496094 301.246094 26.734375 301.011719 C 31.21875 296.613281 31.167969 290.128906 30.515625 287.316406 C 29.207031 281.691406 34.46875 270.121094 34.691406 269.628906 C 35.625 267.652344 46.085938 241.640625 48.386719 235.917969 Z M 12.324219 307.109375 C 11.941406 307.109375 11.597656 307.007812 11.316406 306.789062 C 10.175781 305.90625 9.476562 303.953125 9.449219 301.558594 C 9.425781 299.410156 10.011719 291.859375 18.558594 284.929688 C 20.894531 283.03125 21.734375 281.722656 22.292969 279.089844 C 22.316406 278.941406 25.371094 259.703125 27.9375 247.632812 L 28.011719 247.285156 C 28.683594 244.136719 29.375 240.882812 30.082031 234.71875 C 30.132812 234.296875 30.492188 233.972656 30.910156 233.992188 L 49.605469 234.296875 C 49.878906 234.304688 50.128906 234.441406 50.277344 234.664062 C 50.425781 234.890625 50.453125 235.175781 50.355469 235.425781 C 49.820312 236.757812 37.238281 268.074219 36.179688 270.324219 C 36.132812 270.429688 30.933594 281.863281 32.113281 286.949219 C 32.839844 290.070312 32.886719 297.273438 27.882812 302.183594 C 27.191406 302.859375 26.160156 302.988281 25.320312 302.496094 C 24.476562 302.007812 24.078125 301.050781 24.324219 300.121094 C 24.324219 300.117188 24.335938 300.066406 24.335938 300.066406 C 24.578125 299.214844 24.925781 298.269531 25.238281 297.480469 C 24.320312 297.921875 23.125 298.675781 21.992188 299.921875 C 20.796875 301.234375 15.285156 307.109375 12.324219 307.109375 " fill-opacity="1" fill-rule="nonzero"/><path fill="#0a2550" d="M 71.851562 150.203125 C 67.523438 153.320312 69.726562 156.386719 63.941406 163.820312 C 59.691406 169.28125 56.308594 170.445312 56.167969 174.203125 C 56.035156 177.589844 58.644531 180.207031 60.367188 181.933594 C 68.183594 189.78125 79.695312 189.789062 86.761719 189.792969 C 92.480469 189.800781 100.324219 189.804688 101.636719 186.316406 C 102.933594 182.867188 96.367188 179.980469 96.246094 172.992188 C 96.148438 167.371094 100.34375 166.085938 99.769531 161.070312 C 99.023438 154.578125 91.316406 150.769531 90.078125 150.160156 C 85.121094 147.707031 77.183594 146.367188 71.851562 150.203125 " fill-opacity="1" fill-rule="nonzero"/><path fill="#0a2550" d="M 76.625 149.9375 C 76.625 149.9375 80.097656 139.515625 71.125 138.097656 C 62.152344 136.683594 65.371094 148.460938 70.796875 152.097656 C 76.226562 155.730469 76.625 149.9375 76.625 149.9375 " fill-opacity="1" fill-rule="nonzero"/><path fill="#ffffff" d="M 71.085938 194.734375 L 78.046875 176.648438 C 78.046875 176.648438 78.425781 175.625 78.039062 175.234375 C 77.015625 174.207031 75.375 172.128906 75.828125 169.742188 C 76.058594 168.546875 76.90625 166.796875 78.070312 166.746094 C 78.890625 166.707031 79.828125 167.515625 80.421875 168.910156 C 80.738281 169.648438 81.757812 169.746094 82.199219 169.074219 C 82.207031 169.070312 82.210938 169.0625 82.214844 169.054688 C 82.65625 168.386719 83.082031 167.636719 83.265625 167.007812 C 83.386719 166.589844 83.769531 166.300781 84.203125 166.292969 C 93.117188 166.125 88.550781 155.414062 94.3125 156.949219 C 94.53125 157.007812 94.8125 157.207031 94.9375 157.398438 C 95.722656 158.574219 96.296875 159.109375 96.921875 160.292969 C 98.234375 162.777344 98.1875 168.621094 100.75 171.183594 C 101.042969 171.480469 101.167969 171.921875 101.007812 172.308594 C 100.597656 173.289062 99.691406 173.417969 98.945312 173.820312 C 98.644531 173.980469 98.460938 174.304688 98.453125 174.644531 C 98.414062 176.058594 97.945312 179.335938 97.769531 181.851562 C 97.65625 183.425781 96.34375 184.636719 94.765625 184.636719 C 93.511719 184.636719 92.199219 184.488281 90.824219 184.179688 C 90.550781 184.117188 90.265625 184.164062 90.035156 184.316406 C 88.984375 185.011719 87.898438 192.84375 87.382812 197.113281 C 87.164062 198.902344 85.785156 200.332031 84 200.59375 C 83.429688 200.679688 80.9375 201.144531 78.699219 201.207031 C 71.640625 201.414062 70.097656 197.296875 71.085938 194.734375 " fill-opacity="1" fill-rule="nonzero"/><path fill="#0a2550" d="M 71.085938 194.734375 L 71.089844 194.734375 Z M 78.125 167.5625 C 78.121094 167.5625 78.113281 167.5625 78.109375 167.5625 C 77.585938 167.585938 76.855469 168.742188 76.632812 169.898438 C 76.25 171.914062 77.710938 173.742188 78.617188 174.65625 C 79.324219 175.363281 78.949219 176.578125 78.816406 176.9375 L 71.851562 195.027344 C 71.449219 196.070312 71.609375 197.246094 72.273438 198.1875 C 73.339844 199.695312 75.613281 200.476562 78.675781 200.386719 C 80.519531 200.335938 82.597656 199.992188 83.484375 199.847656 C 83.65625 199.820312 83.792969 199.796875 83.882812 199.785156 C 85.289062 199.574219 86.394531 198.4375 86.566406 197.015625 C 88.070312 184.628906 89.089844 183.957031 89.582031 183.632812 C 90 183.355469 90.503906 183.265625 91.003906 183.378906 C 92.285156 183.667969 93.550781 183.816406 94.765625 183.816406 C 94.765625 183.816406 94.769531 183.816406 94.769531 183.816406 C 95.914062 183.816406 96.871094 182.929688 96.949219 181.796875 C 97.035156 180.574219 97.191406 179.160156 97.328125 177.910156 C 97.476562 176.582031 97.613281 175.328125 97.632812 174.625 C 97.648438 173.980469 98.003906 173.398438 98.558594 173.097656 C 98.757812 172.988281 98.972656 172.898438 99.183594 172.808594 C 99.765625 172.5625 100.078125 172.410156 100.25 171.992188 C 100.273438 171.933594 100.238281 171.835938 100.167969 171.765625 C 98.421875 170.015625 97.800781 167.054688 97.257812 164.441406 C 96.941406 162.945312 96.648438 161.527344 96.195312 160.675781 C 95.84375 160.007812 95.503906 159.558594 95.113281 159.042969 C 94.859375 158.707031 94.574219 158.328125 94.257812 157.851562 C 94.230469 157.820312 94.136719 157.753906 94.089844 157.738281 C 93.453125 157.566406 92.984375 157.574219 92.660156 157.765625 C 92.046875 158.121094 91.738281 159.285156 91.414062 160.515625 C 90.691406 163.257812 89.699219 167.007812 84.21875 167.113281 C 84.144531 167.113281 84.074219 167.164062 84.054688 167.234375 C 83.875 167.855469 83.484375 168.621094 82.898438 169.503906 C 82.511719 170.089844 81.863281 170.398438 81.191406 170.339844 C 80.515625 170.277344 79.933594 169.851562 79.667969 169.234375 C 79.203125 168.140625 78.53125 167.5625 78.125 167.5625 Z M 78.191406 202.035156 C 73.90625 202.035156 71.882812 200.472656 70.933594 199.136719 C 69.953125 197.746094 69.722656 195.992188 70.320312 194.441406 L 77.28125 176.355469 C 77.351562 176.160156 77.402344 175.882812 77.390625 175.746094 C 76.253906 174.585938 74.507812 172.296875 75.023438 169.589844 C 75.296875 168.15625 76.324219 166 78.035156 165.925781 C 79.257812 165.871094 80.457031 166.890625 81.175781 168.589844 C 81.214844 168.675781 81.285156 168.703125 81.339844 168.707031 C 81.394531 168.707031 81.464844 168.699219 81.519531 168.621094 C 82.148438 167.671875 82.386719 167.09375 82.476562 166.78125 C 82.695312 166.023438 83.398438 165.488281 84.1875 165.472656 C 88.429688 165.394531 89.140625 162.699219 89.828125 160.097656 C 90.242188 158.527344 90.632812 157.042969 91.835938 156.34375 C 92.554688 155.925781 93.433594 155.863281 94.523438 156.15625 C 94.933594 156.265625 95.386719 156.589844 95.621094 156.941406 C 95.910156 157.378906 96.171875 157.722656 96.421875 158.050781 C 96.839844 158.601562 97.230469 159.125 97.648438 159.910156 C 98.207031 160.96875 98.523438 162.492188 98.863281 164.105469 C 99.359375 166.496094 99.925781 169.199219 101.328125 170.609375 C 101.875 171.152344 102.046875 171.945312 101.765625 172.621094 C 101.328125 173.679688 100.460938 174.046875 99.828125 174.316406 C 99.660156 174.386719 99.492188 174.460938 99.332031 174.542969 C 99.296875 174.5625 99.273438 174.613281 99.273438 174.667969 C 99.25 175.4375 99.117188 176.667969 98.957031 178.09375 C 98.824219 179.324219 98.667969 180.722656 98.585938 181.910156 C 98.445312 183.898438 96.769531 185.457031 94.769531 185.457031 C 94.769531 185.457031 94.765625 185.457031 94.765625 185.457031 C 93.429688 185.457031 92.042969 185.296875 90.640625 184.976562 C 90.613281 184.972656 90.5625 184.964844 90.515625 184.984375 C 90.054688 185.574219 89.179688 189.101562 88.195312 197.210938 C 87.933594 199.367188 86.257812 201.089844 84.121094 201.40625 C 84.039062 201.417969 83.914062 201.441406 83.75 201.464844 C 82.832031 201.617188 80.679688 201.972656 78.722656 202.027344 C 78.539062 202.03125 78.363281 202.035156 78.191406 202.035156 " fill-opacity="1" fill-rule="nonzero"/><path fill="#0a2550" d="M 90.824219 184.996094 C 90.769531 184.996094 90.714844 184.992188 90.65625 184.980469 C 86.046875 184.035156 83.242188 180.632812 83.125 180.492188 C 82.839844 180.136719 82.890625 179.621094 83.242188 179.335938 C 83.59375 179.050781 84.109375 179.105469 84.394531 179.453125 C 84.421875 179.484375 86.964844 182.550781 90.988281 183.375 C 91.429688 183.464844 91.71875 183.898438 91.625 184.34375 C 91.546875 184.730469 91.203125 184.996094 90.824219 184.996094 " fill-opacity="1" fill-rule="nonzero"/><path fill="#0a2550" d="M 43.839844 393.09375 C 43.609375 393.09375 43.375 392.992188 43.214844 392.800781 C 32.917969 380.652344 26.3125 366.292969 23.582031 350.113281 C 23.503906 349.667969 23.808594 349.242188 24.253906 349.167969 C 24.699219 349.089844 25.125 349.394531 25.199219 349.839844 C 27.878906 365.726562 34.363281 379.820312 44.464844 391.742188 C 44.757812 392.085938 44.714844 392.601562 44.371094 392.894531 C 44.214844 393.027344 44.027344 393.09375 43.839844 393.09375 " fill-opacity="1" fill-rule="nonzero"/><path fill="#0a2550" d="M 39.601562 402.296875 C 39.386719 402.296875 39.167969 402.207031 39.007812 402.039062 C 27.722656 390.15625 14.210938 370.421875 13.9375 343.886719 C 13.929688 343.433594 14.292969 343.0625 14.746094 343.058594 C 15.175781 343.046875 15.570312 343.414062 15.578125 343.871094 C 15.84375 369.871094 29.113281 389.242188 40.195312 400.910156 C 40.507812 401.238281 40.496094 401.757812 40.167969 402.070312 C 40.007812 402.21875 39.804688 402.296875 39.601562 402.296875 " fill-opacity="1" fill-rule="nonzero"/><path fill="#0a2550" d="M 422.976562 260.34375 C 422.890625 260.34375 422.8125 260.332031 422.730469 260.3125 C 422.300781 260.175781 422.058594 259.714844 422.191406 259.285156 C 430.6875 231.621094 430.8125 205.003906 422.550781 180.175781 C 422.40625 179.746094 422.640625 179.285156 423.070312 179.136719 C 423.496094 178.996094 423.960938 179.226562 424.109375 179.65625 C 432.476562 204.816406 432.355469 231.769531 423.753906 259.765625 C 423.648438 260.117188 423.324219 260.34375 422.976562 260.34375 " fill-opacity="1" fill-rule="nonzero"/><path fill="#0a2550" d="M 426.027344 271.402344 C 425.910156 271.402344 425.796875 271.378906 425.6875 271.328125 C 425.273438 271.140625 425.09375 270.652344 425.28125 270.238281 C 437.308594 243.886719 437.691406 218.914062 435.902344 202.601562 C 433.953125 184.90625 429.09375 173.296875 429.042969 173.179688 C 428.867188 172.761719 429.0625 172.28125 429.480469 172.105469 C 429.898438 171.929688 430.378906 172.121094 430.558594 172.539062 C 430.605469 172.65625 435.546875 184.441406 437.523438 202.359375 C 439.351562 218.890625 438.964844 244.203125 426.773438 270.921875 C 426.636719 271.222656 426.335938 271.402344 426.027344 271.402344 " fill-opacity="1" fill-rule="nonzero"/><path fill="#0a2550" d="M 199.003906 234.457031 C 198.550781 234.457031 198.183594 234.089844 198.183594 233.636719 L 198.183594 229.394531 C 198.183594 228.945312 198.550781 228.574219 199.003906 228.574219 C 199.457031 228.574219 199.824219 228.945312 199.824219 229.394531 L 199.824219 233.636719 C 199.824219 234.089844 199.457031 234.457031 199.003906 234.457031 " fill-opacity="1" fill-rule="nonzero"/><path fill="#0a2550" d="M 199.003906 244.335938 C 198.550781 244.335938 198.183594 243.96875 198.183594 243.519531 L 198.183594 239.277344 C 198.183594 238.824219 198.550781 238.457031 199.003906 238.457031 C 199.457031 238.457031 199.824219 238.824219 199.824219 239.277344 L 199.824219 243.519531 C 199.824219 243.96875 199.457031 244.335938 199.003906 244.335938 " fill-opacity="1" fill-rule="nonzero"/><path fill="#0a2550" d="M 196.183594 237.277344 L 191.941406 237.277344 C 191.488281 237.277344 191.121094 236.910156 191.121094 236.457031 C 191.121094 236.003906 191.488281 235.636719 191.941406 235.636719 L 196.183594 235.636719 C 196.636719 235.636719 197.003906 236.003906 197.003906 236.457031 C 197.003906 236.910156 196.636719 237.277344 196.183594 237.277344 " fill-opacity="1" fill-rule="nonzero"/><path fill="#0a2550" d="M 206.0625 237.277344 L 201.824219 237.277344 C 201.371094 237.277344 201 236.910156 201 236.457031 C 201 236.003906 201.371094 235.636719 201.824219 235.636719 L 206.0625 235.636719 C 206.519531 235.636719 206.886719 236.003906 206.886719 236.457031 C 206.886719 236.910156 206.519531 237.277344 206.0625 237.277344 " fill-opacity="1" fill-rule="nonzero"/><path fill="#0a2550" d="M 44.957031 141.671875 C 44.503906 141.671875 44.136719 141.304688 44.136719 140.851562 L 44.136719 136.609375 C 44.136719 136.15625 44.503906 135.789062 44.957031 135.789062 C 45.40625 135.789062 45.773438 136.15625 45.773438 136.609375 L 45.773438 140.851562 C 45.773438 141.304688 45.40625 141.671875 44.957031 141.671875 " fill-opacity="1" fill-rule="nonzero"/><path fill="#0a2550" d="M 44.957031 151.554688 C 44.503906 151.554688 44.136719 151.1875 44.136719 150.734375 L 44.136719 146.492188 C 44.136719 146.039062 44.503906 145.671875 44.957031 145.671875 C 45.410156 145.671875 45.773438 146.039062 45.773438 146.492188 L 45.773438 150.734375 C 45.773438 151.1875 45.410156 151.554688 44.957031 151.554688 " fill-opacity="1" fill-rule="nonzero"/><path fill="#0a2550" d="M 42.136719 144.492188 L 37.894531 144.492188 C 37.441406 144.492188 37.074219 144.125 37.074219 143.671875 C 37.074219 143.21875 37.441406 142.851562 37.894531 142.851562 L 42.136719 142.851562 C 42.589844 142.851562 42.957031 143.21875 42.957031 143.671875 C 42.957031 144.125 42.589844 144.492188 42.136719 144.492188 " fill-opacity="1" fill-rule="nonzero"/><path fill="#0a2550" d="M 52.015625 144.492188 L 47.773438 144.492188 C 47.320312 144.492188 46.957031 144.125 46.957031 143.671875 C 46.957031 143.21875 47.320312 142.851562 47.773438 142.851562 L 52.015625 142.851562 C 52.46875 142.851562 52.835938 143.21875 52.835938 143.671875 C 52.835938 144.125 52.46875 144.492188 52.015625 144.492188 " fill-opacity="1" fill-rule="nonzero"/><path fill="#0a2550" d="M 375.070312 176.914062 C 374.617188 176.914062 374.246094 176.542969 374.246094 176.09375 L 374.246094 171.851562 C 374.246094 171.398438 374.617188 171.03125 375.070312 171.03125 C 375.519531 171.03125 375.886719 171.398438 375.886719 171.851562 L 375.886719 176.09375 C 375.886719 176.542969 375.519531 176.914062 375.070312 176.914062 " fill-opacity="1" fill-rule="nonzero"/><path fill="#0a2550" d="M 375.070312 186.792969 C 374.617188 186.792969 374.246094 186.425781 374.246094 185.972656 L 374.246094 181.730469 C 374.246094 181.28125 374.617188 180.910156 375.070312 180.910156 C 375.519531 180.910156 375.886719 181.28125 375.886719 181.730469 L 375.886719 185.972656 C 375.886719 186.425781 375.519531 186.792969 375.070312 186.792969 " fill-opacity="1" fill-rule="nonzero"/><path fill="#0a2550" d="M 372.25 179.730469 L 368.007812 179.730469 C 367.550781 179.730469 367.183594 179.367188 367.183594 178.910156 C 367.183594 178.460938 367.550781 178.09375 368.007812 178.09375 L 372.25 178.09375 C 372.699219 178.09375 373.066406 178.460938 373.066406 178.910156 C 373.066406 179.367188 372.699219 179.730469 372.25 179.730469 " fill-opacity="1" fill-rule="nonzero"/><path fill="#0a2550" d="M 382.128906 179.730469 L 377.886719 179.730469 C 377.433594 179.730469 377.066406 179.367188 377.066406 178.914062 C 377.066406 178.460938 377.433594 178.09375 377.886719 178.09375 L 382.128906 178.09375 C 382.582031 178.09375 382.949219 178.460938 382.949219 178.914062 C 382.949219 179.367188 382.582031 179.730469 382.128906 179.730469 " fill-opacity="1" fill-rule="nonzero"/><path fill="#ffffff" d="M 343.710938 323.863281 C 341.191406 324.996094 340.046875 328.011719 341.15625 330.585938 C 341.699219 331.84375 342.691406 332.804688 343.945312 333.292969 C 345.171875 333.769531 346.511719 333.734375 347.710938 333.195312 C 350.230469 332.0625 351.378906 329.046875 350.265625 326.472656 C 349.722656 325.214844 348.734375 324.253906 347.476562 323.765625 C 346.253906 323.289062 344.914062 323.324219 343.710938 323.863281 Z M 345.714844 335.265625 C 344.917969 335.265625 344.117188 335.117188 343.351562 334.820312 C 341.683594 334.171875 340.371094 332.898438 339.65625 331.238281 C 338.191406 327.84375 339.707031 323.863281 343.042969 322.367188 C 344.644531 321.648438 346.433594 321.597656 348.070312 322.238281 C 349.738281 322.886719 351.050781 324.160156 351.773438 325.820312 C 353.238281 329.214844 351.714844 333.195312 348.382812 334.691406 C 347.527344 335.074219 346.621094 335.265625 345.714844 335.265625 " fill-opacity="1" fill-rule="nonzero"/><path fill="#0a2550" d="M 123.910156 166.332031 C 123.574219 166.332031 123.261719 166.121094 123.140625 165.789062 C 122.988281 165.359375 123.207031 164.890625 123.632812 164.738281 L 156.285156 153.027344 C 156.710938 152.875 157.183594 153.097656 157.335938 153.523438 C 157.488281 153.949219 157.265625 154.417969 156.839844 154.570312 L 124.1875 166.28125 C 124.097656 166.3125 124.003906 166.332031 123.910156 166.332031 " fill-opacity="1" fill-rule="nonzero"/><path fill="#0a2550" d="M 121.726562 159.769531 C 121.449219 159.769531 121.179688 159.628906 121.023438 159.375 C 120.789062 158.988281 120.910156 158.484375 121.296875 158.246094 L 160.730469 134.1875 C 161.117188 133.953125 161.621094 134.074219 161.855469 134.460938 C 162.09375 134.851562 161.972656 135.355469 161.585938 135.589844 L 122.152344 159.648438 C 122.019531 159.730469 121.871094 159.769531 121.726562 159.769531 " fill-opacity="1" fill-rule="nonzero"/></svg>