<svg xmlns="http://www.w3.org/2000/svg" xmlns:xlink="http://www.w3.org/1999/xlink" width="628" zoomAndPan="magnify" viewBox="0 0 470.87997 470.999988" height="628" preserveAspectRatio="xMidYMid meet" version="1.0"><defs><clipPath id="6178a75f5e"><path d="M 0 18 L 470.761719 18 L 470.761719 470.9375 L 0 470.9375 Z M 0 18 " clip-rule="nonzero"/></clipPath><clipPath id="58cb6088b2"><path d="M 285 423 L 390 423 L 390 470.9375 L 285 470.9375 Z M 285 423 " clip-rule="nonzero"/></clipPath><clipPath id="75e92c3141"><path d="M 285 436 L 308 436 L 308 470.9375 L 285 470.9375 Z M 285 436 " clip-rule="nonzero"/></clipPath><clipPath id="c5322313fa"><path d="M 284 435 L 309 435 L 309 470.9375 L 284 470.9375 Z M 284 435 " clip-rule="nonzero"/></clipPath><clipPath id="ed371b8964"><path d="M 126 140 L 470.761719 140 L 470.761719 470.9375 L 126 470.9375 Z M 126 140 " clip-rule="nonzero"/></clipPath><clipPath id="b12026f9d5"><path d="M 253 141 L 470.761719 141 L 470.761719 469 L 253 469 Z M 253 141 " clip-rule="nonzero"/></clipPath><clipPath id="2ef4ba1b45"><path d="M 126 342 L 362 342 L 362 470.9375 L 126 470.9375 Z M 126 342 " clip-rule="nonzero"/></clipPath><clipPath id="6cc6f00759"><path d="M 289.378906 30.082031 L 443.757812 30.082031 L 443.757812 126.058594 L 289.378906 126.058594 Z M 289.378906 30.082031 " clip-rule="nonzero"/></clipPath></defs><g clip-path="url(#6178a75f5e)"><path fill="#ffffff" d="M 302.265625 20.664062 C 191.546875 0.101562 70.378906 105.484375 64.125 111.367188 C 54.214844 120.703125 0.0078125 161.109375 0.0859375 267.671875 C 0.222656 451.808594 65.804688 465.683594 110.679688 483.023438 C 220.785156 525.578125 447.441406 453.273438 472.488281 302.285156 C 494.027344 172.449219 421.289062 42.761719 302.265625 20.664062 " fill-opacity="1" fill-rule="nonzero"/></g><path fill="#f96f5f" d="M 374.511719 401.207031 L 321.707031 401.207031 L 321.707031 109.859375 L 374.511719 109.859375 L 374.511719 401.207031 " fill-opacity="1" fill-rule="nonzero"/><path fill="#f96f5f" d="M 356.585938 393.375 L 358.308594 118.671875 L 191.664062 44.289062 L 28.367188 121.304688 L 35.628906 397.675781 C 35.726562 401.4375 38.972656 404.425781 42.921875 404.394531 L 347.75 401.859375 C 352.644531 401.820312 356.585938 398.035156 356.585938 393.375 " fill-opacity="1" fill-rule="nonzero"/><path fill="#ffffff" d="M 88.777344 271.644531 L 58.1875 271.644531 C 57.175781 271.644531 56.355469 270.824219 56.355469 269.8125 L 56.355469 223.738281 C 56.355469 222.726562 57.175781 221.90625 58.1875 221.90625 L 88.777344 221.90625 C 89.789062 221.90625 90.609375 222.726562 90.609375 223.738281 L 90.609375 269.8125 C 90.609375 270.824219 89.789062 271.644531 88.777344 271.644531 " fill-opacity="1" fill-rule="nonzero"/><path fill="#ffffff" d="M 128.777344 271.644531 L 98.558594 271.644531 C 97.445312 271.644531 96.539062 270.742188 96.539062 269.625 L 96.539062 223.925781 C 96.539062 222.808594 97.445312 221.90625 98.558594 221.90625 L 128.777344 221.90625 C 129.890625 221.90625 130.792969 222.808594 130.792969 223.925781 L 130.792969 269.625 C 130.792969 270.742188 129.890625 271.644531 128.777344 271.644531 " fill-opacity="1" fill-rule="nonzero"/><path fill="#ffffff" d="M 89.300781 326.910156 L 57.664062 326.910156 C 56.941406 326.910156 56.355469 326.324219 56.355469 325.601562 L 56.355469 278.480469 C 56.355469 277.757812 56.941406 277.171875 57.664062 277.171875 L 89.300781 277.171875 C 90.023438 277.171875 90.609375 277.757812 90.609375 278.480469 L 90.609375 325.601562 C 90.609375 326.324219 90.023438 326.910156 89.300781 326.910156 " fill-opacity="1" fill-rule="nonzero"/><path fill="#ffffff" d="M 128.726562 326.910156 L 98.609375 326.910156 C 97.46875 326.910156 96.539062 325.984375 96.539062 324.839844 L 96.539062 279.242188 C 96.539062 278.097656 97.46875 277.171875 98.609375 277.171875 L 128.726562 277.171875 C 129.871094 277.171875 130.796875 278.097656 130.796875 279.242188 L 130.796875 324.839844 C 130.796875 325.984375 129.871094 326.910156 128.726562 326.910156 " fill-opacity="1" fill-rule="nonzero"/><path fill="#ffffff" d="M 194.382812 124.441406 L 163.792969 124.441406 C 162.78125 124.441406 161.960938 123.621094 161.960938 122.613281 L 161.960938 86.027344 C 161.960938 85.015625 162.78125 84.195312 163.792969 84.195312 L 194.382812 84.195312 C 195.394531 84.195312 196.214844 85.015625 196.214844 86.027344 L 196.214844 122.613281 C 196.214844 123.621094 195.394531 124.441406 194.382812 124.441406 " fill-opacity="1" fill-rule="nonzero"/><path fill="#ffffff" d="M 234.382812 124.441406 L 204.164062 124.441406 C 203.046875 124.441406 202.144531 123.539062 202.144531 122.425781 L 202.144531 86.210938 C 202.144531 85.097656 203.046875 84.195312 204.164062 84.195312 L 234.382812 84.195312 C 235.496094 84.195312 236.402344 85.097656 236.402344 86.210938 L 236.402344 122.425781 C 236.402344 123.539062 235.496094 124.441406 234.382812 124.441406 " fill-opacity="1" fill-rule="nonzero"/><path fill="#ffffff" d="M 194.902344 169.167969 L 163.269531 169.167969 C 162.542969 169.167969 161.957031 168.582031 161.957031 167.855469 L 161.957031 130.226562 C 161.957031 129.503906 162.542969 128.917969 163.269531 128.917969 L 194.902344 128.917969 C 195.625 128.917969 196.214844 129.503906 196.214844 130.226562 L 196.214844 167.855469 C 196.214844 168.582031 195.625 169.167969 194.902344 169.167969 " fill-opacity="1" fill-rule="nonzero"/><path fill="#ffffff" d="M 234.332031 169.167969 L 204.210938 169.167969 C 203.070312 169.167969 202.140625 168.238281 202.140625 167.097656 L 202.140625 130.988281 C 202.140625 129.847656 203.070312 128.917969 204.210938 128.917969 L 234.332031 128.917969 C 235.46875 128.917969 236.398438 129.847656 236.398438 130.988281 L 236.398438 167.097656 C 236.398438 168.238281 235.46875 169.167969 234.332031 169.167969 " fill-opacity="1" fill-rule="nonzero"/><path fill="#ffffff" d="M 299.429688 271.558594 L 268.839844 271.558594 C 267.828125 271.558594 267.007812 270.738281 267.007812 269.726562 L 267.007812 223.578125 C 267.007812 222.566406 267.828125 221.746094 268.839844 221.746094 L 299.429688 221.746094 C 300.441406 221.746094 301.261719 222.566406 301.261719 223.578125 L 301.261719 269.726562 C 301.261719 270.738281 300.441406 271.558594 299.429688 271.558594 " fill-opacity="1" fill-rule="nonzero"/><path fill="#ffffff" d="M 339.429688 271.558594 L 309.210938 271.558594 C 308.09375 271.558594 307.195312 270.660156 307.195312 269.542969 L 307.195312 223.765625 C 307.195312 222.648438 308.09375 221.746094 309.210938 221.746094 L 339.429688 221.746094 C 340.542969 221.746094 341.449219 222.648438 341.449219 223.765625 L 341.449219 269.542969 C 341.449219 270.660156 340.542969 271.558594 339.429688 271.558594 " fill-opacity="1" fill-rule="nonzero"/><path fill="#ffffff" d="M 299.953125 326.910156 L 268.316406 326.910156 C 267.59375 326.910156 267.007812 326.324219 267.007812 325.597656 L 267.007812 278.402344 C 267.007812 277.679688 267.59375 277.097656 268.316406 277.097656 L 299.953125 277.097656 C 300.675781 277.097656 301.261719 277.679688 301.261719 278.402344 L 301.261719 325.597656 C 301.261719 326.324219 300.675781 326.910156 299.953125 326.910156 " fill-opacity="1" fill-rule="nonzero"/><path fill="#ffffff" d="M 339.378906 326.910156 L 309.265625 326.910156 C 308.121094 326.910156 307.195312 325.984375 307.195312 324.839844 L 307.195312 279.164062 C 307.195312 278.019531 308.121094 277.097656 309.265625 277.097656 L 339.378906 277.097656 C 340.523438 277.097656 341.453125 278.019531 341.453125 279.164062 L 341.453125 324.839844 C 341.453125 325.984375 340.523438 326.910156 339.378906 326.910156 " fill-opacity="1" fill-rule="nonzero"/><path fill="#6ce5e8" d="M 196.628906 18.410156 L 15.628906 115.011719 C 11.789062 117.058594 11.0625 121.222656 14.0625 123.984375 L 29.277344 138.011719 L 197.949219 51.433594 C 199.007812 50.886719 200.382812 50.886719 201.449219 51.421875 L 373.421875 138.199219 L 383.265625 126.46875 C 387.320312 121.644531 385.652344 115.199219 379.519531 111.953125 L 202.769531 18.402344 C 200.917969 17.421875 198.476562 17.425781 196.628906 18.410156 " fill-opacity="1" fill-rule="nonzero"/><path fill="#ffffff" d="M 241.175781 405.492188 L 156.816406 405.492188 C 154.910156 405.492188 153.363281 403.945312 153.363281 402.039062 L 153.363281 220.761719 C 153.363281 218.855469 154.910156 217.308594 156.816406 217.308594 L 241.175781 217.308594 C 243.082031 217.308594 244.628906 218.855469 244.628906 220.761719 L 244.628906 402.039062 C 244.628906 403.945312 243.082031 405.492188 241.175781 405.492188 " fill-opacity="1" fill-rule="nonzero"/><path fill="#f96f5f" d="M 237.675781 398.84375 L 160.675781 398.84375 C 159.40625 398.84375 158.375 397.816406 158.375 396.546875 L 158.375 224.855469 C 158.375 223.585938 159.40625 222.554688 160.675781 222.554688 L 237.675781 222.554688 C 238.945312 222.554688 239.976562 223.585938 239.976562 224.855469 L 239.976562 396.546875 C 239.976562 397.816406 238.945312 398.84375 237.675781 398.84375 " fill-opacity="1" fill-rule="nonzero"/><path fill="#f96f5f" d="M 256.648438 407.304688 L 141.730469 407.304688 C 140.832031 407.304688 140.101562 406.574219 140.101562 405.675781 L 140.101562 388.59375 C 140.101562 387.695312 140.832031 386.964844 141.730469 386.964844 L 256.648438 386.964844 C 257.550781 386.964844 258.277344 387.695312 258.277344 388.59375 L 258.277344 405.675781 C 258.277344 406.574219 257.550781 407.304688 256.648438 407.304688 " fill-opacity="1" fill-rule="nonzero"/><path fill="#000000" d="M 158.375 381.050781 C 157.898438 381.050781 157.511719 380.664062 157.511719 380.1875 L 157.511719 225.019531 C 157.511719 223.183594 159.003906 221.691406 160.839844 221.691406 L 220.773438 221.691406 C 221.25 221.691406 221.636719 222.078125 221.636719 222.554688 C 221.636719 223.03125 221.25 223.417969 220.773438 223.417969 L 160.839844 223.417969 C 159.957031 223.417969 159.238281 224.136719 159.238281 225.019531 L 159.238281 380.1875 C 159.238281 380.664062 158.851562 381.050781 158.375 381.050781 " fill-opacity="1" fill-rule="nonzero"/><path fill="#000000" d="M 140.101562 403.234375 C 139.625 403.234375 139.238281 402.851562 139.238281 402.375 L 139.238281 388.710938 C 139.238281 387.273438 140.410156 386.101562 141.847656 386.101562 L 202.351562 385.617188 C 202.847656 385.613281 203.21875 385.996094 203.222656 386.472656 C 203.226562 386.949219 202.84375 387.335938 202.367188 387.34375 L 141.855469 387.828125 C 141.363281 387.828125 140.964844 388.226562 140.964844 388.710938 L 140.964844 402.375 C 140.964844 402.851562 140.578125 403.234375 140.101562 403.234375 " fill-opacity="1" fill-rule="nonzero"/><path fill="#000000" d="M 150.011719 407.976562 C 149.535156 407.976562 149.148438 407.589844 149.148438 407.117188 C 149.144531 406.640625 149.53125 406.253906 150.007812 406.25 L 243.625 405.867188 L 243.628906 405.867188 C 244.101562 405.867188 244.488281 406.253906 244.492188 406.726562 C 244.492188 407.203125 244.109375 407.589844 243.632812 407.59375 L 150.011719 407.976562 " fill-opacity="1" fill-rule="nonzero"/><path fill="#ffffff" d="M 58.894531 195.753906 C 58.417969 195.753906 58.03125 195.367188 58.03125 194.894531 C 58.03125 194.414062 58.417969 194.027344 58.894531 194.027344 L 311.160156 193.617188 C 311.636719 193.617188 312.023438 194.003906 312.023438 194.480469 C 312.023438 194.957031 311.640625 195.34375 311.164062 195.34375 L 58.894531 195.753906 " fill-opacity="1" fill-rule="nonzero"/><path fill="#ffffff" d="M 171.550781 263.082031 C 171.328125 263.082031 171.109375 263 170.941406 262.832031 C 170.605469 262.496094 170.605469 261.945312 170.941406 261.613281 L 200.355469 232.195312 C 200.691406 231.859375 201.238281 231.859375 201.574219 232.195312 C 201.914062 232.535156 201.914062 233.082031 201.574219 233.417969 L 172.160156 262.832031 C 171.992188 263 171.769531 263.082031 171.550781 263.082031 " fill-opacity="1" fill-rule="nonzero"/><path fill="#ffffff" d="M 170.511719 240.9375 C 170.292969 240.9375 170.070312 240.851562 169.902344 240.683594 C 169.566406 240.347656 169.566406 239.800781 169.902344 239.464844 L 179.246094 230.121094 C 179.582031 229.785156 180.128906 229.785156 180.464844 230.121094 C 180.804688 230.457031 180.804688 231.003906 180.464844 231.339844 L 171.121094 240.683594 C 170.953125 240.851562 170.734375 240.9375 170.511719 240.9375 " fill-opacity="1" fill-rule="nonzero"/><path fill="#000000" d="M 393.195312 148.835938 C 364.136719 149.148438 340.734375 164.28125 340.9375 182.632812 C 341.023438 190.851562 345.824219 198.316406 353.703125 204.03125 L 344.828125 222.328125 L 369.953125 211.9375 C 377.15625 214.179688 385.296875 215.398438 393.914062 215.308594 C 422.972656 214.996094 446.371094 199.863281 446.175781 181.507812 C 445.980469 163.152344 422.257812 148.523438 393.195312 148.835938 " fill-opacity="1" fill-rule="nonzero"/><path fill="#000000" d="M 414.019531 148.953125 C 413.921875 148.953125 413.828125 148.941406 413.730469 148.90625 C 413.046875 148.667969 412.355469 148.433594 411.652344 148.214844 C 411.199219 148.070312 410.945312 147.589844 411.085938 147.132812 C 411.230469 146.679688 411.714844 146.425781 412.167969 146.570312 C 412.886719 146.796875 413.601562 147.03125 414.304688 147.277344 C 414.753906 147.433594 414.988281 147.929688 414.828125 148.375 C 414.707031 148.734375 414.375 148.953125 414.019531 148.953125 " fill-opacity="1" fill-rule="nonzero"/><path fill="#000000" d="M 387.613281 211.3125 C 385.726562 211.3125 383.839844 211.25 381.980469 211.128906 C 381.503906 211.09375 381.144531 210.683594 381.179688 210.207031 C 381.210938 209.730469 381.621094 209.367188 382.09375 209.402344 C 384.207031 209.546875 386.367188 209.605469 388.503906 209.582031 C 402.398438 209.433594 415.410156 205.882812 425.148438 199.585938 C 434.761719 193.371094 440.003906 185.226562 439.914062 176.65625 C 439.804688 166.578125 432.363281 157.316406 419.492188 151.253906 C 419.058594 151.050781 418.875 150.539062 419.078125 150.105469 C 419.28125 149.675781 419.796875 149.492188 420.226562 149.691406 C 433.722656 156.050781 441.523438 165.871094 441.640625 176.636719 C 441.738281 185.820312 436.210938 194.484375 426.085938 201.035156 C 416.078125 207.507812 402.738281 211.152344 388.523438 211.308594 C 388.21875 211.3125 387.917969 211.3125 387.613281 211.3125 " fill-opacity="1" fill-rule="nonzero"/><path fill="#000000" d="M 339.429688 218.328125 C 339.195312 218.328125 338.964844 218.234375 338.800781 218.058594 C 338.554688 217.800781 338.496094 217.414062 338.652344 217.089844 L 347.210938 199.4375 C 339.203125 193.421875 334.757812 185.757812 334.675781 177.78125 C 334.574219 168.597656 340.097656 159.933594 350.226562 153.382812 C 360.234375 146.914062 373.574219 143.265625 387.789062 143.113281 C 391.136719 143.074219 394.484375 143.238281 397.75 143.589844 C 398.222656 143.640625 398.566406 144.070312 398.515625 144.542969 C 398.460938 145.019531 398.039062 145.359375 397.5625 145.308594 C 394.371094 144.960938 391.085938 144.804688 387.808594 144.835938 C 373.917969 144.988281 360.898438 148.535156 351.164062 154.832031 C 341.554688 161.050781 336.304688 169.195312 336.398438 177.765625 C 336.480469 185.367188 340.886719 192.726562 348.808594 198.472656 C 349.148438 198.714844 349.261719 199.171875 349.078125 199.546875 L 341.195312 215.804688 L 364.226562 206.28125 C 364.410156 206.207031 364.621094 206.195312 364.8125 206.253906 C 366.976562 206.925781 369.242188 207.507812 371.53125 207.984375 C 372 208.082031 372.300781 208.53125 372.203125 209.003906 C 372.105469 209.46875 371.652344 209.769531 371.183594 209.671875 C 368.941406 209.210938 366.726562 208.644531 364.597656 207.996094 L 339.757812 218.265625 C 339.652344 218.308594 339.539062 218.328125 339.429688 218.328125 " fill-opacity="1" fill-rule="nonzero"/><path fill="#000000" d="M 306.515625 263.0625 C 302.921875 261.082031 296.601562 260.203125 289.589844 253.539062 C 286.175781 250.296875 281.242188 245.605469 280.910156 238.578125 C 280.523438 230.363281 286.566406 221.550781 294.800781 219.675781 C 316.808594 214.660156 325.726562 230.285156 331.589844 240.28125 C 335.539062 247.023438 342.085938 255.160156 347.175781 257.816406 C 359.03125 264.007812 369.777344 248.355469 381.988281 252.960938 C 392.503906 256.929688 388.933594 270.1875 400.472656 277.332031 C 413.730469 285.535156 424.632812 271.875 440.515625 278.667969 C 455.105469 284.90625 465.15625 304.660156 461.445312 317.929688 C 458.878906 327.125 451.671875 326.167969 445.371094 336.980469 C 435.550781 353.824219 446.867188 366.742188 440.441406 381.378906 C 431.828125 400.992188 399.175781 405.886719 378.621094 403.574219 C 374.816406 403.144531 335.035156 398.058594 318.671875 366.453125 C 298.808594 328.105469 325.101562 273.285156 306.515625 263.0625 " fill-opacity="1" fill-rule="nonzero"/><g clip-path="url(#58cb6088b2)"><path fill="#000000" d="M 285.570312 494.742188 L 389.757812 494.742188 C 386.464844 464.367188 380.976562 438.398438 372.058594 423.199219 L 309.558594 426.925781 C 309.558594 426.925781 310.152344 428.796875 311.214844 432.257812 L 294.160156 433.609375 C 294.160156 433.609375 289.792969 463.222656 285.570312 494.742188 " fill-opacity="1" fill-rule="nonzero"/></g><g clip-path="url(#75e92c3141)"><path fill="#000000" d="M 286.019531 436.320312 C 286.019531 436.320312 284.195312 471.148438 290.808594 477.136719 C 290.808594 477.136719 308.453125 452.679688 307.917969 436.320312 L 286.019531 436.320312 " fill-opacity="1" fill-rule="nonzero"/></g><g clip-path="url(#c5322313fa)"><path fill="#000000" d="M 286.839844 437.183594 C 286.394531 446.867188 286.359375 469.714844 290.726562 475.746094 C 293.769531 471.324219 306.988281 451.300781 307.066406 437.183594 Z M 290.808594 478 C 290.597656 478 290.386719 477.921875 290.230469 477.777344 C 283.390625 471.582031 285.082031 437.714844 285.15625 436.277344 C 285.179688 435.816406 285.558594 435.457031 286.019531 435.457031 L 307.917969 435.457031 C 308.386719 435.457031 308.765625 435.828125 308.78125 436.292969 C 309.316406 452.753906 292.238281 476.632812 291.507812 477.640625 C 291.367188 477.839844 291.144531 477.96875 290.902344 477.996094 C 290.871094 477.996094 290.835938 478 290.808594 478 " fill-opacity="1" fill-rule="nonzero"/></g><path fill="#000000" d="M 313.347656 433.980469 C 313.347656 433.980469 321.972656 461.082031 329.867188 467.277344 C 337.761719 473.46875 354.835938 440.617188 365.832031 438.867188 C 376.824219 437.117188 391.5 463.785156 391.5 463.785156 C 391.5 463.785156 385.28125 429.285156 375.515625 422.808594 L 313.347656 433.980469 " fill-opacity="1" fill-rule="nonzero"/><path fill="#000000" d="M 314.476562 434.652344 C 316.070312 439.457031 323.617188 461.277344 330.398438 466.597656 C 334.027344 469.441406 340.96875 461.375 347.6875 453.570312 C 353.90625 446.339844 360.339844 438.867188 365.691406 438.015625 C 374.386719 436.628906 384.835938 451.316406 389.632812 458.957031 C 387.53125 449.363281 382.332031 428.816406 375.316406 423.722656 Z M 332.082031 468.925781 C 331.101562 468.925781 330.1875 468.625 329.335938 467.957031 C 321.324219 461.671875 312.878906 435.359375 312.519531 434.242188 C 312.449219 434.007812 312.476562 433.75 312.605469 433.535156 C 312.730469 433.320312 312.949219 433.171875 313.195312 433.128906 L 375.363281 421.960938 C 375.578125 421.921875 375.804688 421.96875 375.992188 422.089844 C 385.945312 428.695312 392.09375 462.207031 392.347656 463.632812 C 392.425781 464.046875 392.1875 464.457031 391.785156 464.597656 C 391.390625 464.742188 390.945312 464.570312 390.742188 464.199219 C 390.601562 463.941406 376.226562 438.085938 365.960938 439.71875 C 361.234375 440.472656 355.011719 447.703125 348.992188 454.695312 C 342.726562 461.980469 336.746094 468.925781 332.082031 468.925781 " fill-opacity="1" fill-rule="nonzero"/><path fill="#000000" d="M 203.097656 280.664062 L 188.957031 266.925781 C 188.957031 266.925781 185.011719 270.070312 191.054688 277.449219 C 189.40625 277.507812 187.6875 277.617188 184.933594 277.8125 C 182.710938 277.972656 180.511719 277.386719 178.820312 275.875 C 176.859375 274.117188 174.414062 271.980469 173.507812 271.402344 C 171.898438 270.375 169.796875 268.75 167.636719 268.78125 C 165.464844 268.8125 163.316406 270.542969 163.316406 270.542969 L 170.921875 280.613281 C 174.050781 284.757812 178.363281 287.746094 183.230469 289.144531 L 190.996094 291.378906 C 195.429688 292.652344 198.679688 296.601562 199.230469 301.367188 L 203.011719 334.125 L 219.492188 318.195312 C 219.492188 318.195312 209.359375 289.433594 203.097656 280.664062 " fill-opacity="1" fill-rule="nonzero"/><path fill="#000000" d="M 164.546875 270.738281 L 171.609375 280.09375 C 174.644531 284.113281 178.75 286.960938 183.472656 288.316406 L 191.238281 290.550781 C 196.019531 291.925781 199.496094 296.132812 200.085938 301.269531 L 203.667969 332.289062 L 218.488281 317.960938 C 217.089844 314.042969 208.105469 289.222656 202.441406 281.230469 L 189.027344 268.199219 C 188.390625 269.308594 187.734375 272.027344 191.726562 276.902344 C 191.929688 277.15625 191.976562 277.507812 191.839844 277.804688 C 191.707031 278.105469 191.414062 278.300781 191.085938 278.3125 C 189.472656 278.367188 187.769531 278.476562 184.992188 278.675781 C 182.402344 278.859375 180.003906 278.09375 178.246094 276.519531 C 174.628906 273.277344 173.433594 272.375 173.042969 272.128906 C 172.816406 271.980469 172.578125 271.824219 172.332031 271.660156 C 170.96875 270.761719 169.277344 269.644531 167.695312 269.644531 C 167.679688 269.644531 167.664062 269.644531 167.648438 269.644531 C 166.480469 269.660156 165.277344 270.28125 164.546875 270.738281 Z M 203.011719 334.988281 C 202.914062 334.988281 202.816406 334.972656 202.722656 334.9375 C 202.414062 334.824219 202.195312 334.550781 202.15625 334.222656 L 198.375 301.464844 C 197.863281 297.023438 194.871094 293.390625 190.757812 292.207031 L 182.992188 289.976562 C 177.910156 288.515625 173.496094 285.457031 170.234375 281.132812 L 162.628906 271.0625 C 162.347656 270.691406 162.414062 270.164062 162.773438 269.871094 C 162.871094 269.792969 165.183594 267.949219 167.625 267.917969 C 169.753906 267.875 171.710938 269.183594 173.28125 270.222656 C 173.519531 270.378906 173.75 270.53125 173.96875 270.671875 C 174.742188 271.164062 176.566406 272.699219 179.398438 275.230469 C 180.804688 276.492188 182.75 277.105469 184.871094 276.953125 C 186.757812 276.820312 188.152344 276.726562 189.367188 276.660156 C 187.480469 274.011719 186.640625 271.601562 186.863281 269.472656 C 187.089844 267.367188 188.289062 266.359375 188.421875 266.253906 C 188.761719 265.980469 189.25 266.003906 189.5625 266.308594 L 203.699219 280.046875 C 203.734375 280.082031 203.769531 280.121094 203.800781 280.160156 C 210.0625 288.929688 219.886719 316.726562 220.304688 317.90625 C 220.417969 318.226562 220.332031 318.578125 220.089844 318.816406 L 203.613281 334.746094 C 203.449219 334.902344 203.230469 334.988281 203.011719 334.988281 " fill-opacity="1" fill-rule="nonzero"/><path fill="#000000" d="M 222.324219 309.234375 L 181.339844 350.277344 L 203.011719 369.722656 L 237.636719 333.316406 L 222.324219 309.234375 " fill-opacity="1" fill-rule="nonzero"/><path fill="#000000" d="M 182.59375 350.242188 L 202.964844 368.519531 L 236.546875 333.207031 L 222.175781 310.609375 Z M 203.011719 370.585938 C 202.808594 370.585938 202.601562 370.511719 202.4375 370.363281 L 180.761719 350.917969 C 180.589844 350.761719 180.484375 350.535156 180.476562 350.300781 C 180.46875 350.0625 180.5625 349.835938 180.730469 349.667969 L 221.714844 308.628906 C 221.898438 308.441406 222.15625 308.347656 222.417969 308.378906 C 222.679688 308.40625 222.910156 308.550781 223.050781 308.773438 L 238.363281 332.851562 C 238.574219 333.1875 238.535156 333.621094 238.261719 333.910156 L 203.636719 370.316406 C 203.46875 370.492188 203.242188 370.585938 203.011719 370.585938 " fill-opacity="1" fill-rule="nonzero"/><path fill="#6ce5e8" d="M 187.441406 367.996094 L 234.609375 321.976562 C 234.609375 321.976562 238.277344 331.003906 247.328125 329.28125 C 257.675781 327.3125 267.355469 311.390625 273.828125 304.472656 C 275.699219 302.472656 279.023438 303.421875 279.578125 306.113281 L 284.351562 360.902344 C 284.351562 360.902344 254.980469 413.523438 187.441406 367.996094 " fill-opacity="1" fill-rule="nonzero"/><path fill="#6ce5e8" d="M 272.890625 305.417969 C 272.890625 305.417969 293.808594 277.199219 347.628906 297.261719 C 347.628906 297.261719 350.585938 334.808594 361.757812 364.972656 C 372.925781 395.136719 386.496094 413.671875 384.480469 433.820312 C 378.496094 430.984375 371.871094 429.960938 365.359375 430.867188 L 287.300781 441.714844 C 282.097656 442.4375 277.199219 438.867188 276.121094 433.496094 C 274.617188 425.972656 273.503906 412.515625 274.261719 388.597656 C 275.5625 347.441406 262.429688 328.765625 272.890625 305.417969 " fill-opacity="1" fill-rule="nonzero"/><path fill="#000000" d="M 379.394531 377.960938 L 366.511719 402.300781 L 359.566406 398.320312 C 355.59375 396.042969 351.71875 394.433594 346.558594 396.75 C 346.558594 396.75 329.015625 406.769531 327.164062 409.378906 C 325.675781 411.476562 326.785156 414.476562 329.230469 414.980469 C 329.230469 414.980469 332.257812 416.730469 346.582031 412.21875 C 351.71875 410.601562 367.109375 416.390625 372.332031 414.457031 C 377.558594 412.523438 393.640625 386.980469 393.640625 386.980469 L 379.394531 377.960938 " fill-opacity="1" fill-rule="nonzero"/><path fill="#000000" d="M 329.667969 414.234375 C 329.671875 414.234375 332.949219 415.609375 346.328125 411.394531 C 349.027344 410.542969 353.933594 411.503906 359.128906 412.519531 C 364.261719 413.523438 369.570312 414.558594 372.035156 413.648438 C 375.964844 412.195312 387.679688 394.753906 392.457031 387.246094 L 379.722656 379.1875 L 367.277344 402.703125 C 367.164062 402.90625 366.976562 403.0625 366.75 403.125 C 366.527344 403.191406 366.285156 403.164062 366.082031 403.046875 L 359.136719 399.066406 C 355.527344 396.996094 351.878906 395.324219 346.953125 397.519531 C 339.96875 401.507812 329.144531 408.082031 327.867188 409.878906 C 327.320312 410.648438 327.203125 411.640625 327.550781 412.53125 C 327.886719 413.378906 328.5625 413.960938 329.410156 414.136719 C 329.5 414.15625 329.585938 414.1875 329.667969 414.234375 Z M 331.65625 416.167969 C 330.070312 416.167969 329.285156 415.9375 328.960938 415.804688 C 327.597656 415.488281 326.476562 414.507812 325.949219 413.164062 C 325.386719 411.726562 325.574219 410.128906 326.460938 408.878906 C 328.371094 406.191406 344.324219 397.035156 346.136719 396 C 346.160156 395.984375 346.183594 395.96875 346.207031 395.960938 C 351.890625 393.410156 356.140625 395.355469 359.996094 397.570312 L 366.167969 401.105469 L 378.632812 377.558594 C 378.746094 377.34375 378.9375 377.1875 379.175781 377.125 C 379.40625 377.066406 379.652344 377.101562 379.855469 377.234375 L 394.105469 386.25 C 394.507812 386.503906 394.628906 387.035156 394.375 387.441406 C 392.710938 390.078125 377.976562 413.289062 372.632812 415.269531 C 369.714844 416.347656 364.417969 415.308594 358.800781 414.210938 C 354.042969 413.28125 349.128906 412.320312 346.84375 413.042969 C 338.796875 415.574219 334.195312 416.167969 331.65625 416.167969 " fill-opacity="1" fill-rule="nonzero"/><path fill="#000000" d="M 379.390625 360.285156 L 372.839844 377.257812 L 410.628906 403.121094 C 410.628906 403.121094 418.453125 380.660156 418.859375 371.605469 L 379.390625 360.285156 " fill-opacity="1" fill-rule="nonzero"/><path fill="#000000" d="M 373.894531 376.929688 L 410.179688 401.769531 C 411.679688 397.335938 417.320312 380.277344 417.957031 372.242188 L 379.914062 361.332031 Z M 410.628906 403.984375 C 410.457031 403.984375 410.285156 403.933594 410.140625 403.835938 L 372.351562 377.96875 C 372.023438 377.742188 371.890625 377.320312 372.035156 376.945312 L 378.59375 359.976562 C 378.75 359.558594 379.203125 359.332031 379.636719 359.453125 L 419.097656 370.773438 C 419.484375 370.886719 419.742188 371.246094 419.722656 371.644531 C 419.320312 380.71875 411.765625 402.484375 411.441406 403.40625 C 411.355469 403.660156 411.152344 403.859375 410.898438 403.941406 C 410.808594 403.96875 410.722656 403.984375 410.628906 403.984375 " fill-opacity="1" fill-rule="nonzero"/><path fill="#6ce5e8" d="M 339.617188 332.625 L 367.980469 348.054688 C 373.242188 350.363281 375.972656 356.464844 374.292969 362.164062 L 373.742188 364.027344 L 423.445312 383.328125 C 423.445312 383.328125 430.359375 358.976562 418.992188 337.097656 C 407.632812 315.210938 344.140625 296.253906 344.140625 296.253906 L 339.617188 332.625 " fill-opacity="1" fill-rule="nonzero"/><path fill="#000000" d="M 298.679688 266.925781 L 304.105469 292.160156 L 288.738281 297.878906 C 288.738281 297.878906 309.230469 310.722656 339.121094 299.136719 L 323.402344 290.371094 L 312.921875 259.558594 L 298.679688 266.925781 " fill-opacity="1" fill-rule="nonzero"/><path fill="#000000" d="M 290.832031 298.019531 C 296.089844 300.59375 313.5625 307.449219 337.070312 298.984375 L 322.980469 291.125 C 322.789062 291.023438 322.652344 290.851562 322.582031 290.648438 L 312.425781 260.789062 L 299.660156 267.390625 L 304.949219 291.980469 C 305.035156 292.398438 304.804688 292.820312 304.40625 292.972656 Z M 314.421875 304.804688 C 298.425781 304.804688 288.421875 298.699219 288.277344 298.609375 C 288 298.4375 287.84375 298.121094 287.878906 297.789062 C 287.914062 297.464844 288.128906 297.1875 288.4375 297.070312 L 303.101562 291.613281 L 297.832031 267.109375 C 297.75 266.730469 297.933594 266.339844 298.28125 266.160156 L 312.523438 258.796875 C 312.746094 258.679688 313.007812 258.667969 313.242188 258.761719 C 313.476562 258.855469 313.65625 259.042969 313.738281 259.285156 L 324.109375 289.78125 L 339.535156 298.382812 C 339.832031 298.546875 340.003906 298.863281 339.980469 299.199219 C 339.953125 299.53125 339.742188 299.820312 339.429688 299.945312 C 330.109375 303.554688 321.652344 304.804688 314.421875 304.804688 " fill-opacity="1" fill-rule="nonzero"/><path fill="#000000" d="M 313.929688 266.925781 C 313.929688 266.925781 319.78125 268.597656 320.804688 263.324219 C 321.832031 258.050781 316.992188 258.851562 316.992188 258.851562 C 316.992188 258.851562 321.160156 247.105469 313.003906 246.804688 C 304.847656 246.503906 298.675781 243.96875 298.675781 243.96875 C 298.675781 243.96875 293.785156 255.265625 292.71875 264.4375 C 292.070312 269.96875 292.816406 274.726562 296.855469 275.765625 C 307.929688 278.613281 313.929688 266.925781 313.929688 266.925781 " fill-opacity="1" fill-rule="nonzero"/><path fill="#000000" d="M 299.152344 245.070312 C 298.058594 247.742188 294.460938 256.949219 293.574219 264.535156 C 292.859375 270.652344 294.039062 274.148438 297.074219 274.929688 C 298.207031 275.222656 299.285156 275.351562 300.304688 275.351562 C 308.507812 275.351562 312.957031 266.933594 313.164062 266.535156 C 313.351562 266.167969 313.765625 265.984375 314.164062 266.097656 C 314.1875 266.105469 316.65625 266.777344 318.363281 265.722656 C 319.203125 265.207031 319.722656 264.371094 319.960938 263.160156 C 320.21875 261.816406 320.082031 260.855469 319.542969 260.304688 C 318.730469 259.464844 317.152344 259.699219 317.132812 259.703125 C 316.832031 259.75 316.527344 259.640625 316.332031 259.40625 C 316.132812 259.171875 316.074219 258.851562 316.175781 258.5625 C 316.199219 258.5 318.371094 252.261719 316.324219 249.25 C 315.636719 248.242188 314.539062 247.722656 312.972656 247.667969 C 306.367188 247.425781 301.101562 245.769531 299.152344 245.070312 Z M 300.265625 277.074219 C 299.121094 277.074219 297.914062 276.925781 296.644531 276.601562 C 292.640625 275.574219 291.03125 271.445312 291.859375 264.335938 C 292.933594 255.144531 297.683594 244.09375 297.886719 243.625 C 298.074219 243.195312 298.570312 242.992188 299.003906 243.167969 C 299.066406 243.195312 305.140625 245.652344 313.035156 245.941406 C 315.164062 246.019531 316.75 246.808594 317.75 248.28125 C 319.691406 251.136719 318.757812 255.800781 318.164062 257.972656 C 318.976562 258.042969 320.011719 258.308594 320.78125 259.101562 C 321.734375 260.078125 322.027344 261.558594 321.652344 263.488281 C 321.320312 265.179688 320.519531 266.425781 319.261719 267.199219 C 317.53125 268.257812 315.425781 268.085938 314.367188 267.902344 C 313.09375 270.003906 308.230469 277.074219 300.265625 277.074219 " fill-opacity="1" fill-rule="nonzero"/><path fill="#000000" d="M 274 370.5625 C 273.53125 370.5625 273.152344 370.195312 273.136719 369.730469 L 272.042969 336.105469 C 272.027344 335.628906 272.398438 335.230469 272.878906 335.214844 C 273.335938 335.195312 273.75 335.574219 273.765625 336.050781 L 274.859375 369.675781 C 274.878906 370.152344 274.503906 370.546875 274.027344 370.5625 C 274.015625 370.5625 274.007812 370.5625 274 370.5625 " fill-opacity="1" fill-rule="nonzero"/><path fill="#000000" d="M 91.246094 358.070312 Z M 74.191406 346.863281 C 54.8125 370.175781 55.175781 399.816406 55.53125 406.5 C 76.628906 393.679688 84.300781 380.832031 89.191406 365.570312 C 88.925781 365.28125 88.074219 364.808594 87.546875 364.511719 C 86.101562 363.699219 84.734375 362.933594 85.070312 361.699219 C 85.339844 360.707031 86.621094 360.148438 88.691406 359.320312 C 89.535156 358.984375 90.929688 358.425781 91.222656 358.097656 C 94.109375 345.238281 93.402344 334.722656 93.035156 331.25 C 88.246094 333.875 83.800781 337.109375 79.8125 340.871094 C 79.550781 341.195312 79.695312 342.90625 79.769531 343.828125 C 79.921875 345.632812 80.054688 347.191406 79.289062 348.015625 C 78.445312 348.933594 77.070312 348.230469 75.746094 347.550781 C 75.285156 347.316406 74.542969 346.933594 74.191406 346.863281 Z M 54.769531 408.824219 C 54.636719 408.824219 54.503906 408.796875 54.382812 408.734375 C 54.117188 408.601562 53.941406 408.34375 53.910156 408.050781 C 53.875 407.699219 50.527344 372.480469 72.996094 345.601562 C 73.8125 344.621094 75.195312 345.332031 76.53125 346.015625 C 76.988281 346.25 77.714844 346.621094 78.085938 346.707031 C 78.238281 346.199219 78.125 344.828125 78.050781 343.972656 C 77.894531 342.074219 77.753906 340.4375 78.628906 339.617188 C 83.035156 335.457031 87.984375 331.929688 93.339844 329.132812 C 93.585938 329 93.878906 328.996094 94.128906 329.121094 C 94.375 329.246094 94.550781 329.484375 94.59375 329.757812 C 94.613281 329.882812 96.515625 342.464844 92.890625 358.546875 C 92.664062 359.542969 91.390625 360.101562 89.332031 360.921875 C 88.566406 361.226562 87.351562 361.714844 86.878906 362.0625 C 87.207031 362.339844 87.929688 362.746094 88.394531 363.003906 C 89.820312 363.808594 91.300781 364.636719 90.890625 365.921875 C 86.476562 379.765625 79.101562 394.53125 55.210938 408.703125 C 55.074219 408.785156 54.921875 408.824219 54.769531 408.824219 " fill-opacity="1" fill-rule="nonzero"/><path fill="#000000" d="M 60.335938 366.386719 C 60.113281 365.191406 54.90625 366.621094 54.648438 365.46875 C 54.398438 364.332031 59.007812 359.183594 58.726562 358.085938 C 53.25 336.570312 42.960938 322.988281 42.960938 322.988281 C 37.929688 330.398438 33.421875 340.359375 31.074219 348.136719 C 30.703125 349.378906 35.007812 353.808594 34.695312 355.054688 C 34.347656 356.421875 29.332031 355.933594 29.054688 357.300781 C 24.929688 377.46875 28.777344 393.234375 33.234375 408.90625 C 42.296875 409.1875 50.789062 409.078125 58.828125 408.308594 C 63.03125 391.847656 62.757812 379.296875 60.335938 366.386719 " fill-opacity="1" fill-rule="nonzero"/><path fill="#ffffff" d="M 47.101562 403.175781 C 46.679688 403.175781 46.3125 402.867188 46.25 402.4375 C 45.253906 395.675781 44.421875 388.796875 43.777344 381.996094 C 43.730469 381.519531 44.078125 381.097656 44.554688 381.054688 C 45.03125 381.011719 45.449219 381.355469 45.492188 381.832031 C 46.132812 388.605469 46.964844 395.453125 47.957031 402.1875 C 48.027344 402.660156 47.699219 403.097656 47.226562 403.167969 C 47.183594 403.171875 47.144531 403.175781 47.101562 403.175781 " fill-opacity="1" fill-rule="nonzero"/><path fill="#ffffff" d="M 43.835938 373.0625 C 43.386719 373.0625 43.007812 372.71875 42.976562 372.261719 C 42.171875 360.761719 41.871094 349.082031 42.078125 337.554688 L 42.171875 332.289062 C 42.179688 331.8125 42.578125 331.429688 43.050781 331.441406 C 43.527344 331.453125 43.90625 331.84375 43.898438 332.320312 L 43.800781 337.585938 C 43.597656 349.066406 43.898438 360.691406 44.699219 372.140625 C 44.730469 372.617188 44.371094 373.027344 43.894531 373.0625 C 43.875 373.0625 43.855469 373.0625 43.835938 373.0625 " fill-opacity="1" fill-rule="nonzero"/><path fill="#000000" d="M 56.789062 408.464844 C 56.789062 408.464844 65.167969 372.859375 102.335938 376.785156 C 102.335938 376.785156 97.667969 406.035156 56.789062 408.464844 " fill-opacity="1" fill-rule="nonzero"/><path fill="#ffffff" d="M 64.710938 403.625 C 64.492188 403.625 64.269531 403.542969 64.101562 403.378906 C 63.765625 403.042969 63.765625 402.496094 64.101562 402.15625 C 72.757812 393.453125 91.253906 383.0625 92.035156 382.625 C 92.453125 382.390625 92.980469 382.542969 93.210938 382.957031 C 93.445312 383.371094 93.292969 383.902344 92.878906 384.132812 C 92.6875 384.238281 73.808594 394.84375 65.324219 403.375 C 65.15625 403.542969 64.933594 403.625 64.710938 403.625 " fill-opacity="1" fill-rule="nonzero"/><path fill="#000000" d="M 67.230469 380.257812 C 67.023438 380.257812 66.816406 380.183594 66.652344 380.035156 C 66.296875 379.714844 66.273438 379.167969 66.59375 378.816406 C 70.148438 374.902344 74.402344 368.429688 76.765625 364.054688 C 84.035156 350.609375 88.589844 338.582031 88.636719 338.464844 C 88.804688 338.015625 89.300781 337.792969 89.746094 337.957031 C 90.191406 338.128906 90.417969 338.625 90.25 339.070312 C 90.203125 339.191406 85.609375 351.328125 78.285156 364.875 C 75.945312 369.203125 71.6875 375.773438 67.871094 379.976562 C 67.699219 380.164062 67.464844 380.257812 67.230469 380.257812 " fill-opacity="1" fill-rule="nonzero"/><path fill="#000000" d="M 408.484375 71.441406 C 408.265625 71.441406 408.042969 71.355469 407.875 71.1875 L 405.683594 69 C 405.347656 68.660156 405.347656 68.113281 405.679688 67.777344 C 406.019531 67.441406 406.5625 67.441406 406.902344 67.777344 L 409.09375 69.96875 C 409.433594 70.304688 409.433594 70.851562 409.09375 71.1875 C 408.929688 71.355469 408.707031 71.441406 408.484375 71.441406 " fill-opacity="1" fill-rule="nonzero"/><path fill="#000000" d="M 416.160156 79.113281 C 415.941406 79.113281 415.71875 79.027344 415.550781 78.859375 L 413.359375 76.667969 C 413.019531 76.332031 413.019531 75.785156 413.359375 75.445312 C 413.695312 75.113281 414.238281 75.113281 414.578125 75.445312 L 416.773438 77.636719 C 417.109375 77.976562 417.109375 78.519531 416.773438 78.859375 C 416.605469 79.027344 416.378906 79.113281 416.160156 79.113281 " fill-opacity="1" fill-rule="nonzero"/><path fill="#000000" d="M 406.289062 79.113281 C 406.070312 79.113281 405.847656 79.027344 405.679688 78.859375 C 405.34375 78.519531 405.34375 77.976562 405.683594 77.636719 L 407.875 75.445312 C 408.210938 75.113281 408.757812 75.113281 409.09375 75.445312 C 409.433594 75.785156 409.433594 76.332031 409.09375 76.667969 L 406.902344 78.859375 C 406.730469 79.027344 406.511719 79.113281 406.289062 79.113281 " fill-opacity="1" fill-rule="nonzero"/><path fill="#000000" d="M 413.972656 71.441406 C 413.746094 71.441406 413.527344 71.355469 413.359375 71.1875 C 413.019531 70.851562 413.019531 70.304688 413.359375 69.96875 L 415.550781 67.777344 C 415.890625 67.441406 416.4375 67.441406 416.773438 67.777344 C 417.109375 68.113281 417.109375 68.660156 416.773438 69 L 414.578125 71.1875 C 414.410156 71.355469 414.1875 71.441406 413.972656 71.441406 " fill-opacity="1" fill-rule="nonzero"/><path fill="#000000" d="M 390.855469 57.957031 C 388.773438 57.957031 387.085938 59.648438 387.085938 61.726562 C 387.085938 63.804688 388.773438 65.496094 390.855469 65.496094 C 392.933594 65.496094 394.628906 63.804688 394.628906 61.726562 C 394.628906 59.648438 392.933594 57.957031 390.855469 57.957031 Z M 390.855469 67.21875 C 387.824219 67.21875 385.359375 64.757812 385.359375 61.726562 C 385.359375 58.695312 387.824219 56.234375 390.855469 56.234375 C 393.890625 56.234375 396.351562 58.695312 396.351562 61.726562 C 396.351562 64.757812 393.890625 67.21875 390.855469 67.21875 " fill-opacity="1" fill-rule="nonzero"/><path fill="#000000" d="M 392.214844 86.976562 C 391.007812 86.976562 390.027344 87.960938 390.027344 89.167969 C 390.027344 90.367188 391.007812 91.351562 392.214844 91.351562 C 393.421875 91.351562 394.402344 90.367188 394.402344 89.167969 C 394.402344 87.960938 393.421875 86.976562 392.214844 86.976562 Z M 392.214844 93.078125 C 390.054688 93.078125 388.300781 91.324219 388.300781 89.167969 C 388.300781 87.007812 390.054688 85.253906 392.214844 85.253906 C 394.371094 85.253906 396.128906 87.007812 396.128906 89.167969 C 396.128906 91.324219 394.371094 93.078125 392.214844 93.078125 " fill-opacity="1" fill-rule="nonzero"/><path fill="#000000" d="M 88.695312 34.359375 C 88.257812 34.359375 87.882812 34.027344 87.835938 33.585938 L 87.511719 30.5 C 87.460938 30.03125 87.804688 29.601562 88.277344 29.550781 C 88.757812 29.503906 89.179688 29.847656 89.226562 30.320312 L 89.554688 33.40625 C 89.601562 33.878906 89.261719 34.304688 88.785156 34.355469 C 88.753906 34.359375 88.726562 34.359375 88.695312 34.359375 " fill-opacity="1" fill-rule="nonzero"/><path fill="#000000" d="M 89.835938 45.148438 C 89.398438 45.148438 89.027344 44.820312 88.980469 44.375 L 88.652344 41.292969 C 88.601562 40.820312 88.945312 40.394531 89.417969 40.347656 C 89.894531 40.296875 90.320312 40.636719 90.367188 41.113281 L 90.695312 44.199219 C 90.742188 44.667969 90.402344 45.09375 89.925781 45.144531 C 89.894531 45.148438 89.867188 45.148438 89.835938 45.148438 " fill-opacity="1" fill-rule="nonzero"/><path fill="#000000" d="M 82.164062 38.933594 C 81.726562 38.933594 81.355469 38.609375 81.308594 38.164062 C 81.257812 37.6875 81.601562 37.265625 82.074219 37.214844 L 85.160156 36.890625 C 85.636719 36.84375 86.058594 37.1875 86.105469 37.660156 C 86.15625 38.136719 85.8125 38.558594 85.339844 38.609375 L 82.253906 38.933594 C 82.226562 38.933594 82.195312 38.933594 82.164062 38.933594 " fill-opacity="1" fill-rule="nonzero"/><path fill="#000000" d="M 92.957031 37.808594 C 92.519531 37.808594 92.144531 37.480469 92.097656 37.035156 C 92.050781 36.5625 92.394531 36.136719 92.867188 36.085938 L 95.953125 35.765625 C 96.425781 35.714844 96.851562 36.058594 96.898438 36.53125 C 96.949219 37.007812 96.605469 37.429688 96.132812 37.480469 L 93.046875 37.804688 C 93.015625 37.808594 92.988281 37.808594 92.957031 37.808594 " fill-opacity="1" fill-rule="nonzero"/><path fill="#000000" d="M 65.3125 51.390625 L 65.316406 51.390625 Z M 61.710938 44.707031 C 61.578125 44.707031 61.445312 44.710938 61.3125 44.722656 C 60.308594 44.832031 59.410156 45.320312 58.777344 46.101562 C 58.144531 46.882812 57.851562 47.867188 57.960938 48.867188 C 58.066406 49.871094 58.554688 50.769531 59.335938 51.402344 C 60.953125 52.714844 63.332031 52.460938 64.640625 50.847656 C 65.949219 49.230469 65.695312 46.855469 64.078125 45.546875 C 63.398438 44.996094 62.574219 44.707031 61.710938 44.707031 Z M 61.707031 53.964844 C 60.492188 53.964844 59.269531 53.566406 58.253906 52.742188 C 57.109375 51.820312 56.398438 50.507812 56.242188 49.050781 C 56.089844 47.585938 56.511719 46.15625 57.4375 45.015625 C 58.359375 43.875 59.671875 43.164062 61.132812 43.007812 C 62.589844 42.855469 64.023438 43.28125 65.164062 44.207031 C 67.519531 46.113281 67.886719 49.578125 65.980469 51.933594 C 64.898438 53.273438 63.308594 53.964844 61.707031 53.964844 " fill-opacity="1" fill-rule="nonzero"/><path fill="#000000" d="M 47.871094 72.574219 L 47.875 72.574219 Z M 45.496094 68.46875 C 44.859375 68.46875 44.230469 68.746094 43.796875 69.277344 C 43.039062 70.214844 43.1875 71.59375 44.125 72.351562 C 45.0625 73.113281 46.441406 72.96875 47.199219 72.03125 C 47.957031 71.097656 47.8125 69.714844 46.875 68.953125 C 46.46875 68.628906 45.980469 68.46875 45.496094 68.46875 Z M 45.496094 74.566406 C 44.632812 74.566406 43.761719 74.28125 43.039062 73.695312 C 41.359375 72.335938 41.101562 69.867188 42.457031 68.191406 C 43.8125 66.515625 46.28125 66.257812 47.960938 67.613281 C 49.636719 68.972656 49.898438 71.441406 48.542969 73.117188 C 47.769531 74.070312 46.636719 74.566406 45.496094 74.566406 " fill-opacity="1" fill-rule="nonzero"/><path fill="#000000" d="M 177.929688 444.988281 C 167.257812 444.988281 157.75 443.949219 149.816406 442.566406 C 126.113281 438.429688 110.957031 430.390625 110.808594 430.308594 C 110.386719 430.082031 110.230469 429.558594 110.457031 429.136719 C 110.679688 428.71875 111.203125 428.5625 111.625 428.789062 C 111.773438 428.867188 126.734375 436.796875 150.183594 440.878906 C 171.800781 444.640625 205.273438 445.8125 241.949219 430.011719 C 242.386719 429.824219 242.894531 430.027344 243.082031 430.464844 C 243.269531 430.902344 243.070312 431.40625 242.628906 431.597656 C 218.996094 441.78125 196.667969 444.988281 177.929688 444.988281 " fill-opacity="1" fill-rule="nonzero"/><path fill="#000000" d="M 156.964844 458.160156 C 144.738281 458.160156 110.191406 455.933594 79.6875 432.929688 C 79.308594 432.640625 79.230469 432.097656 79.515625 431.71875 C 79.804688 431.339844 80.347656 431.265625 80.726562 431.550781 C 117.835938 459.535156 160.972656 456.34375 161.402344 456.3125 C 161.882812 456.273438 162.292969 456.625 162.332031 457.097656 C 162.375 457.574219 162.019531 457.992188 161.542969 458.03125 C 161.460938 458.039062 159.820312 458.160156 156.964844 458.160156 " fill-opacity="1" fill-rule="nonzero"/><g clip-path="url(#ed371b8964)"><path fill="#e7f0ff" d="M 210.496094 228.15625 C 246.625 191.796875 236.28125 169.011719 261 152.171875 C 299.035156 126.269531 370.027344 148.558594 411.90625 184.183594 C 463.203125 227.824219 489.667969 307.503906 459.519531 379.582031 C 427.414062 456.347656 342.9375 496.195312 267.558594 484.1875 C 200.246094 473.464844 134.074219 420.410156 127.445312 356.785156 C 126.726562 349.886719 123.554688 312.605469 145.804688 280.464844 C 164.195312 253.898438 181.859375 256.976562 210.496094 228.15625 " fill-opacity="1" fill-rule="nonzero"/></g><path fill="#6ce5e8" d="M 181.277344 189.078125 C 205.242188 184.664062 227.367188 195.769531 230.699219 213.878906 C 232.191406 221.984375 229.664062 230.113281 224.273438 237.023438 L 235.058594 253.605469 L 212.414062 247.449219 C 206.914062 250.824219 200.449219 253.351562 193.347656 254.65625 C 169.386719 259.066406 147.257812 247.960938 143.925781 229.851562 C 140.59375 211.742188 157.316406 193.484375 181.277344 189.078125 " fill-opacity="1" fill-rule="nonzero"/><path fill="#000000" d="M 164.011719 192.347656 C 163.8125 192.347656 163.613281 192.25 163.492188 192.070312 C 163.300781 191.78125 163.375 191.394531 163.664062 191.203125 C 164.195312 190.84375 164.738281 190.492188 165.28125 190.15625 C 165.574219 189.976562 165.960938 190.066406 166.144531 190.363281 C 166.324219 190.65625 166.234375 191.042969 165.941406 191.222656 C 165.410156 191.550781 164.878906 191.890625 164.359375 192.242188 C 164.253906 192.3125 164.132812 192.347656 164.011719 192.347656 " fill-opacity="1" fill-rule="nonzero"/><path fill="#000000" d="M 186.4375 250.582031 C 166.503906 250.582031 149.71875 240.011719 146.824219 224.300781 C 144.890625 213.792969 149.421875 202.949219 159.257812 194.542969 C 159.519531 194.320312 159.914062 194.347656 160.140625 194.613281 C 160.363281 194.875 160.332031 195.269531 160.070312 195.496094 C 150.582031 203.597656 146.207031 214.015625 148.058594 224.074219 C 151.324219 241.816406 173.164062 252.722656 196.75 248.378906 C 198.515625 248.054688 200.277344 247.644531 201.984375 247.164062 C 202.320312 247.070312 202.664062 247.261719 202.757812 247.597656 C 202.851562 247.929688 202.65625 248.273438 202.324219 248.367188 C 200.582031 248.859375 198.78125 249.277344 196.976562 249.609375 C 193.40625 250.265625 189.875 250.582031 186.4375 250.582031 " fill-opacity="1" fill-rule="nonzero"/><path fill="#000000" d="M 238.574219 248.566406 C 238.519531 248.566406 238.460938 248.558594 238.410156 248.542969 L 216.023438 242.460938 C 214.398438 243.449219 212.6875 244.363281 210.929688 245.179688 C 210.617188 245.328125 210.246094 245.191406 210.097656 244.878906 C 209.953125 244.566406 210.085938 244.191406 210.402344 244.046875 C 212.199219 243.210938 213.949219 242.269531 215.601562 241.253906 C 215.746094 241.164062 215.925781 241.136719 216.09375 241.183594 L 237.152344 246.90625 L 227.265625 231.703125 C 227.121094 231.476562 227.132812 231.183594 227.296875 230.972656 C 232.761719 223.972656 235 215.933594 233.601562 208.332031 C 232.023438 199.769531 226.113281 192.523438 216.960938 187.929688 C 207.746094 183.304688 196.363281 181.917969 184.90625 184.03125 C 182.203125 184.527344 179.535156 185.214844 176.976562 186.074219 C 176.648438 186.183594 176.292969 186.007812 176.183594 185.679688 C 176.074219 185.351562 176.25 185 176.578125 184.886719 C 179.195312 184.007812 181.921875 183.304688 184.679688 182.796875 C 196.402344 180.640625 208.066406 182.066406 217.523438 186.8125 C 227.035156 191.585938 233.183594 199.148438 234.832031 208.105469 C 236.273438 215.933594 234.042969 224.1875 228.554688 231.390625 L 239.097656 247.601562 C 239.238281 247.816406 239.230469 248.101562 239.078125 248.308594 C 238.957031 248.472656 238.769531 248.566406 238.574219 248.566406 " fill-opacity="1" fill-rule="nonzero"/><path fill="#f96f5f" d="M 191.917969 213.257812 C 191.574219 213.257812 191.292969 212.976562 191.292969 212.632812 C 191.292969 212.289062 191.570312 212.007812 191.917969 212.003906 L 222.058594 211.933594 C 222.058594 211.933594 222.0625 211.933594 222.0625 211.933594 C 222.40625 211.933594 222.6875 212.214844 222.6875 212.558594 C 222.6875 212.90625 222.40625 213.183594 222.0625 213.1875 L 191.917969 213.257812 " fill-opacity="1" fill-rule="nonzero"/><path fill="#f96f5f" d="M 157.359375 212.386719 C 157.015625 212.386719 156.738281 212.109375 156.734375 211.765625 C 156.734375 211.421875 157.011719 211.140625 157.355469 211.136719 L 186.15625 210.976562 C 186.160156 210.976562 186.160156 210.976562 186.160156 210.976562 C 186.503906 210.976562 186.785156 211.253906 186.789062 211.597656 C 186.789062 211.945312 186.511719 212.226562 186.164062 212.230469 L 157.363281 212.386719 C 157.363281 212.386719 157.363281 212.386719 157.359375 212.386719 " fill-opacity="1" fill-rule="nonzero"/><path fill="#f96f5f" d="M 220.757812 221.097656 C 220.753906 221.097656 220.753906 221.097656 220.75 221.097656 L 181.367188 220.609375 C 181.019531 220.605469 180.746094 220.320312 180.75 219.976562 C 180.753906 219.636719 181.03125 219.359375 181.375 219.359375 C 181.378906 219.359375 181.378906 219.359375 181.382812 219.359375 L 220.765625 219.84375 C 221.109375 219.851562 221.386719 220.132812 221.382812 220.476562 C 221.378906 220.820312 221.097656 221.097656 220.757812 221.097656 " fill-opacity="1" fill-rule="nonzero"/><path fill="#f96f5f" d="M 173.738281 220.515625 C 173.738281 220.515625 173.734375 220.515625 173.730469 220.515625 L 156.050781 220.300781 C 155.703125 220.292969 155.425781 220.011719 155.429688 219.664062 C 155.433594 219.324219 155.714844 219.046875 156.058594 219.046875 C 156.058594 219.046875 156.0625 219.046875 156.066406 219.046875 L 173.746094 219.265625 C 174.09375 219.269531 174.367188 219.554688 174.363281 219.902344 C 174.359375 220.242188 174.082031 220.515625 173.738281 220.515625 " fill-opacity="1" fill-rule="nonzero"/><path fill="#f96f5f" d="M 221.878906 227.785156 L 207.445312 227.695312 C 207.101562 227.695312 206.824219 227.414062 206.824219 227.066406 C 206.828125 226.722656 207.105469 226.445312 207.449219 226.445312 C 207.453125 226.445312 207.453125 226.445312 207.453125 226.445312 L 221.882812 226.53125 C 222.230469 226.535156 222.507812 226.816406 222.507812 227.164062 C 222.503906 227.507812 222.226562 227.785156 221.878906 227.785156 " fill-opacity="1" fill-rule="nonzero"/><path fill="#f96f5f" d="M 204.011719 227.75 C 204.007812 227.75 204.003906 227.75 204 227.75 L 157.171875 226.984375 C 156.824219 226.980469 156.550781 226.695312 156.554688 226.351562 C 156.5625 226.003906 156.839844 225.722656 157.191406 225.734375 L 204.019531 226.5 C 204.367188 226.503906 204.640625 226.789062 204.636719 227.136719 C 204.632812 227.476562 204.351562 227.75 204.011719 227.75 " fill-opacity="1" fill-rule="nonzero"/><g clip-path="url(#b12026f9d5)"><path fill="#f96f5f" d="M 419.683594 468.1875 L 264.515625 468.1875 C 257.828125 468.1875 253.089844 462.792969 253.933594 456.140625 L 292.140625 154.882812 C 292.984375 148.230469 299.089844 142.839844 305.777344 142.839844 L 453.152344 141.121094 C 470.070312 141.121094 472.363281 148.230469 471.523438 154.882812 L 433.316406 456.140625 C 432.472656 462.792969 426.367188 468.1875 419.683594 468.1875 " fill-opacity="1" fill-rule="nonzero"/></g><path fill="#ffffff" d="M 410.34375 468.1875 L 255.175781 468.1875 C 248.492188 468.1875 243.753906 462.765625 244.597656 456.078125 L 282.804688 153.285156 C 283.648438 146.597656 289.753906 141.179688 296.441406 141.179688 L 451.605469 141.179688 C 458.292969 141.179688 463.03125 146.597656 462.183594 153.285156 L 423.980469 456.078125 C 423.132812 462.765625 417.03125 468.1875 410.34375 468.1875 " fill-opacity="1" fill-rule="nonzero"/><path fill="#e7f0ff" d="M 253.441406 456.496094 L 289.921875 167.378906 C 290.117188 165.835938 291.523438 164.582031 293.066406 164.582031 L 449.070312 164.582031 C 450.613281 164.582031 451.707031 165.835938 451.511719 167.378906 L 415.03125 456.496094 C 414.835938 458.039062 413.425781 459.289062 411.882812 459.289062 L 255.882812 459.289062 C 254.339844 459.289062 253.246094 458.039062 253.441406 456.496094 " fill-opacity="1" fill-rule="nonzero"/><path fill="#e7f0ff" d="M 372.082031 156.578125 C 369.574219 156.578125 367.800781 154.546875 368.117188 152.039062 C 368.433594 149.535156 370.71875 147.507812 373.222656 147.507812 C 375.730469 147.507812 377.503906 149.535156 377.1875 152.039062 C 376.871094 154.546875 374.585938 156.578125 372.082031 156.578125 " fill-opacity="1" fill-rule="nonzero"/><path fill="#000000" d="M 410.34375 468.8125 L 282.269531 468.8125 C 281.925781 468.8125 281.644531 468.53125 281.644531 468.1875 C 281.644531 467.839844 281.925781 467.5625 282.269531 467.5625 L 410.34375 467.5625 C 416.714844 467.5625 422.554688 462.375 423.355469 456 L 461.5625 153.207031 C 461.949219 150.136719 461.117188 147.257812 459.21875 145.105469 C 457.34375 142.976562 454.640625 141.804688 451.605469 141.804688 L 296.441406 141.804688 C 290.066406 141.804688 284.226562 146.992188 283.425781 153.363281 L 258.285156 352.605469 C 258.242188 352.949219 257.929688 353.191406 257.585938 353.148438 C 257.242188 353.105469 257 352.789062 257.042969 352.449219 L 282.183594 153.207031 C 283.0625 146.230469 289.460938 140.550781 296.441406 140.550781 L 451.605469 140.550781 C 455 140.550781 458.039062 141.875 460.160156 144.277344 C 462.296875 146.703125 463.238281 149.933594 462.804688 153.363281 L 424.597656 456.160156 C 423.71875 463.136719 417.320312 468.8125 410.34375 468.8125 " fill-opacity="1" fill-rule="nonzero"/><path fill="#000000" d="M 411.882812 459.917969 L 361.101562 459.917969 C 360.753906 459.917969 360.472656 459.636719 360.472656 459.289062 C 360.472656 458.945312 360.753906 458.664062 361.101562 458.664062 L 411.882812 458.664062 C 413.121094 458.664062 414.253906 457.660156 414.410156 456.417969 L 450.890625 167.300781 C 450.964844 166.730469 450.8125 166.199219 450.46875 165.808594 C 450.125 165.421875 449.632812 165.210938 449.070312 165.210938 L 293.070312 165.210938 C 291.832031 165.210938 290.699219 166.214844 290.542969 167.457031 L 265.292969 367.554688 C 265.25 367.898438 264.9375 368.140625 264.59375 368.097656 C 264.253906 368.054688 264.007812 367.742188 264.050781 367.398438 L 289.300781 167.300781 C 289.535156 165.457031 291.226562 163.957031 293.070312 163.957031 L 449.070312 163.957031 C 449.996094 163.957031 450.824219 164.320312 451.40625 164.980469 C 451.996094 165.644531 452.253906 166.523438 452.136719 167.457031 L 415.652344 456.574219 C 415.421875 458.417969 413.730469 459.917969 411.882812 459.917969 " fill-opacity="1" fill-rule="nonzero"/><path fill="#000000" d="M 273.667969 338.269531 C 273.667969 338.242188 273.667969 338.21875 273.667969 338.191406 C 273.828125 329.996094 278.902344 321.644531 288.75 313.363281 C 295.652344 307.5625 302.445312 303.910156 302.730469 303.753906 C 305.007812 302.539062 307.839844 303.398438 309.058594 305.675781 C 310.277344 307.953125 309.417969 310.789062 307.136719 312.003906 C 300.5 315.566406 283.238281 327.238281 283.023438 338.371094 C 283.023438 338.390625 283.023438 338.40625 283.023438 338.425781 C 282.964844 341.953125 284.007812 344.703125 286.214844 346.824219 C 291.503906 351.902344 302.222656 352.441406 305.90625 352.21875 C 308.484375 352.066406 310.695312 354.03125 310.851562 356.609375 C 311.003906 359.183594 309.039062 361.402344 306.460938 361.558594 C 305.753906 361.601562 289.027344 362.492188 279.738281 353.570312 C 275.609375 349.605469 273.566406 344.457031 273.667969 338.269531 " fill-opacity="1" fill-rule="nonzero"/><path fill="#f96f5f" d="M 306.824219 371.660156 L 307.28125 343.960938 C 307.320312 341.378906 309.449219 339.320312 312.03125 339.363281 C 314.617188 339.40625 316.675781 341.53125 316.632812 344.117188 L 316.175781 371.8125 C 316.136719 374.394531 314.007812 376.453125 311.425781 376.414062 C 308.84375 376.371094 306.78125 374.242188 306.824219 371.660156 " fill-opacity="1" fill-rule="nonzero"/><path fill="#f96f5f" d="M 269.054688 254.671875 L 278.828125 254.671875 C 279.214844 254.671875 279.53125 254.359375 279.53125 253.972656 L 279.53125 224.757812 C 279.53125 224.371094 279.21875 224.058594 278.828125 224.058594 L 269.054688 224.058594 C 267 224.058594 265.339844 225.71875 265.339844 227.773438 L 265.339844 250.957031 C 265.339844 253.011719 267 254.671875 269.054688 254.671875 " fill-opacity="1" fill-rule="nonzero"/><path fill="#ffffff" d="M 414.292969 254.671875 L 404.40625 254.671875 L 404.40625 227.015625 L 414.292969 227.015625 C 416.671875 227.015625 418.597656 228.941406 418.597656 231.320312 L 418.597656 250.367188 C 418.597656 252.746094 416.671875 254.671875 414.292969 254.671875 " fill-opacity="1" fill-rule="nonzero"/><path fill="#000000" d="M 405.035156 254.046875 L 406.402344 254.046875 C 412.78125 254.046875 417.972656 248.855469 417.972656 242.480469 L 417.972656 239.210938 C 417.972656 232.832031 412.78125 227.640625 406.402344 227.640625 L 405.035156 227.640625 Z M 406.402344 255.296875 L 404.40625 255.296875 C 404.0625 255.296875 403.78125 255.015625 403.78125 254.671875 L 403.78125 227.015625 C 403.78125 226.667969 404.0625 226.386719 404.40625 226.386719 L 406.402344 226.386719 C 413.472656 226.386719 419.222656 232.140625 419.222656 239.210938 L 419.222656 242.480469 C 419.222656 249.546875 413.472656 255.296875 406.402344 255.296875 " fill-opacity="1" fill-rule="nonzero"/><path fill="#ffffff" d="M 408.878906 239.699219 C 408.878906 209.980469 378.921875 179.238281 341.96875 179.238281 C 305.015625 179.238281 275.058594 209.980469 275.058594 239.699219 C 275.058594 269.421875 305.015625 286.863281 341.96875 286.863281 C 378.921875 286.863281 408.878906 269.421875 408.878906 239.699219 " fill-opacity="1" fill-rule="nonzero"/><path fill="#000000" d="M 341.96875 179.867188 C 304.03125 179.867188 275.6875 211.457031 275.6875 239.699219 C 275.6875 253.648438 282.367188 265.476562 295.003906 273.910156 C 306.925781 281.859375 323.605469 286.234375 341.96875 286.234375 C 360.332031 286.234375 377.007812 281.859375 388.933594 273.910156 C 401.570312 265.476562 408.25 253.648438 408.25 239.699219 C 408.25 211.457031 379.902344 179.867188 341.96875 179.867188 Z M 341.96875 287.488281 C 323.363281 287.488281 306.433594 283.035156 294.3125 274.949219 C 281.304688 266.277344 274.433594 254.085938 274.433594 239.699219 C 274.433594 224.960938 281.648438 209.714844 294.226562 197.871094 C 307.417969 185.453125 324.371094 178.613281 341.96875 178.613281 C 359.566406 178.613281 376.523438 185.453125 389.707031 197.871094 C 402.285156 209.714844 409.5 224.960938 409.5 239.699219 C 409.5 254.085938 402.628906 266.277344 389.625 274.949219 C 377.5 283.035156 360.574219 287.488281 341.96875 287.488281 " fill-opacity="1" fill-rule="nonzero"/><path fill="#ffffff" d="M 325.210938 295.792969 L 358.730469 295.792969 C 373.417969 295.792969 385.328125 307.699219 385.328125 322.390625 C 385.328125 332.097656 384.382812 341.78125 382.503906 351.300781 L 377.683594 375.707031 C 374.316406 392.765625 359.355469 405.0625 341.96875 405.0625 C 324.582031 405.0625 309.621094 392.765625 306.253906 375.707031 L 301.4375 351.300781 C 299.554688 341.78125 298.609375 332.097656 298.609375 322.390625 C 298.609375 307.699219 310.519531 295.792969 325.210938 295.792969 " fill-opacity="1" fill-rule="nonzero"/><path fill="#000000" d="M 325.207031 296.417969 C 310.886719 296.417969 299.234375 308.066406 299.234375 322.390625 C 299.234375 332.035156 300.183594 341.722656 302.050781 351.179688 L 306.871094 375.585938 C 310.171875 392.300781 324.929688 404.433594 341.96875 404.433594 C 359.003906 404.433594 373.769531 392.300781 377.070312 375.585938 L 381.890625 351.179688 C 383.757812 341.722656 384.703125 332.035156 384.703125 322.390625 C 384.703125 308.066406 373.050781 296.417969 358.730469 296.417969 Z M 341.96875 405.6875 C 324.335938 405.6875 309.058594 393.128906 305.640625 375.828125 L 300.820312 351.425781 C 298.941406 341.882812 297.984375 332.117188 297.984375 322.390625 C 297.984375 307.378906 310.195312 295.167969 325.207031 295.167969 L 358.730469 295.167969 C 373.742188 295.167969 385.953125 307.378906 385.953125 322.390625 C 385.953125 332.117188 385 341.882812 383.117188 351.425781 L 378.296875 375.828125 C 374.878906 393.128906 359.601562 405.6875 341.96875 405.6875 " fill-opacity="1" fill-rule="nonzero"/><path fill="#e7f0ff" d="M 339.8125 354.726562 L 344.125 354.726562 C 353.011719 354.726562 360.214844 347.523438 360.214844 338.640625 L 360.214844 295.792969 L 323.722656 295.792969 L 323.722656 338.640625 C 323.722656 347.523438 330.925781 354.726562 339.8125 354.726562 " fill-opacity="1" fill-rule="nonzero"/><path fill="#000000" d="M 360.214844 296.417969 L 323.722656 296.417969 C 323.378906 296.417969 323.097656 296.136719 323.097656 295.792969 C 323.097656 295.445312 323.378906 295.164062 323.722656 295.164062 L 360.214844 295.164062 C 360.558594 295.164062 360.839844 295.445312 360.839844 295.792969 C 360.839844 296.136719 360.558594 296.417969 360.214844 296.417969 " fill-opacity="1" fill-rule="nonzero"/><path fill="#000000" d="M 296.984375 230.78125 L 361.414062 230.78125 C 368.109375 230.78125 373.535156 236.628906 373.535156 243.84375 L 373.535156 252.363281 C 373.535156 257.863281 370.597656 263.691406 365.535156 264.644531 C 347.679688 268 310.71875 268 292.863281 264.644531 C 287.800781 263.691406 284.863281 257.863281 284.863281 252.363281 L 284.863281 243.84375 C 284.863281 236.628906 290.292969 230.78125 296.984375 230.78125 " fill-opacity="1" fill-rule="nonzero"/><path fill="#f96f5f" d="M 344.339844 247.925781 C 344.339844 250.34375 346.160156 252.304688 348.402344 252.304688 C 350.644531 252.304688 352.464844 250.34375 352.464844 247.925781 C 352.464844 245.511719 350.644531 243.550781 348.402344 243.550781 C 346.160156 243.550781 344.339844 245.511719 344.339844 247.925781 " fill-opacity="1" fill-rule="nonzero"/><path fill="#f96f5f" d="M 301.140625 247.925781 C 301.140625 250.34375 302.960938 252.304688 305.203125 252.304688 C 307.445312 252.304688 309.261719 250.34375 309.261719 247.925781 C 309.261719 245.511719 307.445312 243.550781 305.203125 243.550781 C 302.960938 243.550781 301.140625 245.511719 301.140625 247.925781 " fill-opacity="1" fill-rule="nonzero"/><path fill="#f96f5f" d="M 368.554688 273.652344 C 368.289062 273.652344 368.046875 273.484375 367.960938 273.222656 C 367.851562 272.894531 368.03125 272.539062 368.359375 272.433594 L 388.929688 265.660156 C 398.3125 262.570312 404.03125 253.246094 402.539062 243.488281 L 401.058594 233.8125 C 401.003906 233.46875 401.238281 233.152344 401.578125 233.097656 C 401.925781 233.046875 402.242188 233.28125 402.292969 233.621094 L 403.773438 243.296875 C 405.363281 253.664062 399.285156 263.570312 389.320312 266.847656 L 368.75 273.621094 C 368.6875 273.640625 368.621094 273.652344 368.554688 273.652344 " fill-opacity="1" fill-rule="nonzero"/><path fill="#f96f5f" d="M 411.359375 229.648438 C 411.082031 229.648438 410.828125 229.464844 410.753906 229.183594 C 410.71875 229.058594 407.269531 216.292969 398.207031 203.902344 C 389.875 192.519531 374.949219 179.125 351.109375 179.976562 C 350.773438 179.984375 350.472656 179.71875 350.464844 179.371094 C 350.453125 179.027344 350.722656 178.738281 351.066406 178.722656 C 361.828125 178.34375 371.746094 180.75 380.519531 185.875 C 387.53125 189.96875 393.828125 195.796875 399.238281 203.199219 C 408.433594 215.773438 411.929688 228.734375 411.964844 228.863281 C 412.050781 229.199219 411.851562 229.539062 411.519531 229.628906 C 411.464844 229.644531 411.410156 229.648438 411.359375 229.648438 " fill-opacity="1" fill-rule="nonzero"/><path fill="#6ce5e8" d="M 393.8125 244.09375 C 392.710938 235.382812 398.292969 227.503906 406.277344 226.492188 C 407.152344 226.382812 410.398438 226.296875 411.253906 226.355469 C 418.183594 226.820312 421.753906 232.679688 422.738281 240.433594 C 423.792969 248.800781 420.609375 256.613281 413.128906 258.101562 C 412.820312 258.164062 410.605469 258.339844 410.28125 258.339844 C 401.527344 258.367188 394.914062 252.804688 393.8125 244.09375 " fill-opacity="1" fill-rule="nonzero"/><path fill="#f96f5f" d="M 397.265625 243.8125 C 396.335938 235.082031 402.070312 227.3125 410.074219 226.457031 C 418.078125 225.605469 425.324219 231.988281 426.257812 240.71875 C 427.1875 249.453125 421.453125 257.21875 413.449219 258.074219 C 405.441406 258.925781 398.199219 252.542969 397.265625 243.8125 " fill-opacity="1" fill-rule="nonzero"/><path fill="#f96f5f" d="M 373.191406 276.074219 L 357.167969 277.597656 C 356.558594 277.65625 356.007812 277.199219 355.949219 276.589844 L 355.480469 271.660156 C 355.421875 271.046875 355.878906 270.496094 356.492188 270.441406 L 372.515625 268.917969 C 373.125 268.859375 373.675781 269.3125 373.734375 269.925781 L 374.199219 274.855469 C 374.257812 275.46875 373.804688 276.015625 373.191406 276.074219 " fill-opacity="1" fill-rule="nonzero"/><path fill="#6ce5e8" d="M 307.496094 390.25 L 369.882812 390.25 L 345.652344 324.722656 L 283.265625 324.722656 L 307.496094 390.25 " fill-opacity="1" fill-rule="nonzero"/><path fill="#000000" d="M 307.933594 389.625 L 368.984375 389.625 L 345.214844 325.347656 L 284.164062 325.347656 Z M 369.882812 390.878906 L 307.496094 390.878906 C 307.238281 390.878906 307.003906 390.714844 306.910156 390.46875 L 282.679688 324.9375 C 282.609375 324.75 282.636719 324.535156 282.75 324.363281 C 282.871094 324.195312 283.0625 324.097656 283.265625 324.097656 L 345.652344 324.097656 C 345.914062 324.097656 346.148438 324.261719 346.238281 324.507812 L 370.472656 390.035156 C 370.542969 390.226562 370.515625 390.441406 370.394531 390.609375 C 370.28125 390.777344 370.085938 390.878906 369.882812 390.878906 " fill-opacity="1" fill-rule="nonzero"/><path fill="#000000" d="M 384.769531 373.980469 C 393.929688 373.980469 406.328125 372.675781 414.277344 366.582031 C 418.855469 363.070312 421.53125 358.433594 422.226562 352.800781 C 425.355469 327.515625 394.839844 313.042969 393.539062 312.4375 C 391.195312 311.351562 388.417969 312.367188 387.328125 314.710938 C 386.242188 317.054688 387.257812 319.832031 389.59375 320.917969 C 389.851562 321.039062 415.234375 333.136719 412.945312 351.65625 C 412.5625 354.746094 411.136719 357.203125 408.582031 359.160156 C 399.84375 365.859375 376.800781 365.691406 370.195312 364.761719 C 367.636719 364.402344 366.382812 366.097656 366.027344 368.652344 C 365.667969 371.210938 367.628906 373.65625 370.195312 373.9375 C 373.898438 374.347656 378.242188 373.980469 384.769531 373.980469 " fill-opacity="1" fill-rule="nonzero"/><path fill="#000000" d="M 350.246094 380.347656 L 359.226562 380.347656 C 364.136719 380.347656 368.203125 376.664062 368.691406 371.78125 L 369.003906 368.652344 C 369.273438 365.984375 368.394531 363.3125 366.59375 361.324219 C 364.792969 359.335938 362.222656 358.195312 359.539062 358.195312 L 345.210938 358.195312 C 342.628906 358.195312 340.535156 360.289062 340.535156 362.875 C 340.535156 365.457031 342.628906 367.550781 345.210938 367.550781 L 359.539062 367.550781 C 359.566406 367.550781 359.609375 367.550781 359.65625 367.601562 C 359.703125 367.652344 359.699219 367.695312 359.695312 367.722656 L 359.382812 370.847656 C 359.375 370.929688 359.308594 370.992188 359.226562 370.992188 L 350.246094 370.992188 C 347.664062 370.992188 345.566406 373.085938 345.566406 375.667969 C 345.566406 378.25 347.664062 380.347656 350.246094 380.347656 " fill-opacity="1" fill-rule="nonzero"/><path fill="#6ce5e8" d="M 247.882812 153.339844 C 253.5 151.578125 259.480469 154.707031 261.242188 160.324219 C 263 165.941406 259.875 171.921875 254.257812 173.683594 C 248.640625 175.441406 242.660156 172.3125 240.898438 166.699219 C 239.140625 161.082031 242.265625 155.101562 247.882812 153.339844 Z M 230.015625 167.9375 L 231.25 171.890625 L 235.757812 171.519531 C 236.210938 172.386719 236.722656 173.203125 237.300781 173.960938 L 235.050781 177.875 L 238.097656 180.675781 L 241.816406 178.101562 C 242.628906 178.617188 243.484375 179.0625 244.367188 179.4375 L 244.378906 183.960938 L 248.417969 184.863281 L 250.347656 180.78125 C 251.300781 180.820312 252.265625 180.777344 253.230469 180.652344 L 255.5 184.566406 L 259.449219 183.328125 L 259.082031 178.820312 C 259.945312 178.371094 260.757812 177.855469 261.519531 177.28125 L 265.433594 179.53125 L 268.234375 176.484375 L 265.664062 172.765625 C 266.175781 171.953125 266.625 171.097656 266.996094 170.210938 L 271.519531 170.203125 L 272.425781 166.164062 L 268.339844 164.230469 C 268.378906 163.277344 268.339844 162.316406 268.214844 161.347656 L 272.125 159.078125 L 270.886719 155.128906 L 266.382812 155.5 C 265.933594 154.636719 265.414062 153.820312 264.839844 153.0625 L 267.089844 149.144531 L 264.042969 146.34375 L 260.324219 148.917969 C 259.511719 148.402344 258.65625 147.957031 257.769531 147.582031 L 257.761719 143.058594 L 253.722656 142.15625 L 251.789062 146.238281 C 250.839844 146.199219 249.875 146.242188 248.910156 146.367188 L 246.640625 142.453125 L 242.691406 143.691406 L 243.058594 148.199219 C 242.195312 148.648438 241.378906 149.164062 240.621094 149.742188 L 236.707031 147.488281 L 233.902344 150.535156 L 236.476562 154.253906 C 235.960938 155.066406 235.515625 155.921875 235.144531 156.808594 L 230.621094 156.820312 L 229.714844 160.859375 L 233.800781 162.789062 C 233.761719 163.742188 233.800781 164.703125 233.925781 165.671875 L 230.015625 167.9375 " fill-opacity="1" fill-rule="nonzero"/><path fill="#e7f0ff" d="M 206.6875 150.007812 C 210.414062 148.839844 214.378906 150.914062 215.546875 154.640625 C 216.714844 158.363281 214.640625 162.328125 210.917969 163.496094 C 207.191406 164.664062 203.226562 162.589844 202.058594 158.867188 C 200.890625 155.140625 202.964844 151.175781 206.6875 150.007812 Z M 194.839844 159.691406 L 195.660156 162.308594 L 198.648438 162.066406 C 198.949219 162.636719 199.289062 163.179688 199.671875 163.679688 L 198.179688 166.28125 L 200.199219 168.136719 L 202.667969 166.429688 C 203.203125 166.773438 203.769531 167.066406 204.359375 167.316406 L 204.363281 170.316406 L 207.042969 170.914062 L 208.324219 168.207031 C 208.957031 168.234375 209.59375 168.203125 210.238281 168.121094 L 211.742188 170.714844 L 214.359375 169.894531 L 214.117188 166.90625 C 214.6875 166.609375 215.230469 166.265625 215.734375 165.886719 L 218.328125 167.375 L 220.1875 165.355469 L 218.480469 162.890625 C 218.820312 162.351562 219.117188 161.785156 219.367188 161.199219 L 222.363281 161.191406 L 222.964844 158.511719 L 220.257812 157.230469 C 220.28125 156.597656 220.253906 155.960938 220.171875 155.320312 L 222.765625 153.816406 L 221.945312 151.195312 L 218.957031 151.441406 C 218.660156 150.867188 218.316406 150.328125 217.933594 149.820312 L 219.429688 147.226562 L 217.40625 145.367188 L 214.941406 147.074219 C 214.402344 146.734375 213.835938 146.4375 213.246094 146.1875 L 213.242188 143.191406 L 210.5625 142.589844 L 209.28125 145.300781 C 208.648438 145.273438 208.011719 145.300781 207.371094 145.382812 L 205.867188 142.789062 L 203.246094 143.609375 L 203.492188 146.597656 C 202.917969 146.898438 202.378906 147.238281 201.875 147.621094 L 199.277344 146.128906 L 197.417969 148.148438 L 199.125 150.617188 C 198.785156 151.152344 198.488281 151.722656 198.238281 152.308594 L 195.242188 152.316406 L 194.640625 154.992188 L 197.347656 156.277344 C 197.324219 156.90625 197.351562 157.542969 197.433594 158.183594 L 194.839844 159.691406 " fill-opacity="1" fill-rule="nonzero"/><path fill="#000000" d="M 414.28125 181.632812 C 414.25 181.632812 414.21875 181.632812 414.183594 181.625 C 413.84375 181.574219 413.609375 181.253906 413.664062 180.910156 L 414.167969 177.707031 C 414.222656 177.367188 414.546875 177.132812 414.882812 177.1875 C 415.226562 177.242188 415.460938 177.5625 415.40625 177.902344 L 414.898438 181.105469 C 414.851562 181.414062 414.585938 181.632812 414.28125 181.632812 " fill-opacity="1" fill-rule="nonzero"/><path fill="#000000" d="M 412.515625 192.851562 C 412.484375 192.851562 412.445312 192.847656 412.417969 192.839844 C 412.074219 192.789062 411.84375 192.46875 411.894531 192.128906 L 412.402344 188.921875 C 412.453125 188.582031 412.777344 188.347656 413.113281 188.402344 C 413.457031 188.457031 413.691406 188.777344 413.636719 189.117188 L 413.132812 192.320312 C 413.085938 192.628906 412.816406 192.851562 412.515625 192.851562 " fill-opacity="1" fill-rule="nonzero"/><path fill="#000000" d="M 409.714844 184.957031 C 409.679688 184.957031 409.644531 184.957031 409.605469 184.949219 L 406.460938 184.40625 C 406.121094 184.347656 405.890625 184.023438 405.949219 183.683594 C 406.007812 183.339844 406.328125 183.113281 406.671875 183.171875 L 409.820312 183.714844 C 410.160156 183.773438 410.390625 184.097656 410.332031 184.441406 C 410.277344 184.746094 410.015625 184.957031 409.714844 184.957031 " fill-opacity="1" fill-rule="nonzero"/><path fill="#000000" d="M 420.738281 186.863281 C 420.703125 186.863281 420.667969 186.863281 420.628906 186.855469 L 417.480469 186.3125 C 417.140625 186.253906 416.914062 185.929688 416.972656 185.589844 C 417.03125 185.246094 417.347656 185.019531 417.695312 185.078125 L 420.84375 185.621094 C 421.183594 185.679688 421.414062 186.003906 421.355469 186.34375 C 421.300781 186.648438 421.039062 186.863281 420.738281 186.863281 " fill-opacity="1" fill-rule="nonzero"/><path fill="#000000" d="M 398.027344 403.351562 C 397.996094 403.351562 397.960938 403.347656 397.929688 403.34375 C 397.585938 403.289062 397.355469 402.96875 397.40625 402.628906 L 397.914062 399.421875 C 397.964844 399.082031 398.285156 398.847656 398.628906 398.902344 C 398.96875 398.957031 399.203125 399.277344 399.148438 399.617188 L 398.644531 402.820312 C 398.597656 403.128906 398.328125 403.351562 398.027344 403.351562 " fill-opacity="1" fill-rule="nonzero"/><path fill="#000000" d="M 396.257812 414.566406 C 396.222656 414.566406 396.1875 414.5625 396.160156 414.558594 C 395.816406 414.503906 395.585938 414.183594 395.636719 413.84375 L 396.140625 410.640625 C 396.195312 410.296875 396.515625 410.066406 396.859375 410.117188 C 397.199219 410.171875 397.433594 410.492188 397.378906 410.835938 L 396.875 414.039062 C 396.824219 414.34375 396.558594 414.566406 396.257812 414.566406 " fill-opacity="1" fill-rule="nonzero"/><path fill="#000000" d="M 393.457031 406.675781 C 393.421875 406.675781 393.386719 406.671875 393.351562 406.667969 L 390.203125 406.121094 C 389.859375 406.0625 389.632812 405.738281 389.691406 405.398438 C 389.75 405.058594 390.070312 404.828125 390.414062 404.890625 L 393.5625 405.433594 C 393.902344 405.492188 394.132812 405.816406 394.074219 406.15625 C 394.019531 406.460938 393.757812 406.675781 393.457031 406.675781 " fill-opacity="1" fill-rule="nonzero"/><path fill="#000000" d="M 404.480469 408.578125 C 404.445312 408.578125 404.410156 408.578125 404.375 408.570312 L 401.222656 408.027344 C 400.886719 407.96875 400.65625 407.644531 400.714844 407.304688 C 400.773438 406.960938 401.09375 406.734375 401.4375 406.792969 L 404.585938 407.339844 C 404.925781 407.398438 405.15625 407.722656 405.097656 408.0625 C 405.042969 408.367188 404.78125 408.578125 404.480469 408.578125 " fill-opacity="1" fill-rule="nonzero"/><path fill="#ffffff" d="M 361.851562 419.769531 C 362.871094 419.625 364.003906 419.707031 365.25 420.125 L 380.054688 423.378906 C 380.054688 423.378906 376.785156 427.398438 373.378906 427.628906 C 375.222656 430.492188 376.28125 433.042969 376.28125 433.042969 C 376.28125 433.042969 382.839844 434.671875 384.191406 435.269531 C 385.546875 435.871094 387.488281 436.53125 388.433594 437.941406 C 389.386719 439.355469 389.273438 441.484375 389.273438 441.484375 L 373.5625 440.496094 L 359.460938 428.6875 L 333.589844 441.523438 L 334.738281 425.582031 L 361.851562 419.769531 " fill-opacity="1" fill-rule="nonzero"/><path fill="#000000" d="M 373.808594 439.882812 L 388.636719 440.816406 C 388.59375 440.144531 388.441406 439.070312 387.914062 438.289062 C 387.203125 437.230469 385.730469 436.605469 384.542969 436.101562 C 384.332031 436.015625 384.128906 435.925781 383.941406 435.84375 C 382.871094 435.367188 377.9375 434.097656 376.128906 433.648438 C 375.933594 433.601562 375.777344 433.464844 375.699219 433.28125 C 375.691406 433.253906 374.640625 430.746094 372.851562 427.964844 C 372.730469 427.78125 372.71875 427.542969 372.820312 427.347656 C 372.917969 427.148438 373.117188 427.019531 373.335938 427.003906 C 375.550781 426.851562 377.769531 424.886719 378.863281 423.761719 L 365.113281 420.734375 C 365.09375 420.730469 365.070312 420.726562 365.050781 420.71875 C 363.988281 420.363281 362.949219 420.25 361.957031 420.386719 L 335.324219 426.097656 L 334.289062 440.480469 L 359.183594 428.128906 C 359.402344 428.019531 359.671875 428.050781 359.859375 428.210938 Z M 333.585938 442.152344 C 333.464844 442.152344 333.339844 442.117188 333.238281 442.046875 C 333.050781 441.921875 332.945312 441.707031 332.964844 441.484375 L 334.109375 425.539062 C 334.132812 425.261719 334.332031 425.03125 334.605469 424.972656 L 361.71875 419.15625 C 361.730469 419.15625 361.746094 419.152344 361.761719 419.148438 C 362.941406 418.984375 364.171875 419.109375 365.414062 419.519531 L 380.1875 422.769531 C 380.402344 422.816406 380.574219 422.96875 380.644531 423.175781 C 380.714844 423.382812 380.675781 423.609375 380.539062 423.777344 C 380.414062 423.933594 377.640625 427.296875 374.40625 428.09375 C 375.632812 430.109375 376.4375 431.839844 376.730469 432.507812 C 378.054688 432.839844 383.214844 434.152344 384.445312 434.699219 C 384.632812 434.78125 384.828125 434.863281 385.03125 434.949219 C 386.367188 435.519531 388.03125 436.226562 388.953125 437.59375 C 390.007812 439.160156 389.90625 441.417969 389.898438 441.515625 C 389.894531 441.683594 389.816406 441.839844 389.691406 441.949219 C 389.566406 442.058594 389.402344 442.117188 389.234375 442.109375 L 373.523438 441.121094 C 373.390625 441.113281 373.261719 441.0625 373.160156 440.976562 L 359.371094 429.429688 L 333.863281 442.085938 C 333.777344 442.128906 333.679688 442.152344 333.585938 442.152344 " fill-opacity="1" fill-rule="nonzero"/><g clip-path="url(#2ef4ba1b45)"><path fill="#f96f5f" d="M 361.101562 433.257812 C 361.101562 433.257812 351.71875 418.660156 351.703125 418.640625 C 350.964844 417.492188 344.792969 419.324219 343.652344 419.390625 C 339.5625 419.628906 335.308594 418.960938 331.230469 418.507812 C 322.519531 417.542969 313.859375 416.140625 305.289062 414.308594 C 298.292969 412.816406 291.253906 410.996094 285.054688 407.421875 C 276.890625 402.71875 272.609375 395.394531 269.339844 386.84375 C 266.867188 380.386719 263.921875 374.988281 260.234375 369.070312 C 254.777344 360.320312 245.71875 353.136719 238.203125 349.40625 C 226.519531 343.613281 212.933594 340.8125 199.992188 343.394531 C 175.015625 348.378906 157.9375 362.9375 157.9375 362.9375 C 144.347656 373.785156 119.246094 411.613281 128.195312 429.828125 C 139.171875 452.164062 168.757812 439.097656 168.757812 439.097656 C 168.757812 439.097656 171.628906 443.785156 165.457031 458.046875 C 157.957031 475.371094 168.824219 477.6875 168.824219 477.6875 C 194.078125 490.035156 260.980469 487.273438 255.273438 473.488281 C 249.167969 458.730469 249.066406 440.019531 249.066406 440.019531 C 257.507812 448.367188 275.789062 450.128906 275.789062 450.128906 C 275.789062 450.128906 291.222656 451.589844 301.023438 449.921875 C 355.875 441.789062 361.101562 433.257812 361.101562 433.257812 " fill-opacity="1" fill-rule="nonzero"/></g><path fill="#000000" d="M 169.132812 428.199219 C 168.875 428.199219 168.632812 428.039062 168.542969 427.777344 C 160.183594 403.585938 164.066406 384.046875 164.105469 383.851562 C 164.175781 383.511719 164.507812 383.292969 164.84375 383.363281 C 165.183594 383.433594 165.402344 383.765625 165.332031 384.105469 C 165.292969 384.296875 161.484375 403.519531 169.726562 427.371094 C 169.839844 427.699219 169.664062 428.050781 169.339844 428.167969 C 169.273438 428.1875 169.203125 428.199219 169.132812 428.199219 " fill-opacity="1" fill-rule="nonzero"/><path fill="#000000" d="M 248.570312 440.777344 C 248.410156 440.777344 248.253906 440.71875 248.132812 440.597656 C 235.0625 427.832031 225.964844 398.1875 225.582031 396.929688 C 225.484375 396.597656 225.667969 396.25 226 396.148438 C 226.332031 396.050781 226.679688 396.238281 226.78125 396.566406 C 226.871094 396.871094 236.167969 427.164062 249.007812 439.703125 C 249.253906 439.945312 249.257812 440.339844 249.015625 440.585938 C 248.894531 440.714844 248.730469 440.777344 248.570312 440.777344 " fill-opacity="1" fill-rule="nonzero"/><path fill="#ffffff" d="M 214.253906 284.238281 C 219.300781 284.261719 223.953125 286.992188 226.488281 291.355469 C 227.660156 293.378906 228.726562 295.261719 228.945312 295.796875 C 229.433594 297.007812 230.515625 301.082031 234.484375 305.007812 C 234.875 305.398438 234.929688 306.007812 234.589844 306.441406 L 232.050781 309.695312 C 231.875 309.917969 231.800781 310.203125 231.851562 310.484375 C 232.152344 312.21875 233.667969 318.511719 233.21875 319.644531 C 232.269531 322.054688 226.515625 322.703125 224.8125 322.847656 C 224.492188 322.871094 224.207031 323.050781 224.050781 323.332031 C 223.5 324.332031 222.039062 327.1875 220.84375 334.320312 C 219.019531 345.183594 229.375 346.871094 227.265625 347.9375 C 212.550781 355.363281 185.457031 353.671875 187.03125 350.585938 C 188.320312 348.042969 203.1875 341.46875 204.570312 323.597656 C 205.433594 312.453125 189.828125 311.539062 201.074219 290.328125 C 203.6875 285.398438 209.34375 284.214844 214.253906 284.238281 " fill-opacity="1" fill-rule="nonzero"/><path fill="#000000" d="M 187.605469 350.832031 C 187.671875 350.914062 187.910156 351.128906 188.671875 351.394531 C 193.960938 353.238281 214.214844 353.65625 226.695312 347.523438 C 226.492188 347.363281 226.214844 347.167969 225.972656 346.996094 C 223.679688 345.394531 218.910156 342.058594 220.226562 334.214844 C 221.066406 329.203125 222.171875 325.4375 223.503906 323.03125 C 223.757812 322.570312 224.230469 322.265625 224.761719 322.222656 C 227.988281 321.953125 231.992188 321.058594 232.636719 319.414062 C 232.910156 318.699219 231.988281 314.277344 231.59375 312.386719 C 231.441406 311.640625 231.304688 310.996094 231.234375 310.589844 C 231.15625 310.140625 231.273438 309.671875 231.558594 309.308594 L 234.097656 306.058594 C 234.238281 305.878906 234.214844 305.625 234.042969 305.453125 C 230.488281 301.933594 229.199219 298.339844 228.582031 296.613281 C 228.496094 296.378906 228.425781 296.179688 228.363281 296.03125 C 228.265625 295.789062 227.820312 294.902344 225.945312 291.671875 C 223.523438 287.492188 219.039062 284.886719 214.25 284.863281 C 214.207031 284.863281 214.164062 284.863281 214.121094 284.863281 C 209.78125 284.863281 204.144531 285.875 201.625 290.621094 C 194.667969 303.746094 198.167969 308.773438 201.550781 313.636719 C 203.503906 316.445312 205.527344 319.351562 205.195312 323.644531 C 204.109375 337.648438 195.039062 344.753906 190.164062 348.570312 C 188.941406 349.53125 187.878906 350.359375 187.605469 350.832031 Z M 200.019531 353.828125 C 193.28125 353.828125 187.96875 352.972656 186.746094 351.746094 C 186.320312 351.320312 186.222656 350.792969 186.472656 350.300781 C 186.835938 349.585938 187.851562 348.789062 189.394531 347.582031 C 194.117188 343.886719 202.90625 337.003906 203.949219 323.550781 C 204.246094 319.699219 202.4375 317.101562 200.523438 314.347656 C 197.09375 309.421875 193.207031 303.835938 200.519531 290.035156 C 202.75 285.832031 207.449219 283.613281 214.117188 283.613281 C 214.164062 283.613281 214.210938 283.613281 214.257812 283.613281 C 219.488281 283.636719 224.382812 286.484375 227.027344 291.042969 C 229.226562 294.832031 229.449219 295.382812 229.523438 295.558594 C 229.589844 295.722656 229.664062 295.9375 229.757812 296.195312 C 230.347656 297.832031 231.570312 301.246094 234.925781 304.5625 C 235.542969 305.175781 235.613281 306.152344 235.082031 306.828125 L 232.542969 310.078125 C 232.476562 310.164062 232.449219 310.269531 232.46875 310.375 C 232.535156 310.761719 232.667969 311.398438 232.820312 312.132812 C 233.746094 316.570312 234.152344 318.988281 233.800781 319.875 C 232.753906 322.535156 227.203125 323.273438 224.863281 323.46875 C 224.75 323.480469 224.652344 323.542969 224.597656 323.636719 C 223.023438 326.480469 222.023438 331.070312 221.460938 334.421875 C 220.273438 341.484375 224.445312 344.40625 226.6875 345.972656 C 227.644531 346.640625 228.21875 347.042969 228.171875 347.675781 C 228.15625 347.914062 228.035156 348.25 227.546875 348.496094 C 219.8125 352.398438 208.722656 353.828125 200.019531 353.828125 " fill-opacity="1" fill-rule="nonzero"/><path fill="#000000" d="M 222.832031 301.417969 L 228.71875 294.050781 C 231.738281 290.269531 230.683594 284.703125 226.503906 282.265625 C 225.347656 281.589844 223.984375 280.882812 222.464844 280.226562 C 207.347656 273.71875 190.027344 284.460938 190.011719 300.917969 C 190.003906 307.65625 194.507812 315.464844 204.078125 322.40625 C 204.078125 322.40625 210.804688 317.101562 210.71875 311.363281 C 210.71875 311.363281 205.839844 305.574219 212.714844 302.644531 C 214.03125 302.082031 215.535156 302.125 216.820312 302.757812 C 218.890625 303.777344 221.390625 303.21875 222.832031 301.417969 " fill-opacity="1" fill-rule="nonzero"/><path fill="#000000" d="M 213.863281 314.625 C 211.910156 314.625 209.410156 313.792969 207.554688 310.28125 C 207.390625 309.976562 207.507812 309.597656 207.816406 309.433594 C 208.121094 309.273438 208.5 309.390625 208.660156 309.695312 C 211.589844 315.238281 216.191406 312.933594 216.386719 312.832031 C 216.691406 312.671875 217.070312 312.789062 217.230469 313.097656 C 217.390625 313.402344 217.273438 313.777344 216.96875 313.9375 C 216.941406 313.953125 215.621094 314.625 213.863281 314.625 " fill-opacity="1" fill-rule="nonzero"/><path fill="#000000" d="M 197.890625 285.296875 C 197.890625 285.296875 192.785156 267.636719 174.160156 270.960938 C 162.535156 273.035156 152.378906 280.847656 146.800781 293.597656 C 142.675781 303.03125 142.84375 311.382812 141.9375 321.269531 C 141.125 330.117188 133.246094 336.023438 131.464844 344.433594 C 129.285156 354.703125 139.28125 362.109375 148.910156 360.199219 C 159.667969 358.070312 169.648438 346.824219 174.050781 337.402344 C 178.601562 327.664062 179.355469 316.847656 181.65625 306.488281 C 182.652344 302 183.40625 295.796875 186.980469 292.691406 C 188.816406 291.09375 194.847656 290.917969 195.894531 288.984375 C 195.894531 288.984375 197.890625 285.296875 197.890625 285.296875 " fill-opacity="1" fill-rule="nonzero"/><g clip-path="url(#6cc6f00759)"><path fill="#ffffff" d="M 440.058594 84.867188 L 310.28125 125.820312 C 307.496094 126.699219 304.523438 125.152344 303.644531 122.363281 L 289.625 77.925781 C 288.746094 75.136719 290.292969 72.164062 293.078125 71.285156 L 422.855469 30.332031 C 425.640625 29.449219 428.613281 30.996094 429.492188 33.785156 L 443.511719 78.222656 C 444.390625 81.011719 442.84375 83.984375 440.058594 84.867188 " fill-opacity="1" fill-rule="nonzero"/></g><path fill="#d3362d" d="M 297.628906 76.886719 C 296.929688 77.105469 296.542969 77.851562 296.761719 78.554688 L 309.128906 117.753906 C 309.347656 118.449219 310.097656 118.839844 310.792969 118.621094 L 435.507812 79.265625 C 436.207031 79.042969 436.597656 78.296875 436.375 77.597656 L 424.007812 38.398438 C 423.789062 37.699219 423.039062 37.308594 422.339844 37.527344 Z M 436.253906 81.636719 L 311.542969 120.992188 C 309.535156 121.625 307.390625 120.507812 306.757812 118.5 L 294.390625 79.300781 C 293.757812 77.292969 294.875 75.148438 296.878906 74.515625 L 421.59375 35.160156 C 423.597656 34.523438 425.746094 35.640625 426.378906 37.648438 L 438.746094 76.847656 C 439.378906 78.855469 438.261719 81.003906 436.253906 81.636719 " fill-opacity="1" fill-rule="nonzero"/><path fill="#d3362d" d="M 333 82.625 L 324.894531 85.183594 C 324.605469 84.34375 324.0625 83.792969 323.28125 83.515625 C 322.5 83.242188 321.554688 83.277344 320.449219 83.625 C 318.546875 84.226562 317.785156 85.105469 318.148438 86.265625 C 318.25 86.582031 318.503906 86.835938 318.910156 87.027344 C 319.320312 87.214844 319.835938 87.320312 320.46875 87.335938 C 321.097656 87.359375 321.667969 87.359375 322.183594 87.339844 C 322.699219 87.324219 323.273438 87.28125 323.90625 87.210938 C 324.535156 87.144531 324.90625 87.105469 325.023438 87.097656 C 326.21875 87.039062 327.257812 87.015625 328.132812 87.03125 C 329.007812 87.042969 329.980469 87.152344 331.054688 87.347656 C 332.128906 87.542969 333.050781 87.847656 333.800781 88.265625 C 334.558594 88.675781 335.273438 89.277344 335.957031 90.058594 C 336.636719 90.84375 337.160156 91.808594 337.515625 92.9375 C 338.441406 95.867188 338.070312 98.542969 336.398438 100.96875 C 334.726562 103.394531 332.007812 105.203125 328.234375 106.390625 C 324.308594 107.632812 320.925781 107.707031 318.089844 106.617188 C 315.25 105.527344 313.3125 103.417969 312.269531 100.296875 L 320.929688 97.566406 C 321.832031 99.949219 323.675781 100.699219 326.46875 99.816406 C 327.550781 99.476562 328.339844 98.996094 328.839844 98.375 C 329.335938 97.753906 329.476562 97.085938 329.253906 96.375 C 329.113281 95.925781 328.800781 95.601562 328.335938 95.402344 C 327.902344 95.21875 327.140625 95.113281 326.058594 95.078125 C 324.972656 95.042969 323.707031 95.042969 322.257812 95.082031 C 320.804688 95.117188 319.882812 95.128906 319.5 95.101562 C 318.246094 95.0625 317.1875 94.976562 316.332031 94.839844 C 315.480469 94.703125 314.613281 94.449219 313.738281 94.074219 C 312.867188 93.695312 312.132812 93.128906 311.53125 92.375 C 310.933594 91.625 310.453125 90.667969 310.085938 89.503906 C 309.253906 86.867188 309.628906 84.410156 311.214844 82.125 C 312.796875 79.84375 315.289062 78.167969 318.691406 77.09375 C 322.277344 75.960938 325.316406 75.878906 327.8125 76.84375 C 330.304688 77.8125 332.03125 79.738281 333 82.625 " fill-opacity="1" fill-rule="nonzero"/><path fill="#d3362d" d="M 350.046875 74.632812 C 348.304688 75.183594 347.160156 76.300781 346.601562 77.980469 C 346.046875 79.667969 346.152344 81.71875 346.917969 84.144531 C 347.707031 86.652344 348.808594 88.441406 350.222656 89.515625 C 351.632812 90.59375 353.238281 90.851562 355.027344 90.285156 C 356.792969 89.726562 357.917969 88.609375 358.40625 86.933594 C 358.894531 85.257812 358.714844 83.089844 357.875 80.425781 C 357.132812 78.078125 356.074219 76.394531 354.691406 75.363281 C 353.308594 74.335938 351.761719 74.089844 350.046875 74.632812 Z M 347.980469 67.675781 C 352.199219 66.34375 356.03125 66.636719 359.476562 68.550781 C 362.921875 70.464844 365.34375 73.632812 366.738281 78.0625 C 368.128906 82.46875 367.953125 86.4375 366.214844 89.972656 C 364.472656 93.507812 361.480469 95.945312 357.238281 97.285156 C 352.910156 98.648438 349.003906 98.398438 345.515625 96.523438 C 342.027344 94.65625 339.582031 91.492188 338.175781 87.035156 C 336.769531 82.578125 336.957031 78.582031 338.742188 75.050781 C 340.523438 71.515625 343.605469 69.054688 347.980469 67.675781 " fill-opacity="1" fill-rule="nonzero"/><path fill="#d3362d" d="M 393.773438 76.925781 L 396.09375 84.28125 L 374.9375 90.960938 L 366.054688 62.800781 L 374.714844 60.066406 L 381.277344 80.871094 L 393.773438 76.925781 " fill-opacity="1" fill-rule="nonzero"/><path fill="#d3362d" d="M 401.820312 59.296875 L 406.226562 73.257812 L 409.628906 72.183594 C 411.710938 71.527344 413.09375 70.425781 413.777344 68.875 C 414.464844 67.324219 414.464844 65.46875 413.78125 63.304688 C 413.042969 60.960938 411.855469 59.390625 410.230469 58.601562 C 408.605469 57.804688 406.65625 57.769531 404.390625 58.484375 Z M 391.125 54.886719 L 403.699219 50.917969 C 408.050781 49.546875 411.894531 49.703125 415.238281 51.386719 C 418.582031 53.070312 420.941406 56.089844 422.316406 60.441406 C 423.777344 65.082031 423.65625 68.988281 421.949219 72.164062 C 420.238281 75.34375 417.066406 77.664062 412.425781 79.128906 L 400.007812 83.046875 L 391.125 54.886719 " fill-opacity="1" fill-rule="nonzero"/></svg>