<svg xmlns="http://www.w3.org/2000/svg" xmlns:xlink="http://www.w3.org/1999/xlink" width="628" zoomAndPan="magnify" viewBox="0 0 470.87997 470.999988" height="628" preserveAspectRatio="xMidYMid meet" version="1.0"><path fill="#e7f0ff" d="M 51.820312 252.488281 C 84.785156 219.164062 22.679688 157.09375 38.121094 112.246094 C 58.90625 51.867188 228.027344 0.101562 341.859375 65.828125 C 437.191406 120.878906 470.292969 244.78125 428.644531 294.863281 C 416.179688 309.855469 400.671875 313.84375 380.296875 329.519531 C 361.34375 344.101562 359.210938 347.820312 357.847656 350.359375 C 344.371094 375.398438 372.714844 397.378906 367.007812 418.855469 C 357.996094 452.789062 267.863281 470.894531 192.484375 459.410156 C 172.160156 456.3125 69.15625 438.304688 31.269531 363.476562 C 28.335938 357.6875 0.597656 301.761719 26.699219 270.648438 C 35.75 259.863281 43.035156 261.371094 51.820312 252.488281 " fill-opacity="1" fill-rule="nonzero"/><path fill="#000000" d="M 379.171875 448.765625 L 369.113281 449.5 L 182.570312 448.765625 C 174.097656 448.765625 168.097656 441.921875 169.167969 433.472656 L 217.574219 51.042969 C 218.644531 42.597656 226.378906 35.753906 234.851562 35.753906 L 421.582031 33.570312 C 443.019531 33.570312 445.921875 42.597656 444.859375 51.042969 L 396.445312 433.472656 C 395.378906 441.921875 387.644531 448.765625 379.171875 448.765625 " fill-opacity="1" fill-rule="nonzero"/><path fill="#ffffff" d="M 167.234375 354.992188 L 205.746094 49.777344 C 206.8125 41.304688 214.550781 34.4375 223.023438 34.4375 L 419.621094 34.4375 C 428.09375 34.4375 434.097656 41.304688 433.027344 49.777344 L 384.617188 433.425781 C 383.546875 441.898438 375.8125 448.765625 367.339844 448.765625 L 170.742188 448.765625 C 162.269531 448.765625 156.269531 441.898438 157.335938 433.425781 L 159.824219 413.726562 L 167.234375 354.992188 " fill-opacity="1" fill-rule="nonzero"/><path fill="#e7f0ff" d="M 168.539062 433.953125 L 214.761719 67.636719 C 215.007812 65.679688 216.792969 64.09375 218.75 64.09375 L 416.40625 64.09375 C 418.363281 64.09375 419.75 65.679688 419.503906 67.636719 L 373.277344 433.953125 C 373.03125 435.910156 371.246094 437.496094 369.289062 437.496094 L 171.632812 437.496094 C 169.679688 437.496094 168.292969 435.910156 168.539062 433.953125 " fill-opacity="1" fill-rule="nonzero"/><path fill="#e7f0ff" d="M 318.859375 53.949219 C 315.683594 53.949219 313.433594 51.378906 313.835938 48.203125 C 314.238281 45.027344 317.136719 42.457031 320.308594 42.457031 C 323.480469 42.457031 325.730469 45.027344 325.328125 48.203125 C 324.929688 51.378906 322.03125 53.949219 318.859375 53.949219 " fill-opacity="1" fill-rule="nonzero"/><path fill="#000000" d="M 166.863281 358.707031 C 166.832031 358.707031 166.796875 358.703125 166.765625 358.699219 C 166.339844 358.644531 166.039062 358.257812 166.089844 357.832031 L 169.777344 328.613281 C 169.832031 328.183594 170.222656 327.886719 170.648438 327.9375 C 171.074219 327.992188 171.375 328.382812 171.320312 328.804688 L 167.632812 358.027344 C 167.582031 358.417969 167.25 358.707031 166.863281 358.707031 " fill-opacity="1" fill-rule="nonzero"/><path fill="#000000" d="M 367.339844 449.539062 L 170.742188 449.539062 C 166.441406 449.539062 162.597656 447.867188 159.917969 444.828125 C 157.207031 441.757812 156.019531 437.671875 156.566406 433.328125 L 159.558594 409.605469 C 159.613281 409.179688 160 408.878906 160.425781 408.933594 C 160.851562 408.984375 161.15625 409.375 161.101562 409.800781 L 158.109375 433.523438 C 157.617188 437.417969 158.671875 441.066406 161.082031 443.800781 C 163.460938 446.503906 166.894531 447.988281 170.742188 447.988281 L 367.339844 447.988281 C 375.421875 447.988281 382.828125 441.410156 383.84375 433.328125 L 432.257812 49.679688 C 432.746094 45.785156 431.691406 42.132812 429.285156 39.398438 C 426.902344 36.699219 423.46875 35.210938 419.621094 35.210938 L 223.019531 35.210938 C 214.941406 35.210938 207.535156 41.789062 206.519531 49.871094 L 198.285156 115.132812 C 198.230469 115.558594 197.835938 115.859375 197.417969 115.808594 C 196.988281 115.75 196.6875 115.363281 196.742188 114.9375 L 204.976562 49.679688 C 206.089844 40.84375 214.1875 33.660156 223.019531 33.660156 L 419.621094 33.660156 C 423.925781 33.660156 427.769531 35.332031 430.445312 38.371094 C 433.15625 41.441406 434.347656 45.527344 433.796875 49.871094 L 385.390625 433.523438 C 384.273438 442.355469 376.175781 449.539062 367.339844 449.539062 " fill-opacity="1" fill-rule="nonzero"/><path fill="#6ce5e8" d="M 385.472656 99.296875 L 291.980469 99.296875 C 288.710938 99.296875 286.0625 96.648438 286.0625 93.378906 C 286.0625 90.109375 288.710938 87.457031 291.980469 87.457031 L 385.472656 87.457031 C 388.742188 87.457031 391.390625 90.109375 391.390625 93.378906 C 391.390625 96.648438 388.742188 99.296875 385.472656 99.296875 " fill-opacity="1" fill-rule="nonzero"/><path fill="#6ce5e8" d="M 409.527344 93.378906 C 409.527344 90.109375 406.878906 87.457031 403.609375 87.457031 C 400.335938 87.457031 397.6875 90.109375 397.6875 93.378906 C 397.6875 96.648438 400.335938 99.300781 403.609375 99.300781 C 406.878906 99.300781 409.527344 96.648438 409.527344 93.378906 " fill-opacity="1" fill-rule="nonzero"/><path fill="#ffffff" d="M 262.039062 202.164062 L 268.183594 202.703125 L 270.492188 176.480469 L 264.347656 175.9375 C 260.308594 175.585938 256.746094 178.570312 256.390625 182.609375 L 255.371094 194.207031 C 255.015625 198.246094 258 201.808594 262.039062 202.164062 " fill-opacity="1" fill-rule="nonzero"/><path fill="#000000" d="M 263.691406 176.6875 C 262.15625 176.6875 260.679688 177.222656 259.488281 178.21875 C 258.144531 179.347656 257.316406 180.929688 257.164062 182.675781 L 256.144531 194.273438 C 255.992188 196.023438 256.527344 197.722656 257.652344 199.066406 C 258.777344 200.410156 260.363281 201.234375 262.109375 201.390625 L 267.476562 201.859375 L 269.644531 177.1875 L 264.277344 176.714844 C 264.082031 176.695312 263.890625 176.6875 263.691406 176.6875 Z M 268.183594 203.480469 C 268.160156 203.480469 268.136719 203.476562 268.113281 203.476562 L 261.972656 202.9375 C 259.8125 202.746094 257.855469 201.726562 256.464844 200.066406 C 255.070312 198.402344 254.40625 196.300781 254.597656 194.136719 L 255.617188 182.539062 C 255.804688 180.378906 256.828125 178.421875 258.488281 177.03125 C 260.152344 175.636719 262.261719 174.972656 264.414062 175.164062 L 270.558594 175.703125 C 270.761719 175.722656 270.953125 175.820312 271.085938 175.980469 C 271.21875 176.136719 271.28125 176.339844 271.265625 176.546875 L 268.957031 202.769531 C 268.9375 202.976562 268.839844 203.164062 268.683594 203.300781 C 268.539062 203.417969 268.363281 203.480469 268.183594 203.480469 " fill-opacity="1" fill-rule="nonzero"/><path fill="#ffffff" d="M 392.726562 213.660156 L 386.585938 213.121094 L 388.894531 186.894531 L 395.035156 187.4375 C 399.074219 187.789062 402.058594 191.351562 401.703125 195.390625 L 400.683594 206.988281 C 400.328125 211.027344 396.765625 214.015625 392.726562 213.660156 " fill-opacity="1" fill-rule="nonzero"/><path fill="#000000" d="M 392.792969 212.882812 C 396.394531 213.203125 399.589844 210.527344 399.910156 206.921875 L 400.929688 195.324219 C 401.246094 191.71875 398.570312 188.527344 394.964844 188.210938 L 389.597656 187.738281 L 387.425781 212.414062 Z M 393.375 214.464844 C 393.140625 214.464844 392.898438 214.453125 392.65625 214.433594 L 386.515625 213.890625 C 386.3125 213.875 386.121094 213.777344 385.992188 213.617188 C 385.855469 213.460938 385.789062 213.253906 385.8125 213.050781 L 388.117188 186.828125 C 388.15625 186.398438 388.535156 186.082031 388.960938 186.121094 L 395.101562 186.664062 C 399.5625 187.054688 402.867188 191 402.476562 195.457031 L 401.457031 207.058594 C 401.082031 211.273438 397.53125 214.464844 393.375 214.464844 " fill-opacity="1" fill-rule="nonzero"/><path fill="#ffffff" d="M 392.074219 199.296875 C 394.550781 171.117188 368.714844 139.46875 333.675781 136.386719 C 298.640625 133.308594 267.671875 159.953125 265.195312 188.132812 C 262.714844 216.3125 289.664062 235.347656 324.699219 238.433594 C 359.738281 241.515625 389.59375 227.472656 392.074219 199.296875 " fill-opacity="1" fill-rule="nonzero"/><path fill="#000000" d="M 328.070312 136.921875 C 313.621094 136.921875 299.472656 141.878906 287.703125 151.152344 C 275.085938 161.097656 267.164062 174.605469 265.964844 188.207031 C 264.804688 201.363281 270.132812 213.082031 281.359375 222.089844 C 291.976562 230.601562 307.390625 236.132812 324.765625 237.660156 C 342.140625 239.1875 358.285156 236.433594 370.21875 229.90625 C 382.851562 223 390.136719 212.390625 391.296875 199.234375 C 392.492188 185.628906 387.050781 170.949219 376.363281 158.949219 C 365.125 146.339844 349.945312 138.601562 333.605469 137.164062 C 331.757812 137 329.910156 136.921875 328.070312 136.921875 Z M 334.023438 239.625 C 330.941406 239.625 327.808594 239.488281 324.628906 239.207031 C 306.953125 237.648438 291.238281 232.003906 280.390625 223.304688 C 268.734375 213.957031 263.210938 201.773438 264.417969 188.070312 C 265.652344 174.042969 273.789062 160.140625 286.742188 149.929688 C 300.320312 139.230469 317.011719 134.144531 333.742188 135.617188 C 350.472656 137.089844 366.019531 145.007812 377.519531 157.917969 C 388.492188 170.230469 394.078125 185.339844 392.84375 199.363281 C 391.636719 213.070312 384.074219 224.101562 370.964844 231.269531 C 360.957031 236.742188 348.082031 239.625 334.023438 239.625 " fill-opacity="1" fill-rule="nonzero"/><path fill="#ffffff" d="M 308.066406 245.496094 L 339.84375 248.296875 C 353.773438 249.519531 364.074219 261.808594 362.847656 275.734375 C 362.039062 284.9375 360.332031 294.039062 357.753906 302.910156 L 351.152344 325.652344 C 346.535156 341.542969 331.324219 351.949219 314.839844 350.503906 C 298.351562 349.050781 285.195312 336.148438 283.425781 319.691406 L 280.890625 296.148438 C 279.90625 286.964844 279.816406 277.703125 280.625 268.503906 C 281.847656 254.574219 294.132812 244.273438 308.066406 245.496094 " fill-opacity="1" fill-rule="nonzero"/><path fill="#000000" d="M 305.800781 246.175781 C 300.050781 246.175781 294.539062 248.175781 290.078125 251.914062 C 285.054688 256.125 281.972656 262.039062 281.398438 268.570312 C 280.59375 277.699219 280.683594 286.953125 281.664062 296.066406 L 284.199219 319.609375 C 285.925781 335.648438 298.839844 348.316406 314.90625 349.730469 C 330.980469 351.140625 345.90625 340.925781 350.402344 325.433594 L 357.007812 302.695312 C 359.5625 293.894531 361.269531 284.796875 362.074219 275.667969 C 363.257812 262.1875 353.257812 250.257812 339.773438 249.070312 L 307.996094 246.273438 C 307.261719 246.210938 306.53125 246.175781 305.800781 246.175781 Z M 317.871094 351.414062 C 316.84375 351.414062 315.808594 351.367188 314.769531 351.277344 C 297.964844 349.796875 284.457031 336.550781 282.652344 319.777344 L 280.121094 296.234375 C 279.128906 287.019531 279.035156 277.667969 279.847656 268.4375 C 280.460938 261.492188 283.738281 255.199219 289.082031 250.722656 C 294.421875 246.246094 301.1875 244.113281 308.132812 244.722656 L 339.914062 247.519531 C 354.246094 248.78125 364.882812 261.46875 363.621094 275.804688 C 362.808594 285.035156 361.085938 294.230469 358.5 303.128906 L 351.894531 325.871094 C 347.484375 341.066406 333.464844 351.414062 317.871094 351.414062 " fill-opacity="1" fill-rule="nonzero"/><path fill="#6ce5e8" d="M 311.914062 296.101562 L 327.214844 297.449219 C 332.546875 297.914062 337.246094 293.976562 337.714844 288.648438 L 341.253906 248.421875 L 306.65625 245.375 L 303.113281 285.605469 C 302.644531 290.933594 306.585938 295.632812 311.914062 296.101562 " fill-opacity="1" fill-rule="nonzero"/><path fill="#000000" d="M 341.253906 249.199219 C 341.230469 249.199219 341.207031 249.199219 341.183594 249.195312 L 306.585938 246.152344 C 306.15625 246.117188 305.84375 245.738281 305.878906 245.308594 C 305.917969 244.882812 306.292969 244.566406 306.722656 244.605469 L 341.320312 247.644531 C 341.746094 247.6875 342.0625 248.058594 342.027344 248.492188 C 341.992188 248.894531 341.648438 249.199219 341.253906 249.199219 " fill-opacity="1" fill-rule="nonzero"/><path fill="#000000" d="M 286.722656 181.507812 L 347.816406 186.882812 C 354.164062 187.441406 358.820312 193.4375 358.21875 200.273438 L 357.507812 208.351562 C 357.050781 213.570312 353.777344 218.851562 348.898438 219.332031 C 331.691406 221.023438 296.644531 217.941406 279.996094 213.269531 C 275.273438 211.945312 272.976562 206.175781 273.433594 200.957031 L 274.144531 192.878906 C 274.746094 186.039062 280.378906 180.949219 286.722656 181.507812 " fill-opacity="1" fill-rule="nonzero"/><path fill="#f96f5f" d="M 330.195312 201.710938 C 329.996094 204.003906 331.554688 206.015625 333.683594 206.199219 C 335.808594 206.390625 337.695312 204.679688 337.898438 202.390625 C 338.097656 200.097656 336.539062 198.089844 334.410156 197.902344 C 332.285156 197.714844 330.398438 199.421875 330.195312 201.710938 " fill-opacity="1" fill-rule="nonzero"/><path fill="#f96f5f" d="M 289.234375 198.109375 C 289.035156 200.402344 290.59375 202.414062 292.71875 202.597656 C 294.847656 202.785156 296.734375 201.078125 296.9375 198.789062 C 297.136719 196.496094 295.578125 194.488281 293.449219 194.300781 C 291.324219 194.113281 289.4375 195.820312 289.234375 198.109375 " fill-opacity="1" fill-rule="nonzero"/><path fill="#6ce5e8" d="M 275.179688 325.222656 C 279.421875 324.984375 282.648438 320.75 282.359375 315.789062 L 278.820312 254.308594 L 263.503906 255.171875 L 267.050781 316.757812 C 267.335938 321.679688 270.96875 325.460938 275.179688 325.222656 " fill-opacity="1" fill-rule="nonzero"/><path fill="#000000" d="M 264.324219 255.90625 L 267.824219 316.714844 C 268.085938 321.191406 271.347656 324.660156 275.132812 324.449219 C 276.757812 324.355469 278.300781 323.582031 279.472656 322.265625 C 280.957031 320.601562 281.722656 318.257812 281.582031 315.832031 L 278.085938 255.128906 Z M 275.179688 325.222656 L 275.183594 325.222656 Z M 274.808594 326.011719 C 270.363281 326.011719 266.574219 321.976562 266.277344 316.804688 L 262.730469 255.214844 C 262.71875 255.011719 262.785156 254.808594 262.925781 254.652344 C 263.0625 254.5 263.253906 254.40625 263.460938 254.394531 L 278.777344 253.535156 C 279.191406 253.507812 279.570312 253.835938 279.59375 254.265625 L 283.132812 315.742188 C 283.300781 318.578125 282.386719 321.332031 280.632812 323.296875 C 279.183594 324.925781 277.261719 325.886719 275.222656 326 C 275.082031 326.007812 274.945312 326.011719 274.808594 326.011719 " fill-opacity="1" fill-rule="nonzero"/><path fill="#f96f5f" d="M 232.480469 218.710938 L 275.753906 219.164062 L 295.148438 222.980469 L 305.011719 227.707031 L 305.082031 227.746094 C 306.894531 228.492188 308.570312 231.949219 309.140625 236.257812 C 309.699219 240.515625 308.945312 244.265625 307.425781 245.507812 L 307.492188 245.5 L 299.632812 252.328125 L 281.96875 260.863281 L 239.828125 272.316406 L 202.90625 308.6875 L 202.617188 308.902344 C 211.835938 299.617188 216.242188 275.667969 212.683594 248.597656 C 209.132812 221.558594 198.714844 199.644531 187.433594 193.113281 L 187.441406 193.105469 L 231.914062 218.386719 L 232.480469 218.710938 " fill-opacity="1" fill-rule="nonzero"/><path fill="#f96f5f" d="M 161.625 255.527344 C 166.042969 289.125 181.050781 314.8125 195.148438 312.898438 C 209.25 310.984375 217.101562 282.195312 212.683594 248.597656 C 208.265625 215 193.257812 189.3125 179.160156 191.226562 C 165.0625 193.140625 157.210938 221.929688 161.625 255.527344 " fill-opacity="1" fill-rule="nonzero"/><path fill="#000000" d="M 193.6875 313.773438 C 186.40625 313.773438 178.742188 307.015625 172.429688 294.925781 C 172.234375 294.542969 172.378906 294.074219 172.757812 293.875 C 173.140625 293.675781 173.609375 293.824219 173.808594 294.203125 C 180.253906 306.554688 187.996094 313.085938 195.046875 312.128906 C 208.699219 310.277344 216.265625 281.824219 211.914062 248.699219 C 208.710938 224.320312 199.789062 203.328125 189.183594 195.226562 C 185.8125 192.648438 182.476562 191.5625 179.261719 191.996094 C 172.640625 192.894531 167.039062 200.484375 163.902344 212.824219 C 163.796875 213.238281 163.378906 213.492188 162.957031 213.386719 C 162.542969 213.28125 162.292969 212.855469 162.398438 212.441406 C 165.746094 199.269531 171.664062 191.460938 179.058594 190.457031 C 182.691406 189.964844 186.417969 191.152344 190.128906 193.988281 C 201.042969 202.332031 210.203125 223.726562 213.453125 248.496094 C 215.605469 264.847656 214.949219 280.59375 211.609375 292.835938 C 208.210938 305.300781 202.402344 312.699219 195.253906 313.667969 C 194.734375 313.738281 194.214844 313.773438 193.6875 313.773438 " fill-opacity="1" fill-rule="nonzero"/><path fill="#000000" d="M 168.265625 210.914062 C 168.167969 210.914062 168.066406 210.894531 167.96875 210.851562 C 167.570312 210.6875 167.386719 210.230469 167.550781 209.835938 C 170.648438 202.46875 174.945312 198.210938 179.984375 197.523438 C 180.414062 197.46875 180.800781 197.765625 180.859375 198.191406 C 180.917969 198.617188 180.617188 199.007812 180.191406 199.066406 C 175.730469 199.671875 171.855469 203.601562 168.984375 210.4375 C 168.859375 210.734375 168.570312 210.914062 168.265625 210.914062 " fill-opacity="1" fill-rule="nonzero"/><path fill="#000000" d="M 197.816406 305.394531 C 197.542969 305.394531 197.277344 305.246094 197.136719 304.992188 C 196.925781 304.617188 197.0625 304.144531 197.4375 303.9375 C 207.378906 298.40625 212.328125 274.835938 208.945312 249.101562 C 205.804688 225.1875 196.359375 205.03125 185.980469 200.089844 C 185.589844 199.90625 185.425781 199.445312 185.613281 199.054688 C 185.796875 198.667969 186.257812 198.503906 186.648438 198.6875 C 197.476562 203.84375 207.28125 224.492188 210.488281 248.898438 C 214.007812 275.660156 208.835938 299.375 198.195312 305.292969 C 198.074219 305.359375 197.945312 305.394531 197.816406 305.394531 " fill-opacity="1" fill-rule="nonzero"/><path fill="#6ce5e8" d="M 188.941406 251.855469 C 189.964844 259.636719 193.4375 265.582031 196.703125 265.140625 C 199.96875 264.699219 201.785156 258.03125 200.761719 250.253906 C 199.742188 242.472656 196.265625 236.527344 193 236.96875 C 189.734375 237.414062 187.917969 244.078125 188.941406 251.855469 " fill-opacity="1" fill-rule="nonzero"/><path fill="#000000" d="M 193.34375 237.722656 C 193.261719 237.722656 193.183594 237.726562 193.105469 237.738281 C 190.671875 238.070312 188.679688 243.90625 189.710938 251.757812 C 190.421875 257.167969 192.445312 261.984375 194.746094 263.742188 C 195.394531 264.238281 196.023438 264.449219 196.597656 264.371094 C 199.03125 264.039062 201.023438 258.203125 199.992188 250.355469 C 199.28125 244.945312 197.257812 240.125 194.960938 238.371094 C 194.398438 237.9375 193.855469 237.722656 193.34375 237.722656 Z M 196.351562 265.941406 C 195.496094 265.941406 194.640625 265.617188 193.800781 264.976562 C 191.152344 262.953125 188.945312 257.84375 188.171875 251.957031 C 187.074219 243.628906 189.152344 236.707031 192.898438 236.199219 C 193.902344 236.0625 194.914062 236.378906 195.902344 237.136719 C 198.546875 239.15625 200.757812 244.265625 201.535156 250.152344 C 202.625 258.480469 200.550781 265.402344 196.808594 265.910156 C 196.65625 265.933594 196.503906 265.941406 196.351562 265.941406 " fill-opacity="1" fill-rule="nonzero"/><path fill="#000000" d="M 194.308594 197.902344 C 203.289062 207.921875 210.609375 226.839844 213.453125 248.496094 C 216.320312 270.300781 214.097656 290.613281 207.933594 302.644531 L 239.28125 271.761719 C 239.375 271.667969 239.496094 271.601562 239.625 271.566406 L 281.695312 260.132812 L 299.199219 251.671875 L 306.761719 245.105469 C 306.808594 245.03125 306.863281 244.960938 306.933594 244.90625 C 308.054688 243.992188 308.9375 240.683594 308.367188 236.359375 C 307.789062 231.949219 306.089844 229 304.789062 228.464844 C 304.757812 228.453125 304.726562 228.4375 304.699219 228.421875 L 304.648438 228.394531 L 294.902344 223.722656 L 275.671875 219.941406 L 232.472656 219.488281 C 232.339844 219.488281 232.210938 219.453125 232.097656 219.386719 Z M 202.617188 309.679688 C 202.398438 309.679688 202.179688 309.585938 202.027344 309.410156 C 201.765625 309.101562 201.777344 308.644531 202.066406 308.355469 C 211.410156 298.945312 215.367188 274.972656 211.914062 248.699219 C 208.464844 222.46875 198.472656 200.402344 187.046875 193.785156 C 186.867188 193.683594 186.734375 193.511719 186.683594 193.308594 C 186.628906 193.109375 186.660156 192.894531 186.769531 192.714844 C 186.984375 192.355469 187.457031 192.21875 187.824219 192.429688 L 232.691406 217.9375 L 275.757812 218.386719 C 275.808594 218.386719 275.855469 218.394531 275.902344 218.402344 L 295.296875 222.21875 C 295.363281 222.230469 295.425781 222.25 295.484375 222.28125 L 305.347656 227.003906 C 305.363281 227.011719 305.378906 227.019531 305.390625 227.027344 L 305.425781 227.046875 C 307.511719 227.945312 309.308594 231.59375 309.90625 236.15625 C 310.46875 240.4375 309.773438 244.269531 308.167969 245.882812 C 308.125 245.957031 308.066406 246.027344 308 246.085938 L 300.140625 252.914062 C 300.089844 252.960938 300.03125 252.996094 299.96875 253.027344 L 282.308594 261.5625 C 282.265625 261.582031 282.21875 261.601562 282.171875 261.613281 L 240.230469 273.015625 L 203.453125 309.242188 C 203.425781 309.265625 203.398438 309.292969 203.367188 309.3125 L 203.078125 309.527344 C 202.941406 309.628906 202.777344 309.679688 202.617188 309.679688 " fill-opacity="1" fill-rule="nonzero"/><path fill="#ffffff" d="M 232.347656 218.636719 L 187.441406 193.105469 L 187.433594 193.113281 C 198.714844 199.644531 209.132812 221.558594 212.683594 248.597656 C 216.242188 275.667969 211.835938 299.617188 202.617188 308.902344 L 202.90625 308.6875 L 239.765625 272.375 L 240.625 271.539062 C 244.890625 267.292969 246.980469 256.445312 245.34375 244.207031 C 243.664062 231.644531 238.070312 221.847656 232.902344 218.9375 L 232.347656 218.636719 " fill-opacity="1" fill-rule="nonzero"/><path fill="#000000" d="M 194.308594 197.902344 C 203.289062 207.921875 210.609375 226.839844 213.453125 248.496094 C 216.320312 270.300781 214.097656 290.613281 207.933594 302.644531 L 240.078125 270.984375 C 244.265625 266.820312 246.117188 255.847656 244.574219 244.3125 C 242.871094 231.589844 237.222656 222.257812 232.523438 219.617188 L 231.972656 219.316406 C 231.972656 219.316406 231.96875 219.3125 231.964844 219.308594 Z M 202.617188 309.679688 C 202.398438 309.679688 202.179688 309.585938 202.027344 309.410156 C 201.765625 309.101562 201.777344 308.644531 202.066406 308.355469 C 211.410156 298.945312 215.367188 274.972656 211.914062 248.699219 C 208.464844 222.46875 198.472656 200.402344 187.046875 193.785156 C 186.867188 193.683594 186.734375 193.511719 186.683594 193.308594 C 186.628906 193.109375 186.660156 192.894531 186.769531 192.714844 C 186.984375 192.355469 187.457031 192.21875 187.824219 192.429688 L 232.726562 217.957031 L 233.277344 218.257812 C 239.253906 221.617188 244.527344 232.246094 246.113281 244.105469 C 247.742188 256.285156 245.757812 267.527344 241.171875 272.089844 L 240.308594 272.929688 L 203.453125 309.242188 C 203.425781 309.265625 203.398438 309.292969 203.367188 309.3125 L 203.078125 309.527344 C 202.941406 309.628906 202.777344 309.679688 202.617188 309.679688 " fill-opacity="1" fill-rule="nonzero"/><path fill="#000000" d="M 300.058594 252.734375 C 299.839844 252.734375 299.625 252.648438 299.46875 252.472656 C 299.1875 252.144531 299.222656 251.652344 299.546875 251.375 L 306.761719 245.105469 C 306.808594 245.03125 306.863281 244.960938 306.933594 244.90625 C 308.054688 243.992188 308.9375 240.683594 308.367188 236.359375 C 307.789062 231.949219 306.089844 229 304.789062 228.464844 C 304.757812 228.453125 304.726562 228.4375 304.699219 228.421875 L 304.648438 228.394531 L 294.8125 223.679688 C 294.425781 223.496094 294.261719 223.03125 294.449219 222.644531 C 294.632812 222.257812 295.097656 222.09375 295.484375 222.28125 L 305.347656 227.003906 C 305.363281 227.011719 305.378906 227.019531 305.390625 227.027344 L 305.425781 227.046875 C 307.511719 227.945312 309.308594 231.59375 309.90625 236.15625 C 310.46875 240.4375 309.773438 244.269531 308.167969 245.882812 C 308.125 245.957031 308.066406 246.027344 308 246.085938 L 300.566406 252.546875 C 300.417969 252.675781 300.238281 252.734375 300.058594 252.734375 " fill-opacity="1" fill-rule="nonzero"/><path fill="#f96f5f" d="M 299.523438 252.332031 C 302.007812 250.328125 303.082031 244.09375 302.167969 237.144531 C 301.199219 229.777344 297.953125 223.726562 294.84375 222.933594 L 305.011719 227.707031 L 305.082031 227.746094 C 306.894531 228.492188 308.570312 231.949219 309.140625 236.257812 C 309.699219 240.515625 308.945312 244.265625 307.425781 245.507812 L 307.492188 245.5 L 299.523438 252.332031 " fill-opacity="1" fill-rule="nonzero"/><path fill="#000000" d="M 299.1875 225.828125 C 300.953125 228.585938 302.355469 232.613281 302.9375 237.042969 C 303.539062 241.605469 303.308594 245.804688 302.394531 248.851562 L 306.765625 245.097656 C 306.808594 245.027344 306.867188 244.960938 306.933594 244.90625 C 308.054688 243.992188 308.9375 240.683594 308.367188 236.359375 C 307.789062 231.949219 306.089844 229 304.789062 228.464844 C 304.757812 228.453125 304.726562 228.4375 304.699219 228.421875 L 304.652344 228.394531 Z M 299.523438 253.109375 C 299.304688 253.109375 299.082031 253.015625 298.929688 252.828125 C 298.65625 252.503906 298.699219 252.023438 299.019531 251.742188 L 299.1875 251.601562 C 301.316406 249.648438 302.242188 243.683594 301.398438 237.246094 C 300.535156 230.675781 297.945312 225.765625 295.664062 224.175781 L 294.515625 223.636719 C 294.152344 223.464844 293.980469 223.046875 294.117188 222.667969 C 294.25 222.292969 294.648438 222.082031 295.039062 222.179688 C 295.5 222.296875 295.960938 222.511719 296.414062 222.808594 L 305.339844 227 C 305.359375 227.007812 305.375 227.019531 305.390625 227.027344 L 305.425781 227.046875 C 307.511719 227.945312 309.308594 231.59375 309.90625 236.15625 C 310.46875 240.4375 309.773438 244.269531 308.167969 245.882812 C 308.125 245.960938 308.066406 246.03125 307.996094 246.089844 L 300.207031 252.773438 C 300.140625 252.828125 300.078125 252.886719 300.015625 252.9375 C 299.871094 253.054688 299.695312 253.109375 299.523438 253.109375 " fill-opacity="1" fill-rule="nonzero"/><path fill="#000000" d="M 282.613281 260.550781 L 281.847656 260.886719 C 286.035156 259.097656 287.960938 249.578125 286.558594 238.898438 C 285.128906 228.007812 280.34375 219.46875 275.753906 219.164062 L 276.402344 219.292969 L 294.792969 222.917969 C 297.917969 223.65625 301.195312 229.738281 302.167969 237.144531 C 303.109375 244.289062 301.859375 250.699219 299.230469 252.511719 L 282.613281 260.550781 " fill-opacity="1" fill-rule="nonzero"/><path fill="#000000" d="M 280.292969 220.851562 C 283.574219 224.269531 286.292969 230.921875 287.328125 238.796875 C 288.402344 246.976562 287.5625 254.257812 285.3125 258.382812 L 298.832031 251.839844 C 301.171875 250.160156 302.273438 243.910156 301.398438 237.246094 C 300.394531 229.617188 297.097656 224.261719 294.613281 223.675781 Z M 282.152344 261.601562 L 281.539062 260.175781 L 281.59375 260.148438 C 285.289062 258.496094 287.132812 249.234375 285.789062 239 C 284.542969 229.507812 280.554688 221.460938 276.617188 220.125 L 275.601562 219.925781 L 275.804688 218.386719 C 276.191406 218.414062 276.582031 218.488281 276.964844 218.613281 L 294.941406 222.15625 C 298.507812 223 301.933594 229.394531 302.9375 237.042969 C 303.921875 244.523438 302.578125 251.148438 299.671875 253.152344 L 299.566406 253.210938 L 282.925781 261.261719 L 282.214844 261.574219 C 282.195312 261.582031 282.171875 261.589844 282.152344 261.601562 " fill-opacity="1" fill-rule="nonzero"/><path fill="#000000" d="M 193 236.96875 C 196.265625 236.527344 199.878906 242.457031 200.761719 250.253906 C 202.242188 263.328125 197.367188 265.054688 196.765625 265.214844 C 196.757812 265.21875 196.757812 265.234375 196.769531 265.234375 L 210.5625 266.179688 C 210.613281 260.742188 210.269531 254.972656 209.488281 249.03125 C 208.742188 243.339844 207.644531 237.902344 206.273438 232.855469 L 193 236.96875 " fill-opacity="1" fill-rule="nonzero"/><path fill="#000000" d="M 199.066406 264.613281 L 209.785156 265.347656 C 209.800781 260.074219 209.4375 254.625 208.71875 249.132812 C 208.027344 243.875 207.023438 238.730469 205.730469 233.835938 L 195.675781 236.953125 C 195.785156 237.027344 195.894531 237.109375 196 237.195312 C 198.710938 239.300781 200.882812 244.394531 201.535156 250.164062 C 202.527344 258.925781 200.726562 262.859375 199.066406 264.613281 Z M 211.328125 267.007812 L 196.058594 265.964844 L 195.921875 264.640625 L 196.570312 264.464844 C 196.761719 264.414062 201.421875 263.003906 199.992188 250.34375 C 199.390625 245.046875 197.40625 240.257812 195.046875 238.417969 C 194.363281 237.886719 193.710938 237.65625 193.105469 237.738281 L 192.769531 236.226562 L 206.8125 231.875 L 207.023438 232.652344 C 208.433594 237.847656 209.523438 243.324219 210.261719 248.929688 C 211.027344 254.78125 211.390625 260.585938 211.335938 266.1875 L 211.328125 267.007812 " fill-opacity="1" fill-rule="nonzero"/><path fill="#000000" d="M 367.839844 292.75 C 367.164062 292.75 366.472656 292.730469 365.761719 292.683594 C 292.890625 288.171875 269.402344 257.789062 268.4375 256.496094 C 267.066406 254.664062 267.445312 252.070312 269.277344 250.699219 C 271.113281 249.328125 273.707031 249.707031 275.078125 251.539062 C 275.121094 251.59375 280.65625 258.730469 294.550781 266.308594 C 307.445312 273.339844 330.351562 282.1875 366.273438 284.414062 C 376.136719 285.023438 380.03125 280.027344 380.375 275.558594 C 380.761719 270.5625 376.976562 264.796875 367.753906 263.949219 C 365.472656 263.738281 363.792969 261.722656 364.003906 259.441406 C 364.214844 257.164062 366.242188 255.484375 368.507812 255.695312 C 382.660156 256.996094 389.347656 266.992188 388.640625 276.195312 C 388.011719 284.367188 381.238281 292.75 367.839844 292.75 " fill-opacity="1" fill-rule="nonzero"/><path fill="#ffffff" d="M 184.3125 153.734375 C 184.3125 145.136719 177.332031 138.167969 168.722656 138.167969 C 160.113281 138.167969 153.132812 145.136719 153.132812 153.734375 C 153.132812 162.328125 160.113281 169.296875 168.722656 169.296875 C 177.332031 169.296875 184.3125 162.328125 184.3125 153.734375 " fill-opacity="1" fill-rule="nonzero"/><path fill="#000000" d="M 168.722656 138.945312 C 160.554688 138.945312 153.910156 145.578125 153.910156 153.730469 C 153.910156 161.886719 160.554688 168.519531 168.722656 168.519531 C 176.890625 168.519531 183.539062 161.886719 183.539062 153.730469 C 183.539062 145.578125 176.890625 138.945312 168.722656 138.945312 Z M 168.722656 170.074219 C 159.699219 170.074219 152.355469 162.746094 152.355469 153.730469 C 152.355469 144.722656 159.699219 137.390625 168.722656 137.390625 C 177.75 137.390625 185.089844 144.722656 185.089844 153.730469 C 185.089844 162.746094 177.75 170.074219 168.722656 170.074219 " fill-opacity="1" fill-rule="nonzero"/><path fill="#f96f5f" d="M 164.515625 155.285156 C 165.390625 155.28125 166.160156 155.707031 166.660156 156.351562 L 171.921875 154.304688 C 171.917969 154.238281 171.902344 154.167969 171.902344 154.097656 C 171.902344 153.96875 171.921875 153.839844 171.941406 153.714844 L 166.546875 151.222656 C 166.046875 151.789062 165.328125 152.15625 164.515625 152.160156 C 163.015625 152.164062 161.792969 150.9375 161.792969 149.429688 C 161.792969 147.917969 163.015625 146.6875 164.515625 146.6875 C 166.015625 146.683594 167.238281 147.910156 167.238281 149.417969 C 167.238281 149.550781 167.214844 149.675781 167.199219 149.804688 L 172.59375 152.296875 C 173.09375 151.726562 173.8125 151.359375 174.625 151.359375 C 176.125 151.355469 177.34375 152.582031 177.34375 154.089844 C 177.347656 155.597656 176.125 156.828125 174.625 156.832031 C 173.75 156.832031 172.980469 156.410156 172.480469 155.765625 L 167.21875 157.808594 C 167.222656 157.878906 167.238281 157.945312 167.238281 158.015625 C 167.238281 159.527344 166.015625 160.753906 164.515625 160.757812 C 163.015625 160.757812 161.792969 159.535156 161.792969 158.027344 C 161.792969 156.519531 163.015625 155.289062 164.515625 155.285156 " fill-opacity="1" fill-rule="nonzero"/><path fill="#f96f5f" d="M 201.792969 143.070312 C 201.792969 153.753906 218.816406 179.421875 222.894531 185.417969 C 223.3125 186.035156 224.21875 186.035156 224.636719 185.417969 C 227.558594 181.125 237.109375 166.746094 242.304688 155.003906 C 244.367188 150.347656 245.738281 146.101562 245.738281 143.070312 C 245.738281 130.933594 235.902344 121.097656 223.765625 121.097656 C 211.628906 121.097656 201.792969 130.933594 201.792969 143.070312 " fill-opacity="1" fill-rule="nonzero"/><path fill="#ffffff" d="M 213.714844 143.070312 C 213.714844 148.621094 218.214844 153.117188 223.765625 153.117188 C 229.3125 153.117188 233.8125 148.621094 233.8125 143.070312 C 233.8125 137.523438 229.3125 133.023438 223.765625 133.023438 C 218.214844 133.023438 213.714844 137.523438 213.714844 143.070312 " fill-opacity="1" fill-rule="nonzero"/><path fill="#000000" d="M 221.816406 152.734375 C 221.359375 152.734375 220.898438 152.707031 220.441406 152.648438 C 217.574219 152.289062 215.015625 150.832031 213.246094 148.546875 C 209.582031 143.832031 210.441406 137.019531 215.15625 133.359375 C 216.96875 131.949219 219.136719 131.167969 221.425781 131.089844 C 221.835938 131.074219 222.214844 131.414062 222.230469 131.84375 C 222.242188 132.273438 221.90625 132.628906 221.480469 132.644531 C 219.519531 132.710938 217.664062 133.382812 216.109375 134.585938 C 212.070312 137.722656 211.335938 143.554688 214.472656 147.597656 C 215.988281 149.550781 218.179688 150.800781 220.636719 151.109375 C 223.09375 151.414062 225.519531 150.75 227.476562 149.234375 C 229.433594 147.714844 230.683594 145.523438 230.988281 143.066406 C 231.046875 142.644531 231.4375 142.34375 231.859375 142.394531 C 232.289062 142.449219 232.589844 142.835938 232.53125 143.261719 C 232.171875 146.132812 230.714844 148.6875 228.433594 150.460938 C 226.515625 151.949219 224.203125 152.734375 221.816406 152.734375 " fill-opacity="1" fill-rule="nonzero"/><path fill="#ffffff" d="M 303.914062 64.203125 C 303.914062 54.960938 296.414062 47.472656 287.160156 47.472656 C 277.902344 47.472656 270.402344 54.960938 270.402344 64.203125 C 270.402344 73.441406 277.902344 80.933594 287.160156 80.933594 C 296.414062 80.933594 303.914062 73.441406 303.914062 64.203125 " fill-opacity="1" fill-rule="nonzero"/><path fill="#000000" d="M 287.160156 48.25 C 278.347656 48.25 271.179688 55.40625 271.179688 64.199219 C 271.179688 72.996094 278.347656 80.15625 287.160156 80.15625 C 295.96875 80.15625 303.136719 72.996094 303.136719 64.199219 C 303.136719 55.40625 295.96875 48.25 287.160156 48.25 Z M 287.160156 81.707031 C 277.488281 81.707031 269.625 73.851562 269.625 64.199219 C 269.625 54.546875 277.488281 46.695312 287.160156 46.695312 C 296.828125 46.695312 304.691406 54.546875 304.691406 64.199219 C 304.691406 73.851562 296.828125 81.707031 287.160156 81.707031 " fill-opacity="1" fill-rule="nonzero"/><path fill="#f96f5f" d="M 287.0625 72.617188 C 287.230469 72.71875 287.4375 72.722656 287.609375 72.628906 C 289.085938 71.804688 295.933594 67.683594 295.667969 62.292969 C 295.386719 56.597656 289.191406 57.585938 287.664062 60.386719 C 287.605469 60.496094 287.492188 60.558594 287.371094 60.550781 C 287.25 60.546875 287.144531 60.472656 287.097656 60.359375 C 286.347656 58.558594 283.921875 57.253906 281.640625 58.113281 C 278.921875 59.128906 276.160156 65.871094 287.0625 72.617188 " fill-opacity="1" fill-rule="nonzero"/><path fill="#ffffff" d="M 255.867188 69.078125 C 255.585938 69.078125 255.316406 68.925781 255.175781 68.660156 C 254.976562 68.28125 255.121094 67.808594 255.5 67.609375 C 257.304688 66.660156 259.347656 65.957031 261.574219 65.523438 C 261.992188 65.441406 262.402344 65.71875 262.484375 66.136719 C 262.566406 66.558594 262.289062 66.96875 261.871094 67.046875 C 259.796875 67.457031 257.898438 68.105469 256.226562 68.988281 C 256.109375 69.046875 255.988281 69.078125 255.867188 69.078125 Z M 248.617188 78.585938 C 248.578125 78.585938 248.539062 78.585938 248.5 78.578125 C 248.074219 78.515625 247.78125 78.121094 247.84375 77.695312 C 248.171875 75.492188 249.050781 73.476562 250.460938 71.699219 C 250.726562 71.363281 251.214844 71.308594 251.550781 71.574219 C 251.890625 71.839844 251.945312 72.328125 251.679688 72.664062 C 250.441406 74.226562 249.667969 75.992188 249.382812 77.925781 C 249.324219 78.308594 248.992188 78.585938 248.617188 78.585938 Z M 251.832031 90.292969 C 251.585938 90.292969 251.339844 90.175781 251.191406 89.960938 C 250.203125 88.539062 249.386719 86.949219 248.757812 85.238281 C 248.628906 84.882812 248.507812 84.527344 248.402344 84.175781 C 248.277344 83.765625 248.511719 83.332031 248.921875 83.207031 C 249.332031 83.082031 249.769531 83.316406 249.890625 83.726562 C 249.988281 84.050781 250.09375 84.375 250.214844 84.703125 C 250.800781 86.289062 251.558594 87.761719 252.46875 89.070312 C 252.714844 89.425781 252.625 89.910156 252.273438 90.15625 C 252.136719 90.25 251.984375 90.292969 251.832031 90.292969 Z M 261.492188 97.828125 C 261.382812 97.828125 261.277344 97.804688 261.175781 97.761719 C 259.050781 96.816406 257.242188 95.773438 255.652344 94.574219 C 255.308594 94.3125 255.242188 93.824219 255.5 93.484375 C 255.761719 93.140625 256.25 93.074219 256.589844 93.332031 C 258.085938 94.464844 259.789062 95.445312 261.804688 96.339844 C 262.195312 96.511719 262.375 96.972656 262.199219 97.367188 C 262.070312 97.65625 261.789062 97.828125 261.492188 97.828125 Z M 273.347656 101.539062 C 273.289062 101.539062 273.222656 101.53125 273.164062 101.515625 C 271.109375 101.003906 269.101562 100.492188 267.117188 99.902344 C 266.703125 99.777344 266.46875 99.347656 266.589844 98.933594 C 266.714844 98.523438 267.148438 98.289062 267.558594 98.414062 C 269.519531 98.996094 271.507812 99.5 273.535156 100.007812 C 273.953125 100.113281 274.207031 100.535156 274.105469 100.949219 C 274.015625 101.300781 273.699219 101.539062 273.347656 101.539062 Z M 285.238281 105.160156 C 285.132812 105.160156 285.023438 105.136719 284.921875 105.089844 C 283.324219 104.382812 281.492188 103.742188 279.15625 103.074219 C 278.746094 102.957031 278.503906 102.527344 278.625 102.113281 C 278.742188 101.699219 279.171875 101.464844 279.582031 101.582031 C 281.988281 102.265625 283.886719 102.929688 285.550781 103.671875 C 285.945312 103.847656 286.121094 104.308594 285.945312 104.695312 C 285.816406 104.988281 285.535156 105.160156 285.238281 105.160156 Z M 293.988281 113.46875 C 293.675781 113.46875 293.382812 113.273438 293.265625 112.964844 C 293.0625 112.433594 292.824219 111.917969 292.550781 111.433594 C 291.875 110.238281 291.027344 109.1875 289.960938 108.230469 C 289.644531 107.945312 289.617188 107.453125 289.902344 107.136719 C 290.191406 106.816406 290.679688 106.789062 291.003906 107.074219 C 292.175781 108.132812 293.152344 109.34375 293.902344 110.671875 C 294.214844 111.222656 294.488281 111.808594 294.714844 112.417969 C 294.867188 112.816406 294.664062 113.265625 294.265625 113.414062 C 294.175781 113.449219 294.078125 113.46875 293.988281 113.46875 Z M 263.796875 113.859375 C 263.742188 113.859375 263.6875 113.851562 263.628906 113.839844 C 261.644531 113.410156 259.667969 113.402344 257.800781 113.824219 C 257.382812 113.917969 256.96875 113.652344 256.875 113.234375 C 256.78125 112.816406 257.042969 112.398438 257.464844 112.304688 C 259.546875 111.835938 261.75 111.84375 263.960938 112.324219 C 264.382812 112.414062 264.648438 112.828125 264.554688 113.25 C 264.476562 113.613281 264.15625 113.859375 263.796875 113.859375 Z M 273.640625 120.585938 C 273.304688 120.585938 272.996094 120.367188 272.898438 120.03125 C 272.5625 118.898438 272.046875 118.070312 271.363281 117.5625 C 270.625 117.015625 269.875 116.515625 269.136719 116.078125 C 268.765625 115.859375 268.640625 115.382812 268.863281 115.011719 C 269.078125 114.644531 269.558594 114.523438 269.925781 114.742188 C 270.710938 115.207031 271.507812 115.738281 272.289062 116.316406 C 273.246094 117.027344 273.949219 118.125 274.386719 119.589844 C 274.511719 120 274.277344 120.429688 273.863281 120.550781 C 273.792969 120.574219 273.714844 120.585938 273.640625 120.585938 Z M 248.03125 121.183594 C 247.902344 121.183594 247.769531 121.148438 247.644531 121.078125 C 247.273438 120.863281 247.148438 120.386719 247.359375 120.015625 C 248.460938 118.121094 249.921875 116.421875 251.59375 115.117188 C 251.933594 114.851562 252.421875 114.914062 252.6875 115.25 C 252.949219 115.589844 252.890625 116.078125 252.550781 116.339844 C 251.035156 117.527344 249.707031 119.066406 248.707031 120.792969 C 248.5625 121.042969 248.300781 121.183594 248.03125 121.183594 Z M 293.628906 125.652344 C 293.546875 125.652344 293.460938 125.636719 293.375 125.609375 C 292.972656 125.46875 292.757812 125.027344 292.894531 124.621094 C 293.589844 122.625 293.984375 120.652344 294.082031 118.761719 C 294.101562 118.335938 294.464844 118.003906 294.902344 118.027344 C 295.328125 118.046875 295.65625 118.414062 295.636719 118.839844 C 295.53125 120.878906 295.101562 122.996094 294.363281 125.128906 C 294.257812 125.449219 293.953125 125.652344 293.628906 125.652344 Z M 272.957031 132.878906 C 272.894531 132.878906 272.832031 132.871094 272.769531 132.855469 C 272.351562 132.75 272.097656 132.332031 272.199219 131.914062 C 272.738281 129.753906 273.089844 127.730469 273.257812 125.910156 C 273.292969 125.484375 273.679688 125.167969 274.097656 125.203125 C 274.523438 125.242188 274.839844 125.621094 274.804688 126.046875 C 274.632812 127.949219 274.265625 130.050781 273.710938 132.289062 C 273.621094 132.644531 273.304688 132.878906 272.957031 132.878906 Z M 247.328125 132.921875 C 247.089844 132.921875 246.863281 132.816406 246.710938 132.617188 C 245.996094 131.703125 245.550781 130.796875 245.378906 129.929688 C 245.246094 129.222656 245.171875 128.480469 245.171875 127.722656 C 245.171875 127.207031 245.207031 126.683594 245.269531 126.160156 C 245.316406 125.730469 245.703125 125.425781 246.128906 125.476562 C 246.554688 125.53125 246.863281 125.917969 246.808594 126.339844 C 246.757812 126.808594 246.726562 127.269531 246.726562 127.722656 C 246.726562 128.382812 246.789062 129.023438 246.90625 129.632812 C 247.03125 130.257812 247.375 130.941406 247.9375 131.667969 C 248.199219 132.007812 248.136719 132.492188 247.800781 132.757812 C 247.660156 132.867188 247.492188 132.921875 247.328125 132.921875 Z M 287.015625 136.046875 C 286.804688 136.046875 286.601562 135.964844 286.449219 135.796875 C 286.15625 135.484375 286.167969 134.996094 286.480469 134.699219 C 287.886719 133.382812 289.164062 131.816406 290.277344 130.050781 C 290.507812 129.6875 290.988281 129.578125 291.351562 129.808594 C 291.710938 130.035156 291.820312 130.515625 291.589844 130.878906 C 290.40625 132.757812 289.042969 134.425781 287.546875 135.835938 C 287.398438 135.976562 287.207031 136.046875 287.015625 136.046875 Z M 257.691406 139.542969 C 257.597656 139.542969 257.507812 139.53125 257.417969 139.496094 C 255.328125 138.71875 253.402344 137.796875 251.679688 136.761719 C 251.316406 136.539062 251.199219 136.0625 251.417969 135.695312 C 251.640625 135.328125 252.117188 135.210938 252.484375 135.429688 C 254.121094 136.417969 255.964844 137.292969 257.960938 138.042969 C 258.363281 138.191406 258.570312 138.640625 258.417969 139.039062 C 258.300781 139.355469 258.003906 139.542969 257.691406 139.542969 Z M 276.023438 141.476562 C 275.652344 141.476562 275.332031 141.21875 275.261719 140.84375 C 275.179688 140.421875 275.457031 140.015625 275.878906 139.933594 C 277.917969 139.550781 279.832031 138.925781 281.574219 138.078125 C 281.964844 137.890625 282.425781 138.050781 282.609375 138.4375 C 282.796875 138.824219 282.640625 139.289062 282.253906 139.476562 C 280.390625 140.382812 278.339844 141.050781 276.167969 141.460938 C 276.117188 141.472656 276.070312 141.476562 276.023438 141.476562 Z M 268.804688 144.589844 C 268.695312 144.589844 268.585938 144.570312 268.484375 144.523438 C 268.089844 144.34375 267.917969 143.886719 268.09375 143.496094 C 268.335938 142.96875 268.566406 142.441406 268.792969 141.914062 C 267.058594 141.816406 265.285156 141.589844 263.515625 141.234375 C 263.089844 141.148438 262.820312 140.738281 262.902344 140.316406 C 262.988281 139.898438 263.398438 139.625 263.816406 139.710938 C 265.707031 140.085938 267.589844 140.316406 269.425781 140.386719 C 269.769531 139.515625 270.101562 138.648438 270.410156 137.789062 C 270.554688 137.382812 271 137.175781 271.402344 137.320312 C 271.804688 137.464844 272.019531 137.910156 271.871094 138.3125 C 271.183594 140.238281 270.390625 142.199219 269.511719 144.136719 C 269.382812 144.425781 269.101562 144.589844 268.804688 144.589844 Z M 262.835938 155.496094 C 262.691406 155.496094 262.539062 155.457031 262.410156 155.371094 C 262.050781 155.136719 261.949219 154.65625 262.183594 154.296875 C 263.289062 152.597656 264.351562 150.820312 265.34375 149.007812 C 265.550781 148.628906 266.023438 148.496094 266.398438 148.703125 C 266.777344 148.90625 266.914062 149.378906 266.707031 149.757812 C 265.695312 151.597656 264.613281 153.414062 263.488281 155.144531 C 263.335938 155.375 263.089844 155.496094 262.835938 155.496094 Z M 255.1875 165.289062 C 254.992188 165.289062 254.800781 165.21875 254.652344 165.078125 C 254.339844 164.78125 254.324219 164.289062 254.621094 163.976562 C 255.988281 162.539062 257.328125 160.96875 258.613281 159.3125 C 258.875 158.976562 259.367188 158.914062 259.703125 159.179688 C 260.042969 159.441406 260.105469 159.929688 259.839844 160.269531 C 258.523438 161.964844 257.148438 163.570312 255.75 165.046875 C 255.597656 165.207031 255.390625 165.289062 255.1875 165.289062 Z M 245.621094 173.175781 C 245.355469 173.175781 245.101562 173.042969 244.953125 172.800781 C 244.730469 172.4375 244.847656 171.957031 245.214844 171.734375 C 246.878906 170.726562 248.542969 169.527344 250.164062 168.175781 C 250.496094 167.902344 250.984375 167.949219 251.257812 168.277344 C 251.535156 168.609375 251.488281 169.097656 251.160156 169.371094 C 249.476562 170.769531 247.75 172.011719 246.023438 173.0625 C 245.894531 173.140625 245.753906 173.175781 245.621094 173.175781 Z M 184.914062 173.375 C 184.53125 173.375 184.199219 173.089844 184.148438 172.695312 C 184.089844 172.269531 184.390625 171.882812 184.816406 171.824219 C 186.929688 171.542969 189.039062 171.371094 191.082031 171.296875 C 191.503906 171.28125 191.875 171.617188 191.886719 172.046875 C 191.902344 172.476562 191.566406 172.832031 191.136719 172.847656 C 189.140625 172.917969 187.085938 173.09375 185.019531 173.367188 C 184.984375 173.371094 184.949219 173.375 184.914062 173.375 Z M 203.5 173.5625 C 203.460938 173.5625 203.421875 173.558594 203.378906 173.550781 C 201.351562 173.238281 199.355469 173.03125 197.277344 172.917969 C 196.851562 172.890625 196.523438 172.527344 196.546875 172.097656 C 196.570312 171.667969 196.917969 171.34375 197.367188 171.367188 C 199.492188 171.484375 201.535156 171.695312 203.617188 172.015625 C 204.042969 172.082031 204.332031 172.476562 204.269531 172.902344 C 204.207031 173.285156 203.875 173.5625 203.5 173.5625 Z M 172.785156 176.042969 C 172.449219 176.042969 172.144531 175.828125 172.039062 175.496094 C 171.914062 175.082031 172.144531 174.648438 172.554688 174.523438 C 174.574219 173.90625 176.617188 173.367188 178.625 172.921875 C 179.050781 172.828125 179.460938 173.09375 179.554688 173.511719 C 179.648438 173.929688 179.382812 174.347656 178.964844 174.441406 C 176.992188 174.875 174.988281 175.40625 173.011719 176.007812 C 172.933594 176.03125 172.859375 176.042969 172.785156 176.042969 Z M 215.605469 176.320312 C 215.542969 176.320312 215.476562 176.308594 215.414062 176.292969 C 214.785156 176.132812 214.148438 175.964844 213.507812 175.792969 C 212.191406 175.449219 210.828125 175.089844 209.410156 174.75 C 208.992188 174.652344 208.734375 174.230469 208.832031 173.816406 C 208.933594 173.398438 209.347656 173.140625 209.769531 173.242188 C 211.203125 173.585938 212.574219 173.945312 213.902344 174.292969 C 214.542969 174.460938 215.171875 174.628906 215.800781 174.789062 C 216.214844 174.894531 216.464844 175.316406 216.359375 175.734375 C 216.269531 176.085938 215.953125 176.320312 215.605469 176.320312 Z M 234.046875 177.46875 C 233.675781 177.46875 233.347656 177.199219 233.277344 176.824219 C 233.203125 176.402344 233.488281 176 233.914062 175.925781 C 234.917969 175.75 235.910156 175.542969 236.859375 175.304688 C 237.828125 175.066406 238.8125 174.757812 239.777344 174.398438 C 240.175781 174.246094 240.625 174.453125 240.777344 174.855469 C 240.925781 175.257812 240.71875 175.703125 240.316406 175.855469 C 239.296875 176.234375 238.261719 176.558594 237.238281 176.8125 C 236.253906 177.058594 235.222656 177.277344 234.179688 177.457031 C 234.128906 177.464844 234.085938 177.46875 234.046875 177.46875 Z M 227.226562 178.089844 C 226.992188 178.089844 226.761719 178.085938 226.535156 178.082031 C 224.902344 178.042969 223.273438 177.894531 221.554688 177.625 C 221.132812 177.554688 220.84375 177.15625 220.90625 176.734375 C 220.972656 176.308594 221.375 176.023438 221.796875 176.085938 C 223.445312 176.347656 225.007812 176.492188 226.570312 176.527344 C 226.984375 176.535156 227.414062 176.535156 227.847656 176.527344 C 228.289062 176.523438 228.632812 176.859375 228.640625 177.289062 C 228.648438 177.71875 228.308594 178.074219 227.878906 178.082031 C 227.660156 178.085938 227.441406 178.089844 227.226562 178.089844 Z M 161.207031 180.558594 C 160.914062 180.558594 160.636719 180.394531 160.503906 180.113281 C 160.320312 179.726562 160.484375 179.265625 160.871094 179.078125 C 162.757812 178.179688 164.695312 177.34375 166.628906 176.585938 C 167.027344 176.429688 167.480469 176.625 167.636719 177.027344 C 167.792969 177.425781 167.59375 177.878906 167.195312 178.035156 C 165.296875 178.773438 163.390625 179.597656 161.539062 180.480469 C 161.433594 180.535156 161.320312 180.558594 161.207031 180.558594 Z M 150.40625 186.707031 C 150.15625 186.707031 149.910156 186.585938 149.761719 186.359375 C 149.523438 186.003906 149.617188 185.523438 149.972656 185.285156 C 151.695312 184.125 153.488281 183.015625 155.308594 181.980469 C 155.679688 181.769531 156.15625 181.898438 156.367188 182.273438 C 156.582031 182.648438 156.449219 183.117188 156.078125 183.332031 C 154.292969 184.347656 152.527344 185.441406 150.839844 186.574219 C 150.707031 186.664062 150.554688 186.707031 150.40625 186.707031 Z M 140.667969 194.417969 C 140.457031 194.417969 140.25 194.335938 140.097656 194.171875 C 139.804688 193.859375 139.820312 193.367188 140.136719 193.070312 C 141.640625 191.664062 143.246094 190.289062 144.898438 188.980469 C 145.238281 188.714844 145.726562 188.773438 145.992188 189.105469 C 146.257812 189.445312 146.199219 189.933594 145.863281 190.199219 C 144.242188 191.480469 142.671875 192.828125 141.199219 194.207031 C 141.046875 194.351562 140.855469 194.417969 140.667969 194.417969 Z M 132.40625 203.683594 C 132.246094 203.683594 132.085938 203.636719 131.945312 203.53125 C 131.601562 203.285156 131.523438 202.792969 131.777344 202.449219 C 132.992188 200.789062 134.324219 199.144531 135.738281 197.5625 C 136.023438 197.242188 136.515625 197.214844 136.835938 197.5 C 137.15625 197.789062 137.183594 198.277344 136.898438 198.597656 C 135.515625 200.140625 134.214844 201.746094 133.03125 203.367188 C 132.878906 203.574219 132.644531 203.683594 132.40625 203.683594 Z M 126.25 214.449219 C 126.148438 214.449219 126.046875 214.429688 125.949219 214.386719 C 125.550781 214.222656 125.367188 213.765625 125.535156 213.371094 C 126.335938 211.472656 127.28125 209.574219 128.34375 207.726562 C 128.554688 207.355469 129.03125 207.226562 129.402344 207.441406 C 129.777344 207.652344 129.902344 208.128906 129.691406 208.5 C 128.660156 210.292969 127.746094 212.132812 126.964844 213.976562 C 126.839844 214.273438 126.554688 214.449219 126.25 214.449219 Z M 122.992188 226.398438 C 122.957031 226.398438 122.925781 226.394531 122.890625 226.390625 C 122.464844 226.335938 122.164062 225.945312 122.21875 225.519531 C 122.484375 223.453125 122.902344 221.371094 123.460938 219.328125 C 123.574219 218.914062 124.003906 218.671875 124.414062 218.785156 C 124.828125 218.898438 125.074219 219.328125 124.960938 219.742188 C 124.417969 221.710938 124.015625 223.71875 123.761719 225.71875 C 123.710938 226.109375 123.375 226.398438 122.992188 226.398438 Z M 123.148438 238.78125 C 122.769531 238.78125 122.4375 238.503906 122.382812 238.117188 C 122.074219 236.023438 121.902344 233.910156 121.871094 231.824219 C 121.863281 231.398438 122.207031 231.046875 122.636719 231.035156 C 122.640625 231.035156 122.644531 231.035156 122.648438 231.035156 C 123.074219 231.035156 123.417969 231.378906 123.425781 231.800781 C 123.453125 233.816406 123.621094 235.867188 123.917969 237.890625 C 123.980469 238.3125 123.6875 238.710938 123.265625 238.773438 C 123.226562 238.777344 123.1875 238.78125 123.148438 238.78125 Z M 126.460938 250.730469 C 126.15625 250.730469 125.867188 250.546875 125.742188 250.25 C 124.9375 248.292969 124.25 246.289062 123.695312 244.285156 C 123.578125 243.875 123.820312 243.445312 124.234375 243.328125 C 124.644531 243.21875 125.074219 243.457031 125.191406 243.871094 C 125.730469 245.8125 126.398438 247.757812 127.179688 249.65625 C 127.34375 250.054688 127.152344 250.507812 126.757812 250.671875 C 126.660156 250.710938 126.558594 250.730469 126.460938 250.730469 Z M 132.417969 261.613281 C 132.175781 261.613281 131.933594 261.496094 131.78125 261.277344 C 130.578125 259.550781 129.460938 257.75 128.460938 255.929688 C 128.253906 255.554688 128.390625 255.082031 128.769531 254.875 C 129.144531 254.667969 129.617188 254.804688 129.824219 255.183594 C 130.796875 256.953125 131.882812 258.707031 133.054688 260.390625 C 133.300781 260.742188 133.214844 261.226562 132.863281 261.472656 C 132.726562 261.566406 132.574219 261.613281 132.417969 261.613281 Z M 140.492188 271.035156 C 140.300781 271.035156 140.105469 270.960938 139.957031 270.820312 C 138.4375 269.359375 136.984375 267.820312 135.632812 266.25 C 135.355469 265.925781 135.394531 265.433594 135.71875 265.15625 C 136.042969 264.878906 136.535156 264.914062 136.8125 265.238281 C 138.128906 266.773438 139.550781 268.273438 141.03125 269.695312 C 141.34375 269.996094 141.351562 270.488281 141.054688 270.796875 C 140.902344 270.957031 140.699219 271.035156 140.492188 271.035156 Z M 150.191406 278.785156 C 150.042969 278.785156 149.890625 278.742188 149.761719 278.65625 C 148.007812 277.496094 146.300781 276.25 144.683594 274.957031 C 144.347656 274.691406 144.292969 274.203125 144.558594 273.867188 C 144.828125 273.53125 145.316406 273.476562 145.652344 273.742188 C 147.234375 275.003906 148.90625 276.222656 150.621094 277.363281 C 150.976562 277.601562 151.074219 278.082031 150.835938 278.441406 C 150.6875 278.664062 150.441406 278.785156 150.191406 278.785156 Z M 161.0625 284.777344 C 160.957031 284.777344 160.847656 284.753906 160.746094 284.707031 C 158.828125 283.84375 156.9375 282.902344 155.132812 281.90625 C 154.753906 281.699219 154.617188 281.226562 154.824219 280.851562 C 155.03125 280.476562 155.507812 280.339844 155.878906 280.542969 C 157.652344 281.519531 159.503906 282.445312 161.382812 283.292969 C 161.773438 283.46875 161.949219 283.929688 161.773438 284.320312 C 161.644531 284.605469 161.359375 284.777344 161.0625 284.777344 Z M 172.734375 289.019531 C 172.664062 289.019531 172.59375 289.011719 172.523438 288.992188 C 170.5 288.417969 168.496094 287.769531 166.554688 287.066406 C 166.152344 286.917969 165.945312 286.476562 166.089844 286.070312 C 166.238281 285.667969 166.683594 285.457031 167.085938 285.605469 C 168.992188 286.296875 170.960938 286.933594 172.945312 287.496094 C 173.359375 287.613281 173.597656 288.042969 173.480469 288.453125 C 173.382812 288.796875 173.074219 289.019531 172.734375 289.019531 Z M 184.882812 291.601562 C 184.84375 291.601562 184.808594 291.597656 184.769531 291.59375 C 182.695312 291.289062 180.621094 290.917969 178.605469 290.496094 C 178.1875 290.40625 177.917969 289.992188 178.003906 289.570312 C 178.09375 289.152344 178.507812 288.882812 178.929688 288.972656 C 180.910156 289.394531 182.953125 289.753906 184.992188 290.054688 C 185.417969 290.117188 185.714844 290.511719 185.652344 290.933594 C 185.597656 291.320312 185.265625 291.601562 184.882812 291.601562 " fill-opacity="1" fill-rule="nonzero"/><path fill="#f96f5f" d="M 144.890625 213.0625 C 151.761719 206.285156 151.863281 195.203125 145.117188 188.304688 C 138.375 181.40625 127.335938 181.304688 120.464844 188.078125 C 113.59375 194.851562 113.492188 205.933594 120.238281 212.832031 C 126.984375 219.730469 138.023438 219.832031 144.890625 213.0625 " fill-opacity="1" fill-rule="nonzero"/><path fill="#ffffff" d="M 135.898438 206.542969 L 136.992188 195.824219 C 137.046875 195.277344 136.507812 194.863281 135.992188 195.054688 L 124.710938 199.246094 C 124.136719 199.460938 124.054688 200.238281 124.570312 200.566406 L 134.757812 207.089844 C 135.222656 207.390625 135.84375 207.09375 135.898438 206.542969 " fill-opacity="1" fill-rule="nonzero"/><path fill="#ffffff" d="M 125.164062 232.402344 C 123.886719 232.402344 122.851562 233.441406 122.851562 234.714844 L 122.851562 250.613281 C 122.851562 251.890625 123.886719 252.925781 125.164062 252.925781 L 169.070312 252.925781 C 170.347656 252.925781 171.382812 251.890625 171.382812 250.613281 L 171.382812 234.714844 C 171.382812 233.441406 170.347656 232.402344 169.070312 232.402344 L 125.164062 232.402344 " fill-opacity="1" fill-rule="nonzero"/><path fill="#000000" d="M 169.070312 253.703125 L 125.164062 253.703125 C 123.460938 253.703125 122.074219 252.316406 122.074219 250.613281 L 122.074219 234.714844 C 122.074219 233.011719 123.460938 231.628906 125.164062 231.628906 L 154.570312 231.628906 C 155 231.628906 155.347656 231.976562 155.347656 232.402344 C 155.347656 232.832031 155 233.179688 154.570312 233.179688 L 125.164062 233.179688 C 124.316406 233.179688 123.628906 233.871094 123.628906 234.714844 L 123.628906 250.613281 C 123.628906 251.460938 124.316406 252.148438 125.164062 252.148438 L 169.070312 252.148438 C 169.917969 252.148438 170.609375 251.460938 170.609375 250.613281 L 170.609375 234.714844 C 170.609375 233.871094 169.917969 233.179688 169.070312 233.179688 L 160.410156 233.179688 C 159.980469 233.179688 159.632812 232.832031 159.632812 232.402344 C 159.632812 231.976562 159.980469 231.628906 160.410156 231.628906 L 169.070312 231.628906 C 170.773438 231.628906 172.160156 233.011719 172.160156 234.714844 L 172.160156 250.613281 C 172.160156 252.316406 170.773438 253.703125 169.070312 253.703125 " fill-opacity="1" fill-rule="nonzero"/><path fill="#000000" d="M 164.152344 240.75 L 129.257812 240.75 C 128.828125 240.75 128.480469 240.402344 128.480469 239.972656 C 128.480469 239.542969 128.828125 239.199219 129.257812 239.199219 L 164.152344 239.199219 C 164.582031 239.199219 164.929688 239.542969 164.929688 239.972656 C 164.929688 240.402344 164.582031 240.75 164.152344 240.75 " fill-opacity="1" fill-rule="nonzero"/><path fill="#000000" d="M 136.554688 245.40625 L 129.257812 245.40625 C 128.828125 245.40625 128.480469 245.058594 128.480469 244.628906 C 128.480469 244.199219 128.828125 243.851562 129.257812 243.851562 L 136.554688 243.851562 C 136.984375 243.851562 137.332031 244.199219 137.332031 244.628906 C 137.332031 245.058594 136.984375 245.40625 136.554688 245.40625 " fill-opacity="1" fill-rule="nonzero"/><path fill="#000000" d="M 164.152344 245.40625 L 141.21875 245.40625 C 140.789062 245.40625 140.441406 245.058594 140.441406 244.628906 C 140.441406 244.199219 140.789062 243.851562 141.21875 243.851562 L 164.152344 243.851562 C 164.582031 243.851562 164.929688 244.199219 164.929688 244.628906 C 164.929688 245.058594 164.582031 245.40625 164.152344 245.40625 " fill-opacity="1" fill-rule="nonzero"/><path fill="#ffffff" d="M 168.226562 282.714844 C 168.226562 272.972656 160.316406 265.074219 150.558594 265.074219 C 140.800781 265.074219 132.890625 272.972656 132.890625 282.714844 C 132.890625 292.457031 140.800781 300.351562 150.558594 300.351562 C 160.316406 300.351562 168.226562 292.457031 168.226562 282.714844 " fill-opacity="1" fill-rule="nonzero"/><path fill="#000000" d="M 150.558594 265.851562 C 141.246094 265.851562 133.667969 273.417969 133.667969 282.714844 C 133.667969 292.011719 141.246094 299.578125 150.558594 299.578125 C 159.871094 299.578125 167.449219 292.011719 167.449219 282.714844 C 167.449219 273.417969 159.871094 265.851562 150.558594 265.851562 Z M 150.558594 301.128906 C 140.386719 301.128906 132.113281 292.867188 132.113281 282.714844 C 132.113281 272.558594 140.386719 264.296875 150.558594 264.296875 C 160.730469 264.296875 169.003906 272.558594 169.003906 282.714844 C 169.003906 292.867188 160.730469 301.128906 150.558594 301.128906 " fill-opacity="1" fill-rule="nonzero"/><path fill="#f96f5f" d="M 150.460938 291.585938 C 150.632812 291.695312 150.855469 291.699219 151.035156 291.601562 C 152.589844 290.730469 159.8125 286.386719 159.53125 280.703125 C 159.234375 274.695312 152.703125 275.738281 151.09375 278.695312 C 151.03125 278.808594 150.910156 278.875 150.78125 278.867188 C 150.65625 278.859375 150.542969 278.78125 150.492188 278.664062 C 149.703125 276.765625 147.148438 275.390625 144.742188 276.289062 C 141.875 277.367188 138.960938 284.472656 150.460938 291.585938 " fill-opacity="1" fill-rule="nonzero"/><path fill="#ffffff" d="M 166.679688 63.300781 C 173.464844 64.941406 177.636719 71.773438 175.992188 78.554688 C 174.355469 85.34375 167.523438 89.511719 160.738281 87.871094 C 153.953125 86.230469 149.78125 79.398438 151.425781 72.613281 C 153.066406 65.828125 159.894531 61.660156 166.679688 63.300781 Z M 139.597656 67.230469 L 138.445312 72 L 143.253906 74.378906 C 143.183594 75.53125 143.207031 76.675781 143.328125 77.796875 L 138.652344 80.402344 L 140.039062 85.113281 L 145.390625 84.769531 C 145.902344 85.789062 146.496094 86.761719 147.167969 87.683594 L 144.417969 92.289062 L 147.972656 95.671875 L 152.429688 92.703125 C 153.371094 93.324219 154.378906 93.871094 155.433594 94.335938 L 155.351562 99.699219 L 160.125 100.851562 L 162.5 96.046875 C 163.652344 96.113281 164.796875 96.089844 165.921875 95.96875 L 168.527344 100.644531 L 173.238281 99.261719 L 172.890625 93.90625 C 173.910156 93.394531 174.886719 92.796875 175.808594 92.125 L 180.410156 94.878906 L 183.796875 91.324219 L 180.828125 86.867188 C 181.449219 85.921875 181.996094 84.917969 182.457031 83.859375 L 187.820312 83.945312 L 188.976562 79.171875 L 184.167969 76.792969 C 184.238281 75.640625 184.210938 74.5 184.089844 73.375 L 188.769531 70.765625 L 187.382812 66.058594 L 182.027344 66.40625 C 181.519531 65.386719 180.921875 64.410156 180.25 63.488281 L 183.003906 58.882812 L 179.445312 55.496094 L 174.988281 58.46875 C 174.046875 57.847656 173.042969 57.304688 171.984375 56.835938 L 172.066406 51.476562 L 167.292969 50.320312 L 164.917969 55.128906 C 163.765625 55.058594 162.621094 55.082031 161.496094 55.207031 L 158.890625 50.527344 L 154.183594 51.914062 L 154.527344 57.265625 C 153.507812 57.777344 152.53125 58.375 151.609375 59.046875 L 147.007812 56.292969 L 143.621094 59.847656 L 146.59375 64.304688 C 145.972656 65.25 145.425781 66.253906 144.960938 67.3125 L 139.597656 67.230469 " fill-opacity="1" fill-rule="nonzero"/><path fill="#6ce5e8" d="M 167.9375 65.363281 C 174.722656 67.003906 178.894531 73.835938 177.253906 80.621094 C 175.613281 87.40625 168.78125 91.574219 161.996094 89.933594 C 155.210938 88.292969 151.042969 81.460938 152.683594 74.675781 C 154.324219 67.894531 161.152344 63.722656 167.9375 65.363281 Z M 140.855469 69.289062 L 139.703125 74.0625 L 144.511719 76.441406 C 144.441406 77.59375 144.464844 78.738281 144.589844 79.859375 L 139.910156 82.46875 L 141.296875 87.175781 L 146.648438 86.832031 C 147.160156 87.851562 147.753906 88.824219 148.429688 89.746094 L 145.675781 94.351562 L 149.230469 97.738281 L 153.6875 94.765625 C 154.628906 95.386719 155.636719 95.933594 156.691406 96.394531 L 156.609375 101.757812 L 161.382812 102.914062 L 163.757812 98.105469 C 164.914062 98.175781 166.054688 98.152344 167.179688 98.027344 L 169.785156 102.707031 L 174.496094 101.324219 L 174.152344 95.96875 C 175.171875 95.457031 176.144531 94.859375 177.066406 94.1875 L 181.667969 96.941406 L 185.054688 93.386719 L 182.085938 88.929688 C 182.707031 87.984375 183.253906 86.980469 183.71875 85.921875 L 189.078125 86.003906 L 190.234375 81.234375 L 185.425781 78.855469 C 185.496094 77.703125 185.46875 76.558594 185.347656 75.4375 L 190.027344 72.832031 L 188.640625 68.121094 L 183.285156 68.464844 C 182.777344 67.449219 182.179688 66.472656 181.507812 65.550781 L 184.261719 60.949219 L 180.703125 57.558594 L 176.25 60.53125 C 175.304688 59.910156 174.300781 59.367188 173.242188 58.898438 L 173.328125 53.535156 L 168.554688 52.382812 L 166.175781 57.191406 C 165.023438 57.121094 163.878906 57.148438 162.753906 57.269531 L 160.148438 52.589844 L 155.441406 53.976562 L 155.785156 59.332031 C 154.765625 59.839844 153.789062 60.433594 152.867188 61.109375 L 148.265625 58.355469 L 144.878906 61.910156 L 147.851562 66.367188 C 147.230469 67.3125 146.683594 68.320312 146.21875 69.375 L 140.855469 69.289062 " fill-opacity="1" fill-rule="nonzero"/><path fill="#6ce5e8" d="M 205.429688 391.898438 L 90.917969 391.898438 C 86.910156 391.898438 83.664062 388.652344 83.664062 384.644531 C 83.664062 380.640625 86.910156 377.394531 90.917969 377.394531 L 205.429688 377.394531 C 209.429688 377.394531 212.679688 380.640625 212.679688 384.644531 C 212.679688 388.652344 209.429688 391.898438 205.429688 391.898438 " fill-opacity="1" fill-rule="nonzero"/><path fill="#6ce5e8" d="M 234.894531 384.644531 C 234.894531 380.640625 231.648438 377.394531 227.640625 377.394531 C 223.640625 377.394531 220.390625 380.640625 220.390625 384.644531 C 220.390625 388.652344 223.640625 391.898438 227.640625 391.898438 C 231.648438 391.898438 234.894531 388.652344 234.894531 384.644531 " fill-opacity="1" fill-rule="nonzero"/><path fill="#6ce5e8" d="M 269.992188 367.023438 L 129.464844 367.023438 C 125.152344 367.023438 121.65625 363.527344 121.65625 359.214844 C 121.65625 354.902344 125.152344 351.402344 129.464844 351.402344 L 269.992188 351.402344 C 274.304688 351.402344 277.800781 354.902344 277.800781 359.214844 C 277.800781 363.527344 274.304688 367.023438 269.992188 367.023438 " fill-opacity="1" fill-rule="nonzero"/><path fill="#ffffff" d="M 217.683594 367.800781 L 129.464844 367.800781 C 124.730469 367.800781 120.878906 363.945312 120.878906 359.214844 C 120.878906 354.480469 124.730469 350.628906 129.464844 350.628906 L 192.5625 350.628906 C 192.992188 350.628906 193.339844 350.976562 193.339844 351.402344 C 193.339844 351.832031 192.992188 352.183594 192.5625 352.183594 L 129.464844 352.183594 C 125.585938 352.183594 122.433594 355.335938 122.433594 359.214844 C 122.433594 363.089844 125.585938 366.246094 129.464844 366.246094 L 217.683594 366.246094 C 218.113281 366.246094 218.460938 366.59375 218.460938 367.023438 C 218.460938 367.453125 218.113281 367.800781 217.683594 367.800781 " fill-opacity="1" fill-rule="nonzero"/><path fill="#000000" d="M 20.101562 85.15625 C 18.085938 86.0625 17.167969 88.484375 18.058594 90.550781 C 18.492188 91.558594 19.285156 92.324219 20.289062 92.71875 C 21.269531 93.097656 22.339844 93.070312 23.300781 92.636719 C 25.316406 91.730469 26.234375 89.3125 25.34375 87.246094 C 24.90625 86.238281 24.117188 85.46875 23.109375 85.078125 C 22.132812 84.699219 21.0625 84.726562 20.101562 85.15625 Z M 21.703125 94.539062 C 21.035156 94.539062 20.367188 94.414062 19.726562 94.164062 C 18.332031 93.625 17.230469 92.554688 16.632812 91.164062 C 15.410156 88.324219 16.679688 84.996094 19.464844 83.742188 C 20.808594 83.136719 22.304688 83.097656 23.675781 83.632812 C 25.070312 84.171875 26.167969 85.238281 26.769531 86.632812 C 27.992188 89.472656 26.722656 92.800781 23.9375 94.054688 C 23.222656 94.378906 22.460938 94.539062 21.703125 94.539062 " fill-opacity="1" fill-rule="nonzero"/><path fill="#000000" d="M 114.0625 90.191406 L 37.78125 90.191406 C 37.351562 90.191406 37.003906 89.847656 37.003906 89.414062 C 37.003906 88.988281 37.351562 88.636719 37.78125 88.636719 L 114.0625 88.636719 C 114.488281 88.636719 114.835938 88.988281 114.835938 89.414062 C 114.835938 89.847656 114.488281 90.191406 114.0625 90.191406 " fill-opacity="1" fill-rule="nonzero"/><path fill="#000000" d="M 162.691406 125.457031 L 149.097656 125.457031 C 138.988281 125.457031 129.488281 121.214844 122.347656 113.507812 C 115.503906 106.121094 106.410156 102.054688 96.742188 102.054688 L 60.414062 102.054688 C 59.984375 102.054688 59.636719 101.707031 59.636719 101.277344 C 59.636719 100.847656 59.984375 100.5 60.414062 100.5 L 96.742188 100.5 C 106.847656 100.5 116.347656 104.746094 123.488281 112.453125 C 130.332031 119.835938 139.425781 123.90625 149.097656 123.90625 L 162.691406 123.90625 C 163.121094 123.90625 163.46875 124.253906 163.46875 124.683594 C 163.46875 125.109375 163.121094 125.457031 162.691406 125.457031 " fill-opacity="1" fill-rule="nonzero"/><path fill="#000000" d="M 251.402344 414.386719 C 248.246094 414.386719 245.679688 411.824219 245.679688 408.675781 C 245.679688 405.523438 248.246094 402.960938 251.402344 402.960938 C 251.832031 402.960938 252.175781 403.308594 252.175781 403.738281 C 252.175781 404.167969 251.832031 404.515625 251.402344 404.515625 C 249.105469 404.515625 247.234375 406.382812 247.234375 408.675781 C 247.234375 410.964844 249.105469 412.832031 251.402344 412.832031 C 253.699219 412.832031 255.566406 410.964844 255.566406 408.675781 C 255.566406 408.246094 255.914062 407.898438 256.34375 407.898438 C 256.773438 407.898438 257.121094 408.246094 257.121094 408.675781 C 257.121094 411.824219 254.554688 414.386719 251.402344 414.386719 " fill-opacity="1" fill-rule="nonzero"/><path fill="#000000" d="M 275.195312 409.453125 L 264.390625 409.453125 C 263.960938 409.453125 263.613281 409.101562 263.613281 408.675781 C 263.613281 408.246094 263.960938 407.898438 264.390625 407.898438 L 275.195312 407.898438 C 283.40625 407.898438 291.128906 404.699219 296.929688 398.894531 C 303.035156 392.792969 311.144531 389.433594 319.769531 389.433594 L 363.851562 389.433594 C 364.28125 389.433594 364.628906 389.78125 364.628906 390.210938 C 364.628906 390.640625 364.28125 390.988281 363.851562 390.988281 L 319.769531 390.988281 C 311.558594 390.988281 303.839844 394.1875 298.03125 399.992188 C 291.933594 406.09375 283.820312 409.453125 275.195312 409.453125 " fill-opacity="1" fill-rule="nonzero"/><path fill="#000000" d="M 370.578125 375.972656 L 342.472656 375.972656 C 342.042969 375.972656 341.695312 375.625 341.695312 375.191406 C 341.695312 374.765625 342.042969 374.417969 342.472656 374.417969 L 370.578125 374.417969 C 371.007812 374.417969 371.355469 374.765625 371.355469 375.191406 C 371.355469 375.625 371.007812 375.972656 370.578125 375.972656 " fill-opacity="1" fill-rule="nonzero"/><path fill="#000000" d="M 362.078125 406.109375 C 360.769531 407.40625 360.757812 409.523438 362.054688 410.835938 C 363.351562 412.144531 365.472656 412.15625 366.78125 410.855469 C 368.089844 409.558594 368.101562 407.441406 366.804688 406.132812 C 365.507812 404.824219 363.386719 404.8125 362.078125 406.109375 Z M 364.429688 413.375 C 363.167969 413.375 361.90625 412.894531 360.949219 411.929688 C 359.050781 410.007812 359.066406 406.90625 360.980469 405.003906 C 362.902344 403.101562 366.007812 403.121094 367.90625 405.039062 C 369.808594 406.957031 369.792969 410.0625 367.875 411.960938 C 366.921875 412.90625 365.675781 413.375 364.429688 413.375 " fill-opacity="1" fill-rule="nonzero"/><path fill="#000000" d="M 88.808594 227.027344 C 88.574219 227.027344 88.34375 226.925781 88.191406 226.722656 C 87.929688 226.378906 87.996094 225.894531 88.335938 225.632812 L 89.523438 224.726562 C 90.621094 223.886719 91.925781 222.191406 91.941406 222.175781 C 92.203125 221.835938 92.691406 221.769531 93.03125 222.035156 C 93.371094 222.296875 93.433594 222.78125 93.171875 223.125 C 93.113281 223.199219 91.726562 224.996094 90.46875 225.960938 L 89.28125 226.867188 C 89.140625 226.976562 88.972656 227.027344 88.808594 227.027344 " fill-opacity="1" fill-rule="nonzero"/><path fill="#000000" d="M 86.785156 224.757812 C 86.503906 224.757812 86.234375 224.605469 86.09375 224.339844 C 85.898438 223.960938 86.046875 223.488281 86.425781 223.292969 L 87.753906 222.601562 C 88.976562 221.964844 90.558594 220.523438 90.574219 220.507812 C 90.890625 220.21875 91.382812 220.238281 91.671875 220.558594 C 91.960938 220.871094 91.941406 221.363281 91.625 221.652344 C 91.554688 221.71875 89.875 223.253906 88.472656 223.980469 L 87.144531 224.671875 C 87.027344 224.730469 86.90625 224.757812 86.785156 224.757812 " fill-opacity="1" fill-rule="nonzero"/><path fill="#000000" d="M 41.148438 200.09375 C 37.507812 200.566406 17.703125 204.570312 16.019531 226.886719 C 15.980469 227.398438 16.25 227.886719 16.695312 228.144531 L 28.144531 234.742188 C 28.578125 234.988281 28.835938 235.449219 28.820312 235.945312 C 28.695312 240.027344 28.039062 258.570312 26.308594 266.359375 C 24.957031 272.429688 24.019531 277.382812 23.570312 279.859375 C 23.410156 280.734375 24.125 281.515625 25.011719 281.433594 C 27.8125 281.179688 33.371094 280.558594 37.039062 279.429688 C 41.640625 278.015625 43.675781 275.3125 54.804688 279.929688 C 57.140625 280.902344 59.789062 280.769531 62.027344 279.582031 C 68.121094 276.359375 80.808594 270.636719 89.554688 273.527344 C 90.546875 273.855469 91.511719 272.984375 91.285156 271.964844 C 90.007812 266.238281 87.335938 255.195312 87.054688 249.355469 C 86.695312 242.0625 90.890625 217.777344 88.9375 215.238281 C 87.082031 212.824219 78.898438 207.273438 73.371094 205.75 C 71.347656 205.195312 69.21875 205.140625 67.511719 204.71875 C 63.230469 203.664062 51.355469 198.773438 41.148438 200.09375 " fill-opacity="1" fill-rule="nonzero"/><path fill="#ffffff" d="M 21.566406 254.449219 C 24.972656 259.535156 28.914062 261.15625 37.503906 258.941406 C 46.089844 256.726562 64.304688 243.6875 73.308594 231.269531 C 73.308594 231.269531 73.925781 230.132812 75.6875 230.339844 C 77.445312 230.546875 84.691406 233.339844 90.070312 228.582031 C 95.453125 223.820312 94.167969 220.40625 93.898438 219.757812 C 93.441406 218.664062 85.414062 220.0625 83.242188 219.097656 C 81.070312 218.128906 81.09375 216.625 82.722656 214.402344 C 84.667969 211.75 80.332031 211.144531 77.03125 215.851562 C 75.027344 218.714844 71.652344 222.476562 68.597656 224.023438 C 65.445312 225.617188 33.363281 237.164062 31.707031 236.648438 C 30.050781 236.136719 19.636719 229.839844 19.636719 229.839844 C 19.636719 229.839844 17.855469 248.910156 21.566406 254.449219 " fill-opacity="1" fill-rule="nonzero"/><path fill="#000000" d="M 22.214844 254.019531 C 25.199219 258.476562 28.488281 260.464844 37.308594 258.1875 C 45.898438 255.976562 63.890625 242.921875 72.664062 230.835938 C 72.851562 230.539062 73.75 229.332031 75.777344 229.566406 C 76.09375 229.605469 76.515625 229.703125 77.050781 229.828125 C 79.734375 230.453125 85.3125 231.753906 89.554688 228 C 93.914062 224.144531 93.648438 221.367188 93.242188 220.214844 C 92.644531 220.023438 90.554688 220.105469 89.148438 220.160156 C 86.695312 220.257812 84.164062 220.355469 82.925781 219.804688 C 81.785156 219.296875 81.089844 218.601562 80.859375 217.730469 C 80.578125 216.679688 80.972656 215.476562 82.097656 213.941406 C 82.421875 213.496094 82.441406 213.246094 82.425781 213.203125 C 82.414062 213.191406 82.257812 213.113281 81.914062 213.144531 C 80.917969 213.226562 79.207031 214.101562 77.667969 216.296875 C 75.660156 219.160156 72.175781 223.082031 68.949219 224.714844 C 67.03125 225.683594 35.566406 237.417969 31.734375 237.417969 C 31.628906 237.417969 31.539062 237.410156 31.476562 237.390625 C 30.046875 236.945312 23.109375 232.832031 20.308594 231.152344 C 20 235.433594 19.230469 249.5625 22.214844 254.019531 Z M 31.0625 260.6875 C 26.605469 260.6875 23.582031 258.855469 20.921875 254.882812 C 17.101562 249.179688 18.789062 230.554688 18.859375 229.769531 L 18.976562 228.535156 L 20.035156 229.175781 C 24.132812 231.648438 30.601562 235.4375 31.886719 235.886719 C 34.328125 235.886719 64.476562 225.234375 68.25 223.328125 C 71.214844 221.828125 74.492188 218.121094 76.394531 215.40625 C 78.382812 212.570312 80.804688 211.449219 82.328125 211.59375 C 83.046875 211.664062 83.601562 212.019531 83.847656 212.570312 C 84.050781 213.027344 84.132812 213.796875 83.351562 214.863281 C 82.546875 215.957031 82.214844 216.785156 82.359375 217.332031 C 82.464844 217.722656 82.867188 218.082031 83.558594 218.386719 C 84.464844 218.789062 87.027344 218.6875 89.085938 218.605469 C 92.617188 218.46875 94.195312 218.449219 94.617188 219.460938 C 95.175781 220.8125 95.90625 224.457031 90.585938 229.160156 C 85.738281 233.449219 79.632812 232.027344 76.699219 231.339844 C 76.230469 231.234375 75.828125 231.140625 75.597656 231.109375 C 74.429688 230.972656 74.023438 231.589844 73.980469 231.660156 L 73.9375 231.726562 C 64.992188 244.0625 46.535156 257.414062 37.699219 259.695312 C 35.164062 260.347656 32.980469 260.6875 31.0625 260.6875 " fill-opacity="1" fill-rule="nonzero"/><path fill="#ffffff" d="M 88.355469 229.796875 L 88.234375 230.941406 L 87.519531 237.53125 C 86.785156 243.335938 87.355469 248.058594 87.355469 248.058594 C 87.347656 249.882812 88.457031 252.027344 89.820312 253.234375 C 91.394531 254.621094 92.21875 254.910156 93.503906 255.375 C 98.332031 257.132812 100.4375 256.589844 102.191406 251.601562 C 103.945312 246.613281 103.324219 243.519531 99.199219 228.050781 C 99.199219 228.050781 98.066406 224.925781 101.265625 222.828125 C 104.105469 220.960938 103.164062 216.484375 100.546875 213.09375 C 96.367188 207.683594 87.605469 229.078125 88.355469 229.796875 " fill-opacity="1" fill-rule="nonzero"/><path fill="#000000" d="M 89.101562 229.433594 L 89.171875 229.5 L 88.292969 237.613281 C 87.578125 243.273438 88.125 247.921875 88.128906 247.964844 L 88.136719 248.015625 L 88.132812 248.066406 C 88.125 249.5625 89.070312 251.535156 90.335938 252.652344 C 91.773438 253.921875 92.503906 254.183594 93.710938 254.625 L 93.769531 254.648438 C 96.277344 255.558594 97.800781 255.734375 98.859375 255.230469 C 99.882812 254.75 100.683594 253.550781 101.457031 251.34375 C 103.125 246.59375 102.585938 243.761719 98.457031 228.28125 C 98.003906 226.984375 97.925781 224.085938 100.835938 222.179688 C 101.558594 221.703125 102.007812 220.996094 102.160156 220.070312 C 102.46875 218.238281 101.613281 215.746094 99.929688 213.570312 C 99.410156 212.890625 98.953125 212.933594 98.539062 213.082031 C 94.875 214.382812 89.390625 227.179688 89.101562 229.433594 Z M 97.503906 257.066406 C 96.375 257.066406 95.011719 256.75 93.238281 256.105469 L 93.179688 256.085938 C 91.894531 255.617188 90.96875 255.28125 89.308594 253.816406 C 87.703125 252.398438 86.585938 250.058594 86.582031 248.105469 C 86.519531 247.558594 86.042969 243.019531 86.75 237.433594 L 87.5625 229.910156 C 87.480469 229.546875 87.570312 229.011719 87.839844 228.109375 C 88.785156 224.953125 94.046875 212.3125 98.5 211.488281 C 99.210938 211.351562 100.253906 211.441406 101.160156 212.617188 C 103.097656 215.125 104.070312 218.082031 103.691406 220.328125 C 103.46875 221.675781 102.773438 222.765625 101.691406 223.476562 C 99.066406 225.199219 99.898438 227.683594 99.933594 227.789062 L 99.953125 227.851562 C 104.128906 243.519531 104.730469 246.71875 102.925781 251.859375 C 102 254.488281 100.953125 255.960938 99.527344 256.636719 C 98.921875 256.921875 98.265625 257.066406 97.503906 257.066406 " fill-opacity="1" fill-rule="nonzero"/><path fill="#000000" d="M 91.226562 219.664062 C 91.226562 219.664062 84.132812 220.421875 81.9375 218.6875 C 80.308594 217.402344 83.347656 213.558594 83.574219 213.253906 C 85.5 210.71875 89.992188 204.804688 90.664062 203.964844 C 91.269531 203.207031 92.425781 201.398438 93.9375 201.53125 C 95.445312 201.664062 103.8125 203.039062 104.421875 203.3125 C 105.695312 203.875 105.15625 205.644531 104.226562 206.621094 C 103.292969 207.597656 91.226562 219.664062 91.226562 219.664062 " fill-opacity="1" fill-rule="nonzero"/><path fill="#f96f5f" d="M 32.117188 278.683594 C 32.117188 278.683594 25.265625 335.640625 24.421875 346.628906 C 23.578125 357.617188 22.308594 396.074219 24.421875 415.09375 C 25.789062 427.414062 26.738281 435.65625 27.238281 439.929688 C 27.46875 441.914062 29.148438 443.410156 31.144531 443.410156 L 45.105469 443.410156 C 45.820312 443.410156 46.398438 442.839844 46.410156 442.125 C 46.472656 436.996094 46.929688 417.453125 50.203125 400.722656 C 54.003906 381.28125 58.230469 350.855469 60.34375 338.597656 C 61.050781 334.507812 61.644531 329.957031 62.144531 325.507812 C 62.144531 325.507812 62.144531 325.507812 63.726562 330.144531 C 65.308594 334.785156 71.332031 366.070312 73.023438 378.328125 C 74.5625 389.472656 77.148438 434.191406 77.601562 442.183594 C 77.640625 442.871094 78.214844 443.410156 78.902344 443.410156 L 96.78125 443.410156 C 97.449219 443.410156 98.011719 442.902344 98.078125 442.238281 C 98.90625 433.949219 103.804688 383.867188 103.03125 361.417969 C 102.183594 336.90625 91.195312 307.746094 89.082031 299.71875 C 86.96875 291.6875 84.136719 271.324219 84.136719 271.324219 C 84.136719 271.324219 41.28125 271.96875 32.117188 278.683594 " fill-opacity="1" fill-rule="nonzero"/><path fill="#000000" d="M 62.144531 324.734375 C 62.472656 324.734375 62.773438 324.941406 62.878906 325.261719 L 64.460938 329.894531 C 66.050781 334.554688 72.070312 365.71875 73.792969 378.21875 C 75.328125 389.355469 77.882812 433.421875 78.378906 442.140625 C 78.394531 442.414062 78.625 442.632812 78.902344 442.632812 L 96.78125 442.632812 C 97.050781 442.632812 97.277344 442.429688 97.304688 442.160156 C 98.265625 432.578125 103.019531 383.65625 102.253906 361.445312 C 101.582031 341.949219 94.390625 319.289062 90.527344 307.109375 C 89.539062 304 88.761719 301.542969 88.332031 299.914062 C 86.449219 292.765625 83.976562 275.738281 83.460938 272.117188 C 77.996094 272.234375 41.59375 273.253906 32.847656 279.117188 C 32.273438 283.894531 25.996094 336.285156 25.195312 346.6875 C 24.265625 358.761719 23.144531 396.574219 25.195312 415.007812 C 26.515625 426.910156 27.453125 435.082031 28.011719 439.839844 C 28.195312 441.429688 29.542969 442.632812 31.144531 442.632812 L 45.105469 442.632812 C 45.390625 442.632812 45.628906 442.402344 45.632812 442.117188 C 45.699219 436.582031 46.179688 417.242188 49.441406 400.574219 C 51.917969 387.910156 54.574219 370.570312 56.710938 356.632812 C 57.855469 349.175781 58.84375 342.734375 59.578125 338.46875 C 60.207031 334.816406 60.796875 330.550781 61.371094 325.421875 C 61.414062 325.0625 61.699219 324.773438 62.058594 324.738281 C 62.089844 324.734375 62.117188 324.734375 62.144531 324.734375 Z M 96.78125 444.1875 L 78.902344 444.1875 C 77.800781 444.1875 76.890625 443.328125 76.828125 442.230469 C 76.332031 433.519531 73.78125 389.511719 72.253906 378.433594 C 70.582031 366.3125 64.523438 334.886719 62.988281 330.398438 L 62.515625 329.003906 C 62.0625 332.691406 61.601562 335.894531 61.109375 338.730469 C 60.375 342.984375 59.390625 349.421875 58.246094 356.871094 C 56.109375 370.816406 53.449219 388.179688 50.964844 400.875 C 47.730469 417.414062 47.253906 436.636719 47.1875 442.132812 C 47.171875 443.265625 46.238281 444.1875 45.105469 444.1875 L 31.144531 444.1875 C 28.753906 444.1875 26.742188 442.394531 26.464844 440.023438 C 25.910156 435.257812 24.972656 427.082031 23.648438 415.179688 C 21.589844 396.652344 22.714844 358.6875 23.648438 346.566406 C 24.484375 335.6875 31.277344 279.160156 31.34375 278.589844 C 31.371094 278.375 31.484375 278.179688 31.65625 278.054688 C 40.914062 271.273438 82.363281 270.574219 84.125 270.546875 C 84.128906 270.546875 84.132812 270.546875 84.132812 270.546875 C 84.523438 270.546875 84.851562 270.832031 84.90625 271.21875 C 84.933594 271.417969 87.757812 291.625 89.835938 299.519531 C 90.253906 301.109375 91.027344 303.550781 92.007812 306.640625 C 95.894531 318.886719 103.125 341.683594 103.804688 361.394531 C 104.574219 383.703125 99.8125 432.714844 98.851562 442.3125 C 98.742188 443.382812 97.851562 444.1875 96.78125 444.1875 " fill-opacity="1" fill-rule="nonzero"/><path fill="#000000" d="M 62.164062 326.132812 C 62.132812 326.132812 62.105469 326.132812 62.074219 326.128906 C 61.648438 326.082031 61.34375 325.695312 61.390625 325.269531 C 61.675781 322.730469 61.953125 320.027344 62.214844 317.226562 C 62.742188 311.625 66.496094 306.738281 71.78125 304.78125 L 74.867188 303.636719 C 75.265625 303.488281 75.714844 303.691406 75.867188 304.09375 C 76.015625 304.496094 75.808594 304.945312 75.40625 305.09375 L 72.320312 306.238281 C 67.59375 307.988281 64.234375 312.359375 63.765625 317.371094 C 63.5 320.183594 63.222656 322.894531 62.933594 325.441406 C 62.890625 325.839844 62.554688 326.132812 62.164062 326.132812 " fill-opacity="1" fill-rule="nonzero"/><path fill="#ffffff" d="M 92.855469 443.40625 L 81.464844 443.40625 C 80.65625 443.40625 79.929688 443.890625 79.621094 444.636719 C 78.609375 447.089844 76.554688 452.832031 76.832031 458.277344 C 76.90625 459.765625 78.140625 460.929688 79.632812 460.929688 L 113.054688 460.929688 C 114.59375 460.929688 115.761719 459.527344 115.453125 458.019531 C 115.082031 456.214844 113.8125 453.847656 110.148438 451.710938 C 104.214844 448.261719 96.757812 444.808594 94.40625 443.742188 C 93.917969 443.519531 93.390625 443.40625 92.855469 443.40625 " fill-opacity="1" fill-rule="nonzero"/><path fill="#000000" d="M 81.464844 444.179688 C 80.96875 444.179688 80.527344 444.476562 80.339844 444.929688 C 79.425781 447.148438 77.332031 452.886719 77.605469 458.238281 C 77.660156 459.3125 78.550781 460.15625 79.632812 460.15625 L 113.054688 460.15625 C 113.5625 460.15625 114.035156 459.929688 114.355469 459.539062 C 114.667969 459.15625 114.789062 458.65625 114.691406 458.175781 C 114.246094 456.007812 112.542969 454.003906 109.757812 452.386719 C 103.820312 448.929688 96.261719 445.4375 94.085938 444.445312 C 93.695312 444.269531 93.28125 444.179688 92.855469 444.179688 Z M 113.054688 461.707031 L 79.632812 461.707031 C 77.722656 461.707031 76.148438 460.21875 76.054688 458.316406 C 75.765625 452.652344 77.949219 446.65625 78.902344 444.339844 C 79.332031 443.300781 80.335938 442.625 81.464844 442.625 L 92.855469 442.625 C 93.503906 442.625 94.132812 442.761719 94.726562 443.03125 C 96.917969 444.027344 104.539062 447.550781 110.539062 451.042969 C 114.554688 453.378906 115.839844 456.042969 116.214844 457.867188 C 116.40625 458.808594 116.167969 459.773438 115.554688 460.519531 C 114.941406 461.277344 114.03125 461.707031 113.054688 461.707031 " fill-opacity="1" fill-rule="nonzero"/><path fill="#000000" d="M 94.398438 451.660156 C 94.199219 451.660156 94 451.582031 93.847656 451.425781 C 93.546875 451.121094 93.550781 450.628906 93.855469 450.328125 L 98.648438 445.609375 C 98.953125 445.308594 99.445312 445.316406 99.746094 445.621094 C 100.046875 445.925781 100.042969 446.417969 99.738281 446.71875 L 94.945312 451.433594 C 94.792969 451.582031 94.597656 451.660156 94.398438 451.660156 " fill-opacity="1" fill-rule="nonzero"/><path fill="#000000" d="M 97.492188 453.589844 C 97.292969 453.589844 97.089844 453.511719 96.9375 453.359375 C 96.636719 453.054688 96.640625 452.558594 96.949219 452.257812 L 101.742188 447.542969 C 102.046875 447.242188 102.539062 447.246094 102.839844 447.550781 C 103.140625 447.855469 103.136719 448.347656 102.832031 448.652344 L 98.039062 453.367188 C 97.886719 453.515625 97.691406 453.589844 97.492188 453.589844 " fill-opacity="1" fill-rule="nonzero"/><path fill="#ffffff" d="M 42.59375 443.40625 L 31.203125 443.40625 C 30.394531 443.40625 29.667969 443.890625 29.359375 444.636719 C 28.347656 447.089844 26.292969 452.832031 26.570312 458.277344 C 26.644531 459.765625 27.882812 460.929688 29.371094 460.929688 L 62.792969 460.929688 C 64.332031 460.929688 65.5 459.527344 65.191406 458.019531 C 64.824219 456.214844 63.550781 453.847656 59.886719 451.710938 C 53.953125 448.261719 46.496094 444.808594 44.144531 443.742188 C 43.65625 443.519531 43.128906 443.40625 42.59375 443.40625 " fill-opacity="1" fill-rule="nonzero"/><path fill="#000000" d="M 31.203125 444.179688 C 30.707031 444.179688 30.265625 444.476562 30.078125 444.929688 C 29.164062 447.148438 27.074219 452.886719 27.34375 458.238281 C 27.398438 459.3125 28.289062 460.15625 29.371094 460.15625 L 62.792969 460.15625 C 63.300781 460.15625 63.773438 459.929688 64.09375 459.539062 C 64.40625 459.15625 64.527344 458.65625 64.429688 458.175781 C 63.984375 456.007812 62.28125 454.003906 59.496094 452.386719 C 53.558594 448.929688 45.996094 445.4375 43.824219 444.445312 C 43.433594 444.269531 43.019531 444.179688 42.59375 444.179688 Z M 62.792969 461.707031 L 29.371094 461.707031 C 27.460938 461.707031 25.890625 460.21875 25.792969 458.316406 C 25.503906 452.652344 27.6875 446.65625 28.640625 444.339844 C 29.070312 443.300781 30.074219 442.625 31.203125 442.625 L 42.59375 442.625 C 43.242188 442.625 43.871094 442.761719 44.464844 443.03125 C 46.65625 444.027344 54.277344 447.550781 60.277344 451.042969 C 64.292969 453.378906 65.578125 456.042969 65.953125 457.867188 C 66.144531 458.808594 65.90625 459.773438 65.296875 460.519531 C 64.679688 461.277344 63.769531 461.707031 62.792969 461.707031 " fill-opacity="1" fill-rule="nonzero"/><path fill="#000000" d="M 42.859375 451.242188 C 42.660156 451.242188 42.457031 451.167969 42.304688 451.011719 C 42.003906 450.707031 42.007812 450.214844 42.316406 449.914062 L 47.109375 445.199219 C 47.414062 444.898438 47.90625 444.902344 48.207031 445.207031 C 48.507812 445.511719 48.503906 446.007812 48.199219 446.304688 L 43.40625 451.019531 C 43.253906 451.171875 43.058594 451.242188 42.859375 451.242188 " fill-opacity="1" fill-rule="nonzero"/><path fill="#000000" d="M 45.953125 453.179688 C 45.75 453.179688 45.550781 453.101562 45.398438 452.945312 C 45.097656 452.640625 45.101562 452.148438 45.40625 451.847656 L 50.199219 447.128906 C 50.507812 446.828125 50.996094 446.832031 51.300781 447.140625 C 51.601562 447.445312 51.597656 447.9375 51.289062 448.238281 L 46.496094 452.953125 C 46.347656 453.101562 46.148438 453.179688 45.953125 453.179688 " fill-opacity="1" fill-rule="nonzero"/><path fill="#000000" d="M 55.71875 171.933594 C 55.96875 172.015625 56.234375 172.125 56.515625 172.261719 C 56.515625 172.261719 57.144531 172.644531 57.722656 173.703125 C 58.300781 174.761719 59.261719 178.035156 60.511719 177.84375 C 61.765625 177.648438 63.304688 172.546875 63.304688 172.546875 C 63.304688 172.546875 63.785156 170.046875 67.632812 171.011719 C 71.480469 171.972656 74.464844 173.605469 75.617188 174.28125 C 76.773438 174.953125 77.832031 175.148438 78.988281 175.050781 C 80.140625 174.953125 83.894531 172.742188 83.21875 169.179688 C 82.546875 165.621094 79.273438 163.203125 76.390625 163.214844 C 73.382812 163.230469 69.078125 161.289062 68.304688 160.90625 C 67.539062 160.523438 63.007812 158.664062 60.539062 160.042969 C 58.339844 161.269531 56.488281 163.21875 55.484375 166.585938 C 54.839844 168.734375 55.335938 170.707031 55.402344 171.355469 C 55.429688 171.605469 55.476562 171.851562 55.71875 171.933594 " fill-opacity="1" fill-rule="nonzero"/><path fill="#ffffff" d="M 76.105469 174.640625 C 76.179688 174.679688 76.222656 174.757812 76.214844 174.839844 C 76.175781 175.425781 76.046875 177.859375 76.414062 180.050781 C 76.617188 181.261719 77.394531 184.199219 77.066406 184.808594 C 76.738281 185.410156 75.527344 185.457031 74.96875 185.410156 C 74.40625 185.367188 73.476562 185.597656 73.242188 186.066406 C 73.007812 186.53125 72.308594 190.867188 72.03125 191.894531 C 71.75 192.917969 70.820312 194.132812 69.09375 193.945312 C 68.871094 193.921875 68.226562 193.777344 67.726562 193.660156 C 67.363281 193.574219 67 193.816406 66.945312 194.1875 C 66.113281 199.453125 71.4375 205.386719 72.71875 206.742188 C 72.847656 206.878906 72.800781 207.109375 72.625 207.1875 C 60.824219 212.339844 48.683594 203.445312 45.363281 200.683594 C 45.214844 200.558594 51.5625 198.839844 54.597656 191.542969 C 55.929688 188.332031 55.484375 183.339844 55.535156 181.355469 C 55.542969 180.957031 55.316406 180.585938 54.953125 180.421875 C 54.15625 180.054688 52.996094 178.832031 52.660156 177.628906 C 52.179688 175.898438 52.371094 170.375 56.949219 172.585938 C 56.949219 172.585938 57.578125 172.972656 58.15625 174.03125 C 58.734375 175.089844 59.695312 178.363281 60.945312 178.167969 C 62.199219 177.976562 63.738281 172.875 63.738281 172.875 C 63.738281 172.875 64.21875 170.375 68.066406 171.339844 C 71.539062 172.207031 75.386719 174.25 76.105469 174.640625 " fill-opacity="1" fill-rule="nonzero"/><path fill="#000000" d="M 76.355469 184.5 Z M 46.8125 200.847656 C 50.953125 204.070312 61.351562 210.785156 71.664062 206.742188 C 69.6875 204.535156 65.390625 199.070312 66.175781 194.066406 C 66.238281 193.675781 66.460938 193.328125 66.785156 193.109375 C 67.113281 192.886719 67.519531 192.8125 67.902344 192.902344 C 68.90625 193.136719 69.140625 193.167969 69.175781 193.171875 C 70.742188 193.34375 71.207031 191.96875 71.28125 191.6875 C 71.394531 191.273438 71.601562 190.175781 71.800781 189.109375 C 72.234375 186.796875 72.390625 186.027344 72.546875 185.71875 C 72.972656 184.867188 74.25 184.574219 75.03125 184.636719 C 75.648438 184.6875 76.214844 184.566406 76.363281 184.449219 C 76.429688 183.953125 76.070312 182.238281 75.890625 181.398438 C 75.789062 180.921875 75.699219 180.492188 75.648438 180.175781 C 75.320312 178.226562 75.371094 176.132812 75.417969 175.152344 C 74.242188 174.53125 70.90625 172.847656 67.878906 172.089844 C 66.679688 171.792969 65.726562 171.835938 65.125 172.222656 C 64.621094 172.539062 64.5 173.019531 64.5 173.023438 L 64.480469 173.101562 C 63.714844 175.644531 62.5 178.71875 61.066406 178.9375 C 59.515625 179.171875 58.628906 177.078125 57.917969 175.394531 C 57.75 174.996094 57.59375 174.621094 57.476562 174.402344 C 57.078125 173.679688 56.664062 173.34375 56.558594 173.265625 C 55.488281 172.757812 54.679688 172.71875 54.164062 173.148438 C 53.1875 173.964844 53.121094 176.378906 53.410156 177.421875 C 53.6875 178.421875 54.703125 179.449219 55.28125 179.714844 C 55.921875 180.011719 56.328125 180.664062 56.308594 181.375 C 56.300781 181.765625 56.308594 182.273438 56.320312 182.863281 C 56.371094 185.355469 56.441406 189.125 55.316406 191.84375 C 53.636719 195.882812 50.777344 198.90625 46.8125 200.847656 Z M 64.925781 209.554688 C 55.679688 209.554688 47.585938 203.542969 44.867188 201.277344 L 44.535156 201 L 44.59375 200.570312 C 44.65625 200.113281 44.984375 199.972656 45.394531 199.792969 C 49.394531 198.039062 52.25 195.167969 53.878906 191.246094 C 54.882812 188.828125 54.8125 185.257812 54.769531 182.890625 C 54.757812 182.277344 54.746094 181.746094 54.757812 181.335938 C 54.757812 181.246094 54.710938 181.160156 54.628906 181.125 C 53.636719 180.667969 52.3125 179.277344 51.914062 177.835938 C 51.53125 176.46875 51.511719 173.339844 53.167969 171.953125 C 53.878906 171.359375 55.171875 170.867188 57.289062 171.890625 L 57.351562 171.925781 C 57.4375 171.976562 58.179688 172.453125 58.839844 173.660156 C 58.996094 173.949219 59.160156 174.335938 59.351562 174.789062 C 59.632812 175.457031 60.363281 177.195312 60.820312 177.390625 C 61.320312 177.054688 62.3125 174.90625 62.984375 172.679688 C 63.042969 172.4375 63.316406 171.53125 64.289062 170.910156 C 65.273438 170.28125 66.609375 170.171875 68.253906 170.582031 C 71.816406 171.476562 75.730469 173.550781 76.476562 173.960938 C 76.816406 174.140625 77.015625 174.507812 76.992188 174.890625 C 76.960938 175.355469 76.820312 177.785156 77.179688 179.921875 C 77.230469 180.21875 77.316406 180.628906 77.410156 181.078125 C 77.898438 183.382812 78.09375 184.542969 77.75 185.175781 C 77.136719 186.3125 75.269531 186.214844 74.902344 186.1875 C 74.558594 186.15625 74.066406 186.308594 73.933594 186.425781 C 73.816406 186.789062 73.523438 188.351562 73.328125 189.398438 C 73.113281 190.542969 72.910156 191.621094 72.78125 192.097656 C 72.378906 193.5625 71.058594 194.941406 69.007812 194.71875 C 68.925781 194.710938 68.714844 194.6875 67.691406 194.449219 C 67.054688 199.1875 71.800781 204.636719 73.28125 206.207031 C 73.519531 206.457031 73.617188 206.804688 73.550781 207.144531 C 73.480469 207.480469 73.25 207.761719 72.9375 207.898438 C 70.238281 209.074219 67.539062 209.554688 64.925781 209.554688 " fill-opacity="1" fill-rule="nonzero"/><path fill="#000000" d="M 67.402344 194.351562 C 67.328125 194.351562 67.253906 194.339844 67.183594 194.320312 C 65.578125 193.847656 63 192.742188 61.175781 191.542969 C 60.820312 191.308594 60.71875 190.824219 60.953125 190.464844 C 61.191406 190.105469 61.671875 190.011719 62.03125 190.242188 C 63.730469 191.359375 66.128906 192.386719 67.621094 192.828125 C 68.035156 192.949219 68.269531 193.382812 68.148438 193.792969 C 68.046875 194.128906 67.738281 194.351562 67.402344 194.351562 " fill-opacity="1" fill-rule="nonzero"/></svg>