<svg xmlns="http://www.w3.org/2000/svg" xmlns:xlink="http://www.w3.org/1999/xlink" width="628" zoomAndPan="magnify" viewBox="0 0 470.87997 470.999988" height="628" preserveAspectRatio="xMidYMid meet" version="1.0"><path fill="#e7f0ff" d="M 186.84375 20.609375 C 177.554688 23.507812 136.347656 36.960938 95.199219 72.664062 C 85.230469 81.3125 46.523438 115.09375 29.308594 162.09375 C 0.0117188 242.09375 33.488281 364.976562 134.476562 413.886719 C 252.105469 470.859375 400.691406 400.734375 434.578125 306.890625 C 449.609375 265.269531 450.289062 196.25 412.421875 150.738281 C 381.949219 114.109375 329.835938 96.703125 331.859375 62.058594 C 332.832031 45.371094 345.421875 40.757812 341.929688 30.25 C 333.644531 5.324219 252.476562 0.152344 186.84375 20.609375 " fill-opacity="1" fill-rule="nonzero"/><path fill="#6ce5e8" d="M 420.566406 12.300781 L 317.855469 52.785156 C 312.539062 54.882812 311.300781 61.847656 315.570312 65.648438 L 328.0625 76.777344 C 331.222656 79.59375 331.5 84.433594 328.691406 87.601562 L 274.417969 148.730469 C 271.601562 151.894531 266.753906 152.1875 263.589844 149.371094 L 190.84375 84.785156 C 187.679688 81.972656 182.828125 82.257812 180.015625 85.429688 L 34.667969 248.621094 C 31.855469 251.785156 32.140625 256.636719 35.308594 259.449219 L 61.902344 283.058594 C 65.070312 285.867188 69.917969 285.582031 72.730469 282.414062 L 184.308594 157.304688 C 187.121094 154.136719 191.96875 153.847656 195.136719 156.660156 L 267.855469 221.226562 C 271.019531 224.035156 275.867188 223.75 278.683594 220.582031 L 366.679688 121.476562 C 369.496094 118.304688 374.355469 118.019531 377.523438 120.839844 L 390.992188 132.84375 C 395.289062 136.675781 402.117188 134.582031 403.53125 129.003906 L 430.816406 21.320312 C 432.347656 15.261719 426.378906 10.007812 420.566406 12.300781 " fill-opacity="1" fill-rule="nonzero"/><path fill="#f96f5f" d="M 337.300781 376.96875 L 337.300781 405.851562 C 337.300781 420.289062 349 431.988281 363.4375 431.988281 L 382.25 431.988281 C 396.6875 431.988281 408.390625 420.289062 408.390625 405.851562 L 408.390625 376.96875 L 337.300781 376.96875 " fill-opacity="1" fill-rule="nonzero"/><path fill="#6ce5e8" d="M 273.820312 279.824219 C 280.527344 285.851562 293.660156 294.949219 317.753906 303.269531 C 358.402344 317.316406 369.683594 359.863281 369.683594 359.863281 C 299.644531 373.015625 276.046875 307.367188 269.667969 282.347656 C 269.046875 279.917969 271.960938 278.148438 273.820312 279.824219 " fill-opacity="1" fill-rule="nonzero"/><path fill="#f96f5f" d="M 373.242188 362.359375 C 373.140625 362.359375 373.039062 362.339844 372.941406 362.296875 C 338.5 347.785156 314.726562 329.574219 300.847656 316.851562 C 285.789062 303.046875 278.777344 292.519531 278.710938 292.414062 C 278.476562 292.058594 278.574219 291.582031 278.929688 291.347656 C 279.285156 291.113281 279.765625 291.210938 279.996094 291.566406 C 280.0625 291.671875 287 302.074219 301.9375 315.757812 C 315.71875 328.382812 339.332031 346.460938 373.542969 360.878906 C 373.933594 361.042969 374.117188 361.496094 373.953125 361.890625 C 373.828125 362.183594 373.542969 362.359375 373.242188 362.359375 " fill-opacity="1" fill-rule="nonzero"/><path fill="#f96f5f" d="M 372.84375 375.589844 C 372.429688 375.589844 372.082031 375.253906 372.074219 374.832031 L 367.8125 156.753906 C 367.800781 156.328125 368.140625 155.980469 368.566406 155.96875 C 368.972656 155.945312 369.34375 156.300781 369.351562 156.726562 L 373.617188 374.804688 C 373.625 375.230469 373.285156 375.582031 372.863281 375.589844 C 372.855469 375.589844 372.851562 375.589844 372.84375 375.589844 " fill-opacity="1" fill-rule="nonzero"/><path fill="#f96f5f" d="M 369.914062 253.410156 C 369.703125 253.410156 369.496094 253.328125 369.347656 253.164062 C 369.058594 252.847656 369.078125 252.359375 369.394531 252.074219 L 401.75 222.375 C 402.0625 222.089844 402.554688 222.113281 402.839844 222.421875 C 403.128906 222.738281 403.109375 223.226562 402.796875 223.511719 L 370.433594 253.207031 C 370.285156 253.34375 370.097656 253.410156 369.914062 253.410156 " fill-opacity="1" fill-rule="nonzero"/><path fill="#f96f5f" d="M 368.582031 235.894531 C 368.472656 235.894531 368.355469 235.871094 368.253906 235.820312 L 334.433594 220.011719 C 334.050781 219.828125 333.882812 219.371094 334.0625 218.984375 C 334.246094 218.597656 334.703125 218.433594 335.089844 218.617188 L 368.90625 234.425781 C 369.289062 234.605469 369.457031 235.0625 369.277344 235.449219 C 369.144531 235.726562 368.867188 235.894531 368.582031 235.894531 " fill-opacity="1" fill-rule="nonzero"/><path fill="#000000" d="M 411.46875 301.078125 C 411.46875 322.777344 393.878906 340.363281 372.183594 340.363281 C 350.484375 340.363281 332.894531 322.777344 332.894531 301.078125 C 332.894531 279.382812 350.484375 261.792969 372.183594 261.792969 C 393.878906 261.792969 411.46875 279.382812 411.46875 301.078125 " fill-opacity="1" fill-rule="nonzero"/><path fill="#6ce5e8" d="M 411.980469 299.910156 C 411.980469 320.96875 394.914062 338.03125 373.863281 338.03125 C 352.8125 338.03125 335.742188 320.96875 335.742188 299.910156 C 335.742188 278.859375 352.8125 261.792969 373.863281 261.792969 C 394.914062 261.792969 411.980469 278.859375 411.980469 299.910156 " fill-opacity="1" fill-rule="nonzero"/><path fill="#000000" d="M 373.863281 262.5625 C 353.269531 262.5625 336.511719 279.316406 336.511719 299.910156 C 336.511719 320.507812 353.269531 337.261719 373.863281 337.261719 C 394.457031 337.261719 411.210938 320.507812 411.210938 299.910156 C 411.210938 279.316406 394.457031 262.5625 373.863281 262.5625 Z M 373.863281 338.804688 C 352.417969 338.804688 334.972656 321.359375 334.972656 299.910156 C 334.972656 278.46875 352.417969 261.023438 373.863281 261.023438 C 395.304688 261.023438 412.75 278.46875 412.75 299.910156 C 412.75 321.359375 395.304688 338.804688 373.863281 338.804688 " fill-opacity="1" fill-rule="nonzero"/><path fill="#ffffff" d="M 405.851562 299.910156 C 405.851562 317.582031 391.53125 331.902344 373.863281 331.902344 C 356.195312 331.902344 341.871094 317.582031 341.871094 299.910156 C 341.871094 282.246094 356.195312 267.921875 373.863281 267.921875 C 391.53125 267.921875 405.851562 282.246094 405.851562 299.910156 " fill-opacity="1" fill-rule="nonzero"/><path fill="#000000" d="M 400.761719 318.011719 C 400.613281 318.011719 400.46875 317.972656 400.339844 317.886719 C 399.980469 317.65625 399.878906 317.179688 400.113281 316.820312 C 401.730469 314.3125 402.976562 311.59375 403.816406 308.738281 C 403.9375 308.332031 404.371094 308.097656 404.777344 308.21875 C 405.183594 308.339844 405.417969 308.765625 405.296875 309.175781 C 404.414062 312.171875 403.105469 315.027344 401.40625 317.660156 C 401.257812 317.886719 401.011719 318.011719 400.761719 318.011719 " fill-opacity="1" fill-rule="nonzero"/><path fill="#000000" d="M 402.660156 286.726562 C 402.371094 286.726562 402.097656 286.570312 401.964844 286.296875 C 396.691406 275.4375 385.925781 268.695312 373.863281 268.695312 C 363.953125 268.695312 354.535156 273.46875 348.671875 281.472656 C 348.417969 281.8125 347.933594 281.886719 347.589844 281.636719 C 347.246094 281.386719 347.175781 280.90625 347.425781 280.5625 C 353.582031 272.164062 363.464844 267.152344 373.863281 267.152344 C 386.519531 267.152344 397.820312 274.230469 403.351562 285.625 C 403.535156 286.003906 403.375 286.464844 402.992188 286.652344 C 402.886719 286.707031 402.769531 286.726562 402.660156 286.726562 " fill-opacity="1" fill-rule="nonzero"/><path fill="#000000" d="M 373.863281 332.671875 C 355.796875 332.671875 341.101562 317.976562 341.101562 299.914062 C 341.101562 294.300781 342.542969 288.765625 345.273438 283.898438 C 345.484375 283.527344 345.953125 283.398438 346.324219 283.605469 C 346.695312 283.8125 346.828125 284.285156 346.617188 284.65625 C 344.015625 289.289062 342.640625 294.566406 342.640625 299.914062 C 342.640625 317.128906 356.648438 331.132812 373.863281 331.132812 C 374.289062 331.132812 374.632812 331.476562 374.632812 331.902344 C 374.632812 332.328125 374.289062 332.671875 373.863281 332.671875 " fill-opacity="1" fill-rule="nonzero"/><path fill="#f96f5f" d="M 370.933594 322.5 L 370.933594 317.238281 C 367.222656 317.074219 363.625 316.078125 361.519531 314.859375 L 363.179688 308.382812 C 365.507812 309.65625 368.769531 310.816406 372.371094 310.816406 C 375.527344 310.816406 377.6875 309.597656 377.6875 307.382812 C 377.6875 305.28125 375.914062 303.953125 371.816406 302.566406 C 365.894531 300.574219 361.851562 297.808594 361.851562 292.4375 C 361.851562 287.566406 365.285156 283.746094 371.207031 282.582031 L 371.207031 277.324219 L 376.632812 277.324219 L 376.632812 282.195312 C 380.34375 282.363281 382.835938 283.136719 384.660156 284.023438 L 383.050781 290.277344 C 381.617188 289.671875 379.070312 288.394531 375.082031 288.394531 C 371.484375 288.394531 370.324219 289.949219 370.324219 291.496094 C 370.324219 293.324219 372.261719 294.488281 376.964844 296.257812 C 383.554688 298.582031 386.210938 301.628906 386.210938 306.609375 C 386.210938 311.539062 382.722656 315.746094 376.359375 316.851562 L 376.359375 322.5 L 370.933594 322.5 " fill-opacity="1" fill-rule="nonzero"/><path fill="#000000" d="M 443.175781 218.75 C 443.175781 235.308594 429.75 248.730469 413.195312 248.730469 C 396.640625 248.730469 383.214844 235.308594 383.214844 218.75 C 383.214844 202.195312 396.640625 188.769531 413.195312 188.769531 C 429.75 188.769531 443.175781 202.195312 443.175781 218.75 " fill-opacity="1" fill-rule="nonzero"/><path fill="#6ce5e8" d="M 443.570312 217.859375 C 443.570312 233.925781 430.546875 246.949219 414.476562 246.949219 C 398.414062 246.949219 385.386719 233.925781 385.386719 217.859375 C 385.386719 201.796875 398.414062 188.769531 414.476562 188.769531 C 430.546875 188.769531 443.570312 201.796875 443.570312 217.859375 " fill-opacity="1" fill-rule="nonzero"/><path fill="#000000" d="M 414.480469 189.539062 C 398.863281 189.539062 386.160156 202.246094 386.160156 217.859375 C 386.160156 233.476562 398.863281 246.179688 414.480469 246.179688 C 430.09375 246.179688 442.796875 233.476562 442.796875 217.859375 C 442.796875 202.246094 430.09375 189.539062 414.480469 189.539062 Z M 414.480469 247.722656 C 398.011719 247.722656 384.617188 234.324219 384.617188 217.859375 C 384.617188 201.394531 398.011719 188 414.480469 188 C 430.945312 188 444.339844 201.394531 444.339844 217.859375 C 444.339844 234.324219 430.945312 247.722656 414.480469 247.722656 " fill-opacity="1" fill-rule="nonzero"/><path fill="#ffffff" d="M 438.890625 217.863281 C 438.890625 231.34375 427.960938 242.273438 414.476562 242.273438 C 400.992188 242.273438 390.066406 231.34375 390.066406 217.863281 C 390.066406 204.378906 400.992188 193.445312 414.476562 193.445312 C 427.960938 193.445312 438.890625 204.378906 438.890625 217.863281 " fill-opacity="1" fill-rule="nonzero"/><path fill="#000000" d="M 435.003906 231.855469 C 434.859375 231.855469 434.714844 231.8125 434.585938 231.734375 C 434.226562 231.5 434.125 231.023438 434.355469 230.667969 C 435.582031 228.765625 436.527344 226.707031 437.164062 224.546875 C 437.28125 224.136719 437.714844 223.902344 438.121094 224.023438 C 438.527344 224.144531 438.761719 224.570312 438.640625 224.980469 C 437.964844 227.285156 436.960938 229.480469 435.652344 231.503906 C 435.503906 231.730469 435.253906 231.855469 435.003906 231.855469 " fill-opacity="1" fill-rule="nonzero"/><path fill="#000000" d="M 436.449219 207.984375 C 436.167969 207.984375 435.894531 207.824219 435.761719 207.550781 C 431.769531 199.328125 423.613281 194.222656 414.480469 194.222656 C 406.972656 194.222656 399.84375 197.835938 395.398438 203.898438 C 395.148438 204.242188 394.664062 204.3125 394.320312 204.0625 C 393.980469 203.808594 393.90625 203.328125 394.15625 202.984375 C 398.890625 196.53125 406.484375 192.675781 414.480469 192.675781 C 424.058594 192.675781 432.960938 198.25 437.144531 206.875 C 437.332031 207.257812 437.171875 207.71875 436.789062 207.90625 C 436.679688 207.957031 436.566406 207.984375 436.449219 207.984375 " fill-opacity="1" fill-rule="nonzero"/><path fill="#000000" d="M 414.480469 243.042969 C 400.59375 243.042969 389.296875 231.746094 389.296875 217.859375 C 389.296875 213.546875 390.40625 209.289062 392.503906 205.550781 C 392.710938 205.179688 393.183594 205.046875 393.554688 205.257812 C 393.925781 205.464844 394.058594 205.933594 393.851562 206.304688 C 391.878906 209.8125 390.839844 213.808594 390.839844 217.859375 C 390.839844 230.894531 401.445312 241.503906 414.480469 241.503906 C 414.90625 241.503906 415.25 241.847656 415.25 242.273438 C 415.25 242.699219 414.90625 243.042969 414.480469 243.042969 " fill-opacity="1" fill-rule="nonzero"/><path fill="#f96f5f" d="M 412.242188 235.097656 L 412.242188 231.082031 C 409.410156 230.953125 406.664062 230.195312 405.058594 229.265625 L 406.328125 224.324219 C 408.101562 225.292969 410.597656 226.183594 413.339844 226.183594 C 415.75 226.183594 417.398438 225.253906 417.398438 223.5625 C 417.398438 221.957031 416.046875 220.941406 412.917969 219.886719 C 408.398438 218.367188 405.316406 216.253906 405.316406 212.15625 C 405.316406 208.441406 407.933594 205.523438 412.449219 204.636719 L 412.449219 200.621094 L 416.59375 200.621094 L 416.59375 204.339844 C 419.425781 204.46875 421.324219 205.058594 422.71875 205.734375 L 421.492188 210.507812 C 420.394531 210.046875 418.453125 209.070312 415.410156 209.070312 C 412.664062 209.070312 411.777344 210.253906 411.777344 211.4375 C 411.777344 212.832031 413.253906 213.71875 416.84375 215.070312 C 421.871094 216.847656 423.902344 219.171875 423.902344 222.972656 C 423.902344 226.730469 421.242188 229.941406 416.382812 230.789062 L 416.382812 235.097656 L 412.242188 235.097656 " fill-opacity="1" fill-rule="nonzero"/><path fill="#000000" d="M 356.445312 227.554688 C 356.445312 244.113281 343.023438 257.535156 326.464844 257.535156 C 309.90625 257.535156 296.484375 244.113281 296.484375 227.554688 C 296.484375 210.996094 309.90625 197.574219 326.464844 197.574219 C 343.023438 197.574219 356.445312 210.996094 356.445312 227.554688 " fill-opacity="1" fill-rule="nonzero"/><path fill="#6ce5e8" d="M 356.835938 226.664062 C 356.835938 242.730469 343.8125 255.753906 327.746094 255.753906 C 311.679688 255.753906 298.660156 242.730469 298.660156 226.664062 C 298.660156 210.597656 311.679688 197.574219 327.746094 197.574219 C 343.8125 197.574219 356.835938 210.597656 356.835938 226.664062 " fill-opacity="1" fill-rule="nonzero"/><path fill="#000000" d="M 327.75 198.34375 C 312.132812 198.34375 299.429688 211.046875 299.429688 226.664062 C 299.429688 242.277344 312.132812 254.980469 327.75 254.980469 C 343.367188 254.980469 356.070312 242.277344 356.070312 226.664062 C 356.070312 211.046875 343.367188 198.34375 327.75 198.34375 Z M 327.75 256.523438 C 311.285156 256.523438 297.886719 243.128906 297.886719 226.664062 C 297.886719 210.195312 311.285156 196.800781 327.75 196.800781 C 344.214844 196.800781 357.609375 210.195312 357.609375 226.664062 C 357.609375 243.128906 344.214844 256.523438 327.75 256.523438 " fill-opacity="1" fill-rule="nonzero"/><path fill="#ffffff" d="M 352.160156 226.664062 C 352.160156 240.148438 341.230469 251.074219 327.746094 251.074219 C 314.265625 251.074219 303.332031 240.148438 303.332031 226.664062 C 303.332031 213.179688 314.265625 202.25 327.746094 202.25 C 341.230469 202.25 352.160156 213.179688 352.160156 226.664062 " fill-opacity="1" fill-rule="nonzero"/><path fill="#000000" d="M 348.269531 240.660156 C 348.128906 240.660156 347.984375 240.617188 347.855469 240.535156 C 347.496094 240.304688 347.394531 239.828125 347.625 239.472656 C 348.855469 237.570312 349.796875 235.511719 350.429688 233.347656 C 350.550781 232.941406 350.984375 232.707031 351.390625 232.824219 C 351.796875 232.945312 352.03125 233.375 351.910156 233.78125 C 351.234375 236.085938 350.230469 238.28125 348.921875 240.304688 C 348.773438 240.53125 348.527344 240.660156 348.269531 240.660156 " fill-opacity="1" fill-rule="nonzero"/><path fill="#000000" d="M 349.726562 216.785156 C 349.4375 216.785156 349.164062 216.625 349.027344 216.347656 C 345.039062 208.125 336.882812 203.019531 327.75 203.019531 C 320.246094 203.019531 313.113281 206.636719 308.671875 212.695312 C 308.417969 213.039062 307.9375 213.117188 307.59375 212.863281 C 307.25 212.609375 307.175781 212.128906 307.429688 211.785156 C 312.160156 205.332031 319.753906 201.480469 327.75 201.480469 C 337.332031 201.480469 346.230469 207.054688 350.417969 215.675781 C 350.601562 216.058594 350.445312 216.523438 350.058594 216.707031 C 349.953125 216.757812 349.835938 216.785156 349.726562 216.785156 " fill-opacity="1" fill-rule="nonzero"/><path fill="#000000" d="M 327.75 251.847656 C 313.863281 251.847656 302.566406 240.546875 302.566406 226.664062 C 302.566406 222.347656 303.675781 218.089844 305.773438 214.351562 C 305.980469 213.980469 306.453125 213.847656 306.824219 214.058594 C 307.195312 214.265625 307.328125 214.738281 307.121094 215.105469 C 305.148438 218.617188 304.109375 222.613281 304.109375 226.664062 C 304.109375 239.699219 314.714844 250.304688 327.75 250.304688 C 328.175781 250.304688 328.523438 250.648438 328.523438 251.074219 C 328.523438 251.5 328.175781 251.847656 327.75 251.847656 " fill-opacity="1" fill-rule="nonzero"/><path fill="#f96f5f" d="M 325.511719 243.898438 L 325.511719 239.882812 C 322.679688 239.761719 319.933594 239 318.324219 238.070312 L 319.59375 233.125 C 321.371094 234.101562 323.863281 234.984375 326.605469 234.984375 C 329.015625 234.984375 330.664062 234.054688 330.664062 232.367188 C 330.664062 230.757812 329.3125 229.746094 326.1875 228.691406 C 321.667969 227.171875 318.582031 225.058594 318.582031 220.960938 C 318.582031 217.242188 321.199219 214.324219 325.722656 213.441406 L 325.722656 209.425781 L 329.859375 209.425781 L 329.859375 213.144531 C 332.691406 213.269531 334.59375 213.863281 335.988281 214.539062 L 334.761719 219.3125 C 333.664062 218.847656 331.71875 217.875 328.679688 217.875 C 325.933594 217.875 325.042969 219.058594 325.042969 220.242188 C 325.042969 221.636719 326.523438 222.523438 330.113281 223.875 C 335.144531 225.648438 337.167969 227.972656 337.167969 231.773438 C 337.167969 235.535156 334.507812 238.746094 329.648438 239.589844 L 329.648438 243.898438 L 325.511719 243.898438 " fill-opacity="1" fill-rule="nonzero"/><path fill="#000000" d="M 395.378906 172.445312 C 395.378906 189.007812 381.953125 202.429688 365.398438 202.429688 C 348.839844 202.429688 335.417969 189.007812 335.417969 172.445312 C 335.417969 155.890625 348.839844 142.46875 365.398438 142.46875 C 381.953125 142.46875 395.378906 155.890625 395.378906 172.445312 " fill-opacity="1" fill-rule="nonzero"/><path fill="#6ce5e8" d="M 395.769531 171.558594 C 395.769531 187.628906 382.742188 200.652344 366.675781 200.652344 C 350.613281 200.652344 337.585938 187.628906 337.585938 171.558594 C 337.585938 155.492188 350.613281 142.46875 366.675781 142.46875 C 382.742188 142.46875 395.769531 155.492188 395.769531 171.558594 " fill-opacity="1" fill-rule="nonzero"/><path fill="#000000" d="M 366.679688 143.238281 C 351.0625 143.238281 338.359375 155.941406 338.359375 171.554688 C 338.359375 187.171875 351.0625 199.875 366.679688 199.875 C 382.296875 199.875 395 187.171875 395 171.554688 C 395 155.941406 382.296875 143.238281 366.679688 143.238281 Z M 366.679688 201.417969 C 350.214844 201.417969 336.820312 188.023438 336.820312 171.554688 C 336.820312 155.089844 350.214844 141.695312 366.679688 141.695312 C 383.148438 141.695312 396.542969 155.089844 396.542969 171.554688 C 396.542969 188.023438 383.148438 201.417969 366.679688 201.417969 " fill-opacity="1" fill-rule="nonzero"/><path fill="#ffffff" d="M 391.09375 171.558594 C 391.09375 185.042969 380.160156 195.96875 366.679688 195.96875 C 353.195312 195.96875 342.269531 185.042969 342.269531 171.558594 C 342.269531 158.074219 353.195312 147.144531 366.679688 147.144531 C 380.160156 147.144531 391.09375 158.074219 391.09375 171.558594 " fill-opacity="1" fill-rule="nonzero"/><path fill="#000000" d="M 387.203125 185.554688 C 387.058594 185.554688 386.914062 185.515625 386.785156 185.429688 C 386.425781 185.199219 386.324219 184.722656 386.554688 184.363281 C 387.78125 182.46875 388.726562 180.40625 389.359375 178.242188 C 389.480469 177.835938 389.910156 177.601562 390.316406 177.722656 C 390.726562 177.84375 390.960938 178.269531 390.839844 178.679688 C 390.160156 180.984375 389.15625 183.179688 387.847656 185.203125 C 387.699219 185.429688 387.453125 185.554688 387.203125 185.554688 " fill-opacity="1" fill-rule="nonzero"/><path fill="#000000" d="M 388.652344 161.679688 C 388.371094 161.679688 388.09375 161.519531 387.960938 161.246094 C 383.96875 153.023438 375.8125 147.914062 366.679688 147.914062 C 359.175781 147.914062 352.042969 151.53125 347.601562 157.59375 C 347.347656 157.9375 346.863281 158.007812 346.523438 157.757812 C 346.179688 157.507812 346.109375 157.023438 346.359375 156.683594 C 351.089844 150.226562 358.6875 146.375 366.679688 146.375 C 376.410156 146.375 385.097656 151.8125 389.347656 160.574219 C 389.535156 160.953125 389.375 161.417969 388.992188 161.601562 C 388.882812 161.652344 388.769531 161.679688 388.652344 161.679688 " fill-opacity="1" fill-rule="nonzero"/><path fill="#000000" d="M 366.679688 196.742188 C 352.792969 196.742188 341.496094 185.445312 341.496094 171.558594 C 341.496094 167.246094 342.605469 162.988281 344.703125 159.25 C 344.914062 158.878906 345.382812 158.746094 345.753906 158.953125 C 346.125 159.164062 346.253906 159.632812 346.046875 160.003906 C 344.078125 163.511719 343.035156 167.511719 343.035156 171.558594 C 343.035156 184.59375 353.640625 195.203125 366.679688 195.203125 C 367.105469 195.203125 367.449219 195.542969 367.449219 195.972656 C 367.449219 196.394531 367.105469 196.742188 366.679688 196.742188 " fill-opacity="1" fill-rule="nonzero"/><path fill="#f96f5f" d="M 364.441406 188.796875 L 364.441406 184.78125 C 361.609375 184.652344 358.863281 183.894531 357.257812 182.964844 L 358.527344 178.019531 C 360.300781 178.992188 362.792969 179.882812 365.539062 179.882812 C 367.949219 179.882812 369.59375 178.949219 369.59375 177.261719 C 369.59375 175.65625 368.242188 174.640625 365.113281 173.585938 C 360.59375 172.066406 357.511719 169.953125 357.511719 165.855469 C 357.511719 162.136719 360.132812 159.222656 364.648438 158.335938 L 364.648438 154.324219 L 368.792969 154.324219 L 368.792969 158.039062 C 371.621094 158.164062 373.523438 158.757812 374.917969 159.433594 L 373.691406 164.207031 C 372.59375 163.742188 370.652344 162.773438 367.609375 162.773438 C 364.859375 162.773438 363.976562 163.953125 363.976562 165.136719 C 363.976562 166.53125 365.453125 167.421875 369.046875 168.769531 C 374.070312 170.542969 376.101562 172.867188 376.101562 176.667969 C 376.101562 180.429688 373.4375 183.640625 368.582031 184.484375 L 368.582031 188.796875 L 364.441406 188.796875 " fill-opacity="1" fill-rule="nonzero"/><path fill="#6ce5e8" d="M 48.644531 426.304688 L 192.902344 426.304688 C 201.5625 426.304688 208.039062 418.355469 206.292969 409.875 L 184.410156 303.484375 C 182.570312 294.539062 174.691406 288.117188 165.558594 288.117188 L 41.820312 288.117188 L 48.644531 426.304688 " fill-opacity="1" fill-rule="nonzero"/><path fill="#000000" d="M 49.378906 425.53125 L 192.902344 425.53125 C 196.796875 425.53125 200.441406 423.800781 202.902344 420.785156 C 205.363281 417.761719 206.324219 413.84375 205.539062 410.03125 L 183.65625 303.640625 C 181.894531 295.09375 174.285156 288.890625 165.558594 288.890625 L 42.632812 288.890625 Z M 192.902344 427.074219 L 48.644531 427.074219 C 48.234375 427.074219 47.894531 426.75 47.875 426.34375 L 41.050781 288.15625 C 41.042969 287.945312 41.117188 287.738281 41.261719 287.585938 C 41.410156 287.433594 41.609375 287.347656 41.820312 287.347656 L 165.558594 287.347656 C 175.011719 287.347656 183.257812 294.070312 185.164062 303.328125 L 207.050781 409.71875 C 207.925781 413.988281 206.851562 418.378906 204.097656 421.757812 C 201.34375 425.136719 197.261719 427.074219 192.902344 427.074219 " fill-opacity="1" fill-rule="nonzero"/><path fill="#f96f5f" d="M 30.175781 426.304688 L 58.167969 426.304688 C 66.828125 426.304688 73.308594 418.355469 71.5625 409.875 L 47.457031 292.695312 C 46.910156 290.03125 44.5625 288.117188 41.84375 288.117188 L 34.644531 288.117188 C 31.660156 288.117188 29.175781 290.410156 28.933594 293.382812 L 19.070312 414.257812 C 18.542969 420.746094 23.664062 426.304688 30.175781 426.304688 " fill-opacity="1" fill-rule="nonzero"/><path fill="#000000" d="M 34.644531 288.890625 C 32.082031 288.890625 29.910156 290.890625 29.703125 293.445312 L 19.839844 414.320312 C 19.601562 417.242188 20.5625 420.035156 22.550781 422.191406 C 24.535156 424.34375 27.246094 425.53125 30.175781 425.53125 L 58.167969 425.53125 C 62.0625 425.53125 65.710938 423.800781 68.171875 420.785156 C 70.632812 417.761719 71.59375 413.84375 70.808594 410.03125 L 46.703125 292.851562 C 46.230469 290.554688 44.1875 288.890625 41.84375 288.890625 Z M 58.167969 427.074219 L 30.175781 427.074219 C 26.855469 427.074219 23.664062 425.675781 21.417969 423.234375 C 19.167969 420.796875 18.035156 417.503906 18.304688 414.195312 L 28.164062 293.320312 C 28.4375 289.972656 31.285156 287.347656 34.644531 287.347656 L 41.84375 287.347656 C 44.914062 287.347656 47.59375 289.53125 48.210938 292.539062 L 72.316406 409.71875 C 73.195312 413.988281 72.121094 418.378906 69.363281 421.757812 C 66.609375 425.136719 62.53125 427.074219 58.167969 427.074219 " fill-opacity="1" fill-rule="nonzero"/><path fill="#000000" d="M 58.167969 422.914062 L 39.097656 422.914062 C 38.671875 422.914062 38.324219 422.570312 38.324219 422.144531 C 38.324219 421.71875 38.671875 421.375 39.097656 421.375 L 58.167969 421.375 C 60.808594 421.375 63.277344 420.203125 64.945312 418.15625 C 66.613281 416.109375 67.265625 413.453125 66.734375 410.867188 L 58.820312 372.402344 C 58.734375 371.984375 59.003906 371.578125 59.421875 371.492188 C 59.839844 371.40625 60.246094 371.675781 60.332031 372.089844 L 68.246094 410.558594 C 68.871094 413.597656 68.101562 416.722656 66.140625 419.128906 C 64.179688 421.535156 61.273438 422.914062 58.167969 422.914062 " fill-opacity="1" fill-rule="nonzero"/><path fill="#000000" d="M 30.175781 422.914062 C 27.984375 422.914062 25.960938 422.027344 24.476562 420.417969 C 22.992188 418.808594 22.269531 416.714844 22.449219 414.535156 L 24.695312 386.988281 C 24.730469 386.5625 25.097656 386.242188 25.527344 386.28125 C 25.953125 386.316406 26.265625 386.6875 26.230469 387.113281 L 23.984375 414.660156 C 23.84375 416.410156 24.417969 418.082031 25.609375 419.375 C 26.796875 420.664062 28.417969 421.375 30.175781 421.375 C 30.601562 421.375 30.945312 421.71875 30.945312 422.144531 C 30.945312 422.570312 30.601562 422.914062 30.175781 422.914062 " fill-opacity="1" fill-rule="nonzero"/><path fill="#000000" d="M 31.71875 311.160156 C 31.699219 311.160156 31.675781 311.160156 31.65625 311.160156 C 31.230469 311.125 30.914062 310.753906 30.949219 310.328125 L 31.417969 304.589844 C 31.453125 304.164062 31.816406 303.847656 32.25 303.878906 C 32.671875 303.914062 32.988281 304.289062 32.957031 304.710938 L 32.484375 310.453125 C 32.453125 310.855469 32.117188 311.160156 31.71875 311.160156 " fill-opacity="1" fill-rule="nonzero"/><path fill="#000000" d="M 49.992188 326.4375 C 49.636719 326.4375 49.3125 326.1875 49.238281 325.820312 L 42.628906 293.6875 C 42.554688 293.316406 42.222656 293.046875 41.84375 293.046875 L 34.644531 293.046875 C 34.230469 293.046875 33.878906 293.371094 33.847656 293.785156 L 33.539062 297.546875 C 33.503906 297.96875 33.132812 298.285156 32.707031 298.25 C 32.285156 298.214844 31.96875 297.84375 32.003906 297.417969 L 32.308594 293.660156 C 32.40625 292.453125 33.433594 291.507812 34.644531 291.507812 L 41.84375 291.507812 C 42.949219 291.507812 43.914062 292.292969 44.136719 293.378906 L 50.75 325.511719 C 50.835938 325.929688 50.566406 326.335938 50.148438 326.421875 C 50.097656 326.429688 50.042969 326.4375 49.992188 326.4375 " fill-opacity="1" fill-rule="nonzero"/><path fill="#000000" d="M 181.246094 344.734375 L 68.300781 344.734375 C 64.578125 344.734375 61.378906 342.203125 60.519531 338.582031 L 50.566406 296.554688 C 50.464844 296.140625 50.722656 295.722656 51.136719 295.625 C 51.546875 295.527344 51.964844 295.785156 52.0625 296.199219 L 62.019531 338.230469 C 62.714844 341.152344 65.292969 343.195312 68.300781 343.195312 L 181.246094 343.195312 C 181.671875 343.195312 182.019531 343.539062 182.019531 343.964844 C 182.019531 344.390625 181.671875 344.734375 181.246094 344.734375 " fill-opacity="1" fill-rule="nonzero"/><path fill="#ffffff" d="M 111.894531 343.964844 L 115.054688 356.726562 C 115.566406 358.886719 117.496094 360.410156 119.714844 360.410156 L 142.085938 360.410156 C 144.519531 360.410156 146.285156 358.089844 145.632812 355.742188 L 142.355469 343.964844 L 111.894531 343.964844 " fill-opacity="1" fill-rule="nonzero"/><path fill="#000000" d="M 112.878906 344.734375 L 115.804688 356.542969 C 116.238281 358.367188 117.84375 359.640625 119.714844 359.640625 L 142.085938 359.640625 C 143.003906 359.640625 143.847656 359.21875 144.402344 358.488281 C 144.957031 357.757812 145.136719 356.832031 144.890625 355.949219 L 141.769531 344.734375 Z M 142.085938 361.179688 L 119.714844 361.179688 C 117.125 361.179688 114.902344 359.421875 114.308594 356.90625 L 111.144531 344.148438 C 111.085938 343.917969 111.140625 343.675781 111.285156 343.488281 C 111.433594 343.304688 111.65625 343.195312 111.894531 343.195312 L 142.355469 343.195312 C 142.703125 343.195312 143.003906 343.421875 143.097656 343.757812 L 146.375 355.535156 C 146.75 356.890625 146.480469 358.304688 145.628906 359.421875 C 144.78125 360.542969 143.488281 361.179688 142.085938 361.179688 " fill-opacity="1" fill-rule="nonzero"/><path fill="#000000" d="M 184.472656 416.386719 L 78.605469 416.386719 C 78.179688 416.386719 77.835938 416.042969 77.835938 415.617188 C 77.835938 415.191406 78.179688 414.847656 78.605469 414.847656 L 184.472656 414.847656 C 184.898438 414.847656 185.246094 415.191406 185.246094 415.617188 C 185.246094 416.042969 184.898438 416.386719 184.472656 416.386719 " fill-opacity="1" fill-rule="nonzero"/><path fill="#f96f5f" d="M 137.054688 283.289062 L 146.421875 283.289062 C 148.953125 283.289062 151.003906 285.339844 151.003906 287.871094 L 132.472656 287.871094 C 132.472656 285.339844 134.523438 283.289062 137.054688 283.289062 " fill-opacity="1" fill-rule="nonzero"/><path fill="#000000" d="M 133.324219 287.101562 L 150.15625 287.101562 C 149.796875 285.367188 148.257812 284.058594 146.421875 284.058594 L 137.054688 284.058594 C 135.21875 284.058594 133.679688 285.367188 133.324219 287.101562 Z M 151.003906 288.640625 L 132.472656 288.640625 C 132.046875 288.640625 131.703125 288.296875 131.703125 287.871094 C 131.703125 284.917969 134.105469 282.519531 137.054688 282.519531 L 146.421875 282.519531 C 149.375 282.519531 151.773438 284.917969 151.773438 287.871094 C 151.773438 288.296875 151.429688 288.640625 151.003906 288.640625 " fill-opacity="1" fill-rule="nonzero"/><path fill="#f96f5f" d="M 61.988281 283.289062 L 71.355469 283.289062 C 73.886719 283.289062 75.9375 285.339844 75.9375 287.871094 L 57.40625 287.871094 C 57.40625 285.339844 59.460938 283.289062 61.988281 283.289062 " fill-opacity="1" fill-rule="nonzero"/><path fill="#000000" d="M 58.257812 287.101562 L 75.089844 287.101562 C 74.730469 285.367188 73.191406 284.058594 71.355469 284.058594 L 61.988281 284.058594 C 60.152344 284.058594 58.613281 285.367188 58.257812 287.101562 Z M 75.9375 288.640625 L 57.40625 288.640625 C 56.980469 288.640625 56.636719 288.296875 56.636719 287.871094 C 56.636719 284.917969 59.039062 282.519531 61.988281 282.519531 L 71.355469 282.519531 C 74.308594 282.519531 76.707031 284.917969 76.707031 287.871094 C 76.707031 288.296875 76.363281 288.640625 75.9375 288.640625 " fill-opacity="1" fill-rule="nonzero"/><path fill="#ffffff" d="M 64.433594 283.042969 L 62.925781 274.078125 C 61.855469 267.71875 66.140625 262.566406 72.5 262.566406 L 128.664062 262.566406 C 135.023438 262.566406 141.042969 267.71875 142.113281 274.078125 L 143.625 283.042969 L 139.324219 283.042969 L 138.152344 276.0625 C 137.316406 271.117188 132.632812 267.105469 127.683594 267.105469 L 75.011719 267.105469 C 70.0625 267.105469 66.726562 271.117188 67.558594 276.0625 L 68.734375 283.042969 L 64.433594 283.042969 " fill-opacity="1" fill-rule="nonzero"/><path fill="#000000" d="M 139.976562 282.273438 L 142.714844 282.273438 L 141.355469 274.207031 C 140.347656 268.210938 134.652344 263.335938 128.664062 263.335938 L 72.5 263.335938 C 69.6875 263.335938 67.222656 264.417969 65.5625 266.378906 C 63.867188 268.382812 63.199219 271.070312 63.683594 273.949219 L 65.085938 282.273438 L 67.820312 282.273438 L 66.796875 276.191406 C 66.351562 273.550781 66.980469 271.058594 68.566406 269.1875 C 70.121094 267.347656 72.410156 266.332031 75.011719 266.332031 L 127.683594 266.332031 C 132.984375 266.332031 138.019531 270.644531 138.910156 275.9375 Z M 143.625 283.8125 L 139.324219 283.8125 C 138.949219 283.8125 138.628906 283.542969 138.566406 283.171875 L 137.390625 276.191406 C 136.617188 271.605469 132.261719 267.875 127.683594 267.875 L 75.011719 267.875 C 72.871094 267.875 71 268.695312 69.742188 270.183594 C 68.457031 271.703125 67.949219 273.746094 68.316406 275.9375 L 69.492188 282.914062 C 69.53125 283.136719 69.46875 283.367188 69.320312 283.539062 C 69.175781 283.710938 68.960938 283.8125 68.734375 283.8125 L 64.433594 283.8125 C 64.058594 283.8125 63.738281 283.542969 63.675781 283.171875 L 62.164062 274.207031 C 61.605469 270.875 62.394531 267.738281 64.386719 265.382812 C 66.34375 263.070312 69.222656 261.796875 72.5 261.796875 L 128.664062 261.796875 C 135.371094 261.796875 141.746094 267.246094 142.875 273.949219 L 144.382812 282.914062 C 144.421875 283.136719 144.359375 283.367188 144.210938 283.539062 C 144.066406 283.710938 143.851562 283.8125 143.625 283.8125 " fill-opacity="1" fill-rule="nonzero"/><path fill="#6ce5e8" d="M 75.289062 258.855469 L 124.625 258.855469 C 126.613281 258.855469 128.496094 260.464844 128.832031 262.453125 L 129.558594 266.761719 C 129.890625 268.75 128.550781 270.359375 126.5625 270.359375 L 77.226562 270.359375 C 75.238281 270.359375 73.355469 268.75 73.019531 266.761719 L 72.296875 262.453125 C 71.960938 260.464844 73.300781 258.855469 75.289062 258.855469 " fill-opacity="1" fill-rule="nonzero"/><path fill="#000000" d="M 75.289062 259.625 C 74.566406 259.625 73.941406 259.894531 73.523438 260.386719 C 73.097656 260.894531 72.929688 261.582031 73.054688 262.324219 L 73.78125 266.632812 C 74.054688 268.265625 75.601562 269.589844 77.226562 269.589844 L 126.5625 269.589844 C 127.285156 269.589844 127.910156 269.320312 128.328125 268.828125 C 128.753906 268.324219 128.921875 267.632812 128.796875 266.890625 L 128.070312 262.582031 C 127.796875 260.949219 126.25 259.625 124.625 259.625 Z M 126.5625 271.132812 L 77.226562 271.132812 C 74.882812 271.132812 72.652344 269.230469 72.261719 266.890625 L 71.535156 262.582031 C 71.332031 261.382812 71.621094 260.25 72.347656 259.390625 C 73.0625 258.546875 74.105469 258.082031 75.289062 258.082031 L 124.625 258.082031 C 126.96875 258.082031 129.199219 259.984375 129.589844 262.324219 L 130.316406 266.632812 C 130.519531 267.832031 130.230469 268.964844 129.503906 269.824219 C 128.789062 270.667969 127.746094 271.132812 126.5625 271.132812 " fill-opacity="1" fill-rule="nonzero"/><path fill="#6ce5e8" d="M 58.433594 416.386719 C 58.304688 416.386719 58.171875 416.355469 58.050781 416.285156 L 38.714844 405.265625 C 38.472656 405.132812 38.324219 404.875 38.324219 404.597656 L 38.324219 296.375 C 38.324219 295.949219 38.671875 295.605469 39.097656 295.605469 C 39.523438 295.605469 39.867188 295.949219 39.867188 296.375 L 39.867188 404.148438 L 58.816406 414.945312 C 59.183594 415.15625 59.3125 415.628906 59.105469 415.996094 C 58.960938 416.246094 58.699219 416.386719 58.433594 416.386719 " fill-opacity="1" fill-rule="nonzero"/><path fill="#000000" d="M 193.121094 167.277344 C 190.542969 167.921875 188.023438 165.769531 184.113281 162.433594 C 179.363281 158.378906 176.050781 155.550781 175.875 151 C 175.722656 147.007812 178.042969 143.296875 180.71875 141.3125 C 182.257812 140.175781 184.585938 139.648438 189.242188 138.601562 C 194.578125 137.398438 195.261719 137.875 198.351562 136.664062 C 201.949219 135.253906 202.511719 134.027344 204.164062 134.335938 C 206.839844 134.84375 209.257812 138.789062 209.203125 142.476562 C 209.132812 147.351562 204.792969 148.082031 199.902344 156.039062 C 195.816406 162.6875 196.179688 166.515625 193.121094 167.277344 " fill-opacity="1" fill-rule="nonzero"/><path fill="#f96f5f" d="M 179.230469 183.683594 C 187.929688 180.84375 201.1875 178.808594 217.035156 183.855469 C 222.8125 185.695312 226.957031 190.78125 227.671875 196.804688 L 240.582031 271.132812 C 241.21875 276.535156 234 281.789062 228.910156 283.71875 C 223.59375 285.730469 215.558594 287.636719 204.183594 287.636719 C 191.988281 287.636719 183.121094 288.34375 178.175781 286.175781 C 174.070312 284.378906 167.890625 280.027344 167.683594 275.550781 L 168.578125 199.152344 C 168.257812 192.191406 172.601562 185.84375 179.230469 183.683594 " fill-opacity="1" fill-rule="nonzero"/><path fill="#f96f5f" d="M 240.1875 215.621094 C 240.1875 215.621094 229.882812 187.078125 218.328125 184.335938 L 224.203125 224.777344 L 240.1875 215.621094 " fill-opacity="1" fill-rule="nonzero"/><path fill="#f96f5f" d="M 150.691406 227.136719 C 150.691406 227.136719 154.816406 211.808594 157.976562 203.1875 C 164.375 185.761719 178.054688 184.121094 178.054688 184.121094 L 178.054688 227.011719 L 150.691406 227.136719 " fill-opacity="1" fill-rule="nonzero"/><path fill="#000000" d="M 203.203125 191.753906 C 191.871094 191.753906 181.941406 187.121094 181.464844 186.890625 C 181.078125 186.710938 180.914062 186.25 181.097656 185.867188 C 181.277344 185.480469 181.738281 185.316406 182.125 185.5 C 182.253906 185.5625 195.40625 191.691406 208.277344 189.867188 C 208.699219 189.808594 209.089844 190.097656 209.152344 190.519531 C 209.210938 190.941406 208.917969 191.332031 208.496094 191.390625 C 206.71875 191.644531 204.941406 191.753906 203.203125 191.753906 " fill-opacity="1" fill-rule="nonzero"/><path fill="#e7f0ff" d="M 198.882812 241.546875 L 249.488281 241.46875 C 250.773438 241.464844 251.886719 240.589844 252.195312 239.347656 L 262.347656 198.140625 C 262.78125 196.378906 261.445312 194.679688 259.632812 194.683594 L 209.027344 194.757812 C 207.746094 194.761719 206.628906 195.636719 206.320312 196.882812 L 196.171875 238.085938 C 195.734375 239.847656 197.070312 241.550781 198.882812 241.546875 " fill-opacity="1" fill-rule="nonzero"/><path fill="#000000" d="M 198.882812 240.773438 L 198.882812 241.546875 L 198.882812 240.773438 L 249.488281 240.699219 C 250.417969 240.695312 251.222656 240.066406 251.445312 239.160156 L 261.597656 197.957031 C 261.746094 197.347656 261.613281 196.71875 261.226562 196.222656 C 260.839844 195.734375 260.261719 195.453125 259.636719 195.453125 L 259.632812 195.453125 L 209.027344 195.527344 C 208.097656 195.53125 207.292969 196.164062 207.070312 197.066406 L 196.917969 238.269531 C 196.769531 238.882812 196.902344 239.511719 197.289062 240.003906 C 197.675781 240.492188 198.253906 240.773438 198.878906 240.773438 C 198.882812 240.773438 198.882812 240.773438 198.882812 240.773438 Z M 198.878906 242.316406 C 197.777344 242.316406 196.757812 241.820312 196.078125 240.953125 C 195.398438 240.085938 195.160156 238.972656 195.421875 237.902344 L 205.574219 196.695312 C 205.964844 195.105469 207.386719 193.992188 209.023438 193.988281 L 259.632812 193.910156 C 259.632812 193.910156 259.632812 193.910156 259.636719 193.910156 C 260.738281 193.910156 261.757812 194.40625 262.4375 195.273438 C 263.121094 196.140625 263.359375 197.253906 263.09375 198.324219 L 252.941406 239.53125 C 252.550781 241.125 251.128906 242.234375 249.488281 242.238281 L 198.886719 242.316406 C 198.882812 242.316406 198.882812 242.316406 198.878906 242.316406 " fill-opacity="1" fill-rule="nonzero"/><path fill="#ffffff" d="M 258.617188 215.160156 L 257.136719 219.28125 L 244.960938 213.507812 C 244.960938 213.507812 238.277344 219.3125 254.507812 226.710938 C 261.273438 229.792969 258.617188 215.160156 258.617188 215.160156 " fill-opacity="1" fill-rule="nonzero"/><path fill="#000000" d="M 245.144531 214.449219 C 244.765625 214.9375 244.210938 215.90625 244.410156 217.222656 C 244.710938 219.199219 246.761719 222.332031 254.828125 226.007812 C 256.296875 226.679688 256.871094 226.234375 257.058594 226.085938 C 258.351562 225.078125 258.515625 221.585938 258.261719 218.433594 L 257.863281 219.542969 C 257.789062 219.75 257.632812 219.914062 257.429688 219.996094 C 257.230469 220.078125 257.003906 220.074219 256.808594 219.976562 Z M 256.203125 227.914062 C 255.59375 227.914062 254.921875 227.746094 254.1875 227.410156 C 247.183594 224.21875 243.378906 220.855469 242.882812 217.417969 C 242.484375 214.671875 244.375 212.996094 244.453125 212.925781 C 244.683594 212.722656 245.015625 212.679688 245.289062 212.8125 L 256.699219 218.222656 L 257.890625 214.898438 C 258.011719 214.570312 258.339844 214.359375 258.679688 214.390625 C 259.027344 214.417969 259.3125 214.679688 259.375 215.023438 C 259.558594 216.027344 261.070312 224.917969 258.007812 227.300781 C 257.484375 227.707031 256.882812 227.914062 256.203125 227.914062 " fill-opacity="1" fill-rule="nonzero"/><path fill="#ffffff" d="M 184.425781 203.675781 C 184.425781 203.675781 161.695312 216.480469 157.007812 220.5 C 152.324219 224.515625 147.238281 227.566406 153.867188 236.324219 C 160.496094 245.082031 188.644531 209.917969 188.644531 209.917969 C 188.644531 209.917969 194.0625 210.808594 195.941406 203.429688 C 195.941406 203.429688 205.089844 203.742188 205.417969 200.871094 L 192.511719 198.582031 C 190.84375 198.285156 189.136719 198.835938 187.953125 200.050781 L 184.425781 203.675781 " fill-opacity="1" fill-rule="nonzero"/><path fill="#000000" d="M 184.425781 203.675781 L 184.429688 203.675781 Z M 191.617188 199.273438 C 190.457031 199.273438 189.332031 199.738281 188.507812 200.585938 L 184.976562 204.214844 C 184.925781 204.265625 184.867188 204.3125 184.800781 204.347656 C 184.578125 204.476562 162.085938 217.160156 157.511719 221.082031 C 157.148438 221.394531 156.777344 221.703125 156.414062 222.007812 C 152.167969 225.558594 148.808594 228.363281 154.480469 235.859375 C 155.027344 236.582031 155.765625 236.941406 156.738281 236.953125 C 156.757812 236.953125 156.777344 236.953125 156.800781 236.953125 C 165.90625 236.957031 187.820312 209.714844 188.039062 209.4375 C 188.214844 209.222656 188.492188 209.113281 188.769531 209.160156 C 188.957031 209.1875 193.523438 209.804688 195.195312 203.238281 C 195.285156 202.886719 195.605469 202.644531 195.96875 202.660156 C 198.898438 202.753906 202.832031 202.371094 204.179688 201.433594 L 192.378906 199.339844 C 192.125 199.296875 191.871094 199.273438 191.617188 199.273438 Z M 156.789062 238.496094 C 156.765625 238.496094 156.742188 238.496094 156.714844 238.496094 C 155.261719 238.472656 154.09375 237.902344 153.253906 236.789062 C 146.695312 228.121094 151.132812 224.414062 155.425781 220.824219 C 155.785156 220.523438 156.148438 220.222656 156.507812 219.914062 C 161.089844 215.984375 182.121094 204.09375 183.949219 203.058594 L 187.402344 199.511719 C 188.765625 198.113281 190.726562 197.480469 192.648438 197.824219 L 205.550781 200.109375 C 205.953125 200.183594 206.230469 200.550781 206.183594 200.957031 C 205.828125 204.050781 199.007812 204.246094 196.523438 204.210938 C 194.71875 210.308594 190.417969 210.75 188.992188 210.714844 C 186.375 213.949219 166.191406 238.492188 156.789062 238.496094 " fill-opacity="1" fill-rule="nonzero"/><path fill="#ffffff" d="M 211.429688 389.046875 L 203.894531 411.53125 C 203.894531 411.53125 212.101562 410.828125 212.886719 410.984375 C 213.671875 411.136719 223.273438 390.476562 223.273438 390.476562 L 211.429688 389.046875 " fill-opacity="1" fill-rule="nonzero"/><path fill="#000000" d="M 212.992188 410.21875 C 213.007812 410.222656 213.019531 410.226562 213.035156 410.226562 C 213.019531 410.226562 213.007812 410.222656 212.992188 410.21875 Z M 211.960938 389.886719 L 204.996094 410.664062 C 207.292969 410.476562 211.214844 410.179688 212.613281 410.199219 C 213.8125 408.578125 218.832031 398.175781 222.125 391.113281 Z M 203.894531 412.300781 C 203.65625 412.300781 203.433594 412.191406 203.289062 412.007812 C 203.128906 411.800781 203.082031 411.53125 203.160156 411.285156 L 210.699219 388.800781 C 210.816406 388.453125 211.160156 388.238281 211.523438 388.28125 L 223.367188 389.710938 C 223.609375 389.742188 223.828125 389.886719 223.949219 390.101562 C 224.066406 390.320312 224.074219 390.582031 223.972656 390.804688 C 223.949219 390.855469 221.542969 396.03125 219.066406 401.125 C 213.8125 411.949219 213.496094 411.890625 212.738281 411.738281 C 212.210938 411.667969 207.855469 411.96875 203.957031 412.296875 C 203.9375 412.300781 203.917969 412.300781 203.894531 412.300781 " fill-opacity="1" fill-rule="nonzero"/><path fill="#f96f5f" d="M 205.621094 406.589844 C 205.621094 406.589844 216.953125 401.945312 219.050781 407.773438 C 221.714844 415.191406 225.882812 426.507812 225.882812 426.507812 C 226.585938 428.476562 225.230469 430.578125 223.144531 430.742188 C 219.003906 431.078125 212.824219 431.347656 209.945312 430.335938 C 205.402344 428.742188 197.867188 414.363281 197.867188 414.363281 L 200.1875 402.128906 C 200.1875 402.128906 204.300781 401.546875 205.621094 406.589844 " fill-opacity="1" fill-rule="nonzero"/><path fill="#000000" d="M 198.675781 414.242188 C 200.84375 418.332031 206.78125 428.410156 210.203125 429.613281 C 212.300781 430.347656 216.875 430.476562 223.082031 429.976562 C 223.835938 429.914062 224.503906 429.515625 224.914062 428.882812 C 225.324219 428.246094 225.410156 427.476562 225.15625 426.769531 C 225.117188 426.660156 220.960938 415.371094 218.324219 408.035156 C 218 407.132812 217.40625 406.503906 216.507812 406.105469 C 212.867188 404.488281 205.980469 407.273438 205.914062 407.300781 C 205.703125 407.386719 205.472656 407.378906 205.273438 407.277344 C 205.078125 407.179688 204.929688 407 204.875 406.78125 C 204 403.453125 201.84375 402.933594 200.832031 402.875 Z M 216.476562 431.816406 C 213.792969 431.816406 211.289062 431.625 209.691406 431.066406 C 204.996094 429.417969 197.96875 416.222656 197.183594 414.71875 C 197.101562 414.566406 197.074219 414.390625 197.109375 414.21875 L 199.433594 401.984375 C 199.492188 401.660156 199.753906 401.410156 200.082031 401.363281 C 200.125 401.355469 204.414062 400.8125 206.113281 405.578125 C 208.15625 404.847656 213.664062 403.152344 217.132812 404.695312 C 218.417969 405.265625 219.308594 406.214844 219.773438 407.515625 C 222.410156 414.84375 226.5625 426.128906 226.605469 426.238281 C 227.027344 427.410156 226.882812 428.679688 226.210938 429.71875 C 225.539062 430.757812 224.441406 431.410156 223.207031 431.511719 C 221.128906 431.679688 218.738281 431.816406 216.476562 431.816406 " fill-opacity="1" fill-rule="nonzero"/><path fill="#000000" d="M 222.980469 426.617188 L 211.339844 426.617188 C 210.914062 426.617188 210.570312 426.273438 210.570312 425.847656 C 210.570312 425.421875 210.914062 425.074219 211.339844 425.074219 L 222.980469 425.074219 C 223.40625 425.074219 223.75 425.421875 223.75 425.847656 C 223.75 426.273438 223.40625 426.617188 222.980469 426.617188 " fill-opacity="1" fill-rule="nonzero"/><path fill="#ffffff" d="M 190.058594 394.570312 L 192.621094 417.1875 L 202.921875 414.363281 L 202.128906 393.984375 L 190.058594 394.570312 " fill-opacity="1" fill-rule="nonzero"/><path fill="#000000" d="M 190.917969 395.300781 L 193.285156 416.207031 L 202.128906 413.78125 L 201.390625 394.792969 Z M 192.621094 417.957031 C 192.46875 417.957031 192.316406 417.914062 192.1875 417.824219 C 192.003906 417.699219 191.882812 417.496094 191.855469 417.273438 L 189.296875 394.65625 C 189.273438 394.445312 189.335938 394.234375 189.472656 394.070312 C 189.613281 393.910156 189.8125 393.8125 190.023438 393.800781 L 202.09375 393.214844 C 202.296875 393.199219 202.5 393.277344 202.648438 393.417969 C 202.800781 393.554688 202.890625 393.75 202.898438 393.953125 L 203.691406 414.335938 C 203.707031 414.691406 203.472656 415.011719 203.128906 415.105469 L 192.824219 417.929688 C 192.757812 417.949219 192.691406 417.957031 192.621094 417.957031 " fill-opacity="1" fill-rule="nonzero"/><path fill="#f96f5f" d="M 191.648438 433.851562 L 207.949219 433.851562 C 210.152344 433.851562 211.847656 431.898438 211.523438 429.714844 C 210.980469 426.035156 209.207031 419.929688 203.894531 411.53125 C 203.3125 410.613281 202.296875 410.058594 201.214844 410.058594 L 196.257812 410.058594 C 195.402344 410.058594 194.6875 410.703125 194.597656 411.554688 L 194.222656 415.128906 L 192.066406 412.277344 C 192.066406 412.277344 188.210938 420.394531 188.035156 430.171875 C 187.996094 432.195312 189.628906 433.851562 191.648438 433.851562 " fill-opacity="1" fill-rule="nonzero"/><path fill="#000000" d="M 192.25 413.804688 C 191.214844 416.382812 188.9375 422.84375 188.804688 430.1875 C 188.789062 430.953125 189.078125 431.679688 189.617188 432.230469 C 190.15625 432.777344 190.878906 433.082031 191.648438 433.082031 L 207.949219 433.082031 C 208.777344 433.082031 209.5625 432.722656 210.101562 432.097656 C 210.644531 431.46875 210.882812 430.644531 210.761719 429.828125 C 210.234375 426.257812 208.5 420.253906 203.242188 411.945312 C 202.804688 411.253906 202.027344 410.828125 201.214844 410.828125 L 196.257812 410.828125 C 195.796875 410.828125 195.410156 411.175781 195.367188 411.632812 L 194.988281 415.207031 C 194.957031 415.523438 194.734375 415.785156 194.429688 415.871094 C 194.128906 415.957031 193.800781 415.847656 193.609375 415.59375 Z M 207.949219 434.625 L 191.648438 434.625 C 190.464844 434.625 189.351562 434.15625 188.519531 433.308594 C 187.6875 432.460938 187.242188 431.34375 187.265625 430.15625 C 187.441406 420.324219 191.210938 412.285156 191.371094 411.949219 C 191.484375 411.703125 191.71875 411.539062 191.988281 411.511719 C 192.253906 411.484375 192.515625 411.601562 192.679688 411.8125 L 193.660156 413.105469 L 193.832031 411.472656 C 193.960938 410.226562 195.003906 409.285156 196.257812 409.285156 L 201.214844 409.285156 C 202.574219 409.285156 203.816406 409.972656 204.542969 411.117188 C 209.945312 419.65625 211.738281 425.882812 212.289062 429.605469 C 212.472656 430.863281 212.105469 432.136719 211.269531 433.101562 C 210.4375 434.070312 209.226562 434.625 207.949219 434.625 " fill-opacity="1" fill-rule="nonzero"/><path fill="#000000" d="M 209.945312 430.726562 L 190.4375 430.726562 C 190.011719 430.726562 189.667969 430.382812 189.667969 429.957031 C 189.667969 429.53125 190.011719 429.183594 190.4375 429.183594 L 209.945312 429.183594 C 210.375 429.183594 210.714844 429.53125 210.714844 429.957031 C 210.714844 430.382812 210.375 430.726562 209.945312 430.726562 " fill-opacity="1" fill-rule="nonzero"/><path fill="#000000" d="M 228.746094 258.734375 C 228.320312 257.691406 227.457031 256.890625 226.378906 256.558594 C 220.421875 254.6875 199.640625 249.761719 178.253906 263.476562 C 177.246094 264.125 176.597656 265.210938 176.511719 266.40625 C 175.738281 277.273438 172.855469 334.097656 190.832031 401.375 L 202.9375 400.511719 L 205.40625 285.480469 C 205.40625 285.480469 223.34375 327.652344 208.761719 394.765625 L 221.351562 397.089844 C 221.351562 397.089844 239.78125 372.855469 243.085938 335.824219 C 246.003906 303.066406 232.011719 266.691406 228.746094 258.734375 " fill-opacity="1" fill-rule="nonzero"/><path fill="#ffffff" d="M 193.914062 348.207031 C 193.902344 348.207031 193.894531 348.207031 193.882812 348.203125 C 182.4375 347.710938 181.144531 332.195312 181.132812 332.039062 C 181.101562 331.617188 181.417969 331.246094 181.84375 331.210938 C 182.273438 331.179688 182.636719 331.5 182.667969 331.925781 C 182.679688 332.066406 183.871094 346.230469 193.949219 346.664062 C 194.375 346.683594 194.703125 347.042969 194.6875 347.46875 C 194.667969 347.882812 194.328125 348.207031 193.914062 348.207031 " fill-opacity="1" fill-rule="nonzero"/><path fill="#ffffff" d="M 206.460938 296.796875 C 206.046875 296.796875 205.703125 296.464844 205.691406 296.050781 L 205.265625 281.65625 C 205.257812 281.398438 205.378906 281.15625 205.589844 281.007812 L 213.140625 275.699219 C 213.488281 275.453125 213.96875 275.539062 214.214844 275.886719 C 214.457031 276.234375 214.375 276.714844 214.027344 276.960938 L 206.816406 282.027344 L 207.230469 296.003906 C 207.246094 296.429688 206.910156 296.78125 206.484375 296.796875 C 206.476562 296.796875 206.46875 296.796875 206.460938 296.796875 " fill-opacity="1" fill-rule="nonzero"/><path fill="#ffffff" d="M 188.085938 180.082031 C 190.3125 178.609375 191.609375 176.085938 191.550781 173.421875 L 191.296875 162.347656 C 191.222656 162.277344 191.148438 162.203125 191.070312 162.136719 C 191.070312 162.136719 186.636719 162.433594 185.992188 160.175781 C 185.34375 157.914062 188.480469 157.480469 188.480469 157.480469 C 188.480469 157.480469 185.519531 151.246094 193.183594 151.320312 C 195.238281 151.339844 195.972656 147.929688 199.351562 147.164062 C 199.351562 147.164062 201.023438 147.019531 202.714844 151.398438 L 206.421875 156.886719 L 204.570312 157.902344 C 205.027344 159.988281 205.222656 162.292969 204.941406 164.730469 C 204.859375 165.433594 204.378906 166.019531 203.703125 166.238281 C 203.148438 166.421875 202.398438 166.613281 201.511719 166.714844 L 202.109375 174.128906 C 202.371094 177.371094 204.074219 180.324219 206.738281 182.195312 C 209.3125 184 211.6875 185.273438 211.6875 185.273438 C 211.6875 185.273438 198.023438 187.144531 182.316406 183.558594 C 182.316406 183.558594 185.347656 181.898438 188.085938 180.082031 " fill-opacity="1" fill-rule="nonzero"/><path fill="#000000" d="M 199.417969 147.929688 Z M 184.453125 183.230469 C 195.285156 185.417969 204.9375 185.070312 209.226562 184.742188 C 208.382812 184.226562 207.359375 183.570312 206.292969 182.824219 C 203.425781 180.8125 201.621094 177.664062 201.34375 174.1875 L 200.746094 166.777344 C 200.710938 166.363281 201.011719 165.996094 201.425781 165.949219 C 202.125 165.867188 202.8125 165.71875 203.46875 165.507812 C 203.851562 165.382812 204.128906 165.042969 204.175781 164.640625 C 204.421875 162.5 204.300781 160.289062 203.816406 158.070312 C 203.742188 157.734375 203.898438 157.390625 204.199219 157.226562 L 205.308594 156.617188 L 202.078125 151.832031 C 202.046875 151.785156 202.019531 151.734375 201.996094 151.679688 C 200.761719 148.492188 199.644531 148.011719 199.402344 147.945312 C 197.914062 148.320312 197.035156 149.292969 196.179688 150.234375 C 195.351562 151.144531 194.496094 152.089844 193.199219 152.089844 C 193.148438 152.089844 193.097656 152.089844 193.046875 152.089844 C 191.003906 152.089844 189.664062 152.5625 189.070312 153.496094 C 188.160156 154.917969 189.167969 157.128906 189.179688 157.152344 C 189.285156 157.371094 189.277344 157.628906 189.160156 157.847656 C 189.042969 158.0625 188.828125 158.210938 188.585938 158.246094 C 188.242188 158.292969 187.175781 158.5625 186.804688 159.136719 C 186.710938 159.277344 186.605469 159.519531 186.730469 159.960938 C 187.089844 161.214844 189.777344 161.453125 191.019531 161.367188 C 191.234375 161.351562 191.449219 161.429688 191.601562 161.578125 L 191.820312 161.78125 C 191.972656 161.921875 192.0625 162.121094 192.066406 162.328125 L 192.320312 173.402344 C 192.386719 176.367188 190.964844 179.105469 188.511719 180.726562 C 187.089844 181.667969 185.578125 182.574219 184.453125 183.230469 Z M 202.570312 186.523438 C 197.152344 186.523438 189.871094 186.074219 182.140625 184.308594 C 181.832031 184.238281 181.59375 183.980469 181.546875 183.664062 C 181.507812 183.347656 181.664062 183.035156 181.945312 182.882812 C 181.976562 182.867188 184.984375 181.214844 187.660156 179.441406 C 189.667969 178.113281 190.835938 175.867188 190.78125 173.4375 L 190.539062 162.921875 C 189.15625 162.9375 185.90625 162.6875 185.25 160.386719 C 185.03125 159.617188 185.121094 158.894531 185.515625 158.292969 C 185.992188 157.558594 186.816406 157.152344 187.460938 156.941406 C 187.144531 155.898438 186.84375 154.121094 187.769531 152.667969 C 188.683594 151.238281 190.519531 150.523438 193.191406 150.546875 C 193.78125 150.554688 194.273438 150.039062 195.039062 149.199219 C 195.980469 148.160156 197.148438 146.871094 199.179688 146.410156 C 199.214844 146.402344 199.25 146.398438 199.285156 146.394531 C 199.660156 146.363281 201.601562 146.4375 203.402344 151.042969 L 207.0625 156.457031 C 207.183594 156.636719 207.222656 156.859375 207.171875 157.066406 C 207.121094 157.28125 206.984375 157.457031 206.792969 157.5625 L 205.441406 158.304688 C 205.863281 160.503906 205.953125 162.6875 205.707031 164.816406 C 205.59375 165.820312 204.898438 166.664062 203.941406 166.972656 C 203.421875 167.140625 202.886719 167.277344 202.339844 167.371094 L 202.878906 174.066406 C 203.121094 177.082031 204.6875 179.816406 207.179688 181.5625 C 209.683594 183.320312 212.027344 184.585938 212.050781 184.597656 C 212.34375 184.753906 212.503906 185.085938 212.445312 185.414062 C 212.386719 185.742188 212.121094 185.992188 211.789062 186.039062 C 211.71875 186.050781 208.128906 186.523438 202.570312 186.523438 " fill-opacity="1" fill-rule="nonzero"/><path fill="#ffffff" d="M 201.511719 166.714844 C 201.511719 166.714844 196.652344 166.882812 194.71875 164.242188 L 201.511719 166.714844 " fill-opacity="1" fill-rule="nonzero"/><path fill="#000000" d="M 201.316406 167.488281 C 200.277344 167.488281 196.015625 167.320312 194.097656 164.695312 C 193.847656 164.351562 193.921875 163.867188 194.265625 163.617188 C 194.609375 163.367188 195.089844 163.441406 195.34375 163.785156 C 196.730469 165.683594 200.246094 165.992188 201.488281 165.945312 C 201.925781 165.933594 202.269531 166.261719 202.28125 166.6875 C 202.296875 167.113281 201.964844 167.472656 201.539062 167.484375 C 201.515625 167.484375 201.441406 167.488281 201.316406 167.488281 " fill-opacity="1" fill-rule="nonzero"/><path fill="#000000" d="M 246.746094 420.722656 C 246.363281 420.722656 246.03125 420.433594 245.984375 420.042969 C 245.933594 419.621094 246.230469 419.238281 246.652344 419.183594 C 262.890625 417.195312 278.769531 412.78125 293.855469 406.058594 C 301.402344 402.695312 308.734375 398.753906 315.648438 394.34375 C 316.007812 394.113281 316.484375 394.21875 316.710938 394.578125 C 316.941406 394.9375 316.835938 395.414062 316.476562 395.644531 C 309.5 400.09375 302.101562 404.074219 294.480469 407.464844 C 279.253906 414.25 263.230469 418.707031 246.84375 420.714844 C 246.808594 420.71875 246.78125 420.722656 246.746094 420.722656 " fill-opacity="1" fill-rule="nonzero"/><path fill="#000000" d="M 239.035156 429.355469 C 238.628906 429.355469 238.285156 429.035156 238.269531 428.625 C 238.25 428.199219 238.578125 427.839844 239.003906 427.816406 C 260.566406 426.773438 281.550781 421.765625 301.371094 412.9375 C 310.417969 408.90625 319.148438 404.089844 327.320312 398.628906 C 327.675781 398.394531 328.152344 398.488281 328.390625 398.84375 C 328.628906 399.195312 328.53125 399.675781 328.179688 399.910156 C 319.933594 405.421875 311.125 410.277344 301.996094 414.34375 C 282.003906 423.253906 260.832031 428.304688 239.074219 429.355469 C 239.0625 429.355469 239.050781 429.355469 239.035156 429.355469 " fill-opacity="1" fill-rule="nonzero"/><path fill="#000000" d="M 423.902344 145.269531 C 423.476562 145.269531 423.132812 144.921875 423.132812 144.496094 L 423.132812 140.511719 C 423.132812 140.085938 423.476562 139.742188 423.902344 139.742188 C 424.328125 139.742188 424.671875 140.085938 424.671875 140.511719 L 424.671875 144.496094 C 424.671875 144.921875 424.328125 145.269531 423.902344 145.269531 " fill-opacity="1" fill-rule="nonzero"/><path fill="#000000" d="M 423.902344 154.550781 C 423.476562 154.550781 423.132812 154.203125 423.132812 153.777344 L 423.132812 149.792969 C 423.132812 149.371094 423.476562 149.023438 423.902344 149.023438 C 424.328125 149.023438 424.671875 149.371094 424.671875 149.792969 L 424.671875 153.777344 C 424.671875 154.203125 424.328125 154.550781 423.902344 154.550781 " fill-opacity="1" fill-rule="nonzero"/><path fill="#000000" d="M 421.25 147.914062 L 417.269531 147.914062 C 416.84375 147.914062 416.5 147.570312 416.5 147.144531 C 416.5 146.71875 416.84375 146.375 417.269531 146.375 L 421.25 146.375 C 421.679688 146.375 422.023438 146.71875 422.023438 147.144531 C 422.023438 147.570312 421.679688 147.914062 421.25 147.914062 " fill-opacity="1" fill-rule="nonzero"/><path fill="#000000" d="M 430.535156 147.914062 L 426.546875 147.914062 C 426.125 147.914062 425.777344 147.570312 425.777344 147.144531 C 425.777344 146.71875 426.125 146.375 426.546875 146.375 L 430.535156 146.375 C 430.960938 146.375 431.304688 146.71875 431.304688 147.144531 C 431.304688 147.570312 430.960938 147.914062 430.535156 147.914062 " fill-opacity="1" fill-rule="nonzero"/><path fill="#000000" d="M 65.492188 137.214844 C 65.363281 137.214844 65.230469 137.183594 65.113281 137.117188 C 64.742188 136.902344 64.613281 136.433594 64.824219 136.0625 C 78.746094 111.609375 102.371094 90.289062 119.734375 76.707031 C 138.535156 62.003906 154.261719 52.949219 154.417969 52.859375 C 154.789062 52.648438 155.261719 52.773438 155.472656 53.144531 C 155.683594 53.511719 155.554688 53.984375 155.1875 54.195312 C 154.5625 54.554688 92.582031 90.425781 66.164062 136.824219 C 66.019531 137.074219 65.761719 137.214844 65.492188 137.214844 " fill-opacity="1" fill-rule="nonzero"/><path fill="#000000" d="M 54.984375 137.804688 C 54.871094 137.804688 54.761719 137.78125 54.65625 137.730469 C 54.269531 137.550781 54.105469 137.09375 54.285156 136.703125 C 72.089844 98.828125 123.984375 61.785156 124.507812 61.414062 C 124.855469 61.171875 125.335938 61.253906 125.582031 61.597656 C 125.828125 61.949219 125.746094 62.429688 125.398438 62.675781 C 124.878906 63.042969 73.308594 99.855469 55.679688 137.363281 C 55.550781 137.640625 55.273438 137.804688 54.984375 137.804688 " fill-opacity="1" fill-rule="nonzero"/><path fill="#000000" d="M 50.796875 140.988281 C 50.5625 140.988281 50.328125 141.03125 50.097656 141.125 C 49.628906 141.3125 49.261719 141.671875 49.0625 142.132812 C 48.863281 142.601562 48.855469 143.113281 49.046875 143.582031 C 49.234375 144.050781 49.59375 144.417969 50.058594 144.617188 C 50.519531 144.816406 51.035156 144.824219 51.503906 144.632812 C 51.972656 144.445312 52.339844 144.085938 52.539062 143.625 C 52.738281 143.15625 52.742188 142.644531 52.554688 142.175781 C 52.261719 141.4375 51.546875 140.988281 50.796875 140.988281 Z M 50.800781 146.3125 C 50.34375 146.3125 49.882812 146.21875 49.449219 146.035156 C 48.609375 145.675781 47.957031 145.007812 47.613281 144.15625 C 47.273438 143.304688 47.285156 142.371094 47.644531 141.53125 C 48.003906 140.6875 48.671875 140.035156 49.523438 139.695312 C 51.28125 138.988281 53.28125 139.84375 53.984375 141.601562 C 54.328125 142.453125 54.316406 143.386719 53.957031 144.230469 C 53.59375 145.070312 52.929688 145.726562 52.078125 146.066406 C 51.664062 146.230469 51.230469 146.3125 50.800781 146.3125 " fill-opacity="1" fill-rule="nonzero"/><path fill="#000000" d="M 159.394531 45.445312 L 165.632812 52.566406 L 170.4375 43.394531 Z M 165.792969 54.6875 C 165.574219 54.6875 165.363281 54.59375 165.214844 54.421875 L 157.34375 45.441406 C 157.160156 45.234375 157.101562 44.941406 157.191406 44.683594 C 157.285156 44.417969 157.507812 44.226562 157.78125 44.175781 L 171.714844 41.589844 C 172.003906 41.535156 172.300781 41.652344 172.472656 41.890625 C 172.648438 42.128906 172.671875 42.445312 172.535156 42.703125 L 166.476562 54.273438 C 166.359375 54.5 166.136719 54.652344 165.886719 54.683594 C 165.855469 54.6875 165.824219 54.6875 165.792969 54.6875 " fill-opacity="1" fill-rule="nonzero"/><path fill="#ffffff" d="M 251.601562 109.546875 C 251.417969 109.546875 251.230469 109.480469 251.082031 109.347656 C 250.765625 109.0625 250.742188 108.574219 251.027344 108.257812 L 284.78125 70.765625 C 285.066406 70.449219 285.554688 70.421875 285.867188 70.707031 C 286.183594 70.992188 286.210938 71.480469 285.929688 71.796875 L 252.171875 109.292969 C 252.019531 109.457031 251.808594 109.546875 251.601562 109.546875 " fill-opacity="1" fill-rule="nonzero"/><path fill="#ffffff" d="M 263.417969 81.800781 C 263.234375 81.800781 263.046875 81.738281 262.902344 81.601562 C 262.585938 81.316406 262.5625 80.832031 262.84375 80.515625 L 304.363281 34.394531 C 304.648438 34.078125 305.132812 34.054688 305.449219 34.335938 C 305.769531 34.621094 305.792969 35.109375 305.507812 35.425781 L 263.992188 81.546875 C 263.835938 81.714844 263.628906 81.800781 263.417969 81.800781 " fill-opacity="1" fill-rule="nonzero"/><path fill="#000000" d="M 269.582031 137.804688 C 269.398438 137.804688 269.214844 137.742188 269.066406 137.605469 C 268.75 137.320312 268.726562 136.835938 269.007812 136.519531 L 302.761719 99.023438 C 303.046875 98.707031 303.535156 98.683594 303.851562 98.964844 C 304.167969 99.25 304.195312 99.738281 303.910156 100.054688 L 270.152344 137.550781 C 270.003906 137.71875 269.792969 137.804688 269.582031 137.804688 " fill-opacity="1" fill-rule="nonzero"/><path fill="#000000" d="M 294.894531 100.3125 C 294.707031 100.3125 294.523438 100.246094 294.375 100.109375 C 294.058594 99.824219 294.039062 99.335938 294.328125 99.019531 L 311.832031 79.882812 C 312.121094 79.570312 312.609375 79.550781 312.921875 79.835938 C 313.238281 80.121094 313.261719 80.609375 312.972656 80.925781 L 295.464844 100.0625 C 295.3125 100.230469 295.105469 100.3125 294.894531 100.3125 " fill-opacity="1" fill-rule="nonzero"/><path fill="#000000" d="M 167.683594 129.601562 C 167.257812 129.601562 166.910156 129.253906 166.910156 128.828125 L 166.910156 124.84375 C 166.910156 124.417969 167.257812 124.074219 167.683594 124.074219 C 168.109375 124.074219 168.453125 124.417969 168.453125 124.84375 L 168.453125 128.828125 C 168.453125 129.253906 168.109375 129.601562 167.683594 129.601562 " fill-opacity="1" fill-rule="nonzero"/><path fill="#000000" d="M 167.683594 138.882812 C 167.257812 138.882812 166.910156 138.535156 166.910156 138.109375 L 166.910156 134.125 C 166.910156 133.699219 167.257812 133.355469 167.683594 133.355469 C 168.109375 133.355469 168.453125 133.699219 168.453125 134.125 L 168.453125 138.109375 C 168.453125 138.535156 168.109375 138.882812 167.683594 138.882812 " fill-opacity="1" fill-rule="nonzero"/><path fill="#000000" d="M 165.035156 132.25 L 161.050781 132.25 C 160.625 132.25 160.277344 131.902344 160.277344 131.476562 C 160.277344 131.050781 160.625 130.707031 161.050781 130.707031 L 165.035156 130.707031 C 165.460938 130.707031 165.804688 131.050781 165.804688 131.476562 C 165.804688 131.902344 165.460938 132.25 165.035156 132.25 " fill-opacity="1" fill-rule="nonzero"/><path fill="#000000" d="M 174.316406 132.25 L 170.332031 132.25 C 169.90625 132.25 169.558594 131.902344 169.558594 131.476562 C 169.558594 131.050781 169.90625 130.707031 170.332031 130.707031 L 174.316406 130.707031 C 174.742188 130.707031 175.085938 131.050781 175.085938 131.476562 C 175.085938 131.902344 174.742188 132.25 174.316406 132.25 " fill-opacity="1" fill-rule="nonzero"/></svg>