<svg xmlns="http://www.w3.org/2000/svg" xmlns:xlink="http://www.w3.org/1999/xlink" width="628" zoomAndPan="magnify" viewBox="0 0 470.87997 470.999988" height="628" preserveAspectRatio="xMidYMid meet" version="1.0"><path fill="#e7f0ff" d="M 357.796875 129.757812 C 311.808594 83.472656 324.976562 54.464844 293.511719 33.035156 C 245.09375 0.0625 154.730469 28.429688 101.417969 73.785156 C 36.125 129.332031 2.433594 230.757812 40.808594 322.511719 C 81.679688 420.226562 189.210938 470.953125 285.164062 455.664062 C 370.847656 442.011719 455.078125 374.484375 463.519531 293.488281 C 464.433594 284.710938 468.472656 237.253906 440.144531 196.34375 C 416.738281 162.523438 394.253906 166.445312 357.796875 129.757812 " fill-opacity="1" fill-rule="nonzero"/><path fill="#6ce5e8" d="M 168.582031 438.972656 L 415.863281 438.972656 C 422.667969 438.972656 427.589844 433.515625 426.859375 426.789062 L 389.792969 85.996094 C 388.621094 76.867188 383.613281 71.675781 375.933594 71.675781 L 128.644531 71.675781 C 122.53125 71.675781 117.800781 76.089844 117.472656 82.085938 L 154.941406 426.789062 C 155.671875 433.515625 161.777344 438.972656 168.582031 438.972656 " fill-opacity="1" fill-rule="nonzero"/><path fill="#ffffff" d="M 180.957031 439.660156 L 428.238281 439.660156 C 435.042969 439.660156 442.332031 433.027344 441.601562 426.261719 L 402.164062 84.535156 C 402.082031 70.492188 395.988281 70.132812 388.308594 70.132812 L 141.019531 70.132812 C 134.90625 70.132812 130.175781 74.570312 129.847656 80.605469 L 167.316406 427.402344 C 168.046875 434.171875 174.152344 439.660156 180.957031 439.660156 " fill-opacity="1" fill-rule="nonzero"/><path fill="#000000" d="M 332.425781 440.753906 L 332.421875 440.753906 L 180.953125 440.453125 C 173.769531 440.453125 167.296875 434.636719 166.527344 427.488281 L 154.148438 315.132812 C 154.101562 314.699219 154.414062 314.304688 154.851562 314.257812 C 155.285156 314.210938 155.679688 314.523438 155.726562 314.960938 L 168.105469 427.316406 C 168.792969 433.6875 174.558594 438.863281 180.957031 438.863281 L 332.425781 439.167969 C 332.863281 439.167969 333.21875 439.523438 333.21875 439.964844 C 333.214844 440.398438 332.863281 440.753906 332.425781 440.753906 " fill-opacity="1" fill-rule="nonzero"/><path fill="#000000" d="M 144.253906 218.871094 C 143.855469 218.871094 143.511719 218.570312 143.464844 218.160156 L 137.855469 167.234375 C 137.808594 166.796875 138.121094 166.40625 138.558594 166.359375 C 138.992188 166.3125 139.386719 166.625 139.433594 167.058594 L 145.046875 217.988281 C 145.09375 218.425781 144.777344 218.816406 144.34375 218.863281 C 144.3125 218.867188 144.285156 218.871094 144.253906 218.871094 " fill-opacity="1" fill-rule="nonzero"/><path fill="#000000" d="M 411.871094 171.707031 C 411.472656 171.707031 411.128906 171.40625 411.082031 171 L 400.355469 75.414062 C 400.328125 75.269531 400.339844 75.148438 400.339844 75.082031 C 400.367188 74.742188 400.445312 73.714844 399.480469 72.757812 C 398.316406 71.601562 395.445312 70.34375 388.375 70.921875 L 388.308594 70.925781 L 214.835938 70.925781 C 214.398438 70.925781 214.042969 70.570312 214.042969 70.132812 C 214.042969 69.691406 214.398438 69.335938 214.835938 69.335938 L 388.277344 69.335938 C 394.417969 68.839844 398.570312 69.609375 400.601562 71.632812 C 401.578125 72.601562 402.027344 73.796875 401.929688 75.175781 L 412.664062 170.824219 C 412.710938 171.257812 412.398438 171.652344 411.960938 171.699219 C 411.929688 171.703125 411.902344 171.707031 411.871094 171.707031 " fill-opacity="1" fill-rule="nonzero"/><path fill="#6ce5e8" d="M 213.476562 96.59375 L 328.523438 96.59375 C 331.488281 96.59375 333.632812 94.203125 333.316406 91.253906 L 330.445312 64.707031 C 330.125 61.757812 327.464844 59.367188 324.503906 59.367188 L 209.457031 59.367188 C 206.492188 59.367188 204.347656 61.757812 204.667969 64.707031 L 207.535156 91.253906 C 207.851562 94.203125 210.515625 96.59375 213.476562 96.59375 " fill-opacity="1" fill-rule="nonzero"/><path fill="#000000" d="M 209.457031 60.164062 C 208.25 60.164062 207.171875 60.621094 206.421875 61.460938 C 205.667969 62.300781 205.328125 63.421875 205.457031 64.621094 L 208.324219 91.167969 C 208.601562 93.722656 210.910156 95.796875 213.476562 95.796875 L 328.523438 95.796875 C 329.730469 95.796875 330.804688 95.339844 331.558594 94.5 C 332.308594 93.660156 332.65625 92.539062 332.523438 91.339844 L 329.65625 64.792969 C 329.378906 62.238281 327.070312 60.164062 324.503906 60.164062 Z M 328.523438 97.386719 L 213.476562 97.386719 C 210.125 97.386719 207.105469 94.675781 206.746094 91.339844 L 203.875 64.792969 C 203.695312 63.140625 204.179688 61.578125 205.238281 60.398438 C 206.296875 59.222656 207.792969 58.574219 209.457031 58.574219 L 324.503906 58.574219 C 327.855469 58.574219 330.875 61.285156 331.238281 64.621094 L 334.101562 91.167969 C 334.285156 92.824219 333.800781 94.382812 332.742188 95.5625 C 331.683594 96.738281 330.1875 97.386719 328.523438 97.386719 " fill-opacity="1" fill-rule="nonzero"/><path fill="#6ce5e8" d="M 268.027344 58.566406 C 262.386719 59.28125 257.054688 54.492188 257.160156 48.796875 C 257.234375 44.921875 260.042969 41.789062 263.890625 41.300781 C 269.53125 40.578125 274.863281 45.367188 274.757812 51.0625 C 274.6875 54.941406 271.875 58.074219 268.027344 58.566406 Z M 263.65625 29.214844 C 251.765625 29.214844 243.207031 38.808594 244.484375 50.644531 L 247.953125 82.757812 C 248.265625 85.644531 250.871094 87.984375 253.773438 87.984375 L 286.242188 87.984375 C 289.144531 87.984375 291.242188 85.644531 290.929688 82.757812 L 287.457031 50.644531 C 286.179688 38.808594 275.550781 29.214844 263.65625 29.214844 " fill-opacity="1" fill-rule="nonzero"/><path fill="#000000" d="M 265.015625 42.023438 C 264.671875 42.023438 264.328125 42.042969 263.988281 42.089844 C 260.558594 42.523438 258.019531 45.351562 257.957031 48.8125 C 257.90625 51.300781 259.007812 53.734375 260.976562 55.496094 C 262.933594 57.257812 265.464844 58.089844 267.929688 57.777344 C 271.363281 57.339844 273.898438 54.511719 273.964844 51.050781 C 274.007812 48.5625 272.910156 46.128906 270.945312 44.363281 C 269.257812 42.851562 267.140625 42.023438 265.015625 42.023438 Z M 268.03125 58.566406 L 268.035156 58.566406 Z M 266.90625 59.429688 C 264.386719 59.429688 261.894531 58.460938 259.914062 56.683594 C 257.601562 54.609375 256.3125 51.730469 256.367188 48.785156 C 256.445312 44.527344 259.566406 41.046875 263.789062 40.511719 C 266.707031 40.140625 269.699219 41.113281 272.007812 43.183594 C 274.316406 45.253906 275.609375 48.132812 275.550781 51.078125 C 275.476562 55.335938 272.351562 58.816406 268.128906 59.351562 C 267.71875 59.40625 267.3125 59.429688 266.90625 59.429688 Z M 263.65625 30.011719 C 258.152344 30.011719 253.210938 32.136719 249.746094 35.996094 C 246.269531 39.871094 244.679688 45.042969 245.273438 50.558594 L 248.742188 82.671875 C 249.011719 85.164062 251.269531 87.191406 253.773438 87.191406 L 286.242188 87.191406 C 287.414062 87.191406 288.46875 86.742188 289.199219 85.921875 C 289.933594 85.109375 290.265625 84.015625 290.140625 82.84375 L 286.671875 50.730469 C 285.4375 39.304688 275.109375 30.011719 263.65625 30.011719 Z M 286.242188 88.777344 L 253.773438 88.777344 C 250.480469 88.777344 247.519531 86.117188 247.164062 82.84375 L 243.695312 50.730469 C 243.050781 44.757812 244.78125 39.152344 248.566406 34.933594 C 252.335938 30.734375 257.695312 28.421875 263.65625 28.421875 C 275.898438 28.421875 286.929688 38.351562 288.25 50.558594 L 291.71875 82.671875 C 291.894531 84.296875 291.417969 85.828125 290.382812 86.984375 C 289.339844 88.140625 287.875 88.777344 286.242188 88.777344 " fill-opacity="1" fill-rule="nonzero"/><path fill="#000000" d="M 174.011719 211.691406 C 172.980469 211.691406 172.0625 212.085938 171.421875 212.796875 C 170.777344 213.515625 170.488281 214.472656 170.597656 215.496094 L 172.832031 236.179688 C 173.070312 238.371094 175.054688 240.15625 177.257812 240.15625 L 198.046875 240.15625 C 199.074219 240.15625 199.992188 239.761719 200.632812 239.046875 C 201.273438 238.332031 201.566406 237.375 201.457031 236.351562 L 199.222656 215.667969 C 198.984375 213.476562 197 211.691406 194.796875 211.691406 Z M 198.046875 241.746094 L 177.257812 241.746094 C 174.269531 241.746094 171.574219 239.324219 171.253906 236.351562 L 169.019531 215.667969 C 168.859375 214.1875 169.292969 212.792969 170.238281 211.738281 C 171.183594 210.683594 172.523438 210.101562 174.011719 210.101562 L 194.796875 210.101562 C 197.785156 210.101562 200.480469 212.523438 200.800781 215.496094 L 203.035156 236.179688 C 203.199219 237.660156 202.761719 239.054688 201.816406 240.109375 C 200.871094 241.164062 199.53125 241.746094 198.046875 241.746094 " fill-opacity="1" fill-rule="nonzero"/><path fill="#f96f5f" d="M 184.671875 237.097656 C 184.527344 237.097656 184.382812 237.09375 184.238281 237.074219 C 182.78125 236.921875 181.507812 236.003906 180.894531 234.675781 L 176.273438 225.308594 C 175.5625 223.867188 176.15625 222.121094 177.597656 221.40625 C 179.039062 220.695312 180.789062 221.289062 181.5 222.734375 L 184.636719 229.089844 L 191.183594 216.535156 C 191.925781 215.109375 193.683594 214.554688 195.113281 215.300781 C 196.539062 216.042969 197.089844 217.804688 196.347656 219.230469 L 187.957031 235.316406 L 187.835938 235.484375 C 187.097656 236.511719 185.9375 237.097656 184.671875 237.097656 " fill-opacity="1" fill-rule="nonzero"/><path fill="#000000" d="M 179.609375 263.519531 C 178.582031 263.519531 177.660156 263.910156 177.019531 264.625 C 176.378906 265.339844 176.085938 266.300781 176.195312 267.320312 L 178.429688 288.007812 C 178.667969 290.199219 180.652344 291.984375 182.855469 291.984375 L 203.644531 291.984375 C 204.671875 291.984375 205.589844 291.589844 206.230469 290.875 C 206.875 290.160156 207.167969 289.203125 207.054688 288.175781 L 204.820312 267.496094 C 204.585938 265.300781 202.601562 263.519531 200.394531 263.519531 Z M 203.644531 293.570312 L 182.855469 293.570312 C 179.867188 293.570312 177.171875 291.152344 176.851562 288.175781 L 174.617188 267.496094 C 174.457031 266.011719 174.890625 264.617188 175.835938 263.566406 C 176.785156 262.511719 178.125 261.929688 179.609375 261.929688 L 200.394531 261.929688 C 203.386719 261.929688 206.078125 264.351562 206.398438 267.320312 L 208.636719 288.007812 C 208.796875 289.484375 208.363281 290.882812 207.414062 291.9375 C 206.46875 292.992188 205.128906 293.570312 203.644531 293.570312 " fill-opacity="1" fill-rule="nonzero"/><path fill="#000000" d="M 185.867188 317.101562 C 184.839844 317.101562 183.921875 317.496094 183.28125 318.210938 C 182.636719 318.921875 182.347656 319.878906 182.457031 320.90625 L 184.691406 341.589844 C 184.925781 343.78125 186.914062 345.566406 189.113281 345.566406 L 209.902344 345.566406 C 210.933594 345.566406 211.851562 345.171875 212.492188 344.460938 C 213.132812 343.746094 213.425781 342.785156 213.316406 341.761719 L 211.078125 321.078125 C 210.84375 318.882812 208.859375 317.101562 206.65625 317.101562 Z M 209.902344 347.15625 L 189.113281 347.15625 C 186.125 347.15625 183.433594 344.734375 183.109375 341.761719 L 180.875 321.078125 C 180.71875 319.597656 181.148438 318.203125 182.097656 317.144531 C 183.042969 316.09375 184.382812 315.511719 185.867188 315.511719 L 206.65625 315.511719 C 209.644531 315.511719 212.339844 317.933594 212.660156 320.90625 L 214.898438 341.589844 C 215.054688 343.070312 214.621094 344.464844 213.675781 345.519531 C 212.726562 346.574219 211.390625 347.15625 209.902344 347.15625 " fill-opacity="1" fill-rule="nonzero"/><path fill="#000000" d="M 191.820312 369.96875 C 190.789062 369.96875 189.867188 370.363281 189.230469 371.078125 C 188.585938 371.792969 188.296875 372.75 188.40625 373.773438 L 190.640625 394.457031 C 190.878906 396.648438 192.863281 398.433594 195.0625 398.433594 L 215.855469 398.433594 C 216.882812 398.433594 217.800781 398.039062 218.441406 397.324219 C 219.082031 396.609375 219.375 395.652344 219.265625 394.628906 L 217.03125 373.945312 C 216.792969 371.753906 214.808594 369.96875 212.605469 369.96875 Z M 215.855469 400.023438 L 195.0625 400.023438 C 192.074219 400.023438 189.382812 397.601562 189.0625 394.628906 L 186.828125 373.945312 C 186.667969 372.464844 187.101562 371.070312 188.046875 370.015625 C 188.992188 368.960938 190.332031 368.378906 191.820312 368.378906 L 212.605469 368.378906 C 215.59375 368.378906 218.289062 370.800781 218.609375 373.773438 L 220.847656 394.457031 C 221.003906 395.9375 220.570312 397.332031 219.625 398.386719 C 218.675781 399.441406 217.335938 400.023438 215.855469 400.023438 " fill-opacity="1" fill-rule="nonzero"/><path fill="#f96f5f" d="M 191.132812 289.191406 C 190.988281 289.191406 190.847656 289.183594 190.699219 289.171875 C 189.246094 289.015625 187.96875 288.097656 187.355469 286.765625 L 182.734375 277.402344 C 182.023438 275.960938 182.613281 274.214844 184.058594 273.5 C 185.5 272.789062 187.246094 273.382812 187.960938 274.828125 L 191.09375 281.179688 L 197.640625 268.628906 C 198.386719 267.203125 200.144531 266.648438 201.574219 267.394531 C 203 268.136719 203.554688 269.898438 202.808594 271.324219 L 194.417969 287.410156 L 194.296875 287.578125 C 193.554688 288.605469 192.398438 289.191406 191.132812 289.191406 " fill-opacity="1" fill-rule="nonzero"/><path fill="#f96f5f" d="M 197.324219 342.566406 C 197.179688 342.566406 197.03125 342.558594 196.886719 342.542969 C 195.429688 342.390625 194.160156 341.472656 193.542969 340.140625 L 188.921875 330.777344 C 188.210938 329.332031 188.800781 327.585938 190.246094 326.875 C 191.6875 326.164062 193.4375 326.757812 194.148438 328.199219 L 197.285156 334.554688 L 203.828125 322.003906 C 204.574219 320.578125 206.332031 320.023438 207.757812 320.765625 C 209.1875 321.511719 209.738281 323.269531 208.996094 324.695312 L 200.609375 340.78125 L 200.488281 340.949219 C 199.746094 341.980469 198.585938 342.566406 197.324219 342.566406 " fill-opacity="1" fill-rule="nonzero"/><path fill="#f96f5f" d="M 202.183594 394.09375 C 202.039062 394.09375 201.894531 394.082031 201.75 394.066406 C 200.296875 393.914062 199.019531 392.996094 198.402344 391.667969 L 193.785156 382.300781 C 193.074219 380.859375 193.667969 379.113281 195.109375 378.402344 C 196.550781 377.691406 198.296875 378.28125 199.011719 379.722656 L 202.144531 386.082031 L 208.691406 373.527344 C 209.4375 372.101562 211.195312 371.550781 212.625 372.292969 C 214.046875 373.039062 214.601562 374.796875 213.859375 376.222656 L 205.46875 392.304688 L 205.347656 392.476562 C 204.605469 393.507812 203.445312 394.09375 202.183594 394.09375 " fill-opacity="1" fill-rule="nonzero"/><path fill="#e7f0ff" d="M 334.980469 131.101562 L 216.859375 131.101562 C 214.425781 131.101562 212.242188 129.140625 211.980469 126.722656 L 211.589844 123.074219 C 211.324219 120.65625 213.085938 118.695312 215.515625 118.695312 L 333.640625 118.695312 C 336.074219 118.695312 338.253906 120.65625 338.515625 123.074219 L 338.910156 126.722656 C 339.171875 129.140625 337.410156 131.101562 334.980469 131.101562 " fill-opacity="1" fill-rule="nonzero"/><path fill="#e7f0ff" d="M 384.199219 178.265625 L 218.109375 178.265625 C 215.675781 178.265625 213.496094 176.304688 213.234375 173.886719 C 212.972656 171.464844 214.730469 169.503906 217.160156 169.503906 L 383.253906 169.503906 C 385.683594 169.503906 387.867188 171.464844 388.128906 173.886719 C 388.390625 176.304688 386.628906 178.265625 384.199219 178.265625 " fill-opacity="1" fill-rule="nonzero"/><path fill="#e7f0ff" d="M 363.179688 200.84375 L 220.570312 200.84375 C 218.140625 200.84375 215.957031 198.878906 215.695312 196.464844 C 215.4375 194.042969 217.195312 192.082031 219.625 192.082031 L 362.234375 192.082031 C 364.664062 192.082031 366.847656 194.042969 367.109375 196.464844 C 367.367188 198.878906 365.609375 200.84375 363.179688 200.84375 " fill-opacity="1" fill-rule="nonzero"/><path fill="#e7f0ff" d="M 377.953125 231.726562 L 224.078125 231.726562 C 221.652344 231.726562 219.46875 229.769531 219.207031 227.351562 C 218.941406 224.929688 220.703125 222.96875 223.132812 222.96875 L 377.003906 222.96875 C 379.4375 222.96875 381.617188 224.929688 381.878906 227.351562 C 382.140625 229.769531 380.382812 231.726562 377.953125 231.726562 " fill-opacity="1" fill-rule="nonzero"/><path fill="#e7f0ff" d="M 313.210938 253.886719 L 226.652344 253.886719 C 224.222656 253.886719 222.039062 251.921875 221.777344 249.503906 C 221.515625 247.085938 223.273438 245.125 225.707031 245.125 L 312.265625 245.125 C 314.695312 245.125 316.878906 247.085938 317.140625 249.503906 C 317.398438 251.921875 315.644531 253.886719 313.210938 253.886719 " fill-opacity="1" fill-rule="nonzero"/><path fill="#e7f0ff" d="M 395.457031 282.429688 L 229.367188 282.429688 C 226.933594 282.429688 224.753906 280.46875 224.492188 278.050781 C 224.230469 275.628906 225.992188 273.671875 228.421875 273.671875 L 394.511719 273.671875 C 396.941406 273.671875 399.125 275.628906 399.386719 278.050781 C 399.648438 280.46875 397.890625 282.429688 395.457031 282.429688 " fill-opacity="1" fill-rule="nonzero"/><path fill="#e7f0ff" d="M 374.4375 305.007812 L 231.832031 305.007812 C 229.398438 305.007812 227.214844 303.046875 226.957031 300.628906 C 226.695312 298.210938 228.453125 296.25 230.882812 296.25 L 373.492188 296.25 C 375.921875 296.25 378.105469 298.210938 378.363281 300.628906 C 378.625 303.046875 376.867188 305.007812 374.4375 305.007812 " fill-opacity="1" fill-rule="nonzero"/><path fill="#e7f0ff" d="M 397.703125 335.894531 L 234.988281 335.894531 C 232.558594 335.894531 230.371094 333.933594 230.113281 331.515625 C 229.851562 329.09375 231.609375 327.136719 234.042969 327.136719 L 396.757812 327.136719 C 399.1875 327.136719 401.371094 329.09375 401.632812 331.515625 C 401.894531 333.933594 400.132812 335.894531 397.703125 335.894531 " fill-opacity="1" fill-rule="nonzero"/><path fill="#e7f0ff" d="M 324.300781 356.511719 L 237.742188 356.511719 C 235.316406 356.511719 233.132812 354.550781 232.871094 352.128906 C 232.609375 349.710938 234.367188 347.75 236.796875 347.75 L 323.355469 347.75 C 325.789062 347.75 327.972656 349.710938 328.234375 352.128906 C 328.496094 354.550781 326.734375 356.511719 324.300781 356.511719 " fill-opacity="1" fill-rule="nonzero"/><path fill="#e7f0ff" d="M 407.195312 386.082031 L 241.101562 386.082031 C 238.671875 386.082031 236.492188 384.117188 236.226562 381.703125 C 235.964844 379.28125 237.726562 377.324219 240.15625 377.324219 L 406.25 377.324219 C 408.679688 377.324219 410.863281 379.28125 411.121094 381.703125 C 411.382812 384.117188 409.628906 386.082031 407.195312 386.082031 " fill-opacity="1" fill-rule="nonzero"/><path fill="#e7f0ff" d="M 386.171875 408.660156 L 243.566406 408.660156 C 241.132812 408.660156 238.953125 406.699219 238.691406 404.28125 C 238.429688 401.859375 240.191406 399.902344 242.621094 399.902344 L 385.226562 399.902344 C 387.65625 399.902344 389.839844 401.859375 390.097656 404.28125 C 390.363281 406.699219 388.601562 408.660156 386.171875 408.660156 " fill-opacity="1" fill-rule="nonzero"/><path fill="#f96f5f" d="M 109.769531 124.585938 L 89.933594 175.503906 L 110.160156 166.558594 L 119.441406 187.890625 L 137.359375 130.089844 L 109.769531 124.585938 " fill-opacity="1" fill-rule="nonzero"/><path fill="#f96f5f" d="M 132.960938 130.320312 L 160.980469 187.429688 L 167.308594 160.597656 L 192.914062 167.476562 L 152.074219 115.871094 L 132.960938 130.320312 " fill-opacity="1" fill-rule="nonzero"/><path fill="#f96f5f" d="M 124.664062 28.023438 L 133.746094 40.898438 L 144.746094 31.128906 L 149.542969 45.851562 L 163.332031 40.136719 L 163.375 55.261719 L 178.605469 54.167969 L 173.882812 68.210938 L 189.070312 71.847656 L 180.050781 83.441406 L 193.695312 91.449219 L 181.261719 99.453125 L 192.039062 111.046875 L 177.40625 114.683594 L 184.253906 128.730469 L 168.855469 127.636719 L 171.109375 142.761719 L 156.453125 137.050781 L 153.886719 151.769531 L 141.40625 141.996094 L 134.277344 154.871094 L 125.195312 141.996094 L 114.191406 151.769531 L 109.398438 137.050781 L 95.605469 142.761719 L 95.566406 127.636719 L 80.335938 128.730469 L 85.054688 114.683594 L 69.871094 111.046875 L 78.890625 99.453125 L 65.242188 91.449219 L 77.679688 83.441406 L 66.902344 71.847656 L 81.535156 68.210938 L 74.683594 54.167969 L 90.082031 55.261719 L 87.832031 40.136719 L 102.488281 45.851562 L 105.050781 31.128906 L 117.535156 40.898438 L 124.664062 28.023438 " fill-opacity="1" fill-rule="nonzero"/><path fill="#000000" d="M 125.195312 141.199219 C 125.222656 141.199219 125.253906 141.199219 125.285156 141.203125 C 125.507812 141.230469 125.714844 141.351562 125.84375 141.535156 L 134.195312 153.378906 L 140.714844 141.609375 C 140.824219 141.402344 141.023438 141.261719 141.25 141.214844 C 141.476562 141.167969 141.714844 141.226562 141.898438 141.371094 L 153.332031 150.324219 L 155.671875 136.910156 C 155.710938 136.675781 155.855469 136.472656 156.0625 136.355469 C 156.269531 136.234375 156.519531 136.21875 156.742188 136.304688 L 170.121094 141.519531 L 168.070312 127.75 C 168.035156 127.511719 168.109375 127.273438 168.273438 127.09375 C 168.4375 126.917969 168.671875 126.824219 168.914062 126.839844 L 182.9375 127.835938 L 176.691406 115.027344 C 176.589844 114.8125 176.585938 114.558594 176.6875 114.34375 C 176.789062 114.125 176.984375 113.964844 177.214844 113.910156 L 190.539062 110.597656 L 180.679688 99.992188 C 180.519531 99.820312 180.445312 99.585938 180.476562 99.355469 C 180.503906 99.121094 180.636719 98.910156 180.832031 98.785156 L 192.179688 91.476562 L 179.648438 84.125 C 179.449219 84.007812 179.3125 83.8125 179.269531 83.589844 C 179.226562 83.363281 179.28125 83.132812 179.421875 82.953125 L 187.683594 72.332031 L 173.703125 68.984375 C 173.484375 68.933594 173.300781 68.792969 173.191406 68.597656 C 173.082031 68.402344 173.0625 68.171875 173.132812 67.960938 L 177.472656 55.042969 L 163.429688 56.050781 C 163.207031 56.066406 162.996094 55.988281 162.832031 55.839844 C 162.671875 55.691406 162.582031 55.480469 162.578125 55.261719 L 162.542969 41.320312 L 149.847656 46.578125 C 149.644531 46.664062 149.414062 46.660156 149.210938 46.566406 C 149.011719 46.476562 148.855469 46.304688 148.789062 46.09375 L 144.367188 32.527344 L 134.277344 41.492188 C 134.105469 41.644531 133.882812 41.710938 133.65625 41.6875 C 133.433594 41.664062 133.230469 41.539062 133.097656 41.359375 L 124.746094 29.511719 L 118.230469 41.28125 C 118.117188 41.488281 117.921875 41.632812 117.691406 41.679688 C 117.464844 41.726562 117.226562 41.667969 117.042969 41.523438 L 105.609375 32.570312 L 103.269531 45.980469 C 103.230469 46.21875 103.085938 46.421875 102.878906 46.539062 C 102.671875 46.65625 102.421875 46.671875 102.199219 46.585938 L 88.820312 41.371094 L 90.871094 55.140625 C 90.90625 55.378906 90.832031 55.621094 90.667969 55.796875 C 90.503906 55.972656 90.269531 56.066406 90.027344 56.050781 L 76.003906 55.054688 L 82.25 67.863281 C 82.355469 68.078125 82.355469 68.332031 82.253906 68.546875 C 82.152344 68.765625 81.960938 68.925781 81.726562 68.984375 L 68.402344 72.292969 L 78.261719 82.898438 C 78.421875 83.070312 78.496094 83.304688 78.46875 83.539062 C 78.4375 83.773438 78.308594 83.980469 78.109375 84.109375 L 66.761719 91.414062 L 79.292969 98.765625 C 79.492188 98.882812 79.628906 99.078125 79.671875 99.304688 C 79.714844 99.527344 79.660156 99.757812 79.519531 99.941406 L 71.257812 110.558594 L 85.242188 113.90625 C 85.457031 113.960938 85.644531 114.101562 85.75 114.296875 C 85.859375 114.492188 85.878906 114.722656 85.808594 114.933594 L 81.46875 127.851562 L 95.511719 126.839844 C 95.730469 126.824219 95.949219 126.902344 96.109375 127.050781 C 96.269531 127.203125 96.363281 127.410156 96.363281 127.632812 L 96.398438 141.570312 L 109.09375 136.3125 C 109.300781 136.226562 109.53125 136.230469 109.730469 136.324219 C 109.933594 136.417969 110.085938 136.585938 110.152344 136.796875 L 114.574219 150.367188 L 124.667969 141.402344 C 124.8125 141.269531 125 141.199219 125.195312 141.199219 Z M 134.277344 155.664062 C 134.019531 155.664062 133.777344 155.542969 133.628906 155.328125 L 125.054688 143.179688 L 114.722656 152.363281 C 114.523438 152.539062 114.246094 152.605469 113.988281 152.535156 C 113.726562 152.464844 113.523438 152.269531 113.4375 152.015625 L 108.910156 138.109375 L 95.910156 143.492188 C 95.667969 143.59375 95.386719 143.566406 95.167969 143.421875 C 94.945312 143.273438 94.8125 143.023438 94.8125 142.761719 L 94.777344 128.488281 L 80.394531 129.519531 C 80.128906 129.539062 79.871094 129.421875 79.707031 129.214844 C 79.542969 129.003906 79.496094 128.726562 79.582031 128.476562 L 84.027344 115.25 L 69.6875 111.816406 C 69.425781 111.753906 69.210938 111.5625 69.125 111.308594 C 69.035156 111.054688 69.082031 110.769531 69.246094 110.558594 L 77.707031 99.679688 L 64.84375 92.128906 C 64.605469 91.992188 64.457031 91.738281 64.449219 91.464844 C 64.445312 91.1875 64.582031 90.925781 64.816406 90.78125 L 76.449219 83.285156 L 66.320312 72.386719 C 66.128906 72.183594 66.0625 71.890625 66.140625 71.621094 C 66.222656 71.347656 66.4375 71.140625 66.710938 71.078125 L 80.390625 67.675781 L 73.972656 54.511719 C 73.847656 54.257812 73.867188 53.957031 74.027344 53.722656 C 74.1875 53.484375 74.460938 53.351562 74.742188 53.371094 L 89.152344 54.394531 L 87.046875 40.25 C 87.003906 39.972656 87.113281 39.691406 87.335938 39.511719 C 87.558594 39.335938 87.855469 39.289062 88.121094 39.394531 L 101.871094 44.753906 L 104.269531 30.988281 C 104.320312 30.714844 104.507812 30.484375 104.769531 30.382812 C 105.027344 30.28125 105.324219 30.328125 105.542969 30.5 L 117.289062 39.699219 L 123.96875 27.632812 C 124.101562 27.394531 124.347656 27.242188 124.621094 27.226562 C 124.902344 27.210938 125.15625 27.339844 125.316406 27.5625 L 133.886719 39.714844 L 144.21875 30.53125 C 144.421875 30.351562 144.695312 30.289062 144.957031 30.359375 C 145.214844 30.425781 145.417969 30.625 145.503906 30.878906 L 150.03125 44.785156 L 163.03125 39.398438 C 163.277344 39.300781 163.554688 39.324219 163.773438 39.472656 C 163.996094 39.621094 164.128906 39.867188 164.128906 40.132812 L 164.167969 54.40625 L 178.550781 53.371094 C 178.816406 53.351562 179.070312 53.46875 179.234375 53.679688 C 179.398438 53.890625 179.445312 54.167969 179.359375 54.417969 L 174.914062 67.640625 L 189.253906 71.074219 C 189.515625 71.136719 189.730469 71.328125 189.820312 71.582031 C 189.910156 71.835938 189.863281 72.125 189.695312 72.332031 L 181.234375 83.214844 L 194.097656 90.761719 C 194.335938 90.902344 194.484375 91.152344 194.492188 91.429688 C 194.496094 91.707031 194.359375 91.964844 194.128906 92.113281 L 182.492188 99.609375 L 192.621094 110.503906 C 192.8125 110.710938 192.878906 111.003906 192.800781 111.273438 C 192.722656 111.539062 192.503906 111.75 192.230469 111.816406 L 178.550781 115.214844 L 184.96875 128.378906 C 185.09375 128.632812 185.074219 128.9375 184.914062 129.171875 C 184.757812 129.40625 184.480469 129.539062 184.199219 129.519531 L 169.789062 128.496094 L 171.894531 142.640625 C 171.9375 142.921875 171.828125 143.203125 171.605469 143.378906 C 171.382812 143.554688 171.085938 143.601562 170.824219 143.5 L 157.070312 138.140625 L 154.671875 151.90625 C 154.625 152.179688 154.433594 152.410156 154.175781 152.511719 C 153.914062 152.609375 153.617188 152.5625 153.398438 152.394531 L 141.652344 143.195312 L 134.972656 155.257812 C 134.839844 155.496094 134.59375 155.648438 134.320312 155.664062 C 134.304688 155.664062 134.289062 155.664062 134.277344 155.664062 " fill-opacity="1" fill-rule="nonzero"/><path fill="#ffffff" d="M 174.820312 91.097656 C 176.671875 115.546875 158.101562 135.367188 133.347656 135.367188 C 108.589844 135.367188 87.019531 115.546875 85.164062 91.097656 C 83.3125 66.648438 101.882812 46.828125 126.636719 46.828125 C 151.394531 46.828125 172.964844 66.648438 174.820312 91.097656 " fill-opacity="1" fill-rule="nonzero"/><path fill="#000000" d="M 371.492188 180.773438 C 377.625 183.070312 376.621094 189.878906 381.453125 191.640625 C 385.976562 193.292969 388.890625 188.046875 397.714844 185.523438 C 399.765625 184.9375 408.808594 182.582031 417.496094 186.15625 C 426.625 189.917969 435.882812 200.4375 434.347656 212.039062 C 432.90625 222.898438 422.804688 228.695312 421.371094 229.488281 C 406.78125 237.566406 389.449219 228.59375 380.691406 224.058594 C 370.445312 218.753906 365.289062 211.445312 359.425781 203.855469 C 354.003906 196.824219 346.882812 187.589844 349.824219 180.507812 C 350.644531 178.527344 352.699219 175.644531 355.269531 175.449219 C 357.765625 175.257812 358.671875 177.757812 362.703125 179.464844 C 366.859375 181.222656 368.109375 179.507812 371.492188 180.773438 " fill-opacity="1" fill-rule="nonzero"/><path fill="#000000" d="M 372.21875 180.660156 C 371.789062 183.292969 373.578125 185.773438 376.210938 186.203125 C 378.847656 186.632812 381.332031 184.84375 381.757812 182.207031 C 382.1875 179.574219 380.394531 177.09375 377.765625 176.660156 C 375.128906 176.234375 372.644531 178.023438 372.21875 180.660156 " fill-opacity="1" fill-rule="nonzero"/><path fill="#f96f5f" d="M 421.425781 426.429688 C 423.007812 429.652344 426.367188 436.820312 428.113281 444.085938 C 428.816406 447.023438 429.074219 449.199219 428.40625 451.574219 C 427.445312 454.996094 425.34375 456.078125 425.816406 457.050781 C 426.800781 459.085938 438.136719 458.585938 441.902344 452.390625 C 443.105469 450.410156 442.765625 449.117188 441.371094 437.171875 C 440.117188 426.445312 440.089844 424.914062 438.527344 423.621094 C 433.601562 419.5625 422.792969 425.644531 421.425781 426.429688 " fill-opacity="1" fill-rule="nonzero"/><path fill="#000000" d="M 426.546875 456.730469 C 426.722656 456.929688 427.625 457.316406 429.476562 457.332031 C 433.554688 457.355469 438.964844 455.695312 441.226562 451.976562 C 442.117188 450.507812 442.03125 449.523438 441.023438 440.988281 C 440.886719 439.878906 440.742188 438.640625 440.582031 437.265625 L 440.25 434.414062 C 439.308594 426.242188 439.148438 425.160156 438.023438 424.234375 C 434.007812 420.925781 425.113281 425.324219 422.46875 426.757812 C 424.621094 431.199219 427.363281 437.570312 428.882812 443.902344 C 429.597656 446.867188 429.894531 449.21875 429.171875 451.792969 C 428.625 453.742188 427.714844 455.007812 427.109375 455.84375 C 426.878906 456.164062 426.597656 456.558594 426.546875 456.730469 Z M 429.558594 458.917969 C 429.328125 458.917969 429.109375 458.914062 428.898438 458.902344 C 427.464844 458.835938 425.644531 458.519531 425.101562 457.398438 C 424.671875 456.515625 425.230469 455.738281 425.824219 454.914062 C 426.390625 454.125 427.167969 453.042969 427.644531 451.363281 C 428.273438 449.113281 428.011719 447.058594 427.339844 444.273438 C 425.769531 437.753906 422.871094 431.164062 420.710938 426.78125 C 420.527344 426.40625 420.664062 425.949219 421.023438 425.742188 C 423.125 424.535156 433.84375 418.730469 439.035156 423.007812 C 440.695312 424.378906 440.867188 425.882812 441.832031 434.230469 L 442.160156 437.078125 C 442.316406 438.457031 442.464844 439.691406 442.597656 440.800781 C 443.628906 449.484375 443.789062 450.816406 442.582031 452.800781 C 439.816406 457.355469 433.527344 458.917969 429.558594 458.917969 " fill-opacity="1" fill-rule="nonzero"/><path fill="#f96f5f" d="M 437.816406 436.117188 C 437.816406 436.117188 442.8125 453.476562 430.902344 454.9375 L 437.816406 436.117188 " fill-opacity="1" fill-rule="nonzero"/><path fill="#000000" d="M 430.902344 455.730469 C 430.503906 455.730469 430.164062 455.4375 430.113281 455.035156 C 430.058594 454.597656 430.371094 454.203125 430.804688 454.148438 C 433.273438 453.847656 435.132812 452.773438 436.332031 450.960938 C 439.71875 445.835938 437.078125 436.429688 437.050781 436.335938 C 436.933594 435.914062 437.175781 435.472656 437.597656 435.351562 C 438.019531 435.230469 438.457031 435.472656 438.582031 435.894531 C 438.699219 436.308594 441.453125 446.097656 437.660156 451.835938 C 436.191406 454.054688 433.953125 455.363281 431 455.726562 C 430.964844 455.730469 430.933594 455.730469 430.902344 455.730469 " fill-opacity="1" fill-rule="nonzero"/><path fill="#f96f5f" d="M 369.972656 439.832031 C 369.972656 439.832031 371.902344 446.652344 371.304688 454.898438 C 371.195312 456.425781 369.984375 457.644531 368.457031 457.777344 C 362.226562 458.332031 345.9375 459.582031 333.742188 458.835938 C 332.96875 458.785156 332.621094 457.835938 333.183594 457.300781 C 336.351562 454.277344 344.101562 447.140625 349.640625 444.144531 C 356.761719 440.296875 369.972656 439.832031 369.972656 439.832031 " fill-opacity="1" fill-rule="nonzero"/><path fill="#000000" d="M 369.359375 440.660156 C 366.65625 440.8125 356.011719 441.601562 350.015625 444.84375 C 344.546875 447.800781 336.808594 454.941406 333.730469 457.875 C 333.71875 457.890625 333.683594 457.921875 333.707031 457.980469 C 333.730469 458.039062 333.769531 458.042969 333.789062 458.042969 C 345.882812 458.78125 362.011719 457.550781 368.386719 456.988281 C 369.535156 456.886719 370.429688 455.984375 370.511719 454.839844 C 370.988281 448.222656 369.796875 442.488281 369.359375 440.660156 Z M 342.214844 459.859375 C 339.277344 459.859375 336.386719 459.792969 333.695312 459.628906 C 333.011719 459.585938 332.449219 459.164062 332.214844 458.527344 C 331.980469 457.886719 332.144531 457.195312 332.632812 456.726562 C 335.757812 453.75 343.625 446.496094 349.261719 443.445312 C 356.460938 439.554688 369.394531 439.058594 369.941406 439.039062 C 370.304688 439.027344 370.632812 439.265625 370.734375 439.617188 C 370.8125 439.902344 372.699219 446.667969 372.097656 454.957031 C 371.957031 456.878906 370.457031 458.402344 368.527344 458.570312 C 363.53125 459.011719 352.582031 459.859375 342.214844 459.859375 " fill-opacity="1" fill-rule="nonzero"/><path fill="#f96f5f" d="M 367.90625 453.59375 C 367.90625 453.59375 341.980469 454.746094 341.40625 454.9375 L 367.90625 453.59375 " fill-opacity="1" fill-rule="nonzero"/><path fill="#000000" d="M 341.402344 455.730469 C 341.074219 455.730469 340.761719 455.523438 340.652344 455.1875 C 340.515625 454.773438 340.738281 454.320312 341.15625 454.183594 C 341.714844 453.996094 355.996094 453.328125 367.871094 452.800781 C 368.3125 452.78125 368.683594 453.117188 368.703125 453.558594 C 368.722656 453.996094 368.382812 454.367188 367.941406 454.386719 C 357.882812 454.832031 342.621094 455.554688 341.589844 455.710938 C 341.527344 455.722656 341.464844 455.730469 341.402344 455.730469 " fill-opacity="1" fill-rule="nonzero"/><path fill="#000000" d="M 340.25 276.03125 C 340.25 276.03125 341.960938 397.5 335.714844 442.664062 C 335.714844 442.664062 340.277344 454.703125 359.308594 448.289062 C 376.007812 442.664062 384.914062 447.085938 384.914062 447.085938 C 384.914062 447.085938 385.335938 368.859375 380.453125 340.332031 C 380.453125 340.332031 398.871094 393.734375 412.679688 437.367188 C 412.679688 437.367188 441.96875 439.988281 463.671875 421.6875 C 463.671875 421.6875 453.847656 352.652344 374.484375 269.886719 L 340.25 276.03125 " fill-opacity="1" fill-rule="nonzero"/><path fill="#ffffff" d="M 377 332.230469 C 376.6875 332.230469 376.390625 332.046875 376.265625 331.738281 C 374.175781 326.683594 371.625 320.882812 369.574219 316.222656 C 369.066406 315.0625 368.582031 313.957031 368.128906 312.929688 L 359.128906 310.816406 C 358.699219 310.71875 358.4375 310.292969 358.535156 309.863281 C 358.636719 309.4375 359.066406 309.171875 359.488281 309.273438 L 368.878906 311.472656 C 369.121094 311.53125 369.324219 311.699219 369.425781 311.925781 C 369.921875 313.058594 370.460938 314.285156 371.03125 315.582031 C 373.082031 320.253906 375.636719 326.058594 377.734375 331.136719 C 377.902344 331.542969 377.707031 332.003906 377.300781 332.171875 C 377.203125 332.214844 377.097656 332.230469 377 332.230469 " fill-opacity="1" fill-rule="nonzero"/><path fill="#f96f5f" d="M 276.453125 212.292969 C 279.9375 225.503906 288.8125 243.332031 303.410156 245.285156 C 313.003906 246.574219 324.050781 233.742188 330.503906 224.789062 C 334.246094 219.59375 340.308594 216.582031 346.710938 216.6875 L 383.410156 217.207031 C 386.652344 217.253906 389.273438 219.875 389.3125 223.125 L 389.5625 244.96875 L 393.1875 279.367188 C 376.613281 267.019531 357.082031 277.597656 347.417969 280.832031 C 337.757812 284.0625 331.925781 278.152344 331.925781 278.152344 L 333.710938 255.945312 C 333.710938 255.945312 329.953125 268.886719 305.054688 269.5625 C 274.664062 270.382812 269.851562 215.644531 269.851562 215.644531 L 276.453125 212.292969 " fill-opacity="1" fill-rule="nonzero"/><path fill="#ffffff" d="M 271.28125 203.082031 L 263.953125 195.984375 C 263.445312 195.492188 262.65625 195.433594 262.082031 195.847656 C 261.429688 196.316406 261.277344 197.222656 261.738281 197.878906 L 264.0625 201.171875 L 262.191406 205.796875 C 261.617188 207.21875 261.992188 208.851562 263.128906 209.882812 L 266.140625 212.609375 C 267.644531 213.972656 269.835938 214.277344 271.652344 213.371094 L 272.878906 212.761719 C 274.765625 211.820312 275.847656 209.789062 275.574219 207.703125 L 275.25 205.238281 C 275.050781 203.695312 273.589844 202.636719 272.058594 202.929688 L 271.28125 203.082031 " fill-opacity="1" fill-rule="nonzero"/><path fill="#000000" d="M 262.933594 196.367188 C 262.796875 196.367188 262.664062 196.410156 262.546875 196.492188 C 262.25 196.707031 262.179688 197.121094 262.390625 197.421875 L 264.710938 200.714844 C 264.867188 200.933594 264.902344 201.21875 264.800781 201.46875 L 262.929688 206.09375 C 262.480469 207.203125 262.777344 208.488281 263.664062 209.292969 L 266.671875 212.019531 C 267.945312 213.175781 269.761719 213.425781 271.300781 212.660156 L 272.527344 212.050781 C 274.109375 211.261719 275.015625 209.554688 274.785156 207.804688 L 274.464844 205.34375 C 274.394531 204.8125 274.117188 204.351562 273.6875 204.039062 C 273.257812 203.726562 272.730469 203.613281 272.210938 203.710938 L 271.429688 203.859375 C 271.179688 203.910156 270.917969 203.832031 270.730469 203.652344 L 263.402344 196.554688 C 263.269531 196.429688 263.101562 196.367188 262.933594 196.367188 Z M 269.445312 214.691406 C 268.054688 214.691406 266.691406 214.183594 265.605469 213.199219 L 262.597656 210.46875 C 261.214844 209.222656 260.761719 207.222656 261.457031 205.496094 L 263.164062 201.273438 L 261.089844 198.335938 C 260.378906 197.328125 260.617188 195.925781 261.617188 195.203125 C 262.503906 194.566406 263.71875 194.652344 264.503906 195.414062 L 271.539062 202.222656 L 271.910156 202.152344 C 272.851562 201.972656 273.839844 202.1875 274.621094 202.75 C 275.398438 203.316406 275.914062 204.183594 276.039062 205.136719 L 276.363281 207.597656 C 276.679688 210.019531 275.421875 212.382812 273.234375 213.472656 L 272.007812 214.082031 C 271.191406 214.492188 270.3125 214.691406 269.445312 214.691406 " fill-opacity="1" fill-rule="nonzero"/><path fill="#ffffff" d="M 271.28125 203.082031 L 268.542969 205.105469 C 268.542969 205.105469 269.449219 207.753906 271.28125 206.667969 L 271.28125 203.082031 " fill-opacity="1" fill-rule="nonzero"/><path fill="#000000" d="M 270.425781 207.722656 C 270.144531 207.722656 269.898438 207.664062 269.707031 207.589844 C 268.429688 207.125 267.855469 205.542969 267.792969 205.363281 C 267.683594 205.039062 267.792969 204.675781 268.074219 204.46875 L 270.808594 202.441406 C 271.164062 202.179688 271.660156 202.253906 271.921875 202.609375 C 272.183594 202.960938 272.109375 203.457031 271.753906 203.71875 L 269.535156 205.359375 C 269.71875 205.671875 269.976562 206 270.253906 206.101562 C 270.367188 206.144531 270.550781 206.175781 270.878906 205.984375 C 271.253906 205.757812 271.742188 205.882812 271.964844 206.261719 C 272.191406 206.636719 272.066406 207.125 271.6875 207.347656 C 271.21875 207.628906 270.789062 207.722656 270.425781 207.722656 " fill-opacity="1" fill-rule="nonzero"/><path fill="#ffffff" d="M 263.566406 202.414062 L 266.652344 206.242188 L 263.566406 202.414062 " fill-opacity="1" fill-rule="nonzero"/><path fill="#000000" d="M 266.652344 207.035156 C 266.421875 207.035156 266.191406 206.9375 266.035156 206.738281 L 262.949219 202.914062 C 262.671875 202.570312 262.726562 202.070312 263.066406 201.796875 C 263.410156 201.519531 263.910156 201.574219 264.1875 201.917969 L 267.269531 205.742188 C 267.546875 206.085938 267.496094 206.585938 267.152344 206.859375 C 267.003906 206.980469 266.828125 207.035156 266.652344 207.035156 " fill-opacity="1" fill-rule="nonzero"/><path fill="#ffffff" d="M 262.625 205.417969 L 265.109375 208.4375 L 262.625 205.417969 " fill-opacity="1" fill-rule="nonzero"/><path fill="#000000" d="M 265.109375 209.234375 C 264.878906 209.234375 264.652344 209.132812 264.496094 208.941406 L 262.011719 205.921875 C 261.730469 205.585938 261.78125 205.082031 262.117188 204.804688 C 262.457031 204.527344 262.960938 204.574219 263.238281 204.910156 L 265.722656 207.933594 C 266.003906 208.273438 265.953125 208.773438 265.613281 209.050781 C 265.46875 209.171875 265.289062 209.234375 265.109375 209.234375 " fill-opacity="1" fill-rule="nonzero"/><path fill="#ffffff" d="M 357.347656 278.867188 L 386.082031 249.796875 C 386.8125 249.058594 388.007812 249.050781 388.746094 249.78125 L 426.746094 287.347656 C 427.488281 288.082031 427.496094 289.273438 426.761719 290.011719 L 398.027344 319.082031 C 397.296875 319.820312 396.101562 319.828125 395.363281 319.097656 L 357.363281 281.53125 C 356.621094 280.796875 356.617188 279.605469 357.347656 278.867188 " fill-opacity="1" fill-rule="nonzero"/><path fill="#000000" d="M 357.910156 279.425781 C 357.488281 279.851562 357.492188 280.542969 357.921875 280.96875 L 395.921875 318.53125 C 396.347656 318.953125 397.039062 318.949219 397.460938 318.523438 L 426.195312 289.453125 C 426.402344 289.246094 426.515625 288.972656 426.511719 288.679688 C 426.511719 288.390625 426.394531 288.117188 426.1875 287.914062 L 388.1875 250.347656 C 387.761719 249.925781 387.070312 249.929688 386.644531 250.359375 Z M 396.6875 320.433594 C 396.003906 320.433594 395.324219 320.175781 394.804688 319.664062 L 356.804688 282.097656 C 355.75 281.058594 355.742188 279.359375 356.78125 278.308594 L 385.515625 249.238281 C 386.554688 248.191406 388.253906 248.179688 389.304688 249.21875 L 427.304688 286.785156 C 427.8125 287.285156 428.097656 287.957031 428.097656 288.675781 C 428.105469 289.390625 427.828125 290.066406 427.328125 290.570312 L 398.59375 319.640625 C 398.070312 320.167969 397.378906 320.433594 396.6875 320.433594 " fill-opacity="1" fill-rule="nonzero"/><path fill="#6ce5e8" d="M 397.753906 313.691406 L 421.371094 289.800781 L 385.398438 254.238281 L 361.777344 278.128906 L 397.753906 313.691406 " fill-opacity="1" fill-rule="nonzero"/><path fill="#ffffff" d="M 363.628906 269.273438 L 376.5625 256.191406 C 377.457031 255.285156 378.914062 255.28125 379.820312 256.171875 L 382.8125 259.132812 L 366.644531 275.492188 L 363.648438 272.53125 C 362.742188 271.636719 362.734375 270.179688 363.628906 269.273438 " fill-opacity="1" fill-rule="nonzero"/><path fill="#ffffff" d="M 366.355469 260.40625 C 365.972656 260.027344 365.96875 259.40625 366.347656 259.023438 C 366.726562 258.640625 367.34375 258.636719 367.730469 259.015625 C 368.113281 259.394531 368.117188 260.011719 367.734375 260.398438 C 367.355469 260.78125 366.742188 260.785156 366.355469 260.40625 Z M 364.726562 264.371094 L 368.238281 267.847656 L 375.191406 260.816406 L 371.675781 257.339844 C 369.734375 255.421875 366.605469 255.441406 364.683594 257.382812 C 362.765625 259.320312 362.785156 262.453125 364.726562 264.371094 " fill-opacity="1" fill-rule="nonzero"/><path fill="#ffffff" d="M 370.90625 282.6875 L 390.058594 263.3125 L 388.453125 261.726562 L 369.300781 281.097656 L 370.90625 282.6875 " fill-opacity="1" fill-rule="nonzero"/><path fill="#ffffff" d="M 374.199219 285.941406 L 393.351562 266.570312 L 391.746094 264.980469 L 372.59375 284.351562 L 374.199219 285.941406 " fill-opacity="1" fill-rule="nonzero"/><path fill="#ffffff" d="M 377.492188 289.199219 L 396.640625 269.828125 L 395.035156 268.238281 L 375.886719 287.609375 L 377.492188 289.199219 " fill-opacity="1" fill-rule="nonzero"/><path fill="#ffffff" d="M 397.820312 299.105469 C 397.820312 299.105469 389.015625 309.03125 383.46875 307.636719 C 377.921875 306.246094 379.160156 302.242188 379.160156 302.242188 L 387.679688 297.695312 C 387.679688 297.695312 379.808594 298.785156 380.691406 296.105469 C 381.144531 294.726562 381.824219 294.796875 383.613281 294.769531 C 388.238281 294.699219 396.828125 294.21875 396.828125 294.21875 L 397.820312 299.105469 " fill-opacity="1" fill-rule="nonzero"/><path fill="#000000" d="M 379.859375 302.769531 C 379.804688 303.171875 379.789062 303.945312 380.238281 304.726562 C 380.808594 305.71875 381.960938 306.4375 383.664062 306.863281 C 387.679688 307.875 394.378906 301.695312 396.960938 298.867188 L 396.183594 295.050781 C 394.050781 295.164062 387.457031 295.503906 383.625 295.5625 L 383.339844 295.566406 C 381.699219 295.585938 381.683594 295.628906 381.449219 296.351562 C 381.394531 296.507812 381.425781 296.542969 381.445312 296.570312 C 381.972656 297.203125 385.042969 297.257812 387.570312 296.90625 C 387.953125 296.855469 388.316406 297.082031 388.4375 297.449219 C 388.554688 297.816406 388.394531 298.214844 388.054688 298.394531 Z M 384.570312 308.5625 C 384.128906 308.5625 383.695312 308.511719 383.277344 308.40625 C 381.121094 307.867188 379.628906 306.886719 378.839844 305.484375 C 377.875 303.769531 378.375 302.078125 378.398438 302.007812 C 378.460938 301.808594 378.597656 301.640625 378.78125 301.539062 L 384.074219 298.71875 C 382.496094 298.679688 380.910156 298.414062 380.222656 297.585938 C 379.828125 297.109375 379.726562 296.496094 379.9375 295.855469 C 380.542969 294.015625 381.707031 293.996094 383.316406 293.976562 L 383.597656 293.972656 C 388.160156 293.902344 396.699219 293.429688 396.78125 293.425781 C 397.179688 293.40625 397.527344 293.671875 397.605469 294.0625 L 398.597656 298.945312 C 398.648438 299.191406 398.582031 299.445312 398.414062 299.632812 C 398.070312 300.019531 390.425781 308.5625 384.570312 308.5625 " fill-opacity="1" fill-rule="nonzero"/><path fill="#ffffff" d="M 388.425781 303.820312 C 388.425781 303.820312 386.414062 305.507812 382.109375 307.195312 L 388.425781 303.820312 " fill-opacity="1" fill-rule="nonzero"/><path fill="#000000" d="M 382.113281 307.992188 C 381.792969 307.992188 381.496094 307.796875 381.375 307.484375 C 381.214844 307.074219 381.414062 306.617188 381.820312 306.457031 C 385.925781 304.84375 387.898438 303.226562 387.917969 303.210938 C 388.253906 302.929688 388.753906 302.972656 389.035156 303.3125 C 389.316406 303.648438 389.273438 304.148438 388.9375 304.425781 C 388.851562 304.5 386.777344 306.21875 382.402344 307.933594 C 382.308594 307.972656 382.210938 307.992188 382.113281 307.992188 " fill-opacity="1" fill-rule="nonzero"/><path fill="#ffffff" d="M 386.933594 301.933594 C 386.933594 301.933594 384.296875 303.6875 379.796875 305.507812 L 386.933594 301.933594 " fill-opacity="1" fill-rule="nonzero"/><path fill="#000000" d="M 379.800781 306.300781 C 379.488281 306.300781 379.191406 306.113281 379.066406 305.804688 C 378.902344 305.398438 379.09375 304.933594 379.503906 304.769531 C 383.863281 303.007812 386.472656 301.285156 386.5 301.269531 C 386.863281 301.027344 387.355469 301.128906 387.601562 301.492188 C 387.84375 301.859375 387.742188 302.351562 387.378906 302.59375 C 387.269531 302.667969 384.617188 304.414062 380.097656 306.246094 C 380 306.28125 379.902344 306.300781 379.800781 306.300781 " fill-opacity="1" fill-rule="nonzero"/><path fill="#f96f5f" d="M 383.765625 217.320312 C 389.519531 217.421875 394.929688 220.042969 398.585938 224.484375 C 408.3125 236.3125 426.300781 260.347656 424.910156 274.90625 C 423.011719 294.785156 397.648438 301.277344 397.648438 301.277344 L 394.808594 292.679688 C 417.648438 272.46875 389.5625 244.96875 389.5625 244.96875 L 381.929688 217.289062 L 383.765625 217.320312 " fill-opacity="1" fill-rule="nonzero"/><path fill="#ffffff" d="M 357.191406 184.4375 C 356.175781 185.277344 355.589844 185.511719 354.761719 186.308594 C 353.089844 187.929688 351.628906 192.71875 348.808594 193.707031 C 348.507812 195.269531 349.757812 195.453125 350.234375 196.328125 C 349.882812 197.09375 349.304688 200.675781 348.691406 202.871094 C 348.476562 203.640625 348.867188 204.453125 349.605469 204.75 C 350.851562 205.257812 352.253906 205.585938 353.820312 205.699219 C 353.820312 205.699219 361.855469 214.851562 353.679688 221.144531 C 353.679688 221.144531 366.296875 218.625 370.03125 218.257812 C 372.242188 218.039062 364.527344 202.425781 364.527344 202.425781 C 364.765625 202.335938 367.902344 201.132812 368.234375 198.539062 C 368.359375 197.585938 368.148438 196.070312 367.289062 195.742188 C 366.453125 195.429688 365.046875 196.273438 364.164062 198.070312 C 363.96875 197.636719 363.796875 197.089844 363.625 196.460938 C 363.386719 195.597656 363.210938 194.605469 363.457031 194.105469 C 355.632812 191.984375 362.664062 184.378906 357.191406 184.4375 " fill-opacity="1" fill-rule="nonzero"/><path fill="#000000" d="M 349.558594 194.253906 C 349.589844 194.554688 349.777344 194.71875 350.109375 195.007812 C 350.390625 195.253906 350.703125 195.53125 350.929688 195.945312 C 351.050781 196.164062 351.058594 196.425781 350.957031 196.65625 C 350.808594 196.976562 350.535156 198.277344 350.296875 199.421875 C 350.042969 200.640625 349.753906 202.019531 349.457031 203.082031 C 349.347656 203.46875 349.542969 203.871094 349.902344 204.015625 C 351.105469 204.503906 352.441406 204.804688 353.878906 204.910156 C 354.085938 204.921875 354.28125 205.019531 354.417969 205.175781 C 354.589844 205.375 358.601562 210.007812 358.101562 215.160156 C 357.933594 216.886719 357.285156 218.453125 356.160156 219.847656 C 359.941406 219.113281 366.738281 217.828125 369.644531 217.5 C 369.714844 215.832031 366.761719 208.746094 363.8125 202.777344 C 363.714844 202.578125 363.707031 202.339844 363.789062 202.128906 C 363.875 201.921875 364.042969 201.753906 364.25 201.679688 C 364.371094 201.636719 367.171875 200.585938 367.445312 198.4375 C 367.558594 197.5625 367.296875 196.597656 367.011719 196.488281 C 366.671875 196.359375 365.609375 196.925781 364.871094 198.417969 C 364.738281 198.691406 364.472656 198.871094 364.152344 198.859375 C 363.84375 198.855469 363.566406 198.675781 363.4375 198.398438 C 363.203125 197.878906 363.011719 197.230469 362.859375 196.671875 C 362.632812 195.847656 362.527344 195.1875 362.546875 194.65625 C 358.371094 193.199219 358.554688 189.980469 358.679688 187.816406 C 358.738281 186.832031 358.789062 185.90625 358.445312 185.542969 C 358.242188 185.328125 357.835938 185.253906 357.460938 185.238281 C 357.101562 185.527344 356.789062 185.742188 356.507812 185.9375 C 356.09375 186.226562 355.734375 186.476562 355.316406 186.882812 C 354.785156 187.394531 354.222656 188.371094 353.625 189.40625 C 352.554688 191.269531 351.355469 193.359375 349.558594 194.253906 Z M 353.679688 221.941406 C 353.371094 221.941406 353.085938 221.761719 352.953125 221.472656 C 352.800781 221.136719 352.902344 220.742188 353.191406 220.515625 C 355.191406 218.976562 356.308594 217.125 356.519531 215.015625 C 356.898438 211.15625 354.183594 207.429688 353.417969 206.464844 C 351.945312 206.324219 350.5625 205.996094 349.308594 205.488281 C 348.191406 205.039062 347.601562 203.820312 347.925781 202.65625 C 348.210938 201.644531 348.492188 200.289062 348.742188 199.097656 C 349 197.859375 349.179688 197.007812 349.34375 196.464844 C 349.261719 196.378906 349.164062 196.296875 349.0625 196.203125 C 348.535156 195.746094 347.742188 195.050781 348.027344 193.558594 C 348.078125 193.277344 348.277344 193.050781 348.546875 192.957031 C 350.054688 192.425781 351.21875 190.402344 352.25 188.613281 C 352.902344 187.480469 353.519531 186.40625 354.207031 185.738281 C 354.722656 185.246094 355.148438 184.945312 355.597656 184.632812 C 355.929688 184.402344 356.269531 184.167969 356.683594 183.824219 C 356.824219 183.710938 357 183.644531 357.179688 183.644531 C 358.28125 183.632812 359.070312 183.894531 359.59375 184.449219 C 360.417969 185.308594 360.34375 186.574219 360.265625 187.90625 C 360.136719 190.191406 360.007812 192.347656 363.667969 193.339844 C 363.894531 193.402344 364.082031 193.5625 364.183594 193.78125 C 364.28125 193.996094 364.273438 194.246094 364.167969 194.460938 C 364.167969 194.460938 364 194.835938 364.390625 196.25 C 364.394531 196.257812 364.394531 196.269531 364.398438 196.277344 C 365.375 195.164062 366.589844 194.632812 367.570312 195.003906 C 368.910156 195.507812 369.171875 197.457031 369.023438 198.640625 C 368.734375 200.898438 366.757812 202.226562 365.601562 202.8125 C 368.222656 208.179688 372.03125 216.621094 371.015625 218.445312 C 370.824219 218.792969 370.492188 219.011719 370.105469 219.050781 C 366.453125 219.40625 353.960938 221.898438 353.832031 221.925781 C 353.785156 221.933594 353.726562 221.941406 353.679688 221.941406 " fill-opacity="1" fill-rule="nonzero"/><path fill="#ffffff" d="M 360.273438 204.746094 C 360.273438 204.746094 357.597656 206.40625 354.078125 205.730469 L 360.273438 204.746094 " fill-opacity="1" fill-rule="nonzero"/><path fill="#000000" d="M 355.789062 206.6875 C 355.203125 206.6875 354.578125 206.632812 353.925781 206.511719 C 353.492188 206.425781 353.214844 206.007812 353.296875 205.578125 C 353.378906 205.144531 353.796875 204.867188 354.226562 204.949219 C 357.402344 205.5625 359.828125 204.085938 359.851562 204.074219 C 360.226562 203.839844 360.714844 203.957031 360.949219 204.328125 C 361.175781 204.703125 361.0625 205.191406 360.6875 205.421875 C 360.59375 205.484375 358.609375 206.6875 355.789062 206.6875 " fill-opacity="1" fill-rule="nonzero"/><path fill="#000000" d="M 426.710938 122.597656 C 425.972656 122.597656 425.230469 122.753906 424.535156 123.066406 C 421.792969 124.300781 420.546875 127.582031 421.757812 130.382812 C 422.347656 131.75 423.421875 132.796875 424.789062 133.328125 C 426.125 133.847656 427.582031 133.808594 428.890625 133.222656 C 431.632812 131.992188 432.878906 128.710938 431.667969 125.90625 C 431.082031 124.539062 430 123.496094 428.636719 122.960938 C 428.011719 122.71875 427.359375 122.597656 426.710938 122.597656 Z M 426.71875 135.28125 C 425.871094 135.28125 425.027344 135.125 424.214844 134.808594 C 422.445312 134.121094 421.058594 132.773438 420.296875 131.015625 C 418.746094 127.417969 420.355469 123.203125 423.882812 121.617188 C 425.585938 120.855469 427.476562 120.804688 429.214844 121.484375 C 430.976562 122.167969 432.371094 123.515625 433.128906 125.277344 C 434.679688 128.875 433.070312 133.085938 429.542969 134.671875 C 428.636719 135.078125 427.675781 135.28125 426.71875 135.28125 " fill-opacity="1" fill-rule="nonzero"/><path fill="#000000" d="M 440.785156 151.078125 C 440.347656 151.078125 439.992188 150.722656 439.992188 150.28125 L 439.992188 146.175781 C 439.992188 145.734375 440.347656 145.382812 440.785156 145.382812 C 441.226562 145.382812 441.582031 145.734375 441.582031 146.175781 L 441.582031 150.28125 C 441.582031 150.722656 441.226562 151.078125 440.785156 151.078125 " fill-opacity="1" fill-rule="nonzero"/><path fill="#000000" d="M 440.785156 160.652344 C 440.347656 160.652344 439.992188 160.292969 439.992188 159.859375 L 439.992188 155.746094 C 439.992188 155.308594 440.347656 154.953125 440.785156 154.953125 C 441.226562 154.953125 441.582031 155.308594 441.582031 155.746094 L 441.582031 159.859375 C 441.582031 160.292969 441.226562 160.652344 440.785156 160.652344 " fill-opacity="1" fill-rule="nonzero"/><path fill="#000000" d="M 438.054688 153.808594 L 433.949219 153.808594 C 433.507812 153.808594 433.152344 153.457031 433.152344 153.015625 C 433.152344 152.578125 433.507812 152.21875 433.949219 152.21875 L 438.054688 152.21875 C 438.496094 152.21875 438.851562 152.578125 438.851562 153.015625 C 438.851562 153.457031 438.496094 153.808594 438.054688 153.808594 " fill-opacity="1" fill-rule="nonzero"/><path fill="#000000" d="M 447.628906 153.8125 L 443.519531 153.8125 C 443.082031 153.8125 442.726562 153.457031 442.726562 153.015625 C 442.726562 152.578125 443.082031 152.222656 443.519531 152.222656 L 447.628906 152.222656 C 448.066406 152.222656 448.421875 152.578125 448.421875 153.015625 C 448.421875 153.457031 448.066406 153.8125 447.628906 153.8125 " fill-opacity="1" fill-rule="nonzero"/><path fill="#000000" d="M 211.21875 35.25 C 211.019531 35.25 210.816406 35.171875 210.664062 35.019531 L 207.738281 32.132812 C 207.425781 31.824219 207.421875 31.324219 207.730469 31.011719 C 208.039062 30.699219 208.542969 30.695312 208.855469 31.003906 L 211.777344 33.890625 C 212.089844 34.199219 212.09375 34.703125 211.785156 35.015625 C 211.628906 35.171875 211.425781 35.25 211.21875 35.25 " fill-opacity="1" fill-rule="nonzero"/><path fill="#000000" d="M 218.03125 41.976562 C 217.828125 41.976562 217.625 41.902344 217.472656 41.75 L 214.546875 38.859375 C 214.238281 38.550781 214.234375 38.050781 214.542969 37.738281 C 214.847656 37.425781 215.351562 37.421875 215.664062 37.730469 L 218.589844 40.617188 C 218.902344 40.925781 218.902344 41.429688 218.597656 41.742188 C 218.441406 41.898438 218.234375 41.976562 218.03125 41.976562 " fill-opacity="1" fill-rule="nonzero"/><path fill="#000000" d="M 208.355469 42.035156 C 208.15625 42.035156 207.953125 41.964844 207.800781 41.808594 C 207.484375 41.5 207.484375 40.996094 207.792969 40.683594 L 210.679688 37.761719 C 210.988281 37.449219 211.492188 37.445312 211.804688 37.753906 C 212.113281 38.0625 212.117188 38.566406 211.808594 38.878906 L 208.921875 41.800781 C 208.769531 41.960938 208.5625 42.035156 208.355469 42.035156 " fill-opacity="1" fill-rule="nonzero"/><path fill="#000000" d="M 215.082031 35.226562 C 214.878906 35.226562 214.675781 35.152344 214.523438 35 C 214.210938 34.691406 214.207031 34.1875 214.515625 33.875 L 217.402344 30.953125 C 217.710938 30.640625 218.214844 30.636719 218.527344 30.945312 C 218.839844 31.253906 218.84375 31.757812 218.535156 32.070312 L 215.648438 34.992188 C 215.492188 35.148438 215.285156 35.226562 215.082031 35.226562 " fill-opacity="1" fill-rule="nonzero"/><path fill="#ffffff" d="M 51.050781 426.851562 L 51.664062 438.097656 L 59.179688 439.363281 L 59.847656 426.105469 L 51.050781 426.851562 " fill-opacity="1" fill-rule="nonzero"/><path fill="#000000" d="M 52.421875 437.417969 L 58.429688 438.433594 L 59.007812 426.972656 L 51.886719 427.578125 Z M 59.179688 440.160156 C 59.136719 440.160156 59.089844 440.15625 59.046875 440.148438 L 51.53125 438.878906 C 51.164062 438.816406 50.890625 438.511719 50.871094 438.140625 L 50.257812 426.894531 C 50.234375 426.46875 50.558594 426.097656 50.984375 426.0625 L 59.78125 425.3125 C 60.011719 425.292969 60.234375 425.375 60.398438 425.53125 C 60.566406 425.691406 60.652344 425.914062 60.640625 426.144531 L 59.972656 439.402344 C 59.960938 439.632812 59.855469 439.84375 59.675781 439.984375 C 59.535156 440.097656 59.359375 440.160156 59.179688 440.160156 " fill-opacity="1" fill-rule="nonzero"/><path fill="#f96f5f" d="M 59.390625 458.375 C 56.214844 458.664062 51.023438 459.308594 44.996094 458.164062 C 43.027344 457.785156 41.808594 455.792969 42.386719 453.871094 C 43.996094 448.511719 46.816406 438.324219 51.007812 433.746094 L 51.914062 435.988281 L 53.335938 434.015625 C 53.539062 433.691406 53.882812 433.484375 54.265625 433.457031 L 57.253906 433.230469 C 57.878906 433.179688 58.433594 433.621094 58.53125 434.238281 L 58.617188 435.585938 L 60.621094 433.640625 L 61.128906 445.527344 C 61.230469 447.84375 61.492188 449.632812 61.917969 451.914062 L 62.445312 454.738281 C 62.59375 456.582031 61.234375 458.210938 59.390625 458.375 " fill-opacity="1" fill-rule="nonzero"/><path fill="#000000" d="M 50.773438 435.277344 C 47.417969 439.738281 44.988281 447.90625 43.492188 452.9375 L 43.144531 454.097656 C 42.933594 454.804688 43.027344 455.546875 43.410156 456.179688 C 43.792969 456.808594 44.425781 457.242188 45.144531 457.382812 C 50.550781 458.410156 55.316406 457.960938 58.464844 457.664062 L 59.320312 457.585938 C 60.707031 457.460938 61.746094 456.234375 61.65625 454.839844 L 61.136719 452.0625 C 60.71875 449.816406 60.4375 447.945312 60.335938 445.5625 L 59.902344 435.445312 L 59.167969 436.15625 C 58.945312 436.375 58.617188 436.441406 58.328125 436.328125 C 58.039062 436.214844 57.839844 435.945312 57.820312 435.636719 L 57.742188 434.335938 C 57.695312 434.144531 57.515625 434.007812 57.3125 434.023438 L 54.324219 434.246094 C 54.195312 434.257812 54.078125 434.328125 54.011719 434.4375 C 54 434.453125 53.992188 434.46875 53.980469 434.480469 L 52.558594 436.453125 C 52.390625 436.6875 52.105469 436.8125 51.820312 436.773438 C 51.535156 436.742188 51.289062 436.554688 51.179688 436.285156 Z M 52.238281 459.613281 C 50 459.613281 47.507812 459.449219 44.847656 458.941406 C 43.6875 458.722656 42.667969 458.015625 42.054688 457.003906 C 41.441406 455.996094 41.285156 454.769531 41.625 453.644531 L 41.96875 452.484375 C 43.625 446.921875 46.390625 437.609375 50.421875 433.210938 C 50.605469 433.011719 50.878906 432.917969 51.148438 432.96875 C 51.417969 433.015625 51.640625 433.199219 51.746094 433.449219 L 52.113281 434.355469 L 52.679688 433.574219 C 53.015625 433.050781 53.585938 432.710938 54.203125 432.664062 L 57.195312 432.4375 C 58.136719 432.367188 58.992188 432.976562 59.257812 433.859375 L 60.066406 433.074219 C 60.292969 432.855469 60.621094 432.789062 60.914062 432.90625 C 61.203125 433.019531 61.398438 433.292969 61.414062 433.609375 L 61.925781 445.496094 C 62.023438 447.792969 62.28125 449.535156 62.699219 451.765625 L 63.226562 454.589844 C 63.230469 454.617188 63.234375 454.644531 63.238281 454.671875 C 63.421875 456.949219 61.726562 458.964844 59.460938 459.167969 L 58.617188 459.246094 C 56.90625 459.40625 54.734375 459.613281 52.238281 459.613281 " fill-opacity="1" fill-rule="nonzero"/><path fill="#000000" d="M 52.550781 456.183594 C 50.039062 456.183594 47.164062 455.929688 44.328125 455.128906 C 43.90625 455.011719 43.660156 454.570312 43.777344 454.148438 C 43.898438 453.726562 44.335938 453.480469 44.757812 453.601562 C 52 455.636719 59.769531 453.878906 59.847656 453.859375 C 60.273438 453.761719 60.703125 454.027344 60.800781 454.453125 C 60.902344 454.882812 60.636719 455.308594 60.207031 455.40625 C 60 455.457031 56.796875 456.183594 52.550781 456.183594 " fill-opacity="1" fill-rule="nonzero"/><path fill="#000000" d="M 56.5 447.855469 C 56.496094 447.855469 56.492188 447.855469 56.488281 447.855469 L 49.386719 447.730469 C 48.945312 447.722656 48.597656 447.363281 48.605469 446.921875 C 48.613281 446.484375 48.984375 446.132812 49.414062 446.140625 L 56.515625 446.265625 C 56.953125 446.273438 57.300781 446.632812 57.292969 447.074219 C 57.285156 447.507812 56.933594 447.855469 56.5 447.855469 " fill-opacity="1" fill-rule="nonzero"/><path fill="#ffffff" d="M 86.773438 422.6875 L 87.082031 439.0625 L 96.183594 439.523438 L 97.429688 423.222656 L 86.773438 422.6875 " fill-opacity="1" fill-rule="nonzero"/><path fill="#000000" d="M 87.863281 438.308594 L 95.449219 438.6875 L 96.574219 423.972656 L 87.582031 423.519531 Z M 96.183594 440.316406 C 96.171875 440.316406 96.15625 440.316406 96.144531 440.316406 L 87.042969 439.855469 C 86.625 439.835938 86.296875 439.496094 86.289062 439.078125 L 85.980469 422.699219 C 85.972656 422.476562 86.0625 422.265625 86.21875 422.113281 C 86.378906 421.960938 86.589844 421.882812 86.8125 421.890625 L 97.46875 422.429688 C 97.683594 422.441406 97.882812 422.535156 98.023438 422.695312 C 98.167969 422.859375 98.238281 423.070312 98.222656 423.28125 L 96.972656 439.582031 C 96.941406 440 96.59375 440.316406 96.183594 440.316406 " fill-opacity="1" fill-rule="nonzero"/><path fill="#f96f5f" d="M 84.242188 448.15625 C 84.140625 449.699219 85.125 451.109375 86.613281 451.535156 C 91.78125 453.015625 103.429688 456.320312 106.765625 456.992188 C 111.097656 457.859375 116.527344 456.792969 118.960938 454.359375 C 121.394531 451.925781 114.234375 445.453125 110.800781 443.058594 C 105.703125 439.5 100.972656 432.734375 98.867188 432.335938 C 96.761719 431.933594 92.492188 437.890625 92.492188 437.890625 L 86.160156 434.84375 C 86.160156 434.84375 84.753906 440.332031 84.242188 448.15625 " fill-opacity="1" fill-rule="nonzero"/><path fill="#000000" d="M 84.242188 448.15625 L 84.246094 448.15625 Z M 86.710938 435.988281 C 86.296875 437.875 85.414062 442.414062 85.035156 448.210938 C 84.957031 449.371094 85.714844 450.449219 86.832031 450.769531 C 91.761719 452.183594 103.59375 455.542969 106.921875 456.210938 C 111.085938 457.050781 116.234375 455.964844 118.398438 453.796875 C 118.539062 453.65625 118.695312 453.4375 118.652344 452.96875 C 118.441406 450.59375 113.609375 445.988281 110.347656 443.707031 C 107.738281 441.886719 105.304688 439.332031 103.15625 437.078125 C 101.371094 435.203125 99.523438 433.269531 98.722656 433.117188 C 97.757812 432.933594 95.058594 435.675781 93.140625 438.351562 C 92.914062 438.664062 92.496094 438.773438 92.148438 438.605469 Z M 109.890625 458.085938 C 108.78125 458.085938 107.671875 457.984375 106.609375 457.769531 C 103.222656 457.089844 91.34375 453.71875 86.394531 452.296875 C 84.5625 451.773438 83.324219 450.011719 83.449219 448.105469 C 83.957031 440.296875 85.332031 434.875 85.390625 434.648438 C 85.449219 434.414062 85.609375 434.226562 85.824219 434.125 C 86.039062 434.023438 86.289062 434.023438 86.503906 434.128906 L 92.242188 436.886719 C 93.640625 435.019531 96.84375 431.140625 99.015625 431.554688 C 100.261719 431.792969 101.761719 433.3125 104.304688 435.980469 C 106.402344 438.179688 108.78125 440.679688 111.257812 442.40625 C 113.484375 443.960938 119.917969 449.214844 120.238281 452.832031 C 120.308594 453.65625 120.0625 454.378906 119.523438 454.921875 C 117.554688 456.886719 113.707031 458.085938 109.890625 458.085938 " fill-opacity="1" fill-rule="nonzero"/><path fill="#000000" d="M 110.203125 453.878906 C 101.355469 453.878906 88.191406 449.070312 87.496094 448.808594 C 87.082031 448.660156 86.871094 448.203125 87.023438 447.789062 C 87.175781 447.378906 87.632812 447.167969 88.046875 447.320312 C 88.253906 447.394531 108.976562 454.96875 115.179688 451.339844 C 115.558594 451.117188 116.042969 451.242188 116.265625 451.625 C 116.488281 452.003906 116.359375 452.488281 115.980469 452.710938 C 114.558594 453.542969 112.527344 453.878906 110.203125 453.878906 " fill-opacity="1" fill-rule="nonzero"/><path fill="#000000" d="M 99.515625 444.667969 C 99.285156 444.667969 99.054688 444.570312 98.898438 444.378906 C 98.621094 444.035156 98.671875 443.535156 99.011719 443.257812 L 103.851562 439.316406 C 104.191406 439.042969 104.691406 439.09375 104.96875 439.433594 C 105.246094 439.773438 105.195312 440.273438 104.855469 440.550781 L 100.015625 444.492188 C 99.867188 444.609375 99.691406 444.667969 99.515625 444.667969 " fill-opacity="1" fill-rule="nonzero"/><path fill="#f96f5f" d="M 54.136719 314.371094 C 54.136719 314.371094 48.746094 365.25 46.382812 382.789062 C 44.019531 400.328125 47.515625 428.886719 47.515625 428.886719 L 61.597656 428.855469 C 61.597656 428.855469 63.589844 403.511719 65.117188 390.328125 C 65.492188 387.097656 66.386719 383.949219 67.742188 380.992188 C 69.878906 376.347656 73.21875 368.339844 74.75 360.84375 C 77.09375 349.375 84.003906 331.425781 84.003906 331.425781 C 84.003906 331.425781 84.273438 422.789062 84.378906 429.96875 C 84.378906 429.96875 95.367188 431.015625 99.441406 428.730469 C 99.441406 428.730469 108.117188 395.855469 108.023438 377.730469 C 107.929688 359.601562 111.296875 314.746094 111.296875 314.746094 L 54.136719 314.371094 " fill-opacity="1" fill-rule="nonzero"/><path fill="#000000" d="M 85.164062 429.238281 C 87.558594 429.410156 95.351562 429.828125 98.761719 428.1875 C 99.675781 424.65625 107.316406 394.570312 107.226562 377.734375 C 107.144531 361.15625 109.980469 321.8125 110.441406 315.53125 L 54.851562 315.167969 C 54.1875 321.417969 49.355469 366.675781 47.167969 382.894531 C 45.050781 398.617188 47.710938 423.605469 48.222656 428.09375 L 60.863281 428.0625 C 61.203125 423.804688 62.960938 402.03125 64.328125 390.238281 C 64.710938 386.949219 65.617188 383.726562 67.023438 380.660156 C 68.953125 376.453125 72.425781 368.261719 73.972656 360.6875 C 76.300781 349.285156 83.191406 331.316406 83.261719 331.136719 C 83.398438 330.78125 83.769531 330.570312 84.148438 330.640625 C 84.523438 330.710938 84.796875 331.039062 84.796875 331.421875 C 84.800781 332.308594 85.054688 418.207031 85.164062 429.238281 Z M 89.917969 431.007812 C 86.945312 431.007812 84.515625 430.78125 84.304688 430.761719 C 83.902344 430.722656 83.589844 430.386719 83.585938 429.980469 C 83.492188 423.785156 83.277344 354.128906 83.222656 335.808594 C 81.050781 341.789062 77.15625 353.035156 75.527344 361.003906 C 73.949219 368.734375 70.425781 377.050781 68.464844 381.324219 C 67.128906 384.234375 66.269531 387.296875 65.90625 390.421875 C 64.398438 403.4375 62.410156 428.664062 62.390625 428.921875 C 62.359375 429.332031 62.015625 429.648438 61.601562 429.652344 L 47.515625 429.679688 C 47.117188 429.679688 46.777344 429.378906 46.726562 428.980469 C 46.691406 428.695312 43.242188 400.121094 45.59375 382.679688 C 47.929688 365.355469 53.292969 314.792969 53.347656 314.285156 C 53.390625 313.882812 53.730469 313.574219 54.136719 313.574219 C 54.140625 313.574219 54.140625 313.574219 54.144531 313.574219 L 111.304688 313.949219 C 111.523438 313.953125 111.734375 314.042969 111.882812 314.207031 C 112.03125 314.371094 112.105469 314.585938 112.089844 314.804688 C 112.054688 315.253906 108.726562 359.839844 108.816406 377.726562 C 108.910156 395.75 100.296875 428.601562 100.210938 428.933594 C 100.15625 429.140625 100.019531 429.320312 99.832031 429.425781 C 97.550781 430.699219 93.367188 431.007812 89.917969 431.007812 " fill-opacity="1" fill-rule="nonzero"/><path fill="#000000" d="M 59.019531 386.019531 C 57.613281 386.019531 56.207031 385.621094 55.007812 384.835938 C 54.640625 384.601562 54.535156 384.109375 54.773438 383.738281 C 55.015625 383.371094 55.503906 383.265625 55.875 383.503906 C 57.375 384.480469 59.277344 384.703125 60.964844 384.09375 C 61.378906 383.945312 61.832031 384.160156 61.980469 384.570312 C 62.128906 384.984375 61.917969 385.441406 61.503906 385.589844 C 60.699219 385.878906 59.859375 386.019531 59.019531 386.019531 " fill-opacity="1" fill-rule="nonzero"/><path fill="#000000" d="M 55.773438 329.863281 C 55.371094 329.863281 55.027344 329.558594 54.984375 329.148438 C 54.9375 328.714844 55.257812 328.320312 55.691406 328.277344 C 57.832031 328.054688 60.378906 326.527344 61.109375 322.921875 C 61.195312 322.492188 61.613281 322.210938 62.042969 322.296875 C 62.472656 322.382812 62.75 322.804688 62.664062 323.234375 C 61.765625 327.6875 58.558594 329.574219 55.859375 329.859375 C 55.832031 329.859375 55.800781 329.863281 55.773438 329.863281 " fill-opacity="1" fill-rule="nonzero"/><path fill="#000000" d="M 92.484375 413.679688 C 92.464844 413.679688 92.449219 413.675781 92.429688 413.675781 C 91.992188 413.644531 91.660156 413.265625 91.691406 412.832031 C 92.277344 404.316406 102.335938 389.601562 102.765625 388.980469 C 103.015625 388.617188 103.507812 388.527344 103.871094 388.777344 C 104.230469 389.023438 104.324219 389.519531 104.074219 389.882812 C 103.972656 390.03125 93.832031 404.859375 93.277344 412.9375 C 93.246094 413.359375 92.898438 413.679688 92.484375 413.679688 " fill-opacity="1" fill-rule="nonzero"/><path fill="#ffffff" d="M 106.359375 241.789062 C 109.441406 232.910156 113.984375 234.121094 117.253906 236.707031 C 119.605469 238.5625 121.183594 241.238281 121.714844 244.1875 C 122.152344 246.621094 123.050781 250.164062 124.867188 253.472656 C 128.265625 259.664062 140.828125 262.152344 145.210938 262.136719 C 147.121094 262.128906 152.25 255.992188 155.542969 257.03125 C 157.90625 257.777344 153.496094 261.535156 154.050781 261.800781 C 156.097656 262.804688 158.039062 262.589844 159.894531 262.578125 C 162.910156 262.566406 165.597656 261.753906 166.722656 261.746094 C 168.152344 261.738281 168.628906 263.199219 168.039062 264.5 C 167.195312 266.355469 165.351562 269.167969 162.300781 270.15625 C 156.851562 271.910156 147.53125 270.265625 144.28125 269.632812 C 141.804688 269.152344 112.621094 270.964844 108.902344 258.785156 C 108.128906 256.253906 105.058594 245.527344 106.359375 241.789062 " fill-opacity="1" fill-rule="nonzero"/><path fill="#000000" d="M 106.359375 241.789062 L 106.363281 241.789062 Z M 112.789062 235.613281 C 112.445312 235.613281 112.117188 235.660156 111.800781 235.753906 C 109.949219 236.292969 108.371094 238.414062 107.109375 242.050781 C 106.066406 245.054688 108.222656 253.835938 109.664062 258.554688 C 112.617188 268.234375 133.433594 268.585938 141.269531 268.71875 C 143.09375 268.75 143.988281 268.765625 144.433594 268.851562 C 148.933594 269.726562 157.203125 270.960938 162.058594 269.394531 C 165.105469 268.417969 166.75 265.414062 167.316406 264.167969 C 167.539062 263.683594 167.550781 263.140625 167.34375 262.824219 C 167.21875 262.632812 167.027344 262.546875 166.730469 262.542969 C 166.371094 262.542969 165.726562 262.660156 164.984375 262.796875 C 163.65625 263.035156 161.839844 263.367188 159.898438 263.375 C 159.636719 263.378906 159.371094 263.382812 159.101562 263.386719 C 157.472656 263.421875 155.625 263.457031 153.699219 262.515625 C 153.460938 262.398438 153.289062 262.183594 153.230469 261.925781 C 153.105469 261.390625 153.441406 260.960938 154.105469 260.101562 C 154.496094 259.601562 155.527344 258.269531 155.453125 257.847656 C 155.449219 257.847656 155.398438 257.820312 155.304688 257.789062 C 153.6875 257.28125 151.136719 259.207031 149.089844 260.757812 C 147.425781 262.015625 146.222656 262.925781 145.210938 262.929688 C 140.496094 262.933594 127.742188 260.363281 124.167969 253.855469 C 122.292969 250.441406 121.375 246.789062 120.933594 244.328125 C 120.433594 241.542969 118.953125 239.058594 116.761719 237.328125 C 115.316406 236.1875 113.984375 235.613281 112.789062 235.613281 Z M 156.046875 271.726562 C 151.75 271.726562 147.125 270.996094 144.128906 270.414062 C 143.800781 270.347656 142.617188 270.328125 141.242188 270.304688 C 133.089844 270.167969 111.433594 269.800781 108.144531 259.019531 C 107.472656 256.816406 104.1875 245.613281 105.605469 241.527344 C 107.046875 237.378906 108.980469 234.921875 111.355469 234.230469 C 113.3125 233.65625 115.464844 234.28125 117.746094 236.082031 C 120.242188 238.054688 121.929688 240.882812 122.496094 244.046875 C 122.917969 246.390625 123.792969 249.867188 125.5625 253.089844 C 128.769531 258.929688 140.9375 261.351562 145.207031 261.339844 C 145.6875 261.339844 147.101562 260.269531 148.132812 259.488281 C 150.59375 257.628906 153.382812 255.515625 155.78125 256.273438 C 156.554688 256.519531 156.851562 257 156.964844 257.367188 C 157.332031 258.539062 156.238281 259.945312 155.359375 261.078125 C 155.285156 261.175781 155.199219 261.285156 155.121094 261.390625 C 156.441406 261.851562 157.722656 261.824219 159.070312 261.796875 C 159.347656 261.792969 159.621094 261.789062 159.894531 261.785156 C 161.695312 261.777344 163.359375 261.476562 164.699219 261.234375 C 165.550781 261.078125 166.222656 260.953125 166.71875 260.953125 C 167.582031 260.949219 168.253906 261.304688 168.679688 261.964844 C 169.183594 262.738281 169.214844 263.835938 168.761719 264.828125 C 168.109375 266.265625 166.195312 269.734375 162.546875 270.910156 C 160.699219 271.503906 158.421875 271.726562 156.046875 271.726562 " fill-opacity="1" fill-rule="nonzero"/><path fill="#000000" d="M 44.839844 253.742188 C 44.839844 253.742188 42.542969 225.394531 61.492188 218.160156 C 78.570312 211.644531 101.363281 211.746094 113.617188 219.867188 C 119.671875 223.875 125.183594 248.394531 125.183594 248.394531 L 115.554688 259.285156 C 115.554688 259.285156 116.109375 313.222656 112.808594 327.289062 C 112.808594 327.289062 96.800781 328.339844 90.183594 325.34375 C 83.566406 322.339844 61.554688 317.5 50.699219 321.835938 L 56.0625 253.320312 L 44.839844 253.742188 " fill-opacity="1" fill-rule="nonzero"/><path fill="#e7f0ff" d="M 66.03125 309.339844 C 65.636719 309.339844 65.296875 309.046875 65.246094 308.644531 C 65.191406 308.210938 65.5 307.8125 65.933594 307.757812 C 91.296875 304.582031 99.453125 287.617188 99.535156 287.449219 C 99.71875 287.046875 100.191406 286.875 100.589844 287.0625 C 100.988281 287.246094 101.160156 287.71875 100.976562 288.117188 C 100.890625 288.292969 92.355469 306.050781 66.132812 309.335938 C 66.097656 309.335938 66.066406 309.339844 66.03125 309.339844 " fill-opacity="1" fill-rule="nonzero"/><path fill="#6ce5e8" d="M 114.476562 277.929688 L 87.328125 278.796875 C 86.457031 278.828125 85.828125 277.976562 86.105469 277.152344 L 97.230469 243.996094 C 97.398438 243.5 97.851562 243.160156 98.375 243.144531 L 125.523438 242.273438 C 126.394531 242.246094 127.027344 243.09375 126.75 243.917969 L 115.625 277.074219 C 115.457031 277.570312 115 277.910156 114.476562 277.929688 " fill-opacity="1" fill-rule="nonzero"/><path fill="#000000" d="M 125.566406 243.066406 C 125.5625 243.066406 125.554688 243.066406 125.550781 243.066406 L 98.402344 243.9375 C 98.210938 243.945312 98.042969 244.066406 97.984375 244.25 L 86.859375 277.402344 C 86.789062 277.605469 86.882812 277.761719 86.925781 277.820312 C 86.964844 277.878906 87.097656 278.015625 87.304688 278.003906 L 114.453125 277.132812 C 114.640625 277.125 114.808594 277.003906 114.871094 276.824219 L 125.996094 243.667969 C 126.066406 243.464844 125.972656 243.308594 125.929688 243.25 C 125.886719 243.195312 125.769531 243.066406 125.566406 243.066406 Z M 87.289062 279.589844 C 86.644531 279.589844 86.035156 279.285156 85.648438 278.769531 C 85.25 278.230469 85.136719 277.53125 85.351562 276.898438 L 96.476562 243.742188 C 96.746094 242.933594 97.5 242.375 98.351562 242.347656 L 125.5 241.480469 C 126.164062 241.460938 126.804688 241.765625 127.203125 242.304688 C 127.605469 242.839844 127.714844 243.539062 127.503906 244.175781 L 116.375 277.328125 C 116.105469 278.132812 115.351562 278.695312 114.503906 278.722656 L 87.355469 279.589844 C 87.332031 279.589844 87.3125 279.589844 87.289062 279.589844 " fill-opacity="1" fill-rule="nonzero"/><path fill="#ffffff" d="M 118.582031 245.320312 L 106.667969 245.699219 C 106.285156 245.714844 106.007812 245.339844 106.128906 244.976562 L 107.535156 240.375 C 107.609375 240.15625 107.808594 240.007812 108.039062 240 L 119.953125 239.617188 C 120.335938 239.605469 120.613281 239.976562 120.492188 240.339844 L 119.085938 244.945312 C 119.011719 245.164062 118.8125 245.3125 118.582031 245.320312 " fill-opacity="1" fill-rule="nonzero"/><path fill="#000000" d="M 119.734375 240.105469 C 119.730469 240.113281 119.730469 240.113281 119.730469 240.117188 Z M 118.558594 244.523438 Z M 108.238281 240.785156 L 106.984375 244.894531 L 118.382812 244.53125 L 119.636719 240.421875 Z M 106.890625 245.199219 L 106.890625 245.207031 C 106.890625 245.207031 106.890625 245.203125 106.890625 245.199219 Z M 106.648438 246.496094 C 106.226562 246.496094 105.824219 246.292969 105.570312 245.953125 C 105.308594 245.597656 105.234375 245.140625 105.375 244.722656 L 106.773438 240.140625 C 106.960938 239.589844 107.453125 239.222656 108.011719 239.203125 L 119.929688 238.820312 C 120.355469 238.8125 120.789062 239.007812 121.050781 239.363281 C 121.3125 239.71875 121.386719 240.175781 121.246094 240.59375 L 119.847656 245.175781 C 119.660156 245.726562 119.167969 246.09375 118.609375 246.113281 L 106.691406 246.496094 C 106.675781 246.496094 106.664062 246.496094 106.648438 246.496094 " fill-opacity="1" fill-rule="nonzero"/><path fill="#ffffff" d="M 47.394531 253.089844 L 61.855469 252.4375 C 61.855469 252.4375 61.964844 264.617188 63.269531 264.835938 C 67.917969 265.605469 77.652344 265.644531 83.988281 264.882812 C 86.195312 264.617188 87.945312 262.929688 88.359375 260.742188 C 88.671875 259.09375 89.015625 256.605469 91.828125 255.765625 C 94.292969 255.027344 91.859375 258.65625 93.90625 261.386719 C 95.007812 262.851562 98.488281 262.203125 103.238281 261.101562 C 107.984375 260.003906 109.191406 265.078125 103.871094 268.144531 C 98.101562 271.46875 94.433594 271.097656 92.59375 271.484375 C 88.929688 272.261719 56.527344 277.339844 51.527344 274.621094 C 47.660156 272.519531 47.394531 253.089844 47.394531 253.089844 " fill-opacity="1" fill-rule="nonzero"/><path fill="#000000" d="M 48.203125 253.847656 C 48.367188 261.230469 49.476562 272.601562 51.90625 273.921875 C 56.359375 276.339844 87.378906 271.773438 92.429688 270.707031 C 92.867188 270.617188 93.367188 270.566406 93.949219 270.503906 C 95.992188 270.300781 99.085938 269.984375 103.472656 267.457031 C 106.042969 265.976562 106.914062 263.996094 106.445312 262.8125 C 106.082031 261.886719 104.921875 261.527344 103.417969 261.875 C 98.203125 263.085938 94.675781 263.738281 93.269531 261.863281 C 92.109375 260.3125 92.179688 258.53125 92.226562 257.351562 C 92.238281 257.066406 92.25 256.703125 92.230469 256.480469 C 92.1875 256.488281 92.128906 256.503906 92.058594 256.527344 C 89.828125 257.191406 89.484375 259.035156 89.179688 260.667969 L 89.136719 260.894531 C 88.652344 263.445312 86.625 265.367188 84.085938 265.671875 C 77.714844 266.441406 67.925781 266.414062 63.140625 265.617188 C 62.515625 265.515625 61.234375 265.300781 61.070312 253.269531 Z M 57.800781 276.195312 C 54.703125 276.195312 52.300781 275.945312 51.148438 275.320312 C 47.078125 273.109375 46.644531 256.421875 46.597656 253.101562 C 46.59375 252.671875 46.929688 252.316406 47.359375 252.296875 L 61.820312 251.644531 C 62.035156 251.636719 62.246094 251.710938 62.402344 251.859375 C 62.558594 252.011719 62.648438 252.214844 62.652344 252.429688 C 62.695312 257.289062 63.074219 262.964844 63.621094 264.085938 C 68.289062 264.816406 77.851562 264.824219 83.894531 264.09375 C 85.742188 263.871094 87.222656 262.464844 87.578125 260.59375 L 87.621094 260.375 C 87.925781 258.71875 88.445312 255.945312 91.601562 255.003906 C 91.863281 254.925781 92.65625 254.6875 93.253906 255.152344 C 93.882812 255.640625 93.851562 256.460938 93.8125 257.414062 C 93.773438 258.480469 93.71875 259.8125 94.542969 260.910156 C 95.429688 262.09375 100.019531 261.03125 103.058594 260.328125 C 105.351562 259.796875 107.261719 260.542969 107.925781 262.226562 C 108.621094 263.992188 107.769531 266.8125 104.265625 268.832031 C 99.582031 271.53125 96.15625 271.878906 94.109375 272.085938 C 93.574219 272.140625 93.109375 272.1875 92.757812 272.261719 C 90.925781 272.648438 69.449219 276.195312 57.800781 276.195312 " fill-opacity="1" fill-rule="nonzero"/><path fill="#000000" d="M 89.941406 206.089844 C 88.457031 207.316406 85.609375 208.761719 83.496094 207.558594 C 81.925781 206.664062 81.128906 204.511719 81.304688 202.105469 C 80.554688 202.128906 79.578125 202.027344 78.910156 201.375 C 77.882812 200.367188 78.171875 198.625 78.273438 197.480469 C 78.734375 192.179688 75.691406 191.210938 76.628906 187.644531 C 77.363281 184.84375 79.671875 183.269531 80.105469 182.976562 C 82.285156 181.492188 83.679688 182.078125 87.257812 181.328125 C 93.273438 180.070312 93.59375 177.523438 97.507812 177.707031 C 97.734375 177.71875 103.054688 178.046875 104.679688 181.816406 C 105.996094 184.882812 104.097656 188.433594 102.226562 190.253906 C 99.800781 192.613281 98.214844 191.308594 95.800781 193.265625 C 91.566406 196.703125 94.34375 202.449219 89.941406 206.089844 " fill-opacity="1" fill-rule="nonzero"/><path fill="#ffffff" d="M 102.128906 196.042969 C 100.953125 194.921875 99.710938 192.703125 99.328125 191.125 C 97.929688 185.359375 92.691406 184.292969 92.152344 189.902344 C 92.007812 191.394531 86.542969 191.042969 87.113281 192.648438 C 88.597656 196.832031 88.691406 195.730469 86.226562 197.121094 C 85.957031 197.117188 85.683594 197.164062 85.425781 197.269531 C 84.171875 197.777344 83.652344 199.417969 84.269531 200.933594 C 84.644531 201.851562 85.347656 202.507812 86.125 202.769531 L 85.800781 209.242188 C 85.675781 211.671875 84.097656 213.785156 81.804688 214.585938 L 79.574219 215.371094 C 79.574219 215.371094 89.433594 222.535156 100.144531 215.753906 L 98.796875 215.066406 C 96.417969 213.851562 94.941406 211.390625 94.992188 208.722656 L 95.046875 207.453125 C 95.738281 207.550781 96.414062 207.539062 97.046875 207.390625 C 99.984375 206.695312 101.113281 203.410156 100.828125 199.238281 L 102.105469 198.078125 C 102.703125 197.535156 102.714844 196.601562 102.128906 196.042969 " fill-opacity="1" fill-rule="nonzero"/><path fill="#000000" d="M 81.414062 215.566406 C 84.234375 217.101562 91.015625 219.816406 98.492188 215.800781 L 98.433594 215.773438 C 95.808594 214.429688 94.144531 211.660156 94.199219 208.707031 L 94.253906 207.421875 C 94.261719 207.199219 94.367188 206.988281 94.539062 206.84375 C 94.710938 206.699219 94.933594 206.636719 95.15625 206.667969 C 95.777344 206.757812 96.351562 206.738281 96.863281 206.617188 C 100.125 205.84375 100.167969 201.238281 100.035156 199.292969 C 100.019531 199.050781 100.113281 198.8125 100.292969 198.652344 L 101.570312 197.488281 C 101.695312 197.378906 101.765625 197.226562 101.765625 197.058594 C 101.769531 196.890625 101.703125 196.734375 101.582031 196.621094 C 100.3125 195.410156 98.984375 193.078125 98.554688 191.3125 C 97.847656 188.394531 96.109375 186.910156 94.847656 187.003906 C 93.828125 187.078125 93.113281 188.1875 92.941406 189.980469 C 92.816406 191.265625 91.234375 191.625 89.707031 191.96875 C 89.140625 192.101562 88.230469 192.304688 87.90625 192.503906 C 88.101562 193.050781 88.269531 193.5 88.410156 193.878906 C 89.117188 195.761719 89.382812 196.46875 87.644531 197.289062 C 87.371094 197.417969 87.03125 197.578125 86.617188 197.8125 C 86.496094 197.878906 86.371094 197.910156 86.21875 197.914062 C 86.039062 197.910156 85.875 197.941406 85.722656 198.003906 C 84.878906 198.347656 84.554688 199.527344 85.003906 200.632812 C 85.277344 201.300781 85.789062 201.816406 86.382812 202.019531 C 86.71875 202.132812 86.9375 202.457031 86.917969 202.8125 L 86.59375 209.285156 C 86.453125 212.042969 84.675781 214.421875 82.070312 215.335938 Z M 90.433594 219.445312 C 83.9375 219.445312 79.175781 216.0625 79.109375 216.011719 C 78.867188 215.839844 78.746094 215.546875 78.789062 215.253906 C 78.832031 214.964844 79.03125 214.71875 79.3125 214.621094 L 81.542969 213.839844 C 83.539062 213.136719 84.898438 211.316406 85.003906 209.203125 L 85.304688 203.273438 C 84.527344 202.84375 83.898438 202.128906 83.535156 201.230469 C 82.753906 199.3125 83.46875 197.207031 85.125 196.53125 C 85.40625 196.417969 85.703125 196.351562 86.011719 196.332031 C 86.398438 196.121094 86.722656 195.96875 86.964844 195.851562 C 87.101562 195.789062 87.25 195.71875 87.351562 195.664062 C 87.292969 195.417969 87.113281 194.9375 86.921875 194.4375 C 86.769531 194.023438 86.582031 193.523438 86.363281 192.914062 C 86.222656 192.519531 86.25 192.128906 86.441406 191.785156 C 86.882812 190.980469 88.03125 190.722656 89.355469 190.421875 C 89.980469 190.28125 91.121094 190.019531 91.367188 189.773438 C 91.632812 187.175781 92.886719 185.550781 94.734375 185.417969 C 97.0625 185.253906 99.269531 187.523438 100.101562 190.933594 C 100.457031 192.398438 101.636719 194.472656 102.679688 195.46875 C 103.117188 195.886719 103.363281 196.472656 103.355469 197.078125 C 103.347656 197.679688 103.085938 198.261719 102.640625 198.664062 L 101.644531 199.570312 C 101.875 204.320312 100.277344 207.441406 97.230469 208.164062 C 96.78125 208.269531 96.304688 208.320312 95.808594 208.3125 L 95.789062 208.753906 C 95.746094 211.085938 97.066406 213.289062 99.15625 214.359375 L 100.507812 215.046875 C 100.761719 215.179688 100.925781 215.433594 100.941406 215.71875 C 100.953125 216.003906 100.8125 216.273438 100.570312 216.425781 C 97.011719 218.679688 93.527344 219.445312 90.433594 219.445312 " fill-opacity="1" fill-rule="nonzero"/><path fill="#000000" d="M 95.046875 208.25 C 94.996094 208.25 94.941406 208.246094 94.886719 208.234375 C 90.574219 207.347656 88.785156 203.917969 88.710938 203.773438 C 88.511719 203.382812 88.664062 202.90625 89.058594 202.707031 C 89.445312 202.507812 89.925781 202.660156 90.125 203.050781 C 90.191406 203.175781 91.671875 205.953125 95.207031 206.675781 C 95.636719 206.765625 95.914062 207.1875 95.824219 207.617188 C 95.746094 207.992188 95.417969 208.25 95.046875 208.25 " fill-opacity="1" fill-rule="nonzero"/></svg>