<svg xmlns="http://www.w3.org/2000/svg" xmlns:xlink="http://www.w3.org/1999/xlink" width="628" zoomAndPan="magnify" viewBox="0 0 470.87997 470.999988" height="628" preserveAspectRatio="xMidYMid meet" version="1.0"><path fill="#e7f0ff" d="M 375.238281 136.238281 C 363.441406 92.15625 404.921875 65.289062 393.058594 43.28125 C 373.183594 6.410156 218.773438 11.25 120.507812 99.609375 C 105.109375 113.453125 0.0078125 211.246094 36.941406 317.972656 C 70.355469 414.527344 201.394531 464.578125 302.773438 430.144531 C 409.785156 393.792969 470.894531 267.683594 441.726562 209.898438 C 425.488281 177.722656 385.820312 175.773438 375.238281 136.238281 " fill-opacity="1" fill-rule="nonzero"/><path fill="#ffffff" d="M 381.984375 404.875 C 359.832031 410.9375 336.960938 397.898438 330.898438 375.75 C 324.832031 353.601562 337.871094 330.730469 360.019531 324.664062 C 382.167969 318.601562 405.039062 331.640625 411.105469 353.789062 C 417.167969 375.9375 404.128906 398.808594 381.984375 404.875 Z M 433.507812 347.65625 L 433.507812 347.652344 C 432.539062 344.125 429.253906 341.730469 425.59375 341.898438 L 418.183594 342.234375 C 416.914062 339.574219 415.445312 337.050781 413.789062 334.691406 L 417.710938 328.414062 C 419.648438 325.304688 419.179688 321.269531 416.574219 318.695312 C 413.972656 316.117188 409.929688 315.691406 406.84375 317.664062 L 400.59375 321.664062 C 398.191406 320.019531 395.660156 318.574219 393.015625 317.347656 L 393.273438 309.929688 C 393.398438 306.269531 390.972656 303.007812 387.433594 302.082031 C 383.886719 301.152344 380.175781 302.804688 378.492188 306.054688 L 375.082031 312.625 C 372.207031 312.398438 369.289062 312.421875 366.355469 312.6875 L 362.871094 306.140625 C 361.148438 302.90625 357.417969 301.296875 353.882812 302.265625 C 350.351562 303.234375 347.964844 306.515625 348.128906 310.175781 L 348.464844 317.585938 C 345.804688 318.855469 343.28125 320.320312 340.921875 321.976562 L 334.644531 318.058594 C 331.539062 316.121094 327.5 316.589844 324.925781 319.195312 C 322.351562 321.800781 321.921875 325.84375 323.898438 328.925781 L 327.894531 335.179688 C 326.25 337.578125 324.804688 340.113281 323.578125 342.75 L 316.160156 342.496094 C 312.5 342.367188 309.242188 344.796875 308.3125 348.339844 C 307.382812 351.882812 309.03125 355.59375 312.285156 357.28125 L 318.855469 360.6875 C 318.632812 363.5625 318.65625 366.480469 318.917969 369.414062 L 312.367188 372.898438 C 309.136719 374.621094 307.527344 378.351562 308.496094 381.886719 C 309.464844 385.417969 312.746094 387.808594 316.40625 387.640625 L 323.816406 387.304688 C 325.085938 389.964844 326.550781 392.488281 328.207031 394.847656 L 324.292969 401.128906 C 322.351562 404.234375 322.824219 408.269531 325.425781 410.84375 C 328.03125 413.421875 332.070312 413.847656 335.15625 411.875 L 341.410156 407.875 C 343.808594 409.523438 346.34375 410.964844 348.980469 412.195312 L 348.726562 419.609375 C 348.597656 423.269531 351.027344 426.53125 354.570312 427.460938 C 358.109375 428.386719 361.824219 426.734375 363.511719 423.484375 L 366.917969 416.914062 C 369.792969 417.140625 372.710938 417.117188 375.644531 416.851562 L 379.132812 423.402344 C 380.851562 426.632812 384.582031 428.242188 388.113281 427.277344 C 391.648438 426.308594 394.039062 423.023438 393.875 419.363281 L 393.535156 411.953125 C 396.195312 410.683594 398.71875 409.21875 401.078125 407.5625 L 407.355469 411.480469 C 410.460938 413.421875 414.5 412.949219 417.078125 410.34375 C 419.648438 407.738281 420.078125 403.699219 418.105469 400.613281 L 414.105469 394.359375 C 415.753906 391.960938 417.199219 389.429688 418.421875 386.789062 L 425.84375 387.042969 C 429.503906 387.171875 432.757812 384.742188 433.691406 381.199219 C 434.617188 377.65625 432.96875 373.945312 429.71875 372.257812 L 423.144531 368.851562 C 423.371094 365.980469 423.347656 363.058594 423.082031 360.125 L 429.628906 356.640625 C 432.863281 354.917969 434.472656 351.1875 433.507812 347.65625 " fill-opacity="1" fill-rule="nonzero"/><path fill="#ffffff" d="M 186.046875 94.507812 C 173.488281 97.945312 160.519531 90.550781 157.078125 77.992188 C 153.640625 65.433594 161.035156 52.464844 173.59375 49.023438 C 186.152344 45.585938 199.121094 52.976562 202.5625 65.539062 C 206 78.097656 198.605469 91.070312 186.046875 94.507812 Z M 215.265625 62.058594 C 214.714844 60.058594 212.855469 58.703125 210.78125 58.796875 L 206.574219 58.988281 C 205.855469 57.476562 205.023438 56.046875 204.085938 54.710938 L 206.308594 51.148438 C 207.40625 49.386719 207.140625 47.097656 205.664062 45.636719 C 204.1875 44.175781 201.898438 43.9375 200.148438 45.054688 L 196.601562 47.324219 C 195.238281 46.390625 193.800781 45.570312 192.308594 44.875 L 192.453125 40.667969 C 192.523438 38.589844 191.148438 36.746094 189.140625 36.214844 L 189.136719 36.214844 C 187.128906 35.691406 185.023438 36.625 184.066406 38.46875 L 182.136719 42.199219 C 180.507812 42.070312 178.851562 42.082031 177.1875 42.234375 L 175.210938 38.519531 C 174.234375 36.6875 172.121094 35.773438 170.117188 36.320312 C 168.113281 36.871094 166.757812 38.734375 166.851562 40.808594 L 167.042969 45.011719 C 165.535156 45.730469 164.101562 46.5625 162.765625 47.5 L 159.207031 45.277344 C 157.441406 44.179688 155.15625 44.445312 153.695312 45.921875 C 152.234375 47.402344 151.992188 49.6875 153.109375 51.441406 L 155.378906 54.988281 C 154.445312 56.347656 153.625 57.78125 152.929688 59.28125 L 148.722656 59.132812 C 146.648438 59.0625 144.800781 60.441406 144.273438 62.449219 C 143.746094 64.457031 144.683594 66.5625 146.527344 67.519531 L 150.253906 69.449219 C 150.125 71.082031 150.136719 72.734375 150.289062 74.398438 L 146.574219 76.375 C 144.742188 77.351562 143.828125 79.46875 144.378906 81.46875 C 144.925781 83.472656 146.789062 84.828125 148.863281 84.734375 L 153.066406 84.542969 C 153.785156 86.050781 154.617188 87.484375 155.558594 88.820312 L 153.332031 92.378906 C 152.234375 94.144531 152.5 96.433594 153.980469 97.890625 C 155.453125 99.351562 157.746094 99.597656 159.496094 98.476562 L 163.039062 96.210938 C 164.402344 97.140625 165.839844 97.960938 167.335938 98.660156 L 167.191406 102.863281 C 167.117188 104.9375 168.496094 106.789062 170.503906 107.3125 C 172.511719 107.84375 174.617188 106.90625 175.574219 105.058594 L 177.503906 101.335938 C 179.136719 101.464844 180.792969 101.449219 182.457031 101.300781 L 184.429688 105.011719 C 185.40625 106.84375 187.523438 107.757812 189.523438 107.210938 C 191.527344 106.660156 192.886719 104.800781 192.792969 102.726562 L 192.597656 98.523438 C 194.109375 97.804688 195.539062 96.972656 196.875 96.03125 L 200.4375 98.253906 C 202.199219 99.351562 204.488281 99.085938 205.949219 97.609375 C 207.40625 96.132812 207.652344 93.839844 206.53125 92.09375 L 204.265625 88.546875 C 205.199219 87.183594 206.019531 85.75 206.710938 84.25 L 210.917969 84.398438 C 212.992188 84.46875 214.84375 83.09375 215.367188 81.082031 C 215.894531 79.074219 214.960938 76.96875 213.113281 76.015625 L 209.390625 74.082031 C 209.519531 72.453125 209.503906 70.796875 209.351562 69.128906 L 213.066406 67.152344 C 214.898438 66.179688 215.8125 64.0625 215.265625 62.058594 " fill-opacity="1" fill-rule="nonzero"/><path fill="#6ce5e8" d="M 388.28125 290.851562 L 311.699219 221.246094 L 430.308594 171.832031 L 388.28125 290.851562 " fill-opacity="1" fill-rule="nonzero"/><path fill="#6ce5e8" d="M 372.152344 232.367188 C 363.113281 223.710938 348.597656 223.84375 339.730469 232.667969 L 245.746094 326.179688 L 179.058594 327.078125 C 173.011719 327.160156 167.242188 329.570312 163.007812 333.785156 L 100.5 395.980469 C 99.851562 396.621094 99.257812 397.296875 98.707031 397.992188 C 111.234375 407.042969 124.964844 414.785156 139.488281 421.109375 L 189.132812 371.714844 L 255.820312 370.816406 C 261.867188 370.734375 267.636719 368.324219 271.871094 364.109375 L 372.464844 264.023438 C 381.332031 255.195312 381.195312 241.023438 372.152344 232.367188 " fill-opacity="1" fill-rule="nonzero"/><path fill="#ffffff" d="M 34.640625 192.488281 L 277.164062 100.132812 L 105.609375 327.847656 C 105.609375 327.847656 31.933594 307.625 48.140625 263.796875 C 64.351562 219.972656 63.273438 216.46875 51.558594 216.554688 C 39.988281 216.640625 33.429688 210.808594 30.066406 204.320312 C 27.734375 199.820312 29.90625 194.289062 34.640625 192.488281 " fill-opacity="1" fill-rule="nonzero"/><path fill="#000000" d="M 86.558594 173.476562 C 86.253906 173.476562 85.964844 173.289062 85.847656 172.988281 C 85.699219 172.597656 85.898438 172.15625 86.289062 172.007812 L 153.160156 146.542969 C 153.550781 146.394531 153.988281 146.59375 154.136719 146.984375 C 154.289062 147.375 154.089844 147.8125 153.699219 147.964844 L 86.828125 173.429688 C 86.738281 173.460938 86.648438 173.476562 86.558594 173.476562 " fill-opacity="1" fill-rule="nonzero"/><path fill="#000000" d="M 42.484375 190.261719 C 42.175781 190.261719 41.890625 190.074219 41.773438 189.773438 C 41.625 189.378906 41.820312 188.941406 42.210938 188.792969 L 54.210938 184.222656 C 54.605469 184.074219 55.042969 184.273438 55.191406 184.664062 C 55.339844 185.054688 55.144531 185.492188 54.753906 185.640625 L 42.753906 190.210938 C 42.664062 190.246094 42.574219 190.261719 42.484375 190.261719 " fill-opacity="1" fill-rule="nonzero"/><path fill="#000000" d="M 42.484375 215.945312 C 42.402344 215.945312 42.320312 215.933594 42.238281 215.90625 C 36.65625 214.003906 32.214844 210.121094 29.394531 204.671875 C 28.191406 202.355469 28.042969 199.621094 28.976562 197.171875 C 29.925781 194.6875 31.890625 192.726562 34.371094 191.777344 L 42.210938 188.792969 C 42.605469 188.640625 43.042969 188.839844 43.191406 189.234375 C 43.339844 189.625 43.144531 190.0625 42.753906 190.210938 L 34.910156 193.199219 C 32.832031 193.988281 31.1875 195.636719 30.394531 197.710938 C 29.613281 199.757812 29.738281 202.042969 30.742188 203.972656 C 32.578125 207.523438 36.152344 212.230469 42.726562 214.46875 C 43.125 214.605469 43.335938 215.039062 43.203125 215.433594 C 43.09375 215.75 42.796875 215.945312 42.484375 215.945312 " fill-opacity="1" fill-rule="nonzero"/><path fill="#000000" d="M 48.140625 264.554688 C 48.054688 264.554688 47.964844 264.542969 47.878906 264.511719 C 47.484375 264.363281 47.285156 263.925781 47.429688 263.535156 C 57.335938 236.742188 61.550781 223.28125 58.707031 219.226562 C 57.5625 217.597656 55.128906 217.285156 51.566406 217.3125 C 51.148438 217.3125 50.804688 216.980469 50.800781 216.5625 C 50.796875 216.140625 51.136719 215.800781 51.554688 215.796875 C 55.601562 215.761719 58.425781 216.183594 59.949219 218.355469 C 62.933594 222.609375 60.550781 232.433594 48.851562 264.0625 C 48.738281 264.367188 48.449219 264.554688 48.140625 264.554688 " fill-opacity="1" fill-rule="nonzero"/><path fill="#000000" d="M 75.707031 201.984375 C 75.425781 201.984375 75.152344 201.824219 75.023438 201.550781 C 74.839844 201.175781 75 200.722656 75.378906 200.542969 L 146.152344 166.683594 C 146.53125 166.503906 146.984375 166.664062 147.164062 167.039062 C 147.347656 167.417969 147.1875 167.871094 146.808594 168.054688 L 76.035156 201.910156 C 75.929688 201.960938 75.816406 201.984375 75.707031 201.984375 " fill-opacity="1" fill-rule="nonzero"/><path fill="#000000" d="M 255.460938 192.636719 C 255.839844 192.792969 256.167969 193.039062 256.4375 193.355469 C 261.828125 199.714844 268.71875 209.324219 274.035156 222.277344 C 280.375 237.71875 281.894531 251.625 282.113281 260.933594 C 282.140625 262.09375 281.246094 262.808594 280.320312 263.507812 C 267.308594 273.285156 242.121094 283.230469 222.082031 290.019531 C 202.152344 296.765625 180.34375 297.363281 160.414062 304.113281 C 159.105469 304.558594 157.671875 303.914062 157.128906 302.640625 C 155.191406 298.074219 153.253906 293.507812 151.316406 288.945312 C 150.898438 287.960938 151.113281 286.828125 151.859375 286.0625 C 160.929688 276.742188 178.789062 261.292969 205.605469 254.21875 C 214.894531 251.769531 223.464844 250.800781 230.832031 250.578125 C 233.066406 250.507812 234.207031 247.863281 232.722656 246.183594 L 216.523438 227.8125 C 215.589844 226.75 215.667969 225.140625 216.703125 224.175781 C 216.707031 224.167969 216.71875 224.160156 216.726562 224.152344 C 234.898438 207.109375 237.585938 193.117188 247.917969 191.558594 C 249.582031 191.304688 252.125 191.273438 255.460938 192.636719 " fill-opacity="1" fill-rule="nonzero"/><path fill="#ffffff" d="M 97.777344 353.898438 L 79.292969 381.589844 L 71.222656 368.609375 L 87.601562 341.464844 L 97.777344 353.898438 " fill-opacity="1" fill-rule="nonzero"/><path fill="#000000" d="M 72.113281 368.605469 L 79.3125 380.191406 L 96.832031 353.945312 L 87.695312 342.773438 Z M 79.292969 382.351562 C 79.285156 382.351562 79.28125 382.351562 79.277344 382.347656 C 79.019531 382.347656 78.78125 382.210938 78.644531 381.992188 L 70.578125 369.011719 C 70.429688 368.769531 70.425781 368.464844 70.574219 368.21875 L 86.953125 341.070312 C 87.078125 340.859375 87.300781 340.722656 87.546875 340.703125 C 87.792969 340.6875 88.03125 340.789062 88.1875 340.980469 L 98.363281 353.417969 C 98.574219 353.675781 98.59375 354.042969 98.40625 354.320312 L 79.921875 382.015625 C 79.78125 382.222656 79.542969 382.351562 79.292969 382.351562 " fill-opacity="1" fill-rule="nonzero"/><path fill="#000000" d="M 85.304688 377.589844 C 80.335938 386.246094 67.824219 407.210938 56.5 416.886719 C 53.738281 419.246094 49.449219 417.761719 48.769531 414.195312 C 46.324219 401.421875 45.933594 375.132812 59.722656 355.390625 C 59.722656 355.390625 65.648438 355.113281 76.492188 357.941406 L 73.332031 368.070312 L 74.75 367.199219 C 76.878906 365.890625 79.628906 366.203125 81.410156 367.957031 L 84.386719 370.890625 C 86.179688 372.65625 86.554688 375.40625 85.304688 377.589844 " fill-opacity="1" fill-rule="nonzero"/><path fill="#ffffff" d="M 55.027344 413.78125 C 54.699219 413.78125 54.398438 413.570312 54.300781 413.242188 C 46.453125 387.171875 61.457031 358.265625 61.609375 357.976562 C 61.804688 357.605469 62.265625 357.464844 62.632812 357.660156 C 63.003906 357.855469 63.148438 358.3125 62.949219 358.683594 C 62.800781 358.964844 48.089844 387.335938 55.753906 412.800781 C 55.875 413.203125 55.644531 413.625 55.246094 413.75 C 55.171875 413.769531 55.097656 413.78125 55.027344 413.78125 " fill-opacity="1" fill-rule="nonzero"/><path fill="#ffffff" d="M 78.042969 390.394531 C 77.882812 390.394531 77.722656 390.34375 77.585938 390.242188 L 69.71875 384.324219 C 69.382812 384.070312 69.316406 383.597656 69.566406 383.261719 C 69.820312 382.925781 70.292969 382.859375 70.628906 383.113281 L 78.496094 389.027344 C 78.832031 389.28125 78.898438 389.757812 78.648438 390.09375 C 78.5 390.289062 78.269531 390.394531 78.042969 390.394531 " fill-opacity="1" fill-rule="nonzero"/><path fill="#ffffff" d="M 73.414062 397.425781 C 73.234375 397.425781 73.054688 397.363281 72.910156 397.234375 L 65.761719 390.914062 C 65.445312 390.636719 65.417969 390.15625 65.695312 389.84375 C 65.972656 389.527344 66.453125 389.5 66.765625 389.773438 L 73.914062 396.097656 C 74.230469 396.378906 74.257812 396.855469 73.980469 397.167969 C 73.832031 397.339844 73.621094 397.425781 73.414062 397.425781 " fill-opacity="1" fill-rule="nonzero"/><path fill="#000000" d="M 82.660156 344.972656 L 98.363281 359.082031 L 263.058594 197.441406 C 263.058594 197.441406 228.421875 169.105469 191.554688 189.609375 C 191.554688 189.609375 158.019531 219.777344 148.238281 248.667969 C 138.460938 277.558594 122.015625 272.210938 109.574219 292.234375 C 97.132812 312.261719 82.660156 344.972656 82.660156 344.972656 " fill-opacity="1" fill-rule="nonzero"/><path fill="#e7f0ff" d="M 192.523438 267.429688 C 192.324219 267.429688 192.132812 267.351562 191.980469 267.203125 C 191.6875 266.902344 191.691406 266.421875 191.992188 266.128906 L 237.453125 221.511719 C 237.75 221.21875 238.230469 221.222656 238.523438 221.523438 C 238.816406 221.824219 238.8125 222.304688 238.511719 222.597656 L 193.054688 267.210938 C 192.90625 267.355469 192.714844 267.429688 192.523438 267.429688 " fill-opacity="1" fill-rule="nonzero"/><path fill="#e7f0ff" d="M 174.867188 284.761719 C 174.667969 284.761719 174.472656 284.683594 174.324219 284.53125 C 174.03125 284.230469 174.035156 283.75 174.332031 283.457031 L 181.832031 276.097656 C 182.132812 275.804688 182.613281 275.808594 182.90625 276.105469 C 183.199219 276.410156 183.195312 276.886719 182.894531 277.183594 L 175.398438 284.542969 C 175.25 284.6875 175.058594 284.761719 174.867188 284.761719 " fill-opacity="1" fill-rule="nonzero"/><path fill="#e7f0ff" d="M 98.363281 359.84375 C 98.164062 359.84375 97.96875 359.765625 97.820312 359.617188 C 97.527344 359.316406 97.53125 358.835938 97.832031 358.542969 L 170.164062 287.554688 C 170.460938 287.257812 170.941406 287.261719 171.234375 287.5625 C 171.527344 287.863281 171.523438 288.34375 171.226562 288.636719 L 98.894531 359.625 C 98.746094 359.769531 98.554688 359.84375 98.363281 359.84375 " fill-opacity="1" fill-rule="nonzero"/><path fill="#ffffff" d="M 408.011719 61.851562 C 408.011719 61.851562 413.605469 54.902344 420.511719 51.132812 C 427.421875 47.363281 444.960938 39.359375 444.960938 39.359375 C 444.960938 39.359375 447.074219 42.585938 444.816406 45.121094 C 442.554688 47.65625 429.777344 57.476562 429.191406 58.410156 C 428.613281 59.34375 423.421875 64.71875 417.078125 65.65625 C 410.730469 66.597656 406.488281 72.53125 406.488281 72.53125 L 408.011719 61.851562 " fill-opacity="1" fill-rule="nonzero"/><path fill="#000000" d="M 408.730469 62.171875 L 407.601562 70.085938 C 409.472656 68.183594 412.757812 65.53125 416.964844 64.910156 C 423.246094 63.980469 428.183594 58.589844 428.546875 58.011719 C 428.84375 57.53125 430.5 56.164062 434.796875 52.671875 C 438.472656 49.6875 443.039062 45.972656 444.246094 44.621094 C 445.59375 43.109375 445.042969 41.269531 444.628906 40.347656 C 441.390625 41.832031 426.929688 48.496094 420.875 51.800781 C 414.753906 55.140625 409.601562 61.128906 408.730469 62.171875 Z M 405.296875 75.5 L 407.285156 61.539062 L 407.417969 61.378906 C 407.652344 61.089844 413.183594 54.265625 420.148438 50.46875 C 427 46.730469 444.46875 38.753906 444.644531 38.675781 L 445.234375 38.402344 L 445.59375 38.949219 C 446.433594 40.230469 447.46875 43.28125 445.378906 45.628906 C 444.09375 47.074219 439.664062 50.675781 435.753906 53.847656 C 433.128906 55.984375 430.148438 58.402344 429.820312 58.835938 C 429.035156 60.097656 423.632812 65.453125 417.1875 66.410156 C 411.230469 67.292969 407.144531 72.921875 407.105469 72.976562 L 405.296875 75.5 " fill-opacity="1" fill-rule="nonzero"/><path fill="#000000" d="M 423.195312 57.527344 C 422.878906 57.527344 422.582031 57.328125 422.476562 57.011719 C 422.34375 56.613281 422.558594 56.183594 422.953125 56.050781 C 425.980469 55.023438 426.902344 53.902344 427.878906 52.714844 C 428.601562 51.835938 429.351562 50.925781 430.867188 50.066406 C 431.929688 49.464844 432.582031 48.929688 432.992188 48.488281 L 419.921875 52.601562 C 419.523438 52.726562 419.09375 52.503906 418.96875 52.105469 C 418.847656 51.703125 419.066406 51.28125 419.464844 51.152344 L 434.179688 46.527344 C 434.386719 46.460938 434.613281 46.488281 434.800781 46.601562 C 434.988281 46.714844 435.117188 46.902344 435.15625 47.121094 C 435.214844 47.464844 435.324219 49.289062 431.613281 51.386719 C 430.339844 52.105469 429.714844 52.871094 429.050781 53.679688 C 427.984375 54.980469 426.882812 56.324219 423.4375 57.488281 C 423.355469 57.515625 423.277344 57.527344 423.195312 57.527344 " fill-opacity="1" fill-rule="nonzero"/><path fill="#f96f5f" d="M 271.128906 208.953125 C 271.128906 208.953125 272.226562 198.039062 286.191406 189.210938 C 303.457031 178.296875 321.65625 167.425781 328.347656 145.453125 C 328.347656 145.453125 341.730469 140.671875 369.5 119.097656 C 397.269531 97.53125 399.753906 90.351562 413.53125 77.761719 L 409.320312 58.828125 C 409.320312 58.828125 337.300781 101.609375 328.0625 104.375 C 318.828125 107.140625 295.449219 107.441406 271.238281 95.425781 C 260.941406 90.316406 232.15625 119.179688 232.15625 119.179688 C 232.15625 119.179688 234.40625 138.664062 229.078125 144.808594 C 223.753906 150.953125 188.738281 175.339844 189.152344 184.710938 C 189.566406 194.082031 217.414062 223.007812 271.128906 208.953125 " fill-opacity="1" fill-rule="nonzero"/><path fill="#f96f5f" d="M 142.808594 193.660156 L 137.820312 192.640625 C 136.472656 192.363281 135.15625 193.230469 134.878906 194.578125 L 144.75 196.601562 C 145.027344 195.253906 144.160156 193.9375 142.808594 193.660156 " fill-opacity="1" fill-rule="nonzero"/><path fill="#f96f5f" d="M 182.796875 201.859375 L 177.808594 200.839844 C 176.457031 200.558594 175.140625 201.429688 174.867188 202.777344 L 184.738281 204.800781 C 185.011719 203.453125 184.144531 202.136719 182.796875 201.859375 " fill-opacity="1" fill-rule="nonzero"/><path fill="#000000" d="M 181.519531 201.460938 L 183.304688 196.851562 C 184.570312 193.582031 182.847656 190.367188 179.460938 189.671875 L 149.542969 183.539062 C 146.15625 182.84375 142.386719 184.933594 141.121094 188.203125 L 139.339844 192.8125 L 141.628906 193.28125 L 143.015625 189.691406 C 144 187.148438 146.933594 185.523438 149.570312 186.0625 L 177.628906 191.816406 C 180.265625 192.355469 181.601562 194.859375 180.617188 197.402344 L 179.230469 200.992188 L 181.519531 201.460938 " fill-opacity="1" fill-rule="nonzero"/><path fill="#6ce5e8" d="M 178.378906 187.390625 L 152.101562 182.003906 C 151.042969 181.785156 149.863281 182.4375 149.46875 183.460938 L 148.609375 185.679688 C 148.214844 186.699219 148.753906 187.707031 149.8125 187.921875 L 176.089844 193.308594 C 177.148438 193.527344 178.328125 192.875 178.726562 191.851562 L 179.582031 189.636719 C 179.976562 188.613281 179.4375 187.609375 178.378906 187.390625 " fill-opacity="1" fill-rule="nonzero"/><path fill="#6ce5e8" d="M 174.285156 279.496094 L 97.445312 263.738281 C 92.832031 262.796875 90.25 257.855469 92.105469 253.527344 L 115.382812 199.25 C 117.339844 194.683594 122.234375 192.121094 127.101562 193.121094 L 193.011719 206.636719 L 174.285156 279.496094 " fill-opacity="1" fill-rule="nonzero"/><path fill="#f96f5f" d="M 184.121094 281.515625 L 169.210938 278.457031 C 164.597656 277.511719 162.015625 272.570312 163.871094 268.242188 L 189.511719 208.457031 C 190.09375 207.097656 191.550781 206.335938 193 206.632812 L 196.835938 207.417969 C 198.425781 207.746094 199.496094 209.234375 199.300781 210.847656 L 191.351562 276.308594 C 190.925781 279.824219 187.589844 282.222656 184.121094 281.515625 " fill-opacity="1" fill-rule="nonzero"/><path fill="#000000" d="M 184.273438 280.769531 C 185.742188 281.070312 187.21875 280.753906 188.433594 279.882812 C 189.648438 279.007812 190.417969 277.707031 190.597656 276.21875 L 198.546875 210.757812 C 198.695312 209.546875 197.875 208.40625 196.679688 208.164062 L 192.847656 207.375 C 191.753906 207.152344 190.648438 207.734375 190.207031 208.753906 L 164.570312 268.542969 C 163.773438 270.390625 163.855469 272.480469 164.789062 274.265625 C 165.722656 276.050781 167.390625 277.308594 169.363281 277.714844 Z M 185.335938 282.394531 C 184.878906 282.394531 184.421875 282.351562 183.972656 282.257812 L 169.058594 279.199219 C 166.636719 278.703125 164.589844 277.160156 163.441406 274.96875 C 162.296875 272.777344 162.199219 270.214844 163.171875 267.945312 L 188.8125 208.15625 C 189.53125 206.472656 191.359375 205.519531 193.152344 205.890625 L 196.984375 206.671875 C 198.949219 207.078125 200.296875 208.949219 200.054688 210.9375 L 192.105469 276.402344 C 191.875 278.289062 190.863281 280.003906 189.320312 281.113281 C 188.152344 281.953125 186.753906 282.394531 185.335938 282.394531 " fill-opacity="1" fill-rule="nonzero"/><path fill="#000000" d="M 172.242188 233.53125 C 171.925781 233.53125 171.605469 233.5 171.289062 233.433594 L 111.125 221.097656 C 110.714844 221.011719 110.449219 220.613281 110.53125 220.199219 C 110.617188 219.792969 111.015625 219.527344 111.429688 219.609375 L 171.589844 231.945312 C 173.039062 232.242188 174.480469 231.515625 175.101562 230.175781 L 184.996094 208.878906 C 185.171875 208.496094 185.625 208.332031 186.003906 208.507812 C 186.382812 208.683594 186.550781 209.136719 186.371094 209.515625 L 176.480469 230.816406 C 175.695312 232.5 174.035156 233.53125 172.242188 233.53125 " fill-opacity="1" fill-rule="nonzero"/><path fill="#ffffff" d="M 149.585938 228.730469 L 146.507812 235.183594 C 146 236.273438 144.808594 236.878906 143.625 236.636719 L 131.707031 234.191406 C 130.410156 233.925781 129.726562 232.496094 130.328125 231.320312 L 133.359375 225.402344 L 149.585938 228.730469 " fill-opacity="1" fill-rule="nonzero"/><path fill="#000000" d="M 133.773438 226.261719 L 131.003906 231.664062 C 130.824219 232.011719 130.820312 232.417969 130.988281 232.769531 C 131.160156 233.121094 131.476562 233.371094 131.859375 233.449219 L 143.777344 235.890625 C 144.617188 236.0625 145.457031 235.640625 145.820312 234.863281 L 148.484375 229.277344 Z M 144.15625 237.449219 C 143.929688 237.449219 143.703125 237.425781 143.472656 237.378906 L 131.554688 234.9375 C 130.703125 234.761719 130 234.210938 129.621094 233.425781 C 129.246094 232.640625 129.257812 231.746094 129.652344 230.972656 L 132.683594 225.058594 C 132.839844 224.753906 133.179688 224.589844 133.511719 224.660156 L 149.738281 227.984375 C 149.96875 228.035156 150.164062 228.183594 150.265625 228.390625 C 150.371094 228.601562 150.371094 228.84375 150.273438 229.054688 L 147.195312 235.507812 C 146.636719 236.710938 145.441406 237.449219 144.15625 237.449219 " fill-opacity="1" fill-rule="nonzero"/><path fill="#000000" d="M 159.492188 271.289062 C 159.441406 271.289062 159.390625 271.285156 159.339844 271.273438 L 95.425781 258.171875 C 95.015625 258.085938 94.75 257.683594 94.835938 257.273438 C 94.917969 256.863281 95.316406 256.597656 95.730469 256.679688 L 159.644531 269.789062 C 160.054688 269.871094 160.320312 270.273438 160.234375 270.683594 C 160.164062 271.042969 159.847656 271.289062 159.492188 271.289062 " fill-opacity="1" fill-rule="nonzero"/><path fill="#ffffff" d="M 165.152344 165.730469 L 155.734375 177.335938 C 155.734375 177.335938 153.257812 185.265625 153.867188 188.457031 C 154.476562 191.648438 163.1875 194.988281 169.574219 191.972656 C 169.574219 191.972656 166.136719 187.433594 167.21875 185.105469 L 173.320312 183.40625 L 170.871094 174.257812 L 173.320312 168.371094 L 165.152344 165.730469 " fill-opacity="1" fill-rule="nonzero"/><path fill="#000000" d="M 156.414062 177.699219 C 155.71875 179.96875 154.152344 185.902344 154.613281 188.3125 C 154.769531 189.136719 155.777344 190.09375 157.304688 190.871094 C 160.167969 192.324219 164.597656 193.0625 168.410156 191.640625 C 167.402344 190.125 165.550781 186.890625 166.53125 184.78125 L 166.675781 184.464844 L 172.394531 182.875 L 170.070312 174.207031 L 172.304688 168.839844 L 165.414062 166.613281 Z M 163.96875 193.914062 C 161.226562 193.914062 158.585938 193.222656 156.617188 192.222656 C 154.617188 191.203125 153.375 189.917969 153.121094 188.597656 C 152.484375 185.257812 154.90625 177.441406 155.007812 177.109375 L 155.050781 176.96875 L 164.890625 164.847656 L 174.339844 167.902344 L 171.667969 174.3125 L 174.25 183.9375 L 167.804688 185.726562 C 167.484375 187.226562 169.039062 190.011719 170.175781 191.515625 L 170.742188 192.261719 L 169.898438 192.660156 C 168.019531 193.546875 165.96875 193.914062 163.96875 193.914062 " fill-opacity="1" fill-rule="nonzero"/><path fill="#f96f5f" d="M 277.164062 100.136719 C 277.164062 100.136719 274.761719 93.546875 253.484375 91.128906 C 232.210938 88.707031 218.660156 103.234375 213.253906 106.273438 C 207.84375 109.316406 185.292969 117.515625 176.683594 130.453125 C 168.074219 143.386719 156.855469 167.140625 156.855469 167.140625 L 176.636719 171.917969 C 176.636719 171.917969 197.105469 145.320312 221.113281 136.214844 C 245.117188 127.109375 277.15625 118.355469 277.164062 100.136719 " fill-opacity="1" fill-rule="nonzero"/><path fill="#000000" d="M 232.53125 131.273438 C 232.691406 131.273438 232.851562 131.324219 232.984375 131.421875 C 233.1875 131.574219 233.304688 131.816406 233.289062 132.070312 C 232.949219 138.460938 231.726562 142.914062 229.652344 145.304688 C 228.007812 147.203125 223.796875 150.636719 218.464844 154.988281 C 206.984375 164.351562 189.636719 178.503906 189.910156 184.675781 C 190.046875 187.828125 193.722656 193.8125 201.464844 199.523438 C 209.515625 205.460938 232.316406 218.164062 270.453125 208.34375 C 270.863281 205.988281 273.257812 196.492188 285.789062 188.566406 L 287.511719 187.480469 C 304.089844 177.015625 321.234375 166.203125 327.621094 145.230469 C 327.691406 145.003906 327.863281 144.820312 328.09375 144.738281 C 328.226562 144.691406 341.726562 139.710938 369.035156 118.5 C 387.199219 104.390625 394.355469 96.632812 401.273438 89.128906 C 404.78125 85.320312 408.097656 81.722656 412.695312 77.496094 L 408.8125 60.015625 C 400.097656 65.183594 337.046875 102.476562 328.285156 105.101562 C 318.4375 108.046875 295.035156 108.082031 270.902344 96.101562 C 270.75 96.027344 270.582031 95.957031 270.367188 95.882812 C 270.351562 95.878906 270.328125 95.871094 270.3125 95.859375 C 266.125 94.019531 260.433594 92.679688 253.398438 91.878906 C 236.488281 89.953125 224.71875 98.800781 217.6875 104.082031 C 216.019531 105.335938 214.703125 106.328125 213.625 106.933594 C 212.527344 107.550781 210.785156 108.355469 208.582031 109.371094 C 200.027344 113.324219 184.101562 120.671875 177.316406 130.871094 C 169.746094 142.242188 160.023438 162.277344 157.945312 166.617188 L 176.34375 171.0625 C 179 167.726562 198.503906 143.976562 220.84375 135.503906 C 224.0625 134.28125 227.351562 133.09375 230.832031 131.835938 L 232.273438 131.316406 C 232.359375 131.285156 232.445312 131.273438 232.53125 131.273438 Z M 243.375 213.496094 C 238.144531 213.496094 233.070312 213.058594 228.175781 212.175781 C 214.925781 209.785156 205.847656 204.640625 200.5625 200.746094 C 192.375 194.707031 188.550781 188.359375 188.394531 184.742188 C 188.085938 177.8125 205.089844 163.9375 217.503906 153.808594 C 222.574219 149.679688 226.949219 146.105469 228.503906 144.308594 C 230.207031 142.347656 231.304688 138.5 231.699219 133.136719 L 231.347656 133.265625 C 227.871094 134.519531 224.589844 135.703125 221.382812 136.921875 C 197.851562 145.847656 177.441406 172.113281 177.238281 172.378906 C 177.054688 172.617188 176.75 172.722656 176.457031 172.652344 L 156.679688 167.871094 C 156.457031 167.820312 156.273438 167.667969 156.171875 167.464844 C 156.074219 167.257812 156.074219 167.019531 156.171875 166.8125 C 156.285156 166.574219 167.511719 142.863281 176.050781 130.03125 C 183.074219 119.476562 199.257812 112.007812 207.949219 107.996094 C 210.121094 106.992188 211.839844 106.199219 212.882812 105.613281 C 213.871094 105.054688 215.152344 104.089844 216.773438 102.871094 C 223.511719 97.804688 236.054688 88.375 253.574219 90.371094 C 260.742188 91.1875 266.574219 92.5625 270.894531 94.464844 C 271.160156 94.554688 271.375 94.644531 271.578125 94.742188 C 295.316406 106.527344 318.238281 106.527344 327.847656 103.644531 C 336.890625 100.9375 408.21875 58.601562 408.9375 58.175781 C 409.144531 58.050781 409.402344 58.035156 409.625 58.132812 C 409.847656 58.226562 410.011719 58.425781 410.066406 58.664062 L 414.273438 77.597656 C 414.332031 77.859375 414.242188 78.136719 414.042969 78.320312 C 409.328125 82.632812 405.957031 86.285156 402.386719 90.15625 C 395.753906 97.355469 388.226562 105.511719 369.964844 119.699219 C 344.5625 139.429688 331.304688 145.109375 328.964844 146.03125 C 322.328125 167.304688 305.046875 178.210938 288.324219 188.761719 L 286.597656 189.851562 C 273.152344 198.355469 271.898438 208.921875 271.886719 209.027344 C 271.851562 209.34375 271.628906 209.609375 271.324219 209.683594 C 261.617188 212.226562 252.265625 213.496094 243.375 213.496094 " fill-opacity="1" fill-rule="nonzero"/><path fill="#000000" d="M 330.304688 141.273438 C 330.195312 141.273438 330.085938 141.25 329.980469 141.203125 C 329.601562 141.023438 329.441406 140.570312 329.617188 140.191406 C 334.765625 129.265625 343.085938 123.023438 343.4375 122.765625 C 343.777344 122.515625 344.25 122.585938 344.5 122.921875 C 344.75 123.261719 344.679688 123.738281 344.339844 123.984375 C 344.257812 124.046875 335.96875 130.273438 330.988281 140.839844 C 330.859375 141.113281 330.589844 141.273438 330.304688 141.273438 " fill-opacity="1" fill-rule="nonzero"/><path fill="#000000" d="M 239.367188 130.289062 C 239.054688 130.289062 238.761719 130.09375 238.652344 129.78125 C 238.511719 129.382812 238.722656 128.953125 239.117188 128.816406 C 239.265625 128.761719 254.15625 123.539062 260.554688 119.453125 C 260.902344 119.226562 261.375 119.328125 261.601562 119.683594 C 261.824219 120.035156 261.722656 120.503906 261.367188 120.730469 C 254.820312 124.914062 240.238281 130.03125 239.617188 130.246094 C 239.535156 130.277344 239.453125 130.289062 239.367188 130.289062 " fill-opacity="1" fill-rule="nonzero"/><path fill="#000000" d="M 304.90625 84.015625 L 300.664062 84.726562 C 300.664062 84.726562 295.921875 81.671875 292.882812 76.738281 C 289.847656 71.804688 283.28125 65.574219 295.609375 60.238281 C 307.941406 54.902344 310.464844 53.152344 312.925781 49.335938 C 315.390625 45.523438 321.222656 39.910156 326.941406 44.5625 C 332.65625 49.210938 328.507812 58.429688 328.507812 58.429688 C 328.507812 58.429688 332.855469 58.75 331.269531 62.460938 C 329.6875 66.175781 304.90625 84.015625 304.90625 84.015625 " fill-opacity="1" fill-rule="nonzero"/><path fill="#ffffff" d="M 329.136719 75.863281 C 329.25 75.683594 329.203125 75.449219 329.03125 75.324219 C 326.0625 73.152344 323.828125 70.113281 322.636719 66.625 C 321.554688 63.445312 320.777344 61.207031 320.777344 61.207031 C 316.441406 73.613281 299.433594 67.203125 300.363281 69.402344 C 301.292969 71.601562 299.054688 78.96875 299.054688 78.96875 C 291.980469 86.917969 285.582031 91.964844 274.40625 96.929688 C 292.523438 120.089844 304.613281 110.609375 304.613281 110.609375 L 312.152344 95.402344 C 319.777344 95.136719 329.851562 90.335938 329.339844 87.515625 C 329.160156 86.53125 328.335938 83.816406 327.261719 80.480469 C 327.03125 79.761719 327.132812 78.976562 327.539062 78.339844 L 329.136719 75.863281 " fill-opacity="1" fill-rule="nonzero"/><path fill="#000000" d="M 275.605469 97.222656 C 284.367188 108.148438 291.535156 111.113281 296.042969 111.664062 C 300.582031 112.214844 303.402344 110.519531 304.019531 110.101562 L 311.675781 94.660156 L 312.128906 94.644531 C 318.316406 94.429688 326.125 91.132812 328.179688 88.585938 C 328.480469 88.210938 328.632812 87.871094 328.59375 87.648438 C 328.488281 87.066406 328.042969 85.386719 326.539062 80.710938 C 326.238281 79.773438 326.371094 78.761719 326.902344 77.929688 L 328.316406 75.734375 C 325.335938 73.472656 323.128906 70.414062 321.917969 66.867188 C 321.433594 65.457031 321.015625 64.230469 320.699219 63.304688 C 316.820312 70.707031 307.796875 70.066406 303.292969 69.746094 C 302.546875 69.699219 301.726562 69.636719 301.226562 69.648438 C 301.800781 72.398438 300 78.460938 299.78125 79.1875 L 299.734375 79.347656 L 299.621094 79.472656 C 292.242188 87.769531 285.65625 92.648438 275.605469 97.222656 Z M 297.824219 113.289062 C 297.207031 113.289062 296.550781 113.25 295.863281 113.167969 C 288.738281 112.300781 281.320312 106.996094 273.8125 97.394531 L 273.210938 96.628906 L 274.101562 96.234375 C 284.519531 91.605469 290.890625 86.976562 298.375 78.585938 C 299.203125 75.816406 300.253906 71.085938 299.664062 69.699219 C 299.511719 69.335938 299.542969 68.960938 299.75 68.671875 C 300.222656 68.011719 301.21875 68.082031 303.402344 68.234375 C 308.214844 68.574219 317.175781 69.207031 320.0625 60.957031 L 320.78125 58.898438 L 321.496094 60.957031 C 321.496094 60.957031 322.273438 63.199219 323.355469 66.378906 C 324.5 69.738281 326.617188 72.617188 329.480469 74.710938 C 329.972656 75.074219 330.105469 75.757812 329.773438 76.273438 L 328.175781 78.75 C 327.890625 79.199219 327.820312 79.742188 327.984375 80.246094 C 329.230469 84.117188 329.917969 86.453125 330.085938 87.382812 C 330.210938 88.0625 329.964844 88.792969 329.363281 89.539062 C 326.902344 92.59375 318.742188 95.785156 312.636719 96.136719 L 305.21875 111.097656 L 305.082031 111.207031 C 304.960938 111.300781 302.367188 113.289062 297.824219 113.289062 " fill-opacity="1" fill-rule="nonzero"/><path fill="#000000" d="M 303.390625 87.71875 C 303.316406 87.71875 303.238281 87.710938 303.164062 87.683594 C 300.503906 86.855469 298.621094 85.351562 297.875 83.441406 C 297.269531 81.910156 297.453125 80.234375 298.394531 78.589844 C 298.652344 78.144531 299.429688 76.78125 300.625 76.996094 C 302.027344 77.246094 302.566406 79.566406 302.730469 80.554688 C 302.804688 80.964844 302.527344 81.355469 302.109375 81.425781 C 301.699219 81.496094 301.304688 81.21875 301.234375 80.804688 C 301.066406 79.796875 300.65625 78.71875 300.375 78.507812 C 300.289062 78.554688 300.058594 78.738281 299.710938 79.347656 C 298.996094 80.59375 298.851562 81.78125 299.285156 82.886719 C 299.855469 84.335938 301.433594 85.558594 303.613281 86.234375 C 304.015625 86.359375 304.238281 86.785156 304.117188 87.183594 C 304.015625 87.511719 303.714844 87.71875 303.390625 87.71875 " fill-opacity="1" fill-rule="nonzero"/><path fill="#000000" d="M 312.152344 96.160156 C 312.144531 96.160156 312.136719 96.160156 312.125 96.160156 C 306.289062 95.96875 305.074219 91.902344 305.027344 91.726562 C 304.914062 91.324219 305.148438 90.902344 305.550781 90.789062 C 305.953125 90.675781 306.367188 90.90625 306.484375 91.3125 C 306.53125 91.457031 307.5 94.492188 312.179688 94.640625 C 312.59375 94.65625 312.925781 95.007812 312.910156 95.425781 C 312.898438 95.835938 312.5625 96.160156 312.152344 96.160156 " fill-opacity="1" fill-rule="nonzero"/><path fill="#000000" d="M 338.511719 342.375 C 338.304688 342.375 338.105469 342.296875 337.960938 342.140625 C 337.667969 341.832031 337.683594 341.351562 337.984375 341.066406 L 344.296875 335.085938 C 344.601562 334.800781 345.082031 334.8125 345.371094 335.117188 C 345.65625 335.421875 345.644531 335.898438 345.339844 336.1875 L 339.03125 342.167969 C 338.882812 342.304688 338.695312 342.375 338.511719 342.375 " fill-opacity="1" fill-rule="nonzero"/><path fill="#000000" d="M 338.511719 342.375 C 338.304688 342.375 338.105469 342.296875 337.960938 342.140625 C 337.667969 341.832031 337.683594 341.351562 337.984375 341.066406 L 344.296875 335.085938 C 344.601562 334.800781 345.082031 334.8125 345.371094 335.117188 C 345.65625 335.421875 345.644531 335.898438 345.339844 336.1875 L 339.03125 342.167969 C 338.882812 342.304688 338.695312 342.375 338.511719 342.375 " fill-opacity="1" fill-rule="nonzero"/><path fill="#000000" d="M 273.917969 399.507812 L 228.117188 399.507812 C 227.695312 399.507812 227.355469 399.167969 227.355469 398.746094 C 227.355469 398.328125 227.695312 397.988281 228.117188 397.988281 L 273.917969 397.988281 C 276.480469 397.988281 278.917969 397.019531 280.78125 395.253906 L 324.3125 354.019531 C 324.617188 353.730469 325.097656 353.742188 325.386719 354.046875 C 325.675781 354.351562 325.660156 354.832031 325.355469 355.121094 L 281.824219 396.359375 C 279.679688 398.390625 276.875 399.507812 273.917969 399.507812 " fill-opacity="1" fill-rule="nonzero"/><path fill="#000000" d="M 311.648438 342.425781 C 311.453125 342.425781 311.253906 342.351562 311.105469 342.199219 C 310.816406 341.898438 310.820312 341.417969 311.121094 341.125 L 370.980469 282.902344 C 371.285156 282.609375 371.765625 282.613281 372.058594 282.914062 C 372.347656 283.214844 372.339844 283.695312 372.042969 283.988281 L 312.179688 342.210938 C 312.03125 342.355469 311.839844 342.425781 311.648438 342.425781 " fill-opacity="1" fill-rule="nonzero"/><path fill="#000000" d="M 293.738281 359.847656 C 293.542969 359.847656 293.34375 359.769531 293.195312 359.617188 C 292.902344 359.316406 292.910156 358.835938 293.210938 358.542969 L 297.855469 354.023438 C 298.15625 353.734375 298.636719 353.742188 298.929688 354.039062 C 299.21875 354.339844 299.214844 354.820312 298.914062 355.113281 L 294.269531 359.632812 C 294.121094 359.773438 293.929688 359.847656 293.738281 359.847656 " fill-opacity="1" fill-rule="nonzero"/><path fill="#000000" d="M 216.917969 401.992188 C 214.773438 401.992188 213.027344 400.246094 213.027344 398.101562 C 213.027344 397.683594 213.367188 397.339844 213.785156 397.339844 C 214.203125 397.339844 214.542969 397.683594 214.542969 398.101562 C 214.542969 399.410156 215.609375 400.476562 216.917969 400.476562 C 218.226562 400.476562 219.292969 399.410156 219.292969 398.101562 C 219.292969 396.792969 218.226562 395.726562 216.917969 395.726562 C 216.5 395.726562 216.160156 395.386719 216.160156 394.96875 C 216.160156 394.546875 216.5 394.207031 216.917969 394.207031 C 219.0625 394.207031 220.808594 395.953125 220.808594 398.101562 C 220.808594 400.246094 219.0625 401.992188 216.917969 401.992188 " fill-opacity="1" fill-rule="nonzero"/><path fill="#000000" d="M 353.707031 171.328125 C 353.289062 171.328125 352.945312 170.988281 352.945312 170.570312 L 352.945312 166.648438 C 352.945312 166.226562 353.289062 165.886719 353.707031 165.886719 C 354.125 165.886719 354.464844 166.226562 354.464844 166.648438 L 354.464844 170.570312 C 354.464844 170.988281 354.125 171.328125 353.707031 171.328125 " fill-opacity="1" fill-rule="nonzero"/><path fill="#000000" d="M 353.707031 180.472656 C 353.289062 180.472656 352.945312 180.132812 352.945312 179.710938 L 352.945312 175.789062 C 352.945312 175.367188 353.289062 175.03125 353.707031 175.03125 C 354.125 175.03125 354.464844 175.367188 354.464844 175.789062 L 354.464844 179.710938 C 354.464844 180.132812 354.125 180.472656 353.707031 180.472656 " fill-opacity="1" fill-rule="nonzero"/><path fill="#000000" d="M 351.09375 173.941406 L 347.171875 173.941406 C 346.75 173.941406 346.410156 173.601562 346.410156 173.183594 C 346.410156 172.761719 346.75 172.421875 347.171875 172.421875 L 351.09375 172.421875 C 351.511719 172.421875 351.855469 172.761719 351.855469 173.183594 C 351.855469 173.601562 351.511719 173.941406 351.09375 173.941406 " fill-opacity="1" fill-rule="nonzero"/><path fill="#000000" d="M 360.234375 173.9375 L 356.3125 173.9375 C 355.890625 173.9375 355.550781 173.601562 355.550781 173.179688 C 355.550781 172.761719 355.890625 172.421875 356.3125 172.421875 L 360.234375 172.421875 C 360.65625 172.421875 360.992188 172.761719 360.992188 173.179688 C 360.992188 173.601562 360.65625 173.9375 360.234375 173.9375 " fill-opacity="1" fill-rule="nonzero"/><path fill="#000000" d="M 122.488281 123.003906 C 122.066406 123.003906 121.730469 122.660156 121.730469 122.242188 L 121.730469 118.320312 C 121.730469 117.898438 122.066406 117.558594 122.488281 117.558594 C 122.90625 117.558594 123.246094 117.898438 123.246094 118.320312 L 123.246094 122.242188 C 123.246094 122.660156 122.90625 123.003906 122.488281 123.003906 " fill-opacity="1" fill-rule="nonzero"/><path fill="#000000" d="M 122.488281 132.144531 C 122.066406 132.144531 121.726562 131.804688 121.726562 131.382812 L 121.726562 127.460938 C 121.726562 127.042969 122.066406 126.703125 122.488281 126.703125 C 122.90625 126.703125 123.246094 127.042969 123.246094 127.460938 L 123.246094 131.382812 C 123.246094 131.804688 122.90625 132.144531 122.488281 132.144531 " fill-opacity="1" fill-rule="nonzero"/><path fill="#000000" d="M 119.878906 125.609375 L 115.953125 125.609375 C 115.535156 125.609375 115.195312 125.269531 115.195312 124.851562 C 115.195312 124.433594 115.535156 124.09375 115.953125 124.09375 L 119.878906 124.09375 C 120.296875 124.09375 120.636719 124.433594 120.636719 124.851562 C 120.636719 125.269531 120.296875 125.609375 119.878906 125.609375 " fill-opacity="1" fill-rule="nonzero"/><path fill="#000000" d="M 129.019531 125.609375 L 125.097656 125.609375 C 124.675781 125.609375 124.335938 125.269531 124.335938 124.851562 C 124.335938 124.433594 124.675781 124.09375 125.097656 124.09375 L 129.019531 124.09375 C 129.441406 124.09375 129.777344 124.433594 129.777344 124.851562 C 129.777344 125.269531 129.441406 125.609375 129.019531 125.609375 " fill-opacity="1" fill-rule="nonzero"/><path fill="#f96f5f" d="M 409.421875 143.9375 C 402.9375 145.714844 396.238281 141.894531 394.464844 135.410156 C 392.6875 128.925781 396.507812 122.230469 402.992188 120.453125 C 409.476562 118.679688 416.171875 122.496094 417.949219 128.980469 C 419.722656 135.464844 415.910156 142.160156 409.421875 143.9375 Z M 424.507812 127.183594 C 424.222656 126.152344 423.265625 125.449219 422.195312 125.5 L 420.019531 125.597656 C 419.648438 124.820312 419.21875 124.082031 418.734375 123.390625 L 419.882812 121.550781 C 420.453125 120.640625 420.3125 119.460938 419.550781 118.707031 C 418.785156 117.953125 417.605469 117.828125 416.703125 118.40625 L 414.871094 119.574219 C 414.167969 119.09375 413.429688 118.671875 412.652344 118.3125 L 412.726562 116.140625 C 412.765625 115.070312 412.054688 114.113281 411.015625 113.839844 C 409.976562 113.566406 408.894531 114.054688 408.398438 115.003906 L 407.402344 116.929688 C 406.5625 116.863281 405.707031 116.871094 404.847656 116.949219 L 403.824219 115.03125 C 403.324219 114.085938 402.230469 113.613281 401.195312 113.898438 C 400.164062 114.175781 399.460938 115.140625 399.511719 116.210938 L 399.609375 118.382812 C 398.832031 118.753906 398.089844 119.183594 397.402344 119.667969 L 395.5625 118.519531 C 394.648438 117.953125 393.472656 118.09375 392.71875 118.851562 C 391.960938 119.613281 391.839844 120.800781 392.414062 121.699219 L 393.585938 123.53125 C 393.105469 124.234375 392.679688 124.976562 392.324219 125.75 L 390.148438 125.671875 C 389.078125 125.636719 388.125 126.351562 387.851562 127.386719 C 387.582031 128.425781 388.0625 129.507812 389.015625 130.003906 L 390.941406 131 C 390.871094 131.839844 390.882812 132.699219 390.957031 133.554688 L 389.039062 134.578125 C 388.09375 135.078125 387.621094 136.171875 387.902344 137.207031 C 388.191406 138.242188 389.148438 138.941406 390.222656 138.890625 L 392.390625 138.792969 C 392.765625 139.574219 393.195312 140.3125 393.679688 141 L 392.53125 142.839844 C 391.960938 143.75 392.101562 144.933594 392.863281 145.6875 C 393.625 146.441406 394.808594 146.566406 395.710938 145.988281 L 397.542969 144.816406 C 398.246094 145.296875 398.988281 145.722656 399.757812 146.082031 L 399.683594 148.253906 C 399.644531 149.324219 400.359375 150.28125 401.394531 150.550781 C 402.433594 150.824219 403.519531 150.339844 404.011719 149.386719 L 405.011719 147.464844 C 405.851562 147.53125 406.707031 147.523438 407.566406 147.445312 L 408.589844 149.363281 C 409.089844 150.308594 410.183594 150.777344 411.21875 150.496094 C 412.25 150.214844 412.953125 149.253906 412.902344 148.179688 L 412.804688 146.011719 C 413.582031 145.640625 414.320312 145.210938 415.015625 144.722656 L 416.851562 145.871094 C 417.761719 146.441406 418.941406 146.304688 419.699219 145.539062 C 420.453125 144.777344 420.578125 143.59375 420 142.691406 L 418.828125 140.859375 C 419.308594 140.15625 419.734375 139.417969 420.089844 138.644531 L 422.261719 138.71875 C 423.335938 138.757812 424.289062 138.042969 424.5625 137.007812 C 424.832031 135.96875 424.347656 134.882812 423.398438 134.390625 L 421.472656 133.390625 C 421.539062 132.550781 421.53125 131.695312 421.453125 130.835938 L 423.375 129.816406 C 424.320312 129.3125 424.789062 128.21875 424.507812 127.183594 " fill-opacity="1" fill-rule="nonzero"/></svg>