<svg xmlns="http://www.w3.org/2000/svg" xmlns:xlink="http://www.w3.org/1999/xlink" width="628" zoomAndPan="magnify" viewBox="0 0 470.87997 470.999988" height="628" preserveAspectRatio="xMidYMid meet" version="1.0"><defs><clipPath id="ba53242a4b"><path d="M 7 11 L 462 11 L 462 465.285156 L 7 465.285156 Z M 7 11 " clip-rule="nonzero"/></clipPath><clipPath id="ee665d24cc"><path d="M 92 250 L 304 250 L 304 465.285156 L 92 465.285156 Z M 92 250 " clip-rule="nonzero"/></clipPath></defs><g clip-path="url(#ba53242a4b)"><path fill="#e7f0ff" d="M 414.382812 348.480469 C 414.015625 348.976562 413.652344 349.460938 413.292969 349.945312 C 413.167969 350.113281 413.042969 350.277344 412.914062 350.445312 C 412.539062 350.949219 412.15625 351.453125 411.777344 351.953125 C 410.636719 353.449219 409.492188 354.917969 408.355469 356.363281 C 407.101562 357.945312 405.847656 359.496094 404.59375 361.015625 C 404.039062 361.691406 403.484375 362.359375 402.933594 363.023438 L 402.914062 363.050781 C 402.859375 363.109375 402.808594 363.175781 402.753906 363.238281 C 402.710938 363.285156 402.664062 363.339844 402.625 363.390625 C 400.480469 365.945312 398.351562 368.402344 396.253906 370.753906 C 396.003906 371.035156 395.75 371.320312 395.5 371.601562 C 395.203125 371.929688 394.90625 372.257812 394.609375 372.582031 C 391.394531 376.140625 388.253906 379.449219 385.261719 382.492188 C 384.414062 383.351562 383.585938 384.191406 382.761719 385.003906 C 381.492188 386.269531 380.253906 387.484375 379.050781 388.644531 L 379.046875 388.648438 C 375.160156 392.394531 371.636719 395.605469 368.621094 398.273438 L 368.609375 398.277344 C 365.632812 400.898438 363.15625 402.972656 361.328125 404.472656 C 359.246094 406.175781 357.148438 407.84375 355.03125 409.472656 C 322.074219 434.835938 284.632812 450.921875 246.65625 458.945312 C 234.648438 461.476562 222.582031 463.210938 210.589844 464.167969 C 200.789062 464.964844 191.039062 465.238281 181.402344 465.019531 C 163.492188 464.613281 145.984375 462.515625 129.320312 458.84375 C 110.636719 454.738281 93.019531 448.660156 77.070312 440.808594 C 57.097656 430.980469 25.863281 415.597656 12.488281 383.101562 C 0.015625 352.789062 12.03125 329.367188 24.964844 285.402344 L 24.964844 285.398438 C 28.996094 271.695312 33.113281 255.992188 36.605469 237.46875 C 38.753906 226.070312 40.230469 215.914062 41.210938 206.789062 C 48 143.746094 31.21875 129.714844 49.378906 94.988281 C 82.449219 31.769531 176.0625 5.644531 247.757812 12.292969 C 334.296875 20.3125 437.074219 80.484375 457.535156 184.140625 C 470.847656 251.570312 443.695312 308.839844 414.382812 348.480469 " fill-opacity="1" fill-rule="nonzero"/></g><path fill="#000000" d="M 284.164062 36.015625 C 284.070312 36.015625 283.976562 35.996094 283.882812 35.960938 C 231.777344 16.84375 172.09375 30.144531 171.496094 30.28125 C 171.054688 30.386719 170.613281 30.105469 170.515625 29.667969 C 170.414062 29.222656 170.691406 28.785156 171.132812 28.683594 C 171.28125 28.648438 186.429688 25.226562 207.847656 24.234375 C 227.625 23.316406 256.972656 24.339844 284.445312 34.421875 C 284.875 34.578125 285.089844 35.050781 284.933594 35.476562 C 284.8125 35.808594 284.5 36.015625 284.164062 36.015625 " fill-opacity="1" fill-rule="nonzero"/><path fill="#000000" d="M 142.5625 50.585938 C 142.230469 50.585938 141.917969 50.386719 141.792969 50.058594 C 141.632812 49.636719 141.84375 49.160156 142.265625 49 C 142.40625 48.945312 156.511719 43.585938 177.121094 39.867188 C 196.148438 36.429688 224.792969 33.71875 253.1875 40.320312 C 253.628906 40.421875 253.902344 40.863281 253.800781 41.304688 C 253.699219 41.746094 253.257812 42.019531 252.816406 41.917969 C 198.980469 29.40625 143.410156 50.316406 142.855469 50.53125 C 142.757812 50.570312 142.65625 50.585938 142.5625 50.585938 " fill-opacity="1" fill-rule="nonzero"/><path fill="#000000" d="M 295.660156 44.203125 L 304.253906 44.855469 L 299.242188 37.707031 Z M 305.921875 46.625 L 305.859375 46.625 L 294.261719 45.742188 C 293.984375 45.71875 293.734375 45.558594 293.601562 45.3125 C 293.46875 45.066406 293.46875 44.773438 293.605469 44.527344 L 298.441406 35.761719 C 298.578125 35.515625 298.835938 35.355469 299.117188 35.339844 C 299.402344 35.332031 299.671875 35.457031 299.835938 35.6875 L 306.59375 45.332031 C 306.777344 45.59375 306.792969 45.9375 306.636719 46.210938 C 306.488281 46.46875 306.214844 46.625 305.921875 46.625 " fill-opacity="1" fill-rule="nonzero"/><path fill="#ffffff" d="M 397.089844 305.257812 C 398.34375 305.441406 399.453125 306.089844 400.234375 307.097656 C 401.042969 308.136719 401.398438 309.429688 401.238281 310.742188 C 401.078125 312.050781 400.421875 313.222656 399.390625 314.039062 C 398.359375 314.855469 397.074219 315.222656 395.773438 315.0625 C 395.734375 315.058594 395.695312 315.050781 395.65625 315.046875 C 393.039062 314.664062 391.183594 312.230469 391.507812 309.5625 C 391.667969 308.25 392.324219 307.078125 393.355469 306.261719 C 394.386719 305.449219 395.671875 305.085938 396.972656 305.242188 C 397.011719 305.246094 397.050781 305.253906 397.089844 305.257812 " fill-opacity="1" fill-rule="nonzero"/><path fill="#000000" d="M 423.140625 285.265625 C 423.09375 285.265625 423.050781 285.265625 423.007812 285.257812 C 422.558594 285.1875 422.253906 284.761719 422.328125 284.316406 L 423.007812 280.132812 C 423.082031 279.6875 423.503906 279.378906 423.949219 279.457031 C 424.398438 279.527344 424.703125 279.949219 424.628906 280.398438 L 423.949219 284.578125 C 423.882812 284.980469 423.535156 285.265625 423.140625 285.265625 " fill-opacity="1" fill-rule="nonzero"/><path fill="#000000" d="M 424.726562 275.527344 C 424.679688 275.527344 424.636719 275.527344 424.589844 275.519531 C 424.144531 275.445312 423.84375 275.023438 423.914062 274.574219 L 424.59375 270.394531 C 424.667969 269.945312 425.089844 269.640625 425.535156 269.71875 C 425.984375 269.789062 426.289062 270.210938 426.21875 270.660156 L 425.535156 274.839844 C 425.46875 275.242188 425.121094 275.527344 424.726562 275.527344 " fill-opacity="1" fill-rule="nonzero"/><path fill="#000000" d="M 431.269531 279.445312 C 431.222656 279.445312 431.179688 279.441406 431.136719 279.433594 L 426.933594 278.753906 C 426.484375 278.675781 426.183594 278.257812 426.253906 277.808594 C 426.328125 277.363281 426.75 277.058594 427.195312 277.132812 L 431.398438 277.8125 C 431.847656 277.886719 432.148438 278.308594 432.078125 278.753906 C 432.011719 279.160156 431.664062 279.445312 431.269531 279.445312 " fill-opacity="1" fill-rule="nonzero"/><path fill="#000000" d="M 421.480469 277.855469 C 421.4375 277.855469 421.390625 277.851562 421.347656 277.84375 L 417.144531 277.160156 C 416.695312 277.085938 416.394531 276.664062 416.464844 276.21875 C 416.539062 275.769531 416.960938 275.464844 417.410156 275.539062 L 421.613281 276.222656 C 422.058594 276.296875 422.359375 276.71875 422.289062 277.164062 C 422.226562 277.570312 421.875 277.855469 421.480469 277.855469 " fill-opacity="1" fill-rule="nonzero"/><path fill="#ffffff" d="M 89.457031 422.722656 C 89.339844 422.722656 89.21875 422.695312 89.101562 422.640625 C 67.914062 412.492188 50.855469 398.359375 42.304688 383.871094 C 42.074219 383.476562 42.203125 382.976562 42.59375 382.746094 C 42.984375 382.515625 43.488281 382.644531 43.71875 383.035156 C 52.109375 397.25 68.910156 411.148438 89.8125 421.160156 C 90.222656 421.355469 90.394531 421.847656 90.199219 422.257812 C 90.054688 422.550781 89.761719 422.722656 89.457031 422.722656 " fill-opacity="1" fill-rule="nonzero"/><path fill="#ffffff" d="M 42.675781 398.257812 C 42.445312 398.257812 42.21875 398.160156 42.054688 397.972656 C 32.855469 387.265625 25.832031 376.898438 19.269531 364.347656 C 19.058594 363.945312 19.214844 363.449219 19.617188 363.238281 C 20.019531 363.027344 20.515625 363.183594 20.722656 363.585938 C 27.226562 376.023438 34.1875 386.296875 43.300781 396.898438 C 43.59375 397.242188 43.554688 397.761719 43.210938 398.058594 C 43.058594 398.191406 42.867188 398.257812 42.675781 398.257812 " fill-opacity="1" fill-rule="nonzero"/><path fill="#ffffff" d="M 72.996094 422.503906 C 72.859375 422.503906 72.722656 422.46875 72.59375 422.398438 C 64.464844 417.867188 57.441406 413.957031 47.582031 403.230469 C 47.273438 402.894531 47.296875 402.375 47.628906 402.066406 C 47.964844 401.761719 48.484375 401.78125 48.789062 402.117188 C 58.472656 412.648438 65.386719 416.503906 73.394531 420.964844 C 73.792969 421.1875 73.933594 421.683594 73.710938 422.082031 C 73.5625 422.347656 73.28125 422.503906 72.996094 422.503906 " fill-opacity="1" fill-rule="nonzero"/><path fill="#6ce5e8" d="M 53.421875 242.613281 C 41.34375 241.898438 32.136719 231.515625 32.855469 219.425781 C 33.578125 207.335938 43.953125 198.117188 56.03125 198.832031 C 68.109375 199.546875 77.316406 209.929688 76.597656 222.019531 C 75.875 234.109375 65.5 243.332031 53.421875 242.613281 Z M 98.421875 227.578125 L 98.929688 219.078125 L 90 216.496094 C 89.765625 214.507812 89.371094 212.5625 88.820312 210.679688 L 96.003906 204.792969 L 92.195312 197.175781 L 83.167969 199.410156 C 81.984375 197.828125 80.667969 196.34375 79.238281 194.980469 L 82.523438 186.273438 L 75.421875 181.582031 L 68.726562 188.027344 C 66.925781 187.253906 65.046875 186.636719 63.097656 186.164062 L 61.597656 176.984375 L 53.101562 176.480469 L 50.519531 185.417969 C 48.53125 185.65625 46.589844 186.050781 44.707031 186.601562 L 38.828125 179.414062 L 31.21875 183.230469 L 33.445312 192.265625 C 31.863281 193.453125 30.382812 194.769531 29.015625 196.199219 L 20.320312 192.914062 L 15.632812 200.027344 L 22.066406 206.722656 C 21.296875 208.527344 20.671875 210.410156 20.203125 212.359375 L 11.03125 213.867188 L 10.523438 222.367188 L 19.453125 224.949219 C 19.6875 226.941406 20.082031 228.886719 20.632812 230.765625 L 13.449219 236.652344 L 17.257812 244.269531 L 26.285156 242.035156 C 27.46875 243.617188 28.785156 245.101562 30.214844 246.464844 L 26.929688 255.171875 L 34.035156 259.863281 L 40.726562 253.417969 C 42.527344 254.191406 44.410156 254.8125 46.355469 255.28125 L 47.859375 264.464844 L 56.351562 264.96875 L 58.933594 256.027344 C 60.921875 255.792969 62.867188 255.398438 64.746094 254.839844 L 70.625 262.03125 L 78.238281 258.214844 L 76.007812 249.179688 C 77.589844 247.992188 79.074219 246.679688 80.4375 245.242188 L 89.136719 248.53125 L 93.820312 241.417969 L 87.386719 234.722656 C 88.160156 232.917969 88.78125 231.035156 89.25 229.085938 L 98.421875 227.578125 " fill-opacity="1" fill-rule="nonzero"/><path fill="#6ce5e8" d="M 65.992188 324.746094 C 58.691406 324.3125 53.128906 318.042969 53.566406 310.734375 C 54 303.429688 60.269531 297.859375 67.570312 298.292969 C 74.867188 298.722656 80.429688 304.996094 79.996094 312.300781 C 79.558594 319.609375 73.289062 325.179688 65.992188 324.746094 Z M 93.183594 315.660156 L 93.492188 310.523438 L 88.09375 308.964844 C 87.953125 307.761719 87.714844 306.589844 87.378906 305.449219 L 91.722656 301.890625 L 89.421875 297.292969 L 83.964844 298.640625 C 83.25 297.683594 82.457031 296.789062 81.589844 295.964844 L 83.578125 290.703125 L 79.285156 287.867188 L 75.238281 291.765625 C 74.152344 291.296875 73.015625 290.917969 71.839844 290.636719 L 70.929688 285.089844 L 65.796875 284.785156 L 64.238281 290.1875 C 63.035156 290.328125 61.863281 290.566406 60.726562 290.902344 L 57.171875 286.558594 L 52.574219 288.863281 L 53.921875 294.324219 C 52.964844 295.039062 52.070312 295.835938 51.246094 296.703125 L 45.988281 294.714844 L 43.15625 299.015625 L 47.046875 303.058594 C 46.578125 304.148438 46.203125 305.289062 45.917969 306.464844 L 40.375 307.375 L 40.070312 312.515625 L 45.464844 314.074219 C 45.609375 315.273438 45.84375 316.453125 46.179688 317.585938 L 41.839844 321.144531 L 44.140625 325.75 L 49.59375 324.398438 C 50.308594 325.355469 51.105469 326.25 51.96875 327.074219 L 49.984375 332.335938 L 54.277344 335.167969 L 58.320312 331.277344 C 59.40625 331.742188 60.546875 332.117188 61.722656 332.398438 L 62.628906 337.949219 L 67.761719 338.253906 L 69.324219 332.851562 C 70.523438 332.707031 71.699219 332.46875 72.832031 332.136719 L 76.386719 336.480469 L 80.988281 334.175781 L 79.636719 328.714844 C 80.597656 328 81.492188 327.203125 82.316406 326.335938 L 87.570312 328.320312 L 90.402344 324.023438 L 86.515625 319.976562 C 86.980469 318.886719 87.355469 317.75 87.640625 316.574219 L 93.183594 315.660156 " fill-opacity="1" fill-rule="nonzero"/><path fill="#ffffff" d="M 299.46875 265.332031 L 287.957031 277.09375 C 280.136719 285.085938 268.417969 284.820312 261.78125 276.507812 C 255.140625 268.195312 256.097656 254.976562 263.917969 246.988281 L 275.429688 235.226562 C 283.25 227.238281 294.96875 227.5 301.609375 235.816406 C 308.246094 244.128906 307.289062 257.34375 299.46875 265.332031 " fill-opacity="1" fill-rule="nonzero"/><path fill="#000000" d="M 299.46875 265.332031 L 299.472656 265.332031 Z M 288.570312 230.222656 C 283.984375 230.222656 279.554688 232.183594 276.015625 235.800781 L 264.503906 247.5625 C 256.980469 255.253906 256.042969 268.007812 262.421875 275.996094 C 265.371094 279.691406 269.488281 281.851562 274.007812 282.078125 C 278.875 282.324219 283.625 280.351562 287.371094 276.519531 L 298.882812 264.761719 C 306.410156 257.070312 307.34375 244.316406 300.964844 236.324219 C 298.015625 232.632812 293.902344 230.472656 289.382812 230.246094 C 289.109375 230.230469 288.839844 230.222656 288.570312 230.222656 Z M 274.820312 283.742188 C 274.523438 283.742188 274.222656 283.734375 273.925781 283.714844 C 268.925781 283.464844 264.386719 281.085938 261.136719 277.019531 C 254.257812 268.40625 255.246094 254.675781 263.332031 246.414062 L 274.84375 234.652344 C 278.925781 230.484375 284.117188 228.335938 289.464844 228.605469 C 294.460938 228.855469 299 231.234375 302.25 235.300781 C 309.125 243.914062 308.144531 257.644531 300.058594 265.90625 L 288.542969 277.671875 C 284.691406 281.605469 279.847656 283.742188 274.820312 283.742188 " fill-opacity="1" fill-rule="nonzero"/><path fill="#ffffff" d="M 218.710938 464.972656 C 218.710938 464.972656 219.746094 462.148438 223.160156 457.835938 C 228.367188 451.25 247.171875 438.15625 252.726562 433.109375 C 289.511719 399.691406 300.429688 320.089844 300.429688 320.089844 C 304.304688 310.898438 303.667969 300.058594 298.753906 291.539062 L 278.628906 256.617188 L 144.570312 305.699219 L 146.460938 267.882812 C 146.921875 258.667969 140.515625 250.90625 132.433594 250.878906 C 127.210938 250.867188 122.410156 254.144531 119.957031 259.410156 C 112.917969 274.519531 98.992188 304.480469 98.574219 305.914062 C 98.226562 307.109375 95.914062 334.164062 94.222656 354.382812 C 93.011719 368.851562 94.222656 383.449219 97.789062 397.402344 L 105.84375 428.917969 C 108.445312 439.109375 109.140625 451.617188 108.445312 464.523438 L 218.710938 464.972656 " fill-opacity="1" fill-rule="nonzero"/><g clip-path="url(#ee665d24cc)"><path fill="#000000" d="M 108.449219 465.34375 L 108.402344 465.34375 C 107.949219 465.316406 107.601562 464.929688 107.628906 464.476562 C 108.359375 450.828125 107.46875 438.601562 105.046875 429.121094 L 96.992188 397.605469 C 93.390625 383.503906 92.183594 368.9375 93.40625 354.3125 C 96.019531 323.042969 97.496094 306.679688 97.785156 305.683594 C 98.191406 304.300781 109.660156 279.566406 119.210938 259.0625 C 121.800781 253.507812 126.847656 250.0625 132.394531 250.0625 L 132.4375 250.0625 C 136.203125 250.070312 139.792969 251.675781 142.546875 254.578125 C 145.808594 258.019531 147.535156 262.882812 147.28125 267.921875 L 145.453125 304.503906 L 278.34375 255.847656 C 278.71875 255.710938 279.140625 255.863281 279.335938 256.207031 L 299.464844 291.128906 C 304.457031 299.789062 305.128906 310.957031 301.230469 320.3125 C 301 321.933594 298.144531 341.351562 291.160156 364.308594 C 284.445312 386.375 272.417969 416.328125 253.28125 433.71875 C 251.292969 435.519531 247.71875 438.277344 243.574219 441.472656 C 236.238281 447.125 227.109375 454.164062 223.800781 458.34375 C 220.53125 462.476562 219.640625 464.582031 219.632812 464.601562 C 219.457031 465.019531 218.980469 465.222656 218.5625 465.046875 C 218.144531 464.875 217.941406 464.398438 218.113281 463.980469 C 218.152344 463.890625 219.070312 461.679688 222.511719 457.328125 C 225.945312 452.984375 235.167969 445.878906 242.574219 440.167969 C 246.6875 437 250.238281 434.261719 252.175781 432.503906 C 288.320312 399.667969 299.507812 320.773438 299.617188 319.980469 C 299.625 319.90625 299.644531 319.839844 299.671875 319.773438 C 303.425781 310.863281 302.800781 300.203125 298.042969 291.945312 L 278.261719 257.628906 L 144.851562 306.46875 C 144.59375 306.566406 144.304688 306.523438 144.082031 306.359375 C 143.859375 306.195312 143.734375 305.933594 143.75 305.660156 L 145.644531 267.839844 C 145.871094 263.246094 144.308594 258.824219 141.355469 255.710938 C 138.914062 253.136719 135.746094 251.710938 132.429688 251.703125 L 132.394531 251.703125 C 127.496094 251.703125 123.015625 254.785156 120.703125 259.757812 C 107.65625 287.761719 99.679688 305.101562 99.363281 306.144531 C 99.238281 306.648438 98.558594 312.378906 95.042969 354.449219 C 93.832031 368.890625 95.023438 383.273438 98.582031 397.199219 L 106.636719 428.714844 C 109.101562 438.355469 110.011719 450.753906 109.265625 464.566406 C 109.242188 465.003906 108.878906 465.34375 108.449219 465.34375 " fill-opacity="1" fill-rule="nonzero"/></g><path fill="#f96f5f" d="M 149.171875 401.15625 L 272.617188 401.101562 C 277.882812 401.101562 282.148438 395.917969 282.148438 389.519531 L 270.660156 117.441406 C 270.660156 111.042969 266.394531 105.855469 261.128906 105.855469 L 137.386719 105.855469 C 132.121094 105.855469 127.851562 111.042969 127.851562 117.441406 L 139.34375 389.519531 C 139.34375 395.917969 143.90625 401.15625 149.171875 401.15625 " fill-opacity="1" fill-rule="nonzero"/><path fill="#6ce5e8" d="M 278.851562 139.109375 L 278.023438 118.261719 C 278.023438 111.890625 273.753906 106.730469 268.488281 106.730469 L 144.75 106.730469 C 139.484375 106.730469 135.214844 111.890625 135.214844 118.261719 L 146.707031 389.003906 C 146.707031 395.375 150.976562 400.535156 156.238281 400.535156 L 279.980469 400.535156 C 285.246094 400.535156 289.511719 395.375 289.511719 389.003906 L 280.574219 182.40625 L 278.851562 139.109375 " fill-opacity="1" fill-rule="nonzero"/><path fill="#000000" d="M 279.980469 401.359375 L 156.238281 401.359375 C 150.53125 401.359375 145.886719 395.816406 145.886719 389.003906 L 134.394531 118.296875 C 134.394531 111.449219 139.039062 105.90625 144.75 105.90625 L 268.488281 105.90625 C 274.199219 105.90625 278.84375 111.449219 278.84375 118.261719 L 279.671875 139.078125 C 279.691406 139.53125 279.335938 139.914062 278.882812 139.929688 C 278.417969 139.953125 278.050781 139.597656 278.03125 139.140625 L 277.203125 118.292969 C 277.199219 112.351562 273.292969 107.550781 268.488281 107.550781 L 144.75 107.550781 C 139.945312 107.550781 136.039062 112.351562 136.039062 118.261719 L 147.527344 388.96875 C 147.527344 394.910156 151.433594 399.714844 156.238281 399.714844 L 279.980469 399.714844 C 284.785156 399.714844 288.691406 394.910156 288.691406 389.003906 L 279.75 182.4375 C 279.730469 181.984375 280.085938 181.605469 280.535156 181.582031 C 280.996094 181.5625 281.371094 181.914062 281.390625 182.367188 L 290.332031 388.96875 C 290.332031 395.816406 285.6875 401.359375 279.980469 401.359375 " fill-opacity="1" fill-rule="nonzero"/><path fill="#f96f5f" d="M 160.761719 394.734375 L 275.15625 394.734375 C 280.023438 394.734375 283.96875 389.960938 283.96875 384.074219 L 272.734375 127.675781 C 272.734375 121.785156 268.789062 117.011719 263.921875 117.011719 L 149.527344 117.011719 C 144.660156 117.011719 140.714844 121.785156 140.714844 127.675781 L 151.949219 384.074219 C 151.949219 389.960938 155.894531 394.734375 160.761719 394.734375 " fill-opacity="1" fill-rule="nonzero"/><path fill="#f96f5f" d="M 149.527344 117.289062 C 144.816406 117.289062 140.988281 121.949219 140.988281 127.675781 L 152.222656 384.0625 C 152.222656 389.800781 156.050781 394.460938 160.761719 394.460938 L 275.15625 394.460938 C 279.863281 394.460938 283.695312 389.800781 283.695312 384.074219 L 272.460938 127.6875 C 272.460938 121.949219 268.632812 117.289062 263.921875 117.289062 Z M 275.15625 395.007812 L 160.761719 395.007812 C 155.75 395.007812 151.675781 390.105469 151.675781 384.074219 L 140.441406 127.6875 C 140.441406 121.644531 144.515625 116.738281 149.527344 116.738281 L 263.921875 116.738281 C 268.929688 116.738281 273.007812 121.644531 273.007812 127.675781 L 284.242188 384.0625 C 284.242188 390.105469 280.164062 395.007812 275.15625 395.007812 " fill-opacity="1" fill-rule="nonzero"/><path fill="#000000" d="M 232.839844 106.082031 L 229.855469 111.40625 C 228.042969 114.636719 225.003906 116.574219 221.753906 116.574219 L 191.621094 116.574219 C 188.4375 116.574219 185.457031 114.71875 183.628906 111.601562 L 180.398438 106.082031 L 232.839844 106.082031 " fill-opacity="1" fill-rule="nonzero"/><path fill="#ffffff" d="M 253.964844 211.765625 C 252.160156 235.765625 230.277344 254.121094 206.332031 251.582031 C 183.683594 249.175781 163.902344 228.335938 165.710938 204.332031 C 167.515625 180.332031 188.976562 161.773438 212.878906 164.664062 C 234.964844 167.339844 255.773438 187.765625 253.964844 211.765625 " fill-opacity="1" fill-rule="nonzero"/><path fill="#000000" d="M 211.554688 252.195312 C 201.058594 252.195312 190.359375 248.617188 181.527344 241.324219 C 171.832031 233.320312 165.894531 222.214844 164.808594 210.058594 C 163.792969 198.695312 167.230469 187.71875 174.484375 179.15625 C 186.070312 165.472656 205.71875 160.527344 223.375 166.851562 C 223.804688 167.003906 224.023438 167.472656 223.871094 167.898438 C 223.71875 168.328125 223.25 168.546875 222.824219 168.394531 C 205.808594 162.300781 186.886719 167.054688 175.738281 180.214844 C 168.769531 188.445312 165.46875 198.992188 166.445312 209.914062 C 167.488281 221.628906 173.214844 232.332031 182.574219 240.058594 C 201.246094 255.476562 228.558594 253.703125 243.460938 236.105469 C 244.894531 234.414062 246.1875 232.597656 247.308594 230.714844 C 247.542969 230.324219 248.046875 230.199219 248.4375 230.429688 C 248.824219 230.660156 248.953125 231.164062 248.722656 231.550781 C 247.554688 233.519531 246.203125 235.40625 244.710938 237.167969 C 236.296875 247.105469 224.066406 252.195312 211.554688 252.195312 " fill-opacity="1" fill-rule="nonzero"/><path fill="#f96f5f" d="M 197.324219 221.945312 L 196.082031 194.90625 C 196.019531 193.523438 197.460938 192.625 198.761719 193.238281 L 227.109375 206.589844 C 228.550781 207.269531 228.652344 209.226562 227.28125 209.917969 L 200.171875 223.609375 C 198.933594 224.234375 197.390625 223.335938 197.324219 221.945312 " fill-opacity="1" fill-rule="nonzero"/><path fill="#e7f0ff" d="M 179.023438 363.890625 L 257.125 363.890625 C 262.417969 363.890625 266.710938 359.597656 266.710938 354.308594 L 266.710938 354.265625 C 266.710938 348.96875 262.417969 344.675781 257.125 344.675781 L 179.023438 344.675781 C 173.730469 344.675781 169.4375 348.96875 169.4375 354.265625 L 169.4375 354.308594 C 169.4375 359.597656 173.730469 363.890625 179.023438 363.890625 " fill-opacity="1" fill-rule="nonzero"/><path fill="#e7f0ff" d="M 179.023438 328.988281 L 257.125 328.988281 C 262.417969 328.988281 266.710938 324.695312 266.710938 319.398438 L 266.710938 319.359375 C 266.710938 314.066406 262.417969 309.773438 257.125 309.773438 L 179.023438 309.773438 C 173.730469 309.773438 169.4375 314.066406 169.4375 319.359375 L 169.4375 319.398438 C 169.4375 324.695312 173.730469 328.988281 179.023438 328.988281 " fill-opacity="1" fill-rule="nonzero"/><path fill="#000000" d="M 117.84375 325.65625 C 115.550781 325.65625 114.105469 325.28125 114.0625 325.273438 C 113.628906 325.152344 113.371094 324.703125 113.488281 324.265625 C 113.605469 323.824219 114.054688 323.570312 114.496094 323.6875 C 114.957031 323.808594 125.910156 326.578125 135.523438 314.992188 C 135.8125 314.640625 136.328125 314.597656 136.679688 314.886719 C 137.027344 315.171875 137.078125 315.691406 136.789062 316.042969 C 129.976562 324.246094 122.304688 325.65625 117.84375 325.65625 " fill-opacity="1" fill-rule="nonzero"/><path fill="#ffffff" d="M 130.988281 250.960938 C 134.972656 250.699219 145.515625 250.929688 147.230469 267.632812 C 148.460938 279.621094 145.519531 312.855469 129.183594 321.59375 L 130.988281 250.960938 " fill-opacity="1" fill-rule="nonzero"/><path fill="#000000" d="M 129.183594 322.417969 C 128.890625 322.417969 128.605469 322.257812 128.460938 321.980469 C 128.246094 321.582031 128.398438 321.082031 128.796875 320.871094 C 144.375 312.535156 147.667969 279.917969 146.414062 267.714844 C 145.285156 256.695312 139.96875 251.183594 131.039062 251.78125 C 130.589844 251.800781 130.199219 251.46875 130.167969 251.015625 C 130.136719 250.566406 130.480469 250.175781 130.933594 250.144531 C 140.746094 249.496094 146.828125 255.667969 148.046875 267.550781 C 149.167969 278.453125 146.789062 313.105469 129.570312 322.320312 C 129.449219 322.382812 129.316406 322.417969 129.183594 322.417969 " fill-opacity="1" fill-rule="nonzero"/><path fill="#e7f0ff" d="M 268.941406 234.910156 C 265.40625 236.425781 261.09375 234.285156 259.335938 230.132812 L 237.535156 178.734375 L 250.292969 173.265625 L 272.128906 224.761719 C 273.871094 228.875 272.445312 233.410156 268.941406 234.910156 " fill-opacity="1" fill-rule="nonzero"/><path fill="#000000" d="M 238.613281 179.164062 L 260.09375 229.8125 C 260.941406 231.816406 262.480469 233.390625 264.324219 234.128906 C 265.773438 234.714844 267.296875 234.722656 268.617188 234.15625 C 271.699219 232.835938 272.9375 228.765625 271.371094 225.082031 L 249.859375 174.347656 Z M 268.941406 234.910156 L 268.945312 234.910156 Z M 266.554688 236.21875 C 265.609375 236.21875 264.648438 236.03125 263.710938 235.652344 C 261.46875 234.75 259.601562 232.855469 258.578125 230.453125 L 236.78125 179.050781 C 236.605469 178.636719 236.800781 178.152344 237.214844 177.976562 L 249.96875 172.511719 C 250.167969 172.429688 250.394531 172.421875 250.597656 172.503906 C 250.800781 172.585938 250.960938 172.746094 251.046875 172.945312 L 272.886719 224.4375 C 274.800781 228.957031 273.171875 233.992188 269.265625 235.664062 C 268.40625 236.03125 267.488281 236.21875 266.554688 236.21875 " fill-opacity="1" fill-rule="nonzero"/><path fill="#ffffff" d="M 278.226562 142.269531 L 243.371094 160.0625 L 229.199219 170.976562 L 223.109375 178.789062 L 223.070312 178.851562 C 221.898438 180.1875 221.933594 183.671875 223.203125 187.40625 C 224.464844 191.09375 226.578125 193.835938 228.3125 194.234375 L 228.253906 194.253906 L 237.363281 196.640625 L 255.097656 196.464844 L 293.828125 188.804688 L 338.347656 203.5 L 338.667969 203.558594 C 327.46875 199.722656 314.273438 182.03125 306.273438 158.59375 C 298.28125 135.179688 297.90625 113.171875 304.417969 103.320312 L 304.40625 103.3125 L 278.558594 141.777344 L 278.226562 142.269531 " fill-opacity="1" fill-rule="nonzero"/><path fill="#000000" d="M 293.828125 187.980469 C 293.914062 187.980469 294 187.996094 294.085938 188.023438 L 331.222656 200.285156 C 321.554688 192.800781 311.824219 177.394531 305.496094 158.859375 C 299.210938 140.441406 297.480469 122.433594 300.484375 110.625 L 279.238281 142.234375 C 279.179688 142.320312 279.109375 142.394531 279.027344 142.449219 C 278.976562 142.679688 278.828125 142.882812 278.601562 143 L 243.8125 160.761719 L 229.78125 171.566406 L 223.75 179.308594 C 223.730469 179.339844 223.707031 179.367188 223.6875 179.394531 C 222.867188 180.328125 222.695312 183.359375 223.980469 187.140625 C 225.246094 190.84375 227.253906 193.148438 228.496094 193.4375 C 228.582031 193.457031 228.660156 193.488281 228.734375 193.53125 L 237.46875 195.816406 L 255.011719 195.644531 L 293.667969 187.996094 C 293.722656 187.988281 293.777344 187.980469 293.828125 187.980469 Z M 338.671875 204.378906 C 338.621094 204.378906 338.574219 204.375 338.523438 204.367188 L 338.203125 204.308594 C 338.164062 204.300781 338.125 204.292969 338.089844 204.28125 L 293.777344 189.648438 L 255.257812 197.269531 C 255.207031 197.28125 255.15625 197.285156 255.105469 197.285156 L 237.371094 197.460938 C 237.296875 197.457031 237.226562 197.453125 237.15625 197.433594 L 228.046875 195.046875 C 227.957031 195.023438 227.878906 194.988281 227.808594 194.941406 C 225.828125 194.253906 223.699219 191.398438 222.429688 187.667969 C 221.070312 183.691406 221.066406 179.957031 222.414062 178.351562 L 222.429688 178.332031 L 222.464844 178.285156 L 228.550781 170.472656 C 228.589844 170.417969 228.640625 170.367188 228.695312 170.324219 L 242.867188 159.414062 C 242.90625 159.382812 242.953125 159.355469 243 159.332031 L 277.757812 141.585938 C 277.78125 141.492188 277.820312 141.402344 277.878906 141.316406 L 303.726562 102.859375 C 303.976562 102.484375 304.484375 102.378906 304.863281 102.632812 C 305.242188 102.882812 305.351562 103.394531 305.101562 103.773438 C 298.523438 113.722656 299.308594 135.644531 307.054688 158.328125 C 314.804688 181.042969 327.617188 198.90625 338.933594 202.78125 C 339.339844 202.917969 339.570312 203.347656 339.464844 203.761719 C 339.367188 204.128906 339.035156 204.378906 338.671875 204.378906 " fill-opacity="1" fill-rule="nonzero"/><path fill="#f96f5f" d="M 350.40625 143.660156 C 360.335938 172.753906 358.507812 199.675781 346.320312 203.800781 C 334.132812 207.921875 316.207031 187.683594 306.273438 158.59375 C 296.34375 129.5 298.171875 102.578125 310.359375 98.453125 C 322.542969 94.328125 340.476562 114.570312 350.40625 143.660156 " fill-opacity="1" fill-rule="nonzero"/><path fill="#f96f5f" d="M 343.007812 205.15625 C 337.515625 205.15625 331.203125 201.378906 324.839844 194.195312 C 317.203125 185.578125 310.335938 173.027344 305.496094 158.859375 C 298.15625 137.355469 296.980469 116.230469 302.496094 105.035156 C 304.375 101.222656 306.933594 98.746094 310.097656 97.675781 C 316.761719 95.421875 325.339844 99.96875 333.625 110.164062 C 333.914062 110.511719 333.859375 111.03125 333.507812 111.316406 C 333.15625 111.601562 332.636719 111.546875 332.351562 111.195312 C 324.523438 101.566406 316.605469 97.207031 310.621094 99.230469 C 307.886719 100.15625 305.648438 102.355469 303.96875 105.761719 C 298.636719 116.585938 299.847656 137.21875 307.054688 158.328125 C 315.988281 184.511719 331.402344 203.523438 342.949219 203.523438 C 344.019531 203.523438 345.058594 203.359375 346.058594 203.023438 C 348.792969 202.097656 351.03125 199.898438 352.710938 196.492188 C 358.042969 185.667969 356.835938 165.035156 349.628906 143.925781 C 349.484375 143.496094 349.710938 143.03125 350.140625 142.882812 C 350.570312 142.738281 351.035156 142.964844 351.183594 143.394531 C 358.523438 164.894531 359.699219 186.023438 354.183594 197.21875 C 352.304688 201.03125 349.75 203.507812 346.582031 204.578125 C 345.4375 204.964844 344.242188 205.15625 343.007812 205.15625 " fill-opacity="1" fill-rule="nonzero"/><path fill="#e7f0ff" d="M 341.511719 198.898438 C 336.628906 198.898438 331.027344 195.550781 325.378906 189.179688 C 318.628906 181.554688 312.546875 170.449219 308.269531 157.914062 C 301.773438 138.890625 300.738281 120.1875 305.625 110.269531 C 307.296875 106.878906 309.574219 104.675781 312.394531 103.722656 C 317.757812 101.90625 324.402344 104.9375 331.113281 112.253906 C 331.417969 112.585938 331.394531 113.105469 331.0625 113.414062 C 330.726562 113.71875 330.207031 113.695312 329.902344 113.363281 C 323.660156 106.554688 317.628906 103.683594 312.921875 105.277344 C 310.527344 106.085938 308.570312 108.011719 307.097656 111 C 302.394531 120.542969 303.464844 138.75 309.824219 157.382812 C 318.441406 182.625 333.855469 200.320312 344.175781 196.824219 C 353.515625 193.667969 355.664062 173.890625 349.175781 150.828125 C 349.054688 150.390625 349.308594 149.941406 349.742188 149.816406 C 350.179688 149.695312 350.632812 149.949219 350.753906 150.386719 C 357.597656 174.695312 355.050781 194.878906 344.703125 198.378906 C 343.683594 198.730469 342.617188 198.898438 341.511719 198.898438 " fill-opacity="1" fill-rule="nonzero"/><path fill="#ffffff" d="M 278.304688 142.152344 L 304.40625 103.3125 L 304.417969 103.320312 C 297.90625 113.171875 298.28125 135.179688 306.273438 158.59375 C 314.273438 182.03125 327.46875 199.722656 338.667969 203.558594 L 338.347656 203.5 L 293.902344 188.828125 L 292.871094 188.492188 C 287.710938 186.757812 281.65625 178.78125 278.0625 168.175781 C 274.371094 157.285156 274.960938 147.070312 277.976562 142.625 L 278.304688 142.152344 " fill-opacity="1" fill-rule="nonzero"/><path fill="#000000" d="M 278.304688 142.152344 L 278.308594 142.152344 Z M 300.484375 110.625 L 278.988281 142.609375 L 278.980469 142.621094 L 278.652344 143.09375 C 275.929688 147.105469 275.117188 156.921875 278.839844 167.914062 C 282.21875 177.882812 288.097656 186.023438 293.132812 187.714844 L 294.15625 188.046875 L 331.222656 200.285156 C 321.554688 192.800781 311.824219 177.394531 305.496094 158.859375 C 299.210938 140.441406 297.480469 122.433594 300.484375 110.625 Z M 338.671875 204.378906 C 338.621094 204.378906 338.574219 204.375 338.523438 204.367188 L 338.203125 204.308594 C 338.164062 204.300781 338.125 204.292969 338.089844 204.28125 L 292.617188 189.273438 C 287.03125 187.398438 280.875 179.027344 277.285156 168.4375 C 273.792969 158.128906 273.796875 147.324219 277.296875 142.164062 L 277.628906 141.691406 L 303.726562 102.859375 C 303.976562 102.484375 304.484375 102.378906 304.863281 102.632812 C 305.242188 102.882812 305.351562 103.394531 305.101562 103.773438 C 298.523438 113.722656 299.308594 135.644531 307.054688 158.328125 C 314.804688 181.042969 327.617188 198.90625 338.933594 202.78125 C 339.339844 202.917969 339.570312 203.347656 339.464844 203.761719 C 339.367188 204.128906 339.035156 204.378906 338.671875 204.378906 " fill-opacity="1" fill-rule="nonzero"/><path fill="#e7f0ff" d="M 237.128906 196.625 C 234.3125 195.996094 230.9375 191.359375 228.882812 185.34375 C 226.707031 178.96875 226.902344 172.738281 229.101562 170.84375 L 222.789062 178.8125 L 222.746094 178.875 C 221.578125 180.210938 221.609375 183.695312 222.882812 187.429688 C 224.144531 191.117188 226.257812 193.863281 227.988281 194.257812 L 227.933594 194.28125 L 237.128906 196.625 " fill-opacity="1" fill-rule="nonzero"/><path fill="#000000" d="M 228.40625 193.554688 L 233.066406 194.742188 C 231.179688 192.613281 229.402344 189.398438 228.105469 185.609375 C 226.851562 181.925781 226.355469 178.238281 226.601562 175.324219 L 223.425781 179.335938 C 223.40625 179.367188 223.386719 179.394531 223.363281 179.417969 C 222.542969 180.351562 222.371094 183.386719 223.660156 187.164062 C 224.925781 190.871094 226.929688 193.171875 228.171875 193.460938 C 228.257812 193.480469 228.332031 193.511719 228.40625 193.554688 Z M 237.128906 197.449219 C 237.070312 197.449219 237.011719 197.441406 236.953125 197.429688 C 236.875 197.410156 236.800781 197.394531 236.726562 197.371094 L 227.726562 195.074219 C 227.640625 195.050781 227.558594 195.015625 227.484375 194.96875 C 225.503906 194.277344 223.378906 191.421875 222.105469 187.695312 C 220.746094 183.714844 220.742188 179.984375 222.089844 178.378906 L 222.105469 178.355469 L 222.144531 178.304688 L 227.691406 171.296875 C 227.941406 170.867188 228.230469 170.507812 228.566406 170.222656 C 228.882812 169.945312 229.363281 169.957031 229.667969 170.25 C 229.972656 170.542969 230.003906 171.019531 229.742188 171.351562 L 229.027344 172.257812 C 227.839844 174.449219 227.734375 179.433594 229.660156 185.078125 C 231.550781 190.621094 234.667969 195.0625 237.136719 195.78125 L 237.332031 195.832031 C 237.765625 195.941406 238.03125 196.382812 237.929688 196.820312 C 237.835938 197.191406 237.5 197.449219 237.128906 197.449219 " fill-opacity="1" fill-rule="nonzero"/><path fill="#ffffff" d="M 254.453125 196.46875 L 255.207031 196.433594 C 251.09375 196.667969 245.707031 189.703125 242.550781 180.457031 C 239.332031 171.027344 239.773438 162.160156 243.371094 160.0625 L 242.894531 160.429688 L 229.460938 170.785156 C 227.230469 172.640625 227.019531 178.90625 229.207031 185.316406 C 231.320312 191.503906 234.902344 196.210938 237.761719 196.625 L 254.453125 196.46875 " fill-opacity="1" fill-rule="nonzero"/><path fill="#000000" d="M 240.160156 163.574219 L 229.960938 171.4375 C 228.242188 172.867188 227.742188 178.496094 229.984375 185.050781 C 232.207031 191.566406 235.664062 195.4375 237.824219 195.804688 L 251.050781 195.679688 C 247.632812 193.117188 244.132812 187.632812 241.773438 180.722656 C 239.503906 174.074219 239.003906 167.714844 240.160156 163.574219 Z M 237.761719 197.449219 C 237.722656 197.449219 237.6875 197.445312 237.644531 197.4375 C 234.445312 196.976562 230.652344 192.101562 228.429688 185.582031 C 226.15625 178.921875 226.375 172.285156 228.9375 170.152344 L 242.09375 160.007812 C 242.363281 159.753906 242.648438 159.53125 242.957031 159.355469 C 243.332031 159.136719 243.808594 159.246094 244.050781 159.605469 C 244.292969 159.964844 244.214844 160.449219 243.871094 160.714844 L 243.175781 161.246094 C 240.820312 163.625 240.214844 171.066406 243.328125 180.191406 C 246.335938 189.007812 251.492188 195.757812 255.113281 195.617188 L 255.164062 195.613281 C 255.621094 195.605469 256.003906 195.9375 256.023438 196.390625 C 256.046875 196.84375 255.703125 197.226562 255.253906 197.253906 L 255.195312 197.257812 L 254.488281 197.292969 L 254.457031 197.292969 L 237.769531 197.449219 L 237.761719 197.449219 " fill-opacity="1" fill-rule="nonzero"/><path fill="#000000" d="M 317.539062 141.210938 C 314.714844 142.164062 314.171875 148.441406 316.59375 155.136719 C 320.652344 166.363281 325.292969 165.800781 325.84375 165.6875 L 325.851562 165.707031 L 315.0625 172.027344 C 312.832031 167.625 310.792969 162.800781 309.039062 157.65625 C 307.351562 152.726562 306.058594 147.867188 305.136719 143.210938 L 317.539062 141.210938 " fill-opacity="1" fill-rule="nonzero"/><path fill="#000000" d="M 306.109375 143.886719 C 307.03125 148.34375 308.273438 152.882812 309.8125 157.390625 C 311.417969 162.101562 313.300781 166.632812 315.402344 170.875 L 323.46875 166.148438 C 321.402344 165.28125 318.457031 162.703125 315.820312 155.414062 C 314.015625 150.425781 313.730469 145.375 315.097656 142.542969 C 315.113281 142.503906 315.132812 142.464844 315.152344 142.429688 Z M 314.722656 173.175781 L 314.328125 172.398438 C 312.03125 167.863281 309.992188 162.996094 308.257812 157.921875 C 306.601562 153.0625 305.277344 148.167969 304.332031 143.371094 L 304.167969 142.535156 L 317.410156 140.398438 L 317.804688 141.988281 C 317.316406 142.15625 316.898438 142.582031 316.574219 143.257812 C 315.605469 145.265625 315.476562 149.628906 317.367188 154.855469 C 321.261719 165.636719 325.507812 164.921875 325.683594 164.882812 L 326.375 164.746094 L 326.855469 166.046875 L 326.273438 166.410156 L 314.722656 173.175781 " fill-opacity="1" fill-rule="nonzero"/><path fill="#e7f0ff" d="M 326.824219 151.710938 C 329.265625 158.871094 328.960938 165.449219 326.136719 166.402344 C 323.316406 167.359375 319.046875 162.328125 316.605469 155.167969 C 314.160156 148.007812 314.46875 141.429688 317.289062 140.476562 C 320.109375 139.523438 324.378906 144.550781 326.824219 151.710938 " fill-opacity="1" fill-rule="nonzero"/><path fill="#ffffff" d="M 258.382812 342.699219 C 258.320312 341.25 259.558594 339.964844 261.027344 339.964844 L 391.199219 339.964844 C 391.941406 339.964844 392.523438 340.515625 392.558594 341.257812 L 396.367188 419.523438 C 396.40625 420.320312 395.71875 421.035156 394.910156 421.035156 L 263.488281 421.035156 C 262.742188 421.035156 262.160156 420.480469 262.128906 419.742188 L 258.382812 342.699219 " fill-opacity="1" fill-rule="nonzero"/><path fill="#f96f5f" d="M 261.027344 339.964844 C 259.558594 339.964844 258.320312 341.25 258.382812 342.699219 L 258.816406 349.167969 L 393.136719 349.148438 L 392.558594 341.257812 C 392.523438 340.515625 391.941406 339.964844 391.199219 339.964844 L 261.027344 339.964844 " fill-opacity="1" fill-rule="nonzero"/><path fill="#e7f0ff" d="M 336.105469 344.976562 C 336.066406 344.058594 336.855469 343.242188 337.789062 343.242188 L 385.90625 343.242188 C 386.6875 343.242188 387.292969 343.820312 387.328125 344.589844 C 387.367188 345.507812 386.578125 346.320312 385.644531 346.320312 L 337.527344 346.320312 C 336.746094 346.320312 336.140625 345.746094 336.105469 344.976562 " fill-opacity="1" fill-rule="nonzero"/><path fill="#f96f5f" d="M 395.957031 410.285156 L 396.371094 419.472656 C 396.410156 420.269531 395.734375 420.867188 394.925781 420.867188 L 263.5 420.867188 C 262.757812 420.867188 262.164062 420.429688 262.132812 419.6875 L 261.707031 410.285156 L 395.957031 410.285156 " fill-opacity="1" fill-rule="nonzero"/><path fill="#e7f0ff" d="M 266.191406 344.976562 C 266.152344 344.058594 266.941406 343.242188 267.875 343.242188 L 272.269531 343.242188 C 273.042969 343.242188 273.65625 343.820312 273.6875 344.589844 C 273.726562 345.507812 272.9375 346.320312 272.003906 346.320312 L 267.613281 346.320312 C 266.832031 346.320312 266.222656 345.746094 266.191406 344.976562 " fill-opacity="1" fill-rule="nonzero"/><path fill="#e7f0ff" d="M 267.503906 415.714844 C 267.464844 414.792969 268.253906 413.980469 269.1875 413.980469 L 377.113281 413.980469 C 377.894531 413.980469 378.5 414.554688 378.535156 415.324219 C 378.574219 416.246094 377.785156 417.058594 376.851562 417.058594 L 268.921875 417.058594 C 268.144531 417.058594 267.535156 416.484375 267.503906 415.714844 " fill-opacity="1" fill-rule="nonzero"/><path fill="#6ce5e8" d="M 267.503906 415.714844 C 267.464844 414.792969 268.253906 413.980469 269.1875 413.980469 L 324.617188 413.980469 L 324.226562 417.058594 L 268.921875 417.058594 C 268.144531 417.058594 267.535156 416.484375 267.503906 415.714844 " fill-opacity="1" fill-rule="nonzero"/><path fill="#ffffff" d="M 321.675781 415.644531 C 321.539062 417.183594 322.6875 418.433594 324.238281 418.433594 C 325.785156 418.433594 327.148438 417.183594 327.28125 415.644531 C 327.410156 414.101562 326.261719 412.851562 324.714844 412.851562 C 323.164062 412.851562 321.804688 414.101562 321.675781 415.644531 " fill-opacity="1" fill-rule="nonzero"/><path fill="#000000" d="M 261.027344 340.785156 C 260.542969 340.785156 260.066406 341 259.714844 341.367188 C 259.367188 341.726562 259.183594 342.199219 259.203125 342.664062 L 262.949219 419.707031 C 262.960938 420.003906 263.183594 420.210938 263.488281 420.210938 L 394.910156 420.210938 C 395.078125 420.210938 395.242188 420.136719 395.371094 420.003906 C 395.488281 419.878906 395.554688 419.714844 395.546875 419.5625 L 391.734375 341.296875 C 391.722656 340.992188 391.503906 340.785156 391.199219 340.785156 Z M 394.910156 421.855469 L 263.488281 421.855469 C 262.300781 421.855469 261.359375 420.964844 261.308594 419.78125 L 257.5625 342.742188 C 257.523438 341.828125 257.875 340.914062 258.527344 340.230469 C 259.191406 339.542969 260.101562 339.144531 261.027344 339.144531 L 391.199219 339.144531 C 392.386719 339.144531 393.324219 340.039062 393.375 341.21875 L 397.1875 419.484375 C 397.214844 420.082031 396.988281 420.6875 396.558594 421.136719 C 396.125 421.59375 395.523438 421.855469 394.910156 421.855469 " fill-opacity="1" fill-rule="nonzero"/><path fill="#000000" d="M 329.550781 394.871094 C 328.277344 394.871094 326.980469 394.691406 325.695312 394.320312 C 325.257812 394.195312 325.007812 393.742188 325.132812 393.304688 C 325.257812 392.871094 325.710938 392.617188 326.148438 392.742188 C 330.691406 394.050781 335.390625 392.660156 338.117188 389.199219 C 342.007812 384.273438 340.84375 376.730469 335.523438 372.390625 C 332.824219 370.195312 329.394531 369.136719 326.117188 369.5 C 323.195312 369.820312 320.613281 371.226562 318.851562 373.460938 C 317.632812 375 316.867188 376.875 316.628906 378.875 C 316.578125 379.320312 316.167969 379.648438 315.71875 379.59375 C 315.269531 379.539062 314.945312 379.132812 315 378.679688 C 315.273438 376.378906 316.160156 374.222656 317.5625 372.441406 C 319.597656 369.863281 322.574219 368.234375 325.9375 367.867188 C 329.648438 367.460938 333.523438 368.644531 336.558594 371.121094 C 342.570312 376.023438 343.851562 384.589844 339.410156 390.21875 C 337.042969 393.21875 333.410156 394.871094 329.550781 394.871094 " fill-opacity="1" fill-rule="nonzero"/><path fill="#f96f5f" d="M 325.113281 385.386719 L 324.433594 377.429688 C 324.398438 377.023438 324.804688 376.757812 325.183594 376.9375 L 333.515625 380.867188 C 333.9375 381.066406 333.988281 381.640625 333.601562 381.847656 L 325.953125 385.875 C 325.601562 386.058594 325.148438 385.792969 325.113281 385.386719 " fill-opacity="1" fill-rule="nonzero"/><path fill="#ffffff" d="M 7.242188 71.417969 C 7.148438 69.773438 8.542969 68.316406 10.210938 68.316406 L 158.433594 68.316406 C 159.28125 68.316406 159.953125 68.941406 160 69.777344 L 165.453125 158.640625 C 165.507812 159.546875 164.738281 160.355469 163.816406 160.355469 L 14.171875 160.355469 C 13.324219 160.355469 12.652344 159.726562 12.605469 158.890625 L 7.242188 71.417969 " fill-opacity="1" fill-rule="nonzero"/><path fill="#f96f5f" d="M 10.210938 68.316406 C 8.542969 68.316406 7.148438 69.773438 7.242188 71.417969 L 7.828125 78.761719 L 160.773438 78.738281 L 160 69.777344 C 159.953125 68.941406 159.28125 68.316406 158.433594 68.316406 L 10.210938 68.316406 " fill-opacity="1" fill-rule="nonzero"/><path fill="#f96f5f" d="M 164.839844 148.328125 L 165.453125 158.628906 C 165.511719 159.539062 164.757812 160.089844 163.835938 160.089844 L 14.191406 160.089844 C 13.34375 160.089844 12.652344 159.71875 12.605469 158.878906 L 11.976562 148.328125 L 164.839844 148.328125 " fill-opacity="1" fill-rule="nonzero"/><path fill="#f96f5f" d="M 57.828125 97.953125 L 21.691406 97.953125 C 20.632812 97.953125 19.777344 97.097656 19.777344 96.039062 C 19.777344 94.980469 20.632812 94.125 21.691406 94.125 L 57.828125 94.125 C 58.886719 94.125 59.746094 94.980469 59.746094 96.039062 C 59.746094 97.097656 58.886719 97.953125 57.828125 97.953125 " fill-opacity="1" fill-rule="nonzero"/><path fill="#f96f5f" d="M 58.902344 109.726562 L 23.730469 109.726562 C 22.671875 109.726562 21.8125 108.871094 21.8125 107.8125 C 21.8125 106.753906 22.671875 105.898438 23.730469 105.898438 L 58.902344 105.898438 C 59.960938 105.898438 60.816406 106.753906 60.816406 107.8125 C 60.816406 108.871094 59.960938 109.726562 58.902344 109.726562 " fill-opacity="1" fill-rule="nonzero"/><path fill="#f96f5f" d="M 31.914062 120.40625 L 23.914062 120.40625 C 22.855469 120.40625 22 119.546875 22 118.488281 C 22 117.433594 22.855469 116.574219 23.914062 116.574219 L 31.914062 116.574219 C 32.972656 116.574219 33.828125 117.433594 33.828125 118.488281 C 33.828125 119.546875 32.972656 120.40625 31.914062 120.40625 " fill-opacity="1" fill-rule="nonzero"/><path fill="#f96f5f" d="M 68.058594 131.625 L 24.472656 131.625 C 23.414062 131.625 22.558594 130.769531 22.558594 129.710938 C 22.558594 128.65625 23.414062 127.796875 24.472656 127.796875 L 68.058594 127.796875 C 69.117188 127.796875 69.972656 128.65625 69.972656 129.710938 C 69.972656 130.769531 69.117188 131.625 68.058594 131.625 " fill-opacity="1" fill-rule="nonzero"/><path fill="#e7f0ff" d="M 18.667969 154.316406 C 18.609375 153.269531 19.5 152.34375 20.5625 152.34375 L 157.914062 152.34375 C 158.800781 152.34375 159.503906 153 159.550781 153.871094 C 159.609375 154.917969 158.722656 155.839844 157.660156 155.839844 L 20.304688 155.839844 C 19.417969 155.839844 18.71875 155.1875 18.667969 154.316406 " fill-opacity="1" fill-rule="nonzero"/><path fill="#6ce5e8" d="M 18.667969 154.316406 C 18.609375 153.269531 19.5 152.34375 20.5625 152.34375 L 47.953125 152.34375 L 47.550781 155.839844 L 20.304688 155.839844 C 19.417969 155.839844 18.71875 155.1875 18.667969 154.316406 " fill-opacity="1" fill-rule="nonzero"/><path fill="#ffffff" d="M 44.769531 154.234375 C 44.648438 155.902344 45.910156 157.25 47.589844 157.25 C 49.269531 157.25 50.730469 155.902344 50.851562 154.234375 C 50.972656 152.570312 49.710938 151.214844 48.03125 151.214844 C 46.351562 151.214844 44.890625 152.570312 44.769531 154.234375 " fill-opacity="1" fill-rule="nonzero"/><path fill="#000000" d="M 10.210938 69.132812 C 9.632812 69.132812 9.066406 69.386719 8.648438 69.824219 C 8.242188 70.253906 8.03125 70.820312 8.0625 71.375 L 13.425781 158.84375 C 13.449219 159.242188 13.761719 159.53125 14.171875 159.53125 L 163.816406 159.53125 C 164.035156 159.53125 164.253906 159.433594 164.414062 159.265625 C 164.566406 159.101562 164.648438 158.894531 164.632812 158.6875 L 159.179688 69.828125 C 159.15625 69.421875 158.84375 69.132812 158.433594 69.132812 Z M 163.816406 161.175781 L 14.171875 161.175781 C 12.882812 161.175781 11.859375 160.214844 11.785156 158.941406 L 6.421875 71.46875 C 6.363281 70.464844 6.742188 69.453125 7.457031 68.699219 C 8.179688 67.933594 9.1875 67.492188 10.210938 67.492188 L 158.433594 67.492188 C 159.71875 67.492188 160.746094 68.457031 160.816406 69.730469 L 166.273438 158.589844 C 166.3125 159.242188 166.070312 159.898438 165.609375 160.390625 C 165.140625 160.886719 164.488281 161.175781 163.816406 161.175781 " fill-opacity="1" fill-rule="nonzero"/><path fill="#ffffff" d="M 458.421875 194.921875 C 459.851562 194.921875 461.011719 196.082031 461.011719 197.515625 L 461.011719 215.371094 C 461.011719 216.804688 459.851562 217.964844 458.421875 217.964844 L 409.214844 217.964844 C 407.785156 217.964844 406.621094 216.804688 406.621094 215.371094 L 406.621094 197.515625 C 406.621094 196.082031 407.785156 194.921875 409.214844 194.921875 L 458.421875 194.921875 " fill-opacity="1" fill-rule="nonzero"/><path fill="#6ce5e8" d="M 458.421875 218.785156 L 409.214844 218.785156 C 407.335938 218.785156 405.800781 217.253906 405.800781 215.371094 L 405.800781 197.515625 C 405.800781 195.632812 407.335938 194.101562 409.214844 194.101562 L 418.921875 194.101562 C 419.375 194.101562 419.742188 194.46875 419.742188 194.921875 C 419.742188 195.375 419.375 195.742188 418.921875 195.742188 L 409.214844 195.742188 C 408.238281 195.742188 407.445312 196.539062 407.445312 197.515625 L 407.445312 215.371094 C 407.445312 216.351562 408.238281 217.144531 409.214844 217.144531 L 458.421875 217.144531 C 459.398438 217.144531 460.191406 216.351562 460.191406 215.371094 L 460.191406 197.515625 C 460.191406 196.539062 459.398438 195.742188 458.421875 195.742188 L 425.464844 195.742188 C 425.011719 195.742188 424.644531 195.375 424.644531 194.921875 C 424.644531 194.46875 425.011719 194.101562 425.464844 194.101562 L 458.421875 194.101562 C 460.300781 194.101562 461.832031 195.632812 461.832031 197.515625 L 461.832031 215.371094 C 461.832031 217.253906 460.300781 218.785156 458.421875 218.785156 " fill-opacity="1" fill-rule="nonzero"/><path fill="#000000" d="M 453.832031 204.242188 L 414.730469 204.242188 C 414.273438 204.242188 413.90625 203.875 413.90625 203.421875 C 413.90625 202.964844 414.273438 202.597656 414.730469 202.597656 L 453.832031 202.597656 C 454.285156 202.597656 454.652344 202.964844 454.652344 203.421875 C 454.652344 203.875 454.285156 204.242188 453.832031 204.242188 " fill-opacity="1" fill-rule="nonzero"/><path fill="#000000" d="M 453.832031 209.46875 L 445.65625 209.46875 C 445.203125 209.46875 444.835938 209.101562 444.835938 208.648438 C 444.835938 208.195312 445.203125 207.828125 445.65625 207.828125 L 453.832031 207.828125 C 454.285156 207.828125 454.652344 208.195312 454.652344 208.648438 C 454.652344 209.101562 454.285156 209.46875 453.832031 209.46875 " fill-opacity="1" fill-rule="nonzero"/><path fill="#000000" d="M 440.429688 209.46875 L 414.730469 209.46875 C 414.273438 209.46875 413.90625 209.101562 413.90625 208.648438 C 413.90625 208.195312 414.273438 207.828125 414.730469 207.828125 L 440.429688 207.828125 C 440.882812 207.828125 441.25 208.195312 441.25 208.648438 C 441.25 209.101562 440.882812 209.46875 440.429688 209.46875 " fill-opacity="1" fill-rule="nonzero"/><path fill="#ffffff" d="M 334.941406 124.71875 C 334.941406 115.675781 342.269531 108.351562 351.308594 108.351562 C 360.34375 108.351562 367.671875 115.675781 367.671875 124.71875 C 367.671875 133.757812 360.34375 141.085938 351.308594 141.085938 C 342.269531 141.085938 334.941406 133.757812 334.941406 124.71875 " fill-opacity="1" fill-rule="nonzero"/><path fill="#f96f5f" d="M 356.40625 126.511719 C 355.40625 126.507812 354.523438 126.992188 353.953125 127.730469 L 347.933594 125.386719 C 347.941406 125.308594 347.957031 125.234375 347.957031 125.152344 C 347.957031 125 347.933594 124.855469 347.914062 124.710938 L 354.082031 121.851562 C 354.652344 122.507812 355.480469 122.925781 356.410156 122.929688 C 358.121094 122.929688 359.519531 121.527344 359.519531 119.796875 C 359.519531 118.070312 358.125 116.660156 356.410156 116.65625 C 354.691406 116.652344 353.292969 118.058594 353.292969 119.785156 C 353.292969 119.933594 353.320312 120.078125 353.339844 120.226562 L 347.167969 123.085938 C 346.597656 122.433594 345.769531 122.011719 344.84375 122.011719 C 343.128906 122.007812 341.730469 123.410156 341.730469 125.140625 C 341.730469 126.867188 343.125 128.277344 344.84375 128.28125 C 345.84375 128.28125 346.726562 127.796875 347.292969 127.058594 L 353.316406 129.402344 C 353.3125 129.484375 353.292969 129.558594 353.292969 129.640625 C 353.292969 131.367188 354.6875 132.777344 356.40625 132.78125 C 358.121094 132.785156 359.519531 131.378906 359.519531 129.652344 C 359.519531 127.921875 358.121094 126.511719 356.40625 126.511719 " fill-opacity="1" fill-rule="nonzero"/><path fill="#ffffff" d="M 380.074219 159.464844 C 380.074219 147.566406 389.714844 137.925781 401.605469 137.925781 C 413.5 137.925781 423.136719 147.566406 423.136719 159.464844 C 423.136719 171.359375 413.5 181.003906 401.605469 181.003906 C 389.714844 181.003906 380.074219 171.359375 380.074219 159.464844 " fill-opacity="1" fill-rule="nonzero"/><path fill="#f96f5f" d="M 401.726562 170.296875 C 401.515625 170.429688 401.246094 170.433594 401.027344 170.3125 C 399.128906 169.253906 390.324219 163.949219 390.671875 157.007812 C 391.035156 149.671875 398.992188 150.945312 400.957031 154.554688 C 401.03125 154.691406 401.175781 154.773438 401.332031 154.765625 C 401.488281 154.757812 401.625 154.660156 401.683594 154.515625 C 402.648438 152.199219 405.761719 150.519531 408.691406 151.621094 C 412.1875 152.933594 415.742188 161.609375 401.726562 170.296875 " fill-opacity="1" fill-rule="nonzero"/><path fill="#ffffff" d="M 418.476562 116.699219 C 414.828125 107.027344 419.695312 96.1875 429.347656 92.480469 C 439 88.773438 449.78125 93.609375 453.425781 103.277344 C 457.074219 112.945312 452.207031 123.789062 442.554688 127.492188 C 432.902344 131.199219 422.125 126.367188 418.476562 116.699219 " fill-opacity="1" fill-rule="nonzero"/><path fill="#f96f5f" d="M 445.535156 114.726562 L 442.335938 112.429688 C 441.90625 112.136719 441.050781 112.074219 440.113281 112.714844 C 439.234375 113.320312 437.816406 114.261719 434.609375 111.09375 C 431.398438 107.929688 432.191406 106.398438 432.902344 105.601562 C 433.011719 105.480469 433.78125 104.324219 433.152344 103.367188 L 431.332031 100.898438 C 429.824219 99.007812 428.277344 100.804688 428.183594 100.90625 C 425.636719 103.753906 427.1875 109.289062 431.859375 113.902344 C 436.535156 118.515625 442.074219 119.976562 444.867188 117.371094 C 444.96875 117.28125 446.632812 115.589844 445.535156 114.726562 " fill-opacity="1" fill-rule="nonzero"/><path fill="#6ce5e8" d="M 437.058594 129.523438 C 436.628906 129.523438 436.269531 129.191406 436.242188 128.753906 C 436.210938 128.300781 436.554688 127.914062 437.007812 127.882812 C 438.796875 127.765625 440.566406 127.378906 442.261719 126.726562 C 451.476562 123.1875 456.140625 112.800781 452.660156 103.566406 C 450.972656 99.097656 447.652344 95.566406 443.308594 93.613281 C 438.960938 91.664062 434.105469 91.535156 429.640625 93.246094 C 425.25 94.933594 421.742188 98.21875 419.761719 102.496094 C 419.570312 102.90625 419.082031 103.085938 418.671875 102.894531 C 418.261719 102.707031 418.082031 102.21875 418.273438 101.804688 C 420.433594 97.136719 424.261719 93.554688 429.054688 91.714844 C 433.929688 89.839844 439.226562 89.984375 443.980469 92.117188 C 448.726562 94.25 452.355469 98.109375 454.195312 102.988281 C 457.996094 113.0625 452.90625 124.398438 442.847656 128.261719 C 441 128.96875 439.070312 129.394531 437.113281 129.519531 L 437.058594 129.523438 " fill-opacity="1" fill-rule="nonzero"/><path fill="#f96f5f" d="M 357.789062 68.417969 C 357.792969 57.375 366.746094 48.375 377.789062 48.316406 C 388.832031 48.257812 397.777344 57.164062 397.773438 68.207031 C 397.769531 79.25 388.8125 88.253906 377.773438 88.3125 C 366.730469 88.371094 357.78125 79.464844 357.789062 68.417969 " fill-opacity="1" fill-rule="nonzero"/><path fill="#ffffff" d="M 384.78125 58.636719 L 385.640625 58.636719 C 386.460938 58.636719 387.121094 59.300781 387.121094 60.117188 L 387.136719 76.492188 C 387.140625 77.3125 386.476562 77.972656 385.660156 77.976562 L 384.796875 77.976562 C 383.980469 77.976562 383.316406 77.3125 383.316406 76.496094 L 383.300781 60.121094 C 383.300781 59.304688 383.960938 58.640625 384.78125 58.636719 " fill-opacity="1" fill-rule="nonzero"/><path fill="#ffffff" d="M 377.34375 64.265625 L 378.207031 64.265625 C 379.023438 64.261719 379.6875 64.925781 379.691406 65.742188 L 379.699219 76.5 C 379.699219 77.320312 379.035156 77.980469 378.21875 77.980469 L 377.355469 77.984375 C 376.539062 77.984375 375.875 77.320312 375.875 76.503906 L 375.867188 65.75 C 375.867188 64.929688 376.527344 64.265625 377.34375 64.265625 " fill-opacity="1" fill-rule="nonzero"/><path fill="#ffffff" d="M 369.910156 71.449219 L 370.773438 71.449219 C 371.589844 71.449219 372.253906 72.109375 372.257812 72.925781 L 372.257812 76.507812 C 372.257812 77.324219 371.597656 77.988281 370.78125 77.988281 L 369.917969 77.988281 C 369.097656 77.992188 368.4375 77.328125 368.433594 76.507812 L 368.433594 72.933594 C 368.433594 72.113281 369.09375 71.449219 369.910156 71.449219 " fill-opacity="1" fill-rule="nonzero"/><path fill="#ffffff" d="M 361.457031 227.3125 C 371.554688 220.488281 385.339844 222.851562 392.246094 232.585938 C 399.15625 242.320312 396.570312 255.746094 386.472656 262.570312 C 376.378906 269.394531 362.59375 267.03125 355.6875 257.292969 C 348.777344 247.558594 351.363281 234.136719 361.457031 227.3125 " fill-opacity="1" fill-rule="nonzero"/><path fill="#000000" d="M 375.292969 267.265625 C 362.742188 267.265625 352.464844 258.695312 351.171875 246.949219 C 350.519531 241.074219 352.226562 235.324219 355.96875 230.757812 C 359.820312 226.0625 365.34375 223.179688 371.523438 222.636719 C 374.230469 222.402344 376.933594 222.628906 379.550781 223.316406 C 379.988281 223.433594 380.253906 223.878906 380.136719 224.320312 C 380.023438 224.757812 379.570312 225.023438 379.132812 224.90625 C 376.699219 224.265625 374.1875 224.050781 371.664062 224.277344 C 365.929688 224.777344 360.808594 227.449219 357.238281 231.800781 C 353.777344 236.019531 352.203125 241.339844 352.804688 246.773438 C 354.039062 257.980469 364.136719 266.089844 376.304688 265.605469 C 378.289062 265.527344 385.191406 264.730469 390.632812 257.675781 C 390.910156 257.316406 391.429688 257.253906 391.785156 257.527344 C 392.144531 257.804688 392.210938 258.320312 391.933594 258.679688 C 386.054688 266.296875 378.535156 267.160156 376.371094 267.246094 C 376.007812 267.257812 375.648438 267.265625 375.292969 267.265625 " fill-opacity="1" fill-rule="nonzero"/><path fill="#000000" d="M 395.945312 243.84375 C 395.53125 243.84375 395.175781 243.527344 395.128906 243.109375 C 394.5625 237.957031 392.066406 233.191406 388.101562 229.691406 C 387.761719 229.390625 387.726562 228.871094 388.027344 228.53125 C 388.328125 228.191406 388.847656 228.160156 389.1875 228.460938 C 393.457031 232.234375 396.148438 237.371094 396.761719 242.929688 C 396.8125 243.378906 396.488281 243.785156 396.035156 243.835938 C 396.003906 243.839844 395.976562 243.84375 395.945312 243.84375 " fill-opacity="1" fill-rule="nonzero"/><path fill="#f96f5f" d="M 377.628906 247.910156 C 377.40625 247.242188 377.039062 246.769531 376.535156 246.5 C 376.03125 246.226562 375.273438 246.070312 374.273438 246.039062 C 373.269531 246 372.390625 245.925781 371.636719 245.8125 C 370.878906 245.695312 370.195312 245.5 369.59375 245.230469 C 368.988281 244.953125 368.457031 244.570312 368.003906 244.078125 C 367.554688 243.582031 367.195312 242.9375 366.925781 242.132812 C 366.460938 240.753906 366.523438 239.476562 367.109375 238.296875 C 367.699219 237.117188 368.699219 236.210938 370.109375 235.570312 L 369.230469 232.949219 L 371.191406 232.292969 L 372.082031 234.953125 C 373.597656 234.671875 374.929688 234.894531 376.085938 235.621094 C 377.234375 236.347656 378.078125 237.507812 378.613281 239.101562 L 375.070312 240.289062 C 374.742188 239.308594 374.296875 238.644531 373.730469 238.292969 C 373.160156 237.941406 372.539062 237.878906 371.859375 238.109375 C 371.191406 238.332031 370.734375 238.695312 370.492188 239.199219 C 370.253906 239.703125 370.246094 240.289062 370.472656 240.957031 C 370.679688 241.582031 371.027344 242.019531 371.511719 242.273438 C 372 242.527344 372.792969 242.6875 373.902344 242.753906 C 375.007812 242.820312 375.933594 242.917969 376.683594 243.054688 C 377.425781 243.191406 378.089844 243.40625 378.667969 243.699219 C 379.25 243.988281 379.746094 244.378906 380.164062 244.859375 C 380.582031 245.34375 380.914062 245.957031 381.164062 246.699219 C 381.628906 248.085938 381.574219 249.359375 380.996094 250.515625 C 380.421875 251.671875 379.398438 252.582031 377.933594 253.25 L 378.75 255.6875 L 376.800781 256.34375 L 375.988281 253.914062 C 374.253906 254.296875 372.757812 254.136719 371.5 253.4375 C 370.242188 252.734375 369.332031 251.546875 368.773438 249.875 L 372.3125 248.683594 C 372.636719 249.65625 373.121094 250.324219 373.753906 250.691406 C 374.390625 251.054688 375.140625 251.089844 376.007812 250.800781 C 376.726562 250.558594 377.230469 250.179688 377.519531 249.65625 C 377.808594 249.140625 377.84375 248.554688 377.628906 247.910156 " fill-opacity="1" fill-rule="nonzero"/></svg>