<svg xmlns="http://www.w3.org/2000/svg" xmlns:xlink="http://www.w3.org/1999/xlink" width="628" zoomAndPan="magnify" viewBox="0 0 470.87997 470.999988" height="628" preserveAspectRatio="xMidYMid meet" version="1.0"><defs><clipPath id="1bad996187"><path d="M 244 395 L 453.753906 395 L 453.753906 446 L 244 446 Z M 244 395 " clip-rule="nonzero"/></clipPath><clipPath id="1c6b13a958"><path d="M 350 238 L 453.753906 238 L 453.753906 264 L 350 264 Z M 350 238 " clip-rule="nonzero"/></clipPath></defs><path fill="#e7f0ff" d="M 124.863281 47.765625 C 211.078125 0.0703125 355.5 18.558594 407.226562 81.527344 C 442.519531 124.496094 453.457031 147.105469 452.6875 215.382812 C 451.804688 294.273438 422.078125 386.5625 330.269531 426.96875 C 230.34375 470.953125 118.613281 429.269531 66.316406 361.605469 C 17.410156 298.320312 27.199219 223.808594 30.699219 197.1875 C 34.800781 165.957031 52.628906 87.730469 124.863281 47.765625 " fill-opacity="1" fill-rule="nonzero"/><path fill="#f96f5f" d="M 126.726562 114.234375 C 111.804688 118.324219 96.394531 109.535156 92.308594 94.601562 C 88.222656 79.667969 97.007812 64.25 111.929688 60.160156 C 126.851562 56.074219 142.257812 64.863281 146.34375 79.796875 C 150.429688 94.726562 141.648438 110.144531 126.726562 114.234375 Z M 175.058594 77.574219 L 172.183594 67.070312 L 160.3125 67.609375 C 159.210938 65.296875 157.9375 63.101562 156.496094 61.050781 L 162.78125 50.976562 L 155.046875 43.320312 L 145.03125 49.730469 C 142.945312 48.296875 140.746094 47.042969 138.453125 45.976562 L 138.863281 34.085938 L 128.335938 31.328125 L 122.875 41.875 C 120.375 41.675781 117.84375 41.699219 115.292969 41.929688 L 109.707031 31.429688 L 99.214844 34.304688 L 99.753906 46.1875 C 97.441406 47.289062 95.25 48.5625 93.203125 50.003906 L 83.132812 43.710938 L 75.480469 51.457031 L 81.886719 61.476562 C 80.457031 63.5625 79.199219 65.765625 78.136719 68.058594 L 66.253906 67.648438 L 63.496094 78.179688 L 74.035156 83.648438 C 73.839844 86.148438 73.859375 88.6875 74.089844 91.234375 L 63.597656 96.824219 L 66.472656 107.328125 L 78.34375 106.785156 C 79.445312 109.097656 80.71875 111.292969 82.160156 113.34375 L 75.875 123.417969 L 83.609375 131.074219 L 93.625 124.667969 C 95.710938 126.097656 97.910156 127.351562 100.203125 128.421875 L 99.792969 140.308594 L 110.320312 143.066406 L 115.78125 132.523438 C 118.277344 132.71875 120.8125 132.699219 123.363281 132.46875 L 128.945312 142.96875 L 139.441406 140.09375 L 138.902344 128.210938 C 141.210938 127.109375 143.402344 125.832031 145.453125 124.390625 L 155.523438 130.683594 L 163.175781 122.941406 L 156.769531 112.917969 C 158.199219 110.832031 159.453125 108.628906 160.519531 106.335938 L 172.398438 106.746094 L 175.160156 96.214844 L 164.621094 90.746094 C 164.816406 88.246094 164.796875 85.710938 164.566406 83.160156 L 175.058594 77.574219 " fill-opacity="1" fill-rule="nonzero"/><path fill="#000000" d="M 47.363281 283.457031 C 47.066406 283.457031 46.785156 283.285156 46.660156 282.996094 C 37.488281 262.082031 33.328125 240.183594 34.296875 217.910156 C 35.25 196.054688 41.074219 174.917969 51.609375 155.085938 C 51.808594 154.710938 52.277344 154.570312 52.648438 154.765625 C 53.023438 154.96875 53.164062 155.433594 52.96875 155.804688 C 31.933594 195.394531 30.148438 241.527344 48.066406 282.378906 C 48.234375 282.765625 48.058594 283.222656 47.671875 283.390625 C 47.570312 283.433594 47.464844 283.457031 47.363281 283.457031 " fill-opacity="1" fill-rule="nonzero"/><path fill="#000000" d="M 52.726562 272.269531 C 52.414062 272.269531 52.117188 272.074219 52.003906 271.761719 C 46.242188 255.585938 43.617188 238.820312 44.199219 221.929688 C 44.777344 205.316406 48.433594 189 55.078125 173.425781 C 55.246094 173.035156 55.695312 172.855469 56.085938 173.019531 C 56.476562 173.1875 56.65625 173.636719 56.492188 174.027344 C 43.25 205.0625 42.171875 239.589844 53.449219 271.246094 C 53.59375 271.644531 53.382812 272.085938 52.984375 272.226562 C 52.902344 272.257812 52.8125 272.269531 52.726562 272.269531 " fill-opacity="1" fill-rule="nonzero"/><path fill="#000000" d="M 58.214844 164.972656 L 61.523438 167.324219 L 61.464844 163.820312 C 60.671875 164.082031 59.480469 164.492188 58.214844 164.972656 Z M 62.320312 169.597656 C 62.164062 169.597656 62.007812 169.550781 61.875 169.457031 L 56.175781 165.40625 C 55.945312 165.242188 55.824219 164.96875 55.855469 164.695312 C 55.886719 164.414062 56.070312 164.175781 56.328125 164.070312 C 59.066406 162.945312 61.957031 162.042969 61.984375 162.035156 C 62.21875 161.964844 62.46875 162.007812 62.664062 162.148438 C 62.859375 162.289062 62.976562 162.515625 62.980469 162.753906 L 63.085938 168.816406 C 63.089844 169.105469 62.933594 169.375 62.675781 169.507812 C 62.5625 169.570312 62.441406 169.597656 62.320312 169.597656 " fill-opacity="1" fill-rule="nonzero"/><path fill="#000000" d="M 416.875 123.164062 C 416.546875 123.164062 416.242188 122.949219 416.140625 122.621094 C 416.015625 122.214844 416.246094 121.785156 416.652344 121.664062 L 420.449219 120.507812 C 420.855469 120.386719 421.28125 120.617188 421.402344 121.019531 C 421.527344 121.425781 421.300781 121.855469 420.890625 121.976562 L 417.097656 123.128906 C 417.023438 123.152344 416.949219 123.164062 416.875 123.164062 " fill-opacity="1" fill-rule="nonzero"/><path fill="#000000" d="M 408.027344 125.855469 C 407.699219 125.855469 407.394531 125.640625 407.292969 125.308594 C 407.171875 124.90625 407.398438 124.476562 407.808594 124.351562 L 411.601562 123.199219 C 412.003906 123.078125 412.433594 123.304688 412.5625 123.707031 C 412.683594 124.113281 412.453125 124.542969 412.046875 124.667969 L 408.253906 125.820312 C 408.179688 125.84375 408.101562 125.855469 408.027344 125.855469 " fill-opacity="1" fill-rule="nonzero"/><path fill="#000000" d="M 413.582031 121.410156 C 413.25 121.410156 412.945312 121.199219 412.847656 120.867188 L 411.695312 117.070312 C 411.570312 116.664062 411.800781 116.234375 412.203125 116.113281 C 412.609375 115.988281 413.039062 116.21875 413.164062 116.625 L 414.316406 120.421875 C 414.4375 120.824219 414.210938 121.253906 413.804688 121.375 C 413.730469 121.398438 413.65625 121.410156 413.582031 121.410156 " fill-opacity="1" fill-rule="nonzero"/><path fill="#000000" d="M 416.265625 130.253906 C 415.9375 130.253906 415.632812 130.042969 415.535156 129.710938 L 414.378906 125.914062 C 414.257812 125.507812 414.484375 125.078125 414.894531 124.957031 C 415.296875 124.832031 415.722656 125.0625 415.847656 125.46875 L 417 129.261719 C 417.125 129.671875 416.898438 130.101562 416.492188 130.222656 C 416.417969 130.242188 416.34375 130.253906 416.265625 130.253906 " fill-opacity="1" fill-rule="nonzero"/><path fill="#000000" d="M 427.984375 138.820312 C 426.714844 139.65625 426.363281 141.398438 427.195312 142.699219 C 427.601562 143.332031 428.222656 143.765625 428.949219 143.921875 C 429.652344 144.070312 430.371094 143.933594 430.972656 143.535156 C 432.242188 142.695312 432.589844 140.953125 431.757812 139.652344 C 431.355469 139.019531 430.734375 138.585938 430.007812 138.433594 C 429.304688 138.285156 428.585938 138.421875 427.984375 138.820312 Z M 429.507812 145.515625 C 429.214844 145.515625 428.921875 145.480469 428.628906 145.417969 C 427.503906 145.183594 426.535156 144.511719 425.902344 143.527344 C 424.617188 141.523438 425.171875 138.835938 427.136719 137.539062 C 428.082031 136.914062 429.214844 136.695312 430.324219 136.933594 C 431.453125 137.171875 432.421875 137.84375 433.050781 138.824219 C 434.335938 140.828125 433.78125 143.515625 431.820312 144.8125 C 431.121094 145.273438 430.324219 145.515625 429.507812 145.515625 " fill-opacity="1" fill-rule="nonzero"/><path fill="#6ce5e8" d="M 386.578125 80.976562 L 155.769531 80.976562 C 148.492188 80.976562 142.140625 87.070312 141.585938 94.585938 L 117.882812 417.164062 C 117.328125 424.683594 122.785156 430.773438 130.0625 430.773438 L 360.871094 430.773438 C 368.15625 430.773438 374.503906 424.683594 375.058594 417.164062 L 398.761719 94.585938 C 399.316406 87.070312 393.863281 80.976562 386.578125 80.976562 " fill-opacity="1" fill-rule="nonzero"/><path fill="#ffffff" d="M 379.167969 80.976562 L 148.359375 80.976562 C 141.078125 80.976562 134.726562 87.070312 134.175781 94.589844 L 110.46875 417.164062 C 109.914062 424.683594 115.371094 430.777344 122.652344 430.777344 L 353.460938 430.777344 C 360.742188 430.777344 367.089844 424.683594 367.644531 417.164062 L 391.347656 94.589844 C 391.902344 87.070312 386.449219 80.976562 379.167969 80.976562 " fill-opacity="1" fill-rule="nonzero"/><path fill="#f96f5f" d="M 359.789062 162.328125 C 359.777344 162.328125 359.761719 162.328125 359.746094 162.328125 C 359.328125 162.308594 359.003906 161.945312 359.023438 161.519531 L 362.140625 103.34375 L 162.109375 103.34375 L 159.035156 142.1875 C 159 142.609375 158.636719 142.929688 158.207031 142.890625 C 157.785156 142.859375 157.46875 142.488281 157.503906 142.066406 L 160.636719 102.519531 C 160.667969 102.117188 161 101.808594 161.402344 101.808594 L 362.945312 101.808594 C 363.160156 101.808594 363.363281 101.894531 363.503906 102.046875 C 363.648438 102.199219 363.726562 102.410156 363.714844 102.617188 L 360.554688 161.605469 C 360.535156 162.011719 360.195312 162.328125 359.789062 162.328125 " fill-opacity="1" fill-rule="nonzero"/><path fill="#f96f5f" d="M 297.386719 396.121094 C 297.378906 396.121094 297.378906 396.121094 297.375 396.121094 L 161.328125 394.542969 C 160.90625 394.539062 160.566406 394.1875 160.570312 393.765625 C 160.574219 393.34375 160.917969 393.007812 161.335938 393.007812 C 161.339844 393.007812 161.34375 393.007812 161.347656 393.007812 L 297.390625 394.585938 C 297.816406 394.589844 298.15625 394.941406 298.148438 395.363281 C 298.144531 395.785156 297.804688 396.121094 297.386719 396.121094 " fill-opacity="1" fill-rule="nonzero"/><path fill="#e7f0ff" d="M 334.640625 156.574219 L 181.773438 156.574219 L 182.445312 147.480469 L 335.308594 147.480469 L 334.640625 156.574219 " fill-opacity="1" fill-rule="nonzero"/><path fill="#e7f0ff" d="M 293.398438 174.476562 L 180.457031 174.476562 L 181.128906 165.382812 L 294.066406 165.382812 L 293.398438 174.476562 " fill-opacity="1" fill-rule="nonzero"/><path fill="#e7f0ff" d="M 331.078125 205.015625 L 178.214844 205.015625 L 178.882812 195.921875 L 331.746094 195.921875 L 331.078125 205.015625 " fill-opacity="1" fill-rule="nonzero"/><path fill="#e7f0ff" d="M 289.835938 222.914062 L 176.898438 222.914062 L 177.566406 213.820312 L 290.503906 213.820312 L 289.835938 222.914062 " fill-opacity="1" fill-rule="nonzero"/><path fill="#e7f0ff" d="M 327.515625 253.453125 L 174.65625 253.453125 L 175.324219 244.359375 L 328.1875 244.359375 L 327.515625 253.453125 " fill-opacity="1" fill-rule="nonzero"/><path fill="#e7f0ff" d="M 286.277344 271.355469 L 173.339844 271.355469 L 174.007812 262.261719 L 286.945312 262.261719 L 286.277344 271.355469 " fill-opacity="1" fill-rule="nonzero"/><path fill="#e7f0ff" d="M 323.960938 301.890625 L 171.09375 301.890625 L 171.761719 292.796875 L 324.625 292.796875 L 323.960938 301.890625 " fill-opacity="1" fill-rule="nonzero"/><path fill="#e7f0ff" d="M 282.714844 319.792969 L 169.777344 319.792969 L 170.449219 310.699219 L 283.386719 310.699219 L 282.714844 319.792969 " fill-opacity="1" fill-rule="nonzero"/><path fill="#e7f0ff" d="M 318.753906 351.355469 L 165.886719 351.355469 L 166.554688 342.261719 L 319.421875 342.261719 L 318.753906 351.355469 " fill-opacity="1" fill-rule="nonzero"/><path fill="#e7f0ff" d="M 277.511719 369.261719 L 164.570312 369.261719 L 165.242188 360.167969 L 278.179688 360.167969 L 277.511719 369.261719 " fill-opacity="1" fill-rule="nonzero"/><path fill="#000000" d="M 382.296875 215.523438 C 382.273438 215.523438 382.253906 215.523438 382.238281 215.519531 C 381.8125 215.492188 381.496094 215.125 381.527344 214.699219 L 390.582031 94.53125 C 390.839844 91.023438 389.738281 87.75 387.480469 85.320312 C 385.335938 83.015625 382.382812 81.746094 379.164062 81.746094 L 148.355469 81.746094 C 141.480469 81.746094 135.460938 87.535156 134.9375 94.644531 L 127.007812 202.558594 C 126.976562 202.984375 126.609375 203.296875 126.1875 203.269531 C 125.765625 203.238281 125.445312 202.871094 125.476562 202.449219 L 133.410156 94.53125 C 133.988281 86.636719 140.695312 80.210938 148.355469 80.210938 L 379.164062 80.210938 C 382.816406 80.210938 386.167969 81.65625 388.605469 84.277344 C 391.15625 87.023438 392.40625 90.707031 392.113281 94.644531 L 383.058594 214.816406 C 383.03125 215.214844 382.695312 215.523438 382.296875 215.523438 " fill-opacity="1" fill-rule="nonzero"/><path fill="#000000" d="M 329.660156 119.628906 L 198.695312 119.628906 C 193.359375 119.628906 189.355469 115.160156 189.761719 109.644531 L 190.824219 95.183594 C 191.746094 82.628906 202.355469 72.453125 214.515625 72.453125 L 320.777344 72.453125 C 332.9375 72.453125 342.050781 82.628906 341.125 95.183594 L 340.0625 109.644531 C 339.65625 115.160156 335 119.628906 329.660156 119.628906 " fill-opacity="1" fill-rule="nonzero"/><path fill="#000000" d="M 214.515625 73.222656 C 202.765625 73.222656 192.480469 83.097656 191.589844 95.242188 L 190.527344 109.703125 C 190.339844 112.222656 191.128906 114.566406 192.746094 116.304688 C 194.277344 117.953125 196.390625 118.863281 198.695312 118.863281 L 329.65625 118.863281 C 334.597656 118.863281 338.917969 114.703125 339.292969 109.59375 L 340.359375 95.128906 C 340.800781 89.121094 338.910156 83.523438 335.039062 79.355469 C 331.363281 75.398438 326.292969 73.222656 320.773438 73.222656 Z M 329.65625 120.398438 L 198.695312 120.398438 C 195.960938 120.398438 193.449219 119.3125 191.621094 117.347656 C 189.710938 115.292969 188.78125 112.539062 188.996094 109.59375 L 190.058594 95.128906 C 191.007812 82.203125 201.976562 71.6875 214.515625 71.6875 L 320.773438 71.6875 C 326.726562 71.6875 332.195312 74.039062 336.164062 78.3125 C 340.328125 82.792969 342.359375 88.804688 341.886719 95.242188 L 340.824219 109.703125 C 340.394531 115.597656 335.382812 120.398438 329.65625 120.398438 " fill-opacity="1" fill-rule="nonzero"/><path fill="#6ce5e8" d="M 326.40625 119.628906 L 195.441406 119.628906 C 190.101562 119.628906 186.101562 115.160156 186.503906 109.644531 L 187.570312 95.183594 C 188.492188 82.628906 199.097656 72.453125 211.257812 72.453125 L 317.519531 72.453125 C 329.679688 72.453125 338.792969 82.628906 337.867188 95.183594 L 336.804688 109.644531 C 336.402344 115.160156 331.742188 119.628906 326.40625 119.628906 " fill-opacity="1" fill-rule="nonzero"/><path fill="#000000" d="M 211.257812 73.222656 C 199.511719 73.222656 189.226562 83.097656 188.332031 95.242188 L 187.269531 109.703125 C 187.085938 112.21875 187.875 114.566406 189.492188 116.304688 C 191.023438 117.953125 193.136719 118.863281 195.441406 118.863281 L 326.402344 118.863281 C 331.339844 118.863281 335.664062 114.703125 336.039062 109.59375 L 337.101562 95.128906 C 337.542969 89.121094 335.65625 83.523438 331.785156 79.355469 C 328.109375 75.398438 323.039062 73.222656 317.519531 73.222656 Z M 326.402344 120.398438 L 195.441406 120.398438 C 192.707031 120.398438 190.191406 119.3125 188.367188 117.347656 C 186.457031 115.292969 185.523438 112.539062 185.738281 109.59375 L 186.800781 95.128906 C 187.753906 82.203125 198.722656 71.6875 211.257812 71.6875 L 317.519531 71.6875 C 323.472656 71.6875 328.9375 74.039062 332.90625 78.3125 C 337.074219 82.792969 339.105469 88.804688 338.632812 95.242188 L 337.570312 109.703125 C 337.136719 115.597656 332.125 120.398438 326.402344 120.398438 " fill-opacity="1" fill-rule="nonzero"/><path fill="#000000" d="M 268.125 50.285156 C 263.867188 50.285156 260.679688 46.722656 261.003906 42.328125 C 261.324219 37.933594 265.039062 34.367188 269.292969 34.367188 C 273.554688 34.367188 276.738281 37.933594 276.417969 42.328125 C 276.09375 46.722656 272.382812 50.285156 268.125 50.285156 Z M 270.171875 22.433594 C 256.488281 22.433594 244.554688 33.882812 243.519531 48.011719 L 240.585938 87.894531 C 240.253906 92.390625 243.519531 96.039062 247.875 96.039062 L 281.648438 96.039062 C 286.003906 96.039062 289.808594 92.390625 290.136719 87.894531 L 293.070312 48.011719 C 294.101562 33.882812 283.855469 22.433594 270.171875 22.433594 " fill-opacity="1" fill-rule="nonzero"/><path fill="#000000" d="M 269.292969 35.136719 C 265.4375 35.136719 262.0625 38.386719 261.769531 42.382812 C 261.625 44.34375 262.238281 46.175781 263.496094 47.527344 C 264.6875 48.8125 266.328125 49.519531 268.125 49.519531 C 271.980469 49.519531 275.355469 46.265625 275.648438 42.269531 C 275.796875 40.308594 275.179688 38.480469 273.921875 37.125 C 272.730469 35.84375 271.089844 35.136719 269.292969 35.136719 Z M 268.125 51.054688 C 265.902344 51.054688 263.855469 50.171875 262.371094 48.574219 C 260.820312 46.902344 260.058594 44.664062 260.238281 42.269531 C 260.585938 37.488281 264.652344 33.605469 269.292969 33.605469 C 271.515625 33.605469 273.5625 34.484375 275.042969 36.082031 C 276.597656 37.753906 277.359375 39.992188 277.179688 42.382812 C 276.832031 47.164062 272.765625 51.054688 268.125 51.054688 Z M 270.171875 23.203125 C 256.902344 23.203125 245.289062 34.359375 244.28125 48.066406 L 241.351562 87.953125 C 241.203125 89.964844 241.832031 91.839844 243.125 93.230469 C 244.347656 94.546875 246.035156 95.273438 247.875 95.273438 L 281.648438 95.273438 C 285.605469 95.273438 289.066406 91.941406 289.367188 87.839844 L 292.300781 47.953125 C 292.796875 41.167969 290.664062 34.839844 286.292969 30.136719 C 282.136719 25.664062 276.410156 23.203125 270.171875 23.203125 Z M 281.648438 96.808594 L 247.875 96.808594 C 245.601562 96.808594 243.515625 95.910156 242 94.277344 C 240.414062 92.570312 239.640625 90.285156 239.820312 87.839844 L 242.753906 47.953125 C 243.816406 33.460938 256.117188 21.667969 270.171875 21.667969 C 276.84375 21.667969 282.964844 24.304688 287.417969 29.089844 C 292.082031 34.113281 294.363281 40.855469 293.832031 48.066406 L 290.902344 87.953125 C 290.542969 92.832031 286.390625 96.808594 281.648438 96.808594 " fill-opacity="1" fill-rule="nonzero"/><path fill="#6ce5e8" d="M 266.015625 50.285156 C 261.761719 50.285156 258.574219 46.722656 258.894531 42.328125 C 259.21875 37.933594 262.933594 34.367188 267.1875 34.367188 C 271.445312 34.367188 274.636719 37.933594 274.3125 42.328125 C 273.988281 46.722656 270.277344 50.285156 266.015625 50.285156 Z M 268.066406 22.433594 C 254.382812 22.433594 242.449219 33.882812 241.410156 48.011719 L 238.480469 87.894531 C 238.148438 92.390625 241.414062 96.039062 245.769531 96.039062 L 279.542969 96.039062 C 283.898438 96.039062 287.699219 92.390625 288.03125 87.894531 L 290.957031 48.011719 C 292 33.882812 281.746094 22.433594 268.066406 22.433594 " fill-opacity="1" fill-rule="nonzero"/><path fill="#000000" d="M 267.1875 35.136719 C 263.332031 35.136719 259.953125 38.386719 259.660156 42.382812 C 259.515625 44.34375 260.132812 46.175781 261.390625 47.527344 C 262.582031 48.8125 264.222656 49.519531 266.019531 49.519531 C 269.875 49.519531 273.253906 46.265625 273.546875 42.269531 C 273.691406 40.308594 273.078125 38.480469 271.816406 37.125 C 270.625 35.84375 268.976562 35.136719 267.1875 35.136719 Z M 266.019531 51.054688 C 263.792969 51.054688 261.75 50.171875 260.265625 48.574219 C 258.710938 46.902344 257.953125 44.664062 258.128906 42.269531 C 258.480469 37.488281 262.546875 33.605469 267.1875 33.605469 C 269.414062 33.605469 271.453125 34.484375 272.941406 36.082031 C 274.492188 37.753906 275.25 39.992188 275.074219 42.382812 C 274.722656 47.164062 270.664062 51.054688 266.019531 51.054688 Z M 268.0625 23.203125 C 254.796875 23.203125 243.183594 34.359375 242.175781 48.066406 L 239.246094 87.953125 C 239.097656 89.964844 239.726562 91.839844 241.019531 93.230469 C 242.242188 94.546875 243.929688 95.273438 245.769531 95.273438 L 279.539062 95.273438 C 283.496094 95.273438 286.964844 91.941406 287.261719 87.839844 L 290.191406 47.953125 C 290.691406 41.167969 288.558594 34.839844 284.183594 30.136719 C 280.03125 25.664062 274.308594 23.203125 268.0625 23.203125 Z M 279.539062 96.808594 L 245.769531 96.808594 C 243.5 96.808594 241.414062 95.910156 239.894531 94.277344 C 238.308594 92.570312 237.535156 90.285156 237.714844 87.839844 L 240.644531 47.953125 C 241.710938 33.460938 254.011719 21.667969 268.0625 21.667969 C 274.738281 21.667969 280.859375 24.304688 285.3125 29.09375 C 289.976562 34.113281 292.253906 40.855469 291.726562 48.066406 L 288.792969 87.953125 C 288.433594 92.832031 284.285156 96.808594 279.539062 96.808594 " fill-opacity="1" fill-rule="nonzero"/><path fill="#000000" d="M 270.792969 431.539062 L 122.652344 431.539062 C 119 431.539062 115.648438 430.097656 113.210938 427.476562 C 110.660156 424.730469 109.414062 421.046875 109.703125 417.109375 L 111.277344 395.675781 C 111.308594 395.25 111.675781 394.933594 112.097656 394.964844 C 112.523438 394.996094 112.839844 395.367188 112.808594 395.785156 L 111.234375 417.222656 C 110.976562 420.730469 112.078125 424 114.335938 426.429688 C 116.476562 428.738281 119.429688 430.007812 122.652344 430.007812 L 270.792969 430.007812 C 271.21875 430.007812 271.5625 430.351562 271.5625 430.777344 C 271.5625 431.199219 271.21875 431.539062 270.792969 431.539062 " fill-opacity="1" fill-rule="nonzero"/><path fill="#000000" d="M 207.660156 333.191406 C 207.628906 333.191406 207.605469 333.191406 207.578125 333.191406 C 199.375 333.164062 190.933594 328.226562 182.488281 318.507812 C 176.570312 311.699219 172.800781 304.960938 172.644531 304.675781 C 171.390625 302.417969 172.203125 299.570312 174.464844 298.3125 C 176.722656 297.054688 179.574219 297.871094 180.828125 300.132812 C 184.496094 306.714844 196.460938 323.796875 207.605469 323.828125 C 207.621094 323.828125 207.640625 323.828125 207.65625 323.828125 C 211.191406 323.828125 213.921875 322.738281 216.011719 320.492188 C 221 315.121094 221.367188 304.386719 221.085938 300.707031 C 220.890625 298.128906 222.820312 295.878906 225.398438 295.683594 C 227.972656 295.488281 230.222656 297.417969 230.421875 299.992188 C 230.472656 300.703125 231.640625 317.425781 222.867188 326.867188 C 218.964844 331.0625 213.847656 333.191406 207.660156 333.191406 " fill-opacity="1" fill-rule="nonzero"/><path fill="#000000" d="M 240.523438 299.464844 L 212.800781 299.464844 C 210.214844 299.464844 208.121094 297.371094 208.121094 294.785156 C 208.121094 292.199219 210.214844 290.105469 212.800781 290.105469 L 240.523438 290.105469 C 243.109375 290.105469 245.203125 292.199219 245.203125 294.785156 C 245.203125 297.371094 243.109375 299.464844 240.523438 299.464844 " fill-opacity="1" fill-rule="nonzero"/><path fill="#ffffff" d="M 212.511719 235.070312 L 202.425781 235.070312 L 202.425781 207.390625 L 212.511719 207.390625 C 214.785156 207.390625 216.625 209.234375 216.625 211.507812 L 216.625 230.953125 C 216.625 233.226562 214.785156 235.070312 212.511719 235.070312 " fill-opacity="1" fill-rule="nonzero"/><path fill="#000000" d="M 203.191406 234.300781 L 207.578125 234.300781 C 212.144531 234.300781 215.859375 230.585938 215.859375 226.019531 L 215.859375 216.441406 C 215.859375 211.875 212.144531 208.15625 207.578125 208.15625 L 203.191406 208.15625 Z M 207.578125 235.835938 L 202.425781 235.835938 C 202 235.835938 201.660156 235.492188 201.660156 235.066406 L 201.660156 207.390625 C 201.660156 206.96875 202 206.625 202.425781 206.625 L 207.578125 206.625 C 212.992188 206.625 217.394531 211.027344 217.394531 216.441406 L 217.394531 226.019531 C 217.394531 231.433594 212.992188 235.835938 207.578125 235.835938 " fill-opacity="1" fill-rule="nonzero"/><path fill="#ffffff" d="M 67.371094 235.070312 L 77.457031 235.070312 L 77.457031 207.390625 L 67.371094 207.390625 C 65.101562 207.390625 63.257812 209.234375 63.257812 211.507812 L 63.257812 230.953125 C 63.257812 233.226562 65.101562 235.070312 67.371094 235.070312 " fill-opacity="1" fill-rule="nonzero"/><path fill="#000000" d="M 72.308594 208.15625 C 67.738281 208.15625 64.023438 211.875 64.023438 216.441406 L 64.023438 226.019531 C 64.023438 230.585938 67.738281 234.300781 72.308594 234.300781 L 76.691406 234.300781 L 76.691406 208.15625 Z M 77.457031 235.835938 L 72.308594 235.835938 C 66.894531 235.835938 62.488281 231.433594 62.488281 226.019531 L 62.488281 216.441406 C 62.488281 211.027344 66.894531 206.625 72.308594 206.625 L 77.457031 206.625 C 77.882812 206.625 78.226562 206.96875 78.226562 207.390625 L 78.226562 235.066406 C 78.226562 235.492188 77.882812 235.835938 77.457031 235.835938 " fill-opacity="1" fill-rule="nonzero"/><path fill="#ffffff" d="M 72.984375 220.085938 C 72.984375 190.347656 102.964844 159.582031 139.941406 159.582031 C 176.921875 159.582031 206.898438 190.347656 206.898438 220.085938 C 206.898438 249.828125 176.921875 267.28125 139.941406 267.28125 C 102.964844 267.28125 72.984375 249.828125 72.984375 220.085938 " fill-opacity="1" fill-rule="nonzero"/><path fill="#000000" d="M 139.941406 160.347656 C 102.058594 160.347656 73.753906 191.886719 73.753906 220.085938 C 73.753906 233.996094 80.414062 245.792969 93.023438 254.199219 C 104.929688 262.140625 121.59375 266.515625 139.941406 266.515625 C 158.289062 266.515625 174.953125 262.140625 186.863281 254.199219 C 199.46875 245.792969 206.132812 233.996094 206.132812 220.085938 C 206.132812 191.886719 177.828125 160.347656 139.941406 160.347656 Z M 139.941406 268.050781 C 121.292969 268.050781 104.328125 263.585938 92.171875 255.476562 C 79.117188 246.769531 72.21875 234.53125 72.21875 220.085938 C 72.21875 205.296875 79.453125 190.003906 92.070312 178.121094 C 105.292969 165.671875 122.296875 158.8125 139.941406 158.8125 C 157.589844 158.8125 174.589844 165.671875 187.816406 178.121094 C 200.433594 190.003906 207.667969 205.296875 207.667969 220.085938 C 207.667969 234.53125 200.765625 246.769531 187.714844 255.476562 C 175.558594 263.585938 158.589844 268.050781 139.941406 268.050781 " fill-opacity="1" fill-rule="nonzero"/><path fill="#ffffff" d="M 156.714844 276.21875 L 123.171875 276.21875 C 108.46875 276.21875 96.550781 288.136719 96.550781 302.839844 C 96.550781 312.550781 97.5 322.242188 99.378906 331.769531 L 104.203125 356.195312 C 107.574219 373.261719 122.542969 385.566406 139.941406 385.566406 C 157.339844 385.566406 172.3125 373.261719 175.683594 356.195312 L 180.503906 331.769531 C 182.386719 322.242188 183.335938 312.550781 183.335938 302.839844 C 183.335938 288.136719 171.414062 276.21875 156.714844 276.21875 " fill-opacity="1" fill-rule="nonzero"/><path fill="#000000" d="M 123.171875 276.984375 C 108.914062 276.984375 97.316406 288.582031 97.316406 302.839844 C 97.316406 312.480469 98.265625 322.164062 100.132812 331.621094 L 104.957031 356.046875 C 108.246094 372.707031 122.960938 384.800781 139.941406 384.800781 C 156.925781 384.800781 171.640625 372.707031 174.929688 356.046875 L 179.753906 331.621094 C 181.621094 322.164062 182.566406 312.480469 182.566406 302.839844 C 182.566406 288.582031 170.96875 276.984375 156.714844 276.984375 Z M 139.941406 386.335938 C 122.226562 386.335938 106.878906 373.722656 103.449219 356.34375 L 98.625 331.917969 C 96.742188 322.363281 95.78125 312.578125 95.78125 302.839844 C 95.78125 287.738281 108.070312 275.449219 123.171875 275.449219 L 156.714844 275.449219 C 171.816406 275.449219 184.101562 287.738281 184.101562 302.839844 C 184.101562 312.578125 183.144531 322.363281 181.257812 331.917969 L 176.433594 356.34375 C 173.003906 373.722656 157.65625 386.335938 139.941406 386.335938 " fill-opacity="1" fill-rule="nonzero"/><path fill="#f96f5f" d="M 152.769531 335.199219 L 127.113281 335.199219 C 124.113281 335.199219 121.683594 332.769531 121.683594 329.769531 L 121.683594 276.21875 L 158.199219 276.21875 L 158.199219 329.769531 C 158.199219 332.769531 155.769531 335.199219 152.769531 335.199219 " fill-opacity="1" fill-rule="nonzero"/><path fill="#000000" d="M 158.199219 276.984375 L 121.683594 276.984375 C 121.261719 276.984375 120.917969 276.640625 120.917969 276.21875 C 120.917969 275.792969 121.261719 275.449219 121.683594 275.449219 L 158.199219 275.449219 C 158.625 275.449219 158.96875 275.792969 158.96875 276.21875 C 158.96875 276.640625 158.625 276.984375 158.199219 276.984375 " fill-opacity="1" fill-rule="nonzero"/><path fill="#000000" d="M 184.957031 211.160156 L 120.480469 211.160156 C 113.78125 211.160156 108.351562 217.011719 108.351562 224.230469 L 108.351562 232.753906 C 108.351562 238.261719 111.289062 244.097656 116.355469 245.046875 C 134.226562 248.402344 171.214844 248.402344 189.082031 245.046875 C 194.148438 244.097656 197.085938 238.261719 197.085938 232.753906 L 197.085938 224.230469 C 197.085938 217.011719 191.65625 211.160156 184.957031 211.160156 " fill-opacity="1" fill-rule="nonzero"/><path fill="#f96f5f" d="M 137.570312 228.320312 C 137.570312 230.738281 135.75 232.699219 133.503906 232.699219 C 131.261719 232.699219 129.441406 230.738281 129.441406 228.320312 C 129.441406 225.902344 131.261719 223.941406 133.503906 223.941406 C 135.75 223.941406 137.570312 225.902344 137.570312 228.320312 " fill-opacity="1" fill-rule="nonzero"/><path fill="#f96f5f" d="M 180.800781 228.320312 C 180.800781 230.738281 178.980469 232.699219 176.734375 232.699219 C 174.492188 232.699219 172.671875 230.738281 172.671875 228.320312 C 172.671875 225.902344 174.492188 223.941406 176.734375 223.941406 C 178.980469 223.941406 180.800781 225.902344 180.800781 228.320312 " fill-opacity="1" fill-rule="nonzero"/><path fill="#000000" d="M 97.113281 354.464844 C 87.945312 354.464844 75.535156 353.160156 67.582031 347.0625 C 63 343.546875 60.324219 338.90625 59.625 333.273438 C 56.496094 307.96875 87.03125 293.480469 88.335938 292.878906 C 90.679688 291.789062 93.460938 292.808594 94.550781 295.152344 C 95.636719 297.492188 94.621094 300.277344 92.28125 301.367188 C 92.023438 301.484375 66.625 313.59375 68.914062 332.121094 C 69.300781 335.21875 70.726562 337.675781 73.28125 339.632812 C 82.023438 346.339844 101.089844 345.394531 107.699219 344.464844 C 110.261719 344.109375 112.628906 345.890625 112.988281 348.449219 C 113.347656 351.011719 111.5625 353.378906 109.003906 353.734375 C 108.535156 353.800781 103.644531 354.464844 97.113281 354.464844 " fill-opacity="1" fill-rule="nonzero"/><path fill="#000000" d="M 129.433594 359.445312 L 120.445312 359.445312 C 115.535156 359.445312 111.460938 355.757812 110.972656 350.871094 L 110.660156 347.742188 C 110.394531 345.074219 111.273438 342.402344 113.074219 340.410156 C 114.875 338.417969 117.449219 337.277344 120.132812 337.277344 L 134.46875 337.277344 C 137.054688 337.277344 139.152344 339.371094 139.152344 341.957031 C 139.152344 344.542969 137.054688 346.636719 134.46875 346.636719 L 120.132812 346.636719 C 120.105469 346.636719 120.0625 346.636719 120.015625 346.691406 C 119.96875 346.742188 119.972656 346.785156 119.976562 346.8125 L 120.289062 349.941406 C 120.296875 350.023438 120.363281 350.082031 120.445312 350.082031 L 129.433594 350.082031 C 132.019531 350.082031 134.113281 352.179688 134.113281 354.761719 C 134.113281 357.347656 132.019531 359.445312 129.433594 359.445312 " fill-opacity="1" fill-rule="nonzero"/><path fill="#f96f5f" d="M 449.472656 444.339844 L 226.792969 444.339844 C 225.046875 444.339844 223.632812 442.925781 223.632812 441.179688 L 223.632812 398.980469 C 223.632812 397.234375 225.046875 395.820312 226.792969 395.820312 L 449.472656 395.820312 C 451.214844 395.820312 452.632812 397.234375 452.632812 398.980469 L 452.632812 441.179688 C 452.632812 442.925781 451.214844 444.339844 449.472656 444.339844 " fill-opacity="1" fill-rule="nonzero"/><path fill="#6ce5e8" d="M 406.6875 444.238281 L 389.835938 444.238281 L 389.835938 395.933594 L 406.6875 395.933594 L 406.6875 444.238281 " fill-opacity="1" fill-rule="nonzero"/><path fill="#6ce5e8" d="M 426.148438 443.867188 L 414.164062 443.867188 L 414.164062 395.5625 L 426.148438 395.5625 L 426.148438 443.867188 " fill-opacity="1" fill-rule="nonzero"/><g clip-path="url(#1bad996187)"><path fill="#000000" d="M 446.5625 445.105469 L 244.984375 445.105469 C 244.5625 445.105469 244.21875 444.765625 244.21875 444.339844 C 244.21875 443.914062 244.5625 443.574219 244.984375 443.574219 L 446.5625 443.574219 C 449.484375 443.574219 451.871094 441.191406 451.871094 438.265625 L 451.871094 401.890625 C 451.871094 398.964844 449.484375 396.585938 446.5625 396.585938 L 283.71875 396.585938 C 283.292969 396.585938 282.953125 396.242188 282.953125 395.820312 C 282.953125 395.394531 283.292969 395.050781 283.71875 395.050781 L 446.5625 395.050781 C 450.332031 395.050781 453.402344 398.117188 453.402344 401.890625 L 453.402344 438.265625 C 453.402344 442.039062 450.332031 445.105469 446.5625 445.105469 " fill-opacity="1" fill-rule="nonzero"/></g><path fill="#000000" d="M 447.125 243.503906 C 446.875 243.503906 446.632812 243.382812 446.484375 243.160156 L 405.175781 181.007812 L 357.773438 242.820312 C 357.519531 243.15625 357.03125 243.21875 356.695312 242.960938 C 356.359375 242.703125 356.296875 242.222656 356.554688 241.882812 L 404.609375 179.222656 C 404.761719 179.023438 404.984375 178.917969 405.246094 178.921875 C 405.496094 178.933594 405.71875 179.058594 405.859375 179.265625 L 447.761719 242.3125 C 447.996094 242.664062 447.898438 243.140625 447.546875 243.375 C 447.417969 243.460938 447.269531 243.503906 447.125 243.503906 " fill-opacity="1" fill-rule="nonzero"/><path fill="#f96f5f" d="M 450.878906 239.132812 C 452.054688 239.132812 452.878906 240.308594 452.460938 241.410156 C 447.847656 253.609375 427.023438 262.714844 402.027344 262.714844 C 376.625 262.714844 355.53125 253.308594 351.382812 240.8125 C 351.109375 239.984375 351.722656 239.132812 352.589844 239.132812 L 450.878906 239.132812 " fill-opacity="1" fill-rule="nonzero"/><g clip-path="url(#1c6b13a958)"><path fill="#000000" d="M 352.589844 239.902344 C 352.421875 239.902344 352.273438 239.976562 352.179688 240.109375 C 352.082031 240.246094 352.054688 240.414062 352.105469 240.570312 C 356.21875 252.957031 377.210938 261.949219 402.023438 261.949219 C 426.273438 261.949219 447.179688 253.195312 451.742188 241.140625 C 451.847656 240.855469 451.8125 240.550781 451.636719 240.300781 C 451.464844 240.046875 451.179688 239.902344 450.875 239.902344 Z M 402.023438 263.480469 C 376.570312 263.480469 354.964844 254.050781 350.648438 241.054688 C 350.445312 240.433594 350.550781 239.742188 350.933594 239.214844 C 351.324219 238.671875 351.925781 238.367188 352.589844 238.367188 L 450.875 238.367188 C 451.683594 238.367188 452.4375 238.765625 452.898438 239.429688 C 453.359375 240.089844 453.460938 240.933594 453.175781 241.683594 C 448.398438 254.316406 426.886719 263.480469 402.023438 263.480469 " fill-opacity="1" fill-rule="nonzero"/></g><path fill="#000000" d="M 315.542969 242.59375 C 315.296875 242.59375 315.054688 242.472656 314.90625 242.25 L 273.597656 180.097656 L 226.195312 241.90625 C 225.9375 242.246094 225.457031 242.308594 225.121094 242.050781 C 224.78125 241.789062 224.71875 241.308594 224.976562 240.976562 L 273.03125 178.3125 C 273.183594 178.117188 273.414062 178.003906 273.667969 178.011719 C 273.914062 178.019531 274.144531 178.148438 274.28125 178.351562 L 316.183594 241.398438 C 316.417969 241.753906 316.320312 242.230469 315.96875 242.464844 C 315.835938 242.550781 315.691406 242.59375 315.542969 242.59375 " fill-opacity="1" fill-rule="nonzero"/><path fill="#f96f5f" d="M 319.296875 238.222656 C 320.476562 238.222656 321.296875 239.398438 320.882812 240.5 C 316.269531 252.699219 295.441406 261.800781 270.449219 261.800781 C 245.046875 261.800781 223.953125 252.398438 219.804688 239.898438 C 219.527344 239.074219 220.144531 238.222656 221.011719 238.222656 L 319.296875 238.222656 " fill-opacity="1" fill-rule="nonzero"/><path fill="#000000" d="M 221.011719 238.988281 C 220.847656 238.988281 220.699219 239.066406 220.601562 239.199219 C 220.503906 239.332031 220.480469 239.5 220.53125 239.660156 C 224.644531 252.046875 245.636719 261.035156 270.449219 261.035156 C 294.695312 261.035156 315.605469 252.285156 320.164062 240.226562 C 320.273438 239.945312 320.234375 239.640625 320.0625 239.390625 C 319.882812 239.136719 319.609375 238.988281 319.296875 238.988281 Z M 270.449219 262.570312 C 244.992188 262.570312 223.386719 253.136719 219.074219 240.140625 C 218.867188 239.519531 218.976562 238.832031 219.355469 238.300781 C 219.746094 237.761719 220.351562 237.453125 221.011719 237.453125 L 319.296875 237.453125 C 320.109375 237.453125 320.863281 237.851562 321.324219 238.515625 C 321.78125 239.175781 321.882812 240.019531 321.601562 240.773438 C 316.824219 253.402344 295.308594 262.570312 270.449219 262.570312 " fill-opacity="1" fill-rule="nonzero"/><path fill="#f96f5f" d="M 336.355469 390.78125 L 341.824219 390.78125 L 341.824219 164.515625 L 336.355469 164.515625 L 336.355469 390.78125 " fill-opacity="1" fill-rule="nonzero"/><path fill="#000000" d="M 337.125 390.015625 L 341.058594 390.015625 L 341.058594 165.28125 L 337.125 165.28125 Z M 341.828125 391.546875 L 336.355469 391.546875 C 335.933594 391.546875 335.589844 391.203125 335.589844 390.78125 L 335.589844 164.515625 C 335.589844 164.089844 335.933594 163.746094 336.355469 163.746094 L 341.828125 163.746094 C 342.25 163.746094 342.59375 164.089844 342.59375 164.515625 L 342.59375 390.78125 C 342.59375 391.203125 342.25 391.546875 341.828125 391.546875 " fill-opacity="1" fill-rule="nonzero"/><path fill="#f96f5f" d="M 407.402344 180.96875 L 407.402344 176.328125 L 270.78125 176.328125 L 270.78125 180.96875 L 407.402344 180.96875 " fill-opacity="1" fill-rule="nonzero"/><path fill="#000000" d="M 271.542969 180.203125 L 406.632812 180.203125 L 406.632812 177.101562 L 271.542969 177.101562 Z M 407.402344 181.734375 L 270.78125 181.734375 C 270.351562 181.734375 270.011719 181.394531 270.011719 180.972656 L 270.011719 176.335938 C 270.011719 175.910156 270.351562 175.5625 270.78125 175.5625 L 407.402344 175.5625 C 407.824219 175.5625 408.167969 175.910156 408.167969 176.335938 L 408.167969 180.972656 C 408.167969 181.394531 407.824219 181.734375 407.402344 181.734375 " fill-opacity="1" fill-rule="nonzero"/><path fill="#f96f5f" d="M 399.070312 178.609375 C 399.070312 181.851562 401.699219 184.476562 404.941406 184.476562 C 408.183594 184.476562 410.8125 181.851562 410.8125 178.609375 C 410.8125 175.363281 408.183594 172.738281 404.941406 172.738281 C 401.699219 172.738281 399.070312 175.363281 399.070312 178.609375 " fill-opacity="1" fill-rule="nonzero"/><path fill="#000000" d="M 404.9375 173.503906 C 402.125 173.503906 399.835938 175.792969 399.835938 178.609375 C 399.835938 181.421875 402.125 183.710938 404.9375 183.710938 C 407.753906 183.710938 410.042969 181.421875 410.042969 178.609375 C 410.042969 175.792969 407.753906 173.503906 404.9375 173.503906 Z M 404.9375 185.246094 C 401.28125 185.246094 398.300781 182.265625 398.300781 178.609375 C 398.300781 174.949219 401.28125 171.972656 404.9375 171.972656 C 408.597656 171.972656 411.578125 174.949219 411.578125 178.609375 C 411.578125 182.265625 408.597656 185.246094 404.9375 185.246094 " fill-opacity="1" fill-rule="nonzero"/><path fill="#f96f5f" d="M 266.894531 178.609375 C 266.894531 181.851562 269.523438 184.480469 272.761719 184.480469 C 276.003906 184.480469 278.632812 181.851562 278.632812 178.609375 C 278.632812 175.367188 276.003906 172.738281 272.761719 172.738281 C 269.523438 172.738281 266.894531 175.367188 266.894531 178.609375 " fill-opacity="1" fill-rule="nonzero"/><path fill="#000000" d="M 272.761719 173.507812 C 269.949219 173.507812 267.660156 175.792969 267.660156 178.609375 C 267.660156 181.421875 269.949219 183.710938 272.761719 183.710938 C 275.574219 183.710938 277.863281 181.421875 277.863281 178.609375 C 277.863281 175.792969 275.574219 173.507812 272.761719 173.507812 Z M 272.761719 185.246094 C 269.101562 185.246094 266.125 182.265625 266.125 178.609375 C 266.125 174.949219 269.101562 171.972656 272.761719 171.972656 C 276.421875 171.972656 279.398438 174.949219 279.398438 178.609375 C 279.398438 182.265625 276.421875 185.246094 272.761719 185.246094 " fill-opacity="1" fill-rule="nonzero"/><path fill="#f96f5f" d="M 333.171875 160.59375 C 333.171875 163.835938 335.800781 166.464844 339.042969 166.464844 C 342.28125 166.464844 344.910156 163.835938 344.910156 160.59375 C 344.910156 157.351562 342.28125 154.722656 339.042969 154.722656 C 335.800781 154.722656 333.171875 157.351562 333.171875 160.59375 " fill-opacity="1" fill-rule="nonzero"/><path fill="#000000" d="M 339.039062 155.492188 C 336.226562 155.492188 333.933594 157.78125 333.933594 160.597656 C 333.933594 163.410156 336.226562 165.695312 339.039062 165.695312 C 341.855469 165.695312 344.140625 163.410156 344.140625 160.597656 C 344.140625 157.78125 341.855469 155.492188 339.039062 155.492188 Z M 339.039062 167.230469 C 335.378906 167.230469 332.402344 164.253906 332.402344 160.597656 C 332.402344 156.9375 335.378906 153.957031 339.039062 153.957031 C 342.699219 153.957031 345.675781 156.9375 345.675781 160.597656 C 345.675781 164.253906 342.699219 167.230469 339.039062 167.230469 " fill-opacity="1" fill-rule="nonzero"/><path fill="#f96f5f" d="M 299.5625 395.804688 L 377.257812 395.804688 C 378.375 395.804688 378.785156 394.015625 377.828125 393.3125 L 373.886719 390.40625 C 367.296875 385.550781 359.746094 382.984375 352.046875 382.984375 L 323.867188 382.984375 C 316.371094 382.984375 309.035156 385.574219 302.699219 390.457031 L 298.976562 393.324219 C 298.042969 394.042969 298.460938 395.804688 299.5625 395.804688 " fill-opacity="1" fill-rule="nonzero"/><path fill="#000000" d="M 323.867188 383.753906 C 316.53125 383.753906 309.378906 386.28125 303.164062 391.066406 L 299.445312 393.933594 C 299.214844 394.109375 299.183594 394.472656 299.277344 394.734375 C 299.300781 394.808594 299.390625 395.039062 299.5625 395.039062 L 377.257812 395.039062 C 377.4375 395.039062 377.527344 394.800781 377.550781 394.726562 C 377.636719 394.460938 377.605469 394.101562 377.371094 393.929688 L 373.433594 391.027344 C 366.972656 386.265625 359.578125 383.753906 352.046875 383.753906 Z M 377.257812 396.574219 L 299.5625 396.574219 C 298.773438 396.574219 298.105469 396.058594 297.824219 395.230469 C 297.503906 394.292969 297.777344 393.28125 298.507812 392.714844 L 302.230469 389.847656 C 308.710938 384.855469 316.191406 382.21875 323.867188 382.21875 L 352.046875 382.21875 C 359.910156 382.21875 367.617188 384.835938 374.34375 389.792969 L 378.28125 392.691406 C 379.03125 393.242188 379.324219 394.253906 379.007812 395.207031 C 378.734375 396.050781 378.0625 396.574219 377.257812 396.574219 " fill-opacity="1" fill-rule="nonzero"/></svg>