<svg xmlns="http://www.w3.org/2000/svg" xmlns:xlink="http://www.w3.org/1999/xlink" width="628" zoomAndPan="magnify" viewBox="0 0 470.87997 470.999988" height="628" preserveAspectRatio="xMidYMid meet" version="1.0"><defs><clipPath id="4716d0b868"><path d="M 167 92 L 470.761719 92 L 470.761719 345 L 167 345 Z M 167 92 " clip-rule="nonzero"/></clipPath><clipPath id="97dda275f3"><path d="M 262 2.414062 L 337 2.414062 L 337 70 L 262 70 Z M 262 2.414062 " clip-rule="nonzero"/></clipPath></defs><path fill="#e7f0ff" d="M 281.972656 7.953125 C 262.582031 12.148438 243.535156 18.195312 223.625 21.203125 C 192.40625 25.917969 165.695312 11.421875 135.355469 14.925781 C 105.996094 18.316406 79.429688 39.542969 62.78125 63.210938 C 38.308594 98.003906 30.703125 139.679688 20.300781 180.035156 C 5.640625 236.933594 0.078125 295.796875 9.449219 354.210938 C 14.324219 384.613281 27.851562 411.59375 57.328125 430.121094 C 90.886719 451.210938 259.59375 470.933594 304.9375 468.019531 C 352.558594 464.960938 409.363281 448.59375 443.058594 409.90625 C 470.429688 378.480469 468.667969 348.5625 467.847656 310.40625 C 466.742188 258.839844 468.527344 207.261719 467.410156 155.695312 C 466.398438 108.890625 443.914062 59.351562 403.476562 30.917969 C 377.105469 12.371094 355.136719 4.667969 323.046875 3.542969 C 308.929688 3.046875 295.371094 5.054688 281.972656 7.953125 " fill-opacity="1" fill-rule="nonzero"/><g clip-path="url(#4716d0b868)"><path fill="#6ce5e8" d="M 459.453125 344.507812 L 182.953125 306.054688 C 176.011719 305.167969 170.804688 299.261719 170.804688 292.265625 L 167.015625 99.402344 C 167.015625 99.402344 173.316406 94.855469 176.890625 93.113281 C 178.707031 92.226562 180.800781 91.839844 182.976562 92.121094 L 458.65625 127.277344 C 465.601562 128.164062 470.800781 134.066406 470.800781 141.070312 L 470.800781 330.492188 C 470.800781 333.882812 469.253906 336.871094 466.855469 338.839844 C 464.652344 340.65625 459.453125 344.507812 459.453125 344.507812 " fill-opacity="1" fill-rule="nonzero"/></g><path fill="#e7f0ff" d="M 451.015625 347.070312 L 175.335938 311.914062 C 168.394531 311.027344 163.191406 305.121094 163.191406 298.121094 L 163.191406 108.695312 C 163.191406 102.183594 168.90625 97.152344 175.363281 97.976562 L 451.042969 133.132812 C 457.984375 134.019531 463.183594 139.925781 463.183594 146.925781 L 463.183594 336.355469 C 463.183594 342.863281 457.472656 347.890625 451.015625 347.070312 " fill-opacity="1" fill-rule="nonzero"/><path fill="#000000" d="M 463.183594 199.40625 C 462.71875 199.40625 462.34375 199.027344 462.34375 198.5625 L 462.34375 146.929688 C 462.34375 140.371094 457.4375 134.800781 450.929688 133.972656 L 403.226562 127.886719 C 402.761719 127.828125 402.4375 127.40625 402.496094 126.945312 C 402.554688 126.480469 402.96875 126.15625 403.4375 126.214844 L 451.144531 132.300781 C 458.492188 133.238281 464.027344 139.527344 464.027344 146.929688 L 464.027344 198.5625 C 464.027344 199.027344 463.648438 199.40625 463.183594 199.40625 " fill-opacity="1" fill-rule="nonzero"/><path fill="#000000" d="M 163.191406 151.433594 C 162.726562 151.433594 162.347656 151.054688 162.347656 150.59375 L 162.347656 108.695312 C 162.347656 105.347656 163.789062 102.164062 166.300781 99.953125 C 168.808594 97.742188 172.152344 96.71875 175.46875 97.140625 L 391.902344 124.742188 C 392.363281 124.800781 392.6875 125.222656 392.628906 125.6875 C 392.570312 126.148438 392.144531 126.46875 391.6875 126.410156 L 175.257812 98.8125 C 172.414062 98.449219 169.558594 99.324219 167.414062 101.214844 C 165.265625 103.109375 164.035156 105.832031 164.035156 108.695312 L 164.035156 150.59375 C 164.035156 151.054688 163.65625 151.433594 163.191406 151.433594 " fill-opacity="1" fill-rule="nonzero"/><path fill="#ffffff" d="M 445.15625 339.261719 L 181.921875 305.691406 C 176.875 305.050781 173.089844 300.753906 173.089844 295.664062 L 173.089844 112.945312 C 173.089844 108.597656 176.90625 105.238281 181.222656 105.785156 L 444.453125 139.355469 C 449.5 140 453.285156 144.292969 453.285156 149.386719 L 453.285156 332.105469 C 453.285156 336.453125 449.464844 339.8125 445.15625 339.261719 " fill-opacity="1" fill-rule="nonzero"/><path fill="#6ce5e8" d="M 290.183594 458.628906 L 6.660156 422.066406 C 4.441406 421.78125 3.1875 419.921875 3.21875 418.066406 C 3.238281 416.785156 3.339844 407.757812 3.339844 407.757812 L 153.253906 322.054688 C 160.765625 317.765625 170.484375 316.109375 179.0625 317.207031 L 459.003906 353.320312 C 460.695312 353.539062 462.136719 354.632812 462.808594 356.195312 L 463.253906 357.25 C 463.253906 357.25 463.015625 364.773438 463.113281 366.535156 C 463.1875 367.90625 462.574219 369.324219 461.128906 370.148438 L 314.980469 453.710938 C 307.46875 458 298.765625 459.726562 290.183594 458.628906 " fill-opacity="1" fill-rule="nonzero"/><path fill="#ffffff" d="M 290.183594 448.585938 L 7.671875 412.089844 C 3.921875 411.609375 2.9375 406.636719 6.21875 404.761719 L 151.585938 321.738281 C 159.097656 317.445312 167.800781 315.722656 176.382812 316.820312 L 458.890625 353.3125 C 462.640625 353.796875 463.625 358.769531 460.339844 360.644531 L 314.976562 443.667969 C 307.46875 447.960938 298.761719 449.683594 290.183594 448.585938 " fill-opacity="1" fill-rule="nonzero"/><path fill="#000000" d="M 290.289062 447.75 C 298.636719 448.820312 307.253906 447.109375 314.558594 442.9375 L 459.929688 359.910156 C 461.359375 359.097656 461.640625 357.675781 461.429688 356.621094 C 461.21875 355.5625 460.417969 354.359375 458.785156 354.148438 L 176.273438 317.65625 C 167.925781 316.585938 159.308594 318.296875 152.003906 322.46875 L 6.636719 405.492188 C 5.210938 406.308594 4.925781 407.730469 5.136719 408.785156 C 5.34375 409.84375 6.148438 411.046875 7.78125 411.253906 L 290.292969 447.75 Z M 295.179688 449.746094 C 293.476562 449.746094 291.769531 449.640625 290.078125 449.421875 C 290.074219 449.421875 290.074219 449.421875 290.074219 449.421875 L 7.566406 412.925781 C 5.492188 412.660156 3.890625 411.164062 3.484375 409.113281 C 3.078125 407.0625 3.988281 405.070312 5.800781 404.03125 L 151.167969 321.003906 C 158.789062 316.652344 167.785156 314.871094 176.488281 315.984375 L 459 352.480469 C 461.074219 352.742188 462.679688 354.238281 463.082031 356.289062 C 463.488281 358.34375 462.582031 360.339844 460.765625 361.375 L 315.398438 444.398438 C 309.257812 447.90625 302.230469 449.746094 295.179688 449.746094 " fill-opacity="1" fill-rule="nonzero"/><path fill="#6ce5e8" d="M 345.496094 402.5 L 100.523438 370.625 C 97.136719 370.191406 96.246094 365.699219 99.210938 364.003906 L 156.8125 331.4375 C 163.59375 327.5625 171.457031 326.003906 179.207031 326.996094 L 424.175781 358.871094 C 427.566406 359.308594 428.457031 363.800781 425.492188 365.492188 L 367.890625 398.058594 C 361.105469 401.933594 353.246094 403.492188 345.496094 402.5 " fill-opacity="1" fill-rule="nonzero"/><path fill="#e7f0ff" d="M 224.183594 300.539062 L 424.996094 322.335938 C 426.003906 322.445312 426.910156 321.714844 427.019531 320.710938 L 427.898438 312.636719 C 428.007812 311.628906 427.277344 310.722656 426.269531 310.613281 L 225.457031 288.816406 C 224.445312 288.707031 223.539062 289.433594 223.433594 290.441406 L 222.554688 298.515625 C 222.445312 299.523438 223.175781 300.429688 224.183594 300.539062 " fill-opacity="1" fill-rule="nonzero"/><path fill="#e7f0ff" d="M 247.078125 279.773438 L 423.539062 298.925781 C 425.542969 299.144531 427.347656 297.695312 427.5625 295.6875 L 428.046875 291.230469 C 428.265625 289.222656 426.816406 287.421875 424.8125 287.203125 L 248.347656 268.050781 C 246.34375 267.835938 244.542969 269.28125 244.328125 271.289062 L 243.839844 275.746094 C 243.625 277.753906 245.074219 279.558594 247.078125 279.773438 " fill-opacity="1" fill-rule="nonzero"/><path fill="#e7f0ff" d="M 198.558594 252.6875 L 426.265625 277.402344 C 427.277344 277.511719 428.179688 276.785156 428.289062 275.777344 L 429.167969 267.703125 C 429.277344 266.695312 428.546875 265.792969 427.539062 265.679688 L 199.828125 240.964844 C 198.820312 240.855469 197.917969 241.582031 197.808594 242.589844 L 196.933594 250.664062 C 196.824219 251.671875 197.550781 252.578125 198.558594 252.6875 " fill-opacity="1" fill-rule="nonzero"/><path fill="#e7f0ff" d="M 230.226562 214.433594 L 427.734375 232.777344 C 429.746094 232.964844 431.519531 231.488281 431.710938 229.476562 L 432.125 225.011719 C 432.3125 223 430.835938 221.222656 428.824219 221.035156 L 231.316406 202.691406 C 229.308594 202.503906 227.527344 203.984375 227.339844 205.988281 L 226.925781 210.457031 C 226.738281 212.464844 228.21875 214.246094 230.226562 214.433594 " fill-opacity="1" fill-rule="nonzero"/><path fill="#e7f0ff" d="M 249.863281 193.171875 L 426.601562 209.589844 C 428.609375 209.773438 430.390625 208.296875 430.574219 206.289062 L 430.988281 201.824219 C 431.175781 199.816406 429.699219 198.03125 427.6875 197.847656 L 250.953125 181.433594 C 248.945312 181.246094 247.164062 182.722656 246.980469 184.734375 L 246.5625 189.195312 C 246.378906 191.207031 247.855469 192.984375 249.863281 193.171875 " fill-opacity="1" fill-rule="nonzero"/><path fill="#e7f0ff" d="M 201.054688 167.078125 L 425.507812 187.921875 C 427.511719 188.109375 429.289062 186.632812 429.480469 184.625 L 429.894531 180.160156 C 430.082031 178.148438 428.605469 176.371094 426.59375 176.179688 L 202.148438 155.335938 C 200.136719 155.148438 198.359375 156.628906 198.171875 158.632812 L 197.757812 163.101562 C 197.570312 165.109375 199.046875 166.886719 201.054688 167.078125 " fill-opacity="1" fill-rule="nonzero"/><path fill="#000000" d="M 102.824219 250.699219 C 103.058594 263.390625 105.183594 280.527344 113.824219 291.378906 C 118.808594 297.632812 125.296875 301.21875 133.117188 302.039062 C 168.214844 305.71875 187.476562 263.085938 188.277344 261.269531 C 189.726562 257.996094 188.246094 254.171875 184.972656 252.726562 C 181.703125 251.28125 177.882812 252.757812 176.429688 256.027344 C 176.273438 256.382812 160.167969 291.847656 134.46875 289.152344 C 130.171875 288.699219 126.738281 286.785156 123.960938 283.304688 C 114.460938 271.375 115.273438 244.964844 116.386719 235.792969 C 116.820312 232.242188 114.289062 229.011719 110.738281 228.582031 C 107.1875 228.144531 103.957031 230.675781 103.523438 234.226562 C 103.445312 234.878906 102.65625 241.664062 102.824219 250.699219 " fill-opacity="1" fill-rule="nonzero"/><path fill="#000000" d="M 95.699219 211.457031 L 95.929688 223.894531 C 96.054688 230.691406 101.261719 236.234375 108.035156 236.785156 L 112.371094 237.136719 C 116.074219 237.4375 119.753906 236.152344 122.460938 233.605469 C 125.167969 231.066406 126.683594 227.472656 126.613281 223.757812 L 126.246094 203.917969 C 126.179688 200.339844 123.226562 197.496094 119.648438 197.5625 C 116.070312 197.628906 113.222656 200.578125 113.289062 204.15625 L 113.65625 224 C 113.660156 224.035156 113.660156 224.097656 113.589844 224.164062 C 113.519531 224.230469 113.457031 224.222656 113.421875 224.222656 L 109.085938 223.867188 C 108.972656 223.859375 108.886719 223.765625 108.882812 223.652344 L 108.652344 211.21875 C 108.589844 207.640625 105.632812 204.792969 102.054688 204.859375 C 98.480469 204.925781 95.632812 207.878906 95.699219 211.457031 " fill-opacity="1" fill-rule="nonzero"/><path fill="#000000" d="M 381.332031 264 C 381.09375 276.695312 378.726562 293.824219 368.945312 304.652344 C 363.308594 310.898438 355.957031 314.464844 347.089844 315.265625 C 307.273438 318.859375 285.316406 276.179688 284.398438 274.359375 C 282.746094 271.085938 284.421875 267.261719 288.128906 265.824219 C 291.835938 264.386719 296.179688 265.871094 297.828125 269.144531 C 298.007812 269.503906 316.367188 305.007812 345.527344 302.375 C 350.390625 301.9375 354.292969 300.03125 357.429688 296.558594 C 368.179688 284.652344 367.1875 258.234375 365.902344 249.0625 C 365.402344 245.507812 368.265625 242.285156 372.292969 241.863281 C 376.320312 241.4375 379.992188 243.972656 380.492188 247.53125 C 380.582031 248.183594 381.496094 254.964844 381.332031 264 " fill-opacity="1" fill-rule="nonzero"/><path fill="#000000" d="M 391.761719 223.585938 L 391.535156 236.023438 C 391.40625 242.820312 385.515625 248.347656 377.832031 248.882812 L 372.914062 249.222656 C 368.710938 249.515625 364.539062 248.21875 361.457031 245.671875 C 358.378906 243.117188 356.652344 239.523438 356.722656 235.808594 L 357.085938 215.96875 C 357.15625 212.390625 360.5 209.554688 364.558594 209.625 C 368.617188 209.703125 371.855469 212.664062 371.785156 216.238281 L 371.417969 236.082031 C 371.417969 236.117188 371.417969 236.179688 371.5 236.246094 C 371.582031 236.3125 371.648438 236.308594 371.691406 236.304688 L 376.605469 235.964844 C 376.734375 235.957031 376.832031 235.863281 376.835938 235.75 L 377.066406 223.3125 C 377.132812 219.734375 380.476562 216.894531 384.535156 216.972656 C 388.597656 217.042969 391.832031 220.007812 391.761719 223.585938 " fill-opacity="1" fill-rule="nonzero"/><path fill="#ffffff" d="M 337.648438 172.207031 L 323.957031 172.207031 L 323.957031 133.898438 L 337.648438 133.898438 C 340.941406 133.898438 343.613281 136.566406 343.613281 139.859375 L 343.613281 166.246094 C 343.613281 169.539062 340.941406 172.207031 337.648438 172.207031 " fill-opacity="1" fill-rule="nonzero"/><path fill="#000000" d="M 324.796875 171.363281 L 328.855469 171.363281 C 336.53125 171.363281 342.773438 165.121094 342.773438 157.449219 L 342.773438 148.65625 C 342.773438 140.984375 336.53125 134.738281 328.855469 134.738281 L 324.796875 134.738281 Z M 328.855469 173.046875 L 323.960938 173.046875 C 323.492188 173.046875 323.117188 172.671875 323.117188 172.207031 L 323.117188 133.894531 C 323.117188 133.429688 323.492188 133.054688 323.960938 133.054688 L 328.855469 133.054688 C 337.457031 133.054688 344.457031 140.050781 344.457031 148.65625 L 344.457031 157.449219 C 344.457031 166.046875 337.457031 173.046875 328.855469 173.046875 " fill-opacity="1" fill-rule="nonzero"/><path fill="#ffffff" d="M 137.289062 172.203125 L 150.984375 172.203125 L 150.984375 133.894531 L 137.289062 133.894531 C 133.996094 133.894531 131.328125 136.566406 131.328125 139.855469 L 131.328125 166.242188 C 131.328125 169.535156 133.996094 172.203125 137.289062 172.203125 " fill-opacity="1" fill-rule="nonzero"/><path fill="#000000" d="M 146.085938 134.738281 C 138.410156 134.738281 132.167969 140.980469 132.167969 148.65625 L 132.167969 157.445312 C 132.167969 165.121094 138.410156 171.367188 146.085938 171.367188 L 150.140625 171.367188 L 150.140625 134.738281 Z M 150.980469 173.050781 L 146.085938 173.050781 C 137.484375 173.050781 130.484375 166.050781 130.484375 157.445312 L 130.484375 148.65625 C 130.484375 140.054688 137.484375 133.054688 146.085938 133.054688 L 150.980469 133.054688 C 151.445312 133.054688 151.824219 133.433594 151.824219 133.898438 L 151.824219 172.207031 C 151.824219 172.671875 151.445312 173.050781 150.980469 173.050781 " fill-opacity="1" fill-rule="nonzero"/><path fill="#ffffff" d="M 144.789062 151.46875 C 144.789062 110.304688 186.285156 67.71875 237.46875 67.71875 C 288.65625 67.71875 330.152344 110.304688 330.152344 151.46875 C 330.152344 192.636719 288.65625 216.792969 237.46875 216.792969 C 186.285156 216.792969 144.789062 192.636719 144.789062 151.46875 " fill-opacity="1" fill-rule="nonzero"/><path fill="#000000" d="M 237.46875 68.5625 C 184.90625 68.5625 145.632812 112.335938 145.632812 151.46875 C 145.632812 170.800781 154.890625 187.191406 172.402344 198.871094 C 188.921875 209.886719 212.03125 215.953125 237.46875 215.953125 C 262.910156 215.953125 286.015625 209.886719 302.535156 198.871094 C 320.046875 187.191406 329.308594 170.800781 329.308594 151.46875 C 329.308594 112.335938 290.03125 68.5625 237.46875 68.5625 Z M 237.46875 217.640625 C 211.699219 217.640625 188.261719 211.46875 171.46875 200.269531 C 153.464844 188.261719 143.949219 171.390625 143.949219 151.46875 C 143.949219 131.058594 153.9375 109.945312 171.359375 93.542969 C 189.621094 76.347656 213.101562 66.878906 237.46875 66.878906 C 261.839844 66.878906 285.320312 76.347656 303.582031 93.542969 C 321 109.945312 330.996094 131.058594 330.996094 151.46875 C 330.996094 171.390625 321.476562 188.261719 303.472656 200.269531 C 286.679688 211.46875 263.238281 217.640625 237.46875 217.640625 " fill-opacity="1" fill-rule="nonzero"/><path fill="#ffffff" d="M 260.6875 229.160156 L 214.253906 229.160156 C 193.90625 229.160156 177.410156 245.660156 177.410156 266.011719 C 177.410156 279.453125 178.722656 292.867188 181.324219 306.054688 L 188 339.863281 C 192.664062 363.488281 213.386719 380.519531 237.46875 380.519531 C 261.554688 380.519531 282.273438 363.488281 286.941406 339.863281 L 293.613281 306.054688 C 296.21875 292.867188 297.53125 279.453125 297.53125 266.011719 C 297.53125 245.660156 281.035156 229.160156 260.6875 229.160156 " fill-opacity="1" fill-rule="nonzero"/><path fill="#000000" d="M 214.253906 230.003906 C 194.402344 230.003906 178.25 246.15625 178.25 266.011719 C 178.25 279.367188 179.5625 292.789062 182.148438 305.890625 L 188.828125 339.699219 C 193.398438 362.863281 213.859375 379.679688 237.46875 379.679688 C 261.082031 379.679688 281.539062 362.863281 286.113281 339.699219 L 292.789062 305.890625 C 295.375 292.785156 296.6875 279.367188 296.6875 266.011719 C 296.6875 246.15625 280.539062 230.003906 260.6875 230.003906 Z M 237.46875 381.363281 C 213.054688 381.363281 191.902344 363.976562 187.171875 340.027344 L 180.5 306.21875 C 177.886719 293.003906 176.566406 279.476562 176.566406 266.011719 C 176.566406 245.226562 193.476562 228.320312 214.253906 228.320312 L 260.6875 228.320312 C 281.46875 228.320312 298.375 245.226562 298.375 266.011719 C 298.375 279.476562 297.050781 293.003906 294.441406 306.21875 L 287.765625 340.027344 C 283.039062 363.976562 261.886719 381.363281 237.46875 381.363281 " fill-opacity="1" fill-rule="nonzero"/><path fill="#f96f5f" d="M 243.269531 310.800781 L 231.671875 310.800781 C 220.917969 310.800781 212.195312 302.085938 212.195312 291.332031 L 212.195312 229.160156 L 262.742188 229.160156 L 262.742188 291.332031 C 262.742188 302.085938 254.023438 310.800781 243.269531 310.800781 " fill-opacity="1" fill-rule="nonzero"/><path fill="#000000" d="M 262.742188 230.003906 L 212.195312 230.003906 C 211.730469 230.003906 211.355469 229.625 211.355469 229.160156 C 211.355469 228.695312 211.730469 228.320312 212.195312 228.320312 L 262.742188 228.320312 C 263.207031 228.320312 263.585938 228.695312 263.585938 229.160156 C 263.585938 229.625 263.207031 230.003906 262.742188 230.003906 " fill-opacity="1" fill-rule="nonzero"/><path fill="#000000" d="M 292.632812 137.328125 L 203.382812 137.328125 C 194.113281 137.328125 186.597656 145.425781 186.597656 155.421875 L 186.597656 167.222656 C 186.597656 174.839844 190.664062 182.917969 197.675781 184.234375 C 222.410156 188.882812 273.605469 188.882812 298.339844 184.234375 C 305.351562 182.917969 309.417969 174.839844 309.417969 167.222656 L 309.417969 155.421875 C 309.417969 145.425781 301.902344 137.328125 292.632812 137.328125 " fill-opacity="1" fill-rule="nonzero"/><path fill="#f96f5f" d="M 227.039062 161.078125 C 227.039062 164.425781 224.523438 167.140625 221.414062 167.140625 C 218.308594 167.140625 215.789062 164.425781 215.789062 161.078125 C 215.789062 157.730469 218.308594 155.019531 221.414062 155.019531 C 224.523438 155.019531 227.039062 157.730469 227.039062 161.078125 " fill-opacity="1" fill-rule="nonzero"/><path fill="#f96f5f" d="M 286.878906 161.078125 C 286.878906 164.425781 284.359375 167.140625 281.253906 167.140625 C 278.144531 167.140625 275.628906 164.425781 275.628906 161.078125 C 275.628906 157.730469 278.144531 155.019531 281.253906 155.019531 C 284.359375 155.019531 286.878906 157.730469 286.878906 161.078125 " fill-opacity="1" fill-rule="nonzero"/><g clip-path="url(#97dda275f3)"><path fill="#f96f5f" d="M 327.433594 56.488281 L 308.097656 55.214844 C 305.714844 55.058594 303.460938 56.304688 302.320312 58.402344 L 296.535156 69.074219 L 291.011719 57.261719 C 290.070312 55.246094 288.101562 53.898438 285.875 53.753906 L 268.089844 52.582031 C 264.71875 52.363281 262.167969 49.449219 262.394531 46.082031 L 264.875 8.332031 C 265.101562 4.957031 268.011719 2.40625 271.378906 2.628906 L 330.726562 6.535156 C 334.09375 6.757812 336.644531 9.671875 336.425781 13.039062 L 333.9375 50.789062 C 333.71875 54.160156 330.804688 56.710938 327.433594 56.488281 " fill-opacity="1" fill-rule="nonzero"/></g><path fill="#000000" d="M 322.65625 21.84375 C 322.640625 21.84375 322.621094 21.84375 322.605469 21.84375 L 279.910156 19.140625 C 279.441406 19.113281 279.09375 18.714844 279.121094 18.25 C 279.148438 17.785156 279.535156 17.433594 280.019531 17.460938 L 322.710938 20.164062 C 323.171875 20.1875 323.527344 20.589844 323.5 21.054688 C 323.46875 21.5 323.101562 21.84375 322.65625 21.84375 " fill-opacity="1" fill-rule="nonzero"/><path fill="#000000" d="M 309.941406 31.082031 C 309.921875 31.082031 309.90625 31.082031 309.886719 31.074219 L 278.246094 29.078125 C 277.78125 29.046875 277.429688 28.648438 277.457031 28.183594 C 277.484375 27.722656 277.875 27.367188 278.351562 27.398438 L 309.996094 29.394531 C 310.457031 29.425781 310.8125 29.828125 310.777344 30.289062 C 310.753906 30.734375 310.378906 31.082031 309.941406 31.082031 " fill-opacity="1" fill-rule="nonzero"/><path fill="#000000" d="M 321.507812 42.101562 C 321.488281 42.101562 321.46875 42.101562 321.449219 42.101562 L 278.757812 39.402344 C 278.292969 39.371094 277.9375 38.972656 277.96875 38.507812 C 278 38.042969 278.394531 37.691406 278.863281 37.71875 L 321.558594 40.417969 C 322.019531 40.445312 322.375 40.847656 322.34375 41.3125 C 322.316406 41.757812 321.945312 42.101562 321.507812 42.101562 " fill-opacity="1" fill-rule="nonzero"/><path fill="#f96f5f" d="M 44.050781 174.273438 C 25.039062 155.503906 24.761719 124.789062 43.425781 105.667969 C 62.085938 86.550781 92.625 86.269531 111.636719 105.039062 C 130.644531 123.808594 130.925781 154.523438 112.261719 173.640625 C 93.597656 192.761719 63.058594 193.042969 44.050781 174.273438 " fill-opacity="1" fill-rule="nonzero"/><path fill="#ffffff" d="M 110.523438 137.0625 L 77.757812 170.625 C 76.023438 172.402344 73.183594 172.425781 71.417969 170.6875 L 48.367188 147.925781 C 46.601562 146.183594 46.574219 143.324219 48.3125 141.546875 L 81.078125 107.984375 C 82.8125 106.207031 85.652344 106.179688 87.417969 107.925781 L 110.464844 130.683594 C 112.234375 132.429688 112.257812 135.285156 110.523438 137.0625 " fill-opacity="1" fill-rule="nonzero"/><path fill="#000000" d="M 84.277344 107.480469 C 84.265625 107.480469 84.253906 107.480469 84.242188 107.480469 C 83.269531 107.488281 82.359375 107.875 81.679688 108.574219 L 48.914062 142.140625 C 47.503906 143.582031 47.523438 145.914062 48.960938 147.328125 L 72.007812 170.085938 C 72.703125 170.773438 73.605469 171.148438 74.589844 171.136719 C 75.5625 171.128906 76.472656 170.738281 77.15625 170.039062 L 109.921875 136.476562 C 111.332031 135.03125 111.308594 132.703125 109.871094 131.285156 L 86.824219 108.527344 C 86.140625 107.847656 85.234375 107.480469 84.277344 107.480469 Z M 74.554688 172.820312 C 73.152344 172.820312 71.828125 172.277344 70.824219 171.289062 L 47.777344 148.527344 C 45.683594 146.460938 45.652344 143.066406 47.707031 140.960938 L 80.472656 107.398438 C 81.46875 106.375 82.804688 105.808594 84.226562 105.796875 C 85.636719 105.78125 86.992188 106.328125 88.007812 107.328125 L 111.054688 130.085938 C 113.148438 132.152344 113.179688 135.546875 111.125 137.652344 L 78.359375 171.214844 C 77.363281 172.238281 76.027344 172.808594 74.605469 172.820312 C 74.589844 172.820312 74.570312 172.820312 74.554688 172.820312 " fill-opacity="1" fill-rule="nonzero"/><path fill="#000000" d="M 59.960938 145.863281 C 59.574219 145.863281 59.226562 145.597656 59.140625 145.199219 C 59.039062 144.746094 59.328125 144.300781 59.78125 144.199219 L 80.695312 139.621094 C 81.148438 139.523438 81.597656 139.808594 81.699219 140.265625 C 81.796875 140.71875 81.511719 141.167969 81.054688 141.269531 L 60.140625 145.84375 C 60.082031 145.855469 60.019531 145.863281 59.960938 145.863281 " fill-opacity="1" fill-rule="nonzero"/><path fill="#000000" d="M 80.964844 141.199219 C 80.910156 141.199219 80.855469 141.191406 80.800781 141.183594 C 80.34375 141.089844 80.046875 140.648438 80.136719 140.195312 L 84.300781 119.078125 C 84.390625 118.621094 84.839844 118.324219 85.292969 118.414062 C 85.75 118.503906 86.042969 118.949219 85.953125 119.402344 L 81.789062 140.519531 C 81.710938 140.917969 81.359375 141.199219 80.964844 141.199219 " fill-opacity="1" fill-rule="nonzero"/><path fill="#f96f5f" d="M 368.628906 193.769531 C 355.425781 180.730469 355.230469 159.394531 368.195312 146.113281 C 381.160156 132.832031 402.371094 132.636719 415.574219 145.675781 C 428.78125 158.714844 428.976562 180.050781 416.011719 193.332031 C 403.046875 206.613281 381.832031 206.804688 368.628906 193.769531 " fill-opacity="1" fill-rule="nonzero"/><path fill="#ffffff" d="M 385.765625 187.257812 C 385.765625 185.792969 386.296875 184.589844 387.351562 183.648438 C 388.414062 182.707031 389.738281 182.234375 391.324219 182.234375 C 392.910156 182.234375 394.234375 182.707031 395.289062 183.648438 C 396.351562 184.589844 396.882812 185.792969 396.882812 187.257812 C 396.882812 188.726562 396.351562 189.929688 395.289062 190.871094 C 394.234375 191.8125 392.910156 192.28125 391.324219 192.28125 C 389.738281 192.28125 388.414062 191.8125 387.351562 190.871094 C 386.296875 189.929688 385.765625 188.726562 385.765625 187.257812 Z M 386.984375 178.222656 C 386.984375 175.332031 387.3125 173.050781 387.964844 171.375 C 388.617188 169.699219 389.679688 168.246094 391.144531 167.019531 C 392.609375 165.789062 393.726562 164.667969 394.488281 163.644531 C 395.25 162.625 395.632812 161.503906 395.632812 160.269531 C 395.632812 157.28125 394.34375 155.785156 391.769531 155.785156 C 390.582031 155.785156 389.617188 156.21875 388.882812 157.09375 C 388.152344 157.964844 387.765625 159.144531 387.726562 160.628906 L 377.679688 160.628906 C 377.71875 156.664062 378.96875 153.578125 381.425781 151.371094 C 383.878906 149.160156 387.328125 148.058594 391.769531 148.058594 C 396.1875 148.058594 399.609375 149.078125 402.039062 151.117188 C 404.464844 153.15625 405.679688 156.058594 405.679688 159.828125 C 405.679688 161.472656 405.351562 162.964844 404.699219 164.316406 C 404.042969 165.660156 402.992188 167.039062 401.546875 168.449219 L 398.128906 171.625 C 397.15625 172.558594 396.480469 173.511719 396.109375 174.492188 C 395.734375 175.472656 395.523438 176.714844 395.484375 178.222656 L 386.984375 178.222656 " fill-opacity="1" fill-rule="nonzero"/><path fill="#000000" d="M 387.835938 177.378906 L 394.683594 177.378906 C 394.773438 176.140625 394.984375 175.070312 395.324219 174.191406 C 395.746094 173.097656 396.488281 172.03125 397.546875 171.015625 L 400.972656 167.824219 C 402.328125 166.507812 403.332031 165.195312 403.941406 163.945312 C 404.535156 162.71875 404.839844 161.332031 404.839844 159.824219 C 404.839844 156.289062 403.742188 153.652344 401.5 151.757812 C 399.238281 149.859375 395.964844 148.894531 391.769531 148.894531 C 387.570312 148.894531 384.277344 149.941406 381.988281 151.992188 C 379.875 153.898438 378.746094 156.453125 378.554688 159.785156 L 386.941406 159.785156 C 387.097656 158.480469 387.53125 157.394531 388.242188 156.550781 C 389.140625 155.480469 390.328125 154.941406 391.769531 154.941406 C 393.53125 154.941406 396.476562 155.632812 396.476562 160.273438 C 396.476562 161.679688 396.035156 162.984375 395.164062 164.148438 C 394.367188 165.21875 393.195312 166.398438 391.6875 167.664062 C 390.335938 168.796875 389.347656 170.144531 388.753906 171.675781 C 388.203125 173.082031 387.894531 175 387.835938 177.378906 Z M 395.488281 179.066406 L 386.988281 179.066406 C 386.519531 179.066406 386.144531 178.6875 386.144531 178.222656 C 386.144531 175.234375 386.492188 172.828125 387.183594 171.066406 C 387.882812 169.265625 389.035156 167.6875 390.601562 166.371094 C 392.011719 165.191406 393.09375 164.105469 393.816406 163.140625 C 394.472656 162.261719 394.792969 161.320312 394.792969 160.273438 C 394.792969 157.039062 393.175781 156.625 391.769531 156.625 C 390.835938 156.625 390.101562 156.957031 389.53125 157.632812 C 388.925781 158.351562 388.605469 159.363281 388.570312 160.648438 C 388.554688 161.105469 388.183594 161.46875 387.726562 161.46875 L 377.683594 161.46875 C 377.457031 161.46875 377.242188 161.378906 377.085938 161.21875 C 376.925781 161.0625 376.835938 160.84375 376.839844 160.621094 C 376.882812 156.429688 378.234375 153.105469 380.863281 150.742188 C 383.46875 148.402344 387.140625 147.210938 391.769531 147.210938 C 396.371094 147.210938 400.011719 148.308594 402.578125 150.472656 C 405.195312 152.671875 406.523438 155.816406 406.523438 159.824219 C 406.523438 161.589844 406.167969 163.222656 405.457031 164.679688 C 404.765625 166.109375 403.644531 167.578125 402.132812 169.046875 L 398.703125 172.242188 C 397.839844 173.074219 397.222656 173.9375 396.898438 174.792969 C 396.554688 175.683594 396.367188 176.84375 396.328125 178.242188 C 396.320312 178.699219 395.941406 179.066406 395.488281 179.066406 Z M 391.324219 183.074219 C 389.941406 183.074219 388.824219 183.46875 387.917969 184.277344 C 387.039062 185.058594 386.609375 186.03125 386.609375 187.257812 C 386.609375 188.480469 387.039062 189.457031 387.917969 190.242188 C 388.824219 191.042969 389.9375 191.4375 391.324219 191.4375 C 392.707031 191.4375 393.824219 191.042969 394.734375 190.242188 C 395.613281 189.457031 396.042969 188.480469 396.042969 187.257812 C 396.042969 186.03125 395.613281 185.058594 394.734375 184.277344 C 393.824219 183.46875 392.707031 183.074219 391.324219 183.074219 Z M 391.324219 193.121094 C 389.535156 193.121094 388.011719 192.574219 386.796875 191.496094 C 385.554688 190.394531 384.925781 188.96875 384.925781 187.257812 C 384.925781 185.546875 385.554688 184.121094 386.796875 183.015625 C 388.011719 181.9375 389.535156 181.390625 391.324219 181.390625 C 393.117188 181.390625 394.636719 181.9375 395.851562 183.015625 C 397.09375 184.121094 397.722656 185.550781 397.722656 187.257812 C 397.722656 188.96875 397.09375 190.394531 395.851562 191.496094 C 394.636719 192.574219 393.117188 193.121094 391.324219 193.121094 " fill-opacity="1" fill-rule="nonzero"/><path fill="#f96f5f" d="M 125.214844 38.730469 C 124.148438 25.339844 134.140625 13.558594 147.527344 12.417969 C 160.914062 11.277344 172.628906 21.210938 173.695312 34.601562 C 174.757812 47.996094 164.765625 59.777344 151.378906 60.914062 C 137.992188 62.054688 126.277344 52.121094 125.214844 38.730469 " fill-opacity="1" fill-rule="nonzero"/><path fill="#ffffff" d="M 155.890625 24.34375 L 159.167969 24.082031 C 159.542969 24.050781 159.875 24.332031 159.902344 24.707031 L 161.6875 46.792969 C 161.71875 47.167969 161.4375 47.496094 161.0625 47.527344 L 157.785156 47.792969 C 157.410156 47.824219 157.082031 47.542969 157.050781 47.167969 L 155.265625 25.082031 C 155.238281 24.707031 155.515625 24.375 155.890625 24.34375 " fill-opacity="1" fill-rule="nonzero"/><path fill="#ffffff" d="M 147.417969 31.890625 L 150.695312 31.628906 C 151.070312 31.597656 151.398438 31.875 151.429688 32.253906 L 152.664062 47.527344 C 152.691406 47.898438 152.414062 48.230469 152.035156 48.257812 L 148.761719 48.523438 C 148.386719 48.554688 148.054688 48.273438 148.027344 47.898438 L 146.792969 32.628906 C 146.761719 32.253906 147.039062 31.921875 147.417969 31.890625 " fill-opacity="1" fill-rule="nonzero"/><path fill="#ffffff" d="M 139.09375 41.324219 L 142.371094 41.058594 C 142.746094 41.027344 143.078125 41.308594 143.105469 41.683594 L 143.636719 48.253906 C 143.667969 48.628906 143.386719 48.960938 143.011719 48.988281 L 139.738281 49.253906 C 139.359375 49.285156 139.03125 49.003906 139 48.628906 L 138.46875 42.058594 C 138.441406 41.679688 138.71875 41.351562 139.09375 41.324219 " fill-opacity="1" fill-rule="nonzero"/><path fill="#000000" d="M 30.886719 204.992188 C 30.421875 204.992188 30.046875 204.617188 30.046875 204.148438 L 30.046875 199.792969 C 30.046875 199.328125 30.421875 198.953125 30.886719 198.953125 C 31.351562 198.953125 31.730469 199.328125 31.730469 199.792969 L 31.730469 204.148438 C 31.730469 204.617188 31.351562 204.992188 30.886719 204.992188 " fill-opacity="1" fill-rule="nonzero"/><path fill="#000000" d="M 30.886719 215.140625 C 30.421875 215.140625 30.046875 214.761719 30.046875 214.296875 L 30.046875 209.941406 C 30.046875 209.476562 30.421875 209.101562 30.886719 209.101562 C 31.351562 209.101562 31.730469 209.476562 31.730469 209.941406 L 31.730469 214.296875 C 31.730469 214.761719 31.351562 215.140625 30.886719 215.140625 " fill-opacity="1" fill-rule="nonzero"/><path fill="#000000" d="M 27.992188 207.886719 L 23.632812 207.886719 C 23.167969 207.886719 22.792969 207.511719 22.792969 207.042969 C 22.792969 206.582031 23.167969 206.203125 23.632812 206.203125 L 27.992188 206.203125 C 28.457031 206.203125 28.832031 206.582031 28.832031 207.042969 C 28.832031 207.511719 28.457031 207.886719 27.992188 207.886719 " fill-opacity="1" fill-rule="nonzero"/><path fill="#000000" d="M 38.136719 207.886719 L 33.78125 207.886719 C 33.316406 207.886719 32.941406 207.511719 32.941406 207.042969 C 32.941406 206.582031 33.316406 206.203125 33.78125 206.203125 L 38.136719 206.203125 C 38.601562 206.203125 38.980469 206.582031 38.980469 207.042969 C 38.980469 207.511719 38.601562 207.886719 38.136719 207.886719 " fill-opacity="1" fill-rule="nonzero"/><path fill="#000000" d="M 77.542969 304.738281 C 77.078125 304.738281 76.699219 304.359375 76.699219 303.894531 L 76.699219 299.539062 C 76.699219 299.074219 77.078125 298.695312 77.542969 298.695312 C 78.007812 298.695312 78.386719 299.074219 78.386719 299.539062 L 78.386719 303.894531 C 78.386719 304.359375 78.007812 304.738281 77.542969 304.738281 " fill-opacity="1" fill-rule="nonzero"/><path fill="#000000" d="M 77.542969 314.882812 C 77.078125 314.882812 76.699219 314.507812 76.699219 314.042969 L 76.699219 309.6875 C 76.699219 309.21875 77.078125 308.84375 77.542969 308.84375 C 78.007812 308.84375 78.386719 309.21875 78.386719 309.6875 L 78.386719 314.042969 C 78.386719 314.507812 78.007812 314.882812 77.542969 314.882812 " fill-opacity="1" fill-rule="nonzero"/><path fill="#000000" d="M 74.648438 307.632812 L 70.292969 307.632812 C 69.828125 307.632812 69.449219 307.253906 69.449219 306.789062 C 69.449219 306.328125 69.828125 305.949219 70.292969 305.949219 L 74.648438 305.949219 C 75.113281 305.949219 75.488281 306.328125 75.488281 306.789062 C 75.488281 307.253906 75.113281 307.632812 74.648438 307.632812 " fill-opacity="1" fill-rule="nonzero"/><path fill="#000000" d="M 84.792969 307.632812 L 80.4375 307.632812 C 79.972656 307.632812 79.597656 307.253906 79.597656 306.789062 C 79.597656 306.328125 79.972656 305.949219 80.4375 305.949219 L 84.792969 305.949219 C 85.257812 305.949219 85.636719 306.328125 85.636719 306.789062 C 85.636719 307.253906 85.257812 307.632812 84.792969 307.632812 " fill-opacity="1" fill-rule="nonzero"/><path fill="#000000" d="M 371.722656 49.550781 C 371.257812 49.550781 370.882812 49.171875 370.882812 48.707031 L 370.882812 44.351562 C 370.882812 43.886719 371.257812 43.507812 371.722656 43.507812 C 372.191406 43.507812 372.566406 43.886719 372.566406 44.351562 L 372.566406 48.707031 C 372.566406 49.171875 372.191406 49.550781 371.722656 49.550781 " fill-opacity="1" fill-rule="nonzero"/><path fill="#000000" d="M 371.722656 59.695312 C 371.257812 59.695312 370.882812 59.316406 370.882812 58.851562 L 370.882812 54.5 C 370.882812 54.035156 371.257812 53.65625 371.722656 53.65625 C 372.191406 53.65625 372.566406 54.035156 372.566406 54.5 L 372.566406 58.851562 C 372.566406 59.316406 372.191406 59.695312 371.722656 59.695312 " fill-opacity="1" fill-rule="nonzero"/><path fill="#000000" d="M 368.828125 52.441406 L 364.472656 52.441406 C 364.011719 52.441406 363.632812 52.066406 363.632812 51.601562 C 363.632812 51.136719 364.011719 50.757812 364.472656 50.757812 L 368.828125 50.757812 C 369.292969 50.757812 369.671875 51.136719 369.671875 51.601562 C 369.671875 52.066406 369.292969 52.441406 368.828125 52.441406 " fill-opacity="1" fill-rule="nonzero"/><path fill="#000000" d="M 378.976562 52.441406 L 374.621094 52.441406 C 374.15625 52.441406 373.777344 52.066406 373.777344 51.601562 C 373.777344 51.136719 374.15625 50.757812 374.621094 50.757812 L 378.976562 50.757812 C 379.441406 50.757812 379.820312 51.136719 379.820312 51.601562 C 379.820312 52.066406 379.441406 52.441406 378.976562 52.441406 " fill-opacity="1" fill-rule="nonzero"/><path fill="#ffffff" d="M 38.574219 234.726562 C 38.574219 236.929688 36.789062 238.714844 34.589844 238.714844 C 32.390625 238.714844 30.605469 236.929688 30.605469 234.726562 C 30.605469 232.53125 32.390625 230.746094 34.589844 230.746094 C 36.789062 230.746094 38.574219 232.53125 38.574219 234.726562 " fill-opacity="1" fill-rule="nonzero"/><path fill="#ffffff" d="M 432.140625 102.5 C 432.140625 104.699219 430.355469 106.484375 428.15625 106.484375 C 425.953125 106.484375 424.171875 104.699219 424.171875 102.5 C 424.171875 100.300781 425.953125 98.515625 428.15625 98.515625 C 430.355469 98.515625 432.140625 100.300781 432.140625 102.5 " fill-opacity="1" fill-rule="nonzero"/><path fill="#ffffff" d="M 107.304688 54.828125 C 107.304688 57.03125 105.519531 58.816406 103.320312 58.816406 C 101.121094 58.816406 99.335938 57.03125 99.335938 54.828125 C 99.335938 52.628906 101.121094 50.847656 103.320312 50.847656 C 105.519531 50.847656 107.304688 52.628906 107.304688 54.828125 " fill-opacity="1" fill-rule="nonzero"/><path fill="#f96f5f" d="M 34.222656 268.460938 C 33.789062 268.460938 33.421875 268.132812 33.382812 267.695312 C 33.179688 265.460938 33 263.195312 32.855469 260.957031 C 32.824219 260.492188 33.175781 260.09375 33.636719 260.0625 C 34.121094 260.035156 34.503906 260.382812 34.535156 260.847656 C 34.679688 263.070312 34.855469 265.324219 35.0625 267.539062 C 35.101562 268.003906 34.761719 268.414062 34.300781 268.457031 C 34.273438 268.460938 34.246094 268.460938 34.222656 268.460938 Z M 35.816406 281.84375 C 35.40625 281.84375 35.046875 281.542969 34.984375 281.125 C 34.660156 278.914062 34.359375 276.660156 34.09375 274.421875 C 34.039062 273.957031 34.367188 273.539062 34.828125 273.484375 C 35.289062 273.429688 35.710938 273.757812 35.765625 274.21875 C 36.03125 276.445312 36.328125 278.683594 36.652344 280.878906 C 36.71875 281.339844 36.402344 281.769531 35.941406 281.835938 C 35.898438 281.84375 35.859375 281.84375 35.816406 281.84375 Z M 400.472656 283.886719 C 400.015625 283.886719 399.636719 283.515625 399.632812 283.054688 C 399.597656 280.71875 399.46875 278.484375 399.238281 276.410156 C 399.191406 275.945312 399.523438 275.53125 399.988281 275.480469 C 400.445312 275.429688 400.863281 275.761719 400.914062 276.226562 C 401.148438 278.355469 401.28125 280.644531 401.316406 283.03125 C 401.320312 283.496094 400.949219 283.878906 400.484375 283.886719 C 400.480469 283.886719 400.472656 283.886719 400.472656 283.886719 Z M 38.15625 295.128906 C 37.765625 295.128906 37.414062 294.851562 37.332031 294.453125 C 36.882812 292.273438 36.453125 290.035156 36.0625 287.804688 C 35.980469 287.347656 36.285156 286.910156 36.746094 286.828125 C 37.207031 286.75 37.640625 287.054688 37.722656 287.515625 C 38.109375 289.726562 38.535156 291.949219 38.980469 294.113281 C 39.074219 294.570312 38.78125 295.015625 38.328125 295.109375 C 38.269531 295.121094 38.210938 295.128906 38.15625 295.128906 Z M 399.734375 297.339844 C 399.703125 297.339844 399.671875 297.335938 399.636719 297.332031 C 399.175781 297.28125 398.84375 296.863281 398.898438 296.398438 C 399.160156 294.109375 399.351562 291.871094 399.472656 289.730469 C 399.5 289.269531 399.890625 288.914062 400.363281 288.9375 C 400.828125 288.964844 401.183594 289.363281 401.152344 289.828125 C 401.03125 291.996094 400.835938 294.273438 400.570312 296.589844 C 400.523438 297.019531 400.15625 297.339844 399.734375 297.339844 Z M 41.273438 308.253906 C 40.902344 308.253906 40.5625 308.007812 40.460938 307.632812 C 39.875 305.472656 39.316406 303.265625 38.796875 301.066406 C 38.6875 300.613281 38.96875 300.160156 39.421875 300.050781 C 39.875 299.945312 40.328125 300.222656 40.433594 300.675781 C 40.953125 302.859375 41.507812 305.054688 42.085938 307.191406 C 42.207031 307.640625 41.941406 308.105469 41.492188 308.226562 C 41.417969 308.246094 41.347656 308.253906 41.273438 308.253906 Z M 397.597656 310.652344 C 397.542969 310.652344 397.488281 310.644531 397.429688 310.632812 C 396.972656 310.539062 396.679688 310.097656 396.773438 309.640625 C 397.226562 307.414062 397.632812 305.195312 397.980469 303.042969 C 398.050781 302.582031 398.488281 302.269531 398.945312 302.34375 C 399.40625 302.417969 399.714844 302.851562 399.644531 303.308594 C 399.289062 305.484375 398.882812 307.730469 398.425781 309.976562 C 398.34375 310.375 397.992188 310.652344 397.597656 310.652344 Z M 45.210938 321.164062 C 44.863281 321.164062 44.535156 320.941406 44.414062 320.59375 C 43.691406 318.476562 42.992188 316.308594 42.332031 314.144531 C 42.195312 313.699219 42.445312 313.230469 42.890625 313.09375 C 43.335938 312.957031 43.804688 313.207031 43.941406 313.652344 C 44.597656 315.800781 45.292969 317.953125 46.007812 320.050781 C 46.160156 320.488281 45.925781 320.96875 45.484375 321.117188 C 45.394531 321.148438 45.300781 321.164062 45.210938 321.164062 Z M 394.433594 323.757812 C 394.359375 323.757812 394.28125 323.75 394.207031 323.726562 C 393.761719 323.601562 393.5 323.136719 393.621094 322.6875 C 394.222656 320.523438 394.792969 318.339844 395.316406 316.191406 C 395.421875 315.738281 395.875 315.460938 396.332031 315.570312 C 396.785156 315.679688 397.0625 316.136719 396.953125 316.585938 C 396.425781 318.753906 395.855469 320.957031 395.246094 323.140625 C 395.140625 323.515625 394.804688 323.757812 394.433594 323.757812 Z M 50.019531 333.777344 C 49.691406 333.777344 49.378906 333.582031 49.242188 333.261719 C 48.371094 331.199219 47.519531 329.082031 46.71875 326.96875 C 46.550781 326.535156 46.769531 326.046875 47.203125 325.882812 C 47.636719 325.71875 48.125 325.933594 48.289062 326.367188 C 49.089844 328.460938 49.929688 330.5625 50.792969 332.605469 C 50.976562 333.035156 50.777344 333.527344 50.347656 333.710938 C 50.238281 333.753906 50.128906 333.777344 50.019531 333.777344 Z M 390.394531 336.625 C 390.304688 336.625 390.210938 336.613281 390.121094 336.578125 C 389.683594 336.425781 389.449219 335.945312 389.601562 335.507812 C 390.339844 333.402344 391.050781 331.257812 391.71875 329.132812 C 391.855469 328.6875 392.324219 328.441406 392.769531 328.582031 C 393.214844 328.722656 393.464844 329.191406 393.324219 329.636719 C 392.652344 331.777344 391.9375 333.9375 391.195312 336.0625 C 391.070312 336.410156 390.746094 336.625 390.394531 336.625 Z M 55.742188 345.996094 C 55.4375 345.996094 55.144531 345.832031 54.992188 345.542969 C 53.964844 343.554688 52.957031 341.507812 52 339.457031 C 51.804688 339.035156 51.984375 338.535156 52.40625 338.335938 C 52.824219 338.140625 53.328125 338.320312 53.523438 338.742188 C 54.476562 340.773438 55.472656 342.800781 56.488281 344.769531 C 56.703125 345.183594 56.542969 345.691406 56.128906 345.902344 C 56.003906 345.964844 55.871094 345.996094 55.742188 345.996094 Z M 385.53125 349.199219 C 385.421875 349.199219 385.3125 349.179688 385.203125 349.132812 C 384.773438 348.949219 384.574219 348.453125 384.757812 348.027344 C 385.621094 346 386.472656 343.90625 387.285156 341.804688 C 387.457031 341.375 387.941406 341.15625 388.371094 341.324219 C 388.808594 341.492188 389.027344 341.980469 388.859375 342.414062 C 388.039062 344.535156 387.179688 346.644531 386.308594 348.6875 C 386.167969 349.007812 385.859375 349.199219 385.53125 349.199219 Z M 259.832031 356.449219 C 259.511719 356.449219 259.203125 356.261719 259.0625 355.949219 C 258.871094 355.527344 259.0625 355.027344 259.488281 354.835938 C 260.425781 354.414062 261.433594 354.097656 262.480469 353.890625 C 263.792969 353.632812 265.140625 353.5625 266.480469 353.683594 C 266.945312 353.726562 267.285156 354.136719 267.242188 354.597656 C 267.203125 355.0625 266.78125 355.402344 266.328125 355.363281 C 265.144531 355.253906 263.960938 355.316406 262.804688 355.542969 C 261.882812 355.726562 260.996094 356.003906 260.175781 356.375 C 260.0625 356.421875 259.949219 356.449219 259.832031 356.449219 Z M 62.425781 357.714844 C 62.144531 357.714844 61.871094 357.578125 61.710938 357.320312 C 60.523438 355.433594 59.351562 353.472656 58.226562 351.503906 C 57.996094 351.097656 58.140625 350.582031 58.542969 350.351562 C 58.945312 350.121094 59.460938 350.261719 59.691406 350.667969 C 60.804688 352.621094 61.964844 354.554688 63.136719 356.425781 C 63.382812 356.816406 63.265625 357.339844 62.871094 357.585938 C 62.734375 357.671875 62.578125 357.714844 62.425781 357.714844 Z M 379.777344 361.394531 C 379.644531 361.394531 379.511719 361.359375 379.386719 361.296875 C 378.976562 361.082031 378.816406 360.570312 379.03125 360.160156 C 380.042969 358.226562 381.046875 356.203125 382.011719 354.148438 C 382.210938 353.730469 382.710938 353.550781 383.132812 353.75 C 383.554688 353.945312 383.734375 354.449219 383.535156 354.871094 C 382.558594 356.945312 381.542969 358.988281 380.523438 360.941406 C 380.375 361.226562 380.078125 361.394531 379.777344 361.394531 Z M 278.027344 361.605469 C 277.808594 361.605469 277.59375 361.519531 277.425781 361.351562 C 275.804688 359.6875 274.09375 358.335938 272.335938 357.339844 C 271.929688 357.109375 271.789062 356.597656 272.019531 356.191406 C 272.25 355.785156 272.761719 355.644531 273.167969 355.871094 C 275.066406 356.949219 276.902344 358.398438 278.632812 360.175781 C 278.957031 360.507812 278.949219 361.042969 278.617188 361.367188 C 278.453125 361.523438 278.242188 361.605469 278.027344 361.605469 Z M 251.921875 366.777344 C 251.851562 366.777344 251.78125 366.769531 251.710938 366.75 C 251.261719 366.636719 250.988281 366.179688 251.105469 365.726562 C 251.71875 363.296875 252.699219 361.148438 254.015625 359.34375 C 254.289062 358.96875 254.8125 358.882812 255.191406 359.160156 C 255.566406 359.433594 255.648438 359.960938 255.375 360.335938 C 254.1875 361.964844 253.296875 363.917969 252.734375 366.140625 C 252.640625 366.523438 252.296875 366.777344 251.921875 366.777344 Z M 70.097656 368.796875 C 69.84375 368.796875 69.59375 368.683594 69.425781 368.464844 C 68.070312 366.6875 66.730469 364.84375 65.441406 362.984375 C 65.179688 362.597656 65.273438 362.074219 65.65625 361.808594 C 66.039062 361.546875 66.5625 361.640625 66.828125 362.023438 C 68.101562 363.863281 69.425781 365.6875 70.765625 367.445312 C 71.050781 367.816406 70.976562 368.34375 70.609375 368.625 C 70.453125 368.742188 70.277344 368.796875 70.097656 368.796875 Z M 285.214844 372.910156 C 284.878906 372.910156 284.558594 372.703125 284.429688 372.367188 C 283.660156 370.363281 282.664062 368.390625 281.472656 366.507812 C 281.21875 366.117188 281.339844 365.597656 281.730469 365.347656 C 282.125 365.097656 282.644531 365.214844 282.890625 365.605469 C 284.148438 367.585938 285.191406 369.65625 286 371.765625 C 286.171875 372.199219 285.953125 372.683594 285.515625 372.855469 C 285.417969 372.890625 285.316406 372.910156 285.214844 372.910156 Z M 372.945312 373.015625 C 372.785156 373.015625 372.625 372.96875 372.480469 372.871094 C 372.09375 372.613281 371.988281 372.089844 372.242188 371.703125 C 373.429688 369.925781 374.625 368.015625 375.789062 366.027344 C 376.023438 365.625 376.539062 365.488281 376.941406 365.722656 C 377.339844 365.960938 377.476562 366.476562 377.242188 366.875 C 376.058594 368.894531 374.851562 370.832031 373.648438 372.640625 C 373.484375 372.882812 373.21875 373.015625 372.945312 373.015625 Z M 78.769531 379.097656 C 78.542969 379.097656 78.320312 379.007812 78.152344 378.828125 C 76.632812 377.195312 75.121094 375.484375 73.664062 373.753906 C 73.367188 373.398438 73.410156 372.867188 73.765625 372.566406 C 74.125 372.269531 74.652344 372.3125 74.953125 372.667969 C 76.394531 374.378906 77.882812 376.066406 79.386719 377.679688 C 79.703125 378.023438 79.683594 378.554688 79.34375 378.871094 C 79.179688 379.023438 78.976562 379.097656 78.769531 379.097656 Z M 252.46875 380.0625 C 252.121094 380.0625 251.792969 379.84375 251.675781 379.496094 C 250.941406 377.386719 250.5 375.019531 250.402344 372.652344 C 250.386719 372.183594 250.746094 371.792969 251.210938 371.773438 C 251.703125 371.761719 252.070312 372.117188 252.089844 372.582031 C 252.179688 374.785156 252.585938 376.988281 253.261719 378.941406 C 253.417969 379.382812 253.1875 379.863281 252.746094 380.011719 C 252.65625 380.046875 252.558594 380.0625 252.46875 380.0625 Z M 364.609375 383.585938 C 364.394531 383.585938 364.1875 383.507812 364.023438 383.347656 C 363.6875 383.027344 363.679688 382.492188 364 382.15625 C 365.4375 380.667969 366.902344 378.972656 368.34375 377.121094 C 368.632812 376.757812 369.160156 376.691406 369.527344 376.976562 C 369.894531 377.265625 369.960938 377.792969 369.675781 378.160156 C 368.191406 380.054688 366.691406 381.796875 365.210938 383.328125 C 365.046875 383.5 364.828125 383.585938 364.609375 383.585938 Z M 286.902344 386.160156 C 286.878906 386.160156 286.847656 386.15625 286.824219 386.152344 C 286.355469 386.109375 286.019531 385.699219 286.0625 385.238281 C 286.152344 384.296875 286.195312 383.328125 286.195312 382.367188 C 286.195312 381.164062 286.125 379.921875 285.988281 378.6875 C 285.933594 378.222656 286.269531 377.808594 286.730469 377.757812 C 287.191406 377.707031 287.613281 378.035156 287.664062 378.5 C 287.804688 379.800781 287.878906 381.101562 287.878906 382.367188 C 287.878906 383.378906 287.832031 384.398438 287.742188 385.394531 C 287.699219 385.832031 287.332031 386.160156 286.902344 386.160156 Z M 88.417969 388.460938 C 88.222656 388.460938 88.023438 388.394531 87.863281 388.253906 C 86.179688 386.78125 84.507812 385.238281 82.886719 383.671875 C 82.554688 383.347656 82.546875 382.8125 82.871094 382.476562 C 83.195312 382.144531 83.730469 382.136719 84.0625 382.460938 C 85.660156 384.011719 87.3125 385.535156 88.972656 386.988281 C 89.324219 387.292969 89.359375 387.824219 89.050781 388.171875 C 88.886719 388.363281 88.652344 388.460938 88.417969 388.460938 Z M 260.066406 391.015625 C 259.863281 391.015625 259.660156 390.941406 259.5 390.796875 C 257.722656 389.179688 256.175781 387.449219 254.902344 385.644531 C 254.632812 385.265625 254.722656 384.738281 255.101562 384.472656 C 255.484375 384.203125 256.007812 384.292969 256.277344 384.671875 C 257.484375 386.375 258.945312 388.015625 260.632812 389.550781 C 260.976562 389.863281 261 390.394531 260.691406 390.738281 C 260.523438 390.921875 260.292969 391.015625 260.066406 391.015625 Z M 354.332031 392.273438 C 354.074219 392.273438 353.820312 392.15625 353.65625 391.933594 C 353.375 391.5625 353.453125 391.035156 353.824219 390.757812 C 355.515625 389.496094 357.285156 388.105469 359.085938 386.617188 C 359.449219 386.320312 359.976562 386.375 360.269531 386.734375 C 360.566406 387.089844 360.515625 387.621094 360.160156 387.917969 C 358.339844 389.421875 356.546875 390.832031 354.832031 392.109375 C 354.679688 392.222656 354.503906 392.273438 354.332031 392.273438 Z M 99.011719 396.769531 C 98.84375 396.769531 98.675781 396.71875 98.527344 396.617188 C 96.683594 395.328125 94.855469 393.96875 93.082031 392.578125 C 92.71875 392.292969 92.652344 391.761719 92.941406 391.394531 C 93.226562 391.03125 93.757812 390.96875 94.121094 391.253906 C 95.871094 392.625 97.675781 393.964844 99.492188 395.238281 C 99.875 395.503906 99.96875 396.03125 99.699219 396.410156 C 99.535156 396.644531 99.273438 396.769531 99.011719 396.769531 Z M 271.292969 398.386719 C 271.171875 398.386719 271.046875 398.355469 270.929688 398.300781 C 268.789062 397.265625 266.78125 396.144531 264.960938 394.964844 C 264.566406 394.714844 264.453125 394.191406 264.707031 393.800781 C 264.960938 393.40625 265.480469 393.296875 265.875 393.550781 C 267.640625 394.691406 269.589844 395.78125 271.660156 396.785156 C 272.082031 396.984375 272.253906 397.488281 272.050781 397.90625 C 271.90625 398.207031 271.609375 398.386719 271.292969 398.386719 Z M 282.691406 398.828125 C 282.546875 398.828125 282.390625 398.789062 282.257812 398.703125 C 281.855469 398.460938 281.730469 397.941406 281.976562 397.546875 C 283.117188 395.664062 284.042969 393.675781 284.726562 391.625 C 284.875 391.183594 285.351562 390.945312 285.789062 391.09375 C 286.234375 391.238281 286.46875 391.714844 286.324219 392.15625 C 285.605469 394.328125 284.625 396.433594 283.410156 398.421875 C 283.253906 398.683594 282.976562 398.828125 282.691406 398.828125 Z M 343 399.539062 C 342.699219 399.539062 342.410156 399.378906 342.257812 399.09375 C 342.039062 398.679688 342.195312 398.171875 342.609375 397.953125 C 344.488281 396.953125 346.417969 395.820312 348.34375 394.574219 C 348.734375 394.324219 349.257812 394.433594 349.507812 394.824219 C 349.761719 395.214844 349.648438 395.738281 349.261719 395.988281 C 347.292969 397.257812 345.316406 398.421875 343.394531 399.441406 C 343.269531 399.507812 343.136719 399.539062 343 399.539062 Z M 283.914062 403.082031 C 283.839844 403.082031 283.761719 403.074219 283.6875 403.054688 C 281.453125 402.425781 279.273438 401.71875 277.207031 400.957031 C 276.773438 400.792969 276.550781 400.3125 276.710938 399.875 C 276.871094 399.4375 277.355469 399.21875 277.789062 399.375 C 279.8125 400.125 281.949219 400.8125 284.140625 401.429688 C 284.589844 401.554688 284.851562 402.019531 284.722656 402.46875 C 284.621094 402.839844 284.28125 403.082031 283.914062 403.082031 Z M 110.433594 403.890625 C 110.296875 403.890625 110.15625 403.855469 110.027344 403.785156 C 108.054688 402.699219 106.089844 401.546875 104.179688 400.355469 C 103.785156 400.109375 103.664062 399.59375 103.910156 399.195312 C 104.15625 398.800781 104.675781 398.679688 105.070312 398.929688 C 106.953125 400.101562 108.894531 401.238281 110.839844 402.308594 C 111.246094 402.535156 111.394531 403.046875 111.171875 403.453125 C 111.019531 403.730469 110.730469 403.890625 110.433594 403.890625 Z M 330.53125 404.566406 C 330.167969 404.566406 329.828125 404.324219 329.722656 403.953125 C 329.597656 403.503906 329.859375 403.039062 330.308594 402.914062 C 332.417969 402.324219 334.53125 401.605469 336.585938 400.769531 C 337.019531 400.597656 337.507812 400.804688 337.683594 401.234375 C 337.855469 401.667969 337.652344 402.15625 337.21875 402.332031 C 335.105469 403.1875 332.933594 403.929688 330.757812 404.535156 C 330.6875 404.558594 330.609375 404.566406 330.53125 404.566406 Z M 297.109375 405.816406 C 297.070312 405.816406 297.035156 405.8125 296.996094 405.808594 C 294.777344 405.507812 292.523438 405.117188 290.292969 404.660156 C 289.835938 404.5625 289.542969 404.117188 289.640625 403.664062 C 289.734375 403.207031 290.183594 402.914062 290.636719 403.007812 C 292.824219 403.460938 295.042969 403.84375 297.222656 404.136719 C 297.6875 404.199219 298.007812 404.625 297.945312 405.085938 C 297.886719 405.507812 297.527344 405.816406 297.109375 405.816406 Z M 317.265625 406.75 C 316.824219 406.75 316.457031 406.40625 316.425781 405.960938 C 316.398438 405.496094 316.753906 405.097656 317.214844 405.066406 C 319.480469 404.925781 321.707031 404.679688 323.824219 404.335938 C 324.28125 404.261719 324.71875 404.574219 324.792969 405.03125 C 324.863281 405.492188 324.554688 405.925781 324.09375 406 C 321.917969 406.351562 319.640625 406.605469 317.320312 406.75 C 317.300781 406.75 317.285156 406.75 317.265625 406.75 Z M 310.539062 406.886719 C 310.53125 406.886719 310.527344 406.886719 310.519531 406.886719 C 308.367188 406.847656 306.082031 406.730469 303.742188 406.535156 C 303.273438 406.5 302.929688 406.089844 302.96875 405.628906 C 303.007812 405.164062 303.421875 404.820312 303.878906 404.855469 C 306.183594 405.046875 308.433594 405.164062 310.554688 405.203125 C 311.015625 405.210938 311.386719 405.59375 311.378906 406.058594 C 311.367188 406.519531 310.996094 406.886719 310.539062 406.886719 Z M 273.585938 408.640625 C 273.328125 408.640625 273.074219 408.523438 272.910156 408.304688 C 272.632812 407.933594 272.707031 407.402344 273.082031 407.125 C 274.886719 405.777344 276.539062 404.308594 278 402.75 C 278.316406 402.410156 278.847656 402.394531 279.1875 402.710938 C 279.527344 403.027344 279.546875 403.5625 279.226562 403.902344 C 277.699219 405.53125 275.96875 407.070312 274.089844 408.476562 C 273.9375 408.589844 273.761719 408.640625 273.585938 408.640625 Z M 122.554688 409.738281 C 122.445312 409.738281 122.335938 409.71875 122.230469 409.671875 C 120.148438 408.800781 118.070312 407.867188 116.050781 406.894531 C 115.632812 406.6875 115.457031 406.1875 115.660156 405.765625 C 115.859375 405.347656 116.363281 405.171875 116.78125 405.375 C 118.777344 406.335938 120.828125 407.261719 122.882812 408.121094 C 123.308594 408.300781 123.511719 408.792969 123.332031 409.222656 C 123.199219 409.546875 122.882812 409.738281 122.554688 409.738281 Z M 135.222656 414.296875 C 135.144531 414.296875 135.0625 414.28125 134.980469 414.257812 C 132.820312 413.601562 130.652344 412.886719 128.542969 412.128906 C 128.105469 411.972656 127.878906 411.488281 128.035156 411.050781 C 128.195312 410.613281 128.679688 410.386719 129.113281 410.542969 C 131.195312 411.292969 133.335938 412 135.46875 412.644531 C 135.914062 412.78125 136.164062 413.253906 136.03125 413.699219 C 135.917969 414.058594 135.585938 414.296875 135.222656 414.296875 Z M 261.742188 414.988281 C 261.402344 414.988281 261.078125 414.777344 260.953125 414.4375 C 260.792969 414 261.015625 413.515625 261.453125 413.355469 C 263.550781 412.578125 265.582031 411.671875 267.496094 410.652344 C 267.90625 410.433594 268.414062 410.589844 268.636719 411 C 268.855469 411.410156 268.699219 411.921875 268.289062 412.140625 C 266.3125 413.191406 264.207031 414.132812 262.039062 414.9375 C 261.9375 414.972656 261.839844 414.988281 261.742188 414.988281 Z M 148.257812 417.695312 C 148.199219 417.695312 148.136719 417.691406 148.074219 417.675781 C 145.867188 417.183594 143.65625 416.652344 141.496094 416.085938 C 141.046875 415.96875 140.777344 415.511719 140.894531 415.0625 C 141.011719 414.613281 141.46875 414.339844 141.921875 414.457031 C 144.058594 415.015625 146.253906 415.546875 148.441406 416.03125 C 148.894531 416.132812 149.179688 416.582031 149.078125 417.039062 C 148.992188 417.429688 148.644531 417.695312 148.257812 417.695312 Z M 248.679688 418.207031 C 248.28125 418.207031 247.921875 417.921875 247.851562 417.519531 C 247.769531 417.058594 248.074219 416.621094 248.53125 416.539062 C 250.101562 416.257812 251.695312 415.960938 253.261719 415.652344 C 253.878906 415.53125 254.492188 415.402344 255.101562 415.257812 C 255.554688 415.152344 256.007812 415.433594 256.113281 415.890625 C 256.21875 416.339844 255.9375 416.792969 255.484375 416.898438 C 254.855469 417.042969 254.222656 417.179688 253.589844 417.304688 C 252.007812 417.613281 250.40625 417.914062 248.832031 418.195312 C 248.78125 418.207031 248.726562 418.207031 248.679688 418.207031 Z M 161.5 420.179688 C 161.457031 420.179688 161.414062 420.179688 161.367188 420.171875 C 159.132812 419.824219 156.890625 419.445312 154.703125 419.035156 C 154.242188 418.949219 153.941406 418.507812 154.027344 418.050781 C 154.113281 417.59375 154.550781 417.292969 155.011719 417.378906 C 157.183594 417.785156 159.40625 418.164062 161.625 418.507812 C 162.085938 418.578125 162.398438 419.003906 162.328125 419.464844 C 162.265625 419.882812 161.90625 420.179688 161.5 420.179688 Z M 235.367188 420.296875 C 234.949219 420.296875 234.589844 419.984375 234.53125 419.5625 C 234.472656 419.105469 234.796875 418.679688 235.257812 418.617188 C 237.460938 418.320312 239.699219 417.996094 241.90625 417.652344 C 242.363281 417.582031 242.796875 417.894531 242.871094 418.355469 C 242.941406 418.8125 242.625 419.242188 242.167969 419.316406 C 239.949219 419.664062 237.695312 419.992188 235.480469 420.289062 C 235.441406 420.292969 235.402344 420.296875 235.367188 420.296875 Z M 221.96875 421.777344 C 221.539062 421.777344 221.171875 421.449219 221.132812 421.007812 C 221.09375 420.546875 221.4375 420.136719 221.898438 420.097656 C 224.117188 419.902344 226.363281 419.679688 228.585938 419.433594 C 229.042969 419.382812 229.464844 419.714844 229.515625 420.179688 C 229.570312 420.640625 229.234375 421.054688 228.769531 421.105469 C 226.539062 421.355469 224.277344 421.582031 222.046875 421.773438 C 222.023438 421.777344 221.996094 421.777344 221.96875 421.777344 Z M 174.871094 421.824219 C 174.84375 421.824219 174.816406 421.820312 174.792969 421.816406 C 172.542969 421.609375 170.277344 421.367188 168.070312 421.097656 C 167.605469 421.039062 167.277344 420.621094 167.335938 420.15625 C 167.390625 419.695312 167.804688 419.367188 168.273438 419.425781 C 170.464844 419.691406 172.710938 419.933594 174.949219 420.140625 C 175.410156 420.183594 175.753906 420.59375 175.710938 421.054688 C 175.667969 421.492188 175.300781 421.824219 174.871094 421.824219 Z M 208.527344 422.636719 C 208.078125 422.636719 207.703125 422.28125 207.683594 421.828125 C 207.664062 421.363281 208.027344 420.972656 208.492188 420.953125 C 210.710938 420.863281 212.96875 420.746094 215.199219 420.605469 C 215.65625 420.570312 216.066406 420.925781 216.097656 421.390625 C 216.125 421.855469 215.773438 422.253906 215.308594 422.285156 C 213.0625 422.429688 210.792969 422.546875 208.558594 422.636719 C 208.550781 422.636719 208.535156 422.636719 208.527344 422.636719 Z M 188.320312 422.683594 C 188.308594 422.683594 188.296875 422.683594 188.285156 422.683594 C 186.03125 422.601562 183.757812 422.488281 181.535156 422.34375 C 181.070312 422.316406 180.71875 421.914062 180.746094 421.449219 C 180.777344 420.984375 181.175781 420.632812 181.640625 420.664062 C 183.851562 420.804688 186.105469 420.917969 188.347656 421 C 188.8125 421.015625 189.175781 421.40625 189.160156 421.871094 C 189.144531 422.324219 188.765625 422.683594 188.320312 422.683594 Z M 197.726562 422.855469 C 196.832031 422.855469 195.9375 422.847656 195.042969 422.839844 C 194.578125 422.835938 194.207031 422.453125 194.210938 421.988281 C 194.214844 421.527344 194.59375 421.15625 195.050781 421.15625 C 195.058594 421.15625 195.058594 421.15625 195.0625 421.15625 C 197.296875 421.179688 199.539062 421.171875 201.777344 421.136719 C 201.78125 421.136719 201.789062 421.136719 201.789062 421.136719 C 202.25 421.136719 202.625 421.507812 202.632812 421.96875 C 202.640625 422.433594 202.265625 422.816406 201.800781 422.824219 C 200.445312 422.84375 199.085938 422.855469 197.726562 422.855469 " fill-opacity="1" fill-rule="nonzero"/><path fill="#000000" d="M 456.820312 67.804688 C 456.535156 67.804688 456.261719 67.664062 456.101562 67.40625 C 445.210938 49.621094 431.730469 35.21875 416.03125 24.585938 C 415.644531 24.324219 415.542969 23.800781 415.808594 23.417969 C 416.070312 23.03125 416.59375 22.933594 416.976562 23.191406 C 432.878906 33.957031 446.523438 48.539062 457.539062 66.527344 C 457.78125 66.921875 457.65625 67.441406 457.257812 67.683594 C 457.121094 67.765625 456.96875 67.804688 456.820312 67.804688 " fill-opacity="1" fill-rule="nonzero"/><path fill="#000000" d="M 467.410156 72.96875 C 467.089844 72.96875 466.777344 72.78125 466.640625 72.464844 C 452.84375 41.527344 430.34375 23.140625 413.898438 13.160156 C 413.5 12.921875 413.375 12.402344 413.613281 12.003906 C 413.855469 11.605469 414.375 11.480469 414.769531 11.71875 C 431.425781 21.824219 454.207031 40.445312 468.175781 71.78125 C 468.367188 72.207031 468.175781 72.703125 467.75 72.890625 C 467.640625 72.941406 467.523438 72.96875 467.410156 72.96875 " fill-opacity="1" fill-rule="nonzero"/><path fill="#000000" d="M 34.125 79.964844 C 34.011719 79.964844 33.898438 79.941406 33.785156 79.890625 C 33.359375 79.703125 33.167969 79.207031 33.351562 78.78125 C 44.292969 53.847656 62.9375 33.386719 88.761719 17.972656 C 89.160156 17.738281 89.679688 17.863281 89.917969 18.269531 C 90.15625 18.667969 90.023438 19.183594 89.625 19.421875 C 64.105469 34.648438 45.695312 54.847656 34.894531 79.457031 C 34.757812 79.773438 34.449219 79.964844 34.125 79.964844 " fill-opacity="1" fill-rule="nonzero"/><path fill="#000000" d="M 24.332031 80.882812 C 24.238281 80.882812 24.144531 80.871094 24.054688 80.835938 C 23.617188 80.683594 23.382812 80.207031 23.535156 79.769531 C 23.660156 79.398438 36.6875 42.707031 74.304688 18.070312 C 74.695312 17.816406 75.21875 17.925781 75.472656 18.3125 C 75.726562 18.703125 75.617188 19.222656 75.226562 19.476562 C 38.109375 43.789062 25.25 79.957031 25.125 80.316406 C 25.007812 80.667969 24.679688 80.882812 24.332031 80.882812 " fill-opacity="1" fill-rule="nonzero"/></svg>