<svg xmlns="http://www.w3.org/2000/svg" xmlns:xlink="http://www.w3.org/1999/xlink" width="879" height="892" viewBox="0 0 879 892">
    <defs>
        <path id="prefix__a" d="M0.333 0L1920.333 0 1920.333 955 0.333 955z"/>
    </defs>
    <g fill="none" fill-rule="evenodd" transform="translate(-1041 -63)">
        <mask id="prefix__b" fill="#fff">
            <use xlink:href="#prefix__a"/>
        </mask>
        <path fill="#F8FBFF" d="M981.093 0h939.24v1000h-652.855c6.8-109.493 60.91-175.919 128.944-231.252 68.03-55.333 347.593-164.46 357.09-214.5 4.258-22.44 1.84-39.548-2.679-55.311-25.44-88.8-138.67-48.444-242.937-71.06-94.133-20.414-140.096-135.458-183.64-185.084l1.274-.137c-9.134-7.019-16.57-13.263-21.908-18.434-40.94-39.692-150.07-94.759-219.618-133.481C1035.34 63.648 998.71 22.359 981.093 0" mask="url(#prefix__b)"/>
        <path fill="#F13624" stroke="#F8FBFF" d="M1042.936 60.781c.323-.04.66.044.937.26 11.423 8.95 23.973 17.864 37.761 26.688 13.8 8.833 28.857 17.584 45.274 26.203 83.162 43.642 139.468 75.713 184.536 115.329 4.302 3.78 8.497 7.631 12.607 11.563 7.686-4.906 15.523-3.328 27.646 1.163 4.314 1.6 11.909 4.474 21.611 8.151 44.542 16.862 132.482 50.151 182.02 65.237 18.75 5.707 30.458 10.975 36.662 15.862 3.225 2.54 4.946 4.957 5.325 7.29.396 2.436-.704 4.738-2.933 6.935-7.755 7.641-31.232 13.303-56.761 17.809-42.805 7.552-108.78 27.957-109.93 28.313-.31.095-.615.074-.882-.039-.27-.113-.5-.318-.639-.59-33.66-65.151-63.925-109.425-101.625-146.106-7.293 6.324-13.461 20.026-23.023 44.875-10.339 26.875-18.092 48.601-24.797 67.4-5.93 16.62-11.044 30.942-16.557 44.892-2.797 7.074-4.08 12.78-3.899 17.575.187 4.913 1.9 8.886 5.114 12.402 6.532 7.153 19.387 12.799 38.259 20.64 24.981 10.378 76.88 27.928 121.672 43.075 23.227 7.854 44.476 15.041 59.14 20.267 3.799 1.351 7.142 2.576 10.26 3.72 17.392 6.374 27.649 10.046 35.662 6.49 7.26-3.222 12.73-12.39 19.917-31.162 10.478-27.363 22.182-52.757 30.572-70.963 5.255-11.39 9.179-19.911 10.692-24.314.395-1.134 1.406-1.96 2.907-2.518 3.578-1.336 10.723-1.341 20.072.074 9.257 1.4 20.797 4.193 33.316 8.5 39.753 13.69 89.537 42.742 107.71 91.41 7.553 20.234 6.608 44.083.848 68.644h0l-.142.604c.202 0 .406.003.612.01 2.565.083 4.77.652 6.714 1.726 5.295 2.94 8.285 9.426 11.023 19.758 3.27 12.326 14.797 55.369 25.038 92.992 6.22 22.86 11.89 43.419 14.762 53.213 2.082 7.099 2.957 12.982 2.024 18.162-.854 4.738-3.23 8.876-7.556 12.82-8.758 7.984-25.6 14.907-54.4 24.298-28.487 9.29-61.253 20.617-90.674 30.788h0l-.522.18c-30.3 10.476-57.013 19.711-71.43 24.085-14.535 4.413-24.267 4.82-31.161 1.925-7.025-2.96-10.92-9.164-13.843-17.789-3.671-10.816-16.671-40.317-26.687-63.042-5.297-12.015-9.75-22.117-11.571-26.614-2.61-6.454-8.027-11.404-15.285-13.606-6.7-2.038-15.002-1.755-24.16 1.828-11.032 4.313-75.376 38.2-127.545 99.75-28.683 33.837-53.645 76.016-63.968 126.183-.068.342-.271.624-.542.803-.272.18-.613.256-.956.188-.344-.07-.628-.274-.807-.546-.18-.272-.255-.613-.185-.956 10.42-50.665 35.598-93.211 64.51-127.319 52.49-61.924 117.42-96.123 128.567-100.476 9.695-3.788 18.575-4.093 25.825-1.887 8.01 2.435 14.01 7.911 16.911 15.076 1.814 4.483 6.25 14.548 11.514 26.487 10.042 22.783 23.068 52.337 26.791 63.316 2.72 8.017 6.284 13.672 12.418 16.252 6.273 2.629 15.44 2.246 29.434-2.005 14.323-4.344 40.786-13.491 70.846-23.881h0l1.024-.355.842-.29c29.472-10.187 62.183-21.494 89.868-30.518 28.528-9.301 45.09-16.123 53.467-23.761 3.9-3.554 6.01-7.351 6.744-11.74.787-4.703-.018-10.1-1.938-16.637-2.958-10.091-8.617-30.602-14.786-53.265-10.048-36.917-21.677-80.356-25.032-93.008-2.59-9.784-5.357-15.716-9.798-18.187-1.753-.967-3.821-1.445-6.312-1.425-19.759 76.794-83.895 158.79-85.33 160.62-.17.239-.395.4-.647.482-.247.082-.522.088-.793.002l-.755-.245c-9.053-2.939-96.206-31.226-123.226-38.756-14.725-4.103-27.05-7.548-35.365-9.885-8.963-2.519-14.682-4.146-16.014-4.58-1.123-.364-3.048-.979-3.799-2.368-.459-.849-.402-1.982.51-3.49 1.693-2.807 7.862-7.161 24.236-14.053 11.994-5.047 43.34-17.234 79.066-30.96 60.302-23.167 132.859-50.617 146.2-55.577 5.19-1.93 9.536-3.13 13.244-3.553 6.274-24.831 7.277-48.52-.195-68.53-17.816-47.717-66.892-76.36-106.154-89.88-12.37-4.26-23.749-7.014-32.866-8.392-9.017-1.363-15.694-1.378-18.804-.219-.899.334-1.293.716-1.376.975-1.551 4.497-5.473 13.004-10.679 24.298-8.503 18.444-20.174 43.758-30.62 71.047-7.617 19.9-13.315 29.773-21.027 33.203-8.512 3.785-19.413-.299-37.813-7.045h0l-.567-.208c-3.069-1.122-6.339-2.319-9.658-3.502-14.54-5.18-35.606-12.305-58.577-20.075-45.3-15.316-97.276-32.892-122.37-43.316-19.11-7.938-32.185-13.637-39.163-21.275-3.577-3.914-5.522-8.245-5.81-13.51-.287-5.28 1.08-11.484 4.099-19.125 5.494-13.897 10.604-28.21 16.524-44.812 6.723-18.83 14.333-40.151 24.837-67.444 9.614-24.98 15.866-38.941 22.84-45.713.124-.12.25-.24.376-.358l-.378-.362c-3.986-3.812-8.058-7.543-12.23-11.21-44.873-39.444-101.038-71.44-184.024-114.994-16.48-8.648-31.6-17.437-45.466-26.312-13.879-8.883-26.5-17.844-37.958-26.824-.277-.217-.441-.527-.481-.851-.04-.322.043-.66.26-.937.215-.276.522-.439.845-.478zm706.136 508.444c-.254.023-.503.06-.748.1-3.16.508-6.883 1.596-11.31 3.24-13.433 4.992-86.102 32.486-146.182 55.565-35.633 13.691-66.927 25.86-78.982 30.935-16 6.73-21.664 10.745-22.755 14.377.414.352 1.161.62 1.608.766 1.33.431 7.014 2.048 15.913 4.551 9.545 2.682 21.553 6.037 35.354 9.882 26.754 7.458 111.914 35.08 123.456 38.483 7.297-9.463 65.09-85.916 83.462-157.18l.184-.72zM1326.756 242.57c-.182.112-.36.227-.533.345.144.144.295.29.446.438 37.5 36.575 67.67 80.634 101.674 145.369 9.842-3.014 69.228-20.979 108.84-27.968l1.503-.267c24.625-4.404 46.861-9.894 53.91-16.843.927-.913 1.545-1.87 1.834-2.865.287-.99.254-2.02-.141-3.093-.703-1.912-2.598-3.991-5.96-6.215-6.025-3.986-16.822-8.515-33.735-13.665-49.737-15.145-137.714-48.452-182.18-65.286-9.386-3.556-16.747-6.341-21.592-8.138-11.008-4.075-18.102-5.497-24.066-1.812z"/>
    </g>
</svg>
