<svg width="531" height="450" viewBox="0 0 531 450" fill="none" xmlns="http://www.w3.org/2000/svg">
<path d="M530.19 395.314H0.190002V395.616H530.19V395.314Z" fill="#E0E0E0"/>
<path d="M449.747 412.223H438.5V412.524H449.747V412.223Z" fill="#E0E0E0"/>
<path d="M430.72 412.367H384.981V412.669H430.72V412.367Z" fill="#E0E0E0"/>
<path d="M328.44 409.499H251.251V409.8H328.44V409.499Z" fill="#E0E0E0"/>
<path d="M206.848 414.73H182.351V415.031H206.848V414.73Z" fill="#E0E0E0"/>
<path d="M125.217 409.644H91.4878V409.945H125.217V409.644Z" fill="#E0E0E0"/>
<path d="M162.624 409.644H131.1V409.945H162.624V409.644Z" fill="#E0E0E0"/>
<path d="M101.59 404.377H69.3974V404.678H101.59V404.377Z" fill="#E0E0E0"/>
<path d="M251.41 341.563H46.7346C45.1312 341.56 43.5944 340.834 42.4616 339.544C41.3288 338.253 40.6926 336.505 40.6926 334.682V7.56128C40.7066 5.74873 41.3489 4.01563 42.4802 2.73843C43.6115 1.46124 45.1403 0.743095 46.7346 0.73999H251.41C253.015 0.73999 254.555 1.46501 255.69 2.75555C256.825 4.04609 257.463 5.79644 257.463 7.62154V334.682C257.463 336.507 256.825 338.257 255.69 339.548C254.555 340.838 253.015 341.563 251.41 341.563ZM46.7346 0.981026C45.2015 0.984219 43.7321 1.6789 42.649 2.91259C41.5659 4.14628 40.9576 5.81817 40.9576 7.56128V334.682C40.9576 336.425 41.5659 338.097 42.649 339.331C43.7321 340.564 45.2015 341.259 46.7346 341.262H251.41C252.944 341.259 254.415 340.565 255.499 339.331C256.584 338.098 257.195 336.426 257.198 334.682V7.56128C257.195 5.81707 256.584 4.1452 255.499 2.91186C254.415 1.67851 252.944 0.984212 251.41 0.981026H46.7346Z" fill="#E0E0E0"/>
<path d="M480.699 341.563H276.013C274.408 341.56 272.87 340.834 271.736 339.544C270.601 338.255 269.963 336.506 269.96 334.682V7.56128C269.977 5.74763 270.621 4.01454 271.754 2.73768C272.887 1.46082 274.417 0.743061 276.013 0.73999H480.699C482.291 0.746263 483.817 1.46581 484.946 2.74266C486.075 4.01952 486.716 5.75081 486.73 7.56128V334.682C486.73 336.503 486.095 338.25 484.965 339.539C483.834 340.829 482.3 341.557 480.699 341.563ZM276.013 0.981026C274.479 0.984212 273.008 1.67851 271.923 2.91186C270.838 4.1452 270.228 5.81707 270.225 7.56128V334.682C270.228 336.426 270.838 338.098 271.923 339.331C273.008 340.565 274.479 341.259 276.013 341.262H480.699C482.233 341.259 483.703 340.565 484.788 339.331C485.873 338.098 486.483 336.426 486.486 334.682V7.56128C486.483 5.81707 485.873 4.1452 484.788 2.91186C483.703 1.67851 482.233 0.984212 480.699 0.981026H276.013Z" fill="#E0E0E0"/>
<path d="M456.499 25.4099H71.7612C67.3588 25.4099 63.79 29.4675 63.79 34.4728V362.883C63.79 367.888 67.3588 371.946 71.7612 371.946H456.499C460.901 371.946 464.47 367.888 464.47 362.883V34.4728C464.47 29.4675 460.901 25.4099 456.499 25.4099Z" fill="#E0E0E0"/>
<path d="M458.619 25.4099H73.8812C69.4788 25.4099 65.91 29.4675 65.91 34.4728V362.883C65.91 367.888 69.4788 371.946 73.8812 371.946H458.619C463.021 371.946 466.59 367.888 466.59 362.883V34.4728C466.59 29.4675 463.021 25.4099 458.619 25.4099Z" fill="#EBEBEB"/>
<path d="M65.91 48.8385V362.883C65.9184 365.283 66.7612 367.581 68.2546 369.277C69.748 370.972 71.7707 371.928 73.8812 371.934H458.661C460.774 371.928 462.798 370.971 464.292 369.272C465.785 367.574 466.627 365.273 466.632 362.871V48.8385H65.91Z" fill="#E0E0E0"/>
<path d="M465.117 60.8903H67.3834V359.894H465.117V60.8903Z" fill="#FAFAFA"/>
<path d="M451.05 332.537H81.4496C81.4149 332.534 81.3825 332.516 81.3589 332.487C81.3353 332.458 81.3223 332.42 81.3224 332.38V80.2815C81.3224 80.2625 81.3257 80.2437 81.3321 80.2262C81.3385 80.2086 81.3478 80.1927 81.3596 80.1793C81.3715 80.1658 81.3855 80.1552 81.4009 80.1479C81.4163 80.1406 81.4329 80.1369 81.4496 80.1369H451.05C451.084 80.1369 451.116 80.1521 451.14 80.1793C451.164 80.2064 451.178 80.2432 451.178 80.2815V332.38C451.179 332.4 451.177 332.42 451.171 332.439C451.165 332.458 451.156 332.475 451.144 332.49C451.132 332.505 451.118 332.517 451.102 332.525C451.085 332.533 451.068 332.537 451.05 332.537ZM81.5874 332.235H450.913V80.4382H81.5874V332.235Z" fill="#E0E0E0"/>
<path d="M83.4 42.6198C82.4566 42.6198 81.5343 42.3018 80.7499 41.7058C79.9655 41.1099 79.3541 40.2629 78.9931 39.2719C78.632 38.281 78.5376 37.1905 78.7216 36.1385C78.9057 35.0865 79.36 34.1202 80.0271 33.3617C80.6942 32.6032 81.5441 32.0867 82.4694 31.8775C83.3947 31.6682 84.3538 31.7756 85.2254 32.1861C86.097 32.5966 86.842 33.2917 87.3661 34.1835C87.8902 35.0754 88.17 36.1239 88.17 37.1965C88.1672 38.6339 87.6637 40.0115 86.7698 41.0279C85.8758 42.0442 84.6642 42.6166 83.4 42.6198ZM83.4 32.9784C82.6662 32.9784 81.9489 33.2258 81.3388 33.6893C80.7287 34.1528 80.2532 34.8116 79.9724 35.5823C79.6916 36.3531 79.6181 37.2012 79.7613 38.0195C79.9044 38.8377 80.2578 39.5893 80.7766 40.1792C81.2955 40.7691 81.9565 41.1709 82.6762 41.3336C83.3959 41.4964 84.1418 41.4128 84.8197 41.0936C85.4976 40.7743 86.0771 40.2337 86.4847 39.54C86.8924 38.8463 87.11 38.0308 87.11 37.1965C87.11 36.0778 86.7191 35.0049 86.0233 34.2139C85.3276 33.4228 84.3839 32.9784 83.4 32.9784Z" fill="#FAFAFA"/>
<path d="M98.4202 42.6198C97.4768 42.6198 96.5545 42.3018 95.7701 41.7058C94.9857 41.1099 94.3743 40.2629 94.0133 39.2719C93.6522 38.281 93.5578 37.1905 93.7418 36.1385C93.9259 35.0865 94.3802 34.1202 95.0473 33.3617C95.7144 32.6032 96.5643 32.0867 97.4896 31.8775C98.4149 31.6682 99.374 31.7756 100.246 32.1861C101.117 32.5966 101.862 33.2917 102.386 34.1835C102.91 35.0754 103.19 36.1239 103.19 37.1965C103.187 38.6339 102.684 40.0115 101.79 41.0279C100.896 42.0442 99.6844 42.6166 98.4202 42.6198ZM98.4202 32.9784C97.6864 32.9784 96.9691 33.2258 96.359 33.6893C95.7489 34.1528 95.2734 34.8116 94.9926 35.5823C94.7118 36.3531 94.6383 37.2012 94.7815 38.0195C94.9246 38.8377 95.278 39.5893 95.7968 40.1792C96.3157 40.7691 96.9767 41.1709 97.6964 41.3336C98.4161 41.4964 99.162 41.4128 99.8399 41.0936C100.518 40.7743 101.097 40.2337 101.505 39.54C101.913 38.8463 102.13 38.0308 102.13 37.1965C102.13 36.0778 101.739 35.0049 101.044 34.2139C100.348 33.4228 99.4041 32.9784 98.4202 32.9784Z" fill="#FAFAFA"/>
<path d="M113.451 42.6198C112.508 42.6198 111.585 42.3018 110.801 41.7058C110.017 41.1099 109.405 40.2629 109.044 39.2719C108.683 38.281 108.589 37.1905 108.773 36.1385C108.957 35.0865 109.411 34.1202 110.078 33.3617C110.745 32.6032 111.595 32.0867 112.52 31.8775C113.446 31.6682 114.405 31.7756 115.276 32.1861C116.148 32.5966 116.893 33.2917 117.417 34.1835C117.941 35.0754 118.221 36.1239 118.221 37.1965C118.218 38.6339 117.715 40.0115 116.821 41.0279C115.927 42.0442 114.715 42.6166 113.451 42.6198ZM113.451 32.9784C112.717 32.9784 112 33.2258 111.39 33.6893C110.78 34.1528 110.304 34.8116 110.023 35.5823C109.743 36.3531 109.669 37.2012 109.812 38.0195C109.955 38.8377 110.309 39.5893 110.828 40.1792C111.346 40.7691 112.008 41.1709 112.727 41.3336C113.447 41.4964 114.193 41.4128 114.871 41.0936C115.549 40.7743 116.128 40.2337 116.536 39.54C116.943 38.8463 117.161 38.0308 117.161 37.1965C117.161 36.0778 116.77 35.0049 116.074 34.2139C115.379 33.4228 114.435 32.9784 113.451 32.9784Z" fill="#FAFAFA"/>
<path d="M466.59 48.236H65.91V49.4411H466.59V48.236Z" fill="#E0E0E0"/>
<path d="M284.895 90.5978H101.6V302.998H284.895V90.5978Z" fill="#EBEBEB"/>
<path d="M441.977 90.5978H320.957V159.691H441.977V90.5978Z" fill="#EBEBEB"/>
<path d="M343.63 132.104C351.24 132.104 357.41 125.09 357.41 116.437C357.41 107.784 351.24 100.77 343.63 100.77C336.019 100.77 329.85 107.784 329.85 116.437C329.85 125.09 336.019 132.104 343.63 132.104Z" fill="#FAFAFA"/>
<path d="M429.84 100.77H370.13V107.193H429.84V100.77Z" fill="#FAFAFA"/>
<path d="M408.884 112.556H370.13V118.98H408.884V112.556Z" fill="#FAFAFA"/>
<path d="M441.977 185.529H320.957V359.894H441.977V185.529Z" fill="#EBEBEB"/>
<path d="M377.953 198.678H326.331V257.37H377.953V198.678Z" fill="#FAFAFA"/>
<path d="M378.356 264.83H326.734V323.522H378.356V264.83Z" fill="#FAFAFA"/>
<path d="M436.613 198.678H384.991V229.808H436.613V198.678Z" fill="#FAFAFA"/>
<path d="M436.613 237.28H384.991V295.972H436.613V237.28Z" fill="#FAFAFA"/>
<path d="M378.356 330.548H326.734V359.894H378.356V330.548Z" fill="#FAFAFA"/>
<path d="M436.613 302.998H384.991V359.894H436.613V302.998Z" fill="#FAFAFA"/>
<path d="M265.19 449.74C378.697 449.74 470.713 443.632 470.713 436.097C470.713 428.563 378.697 422.455 265.19 422.455C151.683 422.455 59.6666 428.563 59.6666 436.097C59.6666 443.632 151.683 449.74 265.19 449.74Z" fill="#F5F5F5"/>
<path d="M287.736 367.342H94.9222C89.6885 367.342 85.4458 372.166 85.4458 378.116V417.224C85.4458 423.175 89.6885 427.999 94.9222 427.999H287.736C292.97 427.999 297.213 423.175 297.213 417.224V378.116C297.213 372.166 292.97 367.342 287.736 367.342Z" fill="#2E68B8"/>
<path d="M289.973 369.885H97.1587C91.9251 369.885 87.6823 374.709 87.6823 380.659V419.767C87.6823 425.718 91.9251 430.541 97.1587 430.541H289.973C295.206 430.541 299.449 425.718 299.449 419.767V380.659C299.449 374.709 295.206 369.885 289.973 369.885Z" fill="#2E68B8"/>
<path opacity="0.6" d="M289.973 369.885H97.1587C91.9251 369.885 87.6823 374.709 87.6823 380.659V419.767C87.6823 425.718 91.9251 430.541 97.1587 430.541H289.973C295.206 430.541 299.449 425.718 299.449 419.767V380.659C299.449 374.709 295.206 369.885 289.973 369.885Z" fill="#FAFAFA"/>
<path d="M292.209 372.428H99.3954C94.1617 372.428 89.919 377.252 89.919 383.202V422.322C89.919 428.273 94.1617 433.097 99.3954 433.097H292.209C297.443 433.097 301.686 428.273 301.686 422.322V383.202C301.686 377.252 297.443 372.428 292.209 372.428Z" fill="#2E68B8"/>
<path opacity="0.8" d="M292.209 372.428H99.3954C94.1617 372.428 89.919 377.252 89.919 383.202V422.322C89.919 428.273 94.1617 433.097 99.3954 433.097H292.209C297.443 433.097 301.686 428.273 301.686 422.322V383.202C301.686 377.252 297.443 372.428 292.209 372.428Z" fill="#FAFAFA"/>
<path d="M249.915 382.684H146.979C145.861 382.684 144.954 383.715 144.954 384.986V389.566C144.954 390.837 145.861 391.868 146.979 391.868H249.915C251.034 391.868 251.94 390.837 251.94 389.566V384.986C251.94 383.715 251.034 382.684 249.915 382.684Z" fill="#2E68B8"/>
<path d="M193.089 398.171H146.979C145.861 398.171 144.954 399.201 144.954 400.472V405.052C144.954 406.323 145.861 407.354 146.979 407.354H193.089C194.207 407.354 195.113 406.323 195.113 405.052V400.472C195.113 399.201 194.207 398.171 193.089 398.171Z" fill="#2E68B8"/>
<path d="M237.609 398.171H202.215C201.097 398.171 200.191 399.201 200.191 400.472V405.052C200.191 406.323 201.097 407.354 202.215 407.354H237.609C238.727 407.354 239.633 406.323 239.633 405.052V400.472C239.633 399.201 238.727 398.171 237.609 398.171Z" fill="#2E68B8"/>
<path d="M270.49 413.657H146.057C145.448 413.657 144.954 414.218 144.954 414.91V415.863C144.954 416.555 145.448 417.116 146.057 417.116H270.49C271.099 417.116 271.592 416.555 271.592 415.863V414.91C271.592 414.218 271.099 413.657 270.49 413.657Z" fill="#2E68B8"/>
<path opacity="0.5" d="M270.49 413.657H146.057C145.448 413.657 144.954 414.218 144.954 414.91V415.863C144.954 416.555 145.448 417.116 146.057 417.116H270.49C271.099 417.116 271.592 416.555 271.592 415.863V414.91C271.592 414.218 271.099 413.657 270.49 413.657Z" fill="#FAFAFA"/>
<path d="M134.135 407.787C136.566 396.178 130.258 384.526 120.047 381.762C109.836 378.998 99.5872 386.169 97.1564 397.779C94.7256 409.389 101.033 421.041 111.244 423.805C121.456 426.568 131.704 419.397 134.135 407.787Z" fill="#2E68B8"/>
<path d="M131.333 402.762C131.333 406.29 130.413 409.738 128.689 412.672C126.965 415.605 124.515 417.891 121.649 419.241C118.782 420.591 115.628 420.944 112.585 420.256C109.541 419.568 106.746 417.869 104.552 415.375C102.358 412.88 100.864 409.702 100.259 406.242C99.6533 402.782 99.9639 399.196 101.151 395.936C102.339 392.677 104.349 389.892 106.929 387.932C109.509 385.972 112.542 384.926 115.645 384.926C117.71 384.905 119.759 385.352 121.67 386.241C123.582 387.13 125.319 388.443 126.779 390.103C128.24 391.764 129.395 393.738 130.176 395.912C130.958 398.085 131.352 400.414 131.333 402.762Z" fill="#FAFAFA"/>
<path d="M129.436 411.259C128.087 414.076 126.096 416.428 123.671 418.067C121.246 419.705 118.477 420.57 115.656 420.57C112.835 420.57 110.066 419.705 107.641 418.067C105.216 416.428 103.224 414.076 101.876 411.259C105.957 408.168 110.752 406.518 115.656 406.518C120.56 406.518 125.354 408.168 129.436 411.259Z" fill="#2E68B8"/>
<path opacity="0.7" d="M129.436 411.259C128.087 414.076 126.096 416.428 123.671 418.067C121.246 419.705 118.477 420.57 115.656 420.57C112.835 420.57 110.066 419.705 107.641 418.067C105.216 416.428 103.224 414.076 101.876 411.259C105.957 408.168 110.752 406.518 115.656 406.518C120.56 406.518 125.354 408.168 129.436 411.259Z" fill="#FAFAFA"/>
<path d="M115.645 404.606C119.503 404.606 122.631 401.05 122.631 396.664C122.631 392.278 119.503 388.722 115.645 388.722C111.787 388.722 108.66 392.278 108.66 396.664C108.66 401.05 111.787 404.606 115.645 404.606Z" fill="#2E68B8"/>
<path opacity="0.7" d="M115.645 404.606C119.503 404.606 122.631 401.05 122.631 396.664C122.631 392.278 119.503 388.722 115.645 388.722C111.787 388.722 108.66 392.278 108.66 396.664C108.66 401.05 111.787 404.606 115.645 404.606Z" fill="#FAFAFA"/>
<path d="M287.736 297.153H94.9222C89.6885 297.153 85.4458 301.977 85.4458 307.927V347.035C85.4458 352.985 89.6885 357.809 94.9222 357.809H287.736C292.97 357.809 297.213 352.985 297.213 347.035V307.927C297.213 301.977 292.97 297.153 287.736 297.153Z" fill="#2E68B8"/>
<path d="M289.973 299.696H97.1587C91.9251 299.696 87.6823 304.519 87.6823 310.47V349.59C87.6823 355.54 91.9251 360.364 97.1587 360.364H289.973C295.206 360.364 299.449 355.54 299.449 349.59V310.47C299.449 304.519 295.206 299.696 289.973 299.696Z" fill="#2E68B8"/>
<path opacity="0.6" d="M289.973 299.696H97.1587C91.9251 299.696 87.6823 304.519 87.6823 310.47V349.59C87.6823 355.54 91.9251 360.364 97.1587 360.364H289.973C295.206 360.364 299.449 355.54 299.449 349.59V310.47C299.449 304.519 295.206 299.696 289.973 299.696Z" fill="#FAFAFA"/>
<path d="M292.209 302.239H99.3954C94.1617 302.239 89.919 307.062 89.919 313.013V352.121C89.919 358.071 94.1617 362.895 99.3954 362.895H292.209C297.443 362.895 301.686 358.071 301.686 352.121V313.013C301.686 307.062 297.443 302.239 292.209 302.239Z" fill="#2E68B8"/>
<path opacity="0.8" d="M292.209 302.239H99.3954C94.1617 302.239 89.919 307.062 89.919 313.013V352.121C89.919 358.071 94.1617 362.895 99.3954 362.895H292.209C297.443 362.895 301.686 358.071 301.686 352.121V313.013C301.686 307.062 297.443 302.239 292.209 302.239Z" fill="#FAFAFA"/>
<path d="M177.655 312.495H146.979C145.861 312.495 144.954 313.525 144.954 314.797V319.376C144.954 320.648 145.861 321.678 146.979 321.678H177.655C178.773 321.678 179.68 320.648 179.68 319.376V314.797C179.68 313.525 178.773 312.495 177.655 312.495Z" fill="#2E68B8"/>
<path d="M209.9 312.495H186.209C185.091 312.495 184.185 313.525 184.185 314.797V319.376C184.185 320.648 185.091 321.678 186.209 321.678H209.9C211.019 321.678 211.925 320.648 211.925 319.376V314.797C211.925 313.525 211.019 312.495 209.9 312.495Z" fill="#2E68B8"/>
<path d="M254.685 327.981H146.979C145.861 327.981 144.954 329.012 144.954 330.283V334.863C144.954 336.134 145.861 337.165 146.979 337.165H254.685C255.803 337.165 256.71 336.134 256.71 334.863V330.283C256.71 329.012 255.803 327.981 254.685 327.981Z" fill="#2E68B8"/>
<path d="M221.158 343.468H146.057C145.448 343.468 144.954 344.029 144.954 344.721V345.673C144.954 346.365 145.448 346.926 146.057 346.926H221.158C221.766 346.926 222.26 346.365 222.26 345.673V344.721C222.26 344.029 221.766 343.468 221.158 343.468Z" fill="#2E68B8"/>
<path opacity="0.5" d="M221.158 343.468H146.057C145.448 343.468 144.954 344.029 144.954 344.721V345.673C144.954 346.365 145.448 346.926 146.057 346.926H221.158C221.766 346.926 222.26 346.365 222.26 345.673V344.721C222.26 344.029 221.766 343.468 221.158 343.468Z" fill="#FAFAFA"/>
<path d="M134.138 337.601C136.569 325.992 130.262 314.34 120.05 311.576C109.839 308.812 99.5907 315.983 97.1599 327.593C94.7291 339.203 101.036 350.855 111.248 353.619C121.459 356.382 131.707 349.211 134.138 337.601Z" fill="#2E68B8"/>
<path d="M131.333 332.573C131.333 336.101 130.413 339.549 128.689 342.482C126.965 345.416 124.515 347.702 121.649 349.052C118.782 350.402 115.628 350.755 112.585 350.067C109.541 349.379 106.746 347.68 104.552 345.185C102.358 342.691 100.864 339.513 100.259 336.053C99.6533 332.593 99.9639 329.006 101.151 325.747C102.339 322.488 104.349 319.702 106.929 317.742C109.509 315.782 112.542 314.736 115.645 314.736C117.71 314.715 119.759 315.162 121.67 316.051C123.582 316.94 125.319 318.253 126.779 319.914C128.24 321.574 129.395 323.549 130.176 325.722C130.958 327.896 131.352 330.225 131.333 332.573Z" fill="#FAFAFA"/>
<path d="M129.436 341.069C128.087 343.887 126.096 346.239 123.671 347.877C121.246 349.516 118.477 350.381 115.656 350.381C112.835 350.381 110.066 349.516 107.641 347.877C105.216 346.239 103.224 343.887 101.876 341.069C105.957 337.978 110.752 336.329 115.656 336.329C120.56 336.329 125.354 337.978 129.436 341.069Z" fill="#2E68B8"/>
<path opacity="0.7" d="M129.436 341.069C128.087 343.887 126.096 346.239 123.671 347.877C121.246 349.516 118.477 350.381 115.656 350.381C112.835 350.381 110.066 349.516 107.641 347.877C105.216 346.239 103.224 343.887 101.876 341.069C105.957 337.978 110.752 336.329 115.656 336.329C120.56 336.329 125.354 337.978 129.436 341.069Z" fill="#FAFAFA"/>
<path d="M115.645 334.417C119.503 334.417 122.631 330.861 122.631 326.475C122.631 322.088 119.503 318.533 115.645 318.533C111.787 318.533 108.66 322.088 108.66 326.475C108.66 330.861 111.787 334.417 115.645 334.417Z" fill="#2E68B8"/>
<path opacity="0.7" d="M115.645 334.417C119.503 334.417 122.631 330.861 122.631 326.475C122.631 322.088 119.503 318.533 115.645 318.533C111.787 318.533 108.66 322.088 108.66 326.475C108.66 330.861 111.787 334.417 115.645 334.417Z" fill="#FAFAFA"/>
<path d="M287.736 226.963H94.9222C89.6885 226.963 85.4458 231.787 85.4458 237.738V276.858C85.4458 282.808 89.6885 287.632 94.9222 287.632H287.736C292.97 287.632 297.213 282.808 297.213 276.858V237.738C297.213 231.787 292.97 226.963 287.736 226.963Z" fill="#2E68B8"/>
<path d="M289.973 229.506H97.1587C91.9251 229.506 87.6823 234.33 87.6823 240.281V279.388C87.6823 285.339 91.9251 290.163 97.1587 290.163H289.973C295.206 290.163 299.449 285.339 299.449 279.388V240.281C299.449 234.33 295.206 229.506 289.973 229.506Z" fill="#2E68B8"/>
<path opacity="0.6" d="M289.973 229.506H97.1587C91.9251 229.506 87.6823 234.33 87.6823 240.281V279.388C87.6823 285.339 91.9251 290.163 97.1587 290.163H289.973C295.206 290.163 299.449 285.339 299.449 279.388V240.281C299.449 234.33 295.206 229.506 289.973 229.506Z" fill="#FAFAFA"/>
<path d="M292.209 232.049H99.3954C94.1617 232.049 89.919 236.873 89.919 242.823V281.943C89.919 287.894 94.1617 292.718 99.3954 292.718H292.209C297.443 292.718 301.686 287.894 301.686 281.943V242.823C301.686 236.873 297.443 232.049 292.209 232.049Z" fill="#2E68B8"/>
<path opacity="0.8" d="M292.209 232.049H99.3954C94.1617 232.049 89.919 236.873 89.919 242.823V281.943C89.919 287.894 94.1617 292.718 99.3954 292.718H292.209C297.443 292.718 301.686 287.894 301.686 281.943V242.823C301.686 236.873 297.443 232.049 292.209 232.049Z" fill="#FAFAFA"/>
<path d="M249.152 242.305H146.979C145.861 242.305 144.954 243.336 144.954 244.607V249.187C144.954 250.458 145.861 251.489 146.979 251.489H249.152C250.27 251.489 251.177 250.458 251.177 249.187V244.607C251.177 243.336 250.27 242.305 249.152 242.305Z" fill="#2E68B8"/>
<path d="M214.755 257.792H146.979C145.861 257.792 144.954 258.822 144.954 260.094V264.673C144.954 265.945 145.861 266.975 146.979 266.975H214.755C215.873 266.975 216.78 265.945 216.78 264.673V260.094C216.78 258.822 215.873 257.792 214.755 257.792Z" fill="#2E68B8"/>
<path d="M231.1 257.792H224.804C223.686 257.792 222.779 258.822 222.779 260.094V264.673C222.779 265.945 223.686 266.975 224.804 266.975H231.1C232.219 266.975 233.125 265.945 233.125 264.673V260.094C233.125 258.822 232.219 257.792 231.1 257.792Z" fill="#2E68B8"/>
<path d="M200.721 273.278H146.057C145.448 273.278 144.954 273.839 144.954 274.532V275.484C144.954 276.176 145.448 276.737 146.057 276.737H200.721C201.33 276.737 201.823 276.176 201.823 275.484V274.532C201.823 273.839 201.33 273.278 200.721 273.278Z" fill="#2E68B8"/>
<path opacity="0.5" d="M200.721 273.278H146.057C145.448 273.278 144.954 273.839 144.954 274.532V275.484C144.954 276.176 145.448 276.737 146.057 276.737H200.721C201.33 276.737 201.823 276.176 201.823 275.484V274.532C201.823 273.839 201.33 273.278 200.721 273.278Z" fill="#FAFAFA"/>
<path d="M271.391 273.278H208.713C208.104 273.278 207.611 273.839 207.611 274.532V275.484C207.611 276.176 208.104 276.737 208.713 276.737H271.391C272 276.737 272.493 276.176 272.493 275.484V274.532C272.493 273.839 272 273.278 271.391 273.278Z" fill="#2E68B8"/>
<path opacity="0.5" d="M271.391 273.278H208.713C208.104 273.278 207.611 273.839 207.611 274.532V275.484C207.611 276.176 208.104 276.737 208.713 276.737H271.391C272 276.737 272.493 276.176 272.493 275.484V274.532C272.493 273.839 272 273.278 271.391 273.278Z" fill="#FAFAFA"/>
<path d="M129.086 277.658C136.508 269.219 136.508 255.537 129.086 247.099C121.664 238.66 109.63 238.66 102.208 247.099C94.7857 255.537 94.7857 269.219 102.208 277.658C109.63 286.097 121.664 286.097 129.086 277.658Z" fill="#2E68B8"/>
<path d="M131.333 262.383C131.333 265.911 130.413 269.36 128.689 272.293C126.965 275.226 124.515 277.512 121.649 278.862C118.782 280.212 115.628 280.566 112.585 279.877C109.541 279.189 106.746 277.49 104.552 274.996C102.358 272.501 100.864 269.323 100.259 265.863C99.6533 262.403 99.9639 258.817 101.151 255.558C102.339 252.298 104.349 249.513 106.929 247.553C109.509 245.593 112.542 244.547 115.645 244.547C117.71 244.526 119.759 244.973 121.67 245.862C123.582 246.751 125.319 248.064 126.779 249.724C128.24 251.385 129.395 253.36 130.176 255.533C130.958 257.707 131.352 260.035 131.333 262.383Z" fill="#FAFAFA"/>
<path d="M129.436 270.88C128.087 273.697 126.096 276.049 123.671 277.688C121.246 279.326 118.477 280.191 115.656 280.191C112.835 280.191 110.066 279.326 107.641 277.688C105.216 276.049 103.224 273.697 101.876 270.88C105.957 267.789 110.752 266.14 115.656 266.14C120.56 266.14 125.354 267.789 129.436 270.88Z" fill="#2E68B8"/>
<path opacity="0.7" d="M129.436 270.88C128.087 273.697 126.096 276.049 123.671 277.688C121.246 279.326 118.477 280.191 115.656 280.191C112.835 280.191 110.066 279.326 107.641 277.688C105.216 276.049 103.224 273.697 101.876 270.88C105.957 267.789 110.752 266.14 115.656 266.14C120.56 266.14 125.354 267.789 129.436 270.88Z" fill="#FAFAFA"/>
<path d="M122.631 256.237C122.628 257.807 122.217 259.342 121.448 260.646C120.679 261.951 119.588 262.967 118.311 263.566C117.034 264.165 115.63 264.321 114.276 264.013C112.922 263.705 111.678 262.948 110.702 261.837C109.726 260.725 109.062 259.31 108.793 257.77C108.525 256.23 108.664 254.633 109.193 253.183C109.722 251.732 110.617 250.493 111.765 249.621C112.914 248.748 114.264 248.283 115.645 248.283C116.563 248.283 117.473 248.489 118.321 248.889C119.169 249.288 119.94 249.875 120.588 250.613C121.237 251.352 121.751 252.229 122.102 253.194C122.452 254.159 122.632 255.193 122.631 256.237Z" fill="#2E68B8"/>
<path opacity="0.7" d="M122.631 256.237C122.628 257.807 122.217 259.342 121.448 260.646C120.679 261.951 119.588 262.967 118.311 263.566C117.034 264.165 115.63 264.321 114.276 264.013C112.922 263.705 111.678 262.948 110.702 261.837C109.726 260.725 109.062 259.31 108.793 257.77C108.525 256.23 108.664 254.633 109.193 253.183C109.722 251.732 110.617 250.493 111.765 249.621C112.914 248.748 114.264 248.283 115.645 248.283C116.563 248.283 117.473 248.489 118.321 248.889C119.169 249.288 119.94 249.875 120.588 250.613C121.237 251.352 121.751 252.229 122.102 253.194C122.452 254.159 122.632 255.193 122.631 256.237Z" fill="#FAFAFA"/>
<path d="M138.35 82.3665H133.517V83.5716H138.35V82.3665Z" fill="#2E68B8"/>
<path d="M125.864 82.3665H114.437V83.5716H125.864V82.3665Z" fill="#2E68B8"/>
<path d="M287.736 86.5846H94.9222C89.6885 86.5846 85.4458 91.4084 85.4458 97.3588V136.479C85.4458 142.429 89.6885 147.253 94.9222 147.253H287.736C292.97 147.253 297.213 142.429 297.213 136.479V97.3588C297.213 91.4084 292.97 86.5846 287.736 86.5846Z" fill="#2E68B8"/>
<path d="M289.973 89.1275H97.1587C91.9251 89.1275 87.6823 93.9513 87.6823 99.9018V139.022C87.6823 144.972 91.9251 149.796 97.1587 149.796H289.973C295.206 149.796 299.449 144.972 299.449 139.022V99.9018C299.449 93.9513 295.206 89.1275 289.973 89.1275Z" fill="#2E68B8"/>
<path opacity="0.6" d="M289.973 89.1275H97.1587C91.9251 89.1275 87.6823 93.9513 87.6823 99.9018V139.022C87.6823 144.972 91.9251 149.796 97.1587 149.796H289.973C295.206 149.796 299.449 144.972 299.449 139.022V99.9018C299.449 93.9513 295.206 89.1275 289.973 89.1275Z" fill="#FAFAFA"/>
<path d="M292.209 91.6704H99.3954C94.1617 91.6704 89.919 96.4942 89.919 102.445V141.565C89.919 147.515 94.1617 152.339 99.3954 152.339H292.209C297.443 152.339 301.686 147.515 301.686 141.565V102.445C301.686 96.4942 297.443 91.6704 292.209 91.6704Z" fill="#2E68B8"/>
<path opacity="0.8" d="M292.209 91.6704H99.3954C94.1617 91.6704 89.919 96.4942 89.919 102.445V141.565C89.919 147.515 94.1617 152.339 99.3954 152.339H292.209C297.443 152.339 301.686 147.515 301.686 141.565V102.445C301.686 96.4942 297.443 91.6704 292.209 91.6704Z" fill="#FAFAFA"/>
<path d="M240.725 101.927H146.979C145.861 101.927 144.954 102.957 144.954 104.228V108.808C144.954 110.079 145.861 111.11 146.979 111.11H240.725C241.843 111.11 242.75 110.079 242.75 108.808V104.228C242.75 102.957 241.843 101.927 240.725 101.927Z" fill="#2E68B8"/>
<path d="M273.055 117.413H146.979C145.861 117.413 144.954 118.444 144.954 119.715V124.295C144.954 125.566 145.861 126.596 146.979 126.596H273.055C274.173 126.596 275.08 125.566 275.08 124.295V119.715C275.08 118.444 274.173 117.413 273.055 117.413Z" fill="#2E68B8"/>
<path d="M180.464 132.899H146.057C145.448 132.899 144.954 133.461 144.954 134.153V135.105C144.954 135.797 145.448 136.358 146.057 136.358H180.464C181.073 136.358 181.567 135.797 181.567 135.105V134.153C181.567 133.461 181.073 132.899 180.464 132.899Z" fill="#2E68B8"/>
<path opacity="0.5" d="M180.464 132.899H146.057C145.448 132.899 144.954 133.461 144.954 134.153V135.105C144.954 135.797 145.448 136.358 146.057 136.358H180.464C181.073 136.358 181.567 135.797 181.567 135.105V134.153C181.567 133.461 181.073 132.899 180.464 132.899Z" fill="#FAFAFA"/>
<path d="M134.138 127.02C136.568 115.41 130.261 103.758 120.05 100.994C109.839 98.2305 99.5901 105.402 97.1594 117.011C94.7286 128.621 101.036 140.273 111.247 143.037C121.458 145.801 131.707 138.629 134.138 127.02Z" fill="#2E68B8"/>
<path d="M131.333 122.005C131.333 125.532 130.413 128.981 128.689 131.914C126.965 134.847 124.515 137.134 121.649 138.484C118.782 139.834 115.628 140.187 112.585 139.499C109.541 138.81 106.746 137.112 104.552 134.617C102.358 132.123 100.864 128.944 100.259 125.484C99.6533 122.024 99.9639 118.438 101.151 115.179C102.339 111.92 104.349 109.134 106.929 107.174C109.509 105.214 112.542 104.168 115.645 104.168C117.708 104.157 119.753 104.611 121.66 105.503C123.568 106.395 125.301 107.709 126.76 109.367C128.219 111.026 129.374 112.997 130.159 115.166C130.944 117.335 131.343 119.659 131.333 122.005Z" fill="#FAFAFA"/>
<path d="M129.436 130.501C128.087 133.318 126.096 135.67 123.671 137.309C121.246 138.948 118.477 139.812 115.656 139.812C112.835 139.812 110.066 138.948 107.641 137.309C105.216 135.67 103.224 133.318 101.876 130.501C105.957 127.41 110.752 125.761 115.656 125.761C120.56 125.761 125.354 127.41 129.436 130.501Z" fill="#2E68B8"/>
<path opacity="0.7" d="M129.436 130.501C128.087 133.318 126.096 135.67 123.671 137.309C121.246 138.948 118.477 139.812 115.656 139.812C112.835 139.812 110.066 138.948 107.641 137.309C105.216 135.67 103.224 133.318 101.876 130.501C105.957 127.41 110.752 125.761 115.656 125.761C120.56 125.761 125.354 127.41 129.436 130.501Z" fill="#FAFAFA"/>
<path d="M115.645 123.837C119.503 123.837 122.631 120.281 122.631 115.894C122.631 111.508 119.503 107.952 115.645 107.952C111.787 107.952 108.66 111.508 108.66 115.894C108.66 120.281 111.787 123.837 115.645 123.837Z" fill="#2E68B8"/>
<path opacity="0.7" d="M115.645 123.837C119.503 123.837 122.631 120.281 122.631 115.894C122.631 111.508 119.503 107.952 115.645 107.952C111.787 107.952 108.66 111.508 108.66 115.894C108.66 120.281 111.787 123.837 115.645 123.837Z" fill="#FAFAFA"/>
<path d="M423.268 249.139L416.314 253.248L424.105 260.13C424.105 260.13 429.342 255.14 427.285 251.694L423.268 249.139Z" fill="#E4897B"/>
<path d="M412.339 261.624L418.985 266.879L424.105 260.13L416.314 253.248L412.339 261.624Z" fill="#E4897B"/>
<path d="M425.96 180.793C426.914 182.215 427.73 183.493 428.557 184.879C429.384 186.265 430.168 187.602 430.953 188.976C432.5 191.748 433.974 194.592 435.331 197.509C436.722 200.456 437.982 203.48 439.104 206.572L439.942 208.982L440.694 211.393C440.959 212.188 441.161 213.032 441.383 213.863L441.712 215.068L441.786 215.382L441.913 215.9C441.994 216.273 442.058 216.652 442.104 217.033C442.35 219.316 442.206 221.633 441.68 223.854C441.289 225.635 440.789 227.382 440.185 229.084C439.065 232.205 437.762 235.237 436.285 238.159C433.454 243.816 430.232 249.208 426.649 254.285L421.773 250.669C424.116 245.113 426.405 239.389 428.409 233.797C429.39 231.066 430.243 228.278 430.963 225.445C431.296 224.173 431.547 222.877 431.716 221.564C431.854 220.712 431.854 219.838 431.716 218.985L431.631 218.744L431.281 217.744C431.059 217.081 430.847 216.43 430.571 215.767L429.808 213.791L428.971 211.802C427.812 209.175 426.568 206.564 425.239 203.969C423.893 201.39 422.505 198.81 420.999 196.28C419.494 193.749 418 191.182 416.579 188.856L425.96 180.793Z" fill="#E4897B"/>
<path d="M440.44 199.293L422.982 213.212C422.982 213.212 421.922 210.609 420.448 206.813C419.251 203.788 417.756 200.016 416.272 196.207C415.668 194.665 415.074 193.122 414.491 191.616C410.453 181.155 415.17 173.622 423.459 175.02C430.762 176.262 440.44 199.293 440.44 199.293Z" fill="#263238"/>
<path d="M421.286 184.806C421.625 188.542 421.657 200.1 420.448 206.813C419.251 203.788 417.756 200.016 416.272 196.207L421.286 184.806Z" fill="#2E68B8"/>
<path opacity="0.8" d="M421.286 184.806C421.625 188.542 421.657 200.1 420.448 206.813C419.251 203.788 417.756 200.016 416.272 196.207L421.286 184.806Z" fill="#2E68B8"/>
<g opacity="0.8">
<path d="M421.286 184.806C421.625 188.542 421.657 200.1 420.448 206.813C419.251 203.788 417.756 200.016 416.272 196.207L421.286 184.806Z" fill="black"/>
<path opacity="0.8" d="M421.286 184.806C421.625 188.542 421.657 200.1 420.448 206.813C419.251 203.788 417.756 200.016 416.272 196.207L421.286 184.806Z" fill="black"/>
</g>
<path d="M447.404 279.581L261.077 223.227C258.657 222.476 256.595 220.671 255.338 218.203C254.08 215.735 253.727 212.804 254.357 210.043L263.197 172.248C263.865 169.504 265.456 167.168 267.625 165.745C269.795 164.322 272.37 163.927 274.794 164.644L461.12 220.986C463.543 221.737 465.607 223.544 466.865 226.015C468.123 228.485 468.473 231.42 467.841 234.182L459 271.904C458.346 274.662 456.761 277.015 454.59 278.453C452.419 279.89 449.837 280.296 447.404 279.581Z" fill="#2E68B8"/>
<path opacity="0.8" d="M447.404 279.581L261.077 223.227C258.657 222.476 256.595 220.671 255.338 218.203C254.08 215.735 253.727 212.804 254.357 210.043L263.197 172.248C263.865 169.504 265.456 167.168 267.625 165.745C269.795 164.322 272.37 163.927 274.794 164.644L461.12 220.986C463.543 221.737 465.607 223.544 466.865 226.015C468.123 228.485 468.473 231.42 467.841 234.182L459 271.904C458.346 274.662 456.761 277.015 454.59 278.453C452.419 279.89 449.837 280.296 447.404 279.581Z" fill="#FAFAFA"/>
<path d="M448.983 282.751L262.667 226.337C260.245 225.588 258.181 223.784 256.921 221.316C255.661 218.848 255.307 215.915 255.936 213.152L264.787 175.37C265.446 172.616 267.033 170.269 269.204 168.837C271.374 167.404 273.954 167.002 276.384 167.717L462.7 224.071C465.122 224.82 467.186 226.624 468.446 229.092C469.706 231.56 470.06 234.493 469.431 237.256L460.59 275.05C459.941 277.815 458.356 280.176 456.182 281.618C454.008 283.061 451.42 283.468 448.983 282.751Z" fill="#2E68B8"/>
<path opacity="0.4" d="M448.983 282.751L262.667 226.337C260.245 225.588 258.181 223.784 256.921 221.316C255.661 218.848 255.307 215.915 255.936 213.152L264.787 175.37C265.446 172.616 267.033 170.269 269.204 168.837C271.374 167.404 273.954 167.002 276.384 167.717L462.7 224.071C465.122 224.82 467.186 226.624 468.446 229.092C469.706 231.56 470.06 234.493 469.431 237.256L460.59 275.05C459.941 277.815 458.356 280.176 456.182 281.618C454.008 283.061 451.42 283.468 448.983 282.751Z" fill="#FAFAFA"/>
<path d="M450.573 285.812L264.257 229.458C261.835 228.709 259.771 226.905 258.511 224.437C257.251 221.969 256.897 219.036 257.526 216.273L266.367 178.479C267.028 175.725 268.617 173.379 270.79 171.948C272.963 170.518 275.544 170.119 277.974 170.838L464.29 227.18C466.726 227.929 468.802 229.744 470.063 232.228C471.325 234.713 471.669 237.665 471.021 240.437L462.17 278.219C461.5 280.962 459.908 283.295 457.739 284.715C455.569 286.135 452.996 286.529 450.573 285.812Z" fill="#2E68B8"/>
<path opacity="0.2" d="M450.573 285.812L264.257 229.458C261.835 228.709 259.771 226.905 258.511 224.437C257.251 221.969 256.897 219.036 257.526 216.273L266.367 178.479C267.028 175.725 268.617 173.379 270.79 171.948C272.963 170.518 275.544 170.119 277.974 170.838L464.29 227.18C466.726 227.929 468.802 229.744 470.063 232.228C471.325 234.713 471.669 237.665 471.021 240.437L462.17 278.219C461.5 280.962 459.908 283.295 457.739 284.715C455.569 286.135 452.996 286.529 450.573 285.812Z" fill="black"/>
<path d="M440.077 230.515L321.61 194.676C320.53 194.349 319.421 195.08 319.133 196.309L318.097 200.735C317.81 201.963 318.453 203.224 319.533 203.551L438 239.39C439.081 239.717 440.19 238.986 440.478 237.757L441.513 233.331C441.801 232.103 441.158 230.842 440.077 230.515Z" fill="#2E68B8"/>
<path opacity="0.7" d="M440.077 230.515L321.61 194.676C320.53 194.349 319.421 195.08 319.133 196.309L318.097 200.735C317.81 201.963 318.453 203.224 319.533 203.551L438 239.39C439.081 239.717 440.19 238.986 440.478 237.757L441.513 233.331C441.801 232.103 441.158 230.842 440.077 230.515Z" fill="#FAFAFA"/>
<path d="M392.944 232.271L318.115 209.633C317.034 209.306 315.925 210.037 315.638 211.266L314.602 215.692C314.315 216.92 314.958 218.181 316.038 218.508L390.867 241.145C391.948 241.472 393.057 240.741 393.345 239.513L394.38 235.087C394.668 233.859 394.025 232.598 392.944 232.271Z" fill="#2E68B8"/>
<path opacity="0.7" d="M392.944 232.271L318.115 209.633C317.034 209.306 315.925 210.037 315.638 211.266L314.602 215.692C314.315 216.92 314.958 218.181 316.038 218.508L390.867 241.145C391.948 241.472 393.057 240.741 393.345 239.513L394.38 235.087C394.668 233.859 394.025 232.598 392.944 232.271Z" fill="#FAFAFA"/>
<path d="M422.907 257.354L313.721 224.322C313.133 224.144 312.529 224.542 312.372 225.211L312.157 226.131C312 226.8 312.35 227.487 312.939 227.665L422.125 260.696C422.713 260.874 423.317 260.476 423.474 259.807L423.689 258.887C423.846 258.218 423.496 257.532 422.907 257.354Z" fill="#FAFAFA"/>
<path d="M301.663 216.346C307.646 206.56 305.519 193.112 296.912 186.31C288.305 179.507 276.477 181.926 270.494 191.712C264.511 201.498 266.638 214.946 275.245 221.748C283.852 228.551 295.68 226.132 301.663 216.346Z" fill="#2E68B8"/>
<path d="M301.972 209.476C301.174 212.885 299.505 215.948 297.176 218.279C294.847 220.609 291.962 222.102 288.887 222.568C285.811 223.035 282.684 222.454 279.898 220.9C277.113 219.345 274.796 216.887 273.24 213.835C271.684 210.783 270.958 207.276 271.156 203.755C271.353 200.235 272.464 196.86 274.348 194.057C276.232 191.255 278.804 189.15 281.74 188.01C284.676 186.869 287.844 186.744 290.842 187.651C292.84 188.24 294.716 189.274 296.359 190.693C298.003 192.113 299.383 193.889 300.418 195.919C301.454 197.95 302.124 200.193 302.391 202.521C302.658 204.848 302.515 207.212 301.972 209.476Z" fill="#FAFAFA"/>
<path d="M298.22 217.129C296.282 219.473 293.823 221.176 291.103 222.059C288.382 222.943 285.503 222.973 282.769 222.146C280.035 221.32 277.549 219.667 275.574 217.365C273.598 215.062 272.208 212.195 271.55 209.067C276.198 207.27 281.209 207.077 285.953 208.512C290.696 209.947 294.961 212.945 298.209 217.129H298.22Z" fill="#2E68B8"/>
<path opacity="0.7" d="M298.22 217.129C296.282 219.473 293.823 221.176 291.103 222.059C288.382 222.943 285.503 222.973 282.769 222.146C280.035 221.32 277.549 219.667 275.574 217.365C273.598 215.062 272.208 212.195 271.55 209.067C276.198 207.27 281.209 207.077 285.953 208.512C290.696 209.947 294.961 212.945 298.209 217.129H298.22Z" fill="#FAFAFA"/>
<path d="M294.944 201.04C294.588 202.557 293.844 203.92 292.807 204.957C291.77 205.993 290.486 206.657 289.117 206.864C287.748 207.072 286.356 206.813 285.116 206.121C283.877 205.429 282.845 204.334 282.152 202.976C281.46 201.618 281.136 200.057 281.224 198.49C281.311 196.923 281.805 195.42 282.643 194.172C283.481 192.924 284.626 191.987 285.932 191.478C287.239 190.969 288.649 190.912 289.983 191.314C290.871 191.582 291.704 192.045 292.434 192.679C293.164 193.313 293.777 194.104 294.238 195.007C294.699 195.911 294.998 196.909 295.12 197.944C295.241 198.979 295.181 200.031 294.944 201.04Z" fill="#2E68B8"/>
<path opacity="0.7" d="M294.944 201.04C294.588 202.557 293.844 203.92 292.807 204.957C291.77 205.993 290.486 206.657 289.117 206.864C287.748 207.072 286.356 206.813 285.116 206.121C283.877 205.429 282.845 204.334 282.152 202.976C281.46 201.618 281.136 200.057 281.224 198.49C281.311 196.923 281.805 195.42 282.643 194.172C283.481 192.924 284.626 191.987 285.932 191.478C287.239 190.969 288.649 190.912 289.983 191.314C290.871 191.582 291.704 192.045 292.434 192.679C293.164 193.313 293.777 194.104 294.238 195.007C294.699 195.911 294.998 196.909 295.12 197.944C295.241 198.979 295.181 200.031 294.944 201.04Z" fill="#FAFAFA"/>
<path d="M412.467 149.121C410.484 155.268 407.75 166.693 411.057 171.634C411.057 171.634 408.629 177.792 398.263 175.9C386.857 173.815 393.715 168.476 393.715 168.476C400.181 167.922 400.754 162.643 400.372 157.509L412.467 149.121Z" fill="#E4897B"/>
<path d="M391.33 170.525C391.913 169.404 391.394 165.029 391.394 165.029C391.394 165.029 407.887 163.643 413.654 166.415C416.738 167.898 413.654 174.141 413.654 174.141L391.33 170.525Z" fill="#2E68B8"/>
<path opacity="0.1" d="M391.33 170.525C391.913 169.404 391.394 165.029 391.394 165.029C391.394 165.029 407.887 163.643 413.654 166.415C416.738 167.898 413.654 174.141 413.654 174.141L391.33 170.525Z" fill="black"/>
<path d="M393.45 138.323C393.344 139.022 392.941 139.528 392.538 139.456C392.136 139.383 391.892 138.757 391.987 138.058C392.083 137.359 392.496 136.852 392.899 136.925C393.302 136.997 393.514 137.624 393.45 138.323Z" fill="#263238"/>
<path d="M393.376 138.672C392.342 140.675 391.069 142.504 389.592 144.108C389.96 144.534 390.407 144.863 390.899 145.071C391.392 145.28 391.919 145.362 392.443 145.313L393.376 138.672Z" fill="#DE5753"/>
<path d="M395.93 136.153C395.863 136.157 395.796 136.139 395.738 136.1C395.68 136.062 395.632 136.005 395.602 135.936C395.399 135.467 395.101 135.06 394.733 134.747C394.364 134.435 393.935 134.227 393.482 134.141C393.395 134.117 393.319 134.059 393.267 133.977C393.214 133.895 393.19 133.795 393.198 133.694C393.205 133.593 393.245 133.498 393.309 133.428C393.373 133.357 393.457 133.315 393.545 133.309C394.12 133.409 394.665 133.664 395.135 134.052C395.605 134.439 395.987 134.949 396.249 135.539C396.294 135.636 396.304 135.751 396.276 135.856C396.248 135.962 396.185 136.052 396.1 136.105C396.048 136.138 395.99 136.154 395.93 136.153Z" fill="#263238"/>
<path d="M345.315 415.597L337.662 414.428L338.023 393.964L345.676 395.133L345.315 415.597Z" fill="#E4897B"/>
<path d="M402.45 425.215H394.722L388.712 404.871H396.429L402.45 425.215Z" fill="#E4897B"/>
<path d="M393.694 424.19H403.117C403.27 424.194 403.418 424.255 403.537 424.364C403.656 424.473 403.739 424.624 403.774 424.793L405.301 432.602C405.336 432.792 405.333 432.989 405.292 433.178C405.251 433.366 405.173 433.542 405.064 433.691C404.955 433.84 404.818 433.96 404.662 434.041C404.507 434.121 404.337 434.161 404.167 434.157C401.135 434.097 398.93 433.904 395.114 433.904C392.761 433.904 387.927 434.181 384.684 434.181C381.44 434.181 381.016 430.566 382.341 430.204C388.298 428.722 390.535 426.685 392.443 424.733C392.787 424.383 393.232 424.19 393.694 424.19Z" fill="#263238"/>
<path d="M337.397 412.44L345.761 413.717C345.912 413.742 346.051 413.824 346.156 413.952C346.26 414.079 346.322 414.243 346.333 414.416L346.927 422.382C346.941 422.574 346.917 422.768 346.857 422.948C346.797 423.128 346.701 423.29 346.578 423.422C346.454 423.554 346.306 423.653 346.145 423.711C345.983 423.769 345.812 423.784 345.644 423.756C342.634 423.226 338.309 422.358 334.514 421.78C330.083 421.093 327.094 420.719 321.932 419.924C318.752 419.442 318.349 415.694 319.706 415.561C325.864 414.995 329.871 415.658 335.468 412.825C336.067 412.497 336.735 412.363 337.397 412.44Z" fill="#263238"/>
<path d="M338.023 393.964L337.832 404.522L345.496 405.691L345.676 395.146L338.023 393.964Z" fill="#CE6F64"/>
<path d="M396.439 404.883H388.712L391.818 415.368H399.545L396.439 404.883Z" fill="#CE6F64"/>
<path d="M381.79 169.356C381.79 169.356 369.632 194.243 372.409 244.499L413.336 250.778C414.47 243.679 414.661 208.223 424.72 175.49C420.312 173.799 415.812 172.438 411.247 171.417C405.5 170.14 399.692 169.247 393.853 168.741C389.824 168.588 385.791 168.793 381.79 169.356Z" fill="#263238"/>
<path d="M386.496 182.034C384.8 185.373 382.998 188.603 381.196 191.881L375.716 201.522C373.893 204.752 371.985 207.934 370.066 211.164C369.112 212.754 368.127 214.333 367.141 215.912L365.646 218.322C365.095 219.178 364.448 220.154 363.834 220.962C361.419 224.099 358.758 226.979 355.884 229.567C353.117 232.073 350.308 234.387 347.404 236.557C341.67 240.871 335.689 244.745 329.5 248.15L326.67 242.426C331.97 238.003 337.27 233.339 342.316 228.602C344.828 226.192 347.287 223.782 349.587 221.263C351.829 218.883 353.893 216.295 355.756 213.526C356.202 212.863 356.541 212.321 356.944 211.561L358.247 209.151L360.844 204.33L366.038 194.604L371.232 184.843C373.003 181.613 374.73 178.335 376.532 175.141L386.496 182.034Z" fill="#E4897B"/>
<path d="M390.27 180.046C389.284 188.362 376.49 208.151 376.49 208.151L358.672 191.049C358.672 191.049 367.989 179.202 375.632 172.441C383.274 165.68 391.33 170.911 390.27 180.046Z" fill="#263238"/>
<path d="M330.507 239.919L323.84 242.498L330.518 250.416C330.518 250.416 334.588 249.862 334.217 243.474L330.507 239.919Z" fill="#E4897B"/>
<path d="M319.42 248.524L327.041 252.778L330.518 250.416L323.84 242.498L319.42 248.524Z" fill="#E4897B"/>
<path d="M414.481 139.697C412.806 148.205 412.202 153.279 407.771 156.991C401.093 162.571 392.327 156.991 391.733 148.036C391.192 140.022 394.023 127.464 401.909 125.391C403.644 124.926 405.454 124.972 407.169 125.526C408.883 126.08 410.444 127.124 411.704 128.557C412.964 129.991 413.88 131.767 414.366 133.717C414.852 135.666 414.892 137.725 414.481 139.697Z" fill="#E4897B"/>
<path d="M424.837 139.407C424.738 138.753 424.517 138.129 424.19 137.579C423.863 137.028 423.437 136.563 422.939 136.214C426.564 134.406 424.752 132.309 421.657 129.248C417.66 125.186 415.996 116.967 416.176 115.207C414.915 117.389 415.254 120.607 416.325 123.499C414.991 121.829 413.916 119.914 413.145 117.835C410.05 109.001 403.361 116.726 396.906 116.979C386.062 117.401 394.648 110.953 402.609 111.146C390.747 107.012 378.917 112.134 380.847 121.149C382.776 130.164 396.047 118.739 395.973 127.054C395.973 128.742 397.595 130.405 400.001 131.718C396.662 139.528 404.803 155.219 409.541 155.725C414.279 156.232 422.579 146.855 422.929 138.733C423.597 138.818 424.244 139.047 424.837 139.407Z" fill="#263238"/>
<path d="M403.711 141.637C403.239 143.76 402.051 145.587 400.404 146.723C398.199 148.193 396.45 146.144 396.503 143.384C396.556 140.914 397.775 137.154 400.245 136.804C400.786 136.739 401.333 136.828 401.837 137.064C402.34 137.3 402.784 137.674 403.128 138.154C403.472 138.634 403.706 139.203 403.807 139.812C403.909 140.42 403.876 141.047 403.711 141.637Z" fill="#E4897B"/>
<path d="M402.333 413.332H388.15C388.15 413.332 369.473 359.183 367.491 331.09C367.067 325.065 367.915 317.123 369.483 308.578C372.155 293.971 376.903 277.496 380.719 265.192C384.143 254.345 386.889 246.692 386.889 246.692L413.314 250.754C410.717 272.555 389.751 307.228 389.507 337.044C389.305 364.546 402.333 413.332 402.333 413.332Z" fill="#2E68B8"/>
<path opacity="0.1" d="M402.333 413.332H388.15C388.15 413.332 369.473 359.183 367.491 331.09C367.067 325.065 367.915 317.123 369.483 308.578C372.155 293.971 376.903 277.496 380.719 265.192C384.143 254.345 386.889 246.692 386.889 246.692L413.314 250.754C410.717 272.555 389.751 307.228 389.507 337.044C389.305 364.546 402.333 413.332 402.333 413.332Z" fill="black"/>
<path d="M387.44 272.037C386.518 286.607 376.66 302.106 369.515 308.578C372.187 293.971 376.935 277.496 380.751 265.191C382.755 264.914 385.924 269.41 387.44 272.037Z" fill="#2E68B8"/>
<path opacity="0.2" d="M387.44 272.037C386.518 286.607 376.66 302.106 369.515 308.578C372.187 293.971 376.935 277.496 380.751 265.191C382.755 264.914 385.924 269.41 387.44 272.037Z" fill="black"/>
<path d="M372.409 244.499C372.409 244.499 336.072 299.515 333.751 326.137C331.334 353.856 335.203 402.063 335.203 402.063L348.167 404.052C348.167 404.052 352.078 358.785 355.884 331.741C360.018 302.287 399.344 271.832 402.089 249.03L372.409 244.499Z" fill="#2E68B8"/>
<path opacity="0.1" d="M372.409 244.499C372.409 244.499 336.072 299.515 333.751 326.137C331.334 353.856 335.203 402.063 335.203 402.063L348.167 404.052C348.167 404.052 352.078 358.785 355.884 331.741C360.018 302.287 399.344 271.832 402.089 249.03L372.409 244.499Z" fill="black"/>
<path d="M385.68 413.681H404.177V408.017L383.507 407.655L385.68 413.681Z" fill="#2E68B8"/>
<path opacity="0.4" d="M385.68 413.681H404.177V408.017L383.507 407.655L385.68 413.681Z" fill="#FAFAFA"/>
<path d="M332.585 401.967L350.594 404.775L351.262 399.111L331.133 395.664L332.585 401.967Z" fill="#2E68B8"/>
<path opacity="0.4" d="M332.585 401.967L350.594 404.775L351.262 399.111L331.133 395.664L332.585 401.967Z" fill="#FAFAFA"/>
<path d="M391.139 425.733C390.613 425.776 390.09 425.615 389.655 425.275C389.514 425.145 389.405 424.975 389.338 424.783C389.272 424.591 389.249 424.383 389.274 424.178C389.274 424.056 389.303 423.936 389.359 423.832C389.416 423.728 389.496 423.643 389.592 423.588C390.44 423.106 392.941 424.793 393.217 425.034C393.246 425.056 393.27 425.087 393.285 425.123C393.3 425.159 393.306 425.199 393.302 425.239C393.298 425.28 393.282 425.319 393.257 425.349C393.233 425.379 393.2 425.4 393.164 425.407C392.503 425.607 391.823 425.716 391.139 425.733ZM389.994 423.913C389.918 423.893 389.838 423.893 389.761 423.913C389.761 423.913 389.655 423.997 389.645 424.154C389.627 424.294 389.64 424.436 389.683 424.568C389.725 424.701 389.796 424.819 389.889 424.913C390.753 425.358 391.734 425.414 392.634 425.07C391.827 424.495 390.931 424.103 389.994 423.913Z" fill="#2E68B8"/>
<path d="M393.121 425.42H393.037C392.231 424.925 390.694 423.009 390.853 422.021C390.88 421.868 390.953 421.73 391.059 421.631C391.165 421.532 391.299 421.478 391.436 421.479C391.574 421.456 391.715 421.468 391.849 421.513C391.983 421.559 392.106 421.638 392.21 421.744C393.111 422.575 393.27 425.106 393.27 425.215C393.276 425.253 393.271 425.292 393.255 425.327C393.24 425.362 393.215 425.39 393.185 425.407L393.121 425.42ZM391.563 421.804H391.478C391.245 421.804 391.224 421.961 391.213 422.009C391.118 422.587 392.104 424.046 392.899 424.733C392.84 423.734 392.523 422.778 391.987 421.985C391.864 421.885 391.714 421.838 391.563 421.852V421.804Z" fill="#2E68B8"/>
<path d="M335.447 413.573C334.239 413.573 332.797 413.392 332.267 412.657C332.159 412.512 332.083 412.341 332.044 412.157C332.005 411.972 332.005 411.78 332.044 411.596C332.066 411.484 332.112 411.38 332.176 411.292C332.241 411.204 332.323 411.135 332.415 411.09C333.412 410.656 336.274 412.898 336.602 413.151C336.633 413.176 336.657 413.211 336.67 413.252C336.684 413.293 336.686 413.338 336.677 413.38C336.665 413.421 336.643 413.458 336.612 413.483C336.582 413.509 336.545 413.524 336.507 413.524C336.21 413.549 335.829 413.573 335.447 413.573ZM332.712 411.452C332.646 411.433 332.577 411.433 332.511 411.452C332.474 411.465 332.441 411.491 332.417 411.525C332.392 411.559 332.377 411.601 332.373 411.644C332.345 411.765 332.343 411.891 332.367 412.013C332.391 412.134 332.441 412.248 332.511 412.343C332.924 412.886 334.185 413.175 335.903 413.103C334.947 412.315 333.862 411.754 332.712 411.452Z" fill="#2E68B8"/>
<path d="M336.464 413.537H336.369C335.5 412.922 333.899 410.765 334.154 409.801C334.207 409.584 334.376 409.318 334.843 409.318H334.896C335.078 409.328 335.258 409.379 335.423 409.468C335.589 409.557 335.737 409.682 335.86 409.837C336.442 410.89 336.717 412.126 336.645 413.368C336.646 413.405 336.638 413.442 336.621 413.474C336.604 413.506 336.579 413.532 336.549 413.549L336.464 413.537ZM334.843 409.704C334.546 409.704 334.514 409.837 334.503 409.885C334.344 410.463 335.415 412.127 336.284 412.922C336.313 411.915 336.069 410.922 335.585 410.078C335.497 409.963 335.39 409.871 335.27 409.807C335.149 409.742 335.018 409.707 334.885 409.704H334.843Z" fill="#2E68B8"/>
</svg>
