<svg xmlns="http://www.w3.org/2000/svg" xmlns:xlink="http://www.w3.org/1999/xlink" width="628" zoomAndPan="magnify" viewBox="0 0 470.87997 470.999988" height="628" preserveAspectRatio="xMidYMid meet" version="1.0"><defs><clipPath id="e81f8605e7"><path d="M 180 6.242188 L 217 6.242188 L 217 41 L 180 41 Z M 180 6.242188 " clip-rule="nonzero"/></clipPath></defs><path fill="#e7f0ff" d="M 154.355469 23.1875 C 182.894531 8.066406 216.695312 14.9375 238.300781 19.328125 C 323.457031 36.636719 397.746094 98.644531 429.53125 196.289062 C 436.96875 219.140625 470.84375 335.335938 388.34375 404.035156 C 315.414062 464.761719 199.019531 448.824219 124.148438 405.691406 C 62.121094 369.953125 0.0195312 299.027344 7.386719 236.34375 C 12.015625 196.925781 39.953125 194.113281 75.007812 121.753906 C 105.34375 59.125 119.453125 41.679688 154.355469 23.1875 " fill-opacity="1" fill-rule="nonzero"/><path fill="#f96f5f" d="M 372.261719 433 L 117.203125 433 C 109.28125 433 102.835938 425.105469 104.105469 417.253906 L 158.960938 77.277344 C 159.96875 71.023438 165 65.789062 171.308594 65.789062 L 426.367188 65.789062 C 434.289062 65.789062 440.664062 73.554688 439.398438 81.40625 L 384.542969 421.386719 C 383.535156 427.636719 378.566406 433 372.261719 433 " fill-opacity="1" fill-rule="nonzero"/><path fill="#6ce5e8" d="M 362.078125 432.988281 L 107.019531 432.988281 C 99.097656 432.988281 93.0625 425.894531 94.332031 418.074219 L 149.238281 77.386719 C 150.246094 71.167969 155.621094 66.589844 161.925781 66.589844 L 416.984375 66.589844 C 424.90625 66.589844 430.941406 73.683594 429.671875 81.5 L 374.765625 422.1875 C 373.757812 428.414062 368.382812 432.988281 362.078125 432.988281 " fill-opacity="1" fill-rule="nonzero"/><path fill="#000000" d="M 161.925781 67.382812 C 155.980469 67.382812 150.96875 71.644531 150.019531 77.515625 L 95.113281 418.203125 C 94.542969 421.699219 95.535156 425.253906 97.832031 427.953125 C 100.128906 430.648438 103.476562 432.195312 107.019531 432.195312 L 362.078125 432.195312 C 368.027344 432.195312 373.035156 427.933594 373.988281 422.0625 L 428.894531 81.375 C 429.460938 77.878906 428.464844 74.328125 426.171875 71.628906 C 423.878906 68.929688 420.527344 67.382812 416.984375 67.382812 Z M 362.078125 433.777344 L 107.019531 433.777344 C 103.011719 433.777344 99.222656 432.027344 96.628906 428.976562 C 94.03125 425.921875 92.90625 421.90625 93.550781 417.949219 L 148.457031 77.261719 C 149.53125 70.621094 155.199219 65.800781 161.925781 65.800781 L 416.984375 65.800781 C 420.992188 65.800781 424.78125 67.550781 427.378906 70.601562 C 429.976562 73.652344 431.097656 77.671875 430.453125 81.628906 L 375.550781 422.316406 C 374.472656 428.957031 368.804688 433.777344 362.078125 433.777344 " fill-opacity="1" fill-rule="nonzero"/><path fill="#ffffff" d="M 356.21875 422.257812 L 116.097656 422.257812 C 108.640625 422.257812 102.957031 415.578125 104.152344 408.21875 L 155.84375 87.488281 C 156.792969 81.628906 161.851562 77.320312 167.789062 77.320312 L 407.90625 77.320312 C 415.367188 77.320312 421.046875 84 419.855469 91.359375 L 368.164062 412.089844 C 367.210938 417.949219 362.152344 422.257812 356.21875 422.257812 " fill-opacity="1" fill-rule="nonzero"/><path fill="#000000" d="M 276.75 415.59375 L 190.761719 415.59375 C 190.324219 415.59375 189.96875 415.238281 189.96875 414.804688 C 189.96875 414.363281 190.324219 414.011719 190.761719 414.011719 L 276.75 414.011719 C 277.183594 414.011719 277.539062 414.363281 277.539062 414.804688 C 277.539062 415.238281 277.183594 415.59375 276.75 415.59375 " fill-opacity="1" fill-rule="nonzero"/><path fill="#6ce5e8" d="M 305.441406 86.050781 L 262.75 86.050781 C 257.472656 86.050781 253.199219 81.773438 253.199219 76.496094 L 314.996094 76.496094 C 314.996094 81.773438 310.71875 86.050781 305.441406 86.050781 " fill-opacity="1" fill-rule="nonzero"/><path fill="#f96f5f" d="M 302.402344 189.886719 L 83.105469 189.886719 C 79.113281 189.886719 77.03125 185.59375 77.671875 181.652344 L 84.585938 142.597656 C 85.09375 139.460938 88.28125 136.390625 91.457031 136.390625 L 310.753906 136.390625 C 314.746094 136.390625 317.308594 140.730469 316.671875 144.671875 L 309.757812 183.726562 C 309.246094 186.863281 305.578125 189.886719 302.402344 189.886719 " fill-opacity="1" fill-rule="nonzero"/><path fill="#ffffff" d="M 295.949219 189.167969 L 67.988281 189.167969 C 63.996094 189.167969 60.957031 185.59375 61.59375 181.652344 L 68.507812 142.597656 C 69.015625 139.460938 71.722656 137.15625 74.902344 137.15625 L 302.863281 137.15625 C 306.851562 137.15625 309.890625 140.730469 309.253906 144.671875 L 302.339844 183.726562 C 301.832031 186.863281 299.125 189.167969 295.949219 189.167969 " fill-opacity="1" fill-rule="nonzero"/><path fill="#000000" d="M 74.902344 137.945312 C 72.097656 137.945312 69.738281 139.957031 69.289062 142.722656 L 62.375 181.789062 C 62.109375 183.429688 62.574219 185.105469 63.65625 186.375 C 64.742188 187.644531 66.316406 188.375 67.988281 188.375 L 295.949219 188.375 C 298.75 188.375 301.113281 186.367188 301.558594 183.597656 L 308.472656 144.53125 C 308.742188 142.894531 308.269531 141.21875 307.191406 139.949219 C 306.109375 138.675781 304.53125 137.945312 302.863281 137.945312 Z M 295.949219 189.957031 L 67.988281 189.957031 C 65.855469 189.957031 63.835938 189.027344 62.453125 187.402344 C 61.070312 185.773438 60.472656 183.632812 60.8125 181.527344 L 67.730469 142.457031 C 68.300781 138.933594 71.316406 136.363281 74.902344 136.363281 L 302.863281 136.363281 C 304.996094 136.363281 307.011719 137.296875 308.394531 138.921875 C 309.78125 140.550781 310.375 142.6875 310.035156 144.796875 L 303.117188 183.863281 C 302.546875 187.390625 299.53125 189.957031 295.949219 189.957031 " fill-opacity="1" fill-rule="nonzero"/><path fill="#f96f5f" d="M 91.917969 166.644531 C 88.488281 163.21875 88.488281 157.664062 91.917969 154.238281 C 95.34375 150.808594 100.898438 150.808594 104.328125 154.238281 C 107.753906 157.664062 107.753906 163.21875 104.328125 166.644531 C 100.898438 170.074219 95.34375 170.074219 91.917969 166.644531 Z M 106.386719 152.175781 C 101.820312 147.613281 94.421875 147.613281 89.859375 152.175781 C 85.292969 156.742188 85.292969 164.140625 89.859375 168.703125 C 94.421875 173.269531 101.820312 173.269531 106.386719 168.703125 C 110.949219 164.140625 110.949219 156.742188 106.386719 152.175781 " fill-opacity="1" fill-rule="nonzero"/><path fill="#f96f5f" d="M 82.582031 177.421875 L 81.109375 175.953125 C 80.925781 175.769531 80.925781 175.46875 81.109375 175.285156 L 89.78125 166.617188 L 91.917969 168.753906 L 83.246094 177.421875 C 83.0625 177.605469 82.765625 177.605469 82.582031 177.421875 " fill-opacity="1" fill-rule="nonzero"/><path fill="#6ce5e8" d="M 219.398438 168.59375 L 133.773438 168.59375 C 129.449219 168.59375 125.945312 165.089844 125.945312 160.769531 C 125.945312 156.445312 129.449219 152.941406 133.773438 152.941406 L 219.398438 152.941406 C 223.722656 152.941406 227.226562 156.445312 227.226562 160.769531 C 227.226562 165.089844 223.722656 168.59375 219.398438 168.59375 " fill-opacity="1" fill-rule="nonzero"/><path fill="#6ce5e8" d="M 261.164062 168.476562 L 248.203125 168.476562 C 243.878906 168.476562 240.375 164.972656 240.375 160.648438 C 240.375 156.328125 243.878906 152.824219 248.203125 152.824219 L 261.164062 152.824219 C 265.488281 152.824219 268.992188 156.328125 268.992188 160.648438 C 268.992188 164.972656 265.488281 168.476562 261.164062 168.476562 " fill-opacity="1" fill-rule="nonzero"/><path fill="#6ce5e8" d="M 256.125 222.53125 L 170.503906 222.53125 C 166.175781 222.53125 162.671875 219.023438 162.671875 214.699219 C 162.671875 210.378906 166.175781 206.875 170.503906 206.875 L 256.125 206.875 C 260.449219 206.875 263.953125 210.378906 263.953125 214.699219 C 263.953125 219.023438 260.449219 222.53125 256.125 222.53125 " fill-opacity="1" fill-rule="nonzero"/><path fill="#e7f0ff" d="M 274.828125 250.242188 L 238.714844 250.242188 C 234.390625 250.242188 230.886719 246.738281 230.886719 242.414062 C 230.886719 238.09375 234.390625 234.585938 238.714844 234.585938 L 274.828125 234.585938 C 279.148438 234.585938 282.65625 238.09375 282.65625 242.414062 C 282.65625 246.738281 279.148438 250.242188 274.828125 250.242188 " fill-opacity="1" fill-rule="nonzero"/><path fill="#e7f0ff" d="M 336.59375 250.242188 L 300.476562 250.242188 C 296.15625 250.242188 292.648438 246.738281 292.648438 242.417969 C 292.648438 238.09375 296.15625 234.585938 300.476562 234.585938 L 336.59375 234.585938 C 340.914062 234.585938 344.417969 238.09375 344.417969 242.417969 C 344.417969 246.738281 340.914062 250.242188 336.59375 250.242188 " fill-opacity="1" fill-rule="nonzero"/><path fill="#e7f0ff" d="M 349.433594 309.648438 L 255.851562 309.648438 C 251.527344 309.648438 248.023438 306.140625 248.023438 301.816406 C 248.023438 297.496094 251.527344 293.992188 255.851562 293.992188 L 349.433594 293.992188 C 353.757812 293.992188 357.265625 297.496094 357.265625 301.816406 C 357.265625 306.140625 353.757812 309.648438 349.433594 309.648438 " fill-opacity="1" fill-rule="nonzero"/><path fill="#e7f0ff" d="M 240.785156 341.140625 L 154.867188 341.140625 C 150.542969 341.140625 147.039062 337.632812 147.039062 333.3125 C 147.039062 328.988281 150.542969 325.480469 154.867188 325.480469 L 240.785156 325.480469 C 245.109375 325.480469 248.613281 328.988281 248.613281 333.3125 C 248.613281 337.632812 245.109375 341.140625 240.785156 341.140625 " fill-opacity="1" fill-rule="nonzero"/><path fill="#6ce5e8" d="M 320.25 341.140625 L 267.164062 341.140625 C 262.839844 341.140625 259.335938 337.632812 259.335938 333.308594 C 259.335938 328.988281 262.839844 325.480469 267.164062 325.480469 L 320.25 325.480469 C 324.574219 325.480469 328.078125 328.988281 328.078125 333.308594 C 328.078125 337.632812 324.574219 341.140625 320.25 341.140625 " fill-opacity="1" fill-rule="nonzero"/><path fill="#e7f0ff" d="M 285.382812 371.574219 L 232.296875 371.574219 C 227.972656 371.574219 224.46875 368.066406 224.46875 363.746094 C 224.46875 359.421875 227.972656 355.917969 232.296875 355.917969 L 285.382812 355.917969 C 289.707031 355.917969 293.210938 359.421875 293.210938 363.746094 C 293.210938 368.066406 289.707031 371.574219 285.382812 371.574219 " fill-opacity="1" fill-rule="nonzero"/><path fill="#e7f0ff" d="M 230.257812 309.648438 L 202.410156 309.648438 C 198.085938 309.648438 194.582031 306.140625 194.582031 301.820312 C 194.582031 297.496094 198.085938 293.992188 202.410156 293.992188 L 230.257812 293.992188 C 234.578125 293.992188 238.085938 297.496094 238.085938 301.820312 C 238.085938 306.140625 234.578125 309.648438 230.257812 309.648438 " fill-opacity="1" fill-rule="nonzero"/><path fill="#6ce5e8" d="M 311.253906 279.3125 L 271 279.3125 C 266.675781 279.3125 263.171875 275.808594 263.171875 271.488281 C 263.171875 267.164062 266.675781 263.65625 271 263.65625 L 311.253906 263.65625 C 315.578125 263.65625 319.082031 267.164062 319.082031 271.488281 C 319.082031 275.808594 315.578125 279.3125 311.253906 279.3125 " fill-opacity="1" fill-rule="nonzero"/><path fill="#ffffff" d="M 372.445312 138.28125 C 365.300781 140.234375 357.921875 136.027344 355.96875 128.878906 C 354.011719 121.726562 358.21875 114.347656 365.363281 112.386719 C 372.507812 110.429688 379.886719 114.640625 381.839844 121.789062 C 383.796875 128.9375 379.589844 136.324219 372.445312 138.28125 Z M 395.589844 120.722656 L 394.214844 115.695312 L 388.527344 115.953125 C 388.003906 114.847656 387.390625 113.796875 386.699219 112.816406 L 389.710938 107.992188 L 386.007812 104.324219 L 381.210938 107.394531 C 380.214844 106.707031 379.160156 106.109375 378.0625 105.59375 L 378.257812 99.902344 L 373.21875 98.582031 L 370.601562 103.632812 C 369.40625 103.535156 368.195312 103.546875 366.972656 103.65625 L 364.296875 98.632812 L 359.273438 100.007812 L 359.53125 105.695312 C 358.425781 106.222656 357.378906 106.835938 356.394531 107.523438 L 351.574219 104.511719 L 347.90625 108.21875 L 350.976562 113.015625 C 350.289062 114.019531 349.691406 115.074219 349.179688 116.167969 L 343.492188 115.972656 L 342.171875 121.019531 L 347.214844 123.632812 C 347.121094 124.828125 347.128906 126.046875 347.242188 127.265625 L 342.21875 129.941406 L 343.59375 134.96875 L 349.28125 134.714844 C 349.808594 135.820312 350.417969 136.871094 351.105469 137.851562 L 348.097656 142.675781 L 351.800781 146.34375 L 356.597656 143.277344 C 357.597656 143.960938 358.648438 144.5625 359.746094 145.070312 L 359.550781 150.761719 L 364.589844 152.085938 L 367.203125 147.039062 C 368.402344 147.128906 369.613281 147.121094 370.835938 147.011719 L 373.511719 152.039062 L 378.535156 150.660156 L 378.28125 144.96875 C 379.382812 144.441406 380.433594 143.832031 381.414062 143.140625 L 386.234375 146.15625 L 389.898438 142.449219 L 386.832031 137.648438 C 387.519531 136.652344 388.117188 135.597656 388.628906 134.496094 L 394.316406 134.695312 L 395.636719 129.652344 L 390.589844 127.03125 C 390.683594 125.835938 390.675781 124.621094 390.566406 123.398438 L 395.589844 120.722656 " fill-opacity="1" fill-rule="nonzero"/><path fill="#000000" d="M 368.921875 112.695312 C 367.808594 112.695312 366.679688 112.847656 365.570312 113.148438 C 358.859375 114.992188 354.894531 121.953125 356.730469 128.667969 C 357.625 131.921875 359.722656 134.636719 362.652344 136.304688 C 365.582031 137.976562 368.984375 138.410156 372.234375 137.515625 C 378.949219 135.675781 382.917969 128.714844 381.078125 121.996094 C 380.1875 118.742188 378.082031 116.03125 375.15625 114.359375 C 373.222656 113.261719 371.085938 112.695312 368.921875 112.695312 Z M 368.882812 139.554688 C 366.445312 139.554688 364.042969 138.921875 361.871094 137.679688 C 358.574219 135.800781 356.207031 132.75 355.203125 129.085938 C 353.136719 121.527344 357.597656 113.691406 365.152344 111.625 C 368.8125 110.621094 372.640625 111.109375 375.941406 112.984375 C 379.238281 114.867188 381.601562 117.917969 382.601562 121.582031 C 384.671875 129.136719 380.207031 136.972656 372.65625 139.042969 C 371.410156 139.386719 370.140625 139.554688 368.882812 139.554688 Z M 360.363281 150.160156 L 364.179688 151.160156 L 366.742188 146.207031 L 367.265625 146.246094 C 368.40625 146.335938 369.585938 146.332031 370.761719 146.222656 L 371.289062 146.175781 L 373.910156 151.105469 L 377.714844 150.0625 L 377.460938 144.480469 L 377.9375 144.257812 C 379.003906 143.75 380.019531 143.15625 380.957031 142.496094 L 381.390625 142.195312 L 386.113281 145.148438 L 388.890625 142.339844 L 385.882812 137.636719 L 386.179688 137.203125 C 386.835938 136.246094 387.421875 135.222656 387.910156 134.164062 L 388.128906 133.6875 L 393.710938 133.882812 L 394.714844 130.0625 L 389.761719 127.492188 L 389.804688 126.972656 C 389.890625 125.828125 389.886719 124.652344 389.777344 123.472656 L 389.730469 122.949219 L 394.660156 120.324219 L 393.613281 116.515625 L 388.039062 116.769531 L 387.8125 116.292969 C 387.304688 115.226562 386.710938 114.207031 386.054688 113.269531 L 385.75 112.839844 L 388.703125 108.109375 L 385.898438 105.332031 L 381.199219 108.34375 L 380.765625 108.042969 C 379.804688 107.386719 378.78125 106.804688 377.726562 106.3125 L 377.253906 106.089844 L 377.445312 100.507812 L 373.632812 99.507812 L 371.0625 104.460938 L 370.539062 104.417969 C 369.394531 104.328125 368.21875 104.339844 367.042969 104.445312 L 366.523438 104.492188 L 363.898438 99.558594 L 360.089844 100.601562 L 360.347656 106.183594 L 359.871094 106.410156 C 358.804688 106.917969 357.789062 107.511719 356.847656 108.171875 L 356.421875 108.472656 L 351.6875 105.519531 L 348.914062 108.324219 L 351.921875 113.03125 L 351.628906 113.464844 C 350.96875 114.425781 350.386719 115.449219 349.898438 116.503906 L 349.675781 116.976562 L 344.097656 116.789062 L 343.097656 120.605469 L 348.046875 123.171875 L 348.007812 123.695312 C 347.914062 124.839844 347.925781 126.015625 348.027344 127.195312 L 348.078125 127.71875 L 343.148438 130.34375 L 344.1875 134.152344 L 349.769531 133.898438 L 349.992188 134.371094 C 350.503906 135.441406 351.09375 136.460938 351.753906 137.398438 L 352.054688 137.824219 L 349.101562 142.558594 L 351.910156 145.335938 L 356.613281 142.328125 L 357.046875 142.621094 C 358.003906 143.28125 359.027344 143.863281 360.078125 144.355469 L 360.554688 144.578125 Z M 365.003906 153.011719 L 358.738281 151.367188 L 358.9375 145.5625 C 358.128906 145.164062 357.339844 144.710938 356.589844 144.222656 L 351.695312 147.351562 L 347.089844 142.792969 L 350.164062 137.871094 C 349.667969 137.128906 349.210938 136.34375 348.796875 135.523438 L 343 135.792969 L 341.289062 129.542969 L 346.414062 126.8125 C 346.351562 125.902344 346.34375 124.992188 346.394531 124.101562 L 341.246094 121.429688 L 342.886719 115.160156 L 348.691406 115.359375 C 349.089844 114.554688 349.539062 113.765625 350.03125 113.007812 L 346.902344 108.113281 L 351.453125 103.507812 L 356.371094 106.582031 C 357.117188 106.082031 357.902344 105.625 358.71875 105.214844 L 358.453125 99.410156 L 364.703125 97.699219 L 367.425781 102.828125 C 368.339844 102.765625 369.242188 102.757812 370.136719 102.808594 L 372.804688 97.65625 L 379.070312 99.300781 L 378.871094 105.105469 C 379.679688 105.503906 380.46875 105.957031 381.222656 106.445312 L 386.113281 103.316406 L 390.714844 107.875 L 387.648438 112.792969 C 388.144531 113.539062 388.601562 114.324219 389.007812 115.140625 L 394.8125 114.878906 L 396.519531 121.125 L 391.394531 123.855469 C 391.457031 124.765625 391.460938 125.675781 391.414062 126.570312 L 396.5625 129.238281 L 394.921875 135.503906 L 389.117188 135.304688 C 388.71875 136.117188 388.265625 136.902344 387.777344 137.660156 L 390.90625 142.554688 L 386.351562 147.164062 L 381.429688 144.089844 C 380.691406 144.585938 379.90625 145.042969 379.09375 145.453125 L 379.355469 151.257812 L 373.109375 152.964844 L 370.378906 147.839844 C 369.46875 147.902344 368.5625 147.90625 367.671875 147.863281 L 365.003906 153.011719 " fill-opacity="1" fill-rule="nonzero"/><path fill="#000000" d="M 385.070312 44.25 L 385.074219 44.25 Z M 389.195312 41.542969 C 387.566406 41.542969 386.125 42.722656 385.851562 44.382812 C 385.703125 45.273438 385.914062 46.171875 386.441406 46.90625 C 386.96875 47.640625 387.753906 48.128906 388.644531 48.273438 C 389.539062 48.421875 390.433594 48.210938 391.171875 47.6875 C 391.90625 47.15625 392.390625 46.375 392.539062 45.480469 C 392.683594 44.589844 392.476562 43.691406 391.949219 42.957031 C 391.421875 42.21875 390.636719 41.734375 389.746094 41.585938 C 389.558594 41.558594 389.375 41.542969 389.195312 41.542969 Z M 389.207031 49.902344 C 388.933594 49.902344 388.660156 49.882812 388.386719 49.839844 C 387.074219 49.621094 385.925781 48.90625 385.15625 47.828125 C 384.382812 46.75 384.074219 45.433594 384.289062 44.121094 C 384.734375 41.417969 387.296875 39.582031 390.003906 40.027344 C 391.3125 40.242188 392.460938 40.953125 393.238281 42.03125 C 394.003906 43.113281 394.316406 44.429688 394.101562 45.738281 C 393.886719 47.050781 393.171875 48.199219 392.089844 48.96875 C 391.238281 49.582031 390.234375 49.902344 389.207031 49.902344 " fill-opacity="1" fill-rule="nonzero"/><path fill="#000000" d="M 24.597656 101.679688 L 24.601562 101.679688 Z M 28.714844 98.96875 C 28.011719 98.96875 27.328125 99.183594 26.746094 99.605469 C 26.011719 100.128906 25.523438 100.914062 25.378906 101.804688 C 25.074219 103.648438 26.328125 105.394531 28.171875 105.699219 C 29.0625 105.847656 29.960938 105.640625 30.695312 105.109375 C 31.433594 104.585938 31.917969 103.800781 32.066406 102.910156 C 32.214844 102.015625 32.003906 101.117188 31.476562 100.382812 C 30.949219 99.644531 30.164062 99.160156 29.273438 99.015625 C 29.085938 98.984375 28.898438 98.96875 28.714844 98.96875 Z M 28.734375 107.328125 C 28.460938 107.328125 28.1875 107.308594 27.914062 107.261719 C 25.207031 106.816406 23.371094 104.253906 23.816406 101.550781 C 24.03125 100.242188 24.746094 99.089844 25.824219 98.316406 C 26.90625 97.542969 28.21875 97.238281 29.53125 97.453125 C 30.839844 97.667969 31.988281 98.382812 32.761719 99.460938 C 33.535156 100.539062 33.84375 101.855469 33.628906 103.164062 C 33.410156 104.476562 32.699219 105.625 31.621094 106.398438 C 30.765625 107.007812 29.761719 107.328125 28.734375 107.328125 " fill-opacity="1" fill-rule="nonzero"/><path fill="#e7f0ff" d="M 46.117188 112.652344 C 46.691406 109.164062 49.984375 106.804688 53.472656 107.382812 C 56.957031 107.953125 59.320312 111.246094 58.746094 114.734375 C 58.167969 118.222656 54.878906 120.582031 51.390625 120.007812 C 47.902344 119.433594 45.542969 116.140625 46.117188 112.652344 " fill-opacity="1" fill-rule="nonzero"/><path fill="#000000" d="M 356.898438 33.160156 C 356.433594 35.996094 358.359375 38.683594 361.195312 39.152344 C 362.566406 39.378906 363.949219 39.058594 365.082031 38.242188 C 366.214844 37.433594 366.960938 36.226562 367.1875 34.855469 C 367.65625 32.015625 365.726562 29.328125 362.890625 28.859375 C 361.515625 28.636719 360.136719 28.957031 359.007812 29.769531 C 357.871094 30.578125 357.125 31.785156 356.898438 33.160156 Z M 362.046875 40.804688 C 361.679688 40.804688 361.308594 40.773438 360.9375 40.714844 C 357.238281 40.101562 354.726562 36.601562 355.335938 32.902344 C 355.628906 31.109375 356.605469 29.539062 358.082031 28.480469 C 359.558594 27.421875 361.355469 27.003906 363.148438 27.300781 C 364.941406 27.59375 366.511719 28.570312 367.566406 30.046875 C 368.625 31.523438 369.042969 33.320312 368.75 35.113281 C 368.203125 38.4375 365.3125 40.804688 362.046875 40.804688 " fill-opacity="1" fill-rule="nonzero"/><path fill="#000000" d="M 324.734375 25.847656 C 324.484375 25.847656 324.242188 25.734375 324.085938 25.519531 L 321.511719 21.902344 C 321.257812 21.546875 321.339844 21.050781 321.695312 20.800781 C 322.054688 20.546875 322.546875 20.628906 322.800781 20.984375 L 325.375 24.597656 C 325.632812 24.957031 325.546875 25.449219 325.191406 25.703125 C 325.050781 25.804688 324.890625 25.847656 324.734375 25.847656 " fill-opacity="1" fill-rule="nonzero"/><path fill="#000000" d="M 333.753906 38.503906 C 333.503906 38.503906 333.261719 38.390625 333.109375 38.175781 L 330.53125 34.558594 C 330.277344 34.203125 330.359375 33.707031 330.714844 33.457031 C 331.070312 33.203125 331.566406 33.28125 331.820312 33.640625 L 334.394531 37.253906 C 334.648438 37.609375 334.570312 38.105469 334.210938 38.359375 C 334.070312 38.457031 333.910156 38.503906 333.753906 38.503906 " fill-opacity="1" fill-rule="nonzero"/><path fill="#000000" d="M 319.851562 36.214844 C 319.605469 36.214844 319.367188 36.101562 319.210938 35.886719 C 318.953125 35.535156 319.035156 35.039062 319.390625 34.78125 L 322.992188 32.183594 C 323.34375 31.925781 323.839844 32.007812 324.09375 32.363281 C 324.351562 32.714844 324.269531 33.210938 323.914062 33.46875 L 320.3125 36.066406 C 320.175781 36.167969 320.011719 36.214844 319.851562 36.214844 " fill-opacity="1" fill-rule="nonzero"/><path fill="#000000" d="M 332.457031 27.125 C 332.210938 27.125 331.964844 27.011719 331.8125 26.796875 C 331.558594 26.441406 331.636719 25.945312 331.992188 25.691406 L 335.589844 23.09375 C 335.949219 22.839844 336.441406 22.917969 336.695312 23.273438 C 336.953125 23.625 336.871094 24.121094 336.515625 24.378906 L 332.921875 26.972656 C 332.777344 27.074219 332.617188 27.125 332.457031 27.125 " fill-opacity="1" fill-rule="nonzero"/><path fill="#000000" d="M 28.640625 243.097656 C 28.390625 243.097656 28.148438 242.980469 27.996094 242.761719 L 25.417969 239.148438 C 25.164062 238.792969 25.246094 238.300781 25.601562 238.042969 C 25.960938 237.792969 26.453125 237.871094 26.707031 238.230469 L 29.285156 241.847656 C 29.539062 242.199219 29.453125 242.695312 29.097656 242.949219 C 28.960938 243.050781 28.796875 243.097656 28.640625 243.097656 " fill-opacity="1" fill-rule="nonzero"/><path fill="#000000" d="M 37.660156 255.75 C 37.414062 255.75 37.167969 255.636719 37.015625 255.417969 L 34.4375 251.800781 C 34.183594 251.449219 34.265625 250.953125 34.621094 250.699219 C 34.980469 250.445312 35.472656 250.527344 35.726562 250.886719 L 38.304688 254.5 C 38.554688 254.855469 38.472656 255.351562 38.117188 255.605469 C 37.976562 255.703125 37.820312 255.75 37.660156 255.75 " fill-opacity="1" fill-rule="nonzero"/><path fill="#000000" d="M 23.757812 253.460938 C 23.511719 253.460938 23.269531 253.347656 23.117188 253.132812 C 22.859375 252.777344 22.941406 252.28125 23.292969 252.027344 L 26.898438 249.429688 C 27.25 249.175781 27.746094 249.253906 28 249.609375 C 28.257812 249.960938 28.175781 250.457031 27.820312 250.714844 L 24.222656 253.3125 C 24.082031 253.410156 23.917969 253.460938 23.757812 253.460938 " fill-opacity="1" fill-rule="nonzero"/><path fill="#000000" d="M 36.363281 244.371094 C 36.117188 244.371094 35.875 244.253906 35.71875 244.039062 C 35.464844 243.683594 35.542969 243.191406 35.898438 242.933594 L 39.5 240.335938 C 39.855469 240.082031 40.347656 240.164062 40.605469 240.519531 C 40.859375 240.871094 40.78125 241.367188 40.425781 241.621094 L 36.824219 244.21875 C 36.683594 244.320312 36.523438 244.371094 36.363281 244.371094 " fill-opacity="1" fill-rule="nonzero"/><path fill="#ffffff" d="M 22.503906 53.59375 C 22.523438 37.757812 35.378906 24.859375 51.21875 24.792969 C 67.058594 24.722656 79.878906 37.503906 79.859375 53.339844 C 79.839844 69.179688 66.980469 82.074219 51.144531 82.144531 C 35.304688 82.214844 22.480469 69.429688 22.503906 53.59375 " fill-opacity="1" fill-rule="nonzero"/><path fill="#000000" d="M 51.347656 25.582031 C 51.304688 25.582031 51.265625 25.582031 51.222656 25.582031 C 35.84375 25.648438 23.3125 38.214844 23.292969 53.59375 C 23.285156 61.042969 26.175781 68.03125 31.433594 73.273438 C 36.664062 78.484375 43.613281 81.351562 51.011719 81.351562 C 51.054688 81.351562 51.097656 81.351562 51.140625 81.351562 C 66.519531 81.285156 79.046875 68.71875 79.070312 53.339844 C 79.078125 45.890625 76.1875 38.90625 70.929688 33.664062 C 65.699219 28.449219 58.75 25.582031 51.347656 25.582031 Z M 51.011719 82.933594 C 43.1875 82.933594 35.84375 79.90625 30.316406 74.394531 C 24.757812 68.851562 21.699219 61.464844 21.710938 53.59375 C 21.734375 37.347656 34.96875 24.074219 51.214844 24 C 51.257812 24 51.304688 24 51.347656 24 C 59.171875 24 66.515625 27.03125 72.046875 32.539062 C 77.605469 38.085938 80.660156 45.472656 80.652344 53.339844 C 80.628906 69.589844 67.394531 82.863281 51.144531 82.933594 C 51.101562 82.933594 51.058594 82.933594 51.011719 82.933594 " fill-opacity="1" fill-rule="nonzero"/><path fill="#f96f5f" d="M 65.730469 40.15625 L 56.992188 45.292969 C 56.539062 45.554688 56.523438 46.207031 56.964844 46.488281 L 58.257812 47.320312 C 58.585938 47.53125 58.679688 47.96875 58.46875 48.292969 L 54.417969 54.613281 C 54.207031 54.941406 53.773438 55.035156 53.445312 54.824219 L 45.925781 50.003906 C 45.597656 49.792969 45.164062 49.886719 44.953125 50.21875 L 35.910156 64.230469 C 35.699219 64.5625 35.796875 64.996094 36.125 65.207031 L 38.871094 66.96875 C 39.199219 67.179688 39.632812 67.082031 39.84375 66.757812 L 46.367188 56.675781 C 46.578125 56.34375 47.011719 56.25 47.339844 56.460938 L 54.855469 61.28125 C 55.183594 61.488281 55.617188 61.394531 55.828125 61.066406 L 62.398438 50.824219 C 62.609375 50.5 63.042969 50.402344 63.371094 50.613281 L 64.765625 51.507812 C 65.210938 51.796875 65.800781 51.507812 65.847656 50.984375 L 66.789062 40.828125 C 66.839844 40.257812 66.222656 39.863281 65.730469 40.15625 " fill-opacity="1" fill-rule="nonzero"/><path fill="#f96f5f" d="M 182.386719 37.507812 C 199.703125 37.507812 216.078125 45.34375 233.292969 65.757812 L 162 65.847656 C 155.230469 65.847656 149.523438 70.691406 148.460938 77.378906 C 147.203125 85.308594 147.179688 95.25 148.554688 100.507812 C 150.476562 107.835938 152.324219 113.019531 153.855469 116.613281 C 155.789062 121.148438 154.316406 126.421875 150.339844 129.332031 L 147.214844 131.621094 C 142.738281 134.898438 136.496094 134.199219 132.878906 129.996094 C 128.175781 124.535156 122.066406 116.332031 118.0625 106.757812 C 108.023438 82.757812 115.683594 44.882812 149.039062 38.273438 C 156.148438 36.863281 178.683594 37.507812 182.386719 37.507812 " fill-opacity="1" fill-rule="nonzero"/><path fill="#ffffff" d="M 188.667969 65.214844 C 186.855469 61.195312 182.054688 59.492188 178.019531 61.289062 C 174.90625 62.675781 170.863281 64.664062 169.691406 66.117188 C 168.289062 67.855469 166.015625 73.28125 167.910156 77.433594 C 169.609375 81.15625 174.367188 82.136719 177.605469 79.636719 C 179.304688 78.324219 181.0625 76.132812 182.148438 72.472656 C 182.75 70.441406 184.128906 68.683594 186.074219 67.84375 C 186.601562 67.617188 187.171875 67.441406 187.785156 67.371094 C 188.601562 67.269531 189.117188 66.460938 188.851562 65.679688 C 188.808594 65.542969 188.746094 65.386719 188.667969 65.214844 " fill-opacity="1" fill-rule="nonzero"/><path fill="#000000" d="M 181.371094 61.363281 C 180.359375 61.363281 179.328125 61.570312 178.34375 62.007812 C 172.476562 64.621094 170.789062 66.015625 170.308594 66.613281 C 169.09375 68.121094 166.882812 73.28125 168.632812 77.105469 C 169.308594 78.589844 170.613281 79.667969 172.210938 80.0625 C 173.917969 80.484375 175.710938 80.097656 177.125 79.007812 C 179.066406 77.507812 180.503906 75.230469 181.390625 72.246094 C 182.089844 69.882812 183.683594 68.015625 185.757812 67.117188 C 186.394531 66.839844 187.046875 66.660156 187.691406 66.582031 C 187.898438 66.558594 188.011719 66.429688 188.058594 66.355469 C 188.101562 66.285156 188.171875 66.128906 188.105469 65.933594 C 188.066406 65.816406 188.011719 65.683594 187.949219 65.542969 C 186.765625 62.917969 184.136719 61.363281 181.371094 61.363281 Z M 173.585938 81.8125 C 173 81.8125 172.410156 81.742188 171.828125 81.597656 C 169.761719 81.089844 168.070312 79.6875 167.191406 77.761719 C 165.171875 73.335938 167.421875 67.671875 169.074219 65.621094 C 170.089844 64.359375 172.992188 62.660156 177.699219 60.5625 C 182.171875 58.574219 187.417969 60.515625 189.390625 64.890625 C 189.476562 65.085938 189.550781 65.265625 189.605469 65.425781 C 189.804688 66.023438 189.730469 66.667969 189.398438 67.199219 C 189.0625 67.730469 188.507812 68.082031 187.878906 68.152344 C 187.386719 68.214844 186.886719 68.355469 186.390625 68.566406 C 184.746094 69.277344 183.476562 70.785156 182.90625 72.699219 C 181.925781 76.007812 180.304688 78.550781 178.089844 80.257812 C 176.773438 81.277344 175.191406 81.8125 173.585938 81.8125 " fill-opacity="1" fill-rule="nonzero"/><path fill="#ffffff" d="M 158.535156 139.851562 C 159.066406 140.726562 159.667969 141.777344 160.054688 143.675781 L 161.644531 152.476562 L 156.367188 152.488281 C 155.492188 152.488281 154.648438 152.8125 153.992188 153.386719 C 153.988281 153.390625 153.984375 153.394531 153.980469 153.398438 C 153.273438 154.011719 152.957031 154.957031 153.132812 155.871094 C 153.492188 157.730469 154.875 163.136719 154.890625 163.988281 C 154.910156 165.253906 155.113281 167.046875 154.273438 168.070312 L 154.050781 168.335938 C 153.171875 169.390625 151.484375 169.125 150.988281 167.847656 L 146.273438 155.445312 C 145.660156 153.859375 145.613281 152.109375 146.140625 150.488281 L 148.882812 142.105469 C 149.5 140.214844 148.972656 138.144531 147.53125 136.789062 L 137.21875 128.207031 C 133.488281 124.738281 140.503906 118.3125 140.503906 118.3125 C 142.816406 116.6875 146.046875 117.320312 147.574219 119.539062 L 158.535156 139.851562 " fill-opacity="1" fill-rule="nonzero"/><path fill="#000000" d="M 140.996094 118.929688 C 139.828125 120.015625 136.921875 123.242188 136.914062 125.707031 C 136.914062 126.472656 137.1875 127.101562 137.753906 127.628906 L 148.035156 136.179688 C 149.730469 137.773438 150.34375 140.183594 149.636719 142.351562 L 146.894531 150.734375 C 146.421875 152.179688 146.464844 153.75 147.011719 155.160156 L 151.726562 167.570312 C 151.855469 167.898438 152.136719 168.125 152.496094 168.183594 C 152.855469 168.242188 153.210938 168.109375 153.445312 167.828125 L 153.664062 167.566406 C 154.191406 166.917969 154.148438 165.617188 154.113281 164.574219 C 154.109375 164.375 154.101562 164.183594 154.097656 164.003906 C 154.089844 163.570312 153.5 161.050781 153.113281 159.386719 C 152.796875 158.039062 152.496094 156.769531 152.355469 156.023438 C 152.125 154.828125 152.550781 153.59375 153.460938 152.796875 C 154.277344 152.085938 155.304688 151.699219 156.363281 151.695312 L 160.699219 151.6875 L 159.277344 143.816406 C 158.929688 142.121094 158.40625 141.167969 157.859375 140.265625 C 157.851562 140.25 157.84375 140.242188 157.839844 140.230469 L 146.898438 119.957031 C 146.28125 119.078125 145.296875 118.464844 144.191406 118.261719 C 143.058594 118.058594 141.925781 118.296875 140.996094 118.929688 Z M 152.671875 169.78125 C 152.527344 169.78125 152.382812 169.769531 152.238281 169.746094 C 151.328125 169.601562 150.582031 168.992188 150.25 168.132812 L 145.535156 155.726562 C 144.855469 153.984375 144.804688 152.03125 145.390625 150.242188 L 148.128906 141.859375 C 148.648438 140.269531 148.203125 138.507812 146.988281 137.367188 L 136.710938 128.816406 C 135.78125 127.953125 135.328125 126.914062 135.332031 125.699219 C 135.347656 122.003906 139.78125 117.902344 139.96875 117.726562 C 139.992188 117.707031 140.019531 117.683594 140.046875 117.664062 C 141.332031 116.761719 142.902344 116.421875 144.46875 116.707031 C 146.003906 116.984375 147.371094 117.851562 148.226562 119.089844 C 148.242188 119.117188 148.253906 119.140625 148.269531 119.164062 L 159.222656 139.460938 C 159.816406 140.445312 160.433594 141.570312 160.828125 143.515625 L 162.425781 152.339844 C 162.464844 152.566406 162.402344 152.804688 162.253906 152.984375 C 162.101562 153.164062 161.882812 153.269531 161.648438 153.269531 L 156.367188 153.277344 C 155.691406 153.277344 155.03125 153.53125 154.511719 153.984375 C 154.011719 154.417969 153.785156 155.082031 153.910156 155.722656 C 154.046875 156.4375 154.339844 157.691406 154.652344 159.023438 C 155.285156 161.730469 155.671875 163.414062 155.679688 163.976562 C 155.683594 164.148438 155.6875 164.328125 155.695312 164.519531 C 155.742188 165.832031 155.796875 167.460938 154.886719 168.574219 L 154.660156 168.84375 C 154.15625 169.449219 153.433594 169.78125 152.671875 169.78125 " fill-opacity="1" fill-rule="nonzero"/><path fill="#ffffff" d="M 173.84375 51.949219 C 174.339844 51.828125 174.796875 51.589844 175.1875 51.265625 L 181.230469 46.25 C 181.878906 45.847656 182.710938 45.90625 183.289062 46.390625 L 187.613281 50.0625 C 188.167969 50.523438 188.972656 50.5625 189.574219 50.148438 L 195.042969 46.398438 L 197.710938 47.257812 C 197.917969 47.324219 198.144531 47.214844 198.21875 47.003906 L 199.96875 42.089844 C 200.71875 40.378906 203.28125 37.578125 202.613281 36.945312 C 202.613281 36.945312 194.777344 19.570312 186.160156 23.636719 C 184.910156 24.226562 183.945312 25.289062 183.394531 26.550781 L 182.238281 29.195312 C 181.074219 31.847656 175.160156 37.917969 168.945312 39.496094 C 168.121094 39.703125 165.976562 39.875 164.304688 39.984375 C 163.058594 40.058594 162.222656 41.269531 162.5625 42.472656 C 162.960938 43.890625 163.703125 45.863281 165.074219 48.140625 C 166.878906 51.132812 170.367188 52.746094 173.769531 51.964844 C 173.796875 51.957031 173.820312 51.953125 173.84375 51.949219 " fill-opacity="1" fill-rule="nonzero"/><path fill="#000000" d="M 202.066406 37.519531 Z M 188.832031 23.8125 C 188.039062 23.8125 187.265625 23.992188 186.496094 24.355469 C 185.457031 24.847656 184.613281 25.738281 184.117188 26.871094 L 182.960938 29.511719 C 181.746094 32.277344 175.773438 38.582031 169.140625 40.265625 C 168.429688 40.449219 166.816406 40.617188 164.355469 40.773438 C 164.003906 40.796875 163.695312 40.96875 163.492188 41.253906 C 163.285156 41.546875 163.222656 41.914062 163.320312 42.257812 C 163.671875 43.492188 164.375 45.445312 165.75 47.734375 C 167.421875 50.496094 170.570312 51.890625 173.59375 51.199219 L 173.660156 51.179688 C 174.023438 51.09375 174.371094 50.917969 174.679688 50.660156 L 180.726562 45.644531 C 180.753906 45.621094 180.785156 45.601562 180.8125 45.582031 C 181.753906 45 182.953125 45.082031 183.796875 45.785156 L 188.125 49.460938 C 188.402344 49.695312 188.816406 49.707031 189.125 49.496094 L 194.59375 45.75 C 194.796875 45.609375 195.050781 45.574219 195.285156 45.644531 L 197.597656 46.390625 L 199.222656 41.828125 C 199.230469 41.8125 199.234375 41.792969 199.242188 41.777344 C 199.554688 41.0625 200.121094 40.222656 200.671875 39.414062 C 201.128906 38.738281 201.800781 37.738281 201.914062 37.320312 C 201.90625 37.304688 201.898438 37.289062 201.890625 37.269531 C 201.839844 37.164062 196.933594 26.425781 190.902344 24.207031 C 190.195312 23.945312 189.503906 23.8125 188.832031 23.8125 Z M 172.035156 52.957031 C 168.984375 52.957031 166.066406 51.324219 164.398438 48.550781 C 163.21875 46.59375 162.34375 44.621094 161.796875 42.691406 C 161.570312 41.878906 161.714844 41.023438 162.199219 40.34375 C 162.679688 39.664062 163.425781 39.246094 164.253906 39.195312 C 166.550781 39.046875 168.148438 38.882812 168.753906 38.730469 C 174.550781 37.257812 180.390625 31.433594 181.507812 28.878906 L 182.667969 26.234375 C 183.316406 24.753906 184.4375 23.578125 185.820312 22.925781 C 187.621094 22.074219 189.515625 22.007812 191.453125 22.722656 C 197.828125 25.070312 202.699219 35.25 203.28125 36.507812 C 203.964844 37.371094 203.082031 38.671875 201.980469 40.300781 C 201.480469 41.042969 200.960938 41.808594 200.703125 42.386719 L 198.960938 47.273438 C 198.742188 47.886719 198.085938 48.210938 197.46875 48.011719 L 195.167969 47.273438 L 190.019531 50.800781 C 189.128906 51.414062 187.929688 51.359375 187.105469 50.671875 L 182.777344 46.996094 C 182.472656 46.742188 182.039062 46.707031 181.6875 46.902344 L 175.691406 51.875 C 175.199219 52.285156 174.621094 52.578125 174.027344 52.71875 L 173.949219 52.738281 C 173.3125 52.886719 172.667969 52.957031 172.035156 52.957031 " fill-opacity="1" fill-rule="nonzero"/><g clip-path="url(#e81f8605e7)"><path fill="#000000" d="M 215.332031 30.089844 C 213.308594 26.269531 209.976562 27.996094 208.039062 17.15625 C 206.878906 10.640625 201.644531 17.367188 201.199219 15.710938 C 199.554688 9.585938 199.617188 9.792969 197.40625 7.65625 C 195.941406 6.242188 192.164062 7.035156 190.03125 8.765625 C 187.214844 11.046875 184.398438 17.445312 181.089844 23.644531 C 179.371094 26.855469 180.820312 31.90625 186.882812 30.933594 C 188.777344 30.628906 188.902344 27.675781 190.5625 28.015625 C 194.886719 28.898438 191.332031 32.550781 193.863281 33.832031 C 196.296875 35.058594 197.59375 35.390625 200.734375 36.351562 C 204.535156 37.507812 204.398438 41.980469 210.433594 40.367188 C 213.582031 39.523438 218.097656 35.3125 215.332031 30.089844 " fill-opacity="1" fill-rule="nonzero"/></g><path fill="#ffffff" d="M 382.695312 389.429688 C 383.003906 389.90625 394.699219 406.628906 394.699219 406.628906 C 394.699219 406.628906 393.058594 412.433594 390.03125 413.261719 L 376.121094 398.210938 L 382.695312 389.429688 " fill-opacity="1" fill-rule="nonzero"/><path fill="#000000" d="M 377.152344 398.160156 L 390.25 412.332031 C 392.015625 411.453125 393.332031 408.335938 393.828125 406.769531 C 392.191406 404.417969 384.898438 393.992188 382.671875 390.785156 Z M 390.03125 414.050781 C 389.8125 414.050781 389.601562 413.964844 389.449219 413.796875 L 375.542969 398.746094 C 375.285156 398.46875 375.257812 398.042969 375.488281 397.738281 L 382.0625 388.953125 C 382.21875 388.75 382.457031 388.636719 382.726562 388.636719 C 382.984375 388.648438 383.222656 388.785156 383.363281 389.003906 C 383.632812 389.425781 392.105469 401.542969 395.347656 406.175781 C 395.480469 406.371094 395.523438 406.613281 395.460938 406.84375 C 395.28125 407.484375 393.605469 413.105469 390.242188 414.023438 C 390.171875 414.042969 390.097656 414.050781 390.03125 414.050781 " fill-opacity="1" fill-rule="nonzero"/><path fill="#ffffff" d="M 402.550781 411.078125 C 402.550781 411.078125 399.066406 424.59375 393.234375 431.542969 C 387.40625 438.492188 377.714844 435.988281 377.714844 435.988281 C 377.714844 435.988281 377.003906 430.113281 378.21875 428.585938 C 379.433594 427.054688 386.140625 418.886719 386.125 411.546875 L 389.105469 407.015625 L 391.210938 409.742188 L 394.03125 403.953125 L 402.550781 411.078125 " fill-opacity="1" fill-rule="nonzero"/><path fill="#000000" d="M 378.441406 435.332031 C 380.476562 435.707031 387.949219 436.613281 392.628906 431.03125 C 397.667969 425.03125 400.976562 413.808594 401.65625 411.359375 L 394.304688 405.207031 L 391.925781 410.085938 C 391.804688 410.332031 391.566406 410.5 391.292969 410.527344 C 391.019531 410.554688 390.753906 410.4375 390.585938 410.222656 L 389.160156 408.378906 L 386.917969 411.785156 C 386.859375 415.1875 385.398438 420.859375 378.96875 428.917969 L 378.839844 429.074219 C 378.199219 429.882812 378.21875 433.035156 378.441406 435.332031 Z M 381.863281 437.234375 C 379.4375 437.234375 377.6875 436.800781 377.519531 436.757812 C 377.203125 436.675781 376.96875 436.410156 376.933594 436.085938 C 376.804688 435.046875 376.25 429.792969 377.601562 428.09375 L 377.730469 427.925781 C 384.03125 420.039062 385.34375 414.664062 385.335938 411.546875 C 385.335938 411.390625 385.382812 411.238281 385.464844 411.109375 L 388.449219 406.582031 C 388.589844 406.367188 388.824219 406.234375 389.078125 406.226562 C 389.339844 406.214844 389.578125 406.332031 389.734375 406.53125 L 391.0625 408.246094 L 393.324219 403.605469 C 393.433594 403.382812 393.632812 403.226562 393.871094 403.179688 C 394.109375 403.128906 394.355469 403.1875 394.542969 403.34375 L 403.0625 410.46875 C 403.300781 410.664062 403.398438 410.980469 403.324219 411.277344 C 403.175781 411.832031 399.722656 425.042969 393.84375 432.050781 C 390.253906 436.332031 385.355469 437.234375 381.863281 437.234375 " fill-opacity="1" fill-rule="nonzero"/><path fill="#ffffff" d="M 397.835938 412.074219 C 397.835938 412.074219 394.164062 432.054688 380.042969 433.539062 L 397.835938 412.074219 " fill-opacity="1" fill-rule="nonzero"/><path fill="#000000" d="M 380.042969 434.328125 C 379.640625 434.328125 379.300781 434.027344 379.257812 433.621094 C 379.210938 433.183594 379.527344 432.796875 379.960938 432.75 C 393.324219 431.34375 397.023438 412.125 397.058594 411.929688 C 397.140625 411.503906 397.550781 411.214844 397.980469 411.296875 C 398.40625 411.375 398.695312 411.789062 398.613281 412.21875 C 398.460938 413.054688 394.667969 432.792969 380.125 434.324219 C 380.097656 434.328125 380.070312 434.328125 380.042969 434.328125 " fill-opacity="1" fill-rule="nonzero"/><path fill="#ffffff" d="M 375.457031 405.324219 C 375.527344 406.039062 374.785156 416.058594 371.675781 422.351562 C 371.675781 422.351562 374.023438 427.003906 378.417969 426.175781 C 378.417969 426.175781 383.871094 414.195312 384.941406 405.074219 L 375.457031 405.324219 " fill-opacity="1" fill-rule="nonzero"/><path fill="#000000" d="M 372.574219 422.320312 C 373.136719 423.246094 374.960938 425.769531 377.875 425.453125 C 378.773438 423.40625 382.898438 413.726562 384.039062 405.890625 L 376.230469 406.09375 C 376.082031 408.78125 375.152344 416.820312 372.574219 422.320312 Z M 377.410156 427.058594 C 374.089844 427.058594 371.785156 424.320312 370.976562 422.707031 C 370.863281 422.488281 370.859375 422.222656 370.96875 422.003906 C 373.894531 416.085938 374.734375 406.363281 374.671875 405.390625 C 374.660156 405.175781 374.734375 404.953125 374.878906 404.796875 C 375.023438 404.636719 375.226562 404.535156 375.441406 404.53125 L 384.925781 404.285156 C 385.164062 404.269531 385.378906 404.375 385.535156 404.542969 C 385.6875 404.710938 385.757812 404.941406 385.734375 405.167969 C 384.65625 414.304688 379.363281 426.007812 379.140625 426.5 C 379.035156 426.734375 378.820312 426.902344 378.570312 426.949219 C 378.167969 427.027344 377.78125 427.058594 377.410156 427.058594 " fill-opacity="1" fill-rule="nonzero"/><path fill="#ffffff" d="M 381.84375 420.246094 C 381.84375 420.246094 382.667969 429.902344 381.863281 435.007812 C 381.65625 436.289062 380.734375 437.328125 379.496094 437.714844 C 375.558594 438.9375 363.773438 442.664062 352.578125 442.304688 C 350.011719 442.21875 348.644531 440.496094 348.3125 439.519531 C 347.390625 436.832031 348.667969 433.175781 352.640625 429.582031 C 358.414062 424.355469 371.789062 416.472656 371.789062 416.472656 L 375.847656 421.351562 L 374.796875 426.140625 L 381.84375 420.246094 " fill-opacity="1" fill-rule="nonzero"/><path fill="#000000" d="M 371.613281 417.5 C 368.992188 419.070312 358.148438 425.667969 353.171875 430.167969 C 349.71875 433.292969 348.179688 436.691406 349.0625 439.261719 C 349.269531 439.863281 350.304688 441.4375 352.605469 441.511719 C 363.496094 441.863281 374.8125 438.34375 379.074219 437.015625 L 379.265625 436.957031 C 380.234375 436.660156 380.925781 435.863281 381.082031 434.882812 C 381.675781 431.132812 381.359375 424.753906 381.167969 421.84375 L 375.308594 426.746094 C 375.050781 426.964844 374.683594 426.992188 374.390625 426.820312 C 374.101562 426.644531 373.957031 426.300781 374.03125 425.972656 L 374.996094 421.558594 Z M 354.144531 443.117188 C 353.613281 443.117188 353.082031 443.109375 352.554688 443.09375 C 349.472656 442.996094 347.941406 440.878906 347.566406 439.777344 C 346.457031 436.542969 348.109375 432.613281 352.109375 428.996094 C 357.878906 423.773438 370.839844 416.113281 371.386719 415.792969 C 371.722656 415.59375 372.148438 415.667969 372.398438 415.964844 L 376.457031 420.84375 C 376.617188 421.03125 376.679688 421.28125 376.625 421.519531 L 376.070312 424.046875 L 381.339844 419.636719 C 381.566406 419.449219 381.875 419.402344 382.148438 419.511719 C 382.425781 419.625 382.609375 419.882812 382.636719 420.175781 C 382.667969 420.574219 383.457031 429.992188 382.644531 435.128906 C 382.394531 436.710938 381.28125 437.988281 379.734375 438.472656 L 379.546875 438.53125 C 375.417969 439.8125 364.785156 443.117188 354.144531 443.117188 " fill-opacity="1" fill-rule="nonzero"/><path fill="#ffffff" d="M 376.660156 434.6875 C 376.660156 434.6875 367.503906 438.816406 353.300781 439.160156 L 376.660156 434.6875 " fill-opacity="1" fill-rule="nonzero"/><path fill="#000000" d="M 353.300781 439.953125 C 352.875 439.953125 352.519531 439.609375 352.511719 439.179688 C 352.5 438.742188 352.84375 438.378906 353.28125 438.367188 C 367.164062 438.03125 376.246094 434.007812 376.332031 433.96875 C 376.734375 433.785156 377.203125 433.964844 377.382812 434.363281 C 377.5625 434.761719 377.382812 435.230469 376.984375 435.410156 C 376.605469 435.582031 367.523438 439.605469 353.320312 439.953125 C 353.316406 439.953125 353.308594 439.953125 353.300781 439.953125 " fill-opacity="1" fill-rule="nonzero"/><path fill="#000000" d="M 355.171875 274.242188 C 355.171875 274.242188 337.550781 313.300781 337.480469 339.96875 C 337.414062 366.632812 378.996094 403.429688 378.996094 403.429688 L 386.792969 396.667969 C 386.792969 396.667969 369.949219 374.554688 367.289062 354.644531 C 364.632812 334.738281 375.667969 304.554688 375.667969 304.554688 L 378.679688 278.007812 L 355.171875 274.242188 " fill-opacity="1" fill-rule="nonzero"/><path fill="#000000" d="M 397.398438 274.242188 C 397.398438 274.242188 406.910156 332.84375 386.472656 410.101562 L 371.960938 407.75 C 371.960938 407.75 380 340.636719 364.070312 304.929688 L 360.519531 272.660156 L 397.398438 274.242188 " fill-opacity="1" fill-rule="nonzero"/><path fill="#ffffff" d="M 371.796875 340.8125 C 371.792969 340.8125 371.792969 340.8125 371.792969 340.8125 C 371.355469 340.808594 371.003906 340.453125 371.007812 340.015625 C 371.054688 331.261719 368.585938 314.554688 365.066406 309.410156 C 364.820312 309.050781 364.914062 308.558594 365.273438 308.308594 C 365.632812 308.0625 366.128906 308.15625 366.371094 308.515625 C 370.1875 314.09375 372.640625 331.175781 372.589844 340.023438 C 372.585938 340.460938 372.230469 340.8125 371.796875 340.8125 " fill-opacity="1" fill-rule="nonzero"/><path fill="#6ce5e8" d="M 373.003906 391.304688 C 372.988281 391.304688 372.976562 391.300781 372.960938 391.300781 C 372.519531 391.277344 372.1875 390.902344 372.214844 390.46875 C 372.667969 382.300781 372.421875 371.988281 372.417969 371.886719 C 372.410156 371.449219 372.753906 371.089844 373.191406 371.074219 C 373.621094 371.085938 373.992188 371.410156 374 371.847656 C 374.003906 371.949219 374.253906 382.324219 373.792969 390.558594 C 373.769531 390.980469 373.421875 391.304688 373.003906 391.304688 " fill-opacity="1" fill-rule="nonzero"/><path fill="#000000" d="M 393.445312 184.566406 C 395.09375 187.882812 392.75 189.054688 393.894531 195.492188 C 394.738281 200.222656 396.4375 202.03125 395.308594 204.386719 C 394.292969 206.507812 391.84375 207.269531 390.226562 207.773438 C 382.886719 210.0625 375.8125 206.34375 371.472656 204.058594 C 367.957031 202.207031 363.136719 199.671875 363.464844 197.101562 C 363.78125 194.566406 368.75 194.921875 371.085938 190.667969 C 372.964844 187.246094 370.804688 185.097656 372.78125 182.203125 C 375.339844 178.457031 381.304688 178.613281 382.265625 178.636719 C 386.101562 178.738281 391.414062 180.484375 393.445312 184.566406 " fill-opacity="1" fill-rule="nonzero"/><path fill="#ffffff" d="M 352.429688 204.167969 L 371.734375 209 C 372.085938 209.078125 372.441406 208.882812 372.558594 208.542969 C 373.875 204.84375 371.828125 200.703125 371.238281 199.628906 C 371.144531 199.460938 370.984375 199.34375 370.796875 199.292969 C 369.839844 199.03125 368.976562 198.691406 368.203125 198.28125 C 367.242188 197.773438 366.847656 196.601562 367.289062 195.609375 C 367.992188 194.011719 368.761719 191.855469 369.195312 190.972656 C 369.300781 190.757812 369.296875 190.5 369.164062 190.304688 C 368.832031 189.8125 368.324219 189.445312 368.382812 188.714844 C 368.40625 188.433594 368.597656 188.191406 368.867188 188.109375 C 371.289062 187.398438 373.164062 183.753906 374.785156 182.648438 C 375.558594 182.121094 376.078125 181.980469 376.945312 181.507812 C 377.089844 181.425781 377.265625 181.394531 377.425781 181.425781 C 381.546875 182.320312 375.230469 187.433594 380.628906 190.433594 C 380.902344 190.585938 381.0625 190.886719 381 191.191406 C 380.90625 191.636719 380.925781 192.238281 380.980469 192.789062 C 380.980469 192.796875 380.984375 192.800781 380.984375 192.808594 C 381.039062 193.363281 381.695312 193.636719 382.128906 193.28125 C 382.945312 192.617188 383.78125 192.421875 384.273438 192.714844 C 384.972656 193.121094 384.925781 194.472656 384.679688 195.28125 C 384.1875 196.890625 382.507812 197.636719 381.550781 197.9375 C 381.179688 198.050781 380.972656 198.433594 381.078125 198.800781 C 381.71875 201.019531 383.652344 207.953125 383.800781 211.101562 C 383.8125 211.425781 384.039062 211.695312 384.355469 211.765625 L 388.039062 212.574219 C 393.585938 213.789062 400.171875 217.144531 404.410156 220.917969 C 404.410156 220.917969 412.238281 227.027344 411.835938 227.429688 C 400.363281 239.09375 377.839844 231.800781 369.496094 228.101562 C 361.414062 224.515625 351.886719 204.046875 352.429688 204.167969 " fill-opacity="1" fill-rule="nonzero"/><path fill="#000000" d="M 371.921875 208.234375 L 371.929688 208.234375 Z M 353.640625 205.289062 C 355.570312 209.707031 363.238281 224.464844 369.816406 227.378906 C 372.703125 228.65625 398.09375 239.402344 410.820312 227.320312 C 409.828125 226.296875 406.75 223.75 403.921875 221.542969 C 399.730469 217.820312 393.292969 214.535156 387.867188 213.347656 L 384.179688 212.542969 C 383.519531 212.398438 383.039062 211.820312 383.003906 211.140625 C 382.863281 208.0625 380.910156 201.089844 380.316406 199.023438 C 380.089844 198.238281 380.523438 197.429688 381.304688 197.183594 C 382.117188 196.929688 383.535156 196.316406 383.917969 195.054688 C 384.15625 194.265625 384.027344 193.488281 383.871094 193.398438 C 383.777344 193.339844 383.285156 193.359375 382.625 193.898438 C 382.199219 194.242188 381.613281 194.332031 381.105469 194.117188 C 380.597656 193.90625 380.242188 193.433594 380.195312 192.886719 C 380.117188 192.15625 380.125 191.5625 380.203125 191.109375 C 376.796875 189.191406 377.445312 186.382812 377.878906 184.519531 C 378.058594 183.738281 378.242188 182.933594 378.03125 182.589844 C 377.902344 182.394531 377.574219 182.277344 377.300781 182.214844 C 376.957031 182.398438 376.667969 182.539062 376.390625 182.664062 C 375.972656 182.863281 375.648438 183.019531 375.226562 183.300781 C 374.703125 183.664062 374.070312 184.425781 373.402344 185.230469 C 372.210938 186.675781 370.859375 188.308594 369.167969 188.847656 C 369.171875 189.027344 369.273438 189.167969 369.515625 189.464844 C 369.617188 189.59375 369.722656 189.726562 369.816406 189.863281 C 370.101562 190.289062 370.136719 190.847656 369.902344 191.324219 C 369.691406 191.757812 369.371094 192.5625 369.03125 193.417969 C 368.714844 194.230469 368.351562 195.148438 368.007812 195.929688 C 367.738281 196.546875 367.980469 197.273438 368.566406 197.585938 C 369.304688 197.976562 370.125 198.296875 371 198.53125 C 371.398438 198.636719 371.726562 198.894531 371.929688 199.25 C 372.605469 200.488281 374.714844 204.832031 373.304688 208.8125 C 373.050781 209.523438 372.300781 209.941406 371.5625 209.777344 Z M 394.179688 234.558594 C 382.613281 234.5625 371.09375 229.679688 369.171875 228.828125 C 364.804688 226.890625 360.265625 220.484375 357.222656 215.449219 C 355.554688 212.691406 351.320312 204.96875 351.65625 203.9375 C 351.78125 203.550781 352.199219 203.308594 352.59375 203.398438 C 352.605469 203.402344 352.613281 203.402344 352.617188 203.402344 L 371.835938 208.214844 C 372.964844 204.90625 371.175781 201.179688 370.558594 200.050781 C 369.582031 199.78125 368.664062 199.425781 367.828125 198.980469 C 366.511719 198.285156 365.957031 196.667969 366.558594 195.292969 C 366.890625 194.539062 367.246094 193.636719 367.558594 192.839844 C 367.914062 191.945312 368.222656 191.171875 368.453125 190.679688 C 368.398438 190.605469 368.34375 190.53125 368.285156 190.460938 C 367.960938 190.0625 367.519531 189.519531 367.59375 188.648438 C 367.640625 188.046875 368.066406 187.527344 368.636719 187.355469 C 369.902344 186.980469 371.117188 185.515625 372.183594 184.222656 C 372.921875 183.328125 373.625 182.484375 374.335938 181.996094 C 374.859375 181.636719 375.273438 181.441406 375.71875 181.234375 C 375.972656 181.117188 376.242188 180.988281 376.5625 180.816406 C 376.886719 180.640625 377.25 180.585938 377.589844 180.65625 C 378.4375 180.839844 379.019531 181.195312 379.363281 181.746094 C 379.933594 182.640625 379.683594 183.726562 379.417969 184.875 C 378.996094 186.695312 378.601562 188.410156 381.011719 189.746094 C 381.589844 190.066406 381.898438 190.730469 381.769531 191.355469 C 381.726562 191.546875 381.691406 191.917969 381.753906 192.570312 C 382.785156 191.78125 383.890625 191.574219 384.667969 192.027344 C 385.808594 192.699219 385.75 194.480469 385.433594 195.511719 C 384.851562 197.425781 382.980469 198.304688 381.859375 198.667969 C 382.644531 201.398438 384.417969 207.859375 384.582031 211.011719 L 388.207031 211.800781 C 393.875 213.046875 400.597656 216.472656 404.933594 220.328125 C 412.570312 226.285156 412.609375 226.941406 412.636719 227.335938 C 412.652344 227.558594 412.554688 227.828125 412.398438 227.988281 C 407.53125 232.9375 400.84375 234.558594 394.179688 234.558594 " fill-opacity="1" fill-rule="nonzero"/><path fill="#000000" d="M 374.152344 200.734375 C 373.226562 200.734375 372.148438 200.597656 371.019531 200.171875 C 370.613281 200.015625 370.40625 199.5625 370.558594 199.152344 C 370.710938 198.742188 371.167969 198.535156 371.578125 198.6875 C 374.214844 199.679688 376.507812 198.773438 376.535156 198.765625 C 376.9375 198.601562 377.398438 198.796875 377.566406 199.199219 C 377.730469 199.601562 377.535156 200.066406 377.125 200.230469 C 377.050781 200.261719 375.855469 200.734375 374.152344 200.734375 " fill-opacity="1" fill-rule="nonzero"/><path fill="#000000" d="M 390.601562 182.859375 C 390.601562 182.859375 391.839844 175.332031 397.8125 177.371094 C 403.78125 179.40625 397.992188 185.59375 393.480469 186.074219 C 388.96875 186.546875 390.601562 182.859375 390.601562 182.859375 " fill-opacity="1" fill-rule="nonzero"/><path fill="#ffffff" d="M 288.890625 175.75 C 288.890625 175.75 286.847656 171.429688 286.511719 169.367188 C 285.664062 164.210938 283.855469 157.761719 280.09375 153.453125 C 278.753906 151.917969 277.085938 150.726562 273.929688 150.421875 C 269.636719 150 263.734375 146.214844 262.914062 150.1875 C 262.203125 153.617188 267.855469 153.097656 269.945312 155.578125 C 271.035156 156.867188 275.765625 162.164062 272.5625 164.828125 C 270.273438 166.734375 267.53125 165.90625 266.839844 167.1875 C 266.449219 167.902344 266.636719 168.757812 267.164062 169.378906 C 268.945312 171.46875 274.34375 169.4375 274.34375 169.4375 C 275.4375 168.980469 276.75 170.328125 277.378906 171.335938 L 281.820312 178.433594 L 288.890625 175.75 " fill-opacity="1" fill-rule="nonzero"/><path fill="#000000" d="M 274.8125 168.546875 C 276.171875 168.546875 277.445312 169.949219 278.050781 170.917969 L 282.144531 177.464844 L 287.816406 175.3125 C 287.203125 173.945312 285.996094 171.117188 285.730469 169.496094 C 284.957031 164.785156 283.246094 158.265625 279.5 153.972656 C 278.402344 152.714844 276.960938 151.511719 273.855469 151.207031 C 272.414062 151.066406 270.851562 150.585938 269.339844 150.117188 C 267.300781 149.488281 265.191406 148.832031 264.261719 149.382812 C 264.078125 149.492188 263.820312 149.707031 263.6875 150.347656 C 263.429688 151.582031 264.316406 152.03125 266.554688 152.824219 C 267.964844 153.324219 269.5625 153.894531 270.550781 155.066406 L 270.699219 155.238281 C 271.789062 156.523438 274.6875 159.929688 274.433594 162.855469 C 274.347656 163.886719 273.886719 164.757812 273.070312 165.4375 C 271.6875 166.585938 270.15625 166.859375 269.039062 167.058594 C 268.339844 167.183594 267.679688 167.300781 267.535156 167.5625 C 267.285156 168.027344 267.488281 168.542969 267.769531 168.867188 C 268.925781 170.226562 272.800781 169.175781 274.066406 168.699219 C 274.316406 168.59375 274.566406 168.546875 274.8125 168.546875 Z M 281.492188 179.40625 L 276.707031 171.753906 C 276.0625 170.71875 275.097656 169.980469 274.648438 170.171875 C 274.015625 170.410156 268.644531 172.332031 266.5625 169.894531 C 265.789062 168.984375 265.625 167.773438 266.144531 166.808594 C 266.652344 165.875 267.675781 165.691406 268.761719 165.5 C 269.8125 165.3125 270.996094 165.101562 272.054688 164.222656 C 272.542969 163.816406 272.808594 163.324219 272.859375 162.71875 C 273.054688 160.453125 270.375 157.300781 269.492188 156.265625 L 269.339844 156.089844 C 268.628906 155.242188 267.304688 154.773438 266.027344 154.316406 C 264.042969 153.613281 261.578125 152.738281 262.136719 150.023438 C 262.328125 149.097656 262.773438 148.421875 263.457031 148.019531 C 264.992188 147.113281 267.332031 147.835938 269.8125 148.605469 C 271.246094 149.046875 272.726562 149.507812 274.007812 149.632812 C 277.671875 149.992188 279.445312 151.5 280.691406 152.933594 C 284.683594 157.503906 286.484375 164.324219 287.292969 169.238281 C 287.609375 171.167969 289.582031 175.371094 289.605469 175.414062 L 289.96875 176.1875 L 281.492188 179.40625 " fill-opacity="1" fill-rule="nonzero"/><path fill="#ffffff" d="M 400.339844 289.429688 C 400.339844 289.429688 393.316406 284.765625 389.539062 283.9375 C 387.238281 283.4375 384.371094 284.730469 382.898438 285.714844 C 382.132812 286.226562 382.207031 287.367188 383.03125 287.773438 C 384.378906 288.441406 386.398438 288.824219 387.386719 289.421875 C 389.78125 290.859375 394.011719 301.195312 405.992188 293.582031 L 404.425781 287.867188 L 400.339844 289.429688 " fill-opacity="1" fill-rule="nonzero"/><path fill="#000000" d="M 388.457031 284.621094 C 386.746094 284.621094 384.699219 285.460938 383.335938 286.375 C 383.160156 286.492188 383.152344 286.664062 383.15625 286.734375 C 383.160156 286.804688 383.191406 286.972656 383.382812 287.066406 C 383.976562 287.359375 384.738281 287.605469 385.480469 287.839844 C 386.363281 288.121094 387.199219 288.386719 387.796875 288.746094 C 388.382812 289.097656 388.960938 289.773438 389.691406 290.625 C 392.375 293.757812 396.410156 298.457031 405.074219 293.21875 L 403.894531 288.917969 L 400.621094 290.167969 C 400.378906 290.261719 400.113281 290.230469 399.898438 290.085938 C 399.832031 290.042969 392.957031 285.496094 389.367188 284.714844 C 389.082031 284.652344 388.773438 284.621094 388.457031 284.621094 Z M 397.996094 297.152344 C 393.203125 297.152344 390.320312 293.785156 388.492188 291.65625 C 387.90625 290.972656 387.347656 290.324219 386.980469 290.101562 C 386.539062 289.839844 385.792969 289.597656 385 289.34375 C 384.203125 289.09375 383.378906 288.832031 382.679688 288.484375 C 382.035156 288.167969 381.625 287.550781 381.578125 286.839844 C 381.53125 286.121094 381.863281 285.457031 382.457031 285.058594 C 384.261719 283.851562 387.246094 282.628906 389.707031 283.164062 C 393.144531 283.917969 398.949219 287.585938 400.433594 288.542969 L 404.144531 287.128906 C 404.351562 287.050781 404.585938 287.0625 404.78125 287.164062 C 404.984375 287.261719 405.125 287.445312 405.1875 287.660156 L 406.757812 293.367188 C 406.847656 293.707031 406.710938 294.0625 406.417969 294.246094 C 403.097656 296.355469 400.320312 297.148438 397.996094 297.152344 " fill-opacity="1" fill-rule="nonzero"/><path fill="#ffffff" d="M 278.558594 175.875 L 288.375 171.789062 C 288.375 171.789062 311.609375 187.8125 321.367188 192.1875 C 331.609375 196.78125 356.15625 203.546875 363.175781 205.441406 C 364.265625 205.738281 365.023438 206.707031 365.0625 207.828125 C 365.207031 211.839844 366.5625 221.101562 375.859375 223.90625 C 388.273438 227.652344 395.9375 221.039062 398.878906 217.695312 C 399.738281 216.714844 401.1875 216.542969 402.257812 217.28125 C 410.027344 222.65625 437.785156 243.085938 440.257812 262.28125 C 442.902344 285.691406 404.722656 296.914062 404.722656 296.914062 L 401.9375 286.960938 C 401.9375 286.960938 414.191406 279.476562 412.765625 267.121094 C 410.367188 257.992188 406.464844 255.585938 403.664062 254.664062 C 402.175781 254.175781 400.804688 255.019531 400.589844 256.578125 C 399.398438 265.199219 399.796875 271.445312 400.273438 274.960938 C 400.535156 276.90625 399.234375 278.714844 397.316406 279.109375 C 371.761719 284.339844 348.371094 275.808594 338.570312 270.980469 C 335.082031 269.261719 333.128906 265.46875 333.730469 261.625 C 335.3125 251.484375 338.566406 239.484375 340.378906 233.203125 C 341.011719 231.007812 339.535156 228.765625 337.265625 228.496094 C 332.328125 227.917969 327.15625 226.734375 321.921875 224.703125 C 288.648438 211.78125 278.558594 175.875 278.558594 175.875 " fill-opacity="1" fill-rule="nonzero"/><path fill="#000000" d="M 402.855469 287.308594 L 405.261719 295.914062 C 410.59375 294.167969 441.804688 283.039062 439.472656 262.371094 C 437.054688 243.640625 410.03125 223.625 401.808594 217.933594 C 401.066406 217.421875 400.0625 217.542969 399.472656 218.214844 C 396.628906 221.457031 388.605469 228.578125 375.628906 224.664062 C 365.8125 221.699219 364.417969 211.925781 364.269531 207.859375 C 364.246094 207.074219 363.722656 206.410156 362.972656 206.207031 C 355.730469 204.253906 331.304688 197.511719 321.042969 192.910156 C 311.875 188.800781 291.351562 174.796875 288.28125 172.6875 L 279.527344 176.328125 C 281.121094 181.28125 292.183594 212.304688 322.207031 223.964844 C 327.015625 225.832031 332.113281 227.09375 337.363281 227.714844 C 338.667969 227.867188 339.832031 228.582031 340.5625 229.683594 C 341.296875 230.785156 341.507812 232.148438 341.140625 233.421875 C 339.339844 239.664062 336.085938 251.648438 334.507812 261.746094 C 333.957031 265.273438 335.730469 268.699219 338.917969 270.269531 C 345.644531 273.582031 369.71875 283.953125 397.15625 278.332031 C 398.667969 278.027344 399.695312 276.589844 399.488281 275.070312 C 398.980469 271.320312 398.621094 265.046875 399.804688 256.46875 C 399.941406 255.484375 400.445312 254.667969 401.226562 254.183594 C 402.007812 253.699219 402.960938 253.601562 403.914062 253.914062 C 408.476562 255.414062 411.625 259.667969 413.53125 266.921875 L 413.550781 267.03125 C 414.863281 278.425781 405.234375 285.695312 402.855469 287.308594 Z M 404.175781 297.898438 L 401.011719 286.601562 L 401.523438 286.285156 C 401.640625 286.214844 413.292969 278.929688 411.988281 267.269531 C 409.640625 258.398438 405.972656 256.257812 403.417969 255.417969 C 402.921875 255.253906 402.4375 255.292969 402.0625 255.527344 C 401.6875 255.761719 401.445312 256.171875 401.375 256.683594 C 400.214844 265.085938 400.558594 271.207031 401.058594 274.859375 C 401.375 277.203125 399.800781 279.40625 397.472656 279.882812 C 369.539062 285.597656 345.058594 275.054688 338.21875 271.6875 C 334.410156 269.8125 332.289062 265.71875 332.945312 261.503906 C 334.535156 251.316406 337.808594 239.261719 339.621094 232.980469 C 339.859375 232.160156 339.71875 231.273438 339.246094 230.554688 C 338.773438 229.847656 338.019531 229.382812 337.175781 229.285156 C 331.792969 228.648438 326.566406 227.355469 321.632812 225.441406 C 304.242188 218.6875 293.25 205.628906 287.09375 195.863281 C 280.425781 185.300781 277.824219 176.179688 277.796875 176.085938 L 277.605469 175.414062 L 288.46875 170.894531 L 288.824219 171.140625 C 289.054688 171.300781 312.109375 187.171875 321.691406 191.464844 C 331.847656 196.023438 356.171875 202.730469 363.382812 204.679688 C 364.808594 205.066406 365.800781 206.316406 365.855469 207.800781 C 365.984375 211.527344 367.25 220.484375 376.085938 223.148438 C 388.179688 226.800781 395.640625 220.183594 398.28125 217.171875 C 399.40625 215.894531 401.308594 215.660156 402.707031 216.632812 C 411.066406 222.417969 438.542969 242.792969 441.039062 262.183594 C 442.160156 272.089844 436.234375 281.375 423.902344 289.046875 C 414.699219 294.769531 405.039062 297.648438 404.945312 297.675781 L 404.175781 297.898438 " fill-opacity="1" fill-rule="nonzero"/><path fill="#000000" d="M 368.453125 270.652344 C 368.351562 270.652344 368.25 270.632812 368.152344 270.597656 C 347.59375 262.167969 344.585938 238.964844 344.558594 238.730469 C 344.503906 238.300781 344.816406 237.902344 345.25 237.851562 C 345.679688 237.804688 346.074219 238.109375 346.128906 238.542969 C 346.15625 238.765625 349.070312 261.0625 368.75 269.128906 C 369.152344 269.296875 369.351562 269.757812 369.183594 270.164062 C 369.054688 270.46875 368.761719 270.652344 368.453125 270.652344 " fill-opacity="1" fill-rule="nonzero"/><path fill="#ffffff" d="M 51.867188 432.839844 L 35.136719 432.839844 L 41.164062 421.058594 L 54.464844 422.222656 L 51.867188 432.839844 " fill-opacity="1" fill-rule="nonzero"/><path fill="#000000" d="M 36.429688 432.050781 L 51.25 432.050781 L 53.476562 422.929688 L 41.625 421.890625 Z M 51.867188 433.632812 L 35.140625 433.632812 C 34.863281 433.632812 34.609375 433.492188 34.464844 433.253906 C 34.320312 433.019531 34.308594 432.726562 34.433594 432.480469 L 40.457031 420.699219 C 40.605469 420.410156 40.910156 420.238281 41.230469 420.269531 L 54.535156 421.4375 C 54.765625 421.457031 54.972656 421.574219 55.109375 421.761719 C 55.242188 421.949219 55.289062 422.1875 55.234375 422.410156 L 52.636719 433.03125 C 52.550781 433.382812 52.234375 433.632812 51.867188 433.632812 " fill-opacity="1" fill-rule="nonzero"/><path fill="#ffffff" d="M 39.617188 431.871094 L 47.105469 425.988281 C 48.003906 425.285156 48.273438 424.035156 47.730469 423.097656 C 46.203125 420.511719 42.0625 410.722656 36.949219 407.296875 C 35.554688 406.359375 33.652344 406.707031 32.632812 408.074219 L 9.707031 438.726562 C 8.652344 440.132812 9.121094 442.152344 10.691406 442.890625 C 12.574219 443.769531 15.585938 444.207031 20.027344 442.285156 C 27.214844 439.179688 35.449219 434.671875 38.03125 433.238281 C 38.484375 432.984375 38.886719 432.65625 39.222656 432.261719 C 39.34375 432.121094 39.472656 431.984375 39.617188 431.871094 " fill-opacity="1" fill-rule="nonzero"/><path fill="#000000" d="M 35.214844 407.5625 C 34.480469 407.5625 33.746094 407.902344 33.265625 408.546875 L 10.339844 439.199219 C 9.96875 439.691406 9.84375 440.316406 9.992188 440.910156 C 10.132812 441.46875 10.507812 441.929688 11.027344 442.171875 C 13.3125 443.242188 16.316406 443.03125 19.714844 441.558594 C 26.921875 438.445312 35.261719 433.875 37.644531 432.546875 C 38.015625 432.339844 38.34375 432.070312 38.621094 431.746094 C 38.734375 431.613281 38.90625 431.421875 39.128906 431.246094 L 46.617188 425.367188 C 47.203125 424.910156 47.386719 424.085938 47.046875 423.496094 C 46.730469 422.964844 46.324219 422.164062 45.808594 421.15625 C 43.796875 417.199219 40.429688 410.578125 36.511719 407.953125 C 36.113281 407.6875 35.664062 407.5625 35.214844 407.5625 Z M 14.261719 444.425781 C 12.597656 444.425781 11.304688 444.050781 10.355469 443.605469 C 9.40625 443.160156 8.714844 442.316406 8.457031 441.292969 C 8.191406 440.238281 8.417969 439.128906 9.074219 438.253906 L 32 407.597656 C 33.277344 405.890625 35.644531 405.46875 37.390625 406.636719 C 41.652344 409.496094 45.136719 416.34375 47.21875 420.433594 C 47.703125 421.382812 48.117188 422.199219 48.410156 422.695312 C 49.15625 423.980469 48.804688 425.664062 47.59375 426.613281 L 40.105469 432.496094 C 40.019531 432.558594 39.933594 432.644531 39.824219 432.777344 C 39.425781 433.242188 38.949219 433.632812 38.414062 433.929688 C 36.015625 435.265625 27.617188 439.867188 20.34375 443.011719 C 17.933594 444.054688 15.914062 444.425781 14.261719 444.425781 " fill-opacity="1" fill-rule="nonzero"/><path fill="#ffffff" d="M 9.3125 441.050781 C 9.304688 441.0625 9.289062 441.066406 9.277344 441.0625 C 9.054688 440.980469 8.839844 440.894531 8.644531 440.800781 C 7.074219 440.066406 6.605469 438.046875 7.660156 436.636719 L 30.585938 405.988281 C 31.609375 404.621094 33.507812 404.273438 34.90625 405.210938 C 35.164062 405.386719 35.421875 405.570312 35.675781 405.753906 C 35.6875 405.765625 35.6875 405.785156 35.679688 405.800781 L 9.3125 441.050781 " fill-opacity="1" fill-rule="nonzero"/><path fill="#000000" d="M 33.167969 405.472656 C 32.433594 405.472656 31.699219 405.816406 31.21875 406.460938 L 8.292969 437.113281 C 7.921875 437.605469 7.796875 438.230469 7.945312 438.820312 C 8.085938 439.382812 8.460938 439.84375 8.980469 440.085938 C 8.996094 440.09375 9.011719 440.101562 9.027344 440.109375 L 34.582031 405.949219 C 34.542969 405.917969 34.503906 405.890625 34.464844 405.867188 C 34.070312 405.601562 33.617188 405.472656 33.167969 405.472656 Z M 9.269531 441.851562 C 9.179688 441.851562 9.09375 441.835938 9.007812 441.804688 C 8.761719 441.71875 8.527344 441.621094 8.308594 441.519531 C 7.359375 441.074219 6.667969 440.230469 6.410156 439.207031 C 6.144531 438.148438 6.371094 437.042969 7.027344 436.164062 L 29.953125 405.511719 C 31.230469 403.800781 33.597656 403.382812 35.347656 404.554688 C 35.617188 404.734375 35.878906 404.925781 36.144531 405.117188 C 36.496094 405.375 36.574219 405.914062 36.316406 406.265625 L 9.949219 441.523438 C 9.792969 441.730469 9.53125 441.851562 9.269531 441.851562 " fill-opacity="1" fill-rule="nonzero"/><path fill="#000000" d="M 32.0625 432.15625 C 31.65625 432.15625 31.3125 431.84375 31.277344 431.433594 L 30.75 425.429688 C 30.710938 424.996094 31.035156 424.613281 31.46875 424.574219 C 31.902344 424.539062 32.289062 424.859375 32.328125 425.292969 L 32.851562 431.296875 C 32.890625 431.730469 32.566406 432.113281 32.132812 432.152344 C 32.109375 432.152344 32.085938 432.15625 32.0625 432.15625 " fill-opacity="1" fill-rule="nonzero"/><path fill="#000000" d="M 27.765625 434.460938 C 27.359375 434.460938 27.015625 434.152344 26.976562 433.738281 L 26.453125 427.738281 C 26.414062 427.300781 26.738281 426.917969 27.171875 426.878906 C 27.605469 426.84375 27.992188 427.164062 28.03125 427.597656 L 28.554688 433.597656 C 28.59375 434.035156 28.269531 434.417969 27.835938 434.457031 C 27.8125 434.460938 27.789062 434.460938 27.765625 434.460938 " fill-opacity="1" fill-rule="nonzero"/><path fill="#ffffff" d="M 156.992188 422.484375 L 144.328125 422.300781 C 143.429688 422.289062 142.613281 422.84375 142.261719 423.714844 C 141.09375 426.574219 138.710938 433.261719 138.929688 439.644531 C 138.988281 441.390625 140.34375 442.773438 142 442.800781 L 179.152344 443.332031 C 180.859375 443.355469 182.183594 441.730469 181.867188 439.964844 C 181.484375 437.84375 180.109375 435.046875 176.074219 432.488281 C 169.535156 428.351562 161.304688 424.191406 158.710938 422.902344 C 158.171875 422.632812 157.585938 422.492188 156.992188 422.484375 " fill-opacity="1" fill-rule="nonzero"/><path fill="#000000" d="M 144.300781 423.089844 C 143.730469 423.089844 143.222656 423.453125 142.992188 424.011719 C 141.9375 426.605469 139.503906 433.316406 139.71875 439.621094 C 139.765625 440.941406 140.769531 441.988281 142.011719 442.007812 L 179.164062 442.539062 C 179.722656 442.542969 180.246094 442.300781 180.617188 441.859375 C 181.027344 441.378906 181.199219 440.738281 181.085938 440.101562 C 180.621094 437.515625 178.742188 435.117188 175.648438 433.160156 C 169.105469 429.015625 160.757812 424.804688 158.355469 423.609375 C 157.921875 423.394531 157.457031 423.28125 156.980469 423.273438 L 144.316406 423.089844 C 144.3125 423.089844 144.304688 423.089844 144.300781 423.089844 Z M 179.1875 444.125 C 179.171875 444.125 179.15625 444.125 179.140625 444.125 L 141.988281 443.589844 C 139.902344 443.558594 138.210938 441.839844 138.136719 439.675781 C 137.914062 433.0625 140.433594 426.101562 141.527344 423.417969 C 142.003906 422.242188 143.117188 421.515625 144.339844 421.511719 L 157 421.695312 L 157.003906 421.695312 C 157.71875 421.703125 158.414062 421.871094 159.058594 422.195312 C 161.480469 423.394531 169.890625 427.640625 176.496094 431.820312 C 180.890625 434.601562 182.261719 437.707031 182.644531 439.824219 C 182.839844 440.921875 182.542969 442.042969 181.828125 442.882812 C 181.15625 443.675781 180.199219 444.125 179.1875 444.125 " fill-opacity="1" fill-rule="nonzero"/><path fill="#ffffff" d="M 181.675781 439.25 C 181.691406 439.25 181.707031 439.257812 181.707031 439.273438 C 181.773438 439.511719 181.824219 439.738281 181.867188 439.964844 C 182.183594 441.730469 180.859375 443.355469 179.152344 443.332031 L 142 442.800781 C 140.34375 442.773438 138.988281 441.390625 138.929688 439.644531 C 138.917969 439.320312 138.917969 438.996094 138.917969 438.667969 C 138.917969 438.648438 138.933594 438.636719 138.949219 438.636719 L 181.675781 439.25 " fill-opacity="1" fill-rule="nonzero"/><path fill="#000000" d="M 139.714844 439.4375 C 139.714844 439.5 139.71875 439.558594 139.71875 439.621094 C 139.765625 440.941406 140.769531 441.988281 142.011719 442.007812 L 179.164062 442.539062 C 179.722656 442.542969 180.246094 442.300781 180.617188 441.859375 C 181.027344 441.378906 181.199219 440.738281 181.085938 440.101562 C 181.082031 440.078125 181.074219 440.054688 181.074219 440.03125 Z M 179.1875 444.125 C 179.171875 444.125 179.15625 444.125 179.140625 444.125 L 141.988281 443.589844 C 139.902344 443.558594 138.210938 441.839844 138.136719 439.675781 C 138.125 439.339844 138.125 439 138.128906 438.664062 C 138.128906 438.449219 138.226562 438.21875 138.382812 438.074219 C 138.535156 437.925781 138.757812 437.824219 138.972656 437.847656 L 181.6875 438.457031 C 182.042969 438.464844 182.378906 438.726562 182.472656 439.070312 C 182.542969 439.328125 182.597656 439.578125 182.644531 439.824219 C 182.839844 440.921875 182.542969 442.042969 181.828125 442.882812 C 181.15625 443.675781 180.199219 444.125 179.1875 444.125 " fill-opacity="1" fill-rule="nonzero"/><path fill="#000000" d="M 156.6875 430.960938 C 156.476562 430.960938 156.265625 430.875 156.113281 430.710938 C 155.8125 430.390625 155.828125 429.890625 156.148438 429.589844 L 159.863281 426.105469 C 160.179688 425.804688 160.679688 425.824219 160.980469 426.140625 C 161.28125 426.460938 161.261719 426.960938 160.945312 427.257812 L 157.230469 430.746094 C 157.078125 430.890625 156.882812 430.960938 156.6875 430.960938 " fill-opacity="1" fill-rule="nonzero"/><path fill="#000000" d="M 160.949219 433.160156 C 160.742188 433.160156 160.535156 433.078125 160.382812 432.921875 C 160.078125 432.609375 160.085938 432.105469 160.398438 431.800781 L 164.121094 428.179688 C 164.433594 427.878906 164.933594 427.882812 165.238281 428.195312 C 165.546875 428.507812 165.539062 429.007812 165.226562 429.316406 L 161.5 432.933594 C 161.347656 433.085938 161.148438 433.160156 160.949219 433.160156 " fill-opacity="1" fill-rule="nonzero"/><path fill="#f96f5f" d="M 95.773438 359.351562 C 95.773438 359.34375 95.773438 359.347656 95.777344 359.34375 C 96.128906 359.074219 122.886719 339.695312 131.539062 342.125 C 146.328125 346.285156 143.449219 390.257812 143.144531 401.886719 C 142.84375 413.207031 94.449219 378.222656 92.792969 375.242188 C 91.15625 372.292969 95.675781 359.628906 95.773438 359.351562 " fill-opacity="1" fill-rule="nonzero"/><path fill="#f96f5f" d="M 142.652344 398.957031 C 142.703125 399 142.75 399.042969 142.796875 399.085938 C 152.070312 407.367188 156.042969 413.988281 155.382812 424.585938 C 154.734375 434.945312 139.84375 445.9375 92.136719 440.542969 C 89.835938 440.394531 87.535156 440.246094 85.230469 440.09375 L 46.429688 439.488281 L 46.429688 411.667969 C 46.429688 411.667969 65.175781 410.070312 89.75 411.238281 C 90.738281 411.285156 90.914062 409.851562 89.945312 409.667969 C 77.777344 407.363281 62.117188 403.78125 57.230469 399.679688 C 46.964844 391.070312 48.054688 377.984375 50.277344 368.664062 C 56.765625 341.457031 97.269531 369.859375 97.546875 369.929688 C 97.550781 369.929688 97.546875 369.925781 97.550781 369.929688 C 97.632812 369.976562 103.03125 373.109375 110.160156 377.417969 L 142.652344 398.957031 " fill-opacity="1" fill-rule="nonzero"/><path fill="#e7f0ff" d="M 120.449219 417.101562 C 120.308594 417.101562 120.167969 417.066406 120.042969 416.988281 C 119.953125 416.9375 111.054688 411.730469 89.828125 411.234375 C 89.390625 411.226562 89.042969 410.863281 89.054688 410.425781 C 89.066406 409.996094 89.417969 409.652344 89.847656 409.652344 C 89.851562 409.652344 89.859375 409.652344 89.863281 409.652344 C 111.578125 410.160156 120.492188 415.410156 120.859375 415.632812 C 121.234375 415.859375 121.351562 416.34375 121.125 416.71875 C 120.976562 416.964844 120.714844 417.101562 120.449219 417.101562 " fill-opacity="1" fill-rule="nonzero"/><path fill="#e7f0ff" d="M 140 397.59375 C 139.832031 397.59375 139.664062 397.542969 139.519531 397.433594 C 132.738281 392.246094 122.5 384.738281 111.953125 379.425781 C 111.5625 379.226562 111.402344 378.753906 111.601562 378.363281 C 111.796875 377.96875 112.273438 377.816406 112.664062 378.011719 C 123.328125 383.382812 133.648438 390.949219 140.480469 396.175781 C 140.828125 396.441406 140.894531 396.9375 140.628906 397.285156 C 140.472656 397.488281 140.238281 397.59375 140 397.59375 " fill-opacity="1" fill-rule="nonzero"/><path fill="#ffffff" d="M 91.285156 266.78125 C 96.003906 262.195312 116.890625 246.648438 154.765625 252.675781 C 155.34375 252.769531 155.933594 252.679688 156.453125 252.40625 C 159.054688 251.039062 167.617188 246.90625 172.617188 248.867188 C 178.40625 251.136719 190.824219 258.300781 172.304688 258.566406 C 171.867188 258.574219 171.710938 259.152344 172.089844 259.375 C 173.5625 260.242188 175.574219 261.601562 175.222656 262.363281 C 174.398438 264.148438 164.773438 262.707031 159.101562 261.742188 C 153.433594 260.777344 151.238281 259.824219 136.960938 264.382812 C 128.164062 267.195312 116.339844 277.363281 111.59375 281.398438 C 111.59375 281.398438 90.769531 267.277344 91.285156 266.78125 " fill-opacity="1" fill-rule="nonzero"/><path fill="#000000" d="M 92.378906 266.835938 C 94.65625 268.785156 104.800781 275.828125 111.539062 280.40625 C 116.5625 276.136719 128.046875 266.398438 136.71875 263.628906 C 150.136719 259.34375 153.113281 259.871094 158.042969 260.75 C 158.425781 260.820312 158.820312 260.890625 159.234375 260.960938 C 171.273438 263.011719 173.855469 262.40625 174.402344 262.097656 C 174.21875 261.839844 173.613281 261.191406 171.6875 260.058594 C 171.210938 259.773438 170.984375 259.222656 171.128906 258.6875 C 171.269531 258.148438 171.738281 257.78125 172.292969 257.773438 C 180.542969 257.65625 181.230469 256.164062 181.285156 255.867188 C 181.53125 254.523438 177.261719 251.539062 172.328125 249.601562 C 167.628906 247.761719 159.269531 251.820312 156.820312 253.105469 C 156.152344 253.460938 155.398438 253.582031 154.640625 253.460938 C 116.449219 247.378906 96.359375 263.25 92.378906 266.835938 Z M 111.648438 282.394531 L 111.152344 282.054688 C 90.59375 268.113281 90.527344 267.339844 90.484375 266.875 L 90.453125 266.503906 L 90.730469 266.210938 C 92.953125 264.050781 113.628906 245.328125 154.890625 251.894531 C 155.308594 251.960938 155.722656 251.894531 156.082031 251.707031 C 159.414062 249.953125 167.726562 246.097656 172.910156 248.128906 C 173.34375 248.300781 183.535156 252.34375 182.84375 256.148438 C 182.484375 258.113281 179.515625 259.132812 173.519531 259.328125 C 175.648438 260.722656 176.378906 261.753906 175.941406 262.695312 C 175.335938 264.003906 172.863281 264.886719 158.972656 262.519531 C 158.550781 262.449219 158.152344 262.378906 157.765625 262.3125 C 152.917969 261.445312 150.246094 260.96875 137.199219 265.136719 C 128.757812 267.832031 117.328125 277.5625 112.445312 281.714844 L 111.648438 282.394531 " fill-opacity="1" fill-rule="nonzero"/><path fill="#ffffff" d="M 146.355469 273.3125 C 146.355469 273.3125 163.328125 282.402344 171.085938 281.625 C 182.003906 280.527344 194.078125 247.253906 194.917969 244.964844 C 195.761719 242.675781 198.117188 230.007812 201.488281 226.308594 C 204.042969 223.507812 206.441406 217.871094 207.453125 215.308594 C 207.855469 214.28125 208.984375 213.671875 210.03125 214.015625 C 210.953125 214.316406 211.644531 215.1875 210.714844 217.476562 C 209.648438 220.121094 208.363281 223.367188 207.46875 225.636719 C 207.1875 226.351562 207.96875 227 208.578125 226.558594 C 209.992188 225.539062 211.777344 224.597656 212.941406 225.253906 C 215.132812 226.484375 216.3125 234.757812 212.773438 240.566406 C 209.234375 246.375 205.351562 245.007812 204.171875 247.824219 C 202.992188 250.640625 193.207031 287.214844 189.1875 293.539062 C 183.410156 302.636719 146.054688 303.667969 139.988281 303.492188 C 133.925781 303.316406 146.355469 273.3125 146.355469 273.3125 " fill-opacity="1" fill-rule="nonzero"/><path fill="#000000" d="M 146.753906 274.417969 C 142.828125 284.054688 137.617188 299.515625 139.484375 302.402344 C 139.621094 302.609375 139.769531 302.695312 140.011719 302.703125 C 149.195312 302.964844 183.304688 301.324219 188.523438 293.117188 C 191.320312 288.710938 197.121094 268.824219 200.585938 256.941406 C 202.089844 251.78125 203.082031 248.375 203.441406 247.519531 C 204.0625 246.039062 205.28125 245.488281 206.574219 244.910156 C 208.183594 244.1875 210.1875 243.289062 212.097656 240.152344 C 214.40625 236.363281 214.597656 231.355469 213.800781 228.308594 C 213.425781 226.871094 212.910156 226.144531 212.554688 225.941406 C 211.921875 225.585938 210.640625 226.042969 209.039062 227.199219 C 208.488281 227.597656 207.757812 227.585938 207.222656 227.171875 C 206.667969 226.742188 206.472656 226.007812 206.730469 225.347656 C 207.628906 223.074219 208.917969 219.8125 209.984375 217.179688 C 210.484375 215.941406 210.386719 215.378906 210.277344 215.152344 C 210.226562 215.035156 210.117188 214.878906 209.789062 214.765625 C 209.164062 214.566406 208.449219 214.9375 208.1875 215.597656 C 207.011719 218.585938 204.648438 224.015625 202.074219 226.84375 C 199.675781 229.46875 197.746094 237.195312 196.589844 241.808594 C 196.179688 243.445312 195.886719 244.625 195.660156 245.238281 L 195.621094 245.347656 C 192.523438 253.777344 181.613281 281.359375 171.164062 282.410156 C 164.128906 283.125 150.222656 276.210938 146.753906 274.417969 Z M 141.59375 304.304688 C 140.933594 304.304688 140.390625 304.296875 139.964844 304.285156 C 139.199219 304.261719 138.574219 303.910156 138.15625 303.265625 C 135.15625 298.625 144.542969 275.617188 145.621094 273.011719 L 145.957031 272.203125 L 146.726562 272.617188 C 146.894531 272.707031 163.574219 281.574219 171.007812 280.835938 C 178.59375 280.074219 188.207031 260.949219 194.132812 244.804688 L 194.175781 244.691406 C 194.371094 244.160156 194.671875 242.953125 195.054688 241.425781 C 196.246094 236.664062 198.238281 228.695312 200.902344 225.777344 C 203.398438 223.039062 205.800781 217.339844 206.71875 215.019531 C 207.289062 213.566406 208.851562 212.800781 210.277344 213.265625 C 210.949219 213.480469 211.445312 213.90625 211.714844 214.484375 C 212.097656 215.3125 212.011719 216.386719 211.449219 217.773438 C 210.40625 220.359375 209.136719 223.5625 208.246094 225.824219 C 210.398438 224.300781 212.109375 223.875 213.332031 224.5625 C 214.425781 225.179688 215.023438 226.722656 215.332031 227.910156 C 216.242188 231.382812 216.011719 236.773438 213.449219 240.976562 C 211.285156 244.53125 208.9375 245.585938 207.222656 246.355469 C 205.945312 246.925781 205.265625 247.265625 204.902344 248.128906 C 204.578125 248.902344 203.484375 252.644531 202.105469 257.382812 C 198.390625 270.121094 192.773438 289.371094 189.855469 293.964844 C 184.25 302.789062 151.214844 304.304688 141.59375 304.304688 " fill-opacity="1" fill-rule="nonzero"/><path fill="#ffffff" d="M 91.089844 263.191406 L 94.25 238.8125 L 108.148438 245.652344 L 109.015625 262.59375 C 108.992188 265.960938 106.214844 267.933594 106.214844 267.933594 C 102.78125 270.652344 97.839844 270.347656 94.179688 267.964844 L 93.332031 267.410156 C 91.910156 266.488281 91.066406 264.894531 91.089844 263.191406 " fill-opacity="1" fill-rule="nonzero"/><path fill="#000000" d="M 91.882812 263.246094 C 91.875 264.667969 92.574219 265.976562 93.761719 266.746094 L 94.609375 267.300781 C 98.207031 269.644531 102.777344 269.648438 105.722656 267.3125 C 105.78125 267.273438 108.207031 265.492188 108.222656 262.589844 L 107.382812 246.15625 L 94.890625 240.011719 Z M 100.4375 270.671875 C 98.183594 270.671875 95.84375 269.992188 93.746094 268.625 L 92.898438 268.074219 C 91.242188 266.996094 90.269531 265.164062 90.300781 263.175781 C 90.300781 263.148438 90.300781 263.117188 90.304688 263.089844 L 93.464844 238.710938 C 93.496094 238.460938 93.648438 238.238281 93.875 238.117188 C 94.101562 237.996094 94.367188 237.988281 94.597656 238.105469 L 108.496094 244.941406 C 108.753906 245.066406 108.925781 245.324219 108.9375 245.613281 L 109.804688 262.554688 C 109.785156 266.328125 106.800781 268.488281 106.675781 268.578125 C 104.914062 269.972656 102.71875 270.671875 100.4375 270.671875 " fill-opacity="1" fill-rule="nonzero"/><path fill="#000000" d="M 110.769531 214.542969 C 106.675781 214.773438 112.261719 218.378906 96.714844 215.703125 C 90.527344 214.636719 94.34375 221.296875 92.738281 221.023438 C 86.804688 220.019531 87.007812 220.046875 84.285156 221.105469 C 82.480469 221.808594 81.65625 225.371094 82.292969 227.898438 C 83.136719 231.222656 86.019531 231.777344 89.289062 238.640625 C 91.585938 243.460938 91.503906 246.558594 93.59375 247.058594 C 95.707031 247.566406 96.902344 244.667969 99.253906 245.046875 C 102.292969 245.535156 102.285156 250.71875 105.394531 252.511719 C 107.355469 253.640625 111.636719 253.777344 118.019531 249.714844 C 119.050781 249.058594 119.476562 247.75 119.019531 246.609375 C 118.433594 245.140625 117.6875 243.296875 116.824219 241.59375 C 112.71875 233.480469 109.492188 231.90625 110.335938 229.585938 C 111.632812 226.03125 118.203125 227.230469 118.945312 224.347656 C 119.71875 221.351562 116.378906 214.222656 110.769531 214.542969 " fill-opacity="1" fill-rule="nonzero"/><path fill="#ffffff" d="M 98.207031 230.765625 L 99.613281 232.804688 C 100.277344 233.769531 100.875 234.777344 101.398438 235.820312 C 102.386719 237.78125 104.105469 241.144531 105.210938 242.949219 C 106.835938 245.605469 115.386719 241.152344 115.386719 241.152344 L 115.730469 239.363281 L 116.722656 238.820312 C 116.914062 238.714844 117.082031 238.570312 117.199219 238.378906 C 117.484375 237.914062 117.421875 237.339844 117.089844 236.957031 C 115.28125 234.835938 111.460938 230.050781 109.777344 225.554688 C 109.777344 225.554688 102.953125 224.601562 98.207031 230.765625 " fill-opacity="1" fill-rule="nonzero"/><path fill="#000000" d="M 99.191406 230.800781 L 100.265625 232.359375 C 100.949219 233.347656 101.566406 234.394531 102.105469 235.464844 C 103.042969 237.332031 104.78125 240.734375 105.886719 242.535156 C 106.664062 243.8125 111.378906 242.285156 114.679688 240.625 L 114.953125 239.210938 C 114.996094 238.980469 115.140625 238.78125 115.347656 238.667969 L 116.339844 238.121094 C 116.425781 238.078125 116.488281 238.023438 116.523438 237.96875 C 116.621094 237.804688 116.609375 237.609375 116.488281 237.46875 C 114.503906 235.144531 110.980469 230.671875 109.21875 226.300781 C 107.734375 226.222656 102.917969 226.34375 99.191406 230.800781 Z M 107.273438 244.570312 C 106.078125 244.570312 105.074219 244.242188 104.535156 243.363281 C 103.402344 241.507812 101.640625 238.066406 100.691406 236.175781 C 100.183594 235.167969 99.605469 234.1875 98.964844 233.257812 L 97.554688 231.210938 C 97.359375 230.925781 97.367188 230.550781 97.578125 230.28125 C 102.550781 223.828125 109.59375 224.730469 109.886719 224.773438 C 110.175781 224.8125 110.417969 225.007812 110.519531 225.277344 C 112.183594 229.726562 116.089844 234.566406 117.691406 236.441406 C 118.253906 237.101562 118.328125 238.042969 117.875 238.792969 C 117.695312 239.082031 117.429688 239.332031 117.101562 239.511719 L 116.4375 239.875 L 116.164062 241.304688 C 116.117188 241.539062 115.964844 241.746094 115.75 241.859375 C 114.648438 242.433594 110.328125 244.570312 107.273438 244.570312 " fill-opacity="1" fill-rule="nonzero"/><path fill="#ffffff" d="M 100.703125 238.175781 C 100.703125 238.175781 97.320312 233.257812 95.421875 235.28125 C 93.527344 237.304688 97.382812 242.625 100.703125 238.175781 " fill-opacity="1" fill-rule="nonzero"/><path fill="#000000" d="M 61.722656 304.972656 C 62.214844 311.253906 61.785156 330.953125 58.59375 337.058594 C 55.425781 343.109375 51.972656 348.691406 50.871094 364.1875 C 50.796875 365.21875 103.125 388.734375 109.648438 375.921875 C 109.800781 375.621094 109.839844 375.28125 109.742188 374.960938 C 109.171875 373.066406 107.246094 364.777344 111.039062 348.757812 C 113.597656 337.964844 118.421875 328.585938 126.632812 316.863281 C 126.65625 316.832031 126.675781 316.796875 126.695312 316.765625 C 127.082031 316.082031 131.726562 308.308594 143.910156 305.734375 C 144.1875 305.675781 144.4375 305.53125 144.621094 305.3125 C 146.320312 303.296875 155.082031 292.261719 157.695312 276.460938 C 157.789062 275.90625 157.5 275.359375 156.996094 275.113281 C 153.699219 273.507812 141.421875 267.746094 132.445312 266.4375 C 121.984375 264.914062 126.132812 267.265625 118.660156 264.757812 C 117.625 264.410156 114.515625 262.039062 113.808594 261.523438 C 109.429688 258.328125 99.753906 263.113281 90.542969 259.445312 C 89.460938 259.011719 88.277344 258.980469 87.164062 259.308594 C 84.425781 260.109375 78.976562 261.269531 73.640625 261.277344 C 55.753906 261.296875 61.222656 298.539062 61.722656 304.972656 " fill-opacity="1" fill-rule="nonzero"/><path fill="#ffffff" d="M 67.152344 332.496094 C 67.011719 332.496094 66.871094 332.457031 66.742188 332.378906 C 66.367188 332.152344 66.25 331.667969 66.476562 331.292969 C 69.847656 325.753906 73.875 318.007812 75.097656 307.210938 C 77.148438 289.089844 87.015625 275.597656 87.117188 275.460938 C 87.375 275.109375 87.871094 275.035156 88.222656 275.296875 C 88.574219 275.558594 88.648438 276.050781 88.386719 276.40625 C 88.289062 276.535156 78.671875 289.703125 76.667969 307.390625 C 75.410156 318.492188 71.285156 326.433594 67.828125 332.113281 C 67.679688 332.359375 67.417969 332.496094 67.152344 332.496094 " fill-opacity="1" fill-rule="nonzero"/></svg>