<svg xmlns="http://www.w3.org/2000/svg" xmlns:xlink="http://www.w3.org/1999/xlink" width="628" zoomAndPan="magnify" viewBox="0 0 470.87997 470.999988" height="628" preserveAspectRatio="xMidYMid meet" version="1.0"><defs><clipPath id="51d9e23268"><path d="M 0 0.0585938 L 470.761719 0.0585938 L 470.761719 470.9375 L 0 470.9375 Z M 0 0.0585938 " clip-rule="nonzero"/></clipPath></defs><g clip-path="url(#51d9e23268)"><path fill="#ffffff" d="M 0 0.0585938 L 470.878906 0.0585938 L 470.878906 470.941406 L 0 470.941406 Z M 0 0.0585938 " fill-opacity="1" fill-rule="nonzero"/><path fill="#ffffff" d="M 0 0.0585938 L 470.878906 0.0585938 L 470.878906 470.941406 L 0 470.941406 Z M 0 0.0585938 " fill-opacity="1" fill-rule="nonzero"/></g><path fill="#545454" d="M 195.992188 41.03125 C 195.992188 41.988281 196.085938 42.933594 196.273438 43.871094 C 196.460938 44.808594 196.734375 45.71875 197.101562 46.601562 C 197.46875 47.484375 197.914062 48.324219 198.445312 49.121094 C 198.976562 49.914062 199.582031 50.648438 200.257812 51.324219 C 200.933594 52 201.667969 52.605469 202.460938 53.136719 C 203.257812 53.667969 204.097656 54.113281 204.980469 54.480469 C 205.863281 54.847656 206.773438 55.121094 207.710938 55.308594 C 208.648438 55.496094 209.59375 55.589844 210.550781 55.589844 L 284.347656 55.589844 C 285.304688 55.589844 286.25 55.496094 287.1875 55.308594 C 288.125 55.121094 289.035156 54.847656 289.917969 54.480469 C 290.800781 54.113281 291.640625 53.667969 292.433594 53.136719 C 293.230469 52.605469 293.964844 52 294.640625 51.324219 C 295.316406 50.648438 295.917969 49.914062 296.449219 49.121094 C 296.980469 48.324219 297.429688 47.484375 297.796875 46.601562 C 298.160156 45.71875 298.4375 44.808594 298.625 43.871094 C 298.808594 42.933594 298.902344 41.988281 298.902344 41.03125 C 298.902344 40.078125 298.808594 39.128906 298.625 38.191406 C 298.4375 37.253906 298.160156 36.34375 297.796875 35.460938 C 297.429688 34.578125 296.980469 33.742188 296.449219 32.945312 C 295.917969 32.152344 295.316406 31.414062 294.640625 30.738281 C 293.964844 30.0625 293.230469 29.460938 292.433594 28.929688 C 291.640625 28.398438 290.800781 27.949219 289.917969 27.585938 C 289.035156 27.21875 288.125 26.941406 287.1875 26.757812 C 286.25 26.570312 285.304688 26.476562 284.347656 26.476562 L 210.550781 26.476562 C 209.59375 26.476562 208.648438 26.570312 207.710938 26.757812 C 206.773438 26.941406 205.863281 27.21875 204.980469 27.585938 C 204.097656 27.949219 203.257812 28.398438 202.460938 28.929688 C 201.667969 29.460938 200.933594 30.0625 200.257812 30.738281 C 199.582031 31.414062 198.976562 32.152344 198.445312 32.945312 C 197.914062 33.742188 197.46875 34.578125 197.101562 35.460938 C 196.734375 36.34375 196.460938 37.253906 196.273438 38.191406 C 196.085938 39.128906 195.992188 40.078125 195.992188 41.03125 Z M 195.992188 41.03125 " fill-opacity="1" fill-rule="nonzero"/><path fill="#545454" d="M 247.449219 269.484375 C 248.808594 269.492188 250.164062 269.398438 251.511719 269.210938 C 252.859375 269.019531 254.1875 268.734375 255.492188 268.355469 C 256.800781 267.972656 258.074219 267.503906 259.3125 266.9375 C 260.550781 266.375 261.742188 265.726562 262.886719 264.992188 C 264.035156 264.257812 265.121094 263.441406 266.148438 262.550781 C 267.175781 261.660156 268.136719 260.699219 269.027344 259.671875 C 269.917969 258.640625 270.730469 257.554688 271.464844 256.40625 C 272.199219 255.261719 272.847656 254.070312 273.40625 252.828125 C 273.96875 251.589844 274.441406 250.316406 274.820312 249.007812 C 275.199219 247.703125 275.484375 246.375 275.671875 245.027344 C 275.859375 243.679688 275.949219 242.324219 275.945312 240.964844 C 275.9375 239.601562 275.832031 238.25 275.632812 236.902344 C 275.429688 235.558594 275.132812 234.234375 274.742188 232.929688 C 274.351562 231.625 273.867188 230.355469 273.292969 229.125 C 272.71875 227.890625 272.058594 226.703125 271.3125 225.5625 C 270.570312 224.425781 269.746094 223.34375 268.84375 222.324219 L 312.949219 161.554688 C 313.511719 160.78125 313.992188 159.957031 314.390625 159.089844 C 314.792969 158.222656 315.101562 157.320312 315.324219 156.390625 C 315.546875 155.460938 315.675781 154.519531 315.714844 153.5625 C 315.75 152.605469 315.695312 151.65625 315.542969 150.710938 C 315.394531 149.769531 315.152344 148.847656 314.820312 147.949219 C 314.488281 147.054688 314.070312 146.199219 313.570312 145.382812 C 313.070312 144.566406 312.496094 143.808594 311.847656 143.109375 C 311.195312 142.40625 310.484375 141.773438 309.710938 141.210938 C 308.9375 140.652344 308.117188 140.171875 307.246094 139.769531 C 306.378906 139.371094 305.476562 139.058594 304.546875 138.835938 C 303.617188 138.613281 302.675781 138.484375 301.71875 138.449219 C 300.765625 138.410156 299.8125 138.46875 298.871094 138.617188 C 297.925781 138.769531 297.003906 139.011719 296.105469 139.34375 C 295.210938 139.675781 294.355469 140.089844 293.539062 140.589844 C 292.722656 141.089844 291.964844 141.664062 291.265625 142.316406 C 290.5625 142.964844 289.929688 143.675781 289.371094 144.453125 L 238.933594 213.882812 C 238.128906 214.136719 237.339844 214.421875 236.5625 214.746094 C 235.785156 215.066406 235.027344 215.421875 234.28125 215.8125 C 233.535156 216.203125 232.808594 216.625 232.101562 217.078125 C 231.390625 217.535156 230.707031 218.019531 230.039062 218.535156 C 229.375 219.050781 228.734375 219.59375 228.117188 220.164062 C 227.5 220.738281 226.910156 221.335938 226.347656 221.960938 C 225.78125 222.582031 225.246094 223.230469 224.742188 223.902344 C 224.234375 224.574219 223.757812 225.269531 223.316406 225.984375 C 222.871094 226.695312 222.457031 227.429688 222.078125 228.179688 C 221.699219 228.929688 221.351562 229.695312 221.039062 230.476562 C 220.726562 231.257812 220.453125 232.054688 220.210938 232.859375 C 219.96875 233.664062 219.761719 234.480469 219.59375 235.304688 C 219.425781 236.128906 219.292969 236.957031 219.195312 237.792969 C 219.101562 238.628906 219.042969 239.46875 219.019531 240.308594 C 219 241.148438 219.015625 241.992188 219.070312 242.828125 C 219.121094 243.667969 219.210938 244.503906 219.339844 245.335938 C 219.46875 246.167969 219.628906 246.992188 219.832031 247.808594 C 220.03125 248.625 220.269531 249.433594 220.539062 250.230469 C 220.8125 251.027344 221.117188 251.808594 221.460938 252.578125 C 221.800781 253.347656 222.175781 254.097656 222.585938 254.832031 C 222.992188 255.570312 223.433594 256.285156 223.902344 256.980469 C 224.375 257.679688 224.878906 258.351562 225.410156 259.003906 C 225.941406 259.65625 226.5 260.285156 227.085938 260.886719 C 227.671875 261.492188 228.285156 262.066406 228.925781 262.613281 C 229.5625 263.160156 230.222656 263.679688 230.90625 264.171875 C 231.59375 264.660156 232.296875 265.117188 233.019531 265.546875 C 233.746094 265.972656 234.488281 266.367188 235.25 266.726562 C 236.007812 267.089844 236.78125 267.417969 237.570312 267.707031 C 238.359375 268 239.160156 268.257812 239.972656 268.480469 C 240.78125 268.703125 241.601562 268.886719 242.429688 269.035156 C 243.257812 269.183594 244.089844 269.296875 244.929688 269.371094 C 245.769531 269.445312 246.605469 269.484375 247.449219 269.484375 Z M 247.449219 269.484375 " fill-opacity="1" fill-rule="nonzero"/><path fill="#545454" d="M 110.84375 323.558594 C 117.484375 334.425781 125.269531 344.398438 134.203125 353.472656 L 94.101562 353.472656 C 93.148438 353.472656 92.199219 353.566406 91.261719 353.753906 C 90.324219 353.9375 89.414062 354.214844 88.53125 354.582031 C 87.648438 354.945312 86.8125 355.394531 86.015625 355.925781 C 85.222656 356.457031 84.488281 357.058594 83.8125 357.734375 C 83.136719 358.410156 82.53125 359.148438 82 359.941406 C 81.46875 360.734375 81.019531 361.574219 80.65625 362.457031 C 80.289062 363.339844 80.011719 364.25 79.828125 365.1875 C 79.640625 366.125 79.546875 367.074219 79.546875 368.027344 C 79.546875 368.984375 79.640625 369.929688 79.828125 370.867188 C 80.011719 371.804688 80.289062 372.714844 80.65625 373.597656 C 81.019531 374.480469 81.46875 375.320312 82 376.113281 C 82.53125 376.910156 83.136719 377.644531 83.8125 378.320312 C 84.488281 378.996094 85.222656 379.601562 86.015625 380.132812 C 86.8125 380.660156 87.648438 381.109375 88.53125 381.476562 C 89.414062 381.839844 90.324219 382.117188 91.261719 382.304688 C 92.199219 382.492188 93.148438 382.585938 94.101562 382.585938 L 174.160156 382.585938 C 178.699219 384.945312 183.339844 387.078125 188.085938 388.992188 C 192.832031 390.902344 197.65625 392.582031 202.566406 394.027344 C 207.472656 395.472656 212.4375 396.679688 217.460938 397.648438 C 222.484375 398.613281 227.542969 399.335938 232.636719 399.816406 C 237.730469 400.296875 242.832031 400.527344 247.949219 400.515625 C 253.066406 400.5 258.167969 400.242188 263.257812 399.738281 C 268.347656 399.230469 273.402344 398.480469 278.421875 397.488281 C 283.441406 396.496094 288.398438 395.261719 293.300781 393.792969 C 294.324219 395.371094 295.394531 396.921875 296.507812 398.441406 C 297.625 399.957031 298.78125 401.441406 299.984375 402.890625 C 301.1875 404.339844 302.433594 405.75 303.71875 407.125 C 305.007812 408.503906 306.332031 409.839844 307.699219 411.136719 C 309.0625 412.433594 310.464844 413.6875 311.90625 414.902344 C 313.347656 416.117188 314.820312 417.289062 316.328125 418.414062 C 317.839844 419.542969 319.378906 420.621094 320.953125 421.660156 C 322.527344 422.695312 324.128906 423.683594 325.757812 424.625 C 327.390625 425.566406 329.046875 426.457031 330.734375 427.300781 C 332.417969 428.144531 334.125 428.9375 335.855469 429.679688 C 337.585938 430.421875 339.335938 431.109375 341.109375 431.75 C 342.882812 432.386719 344.671875 432.972656 346.476562 433.507812 C 348.285156 434.039062 350.105469 434.519531 351.9375 434.941406 C 353.773438 435.367188 355.621094 435.738281 357.476562 436.054688 C 359.332031 436.371094 361.199219 436.632812 363.070312 436.835938 C 364.941406 437.042969 366.816406 437.191406 368.699219 437.289062 C 370.582031 437.382812 372.460938 437.421875 374.347656 437.40625 C 376.230469 437.390625 378.109375 437.316406 379.988281 437.1875 C 381.867188 437.0625 383.742188 436.878906 385.609375 436.640625 C 387.480469 436.402344 389.339844 436.109375 391.1875 435.757812 C 393.039062 435.410156 394.878906 435.007812 396.707031 434.550781 C 398.535156 434.09375 400.34375 433.582031 402.140625 433.019531 C 403.9375 432.453125 405.71875 431.835938 407.476562 431.167969 C 409.238281 430.5 410.976562 429.777344 412.695312 429.003906 C 414.414062 428.234375 416.105469 427.410156 417.777344 426.539062 C 419.445312 425.664062 421.085938 424.742188 422.703125 423.773438 C 424.316406 422.804688 425.902344 421.789062 427.457031 420.726562 C 429.007812 419.660156 430.53125 418.554688 432.019531 417.402344 C 433.507812 416.246094 434.964844 415.050781 436.382812 413.8125 C 437.800781 412.574219 439.179688 411.292969 440.523438 409.972656 C 441.867188 408.652344 443.167969 407.292969 444.429688 405.894531 C 445.691406 404.496094 446.914062 403.0625 448.089844 401.59375 C 449.265625 400.121094 450.402344 398.617188 451.488281 397.082031 C 452.578125 395.542969 453.621094 393.976562 454.617188 392.378906 C 455.613281 390.78125 456.558594 389.152344 457.460938 387.5 C 458.359375 385.84375 459.210938 384.164062 460.007812 382.460938 C 460.808594 380.753906 461.558594 379.027344 462.257812 377.277344 C 462.957031 375.527344 463.601562 373.761719 464.195312 371.972656 C 464.789062 370.1875 465.328125 368.382812 465.816406 366.5625 C 466.304688 364.742188 466.738281 362.910156 467.117188 361.066406 C 467.492188 359.222656 467.816406 357.367188 468.085938 355.503906 C 468.355469 353.640625 468.570312 351.769531 468.726562 349.890625 C 468.886719 348.015625 468.988281 346.136719 469.039062 344.253906 C 469.085938 342.371094 469.078125 340.488281 469.011719 338.605469 C 468.949219 336.722656 468.828125 334.84375 468.652344 332.96875 C 468.480469 331.09375 468.25 329.226562 467.964844 327.363281 C 467.675781 325.503906 467.335938 323.648438 466.941406 321.808594 C 466.546875 319.96875 466.097656 318.140625 465.59375 316.324219 C 465.09375 314.507812 464.535156 312.710938 463.925781 310.929688 C 463.316406 309.148438 462.65625 307.382812 461.941406 305.640625 C 461.226562 303.898438 460.464844 302.175781 459.648438 300.480469 C 458.832031 298.78125 457.96875 297.109375 457.054688 295.464844 C 456.140625 293.816406 455.175781 292.199219 454.167969 290.609375 C 453.15625 289.019531 452.101562 287.460938 451 285.933594 C 449.898438 284.40625 448.75 282.914062 447.558594 281.453125 C 446.371094 279.992188 445.136719 278.570312 443.863281 277.183594 C 442.589844 275.796875 441.273438 274.449219 439.917969 273.140625 C 438.566406 271.832031 437.171875 270.5625 435.746094 269.335938 C 434.316406 268.109375 432.851562 266.925781 431.351562 265.785156 C 429.851562 264.648438 428.320312 263.550781 426.757812 262.503906 C 425.195312 261.453125 423.601562 260.449219 421.976562 259.496094 C 420.355469 258.539062 418.703125 257.632812 417.027344 256.777344 C 415.351562 255.917969 413.648438 255.109375 411.925781 254.355469 C 410.199219 253.597656 408.453125 252.890625 406.6875 252.238281 C 406.6875 248.453125 407.125 244.960938 407.125 240.957031 C 407.136719 230.515625 406.125 220.175781 404.09375 209.9375 C 402.058594 199.699219 399.042969 189.757812 395.042969 180.113281 L 416.367188 170.722656 L 434.636719 192.121094 C 435.289062 192.710938 435.992188 193.238281 436.742188 193.699219 C 437.492188 194.164062 438.273438 194.554688 439.09375 194.875 C 439.914062 195.195312 440.757812 195.4375 441.625 195.605469 C 442.488281 195.773438 443.359375 195.859375 444.242188 195.867188 C 445.121094 195.875 445.996094 195.804688 446.863281 195.65625 C 447.730469 195.507812 448.578125 195.28125 449.40625 194.976562 C 450.230469 194.671875 451.023438 194.296875 451.78125 193.847656 C 452.539062 193.402344 453.253906 192.890625 453.917969 192.3125 C 454.582031 191.734375 455.191406 191.105469 455.742188 190.417969 C 456.292969 189.730469 456.777344 189 457.195312 188.222656 C 457.613281 187.449219 457.957031 186.640625 458.230469 185.804688 C 458.503906 184.96875 458.695312 184.113281 458.8125 183.238281 C 458.929688 182.367188 458.964844 181.488281 458.925781 180.609375 C 458.882812 179.730469 458.761719 178.863281 458.558594 178.003906 C 458.359375 177.148438 458.085938 176.316406 457.734375 175.507812 C 457.382812 174.699219 456.960938 173.929688 456.46875 173.199219 L 405.523438 113.882812 C 404.871094 113.292969 404.167969 112.769531 403.417969 112.304688 C 402.671875 111.84375 401.886719 111.453125 401.066406 111.132812 C 400.246094 110.8125 399.402344 110.570312 398.539062 110.402344 C 397.671875 110.234375 396.800781 110.144531 395.917969 110.136719 C 395.039062 110.128906 394.164062 110.199219 393.296875 110.347656 C 392.429688 110.5 391.582031 110.726562 390.753906 111.03125 C 389.929688 111.332031 389.136719 111.710938 388.378906 112.15625 C 387.621094 112.605469 386.90625 113.117188 386.242188 113.691406 C 385.578125 114.269531 384.96875 114.902344 384.417969 115.589844 C 383.867188 116.277344 383.382812 117.007812 382.964844 117.78125 C 382.546875 118.558594 382.203125 119.363281 381.929688 120.199219 C 381.65625 121.039062 381.464844 121.894531 381.347656 122.765625 C 381.230469 123.640625 381.195312 124.515625 381.234375 125.394531 C 381.277344 126.273438 381.398438 127.144531 381.601562 128 C 381.800781 128.859375 382.074219 129.691406 382.425781 130.5 C 382.777344 131.304688 383.199219 132.074219 383.691406 132.808594 L 396.355469 147.363281 L 381.144531 154.058594 C 378.902344 150.609375 376.53125 147.25 374.03125 143.984375 C 371.53125 140.71875 368.90625 137.554688 366.164062 134.492188 C 363.417969 131.429688 360.558594 128.476562 357.582031 125.632812 C 354.609375 122.792969 351.53125 120.070312 348.347656 117.464844 C 345.160156 114.863281 341.882812 112.386719 338.507812 110.035156 C 335.128906 107.683594 331.667969 105.46875 328.121094 103.386719 C 324.574219 101.304688 320.949219 99.363281 317.253906 97.5625 C 313.554688 95.757812 309.792969 94.101562 305.96875 92.589844 C 302.144531 91.078125 298.265625 89.71875 294.332031 88.507812 C 290.402344 87.296875 286.429688 86.238281 282.417969 85.335938 C 278.40625 84.433594 274.363281 83.683594 270.292969 83.09375 C 266.222656 82.503906 262.132812 82.070312 258.03125 81.792969 C 253.925781 81.519531 249.816406 81.402344 245.703125 81.445312 C 241.589844 81.488281 237.484375 81.691406 233.386719 82.050781 C 229.289062 82.410156 225.214844 82.929688 221.15625 83.605469 C 217.097656 84.28125 213.074219 85.113281 209.078125 86.097656 C 205.085938 87.085938 201.136719 88.226562 197.234375 89.519531 C 193.328125 90.8125 189.480469 92.253906 185.683594 93.84375 C 181.890625 95.433594 178.164062 97.167969 174.507812 99.046875 C 170.847656 100.925781 167.265625 102.941406 163.761719 105.097656 C 160.257812 107.253906 156.84375 109.539062 153.519531 111.960938 C 150.191406 114.378906 146.964844 116.925781 143.835938 119.59375 C 140.703125 122.261719 137.683594 125.050781 134.769531 127.953125 C 131.855469 130.855469 129.058594 133.867188 126.375 136.988281 C 123.695312 140.105469 121.136719 143.324219 118.707031 146.640625 C 116.273438 149.960938 113.972656 153.367188 111.804688 156.859375 C 109.636719 160.355469 107.605469 163.929688 105.714844 167.582031 C 103.820312 171.234375 102.074219 174.953125 100.46875 178.742188 C 98.863281 182.527344 97.410156 186.371094 96.101562 190.273438 C 94.792969 194.171875 93.640625 198.117188 92.636719 202.105469 C 91.636719 206.097656 90.789062 210.117188 90.097656 214.175781 C 89.40625 218.230469 88.875 222.304688 88.5 226.402344 L 14.554688 226.402344 C 13.601562 226.402344 12.652344 226.492188 11.714844 226.679688 C 10.777344 226.867188 9.867188 227.144531 8.984375 227.507812 C 8.101562 227.875 7.265625 228.324219 6.46875 228.851562 C 5.675781 229.382812 4.9375 229.988281 4.261719 230.664062 C 3.585938 231.339844 2.984375 232.074219 2.453125 232.871094 C 1.921875 233.664062 1.472656 234.503906 1.109375 235.386719 C 0.742188 236.269531 0.464844 237.179688 0.28125 238.117188 C 0.09375 239.054688 0 240 0 240.957031 C 0 241.910156 0.09375 242.859375 0.28125 243.796875 C 0.464844 244.734375 0.742188 245.644531 1.109375 246.527344 C 1.472656 247.410156 1.921875 248.25 2.453125 249.042969 C 2.984375 249.835938 3.585938 250.574219 4.261719 251.25 C 4.9375 251.925781 5.675781 252.527344 6.46875 253.058594 C 7.265625 253.589844 8.101562 254.039062 8.984375 254.402344 C 9.867188 254.769531 10.777344 255.046875 11.714844 255.230469 C 12.652344 255.417969 13.601562 255.511719 14.554688 255.511719 L 88.5 255.511719 C 89.679688 268.851562 92.519531 281.832031 97.015625 294.449219 L 44.175781 294.449219 C 43.222656 294.449219 42.273438 294.542969 41.335938 294.726562 C 40.398438 294.914062 39.488281 295.191406 38.605469 295.558594 C 37.722656 295.921875 36.882812 296.371094 36.089844 296.902344 C 35.296875 297.433594 34.558594 298.035156 33.882812 298.710938 C 33.207031 299.386719 32.605469 300.125 32.074219 300.917969 C 31.542969 301.710938 31.09375 302.550781 30.730469 303.433594 C 30.363281 304.316406 30.085938 305.226562 29.902344 306.164062 C 29.714844 307.101562 29.621094 308.046875 29.621094 309.003906 C 29.621094 309.960938 29.714844 310.90625 29.902344 311.84375 C 30.085938 312.78125 30.363281 313.691406 30.730469 314.574219 C 31.09375 315.457031 31.542969 316.296875 32.074219 317.089844 C 32.605469 317.886719 33.207031 318.621094 33.882812 319.296875 C 34.558594 319.972656 35.296875 320.578125 36.089844 321.105469 C 36.882812 321.636719 37.722656 322.085938 38.605469 322.453125 C 39.488281 322.816406 40.398438 323.09375 41.335938 323.28125 C 42.273438 323.46875 43.222656 323.558594 44.175781 323.558594 Z M 439.949219 341.828125 C 439.96875 343.71875 439.910156 345.605469 439.769531 347.488281 C 439.628906 349.375 439.410156 351.25 439.109375 353.113281 C 438.8125 354.980469 438.433594 356.828125 437.972656 358.664062 C 437.515625 360.496094 436.980469 362.308594 436.371094 364.09375 C 435.757812 365.882812 435.070312 367.640625 434.308594 369.371094 C 433.546875 371.097656 432.710938 372.792969 431.804688 374.449219 C 430.898438 376.109375 429.921875 377.726562 428.878906 379.300781 C 427.832031 380.875 426.722656 382.402344 425.546875 383.882812 C 424.375 385.363281 423.136719 386.789062 421.839844 388.164062 C 420.542969 389.539062 419.191406 390.855469 417.78125 392.113281 C 416.371094 393.375 414.914062 394.570312 413.402344 395.703125 C 411.890625 396.839844 410.332031 397.90625 408.730469 398.910156 C 407.128906 399.910156 405.488281 400.84375 403.804688 401.703125 C 402.125 402.566406 400.410156 403.355469 398.660156 404.070312 C 396.910156 404.785156 395.132812 405.425781 393.332031 405.988281 C 391.527344 406.550781 389.703125 407.039062 387.855469 407.445312 C 386.011719 407.855469 384.152344 408.183594 382.28125 408.433594 C 380.40625 408.683594 378.527344 408.851562 376.640625 408.941406 C 374.75 409.03125 372.863281 409.039062 370.976562 408.96875 C 369.085938 408.894531 367.203125 408.742188 365.328125 408.511719 C 363.453125 408.277344 361.59375 407.964844 359.742188 407.574219 C 357.894531 407.183594 356.066406 406.714844 354.257812 406.167969 C 352.449219 405.617188 350.667969 404.996094 348.910156 404.296875 C 347.15625 403.597656 345.433594 402.824219 343.742188 401.976562 C 342.054688 401.128906 340.402344 400.214844 338.792969 399.226562 C 337.179688 398.238281 335.613281 397.183594 334.09375 396.066406 C 332.570312 394.945312 331.101562 393.761719 329.679688 392.515625 C 328.261719 391.269531 326.894531 389.964844 325.585938 388.601562 C 324.277344 387.238281 323.027344 385.820312 321.839844 384.351562 C 320.652344 382.882812 319.527344 381.367188 318.46875 379.800781 C 317.410156 378.234375 316.421875 376.628906 315.5 374.976562 C 314.578125 373.328125 313.726562 371.644531 312.949219 369.921875 C 310.863281 365.535156 309.289062 360.96875 308.234375 356.226562 C 307.175781 351.484375 306.664062 346.6875 306.691406 341.828125 C 306.691406 340.738281 306.71875 339.652344 306.773438 338.566406 C 306.828125 337.476562 306.910156 336.394531 307.015625 335.308594 C 307.125 334.226562 307.257812 333.148438 307.421875 332.070312 C 307.582031 330.996094 307.765625 329.921875 307.980469 328.855469 C 308.195312 327.789062 308.433594 326.726562 308.699219 325.671875 C 308.964844 324.617188 309.253906 323.566406 309.570312 322.527344 C 309.886719 321.484375 310.230469 320.453125 310.597656 319.425781 C 310.964844 318.402344 311.355469 317.386719 311.773438 316.382812 C 312.191406 315.378906 312.632812 314.382812 313.097656 313.398438 C 313.5625 312.417969 314.054688 311.445312 314.566406 310.484375 C 315.078125 309.523438 315.617188 308.578125 316.175781 307.644531 C 316.734375 306.710938 317.320312 305.792969 317.921875 304.886719 C 318.527344 303.984375 319.15625 303.09375 319.804688 302.21875 C 320.453125 301.347656 321.121094 300.488281 321.8125 299.648438 C 322.503906 298.804688 323.214844 297.984375 323.945312 297.175781 C 324.675781 296.371094 325.425781 295.582031 326.195312 294.8125 C 326.964844 294.042969 327.753906 293.292969 328.558594 292.5625 C 329.363281 291.832031 330.1875 291.121094 331.03125 290.429688 C 331.871094 289.738281 332.730469 289.070312 333.601562 288.421875 C 334.476562 287.773438 335.367188 287.144531 336.269531 286.539062 C 337.175781 285.9375 338.09375 285.355469 339.027344 284.792969 C 339.960938 284.234375 340.90625 283.699219 341.867188 283.183594 C 342.828125 282.671875 343.796875 282.179688 344.78125 281.714844 C 345.765625 281.25 346.761719 280.808594 347.765625 280.390625 C 348.769531 279.972656 349.785156 279.582031 350.808594 279.214844 C 351.835938 278.847656 352.867188 278.503906 353.910156 278.1875 C 354.949219 277.871094 356 277.582031 357.054688 277.316406 C 358.109375 277.050781 359.171875 276.8125 360.238281 276.597656 C 361.304688 276.386719 362.378906 276.199219 363.453125 276.039062 C 364.53125 275.875 365.609375 275.742188 366.691406 275.636719 C 367.777344 275.527344 368.859375 275.445312 369.949219 275.390625 C 371.035156 275.335938 372.121094 275.308594 373.210938 275.308594 C 378.117188 275.289062 382.96875 275.796875 387.765625 276.835938 C 389.597656 277.246094 391.40625 277.734375 393.195312 278.296875 C 394.984375 278.859375 396.75 279.496094 398.484375 280.210938 C 400.21875 280.921875 401.921875 281.703125 403.59375 282.558594 C 405.261719 283.414062 406.894531 284.339844 408.484375 285.332031 C 410.078125 286.324219 411.625 287.382812 413.128906 288.503906 C 414.632812 289.628906 416.085938 290.8125 417.488281 292.058594 C 418.890625 293.304688 420.238281 294.605469 421.53125 295.964844 C 422.824219 297.324219 424.058594 298.734375 425.234375 300.199219 C 426.410156 301.660156 427.519531 303.167969 428.566406 304.726562 C 429.613281 306.28125 430.59375 307.878906 431.507812 309.519531 C 432.421875 311.160156 433.261719 312.832031 434.035156 314.542969 C 434.804688 316.253906 435.503906 317.992188 436.128906 319.761719 C 436.753906 321.53125 437.304688 323.324219 437.78125 325.136719 C 438.253906 326.953125 438.652344 328.785156 438.96875 330.632812 C 439.289062 332.480469 439.53125 334.339844 439.695312 336.210938 C 439.859375 338.078125 439.941406 339.953125 439.949219 341.828125 Z M 117.757812 255.511719 L 173.722656 255.511719 C 174.679688 255.511719 175.625 255.417969 176.5625 255.230469 C 177.5 255.046875 178.410156 254.769531 179.292969 254.402344 C 180.175781 254.039062 181.015625 253.589844 181.808594 253.058594 C 182.605469 252.527344 183.339844 251.925781 184.015625 251.25 C 184.691406 250.574219 185.296875 249.835938 185.824219 249.042969 C 186.355469 248.25 186.804688 247.410156 187.171875 246.527344 C 187.535156 245.644531 187.8125 244.734375 188 243.796875 C 188.1875 242.859375 188.277344 241.910156 188.277344 240.957031 C 188.277344 240 188.1875 239.054688 188 238.117188 C 187.8125 237.179688 187.535156 236.269531 187.171875 235.386719 C 186.804688 234.503906 186.355469 233.664062 185.824219 232.871094 C 185.296875 232.074219 184.691406 231.339844 184.015625 230.664062 C 183.339844 229.988281 182.605469 229.382812 181.808594 228.851562 C 181.015625 228.324219 180.175781 227.875 179.292969 227.507812 C 178.410156 227.144531 177.5 226.867188 176.5625 226.679688 C 175.625 226.492188 174.679688 226.402344 173.722656 226.402344 L 117.757812 226.402344 C 117.992188 224.359375 118.277344 222.324219 118.613281 220.296875 C 118.945312 218.265625 119.328125 216.25 119.753906 214.238281 C 120.183594 212.226562 120.660156 210.230469 121.183594 208.242188 C 121.707031 206.253906 122.277344 204.277344 122.890625 202.316406 C 123.507812 200.355469 124.171875 198.410156 124.878906 196.480469 C 125.585938 194.550781 126.339844 192.640625 127.136719 190.746094 C 127.9375 188.851562 128.78125 186.980469 129.667969 185.125 C 130.554688 183.269531 131.484375 181.4375 132.457031 179.628906 C 133.429688 177.816406 134.445312 176.03125 135.503906 174.269531 C 136.5625 172.507812 137.660156 170.769531 138.800781 169.058594 C 139.941406 167.347656 141.121094 165.667969 142.339844 164.011719 C 143.558594 162.359375 144.816406 160.734375 146.113281 159.136719 C 147.410156 157.542969 148.742188 155.976562 150.113281 154.445312 C 151.480469 152.914062 152.886719 151.414062 154.328125 149.949219 C 155.769531 148.484375 157.242188 147.050781 158.753906 145.65625 C 160.261719 144.257812 161.800781 142.898438 163.375 141.574219 C 164.945312 140.25 166.550781 138.964844 168.183594 137.71875 C 169.816406 136.46875 171.476562 135.261719 173.167969 134.09375 C 174.859375 132.921875 176.574219 131.792969 178.320312 130.707031 C 180.0625 129.617188 181.832031 128.570312 183.625 127.566406 C 185.417969 126.5625 187.234375 125.597656 189.070312 124.679688 C 190.910156 123.761719 192.769531 122.886719 194.648438 122.054688 C 196.527344 121.222656 198.425781 120.4375 200.34375 119.695312 C 202.261719 118.953125 204.195312 118.257812 206.144531 117.609375 C 208.09375 116.957031 210.058594 116.355469 212.039062 115.796875 C 214.015625 115.238281 216.007812 114.730469 218.007812 114.265625 C 220.011719 113.800781 222.023438 113.386719 224.046875 113.015625 C 226.066406 112.648438 228.097656 112.328125 230.132812 112.054688 C 232.171875 111.78125 234.214844 111.558594 236.261719 111.382812 C 238.308594 111.207031 240.359375 111.078125 242.414062 111 C 244.46875 110.921875 246.523438 110.890625 248.578125 110.90625 C 250.632812 110.925781 252.6875 110.992188 254.742188 111.105469 C 256.792969 111.222656 258.839844 111.382812 260.886719 111.59375 C 262.929688 111.808594 264.96875 112.066406 267 112.375 C 269.03125 112.683594 271.058594 113.039062 273.074219 113.441406 C 275.085938 113.84375 277.09375 114.296875 279.085938 114.792969 C 281.082031 115.292969 283.0625 115.835938 285.03125 116.429688 C 287 117.019531 288.953125 117.65625 290.890625 118.339844 C 292.828125 119.023438 294.75 119.753906 296.65625 120.527344 C 298.558594 121.304688 300.441406 122.121094 302.308594 122.984375 C 304.171875 123.851562 306.015625 124.757812 307.839844 125.707031 C 309.660156 126.660156 311.460938 127.652344 313.234375 128.6875 C 315.011719 129.722656 316.761719 130.800781 318.484375 131.917969 C 320.210938 133.035156 321.90625 134.195312 323.578125 135.394531 C 325.246094 136.59375 326.886719 137.828125 328.5 139.105469 C 330.113281 140.382812 331.691406 141.695312 333.242188 143.042969 C 334.789062 144.394531 336.308594 145.78125 337.792969 147.203125 C 339.273438 148.625 340.726562 150.082031 342.140625 151.574219 C 343.554688 153.0625 344.933594 154.585938 346.277344 156.144531 C 347.621094 157.699219 348.925781 159.285156 350.195312 160.902344 C 351.464844 162.519531 352.691406 164.167969 353.882812 165.84375 C 355.074219 167.519531 356.222656 169.21875 357.335938 170.949219 C 358.445312 172.679688 359.511719 174.433594 360.539062 176.214844 C 361.566406 177.996094 362.550781 179.800781 363.496094 181.625 C 364.4375 183.453125 365.335938 185.300781 366.1875 187.171875 C 367.042969 189.039062 367.855469 190.929688 368.621094 192.835938 C 369.386719 194.742188 370.105469 196.667969 370.78125 198.609375 C 371.457031 200.550781 372.082031 202.507812 372.664062 204.480469 C 373.25 206.449219 373.785156 208.433594 374.273438 210.429688 C 374.761719 212.425781 375.203125 214.433594 375.597656 216.453125 C 375.988281 218.46875 376.335938 220.496094 376.632812 222.527344 C 376.933594 224.5625 377.183594 226.601562 377.382812 228.648438 C 377.585938 230.691406 377.738281 232.742188 377.84375 234.792969 C 377.949219 236.847656 378.007812 238.902344 378.015625 240.957031 C 378.015625 242.703125 378.015625 244.523438 378.015625 246.269531 L 373.648438 246.269531 C 372.082031 246.269531 370.515625 246.304688 368.953125 246.378906 C 367.390625 246.457031 365.828125 246.570312 364.269531 246.722656 C 362.710938 246.875 361.160156 247.066406 359.609375 247.292969 C 358.0625 247.523438 356.519531 247.789062 354.984375 248.09375 C 353.449219 248.394531 351.921875 248.738281 350.402344 249.117188 C 348.882812 249.496094 347.375 249.910156 345.875 250.363281 C 344.378906 250.816406 342.890625 251.308594 341.417969 251.832031 C 339.941406 252.359375 338.480469 252.921875 337.035156 253.519531 C 335.585938 254.117188 334.15625 254.75 332.738281 255.417969 C 331.324219 256.085938 329.925781 256.789062 328.542969 257.523438 C 327.164062 258.261719 325.800781 259.03125 324.457031 259.835938 C 323.113281 260.636719 321.789062 261.472656 320.488281 262.34375 C 319.183594 263.210938 317.902344 264.109375 316.644531 265.042969 C 315.386719 265.972656 314.152344 266.933594 312.941406 267.925781 C 311.730469 268.917969 310.542969 269.9375 309.382812 270.988281 C 308.222656 272.039062 307.085938 273.117188 305.976562 274.222656 C 304.871094 275.328125 303.789062 276.460938 302.738281 277.621094 C 301.683594 278.777344 300.660156 279.960938 299.667969 281.171875 C 298.671875 282.378906 297.707031 283.613281 296.773438 284.871094 C 295.839844 286.125 294.9375 287.402344 294.066406 288.703125 C 293.195312 290.003906 292.355469 291.328125 291.546875 292.667969 C 290.742188 294.011719 289.96875 295.371094 289.230469 296.75 C 288.488281 298.128906 287.785156 299.527344 287.113281 300.941406 C 286.441406 302.355469 285.804688 303.785156 285.203125 305.230469 C 284.601562 306.675781 284.039062 308.136719 283.507812 309.609375 C 282.980469 311.082031 282.484375 312.566406 282.03125 314.066406 C 281.574219 315.5625 281.152344 317.070312 280.769531 318.589844 C 280.386719 320.105469 280.042969 321.632812 279.734375 323.167969 C 279.429688 324.703125 279.160156 326.246094 278.925781 327.792969 C 278.695312 329.339844 278.5 330.894531 278.34375 332.453125 C 278.1875 334.011719 278.070312 335.570312 277.992188 337.132812 C 277.914062 338.699219 277.871094 340.261719 277.871094 341.828125 C 277.871094 345.03125 277.871094 348.234375 278.378906 351.363281 C 278.414062 351.96875 278.414062 352.574219 278.378906 353.179688 C 278.378906 356.164062 279.253906 359.148438 279.90625 362.058594 C 280.019531 362.675781 280.164062 363.28125 280.34375 363.878906 C 280.34375 364.972656 280.78125 366.0625 281.074219 367.082031 C 275.738281 368.535156 270.332031 369.636719 264.855469 370.386719 C 259.378906 371.136719 253.878906 371.53125 248.351562 371.566406 C 242.824219 371.605469 237.316406 371.285156 231.828125 370.605469 C 226.34375 369.929688 220.925781 368.898438 215.570312 367.519531 C 215.539062 366.585938 215.417969 365.664062 215.207031 364.75 C 214.996094 363.839844 214.699219 362.957031 214.320312 362.105469 C 213.941406 361.25 213.480469 360.441406 212.945312 359.675781 C 212.410156 358.910156 211.804688 358.203125 211.132812 357.554688 C 210.460938 356.90625 209.730469 356.324219 208.945312 355.816406 C 208.164062 355.308594 207.335938 354.878906 206.46875 354.53125 C 205.605469 354.179688 204.710938 353.917969 203.792969 353.738281 C 202.875 353.558594 201.949219 353.472656 201.015625 353.472656 L 181.511719 353.472656 C 174.832031 349.554688 168.546875 345.082031 162.65625 340.058594 C 156.761719 335.035156 151.355469 329.535156 146.429688 323.558594 L 173.722656 323.558594 C 174.679688 323.558594 175.625 323.46875 176.5625 323.28125 C 177.5 323.09375 178.410156 322.816406 179.292969 322.453125 C 180.175781 322.085938 181.015625 321.636719 181.808594 321.105469 C 182.605469 320.578125 183.339844 319.972656 184.015625 319.296875 C 184.691406 318.621094 185.296875 317.886719 185.824219 317.089844 C 186.355469 316.296875 186.804688 315.457031 187.171875 314.574219 C 187.535156 313.691406 187.8125 312.78125 188 311.84375 C 188.1875 310.90625 188.277344 309.960938 188.277344 309.003906 C 188.277344 308.046875 188.1875 307.101562 188 306.164062 C 187.8125 305.226562 187.535156 304.316406 187.171875 303.433594 C 186.804688 302.550781 186.355469 301.710938 185.824219 300.917969 C 185.296875 300.125 184.691406 299.386719 184.015625 298.710938 C 183.339844 298.035156 182.605469 297.433594 181.808594 296.902344 C 181.015625 296.371094 180.175781 295.921875 179.292969 295.558594 C 178.410156 295.191406 177.5 294.914062 176.5625 294.726562 C 175.625 294.542969 174.679688 294.449219 173.722656 294.449219 L 128.453125 294.449219 C 122.84375 282.03125 119.277344 269.050781 117.757812 255.511719 Z M 117.757812 255.511719 " fill-opacity="1" fill-rule="nonzero"/><path fill="#545454" d="M 378.449219 351.289062 L 368.40625 341.320312 C 367.71875 340.726562 366.976562 340.207031 366.191406 339.753906 C 365.402344 339.300781 364.578125 338.925781 363.722656 338.625 C 362.863281 338.328125 361.984375 338.113281 361.085938 337.976562 C 360.1875 337.84375 359.285156 337.792969 358.378906 337.828125 C 357.46875 337.863281 356.574219 337.984375 355.6875 338.1875 C 354.800781 338.390625 353.941406 338.671875 353.109375 339.035156 C 352.277344 339.398438 351.488281 339.839844 350.734375 340.351562 C 349.984375 340.863281 349.289062 341.4375 348.648438 342.082031 C 348.003906 342.722656 347.425781 343.421875 346.914062 344.171875 C 346.402344 344.921875 345.964844 345.714844 345.601562 346.546875 C 345.238281 347.378906 344.953125 348.238281 344.75 349.121094 C 344.546875 350.007812 344.429688 350.90625 344.394531 351.8125 C 344.359375 352.71875 344.410156 353.625 344.542969 354.523438 C 344.675781 355.421875 344.894531 356.296875 345.191406 357.15625 C 345.488281 358.015625 345.867188 358.835938 346.316406 359.625 C 346.769531 360.414062 347.292969 361.152344 347.882812 361.84375 L 362.003906 376.398438 C 363.171875 377.558594 364.441406 378.589844 365.816406 379.5 C 367.1875 380.410156 368.636719 381.175781 370.160156 381.800781 C 371.683594 382.425781 373.25 382.894531 374.867188 383.210938 C 376.484375 383.527344 378.113281 383.679688 379.761719 383.675781 C 381.304688 383.675781 382.832031 383.527344 384.347656 383.238281 C 386.351562 382.863281 388.28125 382.25 390.136719 381.402344 C 391.992188 380.554688 393.71875 379.5 395.316406 378.230469 C 396.914062 376.960938 398.335938 375.519531 399.582031 373.90625 C 400.828125 372.289062 401.863281 370.550781 402.6875 368.683594 L 426.410156 315.191406 C 426.800781 314.316406 427.097656 313.414062 427.304688 312.480469 C 427.515625 311.546875 427.632812 310.601562 427.652344 309.644531 C 427.675781 308.6875 427.605469 307.738281 427.441406 306.796875 C 427.277344 305.855469 427.023438 304.9375 426.679688 304.046875 C 426.335938 303.15625 425.90625 302.304688 425.394531 301.496094 C 424.882812 300.6875 424.296875 299.9375 423.636719 299.246094 C 422.976562 298.554688 422.253906 297.933594 421.472656 297.382812 C 420.691406 296.832031 419.863281 296.363281 418.988281 295.976562 C 418.113281 295.589844 417.210938 295.292969 416.277344 295.082031 C 415.34375 294.875 414.398438 294.757812 413.441406 294.734375 C 412.488281 294.710938 411.539062 294.78125 410.59375 294.945312 C 409.652344 295.109375 408.734375 295.363281 407.84375 295.710938 C 406.953125 296.054688 406.101562 296.484375 405.292969 296.996094 C 404.488281 297.507812 403.738281 298.09375 403.042969 298.753906 C 402.351562 299.414062 401.730469 300.132812 401.179688 300.914062 C 400.628906 301.699219 400.160156 302.527344 399.773438 303.402344 Z M 378.449219 351.289062 " fill-opacity="1" fill-rule="nonzero"/></svg>