<svg xmlns="http://www.w3.org/2000/svg" xmlns:xlink="http://www.w3.org/1999/xlink" width="628" zoomAndPan="magnify" viewBox="0 0 470.87997 470.999988" height="628" preserveAspectRatio="xMidYMid meet" version="1.0"><defs><clipPath id="13290d88ed"><path d="M 0 0.0585938 L 470.761719 0.0585938 L 470.761719 470.9375 L 0 470.9375 Z M 0 0.0585938 " clip-rule="nonzero"/></clipPath><clipPath id="dcdca49213"><path d="M 1 0.0585938 L 466.382812 0.0585938 L 466.382812 470.9375 L 1 470.9375 Z M 1 0.0585938 " clip-rule="nonzero"/></clipPath></defs><g clip-path="url(#13290d88ed)"><path fill="#ffffff" d="M 0 0.0585938 L 470.878906 0.0585938 L 470.878906 470.941406 L 0 470.941406 Z M 0 0.0585938 " fill-opacity="1" fill-rule="nonzero"/><path fill="#ffffff" d="M 0 0.0585938 L 470.878906 0.0585938 L 470.878906 470.941406 L 0 470.941406 Z M 0 0.0585938 " fill-opacity="1" fill-rule="nonzero"/></g><g clip-path="url(#dcdca49213)"><path fill="#545454" d="M 230.5 429.421875 C 230.5 430.050781 230.4375 430.671875 230.3125 431.289062 C 230.191406 431.90625 230.007812 432.503906 229.765625 433.085938 C 229.527344 433.667969 229.230469 434.21875 228.882812 434.742188 C 228.53125 435.261719 228.132812 435.746094 227.691406 436.191406 C 227.246094 436.636719 226.761719 437.03125 226.238281 437.378906 C 225.714844 437.730469 225.164062 438.023438 224.582031 438.265625 C 224 438.503906 223.402344 438.6875 222.785156 438.808594 C 222.167969 438.929688 221.546875 438.992188 220.917969 438.992188 C 220.289062 438.992188 219.667969 438.929688 219.050781 438.808594 C 218.433594 438.683594 217.835938 438.5 217.253906 438.261719 C 216.671875 438.019531 216.121094 437.726562 215.597656 437.375 C 215.074219 437.027344 214.59375 436.628906 214.148438 436.183594 C 213.703125 435.738281 213.308594 435.253906 212.957031 434.734375 C 212.609375 434.210938 212.3125 433.65625 212.074219 433.078125 C 211.832031 432.496094 211.652344 431.898438 211.53125 431.28125 C 211.40625 430.664062 211.347656 430.042969 211.347656 429.414062 C 211.347656 428.785156 211.40625 428.160156 211.53125 427.542969 C 211.652344 426.929688 211.835938 426.328125 212.074219 425.75 C 212.316406 425.167969 212.613281 424.617188 212.960938 424.09375 C 213.308594 423.570312 213.707031 423.085938 214.152344 422.644531 C 214.597656 422.199219 215.082031 421.800781 215.601562 421.453125 C 216.125 421.101562 216.675781 420.808594 217.257812 420.566406 C 217.839844 420.328125 218.4375 420.144531 219.054688 420.023438 C 219.671875 419.898438 220.292969 419.839844 220.921875 419.839844 C 221.550781 419.839844 222.175781 419.902344 222.789062 420.023438 C 223.40625 420.148438 224.007812 420.332031 224.585938 420.570312 C 225.167969 420.8125 225.71875 421.109375 226.242188 421.457031 C 226.765625 421.808594 227.246094 422.207031 227.691406 422.648438 C 228.136719 423.09375 228.535156 423.578125 228.882812 424.101562 C 229.230469 424.625 229.527344 425.175781 229.769531 425.757812 C 230.007812 426.339844 230.191406 426.9375 230.3125 427.554688 C 230.4375 428.171875 230.5 428.792969 230.5 429.421875 Z M 189.859375 419.839844 C 189.230469 419.839844 188.605469 419.898438 187.988281 420.023438 C 187.371094 420.144531 186.769531 420.324219 186.191406 420.566406 C 185.609375 420.804688 185.054688 421.101562 184.53125 421.449219 C 184.007812 421.800781 183.523438 422.195312 183.078125 422.640625 C 182.632812 423.085938 182.234375 423.570312 181.886719 424.09375 C 181.535156 424.617188 181.242188 425.167969 181 425.75 C 180.757812 426.332031 180.578125 426.929688 180.453125 427.546875 C 180.328125 428.164062 180.269531 428.789062 180.269531 429.417969 C 180.269531 430.046875 180.328125 430.667969 180.453125 431.285156 C 180.574219 431.90625 180.753906 432.503906 180.996094 433.085938 C 181.238281 433.667969 181.53125 434.21875 181.882812 434.742188 C 182.230469 435.265625 182.628906 435.75 183.074219 436.195312 C 183.515625 436.640625 184 437.039062 184.523438 437.386719 C 185.046875 437.738281 185.601562 438.035156 186.179688 438.273438 C 186.761719 438.515625 187.363281 438.699219 187.980469 438.820312 C 188.597656 438.941406 189.21875 439.003906 189.847656 439.003906 C 190.476562 439.003906 191.101562 438.945312 191.71875 438.820312 C 192.335938 438.699219 192.933594 438.515625 193.515625 438.277344 C 194.097656 438.035156 194.652344 437.742188 195.171875 437.390625 C 195.695312 437.042969 196.179688 436.644531 196.625 436.199219 C 197.070312 435.753906 197.46875 435.269531 197.820312 434.746094 C 198.167969 434.222656 198.464844 433.671875 198.703125 433.089844 C 198.945312 432.507812 199.128906 431.910156 199.25 431.292969 C 199.371094 430.675781 199.433594 430.050781 199.433594 429.421875 C 199.433594 428.792969 199.371094 428.171875 199.25 427.554688 C 199.125 426.9375 198.945312 426.339844 198.703125 425.757812 C 198.460938 425.175781 198.167969 424.625 197.816406 424.101562 C 197.46875 423.578125 197.070312 423.09375 196.628906 422.652344 C 196.183594 422.207031 195.699219 421.808594 195.175781 421.457031 C 194.65625 421.109375 194.101562 420.8125 193.523438 420.574219 C 192.941406 420.332031 192.34375 420.148438 191.726562 420.027344 C 191.109375 419.902344 190.488281 419.839844 189.859375 419.839844 Z M 466.375 25.242188 L 466.375 150.851562 C 466.375 164.738281 455.566406 176.03125 442.277344 176.03125 L 345.195312 176.03125 L 311.5625 212.171875 C 310.984375 212.792969 310.328125 213.3125 309.597656 213.734375 C 308.863281 214.15625 308.082031 214.460938 307.257812 214.644531 C 306.433594 214.832031 305.597656 214.890625 304.753906 214.828125 C 303.910156 214.761719 303.09375 214.570312 302.308594 214.261719 C 301.519531 213.949219 300.796875 213.527344 300.136719 212.996094 C 299.480469 212.464844 298.910156 211.851562 298.4375 211.148438 C 297.964844 210.449219 297.605469 209.691406 297.359375 208.882812 C 297.113281 208.074219 296.992188 207.246094 296.996094 206.398438 L 297.15625 176.382812 L 264.386719 176.03125 C 251.1875 176.03125 240.378906 164.738281 240.378906 150.851562 L 240.378906 25.242188 C 240.378906 11.355469 251.1875 0.0585938 264.476562 0.0585938 L 442.277344 0.0585938 C 455.566406 0.0585938 466.375 11.355469 466.375 25.242188 Z M 362.414062 123.007812 C 362.414062 122.457031 362.363281 121.910156 362.253906 121.367188 C 362.144531 120.828125 361.988281 120.300781 361.777344 119.792969 C 361.5625 119.28125 361.304688 118.796875 361 118.335938 C 360.691406 117.878906 360.34375 117.453125 359.953125 117.0625 C 359.5625 116.671875 359.136719 116.324219 358.679688 116.019531 C 358.21875 115.710938 357.734375 115.453125 357.226562 115.242188 C 356.714844 115.03125 356.1875 114.871094 355.648438 114.761719 C 355.105469 114.65625 354.558594 114.601562 354.007812 114.601562 L 296.300781 114.601562 C 295.746094 114.601562 295.199219 114.65625 294.660156 114.761719 C 294.117188 114.871094 293.589844 115.03125 293.082031 115.242188 C 292.570312 115.453125 292.085938 115.710938 291.628906 116.019531 C 291.167969 116.324219 290.742188 116.671875 290.355469 117.0625 C 289.964844 117.453125 289.613281 117.878906 289.308594 118.335938 C 289 118.796875 288.742188 119.28125 288.53125 119.792969 C 288.320312 120.300781 288.160156 120.828125 288.050781 121.367188 C 287.945312 121.910156 287.890625 122.457031 287.890625 123.007812 C 287.890625 123.5625 287.945312 124.109375 288.050781 124.648438 C 288.160156 125.191406 288.320312 125.71875 288.53125 126.226562 C 288.742188 126.738281 289 127.222656 289.308594 127.679688 C 289.613281 128.140625 289.964844 128.566406 290.355469 128.953125 C 290.742188 129.34375 291.167969 129.695312 291.628906 130 C 292.085938 130.308594 292.570312 130.566406 293.082031 130.777344 C 293.589844 130.988281 294.117188 131.148438 294.660156 131.257812 C 295.199219 131.363281 295.746094 131.417969 296.300781 131.417969 L 354.007812 131.417969 C 354.558594 131.417969 355.105469 131.363281 355.648438 131.257812 C 356.1875 131.148438 356.714844 130.988281 357.226562 130.777344 C 357.734375 130.566406 358.21875 130.308594 358.679688 130 C 359.136719 129.695312 359.5625 129.34375 359.953125 128.953125 C 360.34375 128.566406 360.691406 128.140625 361 127.679688 C 361.304688 127.222656 361.5625 126.738281 361.777344 126.226562 C 361.988281 125.71875 362.144531 125.191406 362.253906 124.648438 C 362.363281 124.109375 362.414062 123.5625 362.414062 123.007812 Z M 420.125 86.167969 C 420.125 85.617188 420.070312 85.070312 419.960938 84.53125 C 419.855469 83.988281 419.695312 83.460938 419.484375 82.953125 C 419.273438 82.441406 419.011719 81.957031 418.707031 81.5 C 418.398438 81.039062 418.050781 80.613281 417.660156 80.222656 C 417.269531 79.832031 416.84375 79.484375 416.386719 79.179688 C 415.925781 78.871094 415.441406 78.613281 414.933594 78.402344 C 414.421875 78.191406 413.898438 78.03125 413.355469 77.921875 C 412.8125 77.816406 412.265625 77.761719 411.714844 77.761719 L 296.300781 77.761719 C 295.746094 77.761719 295.199219 77.816406 294.660156 77.921875 C 294.117188 78.03125 293.589844 78.191406 293.082031 78.402344 C 292.570312 78.613281 292.085938 78.871094 291.628906 79.179688 C 291.167969 79.484375 290.742188 79.832031 290.355469 80.222656 C 289.964844 80.613281 289.613281 81.039062 289.308594 81.5 C 289 81.957031 288.742188 82.441406 288.53125 82.953125 C 288.320312 83.460938 288.160156 83.988281 288.050781 84.53125 C 287.945312 85.070312 287.890625 85.617188 287.890625 86.167969 C 287.890625 86.722656 287.945312 87.269531 288.050781 87.808594 C 288.160156 88.351562 288.320312 88.878906 288.53125 89.386719 C 288.742188 89.898438 289 90.382812 289.308594 90.839844 C 289.613281 91.300781 289.964844 91.726562 290.355469 92.117188 C 290.742188 92.507812 291.167969 92.855469 291.628906 93.160156 C 292.085938 93.46875 292.570312 93.726562 293.082031 93.9375 C 293.589844 94.148438 294.117188 94.308594 294.660156 94.417969 C 295.199219 94.523438 295.746094 94.578125 296.300781 94.578125 L 411.714844 94.578125 C 412.265625 94.578125 412.8125 94.523438 413.355469 94.417969 C 413.898438 94.308594 414.421875 94.148438 414.933594 93.9375 C 415.441406 93.726562 415.925781 93.46875 416.386719 93.160156 C 416.84375 92.855469 417.269531 92.507812 417.660156 92.117188 C 418.050781 91.726562 418.398438 91.300781 418.707031 90.839844 C 419.011719 90.382812 419.273438 89.898438 419.484375 89.386719 C 419.695312 88.878906 419.855469 88.351562 419.960938 87.808594 C 420.070312 87.269531 420.125 86.722656 420.125 86.167969 Z M 420.125 50.375 C 420.125 49.824219 420.070312 49.277344 419.960938 48.734375 C 419.855469 48.195312 419.695312 47.667969 419.484375 47.15625 C 419.273438 46.648438 419.011719 46.164062 418.707031 45.703125 C 418.398438 45.246094 418.050781 44.820312 417.660156 44.429688 C 417.269531 44.039062 416.84375 43.691406 416.386719 43.382812 C 415.925781 43.078125 415.441406 42.820312 414.933594 42.605469 C 414.421875 42.394531 413.898438 42.238281 413.355469 42.128906 C 412.8125 42.019531 412.265625 41.96875 411.714844 41.96875 L 296.300781 41.96875 C 295.746094 41.96875 295.199219 42.019531 294.660156 42.128906 C 294.117188 42.238281 293.589844 42.394531 293.082031 42.609375 C 292.570312 42.820312 292.085938 43.078125 291.628906 43.382812 C 291.167969 43.691406 290.742188 44.039062 290.355469 44.429688 C 289.964844 44.820312 289.613281 45.246094 289.308594 45.703125 C 289 46.164062 288.742188 46.648438 288.53125 47.15625 C 288.320312 47.667969 288.160156 48.195312 288.050781 48.734375 C 287.945312 49.277344 287.890625 49.824219 287.890625 50.375 C 287.890625 50.929688 287.945312 51.476562 288.050781 52.015625 C 288.160156 52.558594 288.320312 53.082031 288.53125 53.59375 C 288.742188 54.105469 289 54.589844 289.308594 55.046875 C 289.613281 55.507812 289.964844 55.929688 290.355469 56.320312 C 290.742188 56.710938 291.167969 57.0625 291.628906 57.367188 C 292.085938 57.675781 292.570312 57.933594 293.082031 58.144531 C 293.589844 58.355469 294.117188 58.515625 294.660156 58.621094 C 295.199219 58.730469 295.746094 58.785156 296.300781 58.785156 L 411.714844 58.785156 C 412.265625 58.785156 412.8125 58.730469 413.355469 58.621094 C 413.898438 58.515625 414.421875 58.355469 414.933594 58.144531 C 415.441406 57.933594 415.925781 57.675781 416.386719 57.367188 C 416.84375 57.0625 417.269531 56.710938 417.660156 56.320312 C 418.050781 55.929688 418.398438 55.507812 418.707031 55.046875 C 419.011719 54.589844 419.273438 54.105469 419.484375 53.59375 C 419.695312 53.082031 419.855469 52.558594 419.960938 52.015625 C 420.070312 51.476562 420.125 50.929688 420.125 50.375 Z M 157.136719 162.152344 C 155.328125 162.15625 153.519531 162.246094 151.71875 162.425781 C 149.914062 162.605469 148.125 162.871094 146.351562 163.226562 C 144.574219 163.582031 142.820312 164.023438 141.085938 164.550781 C 139.355469 165.074219 137.652344 165.6875 135.976562 166.378906 C 134.304688 167.074219 132.667969 167.847656 131.074219 168.703125 C 129.476562 169.558594 127.925781 170.488281 126.417969 171.496094 C 124.914062 172.5 123.460938 173.578125 122.058594 174.730469 C 120.660156 175.878906 119.320312 177.09375 118.039062 178.375 C 116.757812 179.65625 115.542969 180.996094 114.394531 182.394531 C 113.246094 183.796875 112.167969 185.246094 111.160156 186.753906 C 110.152344 188.257812 109.222656 189.8125 108.367188 191.40625 C 107.511719 193.003906 106.738281 194.640625 106.046875 196.3125 C 105.351562 197.984375 104.742188 199.6875 104.214844 201.421875 C 103.6875 203.15625 103.246094 204.910156 102.890625 206.683594 C 102.535156 208.460938 102.269531 210.25 102.089844 212.054688 C 101.910156 213.855469 101.820312 215.660156 101.816406 217.472656 L 101.816406 239.421875 C 101.820312 241.230469 101.910156 243.039062 102.089844 244.839844 C 102.269531 246.644531 102.535156 248.433594 102.890625 250.207031 C 103.246094 251.984375 103.6875 253.738281 104.214844 255.472656 C 104.742188 257.203125 105.351562 258.90625 106.046875 260.582031 C 106.738281 262.253906 107.511719 263.886719 108.367188 265.484375 C 109.222656 267.082031 110.152344 268.632812 111.160156 270.140625 C 112.167969 271.644531 113.246094 273.097656 114.394531 274.5 C 115.542969 275.898438 116.757812 277.238281 118.039062 278.519531 C 119.320312 279.800781 120.660156 281.015625 122.058594 282.164062 C 123.460938 283.3125 124.914062 284.390625 126.417969 285.398438 C 127.925781 286.40625 129.476562 287.335938 131.074219 288.191406 C 132.667969 289.042969 134.304688 289.820312 135.976562 290.511719 C 137.652344 291.207031 139.355469 291.816406 141.085938 292.34375 C 142.820312 292.871094 144.574219 293.3125 146.351562 293.667969 C 148.125 294.023438 149.914062 294.289062 151.71875 294.46875 C 153.519531 294.648438 155.328125 294.738281 157.136719 294.742188 L 259.742188 294.742188 C 261.554688 294.742188 263.359375 294.652344 265.164062 294.476562 C 266.96875 294.300781 268.757812 294.035156 270.535156 293.679688 C 272.3125 293.328125 274.066406 292.886719 275.800781 292.363281 C 277.535156 291.835938 279.242188 291.226562 280.914062 290.535156 C 282.589844 289.839844 284.226562 289.066406 285.824219 288.214844 C 287.421875 287.359375 288.972656 286.429688 290.480469 285.421875 C 291.988281 284.417969 293.441406 283.339844 294.839844 282.1875 C 296.242188 281.039062 297.582031 279.824219 298.863281 278.542969 C 300.144531 277.261719 301.359375 275.921875 302.511719 274.519531 C 303.660156 273.121094 304.738281 271.664062 305.746094 270.160156 C 306.75 268.652344 307.679688 267.101562 308.535156 265.5 C 309.390625 263.902344 310.164062 262.265625 310.855469 260.59375 C 311.550781 258.917969 312.160156 257.214844 312.683594 255.480469 C 313.210938 253.746094 313.648438 251.992188 314.003906 250.214844 C 314.355469 248.4375 314.621094 246.644531 314.796875 244.84375 C 314.972656 243.039062 315.0625 241.230469 315.0625 239.421875 C 315.0625 238.867188 315.007812 238.320312 314.898438 237.78125 C 314.792969 237.238281 314.632812 236.710938 314.421875 236.203125 C 314.210938 235.691406 313.953125 235.207031 313.644531 234.75 C 313.335938 234.289062 312.988281 233.863281 312.597656 233.472656 C 312.207031 233.082031 311.785156 232.734375 311.324219 232.429688 C 310.867188 232.121094 310.382812 231.863281 309.871094 231.652344 C 309.359375 231.441406 308.835938 231.28125 308.292969 231.171875 C 307.753906 231.066406 307.207031 231.011719 306.652344 231.011719 C 306.101562 231.011719 305.554688 231.066406 305.011719 231.171875 C 304.472656 231.28125 303.945312 231.441406 303.433594 231.652344 C 302.925781 231.863281 302.441406 232.121094 301.980469 232.429688 C 301.523438 232.734375 301.097656 233.082031 300.707031 233.472656 C 300.316406 233.863281 299.96875 234.289062 299.660156 234.75 C 299.355469 235.207031 299.097656 235.691406 298.882812 236.203125 C 298.671875 236.710938 298.515625 237.238281 298.40625 237.78125 C 298.296875 238.320312 298.246094 238.867188 298.246094 239.421875 C 298.246094 240.679688 298.183594 241.9375 298.0625 243.195312 C 297.9375 244.449219 297.753906 245.695312 297.507812 246.933594 C 297.261719 248.171875 296.957031 249.390625 296.589844 250.597656 C 296.226562 251.804688 295.800781 252.992188 295.320312 254.15625 C 294.835938 255.324219 294.296875 256.460938 293.703125 257.574219 C 293.109375 258.6875 292.460938 259.765625 291.761719 260.816406 C 291.0625 261.863281 290.3125 262.875 289.511719 263.851562 C 288.710938 264.828125 287.867188 265.761719 286.972656 266.652344 C 286.082031 267.542969 285.148438 268.390625 284.171875 269.191406 C 283.199219 269.988281 282.1875 270.742188 281.136719 271.441406 C 280.089844 272.140625 279.007812 272.789062 277.894531 273.382812 C 276.785156 273.976562 275.644531 274.515625 274.480469 275 C 273.3125 275.480469 272.128906 275.90625 270.921875 276.269531 C 269.714844 276.636719 268.492188 276.941406 267.253906 277.1875 C 266.015625 277.433594 264.769531 277.617188 263.515625 277.738281 C 262.261719 277.863281 261.003906 277.925781 259.742188 277.921875 L 157.136719 277.921875 C 155.878906 277.921875 154.621094 277.859375 153.367188 277.734375 C 152.109375 277.609375 150.867188 277.421875 149.628906 277.175781 C 148.394531 276.929688 147.171875 276.621094 145.964844 276.257812 C 144.761719 275.890625 143.574219 275.464844 142.410156 274.980469 C 141.246094 274.496094 140.109375 273.960938 138.996094 273.363281 C 137.886719 272.769531 136.804688 272.121094 135.757812 271.421875 C 134.710938 270.71875 133.699219 269.96875 132.722656 269.171875 C 131.75 268.371094 130.816406 267.523438 129.925781 266.632812 C 129.035156 265.742188 128.1875 264.808594 127.386719 263.835938 C 126.589844 262.859375 125.835938 261.847656 125.136719 260.800781 C 124.4375 259.753906 123.789062 258.671875 123.195312 257.5625 C 122.597656 256.449219 122.058594 255.3125 121.578125 254.148438 C 121.09375 252.984375 120.667969 251.796875 120.300781 250.59375 C 119.933594 249.386719 119.628906 248.164062 119.382812 246.929688 C 119.132812 245.691406 118.949219 244.445312 118.824219 243.191406 C 118.699219 241.9375 118.636719 240.679688 118.632812 239.421875 L 118.632812 217.472656 C 118.636719 216.210938 118.699219 214.953125 118.824219 213.699219 C 118.949219 212.445312 119.132812 211.199219 119.382812 209.964844 C 119.628906 208.726562 119.9375 207.507812 120.300781 206.300781 C 120.667969 205.09375 121.09375 203.910156 121.578125 202.746094 C 122.058594 201.582031 122.597656 200.441406 123.195312 199.332031 C 123.789062 198.21875 124.4375 197.140625 125.136719 196.09375 C 125.835938 195.042969 126.589844 194.03125 127.386719 193.058594 C 128.1875 192.085938 129.035156 191.152344 129.925781 190.261719 C 130.816406 189.367188 131.75 188.523438 132.722656 187.722656 C 133.699219 186.921875 134.710938 186.171875 135.757812 185.472656 C 136.804688 184.773438 137.886719 184.125 138.996094 183.527344 C 140.109375 182.933594 141.246094 182.394531 142.410156 181.914062 C 143.574219 181.429688 144.761719 181.003906 145.964844 180.636719 C 147.171875 180.269531 148.394531 179.964844 149.628906 179.71875 C 150.867188 179.46875 152.109375 179.285156 153.367188 179.160156 C 154.621094 179.035156 155.878906 178.972656 157.136719 178.96875 L 215.285156 178.96875 C 215.835938 178.96875 216.382812 178.917969 216.925781 178.808594 C 217.46875 178.699219 217.992188 178.542969 218.503906 178.328125 C 219.011719 178.117188 219.496094 177.859375 219.957031 177.554688 C 220.414062 177.246094 220.839844 176.898438 221.230469 176.507812 C 221.621094 176.117188 221.96875 175.691406 222.277344 175.234375 C 222.582031 174.773438 222.84375 174.289062 223.054688 173.777344 C 223.265625 173.269531 223.425781 172.742188 223.53125 172.203125 C 223.640625 171.660156 223.695312 171.113281 223.695312 170.5625 C 223.695312 170.007812 223.640625 169.460938 223.53125 168.921875 C 223.425781 168.378906 223.265625 167.855469 223.054688 167.34375 C 222.84375 166.832031 222.582031 166.347656 222.277344 165.890625 C 221.96875 165.429688 221.621094 165.007812 221.230469 164.617188 C 220.839844 164.226562 220.414062 163.875 219.957031 163.570312 C 219.496094 163.261719 219.011719 163.003906 218.503906 162.792969 C 217.992188 162.582031 217.46875 162.421875 216.925781 162.3125 C 216.382812 162.207031 215.835938 162.152344 215.285156 162.152344 Z M 164.378906 202.941406 C 177.097656 202.941406 187.445312 213.585938 187.445312 226.667969 C 187.445312 239.75 177.097656 250.394531 164.378906 250.394531 C 151.660156 250.394531 141.3125 239.75 141.3125 226.667969 C 141.3125 213.585938 151.660156 202.941406 164.378906 202.941406 Z M 164.378906 219.757812 C 160.933594 219.757812 158.128906 222.855469 158.128906 226.667969 C 158.128906 230.480469 160.933594 233.578125 164.378906 233.578125 C 167.824219 233.578125 170.628906 230.480469 170.628906 226.667969 C 170.628906 222.855469 167.824219 219.757812 164.378906 219.757812 Z M 219.332031 226.667969 C 219.332031 213.585938 229.679688 202.941406 242.398438 202.941406 C 255.121094 202.941406 265.46875 213.585938 265.46875 226.667969 C 265.46875 239.75 255.121094 250.394531 242.398438 250.394531 C 229.679688 250.394531 219.332031 239.75 219.332031 226.667969 Z M 236.148438 226.667969 C 236.148438 230.480469 238.953125 233.578125 242.398438 233.578125 C 245.847656 233.578125 248.648438 230.480469 248.648438 226.667969 C 248.648438 222.855469 245.847656 219.757812 242.398438 219.757812 C 238.953125 219.757812 236.148438 222.855469 236.148438 226.667969 Z M 392.492188 224.441406 L 392.492188 270.546875 C 392.492188 271.339844 392.453125 272.128906 392.371094 272.917969 C 392.292969 273.703125 392.179688 274.488281 392.023438 275.265625 C 391.867188 276.042969 391.675781 276.808594 391.445312 277.566406 C 391.214844 278.324219 390.945312 279.070312 390.644531 279.800781 C 390.339844 280.53125 390 281.246094 389.628906 281.945312 C 389.253906 282.644531 388.847656 283.324219 388.40625 283.980469 C 387.964844 284.640625 387.496094 285.277344 386.992188 285.886719 C 386.488281 286.5 385.957031 287.085938 385.398438 287.644531 C 384.835938 288.207031 384.25 288.738281 383.640625 289.242188 C 383.027344 289.742188 382.390625 290.214844 381.734375 290.65625 C 381.074219 291.09375 380.394531 291.503906 379.695312 291.875 C 379 292.25 378.285156 292.589844 377.550781 292.890625 C 376.820312 293.195312 376.074219 293.460938 375.316406 293.691406 C 374.558594 293.921875 373.792969 294.117188 373.015625 294.269531 C 372.238281 294.425781 371.457031 294.542969 370.667969 294.621094 C 369.878906 294.699219 369.089844 294.738281 368.296875 294.742188 L 352.117188 294.742188 L 352.117188 313.558594 C 352.117188 314.699219 352.058594 315.839844 351.945312 316.980469 C 351.832031 318.117188 351.664062 319.25 351.4375 320.371094 C 351.214844 321.492188 350.9375 322.597656 350.605469 323.695312 C 350.269531 324.789062 349.886719 325.863281 349.449219 326.921875 C 349.007812 327.976562 348.519531 329.007812 347.980469 330.019531 C 347.441406 331.027344 346.851562 332.007812 346.21875 332.957031 C 345.582031 333.90625 344.902344 334.824219 344.175781 335.710938 C 343.449219 336.59375 342.683594 337.441406 341.875 338.25 C 341.0625 339.058594 340.21875 339.824219 339.332031 340.550781 C 338.449219 341.277344 337.53125 341.957031 336.582031 342.59375 C 335.628906 343.230469 334.652344 343.816406 333.640625 344.355469 C 332.632812 344.894531 331.601562 345.382812 330.542969 345.824219 C 329.488281 346.261719 328.414062 346.648438 327.316406 346.980469 C 326.222656 347.3125 325.117188 347.589844 323.996094 347.816406 C 322.871094 348.039062 321.742188 348.207031 320.605469 348.320312 C 319.464844 348.433594 318.324219 348.492188 317.179688 348.492188 L 303.847656 348.492188 C 307.53125 350.867188 311.054688 353.460938 314.417969 356.277344 C 317.78125 359.09375 320.953125 362.105469 323.9375 365.316406 C 326.925781 368.527344 329.699219 371.914062 332.261719 375.46875 C 334.824219 379.027344 337.15625 382.730469 339.253906 386.582031 C 341.355469 390.429688 343.207031 394.394531 344.8125 398.476562 C 346.417969 402.554688 347.761719 406.71875 348.847656 410.96875 C 349.929688 415.21875 350.746094 419.515625 351.292969 423.867188 C 351.839844 428.21875 352.117188 432.585938 352.117188 436.96875 L 352.117188 462.53125 C 352.117188 463.082031 352.0625 463.628906 351.957031 464.171875 C 351.847656 464.714844 351.6875 465.238281 351.476562 465.75 C 351.265625 466.257812 351.007812 466.742188 350.699219 467.203125 C 350.394531 467.660156 350.042969 468.085938 349.65625 468.476562 C 349.265625 468.867188 348.839844 469.214844 348.378906 469.523438 C 347.921875 469.828125 347.4375 470.089844 346.925781 470.300781 C 346.417969 470.511719 345.890625 470.671875 345.347656 470.777344 C 344.808594 470.886719 344.261719 470.941406 343.707031 470.941406 L 73.171875 470.941406 C 72.617188 470.941406 72.070312 470.886719 71.53125 470.777344 C 70.988281 470.671875 70.460938 470.511719 69.953125 470.300781 C 69.441406 470.089844 68.957031 469.828125 68.5 469.523438 C 68.039062 469.214844 67.613281 468.867188 67.226562 468.476562 C 66.835938 468.085938 66.484375 467.660156 66.179688 467.203125 C 65.871094 466.742188 65.613281 466.257812 65.402344 465.75 C 65.191406 465.238281 65.03125 464.714844 64.921875 464.171875 C 64.816406 463.628906 64.761719 463.082031 64.761719 462.53125 L 64.761719 438.074219 C 64.765625 433.628906 65.042969 429.203125 65.597656 424.792969 C 66.15625 420.386719 66.984375 416.027344 68.085938 411.722656 C 69.1875 407.417969 70.554688 403.199219 72.1875 399.0625 C 73.816406 394.929688 75.699219 390.914062 77.835938 387.015625 C 79.96875 383.117188 82.339844 379.367188 84.941406 375.765625 C 87.546875 372.164062 90.363281 368.738281 93.398438 365.492188 C 96.429688 362.242188 99.65625 359.195312 103.070312 356.351562 C 106.484375 353.507812 110.0625 350.886719 113.808594 348.492188 L 99.699219 348.492188 C 98.554688 348.492188 97.414062 348.433594 96.273438 348.320312 C 95.136719 348.207031 94.007812 348.039062 92.886719 347.816406 C 91.761719 347.589844 90.65625 347.3125 89.5625 346.980469 C 88.464844 346.648438 87.390625 346.261719 86.335938 345.824219 C 85.277344 345.382812 84.246094 344.894531 83.238281 344.355469 C 82.226562 343.816406 81.25 343.230469 80.296875 342.59375 C 79.347656 341.957031 78.429688 341.277344 77.546875 340.550781 C 76.660156 339.824219 75.816406 339.058594 75.007812 338.25 C 74.195312 337.441406 73.429688 336.59375 72.703125 335.710938 C 71.976562 334.824219 71.296875 333.90625 70.660156 332.957031 C 70.027344 332.007812 69.4375 331.027344 68.898438 330.019531 C 68.359375 329.007812 67.871094 327.976562 67.433594 326.921875 C 66.992188 325.863281 66.609375 324.789062 66.273438 323.695312 C 65.941406 322.597656 65.664062 321.492188 65.441406 320.371094 C 65.214844 319.25 65.046875 318.117188 64.933594 316.980469 C 64.820312 315.839844 64.761719 314.699219 64.761719 313.558594 L 64.761719 294.742188 L 48.582031 294.742188 C 47.789062 294.738281 47 294.699219 46.210938 294.621094 C 45.421875 294.542969 44.640625 294.425781 43.863281 294.269531 C 43.085938 294.117188 42.320312 293.921875 41.5625 293.691406 C 40.804688 293.460938 40.058594 293.195312 39.328125 292.890625 C 38.59375 292.589844 37.878906 292.25 37.183594 291.875 C 36.484375 291.503906 35.804688 291.09375 35.144531 290.65625 C 34.488281 290.214844 33.851562 289.742188 33.238281 289.242188 C 32.628906 288.738281 32.042969 288.207031 31.480469 287.644531 C 30.921875 287.085938 30.390625 286.5 29.886719 285.886719 C 29.386719 285.277344 28.914062 284.640625 28.472656 283.980469 C 28.03125 283.324219 27.625 282.644531 27.253906 281.945312 C 26.878906 281.246094 26.539062 280.53125 26.234375 279.800781 C 25.933594 279.070312 25.664062 278.324219 25.433594 277.566406 C 25.203125 276.808594 25.011719 276.042969 24.855469 275.265625 C 24.703125 274.488281 24.585938 273.703125 24.507812 272.917969 C 24.429688 272.128906 24.386719 271.339844 24.386719 270.546875 L 24.386719 143.9375 C 22.703125 143.433594 21.066406 142.796875 19.484375 142.027344 C 17.902344 141.261719 16.390625 140.371094 14.953125 139.359375 C 13.511719 138.347656 12.164062 137.226562 10.90625 136 C 9.648438 134.769531 8.496094 133.445312 7.453125 132.03125 C 6.410156 130.613281 5.484375 129.125 4.679688 127.558594 C 3.875 125.996094 3.203125 124.375 2.660156 122.703125 C 2.117188 121.03125 1.714844 119.324219 1.449219 117.585938 C 1.179688 115.847656 1.054688 114.097656 1.070312 112.335938 C 1.070312 94.265625 15.300781 79.5625 32.796875 79.5625 C 50.289062 79.5625 64.519531 94.265625 64.519531 112.335938 C 64.535156 114.097656 64.410156 115.847656 64.144531 117.585938 C 63.878906 119.324219 63.472656 121.03125 62.929688 122.703125 C 62.386719 124.375 61.714844 125.996094 60.910156 127.558594 C 60.109375 129.125 59.183594 130.613281 58.140625 132.03125 C 57.09375 133.445312 55.941406 134.769531 54.683594 136 C 53.425781 137.226562 52.078125 138.347656 50.640625 139.359375 C 49.199219 140.371094 47.6875 141.261719 46.105469 142.027344 C 44.523438 142.796875 42.890625 143.433594 41.203125 143.9375 L 41.203125 201.203125 C 43.691406 200.378906 46.242188 199.96875 48.863281 199.96875 L 64.761719 199.96875 L 64.761719 177.257812 C 64.761719 176.070312 64.792969 174.886719 64.851562 173.703125 C 64.914062 172.523438 65 171.339844 65.117188 170.160156 C 65.234375 168.984375 65.382812 167.808594 65.554688 166.636719 C 65.730469 165.464844 65.933594 164.296875 66.167969 163.136719 C 66.398438 161.972656 66.660156 160.816406 66.949219 159.667969 C 67.238281 158.519531 67.554688 157.378906 67.898438 156.246094 C 68.242188 155.113281 68.617188 153.988281 69.015625 152.871094 C 69.414062 151.757812 69.84375 150.652344 70.296875 149.558594 C 70.75 148.464844 71.230469 147.382812 71.738281 146.308594 C 72.246094 145.238281 72.777344 144.183594 73.335938 143.136719 C 73.894531 142.09375 74.480469 141.0625 75.089844 140.046875 C 75.699219 139.03125 76.332031 138.03125 76.992188 137.046875 C 77.648438 136.058594 78.332031 135.09375 79.039062 134.140625 C 79.742188 133.1875 80.472656 132.253906 81.222656 131.339844 C 81.976562 130.425781 82.75 129.527344 83.546875 128.648438 C 84.339844 127.773438 85.15625 126.914062 85.996094 126.078125 C 86.832031 125.238281 87.691406 124.421875 88.570312 123.625 C 89.445312 122.832031 90.34375 122.058594 91.257812 121.304688 C 92.175781 120.554688 93.109375 119.824219 94.058594 119.117188 C 95.011719 118.414062 95.980469 117.730469 96.964844 117.070312 C 97.949219 116.414062 98.949219 115.78125 99.964844 115.171875 C 100.980469 114.5625 102.011719 113.976562 103.054688 113.417969 C 104.101562 112.859375 105.160156 112.324219 106.230469 111.820312 C 107.300781 111.3125 108.382812 110.832031 109.476562 110.378906 C 110.570312 109.921875 111.675781 109.496094 112.792969 109.097656 C 113.90625 108.695312 115.03125 108.324219 116.164062 107.980469 C 117.296875 107.636719 118.4375 107.316406 119.589844 107.03125 C 120.738281 106.742188 121.894531 106.480469 123.054688 106.25 C 124.214844 106.015625 125.382812 105.8125 126.554688 105.636719 C 127.726562 105.460938 128.902344 105.316406 130.082031 105.199219 C 131.261719 105.082031 132.441406 104.992188 133.625 104.933594 C 134.808594 104.875 135.992188 104.84375 137.175781 104.84375 L 211.933594 104.84375 C 212.488281 104.84375 213.035156 104.898438 213.574219 105.003906 C 214.117188 105.113281 214.640625 105.273438 215.152344 105.484375 C 215.664062 105.695312 216.148438 105.953125 216.605469 106.261719 C 217.066406 106.566406 217.488281 106.914062 217.878906 107.304688 C 218.269531 107.695312 218.621094 108.121094 218.925781 108.582031 C 219.234375 109.039062 219.492188 109.523438 219.703125 110.035156 C 219.914062 110.542969 220.074219 111.070312 220.179688 111.613281 C 220.289062 112.152344 220.34375 112.699219 220.34375 113.25 C 220.34375 113.804688 220.289062 114.351562 220.179688 114.890625 C 220.074219 115.433594 219.914062 115.960938 219.703125 116.46875 C 219.492188 116.980469 219.234375 117.464844 218.925781 117.921875 C 218.621094 118.382812 218.269531 118.808594 217.878906 119.199219 C 217.488281 119.589844 217.066406 119.9375 216.605469 120.242188 C 216.148438 120.550781 215.664062 120.808594 215.152344 121.019531 C 214.640625 121.230469 214.117188 121.390625 213.574219 121.5 C 213.035156 121.605469 212.488281 121.660156 211.933594 121.660156 L 137.175781 121.660156 C 135.355469 121.664062 133.539062 121.753906 131.730469 121.933594 C 129.917969 122.113281 128.117188 122.382812 126.335938 122.738281 C 124.550781 123.097656 122.785156 123.539062 121.042969 124.070312 C 119.300781 124.597656 117.589844 125.210938 115.910156 125.910156 C 114.230469 126.605469 112.585938 127.386719 110.980469 128.242188 C 109.375 129.101562 107.816406 130.039062 106.304688 131.050781 C 104.789062 132.0625 103.328125 133.144531 101.921875 134.300781 C 100.515625 135.453125 99.167969 136.675781 97.882812 137.960938 C 96.59375 139.25 95.375 140.597656 94.21875 142.003906 C 93.0625 143.410156 91.980469 144.871094 90.96875 146.382812 C 89.957031 147.898438 89.019531 149.457031 88.164062 151.0625 C 87.304688 152.667969 86.527344 154.308594 85.828125 155.992188 C 85.128906 157.671875 84.515625 159.382812 83.988281 161.125 C 83.457031 162.867188 83.015625 164.628906 82.65625 166.414062 C 82.300781 168.199219 82.03125 170 81.851562 171.808594 C 81.671875 173.621094 81.582031 175.4375 81.578125 177.257812 L 81.578125 313.558594 C 81.578125 314.148438 81.609375 314.742188 81.667969 315.332031 C 81.726562 315.921875 81.8125 316.507812 81.929688 317.089844 C 82.046875 317.671875 82.191406 318.246094 82.363281 318.8125 C 82.535156 319.382812 82.738281 319.941406 82.964844 320.488281 C 83.191406 321.035156 83.445312 321.570312 83.722656 322.09375 C 84.003906 322.617188 84.308594 323.125 84.640625 323.617188 C 84.96875 324.113281 85.320312 324.585938 85.699219 325.046875 C 86.074219 325.503906 86.472656 325.941406 86.890625 326.363281 C 87.3125 326.78125 87.75 327.179688 88.207031 327.554688 C 88.667969 327.933594 89.144531 328.285156 89.636719 328.617188 C 90.128906 328.945312 90.636719 329.25 91.160156 329.53125 C 91.683594 329.808594 92.21875 330.0625 92.765625 330.289062 C 93.316406 330.519531 93.871094 330.71875 94.441406 330.890625 C 95.007812 331.0625 95.582031 331.207031 96.164062 331.324219 C 96.746094 331.441406 97.332031 331.527344 97.921875 331.585938 C 98.511719 331.644531 99.105469 331.675781 99.699219 331.675781 L 317.179688 331.675781 C 317.773438 331.675781 318.367188 331.644531 318.957031 331.585938 C 319.546875 331.527344 320.132812 331.441406 320.714844 331.324219 C 321.296875 331.207031 321.871094 331.0625 322.4375 330.890625 C 323.007812 330.71875 323.5625 330.519531 324.113281 330.289062 C 324.660156 330.0625 325.195312 329.808594 325.71875 329.53125 C 326.242188 329.25 326.75 328.945312 327.242188 328.617188 C 327.734375 328.285156 328.210938 327.933594 328.671875 327.554688 C 329.128906 327.179688 329.566406 326.78125 329.988281 326.363281 C 330.40625 325.941406 330.804688 325.503906 331.179688 325.046875 C 331.558594 324.585938 331.910156 324.113281 332.238281 323.617188 C 332.570312 323.125 332.875 322.617188 333.15625 322.09375 C 333.433594 321.570312 333.6875 321.035156 333.914062 320.488281 C 334.144531 319.941406 334.34375 319.382812 334.515625 318.8125 C 334.6875 318.246094 334.832031 317.671875 334.949219 317.089844 C 335.066406 316.507812 335.152344 315.921875 335.210938 315.332031 C 335.269531 314.742188 335.300781 314.148438 335.300781 313.558594 L 335.300781 208.375 C 335.300781 207.824219 335.355469 207.277344 335.460938 206.734375 C 335.570312 206.195312 335.730469 205.667969 335.941406 205.15625 C 336.152344 204.648438 336.410156 204.164062 336.71875 203.703125 C 337.023438 203.246094 337.371094 202.820312 337.761719 202.429688 C 338.152344 202.039062 338.578125 201.691406 339.035156 201.382812 C 339.496094 201.078125 339.980469 200.820312 340.492188 200.605469 C 341 200.394531 341.527344 200.238281 342.066406 200.128906 C 342.609375 200.019531 343.15625 199.96875 343.707031 199.96875 L 368.015625 199.96875 C 368.816406 199.96875 369.617188 200.007812 370.414062 200.085938 C 371.210938 200.167969 372.003906 200.285156 372.789062 200.441406 C 373.574219 200.597656 374.351562 200.792969 375.117188 201.027344 C 375.882812 201.261719 376.636719 201.53125 377.378906 201.835938 C 378.117188 202.144531 378.84375 202.488281 379.546875 202.867188 C 380.253906 203.242188 380.941406 203.65625 381.609375 204.101562 C 382.273438 204.546875 382.917969 205.023438 383.535156 205.53125 C 384.15625 206.039062 384.75 206.578125 385.316406 207.144531 C 385.882812 207.710938 386.417969 208.304688 386.929688 208.921875 C 387.4375 209.542969 387.914062 210.183594 388.359375 210.851562 C 388.804688 211.519531 389.214844 212.203125 389.59375 212.910156 C 389.972656 213.617188 390.3125 214.339844 390.621094 215.082031 C 390.929688 215.820312 391.199219 216.574219 391.433594 217.339844 C 391.664062 218.109375 391.859375 218.882812 392.015625 219.671875 C 392.175781 220.457031 392.292969 221.246094 392.371094 222.046875 C 392.449219 222.84375 392.492188 223.640625 392.492188 224.441406 Z M 32.796875 128.296875 C 41.015625 128.296875 47.703125 121.136719 47.703125 112.335938 C 47.703125 103.539062 41.015625 96.378906 32.796875 96.378906 C 24.574219 96.378906 17.886719 103.539062 17.886719 112.335938 C 17.886719 121.136719 24.574219 128.296875 32.796875 128.296875 Z M 64.761719 277.921875 L 64.761719 216.785156 L 48.863281 216.785156 C 48.359375 216.785156 47.863281 216.835938 47.371094 216.933594 C 46.875 217.03125 46.398438 217.175781 45.933594 217.371094 C 45.46875 217.5625 45.027344 217.796875 44.609375 218.078125 C 44.191406 218.355469 43.804688 218.675781 43.449219 219.03125 C 43.09375 219.386719 42.777344 219.773438 42.496094 220.191406 C 42.21875 220.609375 41.980469 221.050781 41.789062 221.511719 C 41.597656 221.976562 41.453125 222.457031 41.351562 222.949219 C 41.253906 223.441406 41.203125 223.941406 41.203125 224.441406 L 41.203125 270.546875 C 41.203125 271.03125 41.253906 271.511719 41.347656 271.984375 C 41.441406 272.460938 41.582031 272.921875 41.769531 273.367188 C 41.953125 273.816406 42.179688 274.242188 42.449219 274.644531 C 42.71875 275.046875 43.023438 275.417969 43.367188 275.761719 C 43.710938 276.101562 44.082031 276.410156 44.484375 276.675781 C 44.886719 276.945312 45.3125 277.175781 45.761719 277.359375 C 46.207031 277.546875 46.667969 277.683594 47.144531 277.78125 C 47.617188 277.875 48.097656 277.921875 48.582031 277.921875 Z M 171.160156 348.492188 C 160.53125 348.484375 150.230469 350.316406 140.257812 353.992188 L 160.121094 381.136719 C 160.835938 382.113281 161.734375 382.875 162.8125 383.421875 C 163.890625 383.96875 165.035156 384.242188 166.246094 384.246094 L 243.582031 384.246094 C 244.714844 384.246094 245.796875 384.007812 246.820312 383.523438 C 247.847656 383.039062 248.71875 382.359375 249.441406 381.480469 L 273.289062 352.539062 C 264.675781 349.835938 255.851562 348.488281 246.824219 348.492188 Z M 289.398438 359.4375 L 262.417969 392.175781 C 261.273438 393.570312 259.992188 394.816406 258.574219 395.925781 C 257.152344 397.03125 255.628906 397.96875 254 398.738281 C 252.371094 399.507812 250.675781 400.085938 248.917969 400.476562 C 247.160156 400.871094 245.382812 401.066406 243.582031 401.0625 L 166.246094 401.0625 C 164.328125 401.058594 162.4375 400.832031 160.570312 400.386719 C 158.707031 399.9375 156.917969 399.28125 155.207031 398.410156 C 153.496094 397.542969 151.910156 396.488281 150.445312 395.246094 C 148.980469 394.007812 147.683594 392.613281 146.546875 391.066406 L 124.855469 361.417969 C 121.566406 363.402344 118.421875 365.589844 115.417969 367.980469 C 112.410156 370.371094 109.570312 372.941406 106.898438 375.695312 C 104.222656 378.449219 101.734375 381.367188 99.4375 384.441406 C 97.136719 387.515625 95.042969 390.722656 93.15625 394.066406 C 91.269531 397.410156 89.601562 400.859375 88.160156 404.417969 C 86.714844 407.976562 85.503906 411.609375 84.527344 415.324219 C 83.550781 419.035156 82.816406 422.796875 82.320312 426.605469 C 81.828125 430.410156 81.582031 434.234375 81.578125 438.074219 L 81.578125 454.121094 L 335.300781 454.121094 L 335.300781 436.96875 C 335.296875 435 335.230469 433.03125 335.097656 431.066406 C 334.964844 429.101562 334.765625 427.140625 334.503906 425.191406 C 334.242188 423.238281 333.910156 421.296875 333.519531 419.367188 C 333.125 417.433594 332.667969 415.519531 332.148438 413.621094 C 331.625 411.71875 331.042969 409.839844 330.394531 407.980469 C 329.75 406.117188 329.042969 404.28125 328.273438 402.46875 C 327.503906 400.652344 326.675781 398.867188 325.785156 397.109375 C 324.898438 395.351562 323.953125 393.625 322.949219 391.929688 C 321.945312 390.234375 320.886719 388.574219 319.769531 386.949219 C 318.65625 385.324219 317.488281 383.738281 316.269531 382.191406 C 315.050781 380.644531 313.777344 379.140625 312.457031 377.679688 C 311.136719 376.21875 309.769531 374.800781 308.355469 373.433594 C 306.9375 372.0625 305.480469 370.738281 303.976562 369.464844 C 302.472656 368.195312 300.929688 366.972656 299.34375 365.800781 C 297.757812 364.632812 296.136719 363.515625 294.476562 362.453125 C 292.816406 361.390625 291.125 360.386719 289.398438 359.4375 Z M 375.675781 224.441406 C 375.675781 223.941406 375.625 223.441406 375.527344 222.949219 C 375.429688 222.457031 375.28125 221.976562 375.089844 221.511719 C 374.898438 221.050781 374.660156 220.609375 374.382812 220.191406 C 374.101562 219.773438 373.785156 219.386719 373.429688 219.03125 C 373.074219 218.675781 372.6875 218.355469 372.269531 218.078125 C 371.851562 217.796875 371.410156 217.5625 370.945312 217.371094 C 370.480469 217.175781 370.003906 217.03125 369.507812 216.933594 C 369.015625 216.835938 368.519531 216.785156 368.015625 216.785156 L 352.117188 216.785156 L 352.117188 277.921875 L 368.296875 277.921875 C 368.78125 277.921875 369.261719 277.875 369.734375 277.78125 C 370.210938 277.6875 370.671875 277.546875 371.121094 277.359375 C 371.566406 277.175781 371.992188 276.945312 372.394531 276.675781 C 372.796875 276.410156 373.167969 276.101562 373.511719 275.761719 C 373.855469 275.417969 374.160156 275.046875 374.429688 274.644531 C 374.699219 274.242188 374.925781 273.816406 375.109375 273.367188 C 375.296875 272.921875 375.4375 272.460938 375.53125 271.984375 C 375.625 271.511719 375.675781 271.03125 375.675781 270.546875 Z M 257.058594 421.011719 C 256.507812 421.011719 255.960938 421.066406 255.417969 421.175781 C 254.875 421.28125 254.351562 421.441406 253.839844 421.652344 C 253.332031 421.863281 252.847656 422.125 252.386719 422.429688 C 251.929688 422.738281 251.503906 423.085938 251.113281 423.476562 C 250.722656 423.867188 250.375 424.292969 250.066406 424.75 C 249.761719 425.210938 249.5 425.695312 249.289062 426.203125 C 249.078125 426.714844 248.917969 427.238281 248.8125 427.78125 C 248.703125 428.324219 248.648438 428.871094 248.648438 429.421875 C 248.648438 429.972656 248.703125 430.519531 248.8125 431.0625 C 248.917969 431.605469 249.078125 432.128906 249.289062 432.640625 C 249.5 433.148438 249.761719 433.632812 250.066406 434.09375 C 250.375 434.550781 250.722656 434.976562 251.113281 435.367188 C 251.503906 435.757812 251.929688 436.105469 252.386719 436.414062 C 252.847656 436.71875 253.332031 436.980469 253.839844 437.191406 C 254.351562 437.402344 254.875 437.5625 255.417969 437.667969 C 255.960938 437.777344 256.507812 437.832031 257.058594 437.832031 L 290.773438 437.832031 C 291.328125 437.832031 291.875 437.777344 292.414062 437.667969 C 292.957031 437.5625 293.484375 437.402344 293.992188 437.191406 C 294.503906 436.980469 294.988281 436.71875 295.445312 436.414062 C 295.90625 436.105469 296.332031 435.757812 296.722656 435.367188 C 297.109375 434.976562 297.460938 434.550781 297.765625 434.09375 C 298.074219 433.632812 298.332031 433.148438 298.542969 432.640625 C 298.753906 432.128906 298.914062 431.605469 299.023438 431.0625 C 299.128906 430.519531 299.183594 429.972656 299.183594 429.421875 C 299.183594 428.871094 299.128906 428.324219 299.023438 427.78125 C 298.914062 427.238281 298.753906 426.714844 298.542969 426.203125 C 298.332031 425.695312 298.074219 425.210938 297.765625 424.75 C 297.460938 424.292969 297.109375 423.867188 296.722656 423.476562 C 296.332031 423.085938 295.90625 422.738281 295.445312 422.429688 C 294.988281 422.125 294.503906 421.863281 293.992188 421.652344 C 293.484375 421.441406 292.957031 421.28125 292.414062 421.175781 C 291.875 421.066406 291.328125 421.011719 290.773438 421.011719 Z M 154.824219 421.011719 L 121.109375 421.011719 C 120.558594 421.011719 120.011719 421.066406 119.46875 421.175781 C 118.925781 421.28125 118.402344 421.441406 117.890625 421.652344 C 117.382812 421.863281 116.898438 422.125 116.4375 422.429688 C 115.980469 422.738281 115.554688 423.085938 115.164062 423.476562 C 114.773438 423.867188 114.425781 424.292969 114.117188 424.75 C 113.8125 425.210938 113.550781 425.695312 113.339844 426.203125 C 113.128906 426.714844 112.96875 427.238281 112.863281 427.78125 C 112.753906 428.324219 112.699219 428.871094 112.699219 429.421875 C 112.699219 429.972656 112.753906 430.519531 112.863281 431.0625 C 112.96875 431.605469 113.128906 432.128906 113.339844 432.640625 C 113.550781 433.148438 113.8125 433.632812 114.117188 434.09375 C 114.425781 434.550781 114.773438 434.976562 115.164062 435.367188 C 115.554688 435.757812 115.980469 436.105469 116.4375 436.414062 C 116.898438 436.71875 117.382812 436.980469 117.890625 437.191406 C 118.402344 437.402344 118.925781 437.5625 119.46875 437.667969 C 120.011719 437.777344 120.558594 437.832031 121.109375 437.832031 L 154.824219 437.832031 C 155.378906 437.832031 155.925781 437.777344 156.464844 437.667969 C 157.007812 437.5625 157.535156 437.402344 158.042969 437.191406 C 158.554688 436.980469 159.039062 436.71875 159.496094 436.414062 C 159.957031 436.105469 160.382812 435.757812 160.769531 435.367188 C 161.160156 434.976562 161.511719 434.550781 161.816406 434.09375 C 162.125 433.632812 162.382812 433.148438 162.59375 432.640625 C 162.804688 432.128906 162.964844 431.605469 163.074219 431.0625 C 163.179688 430.519531 163.234375 429.972656 163.234375 429.421875 C 163.234375 428.871094 163.179688 428.324219 163.074219 427.78125 C 162.964844 427.238281 162.804688 426.714844 162.59375 426.203125 C 162.382812 425.695312 162.125 425.210938 161.816406 424.75 C 161.511719 424.292969 161.160156 423.867188 160.769531 423.476562 C 160.382812 423.085938 159.957031 422.738281 159.496094 422.429688 C 159.039062 422.125 158.554688 421.863281 158.042969 421.652344 C 157.535156 421.441406 157.007812 421.28125 156.464844 421.175781 C 155.925781 421.066406 155.378906 421.011719 154.824219 421.011719 Z M 154.824219 421.011719 " fill-opacity="1" fill-rule="nonzero"/></g></svg>